<svg xmlns="http://www.w3.org/2000/svg" viewBox="0 0 400 400" enable-background="new 0 0 400 400"><path fill="#786459" d="M50.172 390.004V158.336L197.62 50.41l150.488 107.926v231.668z"/><path d="M142.562 141.775s-12.458-15.78 0-22.424c12.458-6.643 24.085 11.213 24.085 11.213l61.457-.74s11.627-15.096 25.746-11.954c14.12 3.142 3.322 23.904 3.322 23.904" fill="#E1D5DA"/><path d="M143.372 137.923s-12.458 15.78 0 22.424 24.085-11.212 24.085-11.212l61.457.74s11.627 15.096 25.746 11.954 3.322-23.906 3.322-23.906" fill="#FEEEE1"/><path fill="#E26767" d="M5.53 153.943L199.88 20.523l189.34 137.862-41.114-.05L197.62 50.41 50.172 158.336l-44.643.05z"/><path d="M237.1 202.42c-10.752-5.708-23.297-9.137-37.96-9.382-106.406-1.78-100.326 170.51-100.326 170.51S130.73 196.37 237.1 202.418z" fill="#A99E80"/><path d="M237.1 202.42C130.73 196.37 98.813 363.547 98.813 363.547h202.17s3.38-125.418-63.885-161.13z" fill="#D3BF82"/></svg>