<svg xmlns="http://www.w3.org/2000/svg" viewBox="0 0 400 400" enable-background="new 0 0 400 400"><path d="M337.07 244.618c0-.004 0-.007.002-.01v-.003c-28.764-27.236-66.026-89.306-76.02-106.373l-105.435 49.815s127.472 59.498 181.452 56.57z" fill="#EACA95"/><path d="M234.088 90.633c-.898 1.768-1.392 3.25-1.392 3.25l1.392-3.25zM234.088 90.633c-.898 1.768-1.392 3.25-1.392 3.25l1.392-3.25zM236.892 84.088c.25-.58.217-.505 0 0z" fill="none"/><path d="M156.063 188.047L90.895 94.522c-28.64 33.78-29.295 59.813-29.295 59.813-6.707 3.194-11.76 7.197-15.622 11.3.525.514 53.467 52.353 89.33 60.167 0 0 26.017 14.204 57.1 30.587-34.24-17.82-36.345-68.343-36.345-68.343z" fill="#2E85C4"/><path d="M90.895 94.522s39.037-57.422 64.723-30.21c0 0 21.2 61.63 49.455 54.427 0 0 24.18-23.68 31.82-34.652 0 0 11.643-.566 14.044 18.643l10.116 35.5-105.435 49.816-64.723-93.524z" fill="#3C4681"/><path d="M155.617 64.313s-10.967 48.24 16.917 55.116 32.54-.69 32.54-.69 16.353-7.715-7.71-8.48c-24.066-.763-41.747-45.947-41.747-45.947z" fill="#43372B"/><path d="M132.56 248.074c-32.557-16.89-66.37-37.033-98.336-60.66 0 0-4.182-7.405 11.753-21.78l15.623-11.3s-31.27-2.415-31.27 33.712c0 0-8.49 12.67-10.604 23.83l96.425 58.335 16.41-22.136z" fill="#3A4D89"/><path d="M132.56 248.074l-16.41 22.138-96.425-58.335c-.3 1.586-.473 3.143-.473 4.627 0 11.93-13.635 73.286-3.41 84.364s18.75 11.078 18.75 11.078l273.544 5.965c0 .002-82.655-21.632-175.576-69.836z" fill="#2E85C4"/><path d="M116.15 270.212s27.034 44.102 47.802 44.555c20.77.453 44.017 1.218 44.017 1.218s19.135-15.703 15.683-25.466c0 0-88.257-36.122-92.783-40.168l-14.72 19.86z" fill="#F0C154"/><path d="M207.97 315.986s17.73-13.594 15.684-25.466l68.21 21.37v1.777l-83.894 2.32z" fill="#009BB9"/><ellipse cx="255.046" cy="159.493" rx="7.016" ry="6.563" fill="none" stroke="#414142" stroke-width="2" stroke-miterlimit="10"/><ellipse cx="293.871" cy="214.892" rx="7.016" ry="6.563" fill="none" stroke="#414142" stroke-width="2" stroke-miterlimit="10"/><ellipse cx="279.838" cy="197.145" rx="7.016" ry="6.563" fill="none" stroke="#414142" stroke-width="2" stroke-miterlimit="10"/><ellipse cx="268.069" cy="179.137" rx="7.016" ry="6.563" fill="none" stroke="#414142" stroke-width="2" stroke-miterlimit="10"/><ellipse cx="307.501" cy="230.255" rx="6.381" ry="5.969" fill="none" stroke="#414142" stroke-width="2" stroke-miterlimit="10"/><path d="M249.917 160.926s1.925-10.744 17.014-12.806l2.92 4.81s-13.42 8.953-13.53 10.726-5.93-.25-6.403-2.73zM262.855 180.42s1.925-9.917 17.02-11.82l2.92 4.44s-13.424 8.263-13.535 9.9c-.11 1.637-5.933-.23-6.405-2.52zM275.085 197.665s1.92-9.718 16.98-11.583l2.913 4.35s-13.392 8.098-13.503 9.702c-.11 1.606-5.92-.225-6.39-2.47zM289.245 215.87s1.67-10.06 14.768-11.988l2.532 4.502s-11.647 8.38-11.743 10.04c-.096 1.662-5.148-.233-5.557-2.555zM302.98 231.202s1.562-8.95 13.816-10.668l2.37 4.007s-10.898 7.46-10.988 8.937c-.09 1.478-4.816-.21-5.2-2.275z" fill="#EBECEE"/><path d="M306.39 320.972c.875-.932 1.49-1.946 1.746-3.06l-19.6-5.113s-240.31 9.373-272.693-11.93c0 0-10.255 8.924-7.207 16.763 39.766 2.79 218.445 14.375 297.755 3.34z" fill="#D6E2CD"/><path d="M8.637 317.633c1.164 2.993 4.258 5.83 10.616 7.95 23.008 7.668 249.684 5.112 249.684 5.112s29.635-1.383 37.455-9.723c-79.31 11.036-257.99-.55-297.755-3.34zM34.224 187.414c40.34 37.857 118.493 77.06 189.09 102.98C162.35 261.8 69.46 202.28 36.307 180.657c-1.635 4.025-2.083 6.756-2.083 6.756z" fill="#E7ECE2"/><path d="M391.267 284.67c-4.337 15.113-26.517 23.036-26.517 23.036-9.537 4.488-70.684-2.643-70.684-2.643-17.39-2.082-158.758-79.26-158.758-79.26-35.862-7.815-88.804-59.654-89.33-60.168-4.595 4.88-7.44 9.894-9.186 13.887l232.006 126.03c40 11.87 73.325 17.484 89.368 13.406 34.04-8.654 35.25-25.344 33.1-34.287zM269.85 306.124l-1.053-.572c-14.456-4.29-29.778-9.393-45.482-15.16 20.054 9.407 36.663 15.477 46.534 15.732zM36.307 180.658C69.46 202.282 162.35 261.8 223.315 290.393c15.704 5.766 31.026 10.87 45.482 15.16L36.79 179.522c-.168.385-.335.77-.483 1.135z" fill="#D6E2CD"/><path d="M155.617 188.047s2.106 50.524 36.343 68.343c5.81 3.063 11.8 6.2 17.826 9.338 11.915-6.077 41.57-20.137 57.466-18.228 20.192 2.425 63.332 22.638 69.816-2.88-53.98 2.925-181.45-56.573-181.45-56.573z" fill="#EFBA4F"/><path d="M388.962 278.665c-1.466-4.692-4.375-8.39-7.872-11.316-.365 2.135-.75 4.327-1.174 6.615-5.158 27.91-88.642 22.734-111.853 20.745 12.674 5.935 22.24 9.903 26.003 10.353 0 0 61.147 7.13 70.684 2.643 0 0 22.18-7.923 26.517-23.035-.875-3.64-2.305-6.005-2.305-6.005z" fill="#81B8CD"/><path d="M379.916 273.965c.423-2.288.808-4.48 1.174-6.616-10.107-8.455-25.206-10.358-25.206-10.358-5.347-1.528-11.624-6.007-18.364-12.39v.004c-6.475 25.537-49.625 5.317-69.82 2.892-15.896-1.91-45.552 12.15-57.467 18.228 20.64 10.74 41.74 21.448 57.83 28.982 23.21 1.99 106.696 7.167 111.853-20.743z" fill="#009BB9"/><path d="M74.376 190.58" fill="#EACA95"/></svg>