<svg xmlns="http://www.w3.org/2000/svg" viewBox="0 0 400 400" enable-background="new 0 0 400 400"><path fill="#E76433" d="M25.316 357.383h353.08L25.316 86.603z"/><path fill="#EA8055" d="M25.316 86.603l353.08 270.78V86.603z"/><path fill="#EC8863" d="M11.842 86.603h13.474v270.78H11.842z"/><path fill="#BD402D" d="M378.395 86.603h9.916v270.78h-9.915z"/><path fill="#ECB09D" d="M11.73 82.44h376.582v4.163H11.732z"/><path d="M298.18 82.44s-1.12-5.216 5.596-5.216h38.428s3.73 0 4.664 2.608v2.608H298.18z" fill="#6E6E70"/><g fill="#595A5C"><path d="M139.47 82.44V43.675s2.617-17.226 20.932-20.278h38.63v7.414h-37.976s-11.338.655-14.173 14.392V82.44h-7.413zM258.597 82.44V43.675s-2.617-17.226-20.932-20.278h-38.63v7.414h37.976s11.34.655 14.174 14.392V82.44h7.413z"/></g><path d="M54.66 82.44s-1.12-5.216 5.595-5.216h38.428s3.73 0 4.664 2.608v2.608H54.66z" fill="#6E6E70"/><circle cx="199.033" cy="221.993" r="57.818" fill="#fff"/><path fill="#E76433" d="M189.33 185.363h21.075v69.165H189.33zM165.285 209.41h69.165v21.073h-69.165z"/></svg>