<svg xmlns="http://www.w3.org/2000/svg" viewBox="-3300.4 3225.4 400 400" enable-background="new -3300.4 3225.4 400 400"><path fill="#CE5D61" d="M-2962.7 3481.9c-11.9 25.3-41.5 83.7-62.7 89.7-27.2 7.6-85.2-4-118-4-19.5 0-42.8 12.6-58.5 22.8-.8 3.3-1.4 5.2-1.7 5.4-3.2 3 88.3-6.5 166.5 9.6 78.2 16 131.5-61.5 131.5-61.5l-57.1-62z"/><path fill="#C2363B" d="M-3025.4 3571.6c21.3-5.9 50.8-64.4 62.7-89.7l-113.9-123.5-80.6 13.9s-36 183.8-44.7 218c15.7-10.2 39-22.8 58.5-22.8 32.8.1 90.8 11.7 118 4.1z"/><path fill="#DFB99A" d="M-3158.4 3234.3c-11.1 6-18.6 17.8-18.5 31.4.1 19.6 16.1 35.7 35.6 35.7 5.9 0 11.4-1.5 16.4-4.1-1.7.7-42.7-19.6-33.5-63zM-3105.6 3265.8c.1-19.9-16.2-36.1-36-35.9-6.1.1-11.8 1.6-16.8 4.3-9.2 43.4 31.8 63.8 33.4 63.1 11.3-6 19.3-17.9 19.4-31.5zM-3044 3361.9c1.6 5.9 2.9 11.9 4.4 17.9 1.9 7.9 8.1 12.6 15.2 11.4 7.6-1.3 12.5-7.8 10.7-16-2.2-10-4.7-20.1-8.4-29.6-4.5-11.8-12.4-21.3-24.2-26.6-4.2-1.9-8.5-3.5-12.8-4.9l-6 25.6c11.3 3.1 18 10.9 21.1 22.2zM-3228.3 3252.4c-6.3-5.6-14.1-6.1-19.4-.9-5.6 5.6-5.3 13.3 1 19.8 1.8 1.9 3.7 3.8 5.7 5.5 15.7 13.6 31.5 27.2 47.2 40.9l14.1-22.2c-16.2-14.3-32.4-28.7-48.6-43.1z"/><path fill="#3892CC" d="M-3000.7 3536.4c-14-27.5-27.9-55.1-41.8-82.7-7.2-14.3-16.1-28-21-43-7.9-24.3-13.2-49.5-20-75.7 6.4 1.6 11.4 3 16.5 4.1.6.1 1.2.3 1.8.5l6-25.6c-15.7-5.1-32-7.3-48.5-7.9-3.8-.1-9.1-.5-9.7 5.9 0 .4-3.6 1.4-4.7.8-5.7-3.5-18-.5-21.7 5.4-.7 1.1-3.2 2.1-4.1 1.7-4.2-2.3-8.4-4.8-12.2-7.7-4.9-3.7-9.6-7.7-14.2-11.8-1.9-1.6-3.7-3.3-5.6-4.9l-14.1 22.2c7.8 6.8 15.6 13.5 23.3 20.3 2.6 2.3 4.8 5.7 5.7 9 6.4 23.9 12.6 47.9 18.4 71.9.8 3.3.2 7.9-1.6 10.8-7.3 12.5-15.2 24.6-22.9 36.8-6.6 10.6-5.8 17.1 3.1 25.6l33.9 32.1c6.8 6.5 13.5 13.2 20.6 19.4 7.1 6.3 16.8 5.9 23.1-.6 6.5-6.6 6.5-16.6-.2-23.7-1.8-1.9-3.8-3.6-5.7-5.5-13.5-12.8-27-25.6-40.7-38.7 7.5-11.9 14.7-23.4 22-34.8.7-1 1.8-2.1 3-2.4 6.9-1.9 13.9-3.5 21.2-5.4 4 7.8 7.7 15.2 11.4 22.6 16.1 31.9 32.3 63.7 48.4 95.6 2.9 5.7 7 9.6 13.4 10.4 6.4.9 11.7-1.3 15.6-6.5 4.5-5.5 4.6-11.7 1.3-18.2z"/><path fill="#88BDE0" d="M-3146.7 3342.3l50.6-7.9-12.5 54z"/></svg>