<svg xmlns="http://www.w3.org/2000/svg" viewBox="0 0 400 400" enable-background="new 0 0 400 400"><circle cx="199.391" cy="202.845" r="127.025" fill="#E99E34"/><circle cx="199.391" cy="202.845" r="102.435" fill="#E8E7D2"/><circle cx="199.391" cy="202.845" r="96.348" fill="#E99E34"/><circle cx="199.391" cy="202.845" r="87.845" fill="#D7D4C5"/><path d="M346.536 194.853" fill="#FEEEDE"/><path d="M367.443 146.685c0-10.174 8.435-10.437 13-23.564 4.075-11.72-1.678-74.842-3.532-74.842-2.115 0-1.08 54.663-5.09 54.663-4.045 0-2-53.92-4.558-54.662-2.56-.742-.682 54.663-5.416 54.663-4.78 0-1.674-54.662-4.233-54.662s-1.84 54.663-5.742 54.663c-4.296 0-1.986-54.662-3.906-54.662-3.26 0-7.08 59.365-5.053 71.904 2.03 12.54 14.015 14.916 14.015 27.18 0 12.53-.365 23.462-.91 33.323h12.327c-.54-10.133-.9-21.322-.9-34z" fill="#C7C8C9"/><circle cx="202.911" cy="206.366" r="84.677" fill="#E8E7D2"/><path d="M53.116 69.174c-7.754-29.466-26.364-20.16-26.364-20.16v3.825l26.703 157.11c1.406-23.297 6.414-115.116-.34-140.776z" fill="#DCDDDE"/><path d="M26.752 52.838v176.07h14.905V218.54l11.46-3.16s.13-1.976.338-5.43L26.752 52.837z" fill="#ccc"/><path d="M29.182 325.11l-2.43-96.2-5.44 100.96s2.332 16.8 13.443 16.8c6.57 0 9.535-6.605 10.872-12.012 0 0-15.95 15.668-16.445-9.548z" fill="#F0A54E"/><path d="M46.704 228.91H26.752l2.43 96.2c.494 25.216 16.444 9.55 16.444 9.55.925-3.74 1.078-6.908 1.078-6.908V228.91z" fill="#ED9533"/><path d="M346.536 106.497h29.496s2.9 23.92-8.29 23.92h-8.747s-15.05 1.464-12.46-23.92z" fill="#DCDDDE"/><path d="M359.793 343.454c11.862 0 12.756-26.15 12.756-26.15V228.91c-.368 69.797-14.588 95.9-23.384 105.383 2.182 4.88 5.537 9.16 10.627 9.16z" fill="#F0A54E"/><path d="M351.25 180.685l-5.807 139.548s.82 7.564 3.724 14.06c8.796-9.484 23.016-35.586 23.383-105.384v-48.225h-21.3z" fill="#ED9533"/></svg>