<svg xmlns="http://www.w3.org/2000/svg" viewBox="0 0 400 400" enable-background="new 0 0 400 400"><path d="M31.095 372.34c-1.214-.3-2.428-.598-3.64-.896-.11-69.786-.22-139.572-.332-209.353.978-.777 1.88-1.693 2.95-2.325 54.058-31.96 108.16-63.846 162.144-95.93 3.998-2.377 6.836-1.588 10.304.5 10.49 6.32 21.11 12.42 31.646 18.66 42.42 25.113 84.828 50.245 127.24 75.37l-.046 213.102c-26.38.19-52.758.393-79.137.562-30.48.195-60.96.36-91.433.538-.945-.833-1.888-.725-2.826.025-1.156-.102-2.312-.204-3.467-.3-.09-4.08-.262-8.166-.264-12.25-.018-51.892-.03-103.784.018-155.675.006-4.967.448-8.985-7.032-8.88-28.927.414-57.865.292-86.797.067-5.522-.043-6.843 2.008-6.825 7.15.204 56.29.218 112.583.283 168.875-2.104.32-4.208.642-6.304.96-1.425-.793-2.834-.796-4.215.126-14.08-1.13-28.172-.782-42.265-.326zm279.422-138.952c0-10.034-.233-20.075.093-30.1.176-5.402-1.06-7.86-7.178-7.758-20.376.34-40.763.305-61.14.014-5.717-.082-7.574 1.6-7.48 7.437.326 20.377.24 40.763.047 61.143-.048 4.937.895 7.346 6.64 7.26 20.69-.303 41.39-.258 62.082-.01 5.29.065 7.2-1.587 7.033-6.945-.324-10.338-.094-20.693-.098-31.04z" fill="#EACA95"/><path d="M361.406 158.364c-42.412-25.125-84.82-50.258-127.24-75.37-10.537-6.24-21.156-12.34-31.645-18.66-3.468-2.09-6.305-2.878-10.303-.502C138.232 95.92 84.13 127.805 30.072 159.765c-1.07.632-1.97 1.548-2.95 2.326-2.24 1.115-4.65 1.994-6.69 3.407-3.78 2.62-6.36 1.885-8.16-2.23-.127-.29-.254-.58-.417-.847-12.3-20.19-12.33-20.24 7.983-32.224 56.542-33.36 113.153-66.602 169.6-100.12 5.575-3.31 9.827-3.37 15.37-.013 25.53 15.457 51.376 30.39 76.925 45.815 6.22 3.754 8.754 3.68 8.456-4.476-.38-10.363.068-20.754-.17-31.126-.112-4.828 1.56-6.403 6.5-6.648 24.662-1.224 24.655-1.374 24.658 23.327 0 11.32.553 22.678-.202 33.947-.473 7.057 3.07 10.098 8.26 13.104 19.57 11.33 39.012 22.88 58.54 34.28 2.728 1.592 5.803 2.69 6.024 6.523-3.542 5.47-7.482 10.734-10.517 16.475-2.932 5.546-5.77 7.704-11.415 3.166-3.11-2.498-6.95-4.086-10.462-6.086z" fill="#7F5529"/><path d="M184.252 204.367c.005-4.967.448-8.985-7.034-8.88-28.926.414-57.865.292-86.796.067-1.795-.014-3.108.22-4.114.682l97.934 76.896c.005-22.92-.013-45.843.01-68.765z" fill="#987655"/><path d="M184.243 273.132L86.31 196.236c-2.092.96-2.727 2.997-2.713 6.468.203 56.292.217 112.583.283 168.875 33.54.235 67.078.47 100.617.712-.09-4.08-.26-8.166-.262-12.25-.013-28.97.006-57.94.008-86.91zM310.605 227.225l-65.473-31.542c-1.704-.007-3.406-.006-5.108-.014-4.156-.02-5.15.862-5.135 3.07.153 24.178.162 48.357.21 72.535 25.23.1 50.462.202 75.695.306-.068-1.75-.197-3.506-.2-5.26-.005-13.033.008-26.064.01-39.095z" fill="#7F5529"/><path d="M310.612 199.455c.002-2.134.335-3.86-5.29-3.814-20.062.165-40.128.125-60.19.043l65.473 31.542c.003-9.257-.01-18.514.007-27.77z" fill="#987655"/></svg>