<svg xmlns="http://www.w3.org/2000/svg" viewBox="0 0 400 400" enable-background="new 0 0 400 400"><path fill="#C7C8C9" d="M45.01 369.763V5h210.77v50.757h54.2v319.168H45.01z"/><path fill="#2D2934" d="M83.156 134.925H257.45v6.6H83.155z"/><path fill="#6E6E70" d="M86.262 129.49h168.47v5.435H86.262z"/><path fill="#2D2934" d="M83.156 160.74h183.997v6.598H83.156z"/><path fill="#6E6E70" d="M86.434 155.304h177.85v5.435H86.434z"/><path fill="#2D2934" d="M83.35 189.38h119.754v6.6H83.35z"/><path fill="#6E6E70" d="M85.484 183.946h115.753v5.435H85.484z"/><path fill="#2D2934" d="M83.35 214.114h160.9v6.6H83.35z"/><path fill="#6E6E70" d="M86.217 208.68h155.525v5.434H86.217z"/><path fill="#DCDDDE" d="M255.78 5l54.2 50.757h-54.2z"/><path d="M203.87 318.32c-1.513.836-3.073 1.71-4.12 3.087-1.05 1.376-1.453 3.4-.485 4.835.618.916 1.67 1.438 2.716 1.793 3.607 1.224 7.614.892 11.21-.36 3.597-1.25 6.83-3.368 9.838-5.703 5.61-4.352 10.823-10.005 11.938-17.016.285-1.79.102-3.984-1.468-4.892-.703-.407-1.556-.462-2.365-.393-2.154.182-4.16 1.15-6.043 2.21-2.58 1.45-5.152 3.227-6.484 5.87-.736 1.46-1.045 3.1-1.183 4.728-.15 1.78-.095 3.634.636 5.264 1.02 2.274 3.28 3.842 5.705 4.42 2.424.58 4.99.265 7.375-.457 1.366-.413 2.72-.975 3.782-1.93 1.062-.953 1.764-2.237 2.37-3.53.803-1.717 1.472-3.497 2-5.318.236-.817.39-1.835-.246-2.398-.623-.552-1.598-.298-2.35.06-2.535 1.207-4.64 3.296-5.87 5.82-.622 1.276-1.012 2.83-.348 4.083.695 1.313 2.295 1.844 3.766 2.05 4.755.663 9.777-.942 13.267-4.24.574-.542 1.122-1.15 1.367-1.9.245-.75.117-1.67-.49-2.17-.4-.33-.94-.437-1.458-.47-2.502-.158-5.035 1.248-6.224 3.454-.27.5-.477 1.058-.418 1.622.125 1.2 1.36 1.95 2.513 2.308 2.847.886 6.058.52 8.632-.983.706-.413 1.42-.993 1.538-1.803.118-.81-.774-1.706-1.484-1.298-.534 1.35.135 2.966 1.295 3.84 1.16.872 2.692 1.108 4.14 1.014 1.523-.098 3.39-1.048 3.144-2.555 3.077.87 6.374.953 9.49.235M201.382 333.666h68.175" fill="none" stroke="#414142" stroke-width=".5" stroke-miterlimit="10"/><path d="M109.94 373.935c.297.066.588.17.876.302l-.12-.42c-.256.002-.505.063-.755.118z" fill="#2D2934"/><path d="M112.95 348.643l-1.166 25.337c-.367-.116-.73-.167-1.09-.163l.122.42c4.588 2.114 8.15 12.06 8.15 12.06v-37.653h-6.017z" fill="#4B454E"/><path d="M108.097 373.98l-.506-11.018-4.095-14.32h-2.58v37.654s4.023-11.24 9.026-12.36c-.602-.135-1.217-.154-1.843.044z" fill="#2D2934"/><path fill="#4B454E" d="M106.932 348.643h-3.437l4.095 14.32zM110.695 373.817c.36-.004.723.047 1.09.163l1.164-25.337h-6.018l.658 14.32 3.105 10.854z"/><path d="M107.59 362.962l.506 11.018c.626-.198 1.24-.18 1.844-.044.25-.056.5-.116.754-.12l-3.104-10.854z" fill="#2D2934"/><path d="M122.848 313.594s.278-.32.754-.81l-5.58-3.144s.07-.167.19-.445l-6.227-1.925.005-.027h-4.897l-3.63 1.122 22.418 27.928 1.868-5.07c-.343-.085-.548-.142-.548-.142l1.14-6.742-1.177-5.874-4.315-4.87zM101.71 308.908c.123.277.19.445.19.445l-5.578 3.143c.476.49.754.81.754.81l-4.314 4.87-1.176 5.875 1.14 6.744s-.205.057-.55.14l2.17 5.892 4.873 5.667-.073.075 4.01 2.485c.298-.854.53-1.41.53-1.41l6.793 1.894 5.757-1.605s.232.557.53 1.41l4.01-2.485-.07-.075 4.872-5.667.3-.82-22.416-27.928-1.753.54z" fill="none"/><path d="M114.067 300.69c-.096-.606-.223-1.2-.392-1.765.152.61.257 1.254.33 1.902l.062-.136zM112.045 306.956h-4.11l.004.027-.848.262h4.897l.055-.29z" fill="#DF3745"/><path d="M114.21 307.244h-2.22l-.005.027 6.228 1.926c.46-1.042 1.73-3.728 3.433-5.786.4-2.767.124-5.564-2.342-6.326-2.36-.73-4.066 1.224-5.238 3.607.502 3.163.145 6.554.145 6.554z" fill="#E4665E"/><path d="M113.946 306.956h-1.9l-.056.288h2.22s.358-3.39-.143-6.553c-.022.046-.04.092-.063.137.34 3.033-.058 6.13-.058 6.13z" fill="#DF3745"/><path d="M118.213 309.196c-.122.277-.19.445-.19.445l5.58 3.145c.87-.9 2.41-2.367 4.118-3.513 1.353-2.948 2.258-6.547-.387-8.037-2.066-1.164-4.07.22-5.687 2.176-.456 3.166-1.796 6.293-1.796 6.293l-1.637-.507zM119.85 309.702s1.34-3.127 1.796-6.292c-1.703 2.06-2.974 4.744-3.433 5.786l1.637.506zM123.602 312.784c-.476.49-.754.81-.754.81l4.314 4.87-.172-.855s2.41-.81 5.114-1.164c2.253-2.348 4.312-5.472 2.29-7.755-1.717-1.938-4.35-.98-6.673.58-1.11 2.425-2.525 4.41-2.525 4.41l-1.593-.896zM123.602 312.784l1.593.898s1.414-1.986 2.526-4.41c-1.706 1.146-3.246 2.613-4.118 3.512zM128.306 319.758l-1.144-1.292 1.176 5.874.232-1.374s3.627.143 6.738 1.176c2.49-.98 4.613-2.532 4.127-4.96-.586-2.93-4.16-3.147-7.33-2.735-1.835 1.91-3.8 3.31-3.8 3.31zM127.162 318.466l1.144 1.292s1.964-1.4 3.798-3.31c-2.703.35-5.114 1.162-5.114 1.162l.172.856zM139.636 328.875c.414-2.453-1.784-3.89-4.327-4.734-3.072 1.208-6.703 1.54-6.703 1.54l-.27-1.34-1.138 6.743s.203.057.547.14l.387-1.05s2.737.627 5.346 1.857c2.863.06 5.716-.552 6.156-3.155zM128.34 324.34l.268 1.34s3.63-.332 6.702-1.54c-3.11-1.032-6.738-1.175-6.738-1.175l-.233 1.375zM125.88 336.295l.203.252c.047.03 1.972 1.304 3.824 3.08 3.16.897 6.946 1.292 8.013-1.606.987-2.68-1.654-4.678-4.44-5.99-2.35-.05-4.7-.553-5.732-.806l-1.867 5.07z" fill="#E4665E"/><path fill="#DF3745" d="M126.073 336.54l.01.007-.202-.252-.302.82z"/><path d="M127.748 331.224c1.03.253 3.382.755 5.733.806-2.61-1.23-5.345-1.858-5.345-1.858l-.387 1.052z" fill="#E4665E"/><path d="M125.29 337.897l.288-.782-4.873 5.667.072.075 1.218-.755s1.516 1.865 2.773 4.183c2.59 1.828 5.803 3.266 7.725 1.03.495-.575.714-1.197.757-1.84l-5.157-6.424c-1.608-.582-2.803-1.153-2.803-1.153zM133.25 345.476c.13-1.97-1.56-4.14-3.344-5.85-.65-.186-1.248-.37-1.814-.575l5.158 6.426zM126.083 336.547l2.01 2.505c.565.205 1.163.39 1.814.574-1.852-1.776-3.777-3.048-3.824-3.08zM125.578 337.115l-.288.782s1.195.57 2.802 1.154l-2.01-2.504-.01-.007-.494.575zM120.777 342.857l-4.01 2.485c.51 1.464 1.214 3.834 1.342 6.043 1.89 2.368 4.386 4.4 6.764 2.926 2.598-1.61 1.444-5.163-.107-8.025-2.034-1.435-3.67-3.094-3.99-3.428zM120.777 342.857c.32.334 1.956 1.992 3.99 3.428-1.257-2.318-2.773-4.183-2.773-4.183l-1.217.755zM116.767 345.343c-.298-.854-.53-1.41-.53-1.41l-5.758 1.605 1.137.317s-.512 3.063-1.716 5.873c1.153 2.813 2.987 5.487 5.693 4.732 2.137-.596 2.652-2.733 2.516-5.075-1.847-2.313-3.113-4.946-3.113-4.946l1.77-1.097zM114.998 346.44s1.266 2.632 3.112 4.945c-.128-2.208-.83-4.58-1.342-6.043l-1.77 1.097zM109.963 295.35c2.01 0 3.112 1.576 3.71 3.575-.53-2.136-1.605-3.863-3.712-3.863-2.576 0-3.665 2.583-4.103 5.34.043.087.08.177.123.266.38-2.75 1.413-5.318 3.983-5.318z" fill="#DF3745"/><path d="M109.963 295.35c-2.57 0-3.604 2.57-3.983 5.318 1.332 2.837 1.927 6.134 1.954 6.288h4.11c.177-.897.792-3.698 1.96-6.13-.073-.647-.178-1.29-.33-1.9-.6-2-1.7-3.576-3.71-3.576zM114.004 300.827c-1.167 2.43-1.783 5.232-1.96 6.13h1.902s.398-3.097.058-6.13z" fill="#E4665E"/><path d="M103.463 308.366l-5.322-6.63c.022.457.07.92.138 1.386 1.702 2.06 2.974 4.744 3.433 5.786l1.753-.542z" fill="#DF3745"/><path d="M107.093 307.244h-1.114s-.015-.12-.033-.288h-.233s-.358-3.392.144-6.554c-1.172-2.383-2.88-4.336-5.238-3.607-2.05.634-2.585 2.678-2.48 4.94l5.323 6.63 3.63-1.12z" fill="#E4665E"/><path d="M107.935 306.956h-1.988l.032.288h1.113l.847-.262-.005-.026zM105.714 306.956h.233c-.092-.855-.33-3.64.034-6.288-.04-.088-.08-.178-.122-.266-.502 3.162-.144 6.554-.144 6.554z" fill="#DF3745"/><path d="M105.98 300.668c-.364 2.647-.125 5.433-.033 6.288h1.988c-.028-.154-.623-3.45-1.954-6.288z" fill="#E4665E"/><path d="M96.322 312.496l5.58-3.143s-.07-.167-.19-.445l-1.638.506s-1.34-3.127-1.796-6.292c-1.618-1.956-3.62-3.34-5.687-2.176-2.644 1.49-1.74 5.09-.387 8.037 1.708 1.146 3.248 2.613 4.12 3.513zM101.71 308.908c-.458-1.042-1.73-3.727-3.432-5.786.456 3.165 1.796 6.292 1.796 6.292l1.637-.506zM92.763 318.177l4.314-4.87s-.278-.32-.754-.81l-1.593.897s-1.414-1.986-2.526-4.41c-2.322-1.56-4.957-2.518-6.673-.58-2.02 2.283.038 5.407 2.29 7.755 2.705.35 5.115 1.162 5.115 1.162l-.172.855zM96.322 312.496c-.872-.9-2.412-2.367-4.12-3.514 1.113 2.425 2.527 4.41 2.527 4.41l1.592-.896zM91.586 324.052l1.176-5.874-1.144 1.292s-1.964-1.4-3.798-3.31c-3.17-.414-6.745-.195-7.33 2.733-.488 2.43 1.635 3.982 4.125 4.96 3.11-1.032 6.74-1.175 6.74-1.175l.23 1.374zM91.62 319.47l1.143-1.293.172-.856s-2.41-.81-5.114-1.162c1.835 1.912 3.8 3.31 3.8 3.31zM92.177 330.935c.344-.084.548-.14.548-.14l-1.14-6.744-.268 1.342s-3.63-.333-6.702-1.54c-2.542.844-4.74 2.28-4.326 4.733.44 2.603 3.292 3.217 6.154 3.155 2.61-1.23 5.346-1.857 5.346-1.857l.387 1.052zM91.586 324.052l-.232-1.375s-3.627.143-6.74 1.176c3.072 1.207 6.703 1.54 6.703 1.54l.27-1.34zM93.852 336.252l.494.575-2.17-5.89c-1.03.252-3.38.754-5.732.805-2.785 1.312-5.425 3.31-4.44 5.99 1.068 2.9 4.855 2.504 8.014 1.606 1.875-1.798 3.834-3.086 3.834-3.086zM91.79 329.884s-2.737.628-5.346 1.857c2.352-.05 4.702-.552 5.733-.805l-.387-1.05zM99.148 342.57l.072-.076-4.873-5.667.288.782s-2.116 1.017-4.616 1.727c-2.367 2.27-4.6 5.35-2.588 7.69 1.922 2.236 5.136.798 7.726-1.03 1.256-2.318 2.772-4.183 2.772-4.183l1.218.755zM94.346 336.827l-.494-.575s-1.96 1.288-3.834 3.086c2.5-.71 4.616-1.728 4.616-1.728l-.288-.783zM99.148 342.57c-.32.333-1.956 1.99-3.99 3.427-1.55 2.86-2.705 6.416-.107 8.026 2.38 1.474 4.877-.558 6.766-2.926.128-2.208.83-4.58 1.342-6.043l-4.01-2.485zM99.148 342.57l-1.218-.756s-1.516 1.865-2.772 4.183c2.034-1.436 3.67-3.095 3.99-3.428zM110.48 345.538l-6.792-1.894s-.232.556-.53 1.41l1.77 1.097s-1.267 2.634-3.113 4.947c-.136 2.342.38 4.478 2.516 5.075 2.614.73 4.413-1.74 5.57-4.444-1.116-2.726-1.593-5.584-1.593-5.584l2.173-.606zM110.48 345.538l-2.172.606s.477 2.858 1.594 5.584c1.204-2.81 1.716-5.873 1.716-5.873l-1.138-.317zM103.157 345.054c-.51 1.464-1.214 3.835-1.342 6.043 1.846-2.313 3.112-4.946 3.112-4.946l-1.77-1.096z" fill="#DF3745"/><path d="M131.187 326.84c0-11.668-9.46-21.126-21.127-21.126-2.648 0-5.156.544-7.492 1.433l24.85 31.7c2.364-3.412 3.77-7.54 3.77-12.007z" fill="#F4EDDC"/><path d="M102.568 307.147c-7.956 3.03-13.635 10.673-13.635 19.693 0 11.668 9.46 21.127 21.127 21.127 7.2 0 13.543-3.617 17.357-9.12l-24.85-31.7z" fill="#F1E5BD"/></svg>