<svg xmlns="http://www.w3.org/2000/svg" viewBox="0 0 400 400" enable-background="new 0 0 400 400"><path d="M142.994 195.635c-52.39-.048-95.024-42.558-95.075-94.798-.052-52.594 43.313-96.027 95.76-95.91 51.59.114 94.71 43.66 94.652 95.588-.057 52.73-42.594 95.168-95.338 95.12zm-76.8-94.382c.07 42.86 34.167 76.925 76.908 76.84 42.686-.085 76.713-34.33 76.714-77.21 0-42.656-34.36-77.286-76.743-77.342-42.912-.056-76.95 34.35-76.878 77.713z" fill="#B9B9B9"/><path d="M191.99 184.9c2.567-.274 3.44 1.605 4.27 3.35 3.164 6.646 6.202 13.352 9.383 19.99 1.566 3.268.925 5.332-2.73 6.308-1.876.5-3.744 1.124-5.506 1.932-8.932 4.096-8.906 4.117-13.214-5.078-2.205-4.705-4.423-9.406-6.72-14.067-1.697-3.447-.912-5.615 2.78-7.065 4.016-1.577 7.866-3.578 11.738-5.37z" fill="#AC947D"/><path d="M113.682 49.635s55.35-42.327 87.91 66.203l-19.536 9.768s4.34-67.29-68.374-75.97z" fill="#C4C4C4"/><path d="M211.95 280.502c14.92 33.988 29.803 67.994 44.8 101.95 3.37 7.633 7.63 9.433 15.683 7.23 3.282-.9 6.285-2.286 8.99-4.188l-86.94-144.678c5.92 13.184 11.656 26.452 17.466 39.686z" fill="#927151"/><path d="M288.834 374.012c-.527-1.335-1.184-3.4-2.128-5.326-23.988-48.922-48.08-97.793-71.93-146.782-2.926-6.013-6.958-7.29-12.63-5.206-2.827 1.038-5.576 2.43-8.138 4.02-4.455 2.763-5.802 6.215-3.356 11.53 1.31 2.84 2.546 5.717 3.83 8.57l86.94 144.678c1.348-.945 2.64-1.978 3.814-3.217 1.99-2.106 3.41-4.487 3.598-8.268z" fill="#764E24"/></svg>