<svg xmlns="http://www.w3.org/2000/svg" viewBox="0 0 400 400" enable-background="new 0 0 400 400"><path d="M58.59 148.744l47.42-79.037h93.3v243.037H94.155s-136.338-3.952-35.567-164zM339.053 148.744L291.63 69.707h-93.297v243.037h105.153s136.338-3.952 35.567-164z" fill="#4E4F4F"/><path fill="#fff" d="M137.893 258.013h131.51v19.34h-131.51z"/><path fill="#B2B4B6" d="M146.948 277.353h113.18v8.495H146.95z"/><path d="M323.947 169.18l.02.242c-83.256 0-166.512 0-249.767-.014-.343 0-.794.27-1.054-.22H322.31c.544 0 1.09-.005 1.637-.007z" fill="#97C6C4"/><path fill="#C2DBDA" d="M78.297 167.275h235.64v4.476H78.297z"/><path fill="#D6DEE2" d="M173.33 60.71h60.29v8.997h-60.29z"/><path fill="#F3D6C3" d="M182.33 51.71h43.64v9h-43.64z"/><path d="M346.58 155.535l6.59-6.832s.404-17.647 37.816-10.588c0 0 14.823 18.807-26.823 26.697l-10.993-4.64-6.588 4.64-7.352-4.64 7.35-4.637zM55.736 146.257l-6.588-6.832s-.405-17.647-37.817-10.588c0 0-14.822 18.807 26.824 26.697l10.993-4.64 6.588 4.64 7.352-4.64-7.35-4.637zM70.898 314.88s-6.048 31.87 28.226 27.66 36.68-13.638 36.68-13.638L70.897 314.88zM346.183 312.744s6.048 31.87-28.226 27.66c-34.274-4.21-36.68-13.638-36.68-13.638l64.906-14.022z" fill="#4E4F4F"/><path d="M322.953 163.33c-.972-4.728-2.075-9.425-3.437-14.058-3.61-12.29-8.25-24.126-15.498-34.788-4.95-7.282-10.898-13.54-18.787-17.72-2.21-1.17-4.508-2.127-6.92-2.81-.328-.093-.7-.117-.948-.41H119.984l203.963 75.637c-.328-1.95-.596-3.914-.994-5.85z" fill="#91C4C2"/><path d="M119.984 93.543c-3.773 1.16-7.407 2.63-10.76 4.75-7.166 4.534-12.6 10.74-17.162 17.78-6.05 9.335-10.193 19.527-13.52 30.088-2.016 6.394-3.477 12.925-4.874 19.47-.2.943-.18 1.934-.523 2.855v.703h249.163c.546 0 1.093-.004 1.64-.007L119.983 93.544z" fill="#81BCB9"/><path d="M56.982 238.908s-7.868 25.673 0 33.728c7.868 8.054 46.126 2.794 46.126 2.794-48.078-6.543-46.126-36.522-46.126-36.522z" fill="#FEE850"/><path d="M56.982 238.908s-1.952 29.978 46.126 36.522v-11.855l-46.126-24.667z" fill="#FFEEA3"/><path d="M345.262 238.908s7.868 25.673 0 33.728c-7.868 8.054-46.126 2.794-46.126 2.794 48.078-6.543 46.126-36.522 46.126-36.522z" fill="#FEE850"/><path d="M345.262 238.908s1.952 29.978-46.126 36.522v-11.855l46.126-24.667z" fill="#FFEEA3"/></svg>