<svg xmlns="http://www.w3.org/2000/svg" viewBox="0 0 400 400" enable-background="new 0 0 400 400"><path d="M399.428 278.928c1.33-.777 2.66-1.554 3.99-2.334l1.747 4.268-1.522-.067-4.215-1.867z" fill="#649FBC"/><path d="M101.1 280.517l3.84.333c.045 1.132.12 2.262.227 3.39l-.574.565c-1.363-.136-2.725-.27-4.092-.408l.6-3.88z" fill="#EDEFEF"/><path d="M193.912 336.493c-45.18 0-90.36.002-135.542-.002-6.51 0-6.718-.13-6.25-6.77.583-8.237 1.393-16.45 3.354-24.51 4.878-20.047 16.09-34.752 35.133-43.583 15.436-7.16 31.46-12.584 47.535-17.956 5.135-1.715 10.243-3.484 15.187-5.722 7.047-3.19 9.152-9.28 9.816-16.28.177-1.867-.852-3.238-1.815-4.662-14.623-21.63-22.035-45.746-24.843-71.505-1.136-10.42-1.06-20.752.97-31.036 4.06-20.567 16.004-33.616 36.786-37.838 13.28-2.698 26.662-2.65 39.832.648 19.76 4.948 30.56 18.31 34.145 37.888 4.06 22.18.124 43.666-6.306 64.83-3.785 12.455-9.097 24.255-16.395 35.12-3.83 5.7.128 18.19 6.86 21.992 4.986 2.815 10.386 4.67 15.792 6.487 16.742 5.627 33.362 11.444 49.415 19 22.268 10.483 32.753 28.59 36.147 51.88.758 5.204 1.228 10.46 1.58 15.71.41 6.162.18 6.308-5.86 6.31-45.18.006-90.36.003-135.542.003z" fill="#EA8055"/><path d="M352.144 263.493c-10.556 2.435-21.644-1.737-32.74-9.602-14.6-10.347-31.984-15.416-48.846-21.18-6.87-2.35-13.766-4.648-20.535-7.267-5.018-1.942-5.726-4.674-3.012-9.36 17.086-29.49 25.282-61.25 23.234-95.302-1.055-17.553-6.86-33.463-20.644-45.448-2.516-2.188-1.974-3.435.812-4.36 15.444-5.124 30.858-5.558 45.704 1.703 10.922 5.342 16.017 15.248 17.42 26.83 3.132 25.857-3.222 49.723-16.363 71.932-3.59 6.07-1.568 14.528 4.67 17.916 4.15 2.252 8.6 3.775 13.062 5.265 12.158 4.06 24.26 8.19 35.84 13.835 14.312 6.975 22.636 18.19 25.68 33.598 1.076 5.45 1.81 10.94 2.18 16.492.24 3.603-.945 5.182-4.818 5.022-6.26-.26-12.537-.07-21.643-.07z" fill="#009BB9"/><path d="M29.656 265.495c-6.126-.002-12.255-.122-18.376.046-3.248.09-4.733-.958-4.538-4.382.577-10.153 1.94-20.14 6.178-29.496 3.622-7.994 9.14-14.265 16.823-18.762 13.41-7.848 28.16-12.246 42.714-17.184 3.507-1.19 7.02-2.338 10.324-4.055 7.102-3.688 8.833-10.61 4.552-17.33-10.31-16.184-15.58-34.028-17.437-53.037-.726-7.44-.57-14.78.894-22.075 3.27-16.3 12.494-25.44 28.82-28.617 10.956-2.13 21.812-1.756 32.446 1.807 4.595 1.54 4.752 2.252 1.308 5.343-13.093 11.75-18.878 27.02-20.008 43.978-2.36 35.424 6.242 68.297 24.608 98.64 2.325 3.842 2.117 4.817-2.248 6.687-9.57 4.1-19.638 6.788-29.447 10.213-16.306 5.694-32.7 11.507-46.524 22.042-6.663 5.077-13.192 7-21.117 6.232-2.968-.285-5.983-.045-8.974-.047z" fill="#2C81BA"/></svg>