<svg xmlns="http://www.w3.org/2000/svg" viewBox="0 0 400 400" enable-background="new 0 0 400 400"><path d="M380.702 194.614c0-90.286-73.19-163.477-163.477-163.477-37.867 0-72.722 12.88-100.436 34.49l209.244 250.98c33.543-29.94 54.668-73.496 54.668-121.993z" fill="#60BBE0"/><path d="M144.777 99.195c-4.91 1.522-9.843 4.68-11.675 11.132-4.116 14.5-9.602 3.587-9.602 3.587.343-12.78-6.67-13.88-6.67-13.88C106.04 94.638 96.75 114.14 96.75 114.14c12.74 3.625 1.563 8.475 1.563 8.475 7.387 10.324-5.316 29.12-8.403 27.138-3.087-1.982-6.49-20.653-6.183-25.8.214-3.616 4.406-11.458 6.64-14.806-3.202 1.477-11.195 1.828-13.66 1.9-14.576 24.456-22.963 53.028-22.963 83.566 0 90.286 73.19 163.477 163.478 163.477 41.788 0 79.907-15.688 108.81-41.484L144.776 99.196z" fill="#70CEF3"/><path d="M93 167.94v-11.25l13.784-1.558s5.904-5.434 12.425-3.26c6.52 2.174 11.238 1.36 13.14 2.174 1.902.815 4.94 7.608 4.94 8.966 0 1.36 4.1 6.25 4.1 6.25l10.945-1.36s-6.468 10.053-4.758 13.857c1.71 3.803 5.517 4.89 7.42 6.792 1.9 1.902 4.076 5.706 5.435 7.336 1.36 1.63 4.348 10.597 1.903 16.846-2.445 6.25-3.803 12.724-6.52 14.377-2.718 1.654-10.054 3.828-10.326 6.545-.273 2.717-.816 4.076-4.348 8.695-3.532 4.62-13.814 23.095-12.613 29.344 1.2 6.25.7 22.008 0 23.367-.702 1.36.113 8.967 1.2 10.326 1.087 1.36-1.902 7.88-6.52 2.99-4.62-4.892-14.4-17.39-14.4-19.564s-2.99-28.8-7.61-33.963-20.65-21.466-23.637-30.704-3.93-37.224-3.93-37.224L93 167.94zM116.79 65.626l27.987 33.57c6.123-1.898 13.747-1.25 13.747-1.25L174 95.186V89.2s8.313 2.566 12.43.825c4.115-1.742 4.033-3.775 4.033-3.775l6.132-1.397s7.01-19.37-19.4-22.032l.592-8.516s38.046-18.487 41.452-21.585c3.407-3.097-91.996-5.877-143.246 78.35 0 0 .268-.006.73-.02 10.445-17.52 24.05-32.933 40.066-45.42z" fill="#BBE0CF"/><path d="M91.71 107.97c.204-.855-.394-.238-1.34 1.177.726-.333 1.23-.718 1.34-1.178z" fill="#96D1B3"/><path d="M178.032 101.76s.686-2.518 7.203-4.965 5.488 2.482 5.488 2.482-.627 4.674-6.316 5.017c-5.69.343-6.375-2.535-6.375-2.535zM206.5 67.608c-4.458-2.092 3.84-9.453 3.84-9.453s2.057-3.28-1.92-4.467 4.325-7.36 6.348-6.33c2.022 1.03 3.023 2.447 3.023 2.447l-.563 16.663c-.002 0-5.582 3.555-10.727 1.14zM208.923 76.01s11.43-12.103 13.432-11.51c2.002.59-.005-3.853-.005-3.853s6.003-1.267 7.433-.636c1.43.632 8.864 2.903 12.296 4.638 3.43 1.735 7.16 2.24 7.732 4.71S240 78.88 240 78.88V82h.026s6.757-3.023 7.408-5.954c.65-2.93 2.94 8.586 1.366 10.588-1.573 2.002-16.96 1.612-18.132 1.326-1.172-.286-1.535-6.63-1.535-6.63s-10.22 4.264-18.512-.026c0 0-3.112-3.824-1.697-5.295zM135.864 337.758l-9.78-9.35 3.383-10.19 16.01 14.21 27.836-3.195L190.643 346H195v1.917s25.543 6.342 28.17 9.495l5.035 1.865s-57.28.595-92.34-21.52zM360.97 113.908l-7.396 5.824-1.37-7.02s-6.438-3.397-10.498.998-4.065 7.074-7.448-1.04-8.8 4.287-8.8 4.287l-5.752 2.666-6.43 1.684-3.044 4.25-9.474 2.67s-2.03 4.738-3.045 4.738c-1.015 0-8.46.338-10.49 0-2.03-.338-12.803 11.032-8.43 18.542 4.37 7.51 16.213-2.64 16.213-2.64l8.797-4.398s-.677 2.233 1.015 5.345c1.692 3.112 3.045 8.186 3.045 8.186h2.868s-1.55-5.814-1.55-10.55c0-4.737 6.82-1.29 6.82-1.29v16.96s2.32 2.41 3.336 0c1.015-2.41 2.045-13.576 2.045-13.576s2.038 3.045 6.437 4.06c4.398 1.015 2.54 12.857 2.54 12.857s5.84 5.076 10.576 3.046c4.737-2.03-1.648 7.105-1.648 7.105s-12.835-2.03-25.692-5.75c0 0-5.74 1.352-5.403 5.75.338 4.4-17.966-2.353-7.776-12.18 0 0-10.147-9.134-46.688-2.03 0 0-13.533 11.505-13.702 19.286-.17 7.782 9.306 23.345 9.306 23.345s4.06.678 10.49-1.69c6.427-2.37 7.78 10.15 7.78 15.9 0 5.753-6.766 17.595-6.766 18.948s1.692 8.797 1.692 10.49c0 1.69-2.707 10.15-3.722 12.518s2.368 13.534 4.398 16.24c2.03 2.707-2.03 8.12 0 16.58 2.03 8.457 3.722 7.78 3.722 7.78l13.195.014s11.164-18.258 17.93-19.133 9.136-7.675 9.136-7.675h6.758s15.234-19.732 13.88-27.853c0 0 21.315-12.733 23.007-16.135l-10.488-7.587s-4.06-34.235-5.413-38.295c-1.354-4.06 3.72-.708 3.72-.708s5.076 25.698 6.768 26.375c1.692.677 19.962 5.067 24.36 1.684s-1.015-11.846-7.782-12.86c-6.767-1.016.677-10.83.677-10.83s14.442 12.644 19.4 14.61c.003 0-1.153-64.567-21.103-89.496zM324.585 290.345l-6.783-3.1 1.854-10.334s6.952-9.557 11.344-10.29c4.39-.73 5-.042 5-.042v12.24s-11.05 5.813-11.54 9.96.125 1.567.125 1.567z" fill="#BBE0CF"/><path d="M248.077 215.347s4.635-3.903 5.367 0c.732 3.903 0 14.73 0 15.416s-3.903 1.905-3.903 1.905-3.17-9.27-1.463-17.32z" fill="#95D0B3"/><path d="M298.09 112.657s5.122-7.336 8.782-7.336 3.66 3.67 3.66 3.67-5.124 5.96-8.052 6.756-5.367 0-5.367 0-.28-1.44.976-3.09zM303.81 119.62s8.185-9.608 11.113-10.002c2.928-.394 3.415 2.316 3.415 2.316l-11.954 9.37s-1.247 2.19-2.575-1.684zM91.71 107.97c-.11.458-.614.844-1.34 1.177-2.234 3.347-6.426 11.19-6.64 14.807-.307 5.147 3.095 23.817 6.182 25.8 3.087 1.98 15.79-16.815 8.403-27.14 0 0 11.176-4.848-1.563-8.475 0 0 9.29-19.502 20.077-14.106 0 0 7.013 1.1 6.67 13.88 0 0 5.486 10.912 9.602-3.587 1.83-6.453 6.764-9.61 11.675-11.132l-27.987-33.57c-16.015 12.49-29.633 27.9-40.078 45.424 2.464-.074 10.457-.425 13.66-1.902.945-1.415 1.542-2.032 1.338-1.18z" fill="#BBE0CF"/><path d="M22.547 102.167C-10.173 169.187 184.29 229.31 184.29 229.31l-12.273 17.392 94.43-12.914C77.442 183.65 30.744 133.244 22.546 102.168z" fill="#E78585"/><path d="M192.515 193.945C72.305 164.03 46.82 117.498 46.82 117.498c3.737-7.91 17.236-9.543 32.164-8.636 2.585-4.876 6.433-11.422 11.05-17.078-28.982-6.074-47.655-3.058-56.15-.737-4.04 1.42-6.525 3.6-7.96 5.338-1.323 1.933-2.437 3.86-3.376 5.783 8.197 31.077 54.896 81.484 243.9 131.622l-70.61-58.678-3.323 18.833z" fill="#E26767"/></svg>