<svg xmlns="http://www.w3.org/2000/svg" viewBox="0 0 800 800" enable-background="new 0 0 800 800"><path fill="#78549F" d="M193.4 562.8h102.2V753H193.4z"/><path fill="#B6589F" d="M323.8 537l-28.2 25.8H193.4l28.2-25.8z"/><path fill="#2C3B8E" d="M295.6 753V562.8l28.2-25.8v192.8l-28.2 25.8"/><path fill="#78549F" d="M377 486.4h108.8v273.2H377z"/><path fill="#B6589F" d="M516 449.4l-30 37H377l30-37z"/><path fill="#2C3B8E" d="M486 759.6V486.4l30-37v276.8l-30 37"/><path fill="#78549F" d="M109.903 755.508l-102.2-.96 1-106.6 102.2.96z"/><path fill="#B6589F" d="M139.2 634.8l-28.4 14L8.6 648 37 633.8z"/><path fill="#2C3B8E" d="M109.8 755.6l1-106.8 28.4-14-1 108-28.4 14.2"/><path fill="#78549F" d="M567.6 384h108.8v374.2H567.6z"/><path fill="#B6589F" d="M706.6 333.4l-30 50.6h-109l30.2-50.6z"/><path fill="#2C3B8E" d="M676.6 758.2V384l30-50.6v379.2l-30 50.6"/><path fill="none" stroke="#DD294C" stroke-width="11" stroke-miterlimit="10" d="M723.2 180.6l-86 178.2-96.4-87.6-80.6 192.6-136.4-84.6-65.2 169.2-156.6-48-51.6 133.4"/><path fill="#DD294C" stroke="#DD294C" stroke-width="2" stroke-linecap="round" stroke-linejoin="round" stroke-miterlimit="10" d="M722.8 259.8l-55.2-62.2L794.2 146z"/></svg>