<svg xmlns="http://www.w3.org/2000/svg" viewBox="0 0 800 959.1" enable-background="new 0 0 800 959.1"><path fill="#F27C52" d="M209 221.2l386.8 283.2V221.2z"/><path fill="#EF5B34" d="M209 221.2v608h386.8V504.4z"/><path fill="none" d="M595.8 221.2H209h386.8zM209 221.2zM445.6 189.6c3.8 0 7.4-4.8 11-7.2-3.8-2.6-7.6-7.2-11.6-7.6-14.6-1-29.2-.4-43.8-.4-14.2 0-28.4-.6-42.4.4-4.2.2-8.4 4.4-12.4 6.8 3.8 2.8 7.8 8 11.6 8 29.2.6 58.4.6 87.6 0z"/><path fill="#414142" d="M595.8 504.4v324.8H209v-608h386.8v283.2l32 23.4V205.6c0-43.2-24.6-68-67.4-68H248.8c-43 0-67.6 24.8-67.6 68v644.6c0 43 24.8 67.8 67.6 67.8h310.4c44.6 0 68.8-24.2 68.8-69.2v-321l-32.2-23.4zm-237-329.6c14-.8 28.2-.4 42.4-.4 14.6 0 29.2-.6 43.8.4 4 .2 7.6 4.8 11.6 7.6-3.6 2.6-7.2 7.2-11 7.2-29.2.6-58.4.6-87.4 0-4 0-7.8-5.2-11.6-8 4-2.4 8-6.6 12.2-6.8zM452.4 874c-1.6 12.8-11.6 22.2-25.4 22.8-8.4.4-16.8 0-25.2 0-8 0-16 .4-24 0-13.8-.8-24.4-11-25.6-24.2-1-12.8 7-25.8 20.6-26.8 19.8-1.6 39.8-1.8 59.6.2 14.4 1 21.6 13.8 20 28z"/><circle fill="#FFDC38" cx="394.4" cy="505.8" r="129.8"/><path fill="none" d="M214.4 419.6h360v260h-360z"/><text transform="translate(340.226 563.758)" fill="#fff" font-family="'OpenSans-Semibold'" font-size="189.743">$</text><linearGradient id="a" gradientUnits="userSpaceOnUse" x1="153.8" y1="546.993" x2="261.415" y2="546.993" gradientTransform="matrix(2 0 0 -2 0 1600)"><stop offset="0" stop-color="#F8EB48"/><stop offset="1" stop-color="#FAAF4C"/></linearGradient><path fill="url(#a)" d="M394.4 376.2s98.8 37.6 95 129.8c-3.6 92-104 117.6-181.8 96.2 0 0 137.4 106 210.8-58.4 0-.2 40.6-157-124-167.6z"/></svg>