<svg xmlns="http://www.w3.org/2000/svg" viewBox="0 0 400 400" enable-background="new 0 0 400 400"><path fill="#F7AA91" d="M194.3 72.1c81.9.2 148.1 66.4 148 148.2-.1 81.9-66.4 148.1-148.2 148-81.8-.1-148.1-66.4-148-148.2.1-81.8 66.5-148.2 148.2-148zm-11.9 136.4H84c-1.2 0-2.4-.1-3.6 0-4.9.5-8.4 2.9-10.3 7.5-1.8 4.6-.7 8.9 2.6 12.4 2.7 2.9 6.3 3.6 10.2 3.6h108.8c9.8 0 14.2-4.5 14.2-14.2V109.4c0-1.1 0-2.2-.1-3.3-.6-6.3-5.7-10.8-12-10.7-6.8.1-11.5 5.3-11.5 12.9v95.9c.1 1.3.1 2.6.1 4.3z"/><path fill="#FAD3C2" d="M46.1 220.2c0 54.8 29.7 102.6 73.9 128.2l167.4-243.2c-25.4-20.6-57.8-33-93.2-33.1-81.6-.2-148 66.2-148.1 148.1z"/><path fill="#595A5C" d="M132.4 2c7.8 1.5 13 6.4 17.6 12.6 5 6.9 10.6 13.3 16.3 20.5-23.3 3.7-44.8 11.1-64.9 22.7C81.3 69.3 64 84 48.9 102.4c-.6-1.3-1-2.3-1.3-3.2-3.3-8.4-6.4-17-9.9-25.3-2.8-6.7-2.2-13 1.1-19.2 4.9-9.3 12.4-16.4 20.7-22.5 15-11.2 31-20.4 48.8-26.4 4.8-1.6 9.9-2.5 14.9-3.6 3-.2 6.1-.2 9.2-.2zM265.2 2c6.6 1.8 13.5 2.9 19.8 5.5 21.4 8.6 41.2 19.8 57.3 36.8 4.8 5.1 9 10.9 9.9 18.2.3 2.9.2 6.2-.7 9-3.5 9.9-7.5 19.6-11.3 29.4-.1.4-.4.7-.8 1.3-30.7-36.6-69.5-59-117-67 .8-1.1 1.5-2.1 2.2-3 6-7.5 12.1-15 18.1-22.6 3.5-4.4 8.4-6 13.5-7.5 2.9-.1 5.9-.1 9-.1zM182.4 208.5V108.3c0-7.6 4.7-12.8 11.5-12.9 6.2-.1 11.4 4.5 12 10.7.1 1.1.1 2.2.1 3.3v108.4c0 9.7-4.5 14.2-14.2 14.2H83c-3.9 0-7.5-.7-10.2-3.6-3.4-3.5-4.5-7.8-2.6-12.4 1.8-4.6 5.3-7.1 10.3-7.5 1.2-.1 2.4 0 3.6 0h98.3z"/><path fill="none" d="M194.1 368.4c81.8.1 148.1-66.2 148.2-148 0-46.5-21.3-88-54.8-115.1L120 348.4c21.8 12.7 47.1 19.9 74.1 20z"/><path fill="#595A5C" d="M358.2 169.9c-10.5-34.3-30.9-63.2-57.4-84.2l-13.4 19.5c33.5 27.2 54.8 68.6 54.8 115.1-.1 81.9-66.4 148.1-148.2 148-27 0-52.3-7.3-74-19.9L106.5 368c21.3 12.4 46 20.2 74.3 23.2 22.9 2.4 45.5-.7 67.3-8 88.9-29.9 137.6-123.7 110.1-213.3z"/><path fill="#808184" d="M46.1 220.2c.1-81.9 66.5-148.2 148.2-148 35.4.1 67.7 12.5 93.2 33.1l13.4-19.5c-35.7-28.4-82.5-42.3-131.3-35.4C136.8 55 107.7 68.3 82.7 90 50.5 117.9 31 152.9 24.5 195c-.7 4.7-1.3 9.5-1.9 14.2v22.4c.2 1 .6 1.9.6 2.9 1.1 15.7 4.2 31.1 10.1 45.6 16.4 39.9 40.8 69.3 73.2 88.1l13.5-19.6C75.8 322.8 46.1 275 46.1 220.2z"/></svg>