<svg xmlns="http://www.w3.org/2000/svg" viewBox="0 0 400 400" enable-background="new 0 0 400 400"><path fill="none" d="M366.1 344.3c-6.6 0-11.8 5.4-11.8 12.1 0 6.9 5.1 12 12 12 6.8 0 12.2-5.3 12.1-12 0-6.8-5.5-12.1-12.3-12.1z"/><path fill="#666" d="M362.1 10.2c-16.6 9.9-33.3 19.8-49.9 29.7-.9.5-1.7 1.1-1.9 2.3-1.2 8.7-2.5 17.3-3.8 25.9-.1.6-.1 1.1.3 1.7 1.4 1.8 1.4 1.8-.2 3.4l-91.4 91.4-94.6 94.6c-1.5 1.5-1.5 1.5-3 0l-9.3-9.3c-.8-.8-1.3-.9-2-.4l33.5 30.7.9-.9 153-153c11.2-11.2 22.4-22.3 33.5-33.5 1-1 1.7-1.2 2.6 0 .6.8 1.3.9 2.2.7l2.1-.3c7.9-1.2 15.8-2.3 23.7-3.5.4-.1.8-.2 1.1-.4l4.4-79.8c-.4.2-.8.4-1.2.7z"/><path fill="#A7A9AC" d="M393.4 28.5c-7.4-7.4-14.8-14.7-22.1-22.1-.8-.8-1.5-.8-2.4-.2-1.8 1.1-3.6 2.2-5.5 3.3L359 89.3c.3-.2.6-.5.8-.9 11.3-19.1 22.6-38.2 34-57.2.6-1.2.4-1.9-.4-2.7z"/><path fill="#BC2132" d="M149.7 291.2l-9-9c-1.1-1.1-1.4-1.4-.8-2.1l-33.5-30.7c-.2.1-.3.2-.5.4-27.5 27.6-55.1 55.1-82.6 82.7-6 6-8.7 13.3-8.9 20.4 0 7.3 1.6 12.8 4.7 17.8 2.4 3.9 5.6 7 9.2 9.4l121.4-88.9z"/><path fill="#C6534B" d="M28.3 380.2c6.6 4.4 14.7 6.2 22.9 4.7 6.6-1.2 12.3-4.3 17.1-9.1l63.3-63.3 18.2-18.2c1.5-1.5 1.5-1.5 0-3.1l-121.5 89z"/><path fill="none" d="M366.2 368.4c6.8 0 12.2-5.3 12.1-12 0-6.7-5.5-12.1-12.3-12.1-6.6 0-11.8 5.4-11.8 12.1 0 6.9 5.2 12 12 12zM120.8 69.3C106 54.4 91.1 39.5 76.2 24.6l39.4 52.9 5.3-5.3c1.4-1.4 1.4-1.4-.1-2.9z"/><path fill="#58595B" d="M82.3 110.8c-1.7 1.7-1.7 1.7-3.4 0L23.6 55.5c-1.6-1.6-1.7-1.6-2.5.5-4.6 12.1-6.3 24.6-4.7 37.5 2 16.8 8.7 31.5 20.2 43.9C50.2 152 67 160.4 87 162.2c12.1 1.1 23.8-.5 35.1-4.8 1.7-.6 2.6-.4 3.8.8 12.4 12.4 24.8 24.8 37.2 37.3 1.1 1.1 1.7 1.2 2.8 0 7.1-7.2 14.3-14.3 21.5-21.5l-71.8-96.6c-11.1 11.2-22.2 22.3-33.3 33.4z"/><path fill="#1A1A1A" d="M65.6 14l10.7 10.7-10.2-13.6c-2.5.9-2.5 1-.5 2.9zM205.3 153.1c-12.3-12.3-24.6-24.6-36.9-36.8-1.4-1.4-1.7-2.5-1-4.4 4.2-11 5.9-22.4 4.8-34.1-1.8-19.6-9.7-36.4-23.9-50C133.2 13.3 115 6.3 98.7 6c-14.2 0-23.5 1.7-32.5 5.1l10.1 13.5 44.6 44.6c1.5 1.5 1.5 1.5 0 3l-5.3 5.3 71.8 96.6c6-6 11.9-12 17.9-17.9 1.5-1.6 1.5-1.6 0-3.1z"/><path fill="#58595B" d="M204.5 233.8c-1.6 1.6-1.6 1.6.1 3.2l34.4 34.4 81.4 81.4-100.3-134.7c-5.2 5.2-10.4 10.4-15.6 15.7z"/><path fill="#1A1A1A" d="M367.9 385.5c15.4-1.2 27.6-14.3 27.6-29-.2-9.3-3.4-16.6-9.5-22.7L246.8 194.6c-1.6-1.6-1.6-1.6-3.2 0l-23.5 23.5 100.2 134.7 23.5 23.5c6.7 6.7 14.7 9.9 24.1 9.2zm-1.8-41.2c6.8 0 12.3 5.4 12.3 12.1 0 6.7-5.4 12-12.1 12-6.9 0-12-5.1-12-12-.1-6.8 5.2-12.1 11.8-12.1z"/></svg>