<?xml version="1.0" encoding="utf-8"?>
<!-- Generator: Adobe Illustrator 18.1.1, SVG Export Plug-In . SVG Version: 6.00 Build 0)  -->
<svg version="1.1" id="Layer_1" xmlns="http://www.w3.org/2000/svg" xmlns:xlink="http://www.w3.org/1999/xlink" x="0px" y="0px"
	 viewBox="0 0 400 400" enable-background="new 0 0 400 400" xml:space="preserve">
<g>
	<g>
		<polygon fill="#C22026" points="195.6,54.4 210.8,57.4 206.8,52.3 		"/>
		<polygon fill="#C22026" points="116.1,38.6 116.1,59.4 112.6,62.6 112.6,366.9 118.5,366.9 116.5,69.2 195.6,54.4 		"/>
		<path fill="#C22026" d="M206.8,52.3l1.2-29.5h9.5l1.8-4.9C154.8-3.7,116.1,38.6,116.1,38.6l79.4,15.8L206.8,52.3z"/>
		<polygon fill="#C22026" points="210.8,57.4 224.2,22.8 217.6,22.8 206.8,52.3 		"/>
		<polygon fill="#C22026" points="206.8,52.3 217.6,22.8 208,22.8 		"/>
	</g>
	<path fill="#DE1E31" d="M208.2,54.5l-89.4,16.5l2.3,295.9l87.1,15c0,0,22.5,3.8,26.3-2.3l48.8-24l-2.9-287l-2.8-0.7l0.7-20.7
		c0,0-27.2-45.6-58.5-29.7L208.2,54.5z"/>
	<polygon fill="#F6F1D5" points="233.8,70.1 237.5,341.9 275,87.9 	"/>
	<polygon fill="#FEDFBD" points="237.5,341.9 275,327.3 275,87.9 	"/>
	<polygon fill="#F6F1D5" points="127.4,82.9 127.4,333.9 198.9,71.6 	"/>
	<polygon fill="#FEDFBD" points="198.9,71.6 127.4,333.9 200.5,340.4 	"/>
	<path fill="#DEEED6" d="M128,145.5"/>
	<path fill="#C22026" d="M112.9,368.7v5.7l96.2,23.4c0,0,21.1,6.8,34.2-4.6l43.4-26.8v-10.3l-55.9,26.9c0,0-12.3,5.4-29.7,0
		L112.9,368.7z"/>
	<path fill="#C22026" d="M109.5,30.9c0,0,35.1-42.1,120.3-28.1c0,0,32.1-0.5,48.6,38.1l-1,3.9c0,0-25.8-50.1-58.5-29.7
		c0,0-50.4-29.1-103.3,20.7L109.5,30.9z"/>
	<line fill="none" stroke="#DE1E31" stroke-width="2" stroke-miterlimit="10" x1="137.4" y1="76.7" x2="137.4" y2="345.9"/>
	<line fill="none" stroke="#DE1E31" stroke-width="2" stroke-miterlimit="10" x1="189.6" y1="64.8" x2="189.6" y2="350.5"/>
	<line fill="none" stroke="#DE1E31" stroke-width="2" stroke-miterlimit="10" x1="122.5" y1="111.2" x2="207" y2="102.1"/>
	<line fill="none" stroke="#DE1E31" stroke-width="2" stroke-miterlimit="10" x1="122.5" y1="142.3" x2="212.6" y2="136.2"/>
	<line fill="none" stroke="#DE1E31" stroke-width="2" stroke-miterlimit="10" x1="122.5" y1="174.6" x2="212.6" y2="170.3"/>
	<line fill="none" stroke="#DE1E31" stroke-width="2" stroke-miterlimit="10" x1="122.5" y1="207.6" x2="212.6" y2="204.6"/>
	<line fill="none" stroke="#DE1E31" stroke-width="2" stroke-miterlimit="10" x1="124.7" y1="237.9" x2="211.2" y2="240.7"/>
	<line fill="none" stroke="#DE1E31" stroke-width="2" stroke-miterlimit="10" x1="123.2" y1="270.3" x2="208.4" y2="273.8"/>
	<line fill="none" stroke="#DE1E31" stroke-width="2" stroke-miterlimit="10" x1="124" y1="303.3" x2="211.2" y2="309"/>
	<line fill="none" stroke="#DE1E31" stroke-width="2" stroke-miterlimit="10" x1="243.6" y1="70.2" x2="243.6" y2="360.3"/>
	<line fill="none" stroke="#DE1E31" stroke-width="2" stroke-miterlimit="10" x1="270.1" y1="76.7" x2="270.1" y2="345.9"/>
	<line fill="none" stroke="#DE1E31" stroke-width="2" stroke-miterlimit="10" x1="227.3" y1="102.1" x2="278.5" y2="117.6"/>
	<line fill="none" stroke="#DE1E31" stroke-width="2" stroke-miterlimit="10" x1="227.3" y1="136.2" x2="278.5" y2="145.5"/>
	<line fill="none" stroke="#DE1E31" stroke-width="2" stroke-miterlimit="10" x1="230.2" y1="170.3" x2="278.5" y2="174.6"/>
	<line fill="none" stroke="#DE1E31" stroke-width="2" stroke-miterlimit="10" x1="233.3" y1="206.1" x2="278.5" y2="207.6"/>
	<line fill="none" stroke="#DE1E31" stroke-width="2" stroke-miterlimit="10" x1="235.6" y1="236.9" x2="278.5" y2="236.9"/>
	<line fill="none" stroke="#DE1E31" stroke-width="2" stroke-miterlimit="10" x1="230.2" y1="273.8" x2="278.5" y2="265.3"/>
	<line fill="none" stroke="#DE1E31" stroke-width="2" stroke-miterlimit="10" x1="233.3" y1="309" x2="278.5" y2="296.3"/>
	<polygon fill="#F6F1D5" points="224.6,44.8 227.3,22.4 271.7,47.2 271.7,64.8 	"/>
	<polygon fill="#F6F1D5" points="124.7,57 124.7,40.2 201.1,25.4 201.1,41.2 	"/>
	<g>
		<path d="M254,45.2c0.8,0.4,1.6,0.8,2.4,1.1c0.1,0,0.2-0.3,0.1-0.5c-0.2-1-0.3-2-0.5-3c-0.1-0.4-0.4-0.8-0.6-1.2
			c0.5,0.2,1,0.5,1.5,0.8c0,0,0,0.1,0,0.1c-0.1,0-0.1,0-0.2,0c-0.2-0.1-0.3,0.2-0.2,0.7c0.4,2.7,0.9,5.5,1.4,8.4
			c0.2,1.1,0.5,1.1,0.8,1.6c-0.6-0.2-1.1-0.5-1.7-0.7c0-0.1,0-0.1,0-0.2c0.1,0,0.2,0.1,0.3,0c0.1-0.2,0.2-0.4,0.1-0.7
			c-0.2-1.5-0.5-2.9-0.7-4.5c-0.8-0.4-1.7-0.8-2.5-1.2c0.2,1.6,0.4,3.2,0.7,4.8c0.1,0.3,0.4,0.7,0.6,1.1c-0.6-0.2-1.2-0.5-1.8-0.7
			c0.8,0.3,0.4-1.3,0.3-2.5c-0.3-2-0.6-4-0.8-5.9c-0.2-1.8-0.2-1.8-1-2.8c0.6,0.3,1.2,0.6,1.7,0.9c-0.6-0.2-0.3,1-0.2,1.9
			C253.8,43.5,253.9,44.3,254,45.2z"/>
		<path d="M264.5,46.2c0.4,0.2,0.8,0.4,1.1,0.6c-0.4-0.1-0.1,1,0.1,2c0.6,2.6,1.2,5.3,1.8,8.1c-0.2,0.1-0.4-0.3-0.7-0.9
			c-1.2-2.8-2.4-5.6-3.6-8.3c-0.1-0.3-0.2-0.5-0.4-1c0.1,0.4,0.1,0.6,0.1,0.8c0.4,1.8,0.8,3.7,1.2,5.6c0.4,1.7,0.4,1.7,1,2.7
			c-0.5-0.2-0.8-0.3-1.2-0.5c0.3-0.4,0.4-0.4,0-2c-0.4-2.2-0.9-4.3-1.3-6.3c-0.2-1-0.4-1.7-0.9-2c0.4-0.3,0.8,0.2,1.3,1.3
			c1.1,2.5,2.2,5,3.3,7.5c0.2,0.4,0.3,0.7,0.6,1.3c-0.2-1.1-0.4-1.9-0.6-2.7c-0.3-1.5-0.7-2.9-1-4.4c-0.2-0.8-0.3-1.3-0.7-1.5
			C264.7,46.6,264.6,46.4,264.5,46.2z"/>
		<path d="M261.3,54.4c-1.3-0.5-2.5-3.1-3.1-6.7c-0.6-3.3-0.1-4.9,1.2-4.3c1.2,0.6,2.3,2.9,2.9,5.9C263,52.7,262.6,54.9,261.3,54.4z
			 M258.7,47.5C258.6,47.5,258.6,47.5,258.7,47.5c0.3,1.3,0.6,2.7,1.1,3.9c0.6,1.8,1.3,2.6,1.9,2.6c0.6,0,0.7-0.9,0.6-2.5
			c-0.1-1-0.3-2.1-0.6-3.1c-0.6-2.6-1.5-4.3-2.4-4.6C258.4,43.6,258.2,44.9,258.7,47.5z"/>
		<path d="M244.5,47.1c0.9,0.6,0.7-0.7,0.6-1.8c-0.2-2.6-0.4-5.1-0.6-7.6c-0.1-0.9-0.2-1.5-0.7-1.7c0,0-0.1-0.2-0.3-0.4
			c1.4,0.7,2.6,1.3,3.9,2c0,0.7,0.1,1.4,0.1,2.1c0,0,0,0-0.1,0c0-0.2-0.1-0.4-0.1-0.5c-0.1-0.8-0.3-1.2-0.6-1.4
			c-0.4-0.2-0.9-0.5-1.3-0.7c-0.2-0.1-0.3,0.1-0.3,0.5c0.1,1,0.1,2.1,0.3,3.2c0,0.3,0.2,0.7,0.4,0.9c0.2,0.2,0.5,0.3,0.7,0.4
			c0.7,0.3,0.7,0.3,0.8-1.1c0.1,1.2,0.2,2.3,0.3,3.6c-0.2-0.6-0.3-1.4-0.5-1.5c-0.5-0.4-0.9-0.5-1.4-0.7c-0.1,0-0.1,0.3-0.1,0.5
			c0.1,1.3,0.2,2.6,0.3,3.9c0,0.3,0.3,0.8,0.4,0.9c0.4,0.3,0.9,0.4,1.3,0.6c0.5,0.2,0.8,0.1,0.7-1.2c0-0.2,0-0.4,0-0.6
			c0,0,0.1,0,0.1,0.1c0.1,0.8,0.2,1.6,0.2,2.4c0,0.2-0.3,0.3-0.4,0.2c-0.9-0.4-1.8-0.8-2.8-1.2c-0.3-0.1-0.5-0.2-0.8-0.3
			C244.6,47.4,244.6,47.3,244.5,47.1z"/>
		<path d="M268.4,57.1c0.4,0,0.2-0.8,0-1.7c-0.5-2.2-1-4.4-1.5-6.5c-0.2-0.7-0.4-1.5-0.7-1.6c0,0-0.1-0.1-0.2-0.3
			c0.9,0.4,1.7,0.8,2.5,1.3c0.1,0.7,0.3,1.3,0.4,1.9c-0.1-0.1-0.1-0.1-0.1-0.1c-0.2-1-0.5-1.4-0.8-1.6c-0.3-0.1-0.6-0.3-0.9-0.5
			c0.3,1.2,0.6,2.4,0.8,3.6c0,0.2,0.2,0.5,0.3,0.5c0.2,0.1,0.3,0.2,0.5,0.3c0.4,0.2,0.4,0.2,0.3-1c0.2,1,0.5,2,0.7,3.1
			c0,0-0.1-0.1-0.1-0.1c-0.2-1.1-0.5-1.4-0.8-1.5c-0.2-0.1-0.4-0.2-0.7-0.3c0.3,1.4,0.6,2.7,1,4c0,0.2,0.2,0.5,0.3,0.6
			c0.3,0.2,0.6,0.2,0.9,0.4c0.3,0.2,0.4-0.1,0.2-1.1c0-0.2-0.1-0.4-0.1-0.6c0,0,0.1,0.1,0.1,0.1c0.2,0.7,0.3,1.4,0.5,2.3
			C270,57.8,269.2,57.4,268.4,57.1z"/>
		<path d="M237.7,40.1c-0.2-0.6-0.3-1.5-0.5-1.6c-0.6-0.4-1.1-0.6-1.7-0.8c-0.1,0-0.1,0.3-0.1,0.6c0,1.3,0,2.6,0,4
			c0,0.6,0.1,1,0.4,1.1c0.5,0.2,1.1,0.4,1.6,0.7c0.5,0.3,0.9,0,0.9-1.2c0-0.3,0.1-0.5,0.1-0.7c0,0,0.1,0.1,0.1,0.1
			c0,0.9,0,1.8,0,2.9c-1.6-0.6-3.2-1.3-4.8-2c1,0.1,0.8-1.5,0.8-2.7c0-2.6,0-5.1,0-7.5c0-0.9-0.1-1.5-0.6-1.7
			c-0.1,0-0.1-0.2-0.3-0.5c1.6,0.8,3.1,1.6,4.6,2.3c0,0.7,0,1.4-0.1,2.2c-0.1-0.1-0.1-0.1-0.1-0.1c0-1.3-0.4-1.9-1-2.2
			c-0.5-0.3-1-0.5-1.6-0.8c0,1.5,0,2.8,0,4.1c0,0.3,0.2,0.8,0.4,0.9c0.3,0.3,0.6,0.3,0.9,0.5c0.8,0.3,0.8,0.3,1-1.1
			C237.6,37.6,237.6,38.8,237.7,40.1z"/>
		<path d="M249.4,49.4c0.6-0.4,0.6-0.4,0.4-2.2c-0.2-2.3-0.5-4.5-0.7-6.7c-0.2-1.6-0.2-1.6-0.9-2.6c0.6,0.3,1.2,0.6,1.8,0.9
			c0.4,0.2,0.8,0.4,1.1,0.7c0.7,0.7,1.2,2.2,1.2,3.7c-0.1,1.5-0.9,2.1-1.6,1.2c0,0-0.1-0.2-0.2-0.5c0.2,0.1,0.4,0.2,0.5,0.2
			c0.6,0.2,0.8-0.5,0.7-1.8c-0.1-1.2-0.5-2.2-1.1-2.8c-0.1-0.1-0.1-0.1-0.2-0.2c-1-0.5-0.9-0.3-0.7,1.6c0.2,2,0.5,4,0.7,6.1
			c0.2,2,0.2,2,1.1,3.1C250.7,49.9,250,49.6,249.4,49.4z"/>
		<path d="M227.8,30.1c0-0.8,0.1-1.6,0.2-2.5c1.8,0.9,3.5,1.8,5.3,2.7c0,0.8-0.1,1.6-0.1,2.4c0,0-0.1,0-0.1,0c0-0.1,0-0.2-0.1-0.3
			c-0.1-0.6-0.1-1.5-0.2-1.6c-0.4-0.5-0.9-0.7-1.4-0.9c-0.1,0-0.2,0.4-0.2,0.6c-0.1,3-0.2,6.3-0.3,9.6c0,0.9,0.1,1.4,0.6,1.6
			c0.1,0,0.2,0.2,0.3,0.4c-0.9-0.4-1.9-0.8-3-1.2c1.1-0.3,1.2-0.3,1.3-2.4c0.1-2.7,0.2-5.4,0.3-7.9c0.1-1.3,0-1.3-0.7-1.7
			c-0.1,0-0.2-0.1-0.2-0.1c-0.9-0.4-0.9-0.4-1.1,1c0,0.2-0.1,0.3-0.1,0.4C227.9,30.2,227.8,30.1,227.8,30.1z"/>
		<path d="M239,33.2c0.7,0.4,1.4,0.7,2.1,1.1c0,0.1,0,0.2,0,0.2c-0.7-0.1-0.7-0.1-0.6,1.4c0.1,2.6,0.3,5.4,0.3,8.2
			c0,1,0.2,1.4,0.7,1.5c0.1,0,0.2,0.1,0.4,0.1c0.5,0.1,0.9,0.3,1.4,0.4c0.6,0.1,0.2-1.6,0.6-2.2c0,1.1,0.1,2,0,2.9
			c0,0.2-0.3,0.3-0.5,0.2c-0.9-0.4-1.8-0.8-2.8-1.2c-0.3-0.1-0.5-0.2-0.7-0.3c0.1-0.7,0.3-1.4,0.2-2.1c-0.1-2.8-0.2-5.5-0.3-8.1
			c0-1.1-0.3-1.8-0.9-1.9C238.9,33.4,239,33.3,239,33.2z"/>
	</g>
	<g>
		<path d="M157.9,41.5c1.6-0.3,3.1-0.6,4.6-0.9c0.2,0,0.5-0.5,0.5-0.7c0.1-0.9,0.2-1.9,0.2-2.7c0-0.4-0.5-0.5-0.8-0.7
			c1-0.2,2.1-0.5,3.3-0.7c0,0,0,0.1,0,0.1c-0.2,0.1-0.3,0.2-0.5,0.2c-0.5,0.1-0.7,0.5-0.8,1c-0.3,2.5-0.5,5-0.8,7.5
			c-0.1,0.9,0.6,0.7,1,0.9c-1.2,0.2-2.3,0.4-3.4,0.6c0,0,0-0.1,0-0.1c0.2-0.1,0.4-0.1,0.5-0.2c0.2-0.2,0.6-0.5,0.6-0.7
			c0.2-1.3,0.3-2.5,0.4-3.8c-1.6,0.3-3.3,0.6-4.9,1c-0.1,1.3-0.3,2.6-0.4,3.9c0,0.2,0.5,0.3,0.8,0.5c-1,0.2-2.1,0.4-3.1,0.5
			c1.4-0.3,1.2-1.4,1.3-2.3c0.2-1.7,0.4-3.3,0.5-5c0.2-1.6,0.2-1.6-0.9-1.9c1.1-0.3,2.2-0.5,3.2-0.7c-1.2,0.4-1.1,1.3-1.2,2.2
			C158.1,40,158,40.7,157.9,41.5z"/>
		<path d="M185.9,31.2c1.4-0.3,2.6-0.6,3.8-0.8c-1.7,0.6-1.5,1.8-1.7,2.8c-0.3,2.9-0.7,5.7-1,8.6c-0.8,0.4-1.3,0.1-1.7-0.4
			c-1.8-2.2-3.5-4.4-5.2-6.5c-0.2-0.2-0.4-0.4-0.6-0.7c-0.1,0.4-0.2,0.7-0.2,0.9c-0.2,1.9-0.4,3.8-0.6,5.7c-0.2,1.7-0.1,1.7,1.2,2.1
			c-1.3,0.2-2.3,0.4-3.4,0.6c1.3-0.8,1.3-0.8,1.5-2.3c0.2-2.1,0.4-4.2,0.7-6.3c0.1-1,0.1-1.8-1.2-1.5c1.5-0.9,2.6-0.8,3.3,0.1
			c1.6,2,3.2,3.9,4.8,5.9c0.2,0.3,0.5,0.5,1,1c0.1-1.2,0.2-2,0.3-2.9c0.2-1.6,0.3-3.2,0.5-4.8c0.1-0.9,0-1.5-1-1.2
			C186.3,31.5,186.2,31.3,185.9,31.2z"/>
		<path d="M170.1,44.8c-2.9,0.5-4.4-1.2-4-4.3c0.4-3.1,2.5-5.5,5.6-6.2c3.1-0.7,4.9,0.8,4.6,3.9C175.8,41.4,173.2,44.2,170.1,44.8z
			 M167.3,39.8c-0.1,0-0.1,0.1-0.2,0.1c0.2,1,0.3,2.2,0.7,3.1c0.6,1.3,1.9,1.5,3.4,1.1c1.5-0.5,2.6-1.6,3-3.2c0.3-1,0.5-2.1,0.5-3.1
			c0-2.5-1.5-3.6-3.9-2.8C168.9,35.5,167.5,37.3,167.3,39.8z"/>
		<path d="M142.3,49.1c1,0,1-0.9,1.1-1.6c0.2-1.8,0.4-3.7,0.6-5.5c0.1-0.7,0-1.1-0.6-1c-0.1,0-0.1-0.1-0.3-0.2
			c1.9-0.4,3.6-0.8,5.5-1.2c-0.1,0.6-0.2,1.2-0.3,1.8c0,0-0.1,0-0.1,0.1c0-0.1-0.1-0.2-0.1-0.4c0.1-0.7-0.2-0.8-0.7-0.8
			c-0.6,0.1-1.2,0.3-1.8,0.4c-0.3,0.1-0.5,0.3-0.5,0.7c-0.1,0.8-0.2,1.6-0.3,2.4c0,0.2,0.2,0.4,0.4,0.5c0.3,0,0.6-0.1,0.9-0.1
			c1-0.2,1-0.2,1.4-1.4c-0.1,0.9-0.2,1.8-0.3,2.7c-0.1-0.3-0.2-0.9-0.4-0.9c-0.6,0-1.3,0.2-1.9,0.3c-0.1,0-0.2,0.3-0.3,0.5
			c-0.1,0.9-0.2,1.8-0.3,2.7c0,0.2,0.2,0.4,0.4,0.4c0.6,0,1.1-0.2,1.7-0.2c0.6-0.1,1.1-0.4,1.3-1.3c0-0.1,0.1-0.3,0.2-0.5
			c0.1,0,0.1,0,0.2,0c-0.1,0.6-0.1,1.2-0.3,1.8c0,0.2-0.5,0.3-0.7,0.4c-1.2,0.2-2.4,0.4-3.6,0.5c-0.3,0-0.6,0.1-0.9,0.2
			C142.4,49.2,142.3,49.1,142.3,49.1z"/>
		<path d="M189.9,41.2c1.3-0.4,1.5-1.3,1.6-2.2c0.3-2.4,0.6-4.9,0.8-7.3c0.1-0.9,0.1-1.7-1.1-1.4c-0.1,0-0.2-0.1-0.3-0.2
			c3.1-0.7,6.1-1.4,9.3-2.1c-0.2,0.9-0.4,1.7-0.6,2.5c-0.2,0-0.3,0-0.3-0.1c0.3-1.3-0.5-1.5-1.7-1.3c-1.1,0.3-2.2,0.5-3.5,0.8
			c-0.2,1.5-0.3,2.8-0.5,4.2c0,0.2,0.3,0.4,0.6,0.4c0.5,0,1.1-0.2,1.7-0.3c1.7-0.4,1.7-0.4,2.4-2c-0.1,1.2-0.3,2.4-0.4,3.6
			c-0.1,0-0.2,0-0.2,0c0.2-1.3-0.5-1.4-1.7-1.2c-0.8,0.2-1.5,0.3-2.5,0.5c-0.2,1.6-0.4,3-0.5,4.4c0,0.2,0.4,0.4,0.6,0.4
			c1-0.1,2.1-0.4,3.2-0.5c1.1-0.1,1.8-0.6,2-1.7c0-0.2,0.2-0.5,0.3-0.7c0.1,0,0.2,0,0.3,0c-0.2,0.8-0.3,1.7-0.5,2.6
			C195.7,40.2,192.7,40.7,189.9,41.2z"/>
		<path d="M135.2,47.6c-0.1-0.3-0.2-0.8-0.3-0.8c-0.5,0-1.1,0.2-1.7,0.3c-0.1,0-0.2,0.3-0.2,0.4c-0.1,0.8-0.2,1.7-0.3,2.5
			c0,0.4,0.1,0.5,0.3,0.5c0.5-0.1,1-0.2,1.5-0.3c0.5-0.1,0.9-0.4,1-1.1c0-0.2,0.1-0.3,0.2-0.5c0,0,0.1,0,0.1,0
			c-0.1,0.6-0.2,1.1-0.3,1.8c-1.5,0.3-3,0.5-4.5,0.8c0.9-0.3,0.8-1.2,0.9-1.9c0.2-1.6,0.3-3.2,0.5-4.9c0.1-0.6,0-1-0.5-0.9
			c-0.1,0-0.1-0.1-0.3-0.2c1.6-0.4,3.1-0.7,4.7-1c-0.1,0.6-0.2,1.1-0.3,1.7c-0.1,0-0.1,0-0.1,0c0.1-1-0.3-1.1-0.9-1
			c-0.5,0.1-1,0.2-1.7,0.4c-0.1,1-0.2,1.9-0.3,2.8c0,0.2,0.2,0.4,0.3,0.4c0.3,0,0.6-0.1,0.8-0.1c0.8-0.2,0.8-0.2,1.2-1.3
			C135.4,46,135.3,46.8,135.2,47.6z"/>
		<path d="M148.5,48.2c1-0.6,1-0.6,1.2-2c0.2-1.7,0.4-3.5,0.6-5.2c0.1-1.4,0.1-1.4-0.8-1.7c1-0.2,1.9-0.4,2.9-0.6
			c0.6-0.1,1.3-0.3,1.9-0.3c1.2,0,1.6,1.2,0.9,2.6c-0.6,1.4-2.2,2.6-3.3,2.4c-0.1,0-0.1-0.1-0.2-0.3c0.4-0.1,0.6-0.1,0.9-0.2
			c0.9-0.2,1.6-1,1.8-2.2c0.2-1-0.2-1.7-1.1-1.8c-0.1,0-0.2,0-0.3,0c-1.7,0.4-1.6,0.5-1.8,2.1c-0.2,1.6-0.4,3.2-0.5,4.9
			c-0.2,1.5-0.2,1.5,1,1.8C150.5,47.9,149.5,48,148.5,48.2z"/>
		<path d="M126.7,46c0.1-0.5,0.1-1,0.2-1.6c1.5-0.3,3-0.7,4.6-1c-0.1,0.6-0.2,1.1-0.2,1.7c0,0-0.1,0.1-0.1,0.1c0-0.1,0-0.1,0-0.2
			c0-0.3,0-0.9-0.1-1c-0.4-0.1-0.8,0.1-1.3,0.2c-0.1,0-0.2,0.3-0.2,0.5c-0.2,2-0.4,4-0.6,6c-0.1,0.5,0.1,0.7,0.4,0.6
			c0.1,0,0.1,0,0.2,0.2c-0.7,0.1-1.5,0.2-2.3,0.4c0.9-0.6,0.9-0.6,1-1.8c0.2-1.6,0.3-3.2,0.5-4.9c0.1-0.9,0.1-0.9-0.6-0.7
			c-0.1,0-0.1,0-0.2,0c-0.7,0.2-0.7,0.2-1,1.2C126.9,45.8,126.8,45.9,126.7,46C126.8,46,126.7,46,126.7,46z"/>
		<path d="M137.4,42c0.8-0.2,1.6-0.4,2.5-0.6c0,0.1,0,0.2-0.1,0.2c-0.8,0.4-0.8,0.4-1,1.5c-0.2,1.9-0.4,3.8-0.6,5.7
			c-0.1,0.7,0.1,0.8,0.6,0.7c0.1,0,0.3,0,0.4-0.1c0.5-0.1,1.1-0.2,1.6-0.4c0.8-0.2,0.5-1.2,1.1-1.9c-0.1,0.8-0.2,1.4-0.4,2
			c-0.1,0.2-0.5,0.3-0.7,0.4c-1,0.2-2.1,0.3-3.1,0.5c-0.3,0-0.6,0.1-0.7,0.1c0.2-0.5,0.4-1,0.5-1.5c0.2-1.9,0.4-3.7,0.6-5.6
			c0.1-0.8-0.1-1.2-0.9-0.9C137.3,42.2,137.4,42.1,137.4,42z"/>
	</g>
</g>
</svg>
