<?xml version="1.0" encoding="utf-8"?>
<!-- Generator: Adobe Illustrator 18.1.1, SVG Export Plug-In . SVG Version: 6.00 Build 0)  -->
<svg version="1.1" id="Layer_1" xmlns="http://www.w3.org/2000/svg" xmlns:xlink="http://www.w3.org/1999/xlink" x="0px" y="0px"
	 viewBox="0 0 400 400" enable-background="new 0 0 400 400" xml:space="preserve">
<g opacity="0.46">
	<path fill="#A9A9A9" d="M133.2,103.7c0,0,8.8-14.8-8.2-25.1h-13.4V102L133.2,103.7z"/>
	<path fill="#A9A9A9" d="M88.4,104.9c0,0-8.8-14.8,8.2-25.1h13.4v23.4L88.4,104.9z"/>
	<polygon fill="#BEBEBE" points="97,92.2 97,72.7 104.1,72.7 104.1,40.4 108,35.4 109.8,8.5 110.9,0.1 112.1,0.1 112.1,92.2 	"/>
	<polygon fill="#BEBEBE" points="127.3,92.2 127.3,72.7 120.2,72.7 120.2,40.4 116.2,35.4 114.4,8.5 113.4,0.1 112.1,0.1 
		112.1,92.2 	"/>
	<path fill="#959595" d="M87.9,103.6c0,0-3.8-17,23.7-19.6c0,0,25,2.2,23.8,24S87.9,103.6,87.9,103.6z"/>
	<path fill="#7B7B7B" d="M81.5,118.6c0,0-2.3-21.3,28.3-21.3s28.3,21.3,28.3,21.3H81.5z"/>
	<path fill="#A9A9A9" d="M78.1,132.7c0,0-2.3-27,31.7-27s31.7,27,31.7,27l-0.2,4.3H78.1V132.7z"/>
	<ellipse fill="#959595" cx="109.8" cy="139.2" rx="31.7" ry="20.5"/>
	<line fill="#A9A9A9" stroke="#A9A9A9" stroke-miterlimit="10" x1="108.9" y1="142.2" x2="109.8" y2="118.6"/>
	<line fill="#A9A9A9" stroke="#A9A9A9" stroke-miterlimit="10" x1="108.9" y1="142.2" x2="128" y2="123"/>
	<line fill="#A9A9A9" stroke="#A9A9A9" stroke-miterlimit="10" x1="108.9" y1="142.2" x2="139.8" y2="142.2"/>
	<line fill="#A9A9A9" stroke="#A9A9A9" stroke-width="3" stroke-miterlimit="10" x1="108.9" y1="142.2" x2="108.9" y2="159.7"/>
	<line fill="#A9A9A9" stroke="#A9A9A9" stroke-miterlimit="10" x1="108.9" y1="142.2" x2="93.9" y2="157.1"/>
	<line fill="#A9A9A9" stroke="#A9A9A9" stroke-miterlimit="10" x1="110.7" y1="142.2" x2="79.2" y2="142.2"/>
	<line fill="#A9A9A9" stroke="#A9A9A9" stroke-miterlimit="10" x1="109.8" y1="143.5" x2="90" y2="123.7"/>
	<line fill="#A9A9A9" stroke="#A9A9A9" stroke-miterlimit="10" x1="108.9" y1="142.2" x2="100.4" y2="119.6"/>
	<line fill="#A9A9A9" stroke="#A9A9A9" stroke-miterlimit="10" x1="108.9" y1="142.2" x2="119.7" y2="121.3"/>
	<line fill="#A9A9A9" stroke="#A9A9A9" stroke-miterlimit="10" x1="107.5" y1="142.2" x2="140.2" y2="132.7"/>
	<line fill="#A9A9A9" stroke="#A9A9A9" stroke-miterlimit="10" x1="108.9" y1="142.2" x2="135.5" y2="151.2"/>
	<line fill="#A9A9A9" stroke="#A9A9A9" stroke-width="3" stroke-miterlimit="10" x1="108.9" y1="142.2" x2="121" y2="160"/>
	<line fill="#A9A9A9" stroke="#A9A9A9" stroke-miterlimit="10" x1="108.9" y1="142.2" x2="85.1" y2="149.6"/>
	<line fill="#A9A9A9" stroke="#A9A9A9" stroke-miterlimit="10" x1="108.9" y1="142.2" x2="81.5" y2="131.8"/>
	<path fill="#D3D3D3" d="M91.2,359.6l7-201.7c0,0-2.6-20.9,10.5-20.9s12.2,24.3,12.2,24.3l0,198.2v19.1l-29.7,13h-8.3L91.2,359.6z"
		/>
	<path fill="#212121" d="M41.9,301.9c0,0,7.5-33-1.8-41.8c0,0,72.4,0,117.2-35.6c0,0,68.9,32.9,133.5,16.2c0,0,4.8,29.9,21.5,41.7
		l-12.3,11l-128.6-41.3L41.9,301.9z"/>
	<path fill="#E0E0E0" d="M55.1,305.3l-13.2-3.4c0,0,13.6-10.4,6.6-36.9c0,0,62.8,4.3,111.1-33c0,0,52.7,29,129.5,15.8
		c0,0-0.9,29.9,20.2,39.5l-26.6,16.5l-116.9-25.7l-28.1-7.5L55.1,305.3z"/>
	<line fill="none" stroke="#B2B2B2" stroke-miterlimit="10" x1="288.6" y1="248.4" x2="249.3" y2="288"/>
	<line fill="none" stroke="#B2B2B2" stroke-miterlimit="10" x1="160" y1="232.6" x2="166.2" y2="274"/>
	<line fill="none" stroke="#B2B2B2" stroke-miterlimit="10" x1="49.4" y1="265" x2="91.8" y2="297"/>
	<line fill="none" stroke="#B2B2B2" stroke-miterlimit="10" x1="41.9" y1="301.9" x2="82.9" y2="305.3"/>
	<line fill="none" stroke="#B2B2B2" stroke-miterlimit="10" x1="306.9" y1="286.1" x2="267.8" y2="299.9"/>
	<line fill="none" stroke="#B2B2B2" stroke-miterlimit="10" x1="216.1" y1="248.4" x2="216.1" y2="287.3"/>
	<line fill="none" stroke="#B2B2B2" stroke-miterlimit="10" x1="232.4" y1="250.6" x2="224.1" y2="289.4"/>
	<line fill="none" stroke="#B2B2B2" stroke-miterlimit="10" x1="249.3" y1="250.6" x2="232.4" y2="290.2"/>
	<line fill="none" stroke="#B2B2B2" stroke-miterlimit="10" x1="265.7" y1="250.6" x2="239" y2="289.4"/>
	<line fill="none" stroke="#B2B2B2" stroke-miterlimit="10" x1="173.6" y1="238.1" x2="176.2" y2="273.2"/>
	<line fill="none" stroke="#B2B2B2" stroke-miterlimit="10" x1="185.2" y1="242" x2="185.2" y2="273.2"/>
	<line fill="none" stroke="#B2B2B2" stroke-miterlimit="10" x1="196.4" y1="245" x2="196.4" y2="281"/>
	<line fill="none" stroke="#B2B2B2" stroke-miterlimit="10" x1="206" y1="247.1" x2="206" y2="281"/>
	<line fill="none" stroke="#B2B2B2" stroke-miterlimit="10" x1="291" y1="263" x2="258.3" y2="290.2"/>
	<line fill="none" stroke="#B2B2B2" stroke-miterlimit="10" x1="296.5" y1="274" x2="262.2" y2="294.4"/>
	<line fill="none" stroke="#B2B2B2" stroke-miterlimit="10" x1="48.5" y1="291.7" x2="77.4" y2="300"/>
	<line fill="none" stroke="#B2B2B2" stroke-miterlimit="10" x1="50.5" y1="281" x2="81.5" y2="295.8"/>
	<line fill="none" stroke="#B2B2B2" stroke-miterlimit="10" x1="69.7" y1="265" x2="97.6" y2="290.2"/>
	<line fill="none" stroke="#B2B2B2" stroke-miterlimit="10" x1="150.9" y1="238.1" x2="155.4" y2="273.2"/>
	<line fill="none" stroke="#B2B2B2" stroke-miterlimit="10" x1="138.1" y1="245.9" x2="141.5" y2="277.5"/>
	<line fill="none" stroke="#B2B2B2" stroke-miterlimit="10" x1="85.1" y1="263.4" x2="108.9" y2="289.8"/>
	<line fill="none" stroke="#B2B2B2" stroke-miterlimit="10" x1="100.4" y1="260.2" x2="119.4" y2="287.9"/>
	<line fill="none" stroke="#B2B2B2" stroke-miterlimit="10" x1="112.1" y1="256" x2="127.3" y2="284.8"/>
	<line fill="none" stroke="#B2B2B2" stroke-miterlimit="10" x1="123.6" y1="252" x2="135.8" y2="287.9"/>
	<path fill="#6E6E6E" d="M82.9,322.4l-27.9-17.1c0,0,14-7.9,7-29.9c0,0,43.9,7.9,97.5-23.3c0,0,72.9,17.1,112.4,8.3
		c0,0,4,26,28.1,33l-32.5,19.3L82.9,322.4z"/>
	<rect x="7.4" y="396.4" fill="#212121" width="385.5" height="3.9"/>
	<rect x="18.9" y="392.5" fill="#212121" width="363.3" height="6"/>
	<rect x="46.1" y="386.9" fill="#393939" width="292.9" height="6"/>
	<rect x="77.4" y="381.7" fill="#212121" width="238" height="6"/>
	<polygon fill="#686868" points="267.6,312.7 285.6,381.7 273.7,381.7 258.3,319 	"/>
	<polygon fill="#4F4F4F" points="97.6,333.4 121.6,337.6 169,341.8 228,337.6 254.6,325.8 267.6,315.5 267.6,312.7 254.6,321.2 
		233.5,332.4 174.2,337.6 126.6,335.6 97.6,329.9 	"/>
	<path fill="#686868" d="M118.7,333.8c0,0,4-0.9,7.9,0v47.9h-10.1L118.7,333.8z"/>
	<path fill="#686868" d="M224.1,333.4c0,0,0.9-5.3,8.3-2.7l10.5,51h-9.4L224.1,333.4z"/>
	<polygon fill="#838383" points="82.9,322.4 102,306.6 156.9,293.5 239.9,299.5 267.6,313.6 233.5,333.4 174.2,337.6 126.6,335.6 
		97.8,330 	"/>
	<path fill="#CECECE" d="M82.9,381.3l6.4-78.7c0,0,7.5-1.8,9.2,0c1.8,1.8-4.4,79.1-4.4,79.1L82.9,381.3z"/>
	<polygon fill="#686868" points="118.7,336.5 141.5,305.3 148.5,305.3 126.6,336.5 	"/>
	<polygon fill="#686868" points="223.5,337.1 233.8,333.2 206.8,297 201.1,301.3 	"/>
	<ellipse fill="#686868" cx="173.6" cy="300" rx="37.9" ry="9.8"/>
	<polygon fill="#686868" points="83.6,315.5 78.4,381.7 83.6,381.7 89.4,315.5 	"/>
	<path fill="#929292" d="M77.4,319l-2.6-34.8c0,0,70.8-11.4,85.1-24c0,0,80.5,13.1,105.7,8l6.2,42l-23.7-11.3l-88.7-11.5l-61,15.4
		h-9.2l0.1,12.9h-5.8l-0.7,5.4L77.4,319z"/>
	<polygon fill="#6E6E6E" points="98.8,309.2 159.7,293.7 239,300.4 267.6,312.7 271.9,310.1 239,295.6 159.6,287.3 98.5,302.6 	"/>
	<path fill="#CECECE" d="M257.5,381.7L239,291.8c0,0,4.4-5,9.2,0l21.9,89.9H257.5z"/>
	<path fill="#CECECE" d="M164.8,381.7l-5.3-97.4c0,0,4-3.3,10.1,0l8.8,97.4H164.8z"/>
	<path fill="#E7E7E7" d="M113.8,113.9c0,1.9-1.6,3.5-3.5,3.5l0,0c-1.9,0-3.5-1.6-3.5-3.5v-3.5c0-1.9,1.6-3.5,3.5-3.5l0,0
		c1.9,0,3.5,1.6,3.5,3.5V113.9z"/>
	<path fill="#E7E7E7" d="M122.8,115.4c0,1.5-1.2,2.7-2.7,2.7l0,0c-1.5,0-2.7-1.2-2.7-2.7v-5.2c0-1.5,1.2-2.7,2.7-2.7l0,0
		c1.5,0,2.7,1.2,2.7,2.7V115.4z"/>
	<path fill="#E7E7E7" d="M103.3,115.1c0,1.5-1.2,2.7-2.7,2.7l0,0c-1.5,0-2.7-1.2-2.7-2.7V110c0-1.5,1.2-2.7,2.7-2.7l0,0
		c1.5,0,2.7,1.2,2.7,2.7V115.1z"/>
	<path fill="#E7E7E7" d="M95.2,116.6c0,1.1-0.9,2-2,2l0,0c-1.1,0-2-0.9-2-2v-2.4c0-1.1,0.9-2,2-2l0,0c1.1,0,2,0.9,2,2V116.6z"/>
	<path fill="#E7E7E7" d="M88.8,120c0,0.8-0.6,1.4-1.4,1.4l0,0c-0.8,0-1.4-0.6-1.4-1.4V118c0-0.8,0.6-1.4,1.4-1.4l0,0
		c0.8,0,1.4,0.6,1.4,1.4V120z"/>
	<path fill="#E7E7E7" d="M84.9,124c0,0.5-0.4,1-1,1l0,0c-0.5,0-1-0.4-1-1v-2.4c0-0.5,0.4-1,1-1l0,0c0.5,0,1,0.4,1,1V124z"/>
	<path fill="#E7E7E7" d="M130,117.5c0,1.1-0.9,2.1-2.1,2.1l0,0c-1.1,0-2.1-0.9-2.1-2.1v-3.3c0-1.1,0.9-2.1,2.1-2.1l0,0
		c1.1,0,2.1,0.9,2.1,2.1V117.5z"/>
	<path fill="#E7E7E7" d="M135.5,120.5c0,0.8-0.6,1.4-1.4,1.4l0,0c-0.8,0-1.4-0.6-1.4-1.4v-1.9c0-0.8,0.6-1.4,1.4-1.4l0,0
		c0.8,0,1.4,0.6,1.4,1.4V120.5z"/>
	<path fill="#E7E7E7" d="M139.1,124.9c0,0.5-0.4,1-1,1l0,0c-0.5,0-1-0.4-1-1v-2.4c0-0.5,0.4-1,1-1l0,0c0.5,0,1,0.4,1,1V124.9z"/>
	<rect x="108.9" y="86" fill="#BEBEBE" width="4.9" height="9.4"/>
	<rect x="103.3" y="87.3" fill="#BEBEBE" width="3.4" height="8.1"/>
	<rect x="98" y="89.7" fill="#BEBEBE" width="3.4" height="6.8"/>
	<rect x="94" y="92.3" fill="#BEBEBE" width="2" height="5"/>
	<rect x="90" y="95.4" fill="#BEBEBE" width="2.3" height="3.3"/>
	<rect x="116.1" y="87.3" fill="#BEBEBE" width="3.4" height="8.1"/>
	<rect x="121.1" y="89.7" fill="#BEBEBE" width="3.4" height="6.8"/>
	<rect x="126.9" y="94" fill="#BEBEBE" width="2" height="5"/>
	<rect x="130" y="97.3" fill="#BEBEBE" width="2.3" height="3.3"/>
	<rect x="105.5" y="68.3" fill="#F2F2F2" width="5.2" height="4"/>
	<rect x="113.9" y="68.3" fill="#F2F2F2" width="5.2" height="4"/>
	<rect x="105.5" y="49.4" fill="#F2F2F2" width="5.2" height="4"/>
	<rect x="113.9" y="55.8" fill="#F2F2F2" width="5.2" height="4"/>
	<rect x="105.5" y="55.8" fill="#F2F2F2" width="5.2" height="4"/>
	<rect x="113.5" y="62" fill="#F2F2F2" width="5.2" height="4"/>
	<rect x="105.5" y="62" fill="#F2F2F2" width="5.2" height="4"/>
	<rect x="113.5" y="43" fill="#F2F2F2" width="5.2" height="4"/>
	<rect x="105.5" y="43" fill="#F2F2F2" width="5.2" height="4"/>
	<rect x="113.9" y="49.4" fill="#F2F2F2" width="5.2" height="4"/>
</g>
</svg>
