<?xml version="1.0" encoding="utf-8"?>
<!-- Generator: Adobe Illustrator 18.0.0, SVG Export Plug-In . SVG Version: 6.00 Build 0)  -->
<!DOCTYPE svg PUBLIC "-//W3C//DTD SVG 1.1//EN" "http://www.w3.org/Graphics/SVG/1.1/DTD/svg11.dtd">
<svg version="1.1" id="Layer_1" xmlns="http://www.w3.org/2000/svg" xmlns:xlink="http://www.w3.org/1999/xlink" x="0px" y="0px"
	 viewBox="0 0 400 400" enable-background="new 0 0 400 400" xml:space="preserve">
<g>
	<path fill="#EBE6E1" d="M123.4,117.7c0,0,11.1-56,78.1-59.2s78.9,67,78.9,67L123.4,117.7z"/>
	<path fill="#C6C6C7" d="M118.8,161.5c0,0-2.3-34.1,4.7-48.9c7-14.8,121.4-42.4,157.2,9.2c0,0,7,15.7,3.1,39.7l-50.8-20.3
		l-66.9,11.4L134.7,165h-14.9L118.8,161.5z"/>
	<polygon fill="#898E94" points="54.7,302 54.7,299.2 57.7,299.2 70.2,165.2 93.4,155 93.4,169.3 158.4,142.5 158.4,125.8 
		197.7,106.8 197.7,302 	"/>
	<polygon fill="#EEE9E5" points="197.9,106.8 249.7,130 249.7,149.7 308.7,169.9 308.7,156.8 328.4,164.6 343.9,297.5 197.9,297.5 	
		"/>
	<polygon fill="#728088" points="93.3,170.3 117.7,160.1 93.3,155 	"/>
	<polygon fill="#B9ADA5" points="283.6,160.4 308.8,172.2 308.8,157.7 	"/>
	<path fill="#AA998A" d="M249.5,149.3v-16.2c0,0,6.5-7.9,10.5,2.1v17.7L249.5,149.3z"/>
	<path fill="#AA998A" d="M262.2,153.7v-17.8c0,0,6.1-4.4,8.3,4.1v16.5L262.2,153.7z"/>
	<path fill="#AA998A" d="M272.3,155.9V140c0,0,5.9-3,5.6,7.9l0,11.1l-5.6-1.9V155.9z"/>
	<path fill="#525559" d="M141.9,149.7l8.8-4.1v-12.3c0,0-1.6-9-8.8-1.7V149.7z"/>
	<path fill="#525559" d="M139.1,149.7l-6.9,4.7v-16.3c0,0-0.9-7.7,6.9-4.9V149.7z"/>
	<path fill="#525559" d="M129,154.4l-5.5,2.4c0,0-1.4-25.1,5.5-18.7V154.4z"/>
	<path fill="#7C473E" d="M268.4,297.9h24.3c-0.6-11-5.1-81-13.9-92.4C269.2,217.6,268.4,297.9,268.4,297.9z"/>
	<path fill="#2E1413" d="M279.9,204.9c-0.5,0-0.8,0.3-0.8,0.3c-0.1,0.1-0.2,0.2-0.3,0.4c8.8,11.4,13.3,81.4,13.9,92.4h2.4
		C294.2,281.6,290.2,221,279.9,204.9z"/>
	<path fill="#856C66" d="M303.9,297.9c-11.1-87.3-21.1-93.3-23.9-93.1c10.3,16.2,14.3,76.7,15.2,93.1H303.9z"/>
	<path fill="#15100D" d="M269.9,258.8c0,0,5.1,17,4.6,22.7c-0.5,5.7,1.4-21.3,5.5-20.2c4,1.1,4.3,20.9,4,17.2s3.6-16.6,5.9-16.5
		c2.4,0.1,2.8,35.9,2.8,35.9h-24.3L269.9,258.8z"/>
	<path fill="#100D0D" d="M122.5,206.2c-7.9,8.1-17.4,85.4-18.6,95.9h28.8C132.7,302,134.9,224.4,122.5,206.2z"/>
	<path fill="#46423A" d="M122.5,206.2c-0.1-0.1-0.1-0.2-0.2-0.2c0,0-9.4-11.8-21.1,96.1h2.7C105.1,291.6,114.6,214.2,122.5,206.2z"
		/>
	<polygon fill="#EDDCD1" points="197.9,297.5 197.7,302 363.9,302 363.9,297.9 	"/>
	<rect x="38.2" y="302" fill="#55565E" width="159.5" height="3.6"/>
	<polygon fill="#4C4D4E" points="197.7,305.6 197.7,315.5 -0.8,315.5 22.1,305.6 	"/>
	<rect x="197.7" y="302" fill="#E7D7CA" width="186" height="3.6"/>
	<polygon fill="#ECDED0" points="197.7,315.5 197.7,305.6 383.7,305.6 397.9,315.5 	"/>
</g>
</svg>
