<?xml version="1.0" encoding="utf-8"?>
<!-- Generator: Adobe Illustrator 18.0.0, SVG Export Plug-In . SVG Version: 6.00 Build 0)  -->
<!DOCTYPE svg PUBLIC "-//W3C//DTD SVG 1.1//EN" "http://www.w3.org/Graphics/SVG/1.1/DTD/svg11.dtd">
<svg version="1.1" id="Layer_1" xmlns="http://www.w3.org/2000/svg" xmlns:xlink="http://www.w3.org/1999/xlink" x="0px" y="0px"
	 viewBox="0 0 400 400" enable-background="new 0 0 400 400" xml:space="preserve">
<g>
	<path fill="#B6E4E4" d="M244.7,281.8c0,0-1.2-41.7-1.4-52.1c-0.3-10.4-5.8-40.7-5.8-40.7l1-1.4l-0.6-45.1c0,0-9.6-24.2-19.7-27
		s-26.6-7.9-26.6-7.9l-1.1-0.1v-6.7l-0.7-2.3l-3.6-5c0,0-4.3-6.4-5.7-6.8s-6.7,14-6.7,14s0.4,17.4,0.7,18.4s-0.2,6.7,0.3,8.7
		s-0.3,9,1.6,14.9c0,0,0.7,6.9,5.1,11.4c0,0-12.1,10.3-0.6,52.5c0,0,3.4,7.6,1.7,10.5c0,0-11.3,7.7-7.4,52.7c0,0-4.7,3.7-3.9,9.1
		c0,0-3.2,4.1-5.1,2.8L244.7,281.8z"/>
	<rect x="159.1" y="315" fill="#B6E4E4" width="100.5" height="10.9"/>
	<path fill="#019B8D" d="M259.4,320.8c0,24.6,0,49,0,73.7c-33.4,0-66.9,0-100.9,0c0-24.4,0-49,0-73.7
		C191.9,320.8,225.6,320.8,259.4,320.8z M203.6,347.3c4.9,0,9.4,0,13.9,0c0-7.2,0-14.3,0-21.3c-4.8,0-9.3,0-13.9,0
		C203.6,333.2,203.6,340.2,203.6,347.3z M183.4,325.9c0,7.3,0,14.3,0,21.4c4.7,0,9.2,0,13.9,0c0-7.2,0-14.3,0-21.4
		C192.6,325.9,188.1,325.9,183.4,325.9z M237.7,347.3c0-7.2,0-14.3,0-21.3c-4.6,0-9,0-13.7,0c0,7.2,0,14.2,0,21.3
		C228.5,347.3,233,347.3,237.7,347.3z"/>
	<path fill="#019B8D" d="M186.2,269.3c1.5-0.7,3-1.5,4.7-2.3c0.4,1,0.8,1.7,1.2,2.6c2-2.9,3.8-5.8,5.7-8.6c0.3,0.1,0.5,0.2,0.8,0.3
		c-0.8,3.8-1.6,7.5-2.4,11.3c0.2,0.1,0.5,0.2,0.7,0.3c2-2.3,3-5.2,3.8-8.1c1.5-5.3,4.6-9.5,8.6-13.3c-1.2,3.7-2.4,7.4-3.7,11.1
		c0.4,0.2,0.9,0.4,1.3,0.6c2.4-4.5,4.8-8.9,7.2-13.4c0.3,0.1,0.5,0.2,0.8,0.2c0.4,7.7-3,15.1-2.9,22.9c3.5-1.1,4.9-2.9,4.8-6.1
		c-0.1-4.4-0.6-8.8-0.2-13.1c0.6-5.7,4.6-9.8,10-10.8c-0.2,2.7,0,5.4-0.6,7.9c-1.2,5.5-2.7,11-4.3,16.5c-1.5,5.2-1.3,6.2,3.8,9.9
		c1.4-12.7,2.8-25.1,4.2-37.6c4.7,1.7,6,4.7,5.7,11.8c3.7-1.3,4.2-5.4,7.3-7.6c0.6,12.3-1.9,24.5,0.5,36.8c-0.6,0.1-1.3,0.5-2,0.4
		c-13.4-0.2-26.7-0.4-40.1-0.6c-5.9-0.1-11.9,0.1-17.8,0.2c-0.9,0-1.8,0.4-2.6,1c23.8,0,47.5,0,71.5,0c0,4.7,0,9.1,0,13.8
		c-28.6,0-57.2,0-86,0c0-4.5,0-8.9,0-13.7c2.1,0,4.1,0.1,6-0.1c0.7-0.1,1.8-0.7,1.8-1.2c0.6-5.1,3.9-7.6,8.3-9.3
		c0.8-0.3,1.5-1,2.3-1.5C185.1,269.6,185.7,269.5,186.2,269.3z"/>
	<path fill="#019B8D" d="M219.8,127.4c0.5,3.4,1.1,6.9,1.4,10.3c1.9,19.4-0.5,38.3-7.3,56.5c-5.2,14-14.2,25.6-26.5,34.3
		c-2.1,1.5-4.6,2.5-6.9,3.7c-0.3-0.2-0.6-0.5-0.9-0.7c0.9-2.2,1.3-4.6,2.7-6.4c3.5-4.7,4.3-9.5,1.8-14.7c-1.6-3.2-1.2-6.2,0.8-9
		c0.4-0.6,0.8-1.3,1.4-1.9c9.4-9.4,13.5-21.4,17.5-33.6c3.9-12.1,7.6-24.2,13.4-35.5c0.5-1,1-1.9,1.5-2.9
		C218.9,127.4,219.3,127.4,219.8,127.4z"/>
	<path fill="#019B8D" d="M259.6,300.2c0,5,0,9.8,0,14.8c-33.5,0-66.9,0-100.5,0c0-4.9,0-9.8,0-14.8
		C192.6,300.2,225.9,300.2,259.6,300.2z"/>
	<path fill="#019B8D" d="M197,136c-2.9,2.5-5.8,5-8.6,7.4c-0.3-0.2-0.6-0.4-0.8-0.6c0.2-1,0.2-2.1,0.6-3.1
		c2.1-5.1,4.3-10.2,6.6-15.2c0.7-1.6,1-2.7-0.9-3.8c-1.3-0.8-2.3-2-3.8-3.4c-1.1,2.2-2.1,4.2-3.3,6.5c-1.4-0.6-1.8-2.1-1.4-3.8
		c0.4-1.3,1.2-2.5,1.7-3.7c0.8-1.9,1.4-3.8,1.7-6c-3.7,5-8.6,7.6-14.4,8.8c-0.7-4.4,0.2-6.5,4.2-8.1c3-1.2,4.5-3.1,5-6.2
		c0.6-3.5,1.5-7,2.5-11.4c1.4,2,2.4,3.4,3.6,5c1-0.4,2.2-0.9,3.3-1.4c-0.1-1.6-0.2-3-0.3-4.9c-2.2-0.4-4.5-0.8-7.6-1.4
		c1.1-0.6,1.6-1.2,2.1-1.2c1.2-0.1,2.4-0.2,3.6,0c2.6,0.3,4.7-0.4,6.3-2.9c-2.1-2.9-4.4-6-6.7-9.1c0.1-0.1,0.2-0.3,0.4-0.4
		c1.2,1,2.4,1.9,3.6,2.9c1.3,1,2.8,1.9,3.7,3.2c2.1,2.8,4.6,1.2,7,0.8c0.4-0.1,0.8-1.2,1-1.9c0.8-3.4,1.5-6.9,2.6-10.3
		c0,4,0,8,0,11.7c3,1.9,5.5,1.6,8-0.5c2.1-1.9,4.5-3.4,6.9-5.1c0.7-0.5,1.5-0.9,1.7-1c-2.2,2.4-4.8,5.2-7.4,8.2
		c-0.6,0.8-1.4,2-1.2,2.8c0.4,1.5,1.9,1.3,3.3,1c3.4-0.8,6.9-1.5,10.4-2.2c0.8-0.2,1.6-0.2,2.5,0.2c-4.1,1.6-8.1,3-12.1,4.7
		c-0.8,0.3-1.3,1.2-1.9,1.9c0.8,0.5,1.5,1.2,2.3,1.3c4,0.5,8,0.8,12.1,1.7c-1.6,0.1-3.3,0.3-4.9,0.4c-2.4,0.2-4.8,0.3-7.2,0.4
		c-2.9,0.2-3.5,1-2.8,3.9c0.2,0.8,0.5,1.6,0.7,2.5c-0.3,0-0.5,0-0.8,0c-0.1,1.3-0.8,2.9-0.3,4c2.2,4.9,0.8,8.4-3.3,11.6
		c-4.4,3.3-8.6,6.8-12.7,10.5c-1.6,1.4-2.7,3.4-4,5.2C197.6,135.2,197.3,135.6,197,136z M206.6,106.5c0.6-0.2,1.4-0.4,2.2-0.7
		c-0.7-2.8-1.4-5.5,1.9-7.3c-1.2-0.5-4.3,0.8-4.6,1.6c-0.6,1.3-1.2,2.6-2,4.2c0.6,1.9,1.2,4.3,2.1,6.7c0.3,0.7,1.1,1.1,1.8,1.6
		c0.1,0.1,0.8-0.4,0.8-0.5c-0.2-0.7-0.5-1.4-0.8-2.2c0.1-0.1,0.5-0.3,0.8-0.6C208,108.3,207.4,107.4,206.6,106.5z M190.4,100.7
		c0,2.5,0,4.6,0,6.7c0.4,0,0.7,0.1,1.1,0.1c0.7-2.2,1.3-4.5,2.1-7.1C192.1,100.6,191.2,100.7,190.4,100.7z M208.5,93.9
		c0.5-0.6,0.8-0.9,1.2-1.4c0.6,2.2,0.8,4.2,3.4,4.2c-0.5-1.5-1-2.9-1.5-4.5C208.7,91.3,208.5,91.4,208.5,93.9z"/>
	<path fill="#019B8D" d="M236.6,184.7c1.7,8.6,3.4,17.2,5.1,25.8c2,10.1,2.2,20.2,0.3,30.3c-0.2,1.3-0.9,2.5-1.6,4.5
		c-1.1-1.6-1.7-2.5-2.3-3.5c-2.6-4.2-5.9-7-11.3-5.6c-2.1,0.5-3-0.3-3-2.5c0.1-8.7,0.2-17.4,0-26c-0.2-7.7-0.8-15.5-1.1-23.2
		c-0.3-7.5,0-14.8,3.3-21.7c0.8-1.7,1-3.6,1.5-5.5c0.3-1,0.6-1.9,0.9-2.8c0.2,0,0.5-0.1,0.7-0.1c0.5,1.3,1.2,2.5,1.5,3.9
		c1.9,8.6,3.8,17.1,5.7,25.7C236.4,184.1,236.6,184.4,236.6,184.7L236.6,184.7z"/>
	<path fill="#019B8D" d="M186.2,269.3c-0.5,0.2-1.1,0.4-1.6,0.6c-1.8,0.4-3.6,0.8-6.1,1.3c-0.4-4.2-1.2-8-0.9-11.8
		c0.6-7.3,1.8-14.5,3-21.7c0.2-1.3,1.4-2.7,2.5-3.6c7.1-6,14.6-11.6,21.4-17.9c3.3-3.1,5.3-7.5,7.9-11.3c0.9-1.4,1.8-2.8,2.7-4.2
		c0.3,0.2,0.7,0.3,1,0.5c-0.3,1.3-0.3,2.7-0.8,3.8c-2.9,6.6-5.3,13.5-8.9,19.7c-5,8.6-9,17.4-11.2,27c-1,4.1-2.7,8.2-4.6,12
		C189.7,265.8,187.7,267.4,186.2,269.3z"/>
	<path fill="#019B8D" d="M236.7,184.7c-0.1-2-0.2-3.9-0.3-5.9c-0.8-10-1.6-20.1-2.3-30.1c-0.1-1.1,0-2.2,0.2-3.3
		c0.3-1.9,1.5-3.2,3.6-3c5.6,0.5,11.1,1.5,16,4.4c2.3,1.4,3.7,3.5,4.2,6.2c0.1,0.6,0.3,1.3,1.1,2.1c1.4-2.4,2.7-4.8,4.1-7.2
		c2.5,1.8,3.1,4.8,1.5,6.9c-2.1,2.7-4.3,5.4-6.4,8.1c2,3.1,0.5,6.9-3.2,7.4c-2.9,0.4-4.8,1.8-6.6,4c-2.3,2.9-4.8,5.6-7.2,8.5
		c-1.1,1.4-1.9,2.9-3.1,4.7C237.7,186.4,237.2,185.6,236.7,184.7C236.6,184.7,236.7,184.7,236.7,184.7z"/>
	<path fill="#019B8D" d="M193.2,262.9c0.3-1.1,0.5-2.3,1-3.3c4.1-9.2,8.2-18.4,12.4-27.5c4.8-10.3,9.1-20.8,11.2-32.1
		c0.7-3.5,0.9-7,1.4-10.5c0.1-0.9,0.4-1.8,1.1-2.7c0.2,5.4,0.6,10.7,0.6,16.1c0.1,7.2-0.3,14.5-0.2,21.7c0.1,4.3,0.6,8.6,1.3,12.8
		c0.5,3.4-0.1,5-3.3,6.6c-4.1,2.2-8.2,4.3-12.2,6.7c-4.7,2.8-8.7,6.5-11.6,11.2c-0.3,0.5-0.7,0.8-1.1,1.2
		C193.7,263.2,193.4,263.1,193.2,262.9z"/>
	<path fill="#019B8D" d="M197,136c0.3-0.4,0.6-0.8,0.9-1.2c6.3-4.8,12.5-9.6,18.8-14.4c0.2,0.1,0.4,0.3,0.5,0.4
		c-0.5,1.1-1,2.3-1.6,3.3c-3.8,5.9-7.5,11.8-11.6,17.5c-3.4,4.8-6.1,9.8-7.7,15.4c-0.5,1.9-1.2,3.9-2.3,5.4c-0.7,0.9-2.6,1-4,1.5
		c-0.4-1.3-1.3-2.7-1.1-3.8c0.3-1.9,1.4-3.7,1.8-5.7c-3.2,3.7-4.2,8-3,12.6c0.6,2.3,0.5,4.1-0.9,6c-2.4,3.3-4.6,6.8-7.6,10.2
		c-0.3-1.2-0.8-2.5-0.8-3.7c-0.4-13.7,3.4-25.8,13.4-35.7C193.9,141.7,195.3,138.7,197,136z"/>
	<path fill="#019B8D" d="M212.5,134.9c-0.3,1.4-0.4,2.8-0.9,4.1c-2.7,6.8-5.6,13.5-8.2,20.3c-2.1,5.4-4,10.8-5.8,16.3
		c-2.1,6.2-4.9,11.9-9.2,16.9c-1.4,1.7-2.2,3.9-3.5,5.7c-0.5,0.8-1.5,1.7-2.3,1.7c-0.6,0-1.4-1.3-1.8-2.2
		c-2.3-5.8-1.3-11.2,2.2-16.1c1.2-1.8,2.6-3.4,4.1-5c4.2-4.3,7-9.3,8.8-15c3.2-9.9,9.3-18.2,15.2-26.6c0.1-0.2,0.4-0.3,0.6-0.4
		C212,134.8,212.3,134.8,212.5,134.9z"/>
	<path fill="#019B8D" d="M191.4,120.1c1.1,4.6-2.7,13.8-7.9,19.6c0.9,0.1,1.7,0.2,2.9,0.4c-1.4,4.8-2.7,9.5-4,14.1
		c-0.3,0-0.5-0.1-0.8-0.1c-1-3.4-1.9-6.8-2.8-9.9c1.2-1.1,2.2-1.9,3.1-2.7c-0.1-0.1-0.1-0.2-0.2-0.4c-1.6,0.5-3.3,1-5.2,1.6
		c0.2-3.6,1.6-6.4,3.6-8.9c1.6-2,3.6-3.7,5.2-5.7C187.3,125.6,189.2,122.9,191.4,120.1z"/>
	<path fill="#019B8D" d="M232.1,155c-1-1.5-2-2.9-3-4.4c-0.9,1-1.5,1.6-2.5,2.7c-2-9.9-3.8-19.3-5.8-29.2
		C226.6,127.9,235.1,150.6,232.1,155z"/>
	<path fill="#019B8D" d="M174.8,127.8c-0.8-4,0.1-5.9,3.3-7.7c1-0.5,2-0.9,3-1.5c0.9-0.5,1.6-1.2,2.4-1.8
		C185.9,120.4,181.9,125.6,174.8,127.8z"/>
	<path fill="#B6E4E4" d="M203.6,347.3c0-7.1,0-14.1,0-21.3c4.6,0,9.2,0,13.9,0c0,7,0,14,0,21.3C213,347.3,208.5,347.3,203.6,347.3z"
		/>
	<path fill="#B6E4E4" d="M183.4,325.9c4.7,0,9.2,0,13.9,0c0,7.1,0,14.2,0,21.4c-4.6,0-9.1,0-13.9,0
		C183.4,340.2,183.4,333.1,183.4,325.9z"/>
	<path fill="#B6E4E4" d="M237.7,347.3c-4.7,0-9.2,0-13.7,0c0-7.1,0-14.1,0-21.3c4.7,0,9.2,0,13.7,0
		C237.7,333.1,237.7,340.1,237.7,347.3z"/>
	<path fill="#B6E4E4" d="M206.6,106.5c0.7,1,1.4,1.9,2.1,2.9c-0.3,0.2-0.7,0.5-0.8,0.6c0.3,0.8,0.6,1.4,0.8,2.2
		c0,0.1-0.7,0.6-0.8,0.5c-0.6-0.5-1.5-0.9-1.8-1.6c-0.9-2.3-1.5-4.8-2.1-6.7c0.7-1.5,1.4-2.8,2-4.2c0.4-0.8,3.4-2.2,4.6-1.6
		c-3.3,1.7-2.6,4.5-1.9,7.3C208,106,207.2,106.3,206.6,106.5z"/>
	<path fill="#FFFFFF" d="M190.4,100.7c0.8-0.1,1.6-0.1,3.2-0.3c-0.8,2.6-1.4,4.9-2.1,7.1c-0.4,0-0.7-0.1-1.1-0.1
		C190.4,105.3,190.4,103.2,190.4,100.7z"/>
	<path fill="#B6E4E4" d="M208.5,93.9c0-2.6,0.2-2.6,3-1.7c0.5,1.6,1,3,1.5,4.5c-2.5,0.1-2.8-2-3.4-4.2C209.3,93,209,93.4,208.5,93.9
		z"/>
	<path fill="#FFFFFF" d="M176,25.7c0.2-0.8,0.5-1.9,0.6-1.9c1.5,0.2,2.9,0.6,4.4,0.9c0,0.3-0.1,0.7-0.1,1
		C179.4,25.7,177.9,25.7,176,25.7z"/>
	<path fill="#FFFFFF" d="M162.9,24.6c1.8-0.4,3.6-0.7,5.4-1.1C168.2,25.3,166.9,25.7,162.9,24.6z"/>
	<polygon fill="#B6E4E4" points="159.1,300.2 166.2,295.5 252.2,295.5 259.6,300.2 	"/>
	<path fill="none" d="M168.3,23.5c-1.2,0.2-2.3,0.5-3.4,0.7c0.8,0.3,1.7,0.6,2.6,0.8C168,24.7,168.3,24.2,168.3,23.5z"/>
	<path fill="none" d="M176.6,23.8c-0.1,0-0.4,1.1-0.6,1.9c1.1,0,2.1,0,3,0c0.6-0.1,1.3-0.2,1.9-0.3c0-0.2,0.1-0.5,0.1-0.7
		C179.5,24.4,178.1,24,176.6,23.8z"/>
	<path fill="none" d="M162.9,24.6c2.3,0.6,3.8,0.7,4.6,0.4c-0.9-0.2-1.8-0.5-2.6-0.8C164.2,24.3,163.5,24.5,162.9,24.6z"/>
	<path fill="none" d="M180.9,25.7c0-0.1,0-0.2,0-0.3c-0.6,0.1-1.3,0.2-1.9,0.3C179.6,25.7,180.2,25.7,180.9,25.7z"/>
	<path fill="#019B8D" d="M186.5,31.6c-2-1-3.2-1.6-4.4-2.2c0.2-1.5,0.3-3.2-0.3-4.2c-0.3,0.1-0.7,0.1-1,0.2c0,0.1,0,0.2,0,0.3
		c-0.6,0-1.2,0-1.9,0c-4.5,0.5-8.4,0.1-11.6-0.7c-0.8,0.4-2.2,0.2-4.6-0.4c0.7-0.1,1.3-0.3,2-0.4c-0.4-0.2-0.8-0.3-1.2-0.5
		c-0.2,0.1-0.4,0.2-0.5,0.3c-0.8,0.5-1,2.1-1.5,3.2c0.9,0.3,1.8,0.6,2.7,0.8c0.6,0.1,1.3,0,2-0.1c1-0.1,1.9-0.2,3-0.4
		c1.1,0.3,2.3,0.6,4,1.1c-3.5,0.9-6.8,1.6-10,2.6c-0.8,0.2-1.8,1-1.9,1.7c-0.1,0.6,0.7,1.6,1.3,2.1c0.8,0.5,1.8,0.7,2.4,0.9
		c0.6,2,1.1,3.8,1.7,5.7c0.4-0.1,0.8-0.3,1.2-0.4c-0.4-1-0.7-2.1-1.1-3.1c1.8-2,4-2.3,6.2-0.9c-1,0.3-2,0.6-3.6,1
		c4.4,0.6,1.5,3.6,2.6,4.9c-1.7,0.3-3.4,0.5-5,0.8c0,0.3,0.1,0.6,0.1,0.9c1.6,0,3.1,0,4.7,0c-2.4,0.8-1.5,1.9-0.4,3.1
		c-1.5,0.1-2.7,0.3-3.9,0.4c0,0.1,0.1,0.2,0.1,0.3c1.8,0.3,3.5,0.7,5.3,1c0,0.2-0.1,0.4-0.1,0.5c-1.7,0.2-3.4,0.5-4.9,0.7
		c1.5,0.6,3.5,0.7,3.9,1.6c0.7,1.4,0.5,3.4,0.3,5.1c-0.1,0.9-0.9,1.7-1.4,2.6c0.3,0.4,1.3,1,1.2,1.5c-0.1,1.9-0.6,3.7-0.9,5.5
		c0.3,0,0.5-0.1,0.8-0.1c0.1,1.1,0.6,2.3,0.3,3.3c-2,7.2-2.8,14.4-0.2,21.6c1,2.9,1.8,5.7,1.7,8.8c-0.1,1.3,0.4,2.8,1.1,3.9
		c0.5,0.8,1.7,1.3,2.5,1.9c0.5-0.8,1.2-1.5,1.5-2.4c2.3-9.1,2.2-18.2,0.4-27.4c-1.5-7.5-2.3-15.1-0.6-22.8c0.6-2.8,0.1-6.3-1-9.1
		c-0.8-2.2-2.7-3.9-0.5-6.3c0.3-0.3-0.2-1.2-0.3-1.9c0.2,0.2,0.3,0.4,0.5,0.6C180.2,35.5,183.1,33.7,186.5,31.6z"/>
	<path fill="#FEC300" d="M168.3,23.5c0,0.7-0.3,1.2-0.9,1.5c3.2,0.8,7.1,1.2,11.6,0.7c-0.9,0-1.9,0-3,0c0.2-0.8,0.5-1.9,0.6-1.9
		c1.5,0.2,2.9,0.6,4.4,0.9c0,0.2-0.1,0.5-0.1,0.7c0.3-0.1,0.7-0.1,1-0.2c-0.1-0.2-0.2-0.3-0.3-0.5c-1.2-1.2-3.2-1.6-4.9-2.3
		c0.6-1.3,1.4-2.5,1.9-3.9c0.3-1.1,0.4-2.3,0.2-3.4c-0.5-2.2-1.3-4.3-1.9-6.5c-0.7-2.5-1.4-5-2.1-7.7c-1.8,5.1-3.4,9.8-5.1,14.5
		c1,0.1,2,0.1,3,0.2c-0.7,3.2-1.3,3.6-3.5,2.3c-2.8,1.1-1.5,3-0.9,4.6c-1.6,0.4-3.2,0.5-4.6,1.1c0.4,0.2,0.8,0.3,1.2,0.5
		C166,24,167.1,23.7,168.3,23.5z"/>
</g>
</svg>
