<?xml version="1.0" encoding="utf-8"?>
<!-- Generator: Adobe Illustrator 18.0.0, SVG Export Plug-In . SVG Version: 6.00 Build 0)  -->
<!DOCTYPE svg PUBLIC "-//W3C//DTD SVG 1.1//EN" "http://www.w3.org/Graphics/SVG/1.1/DTD/svg11.dtd">
<svg version="1.1" id="Layer_1" xmlns="http://www.w3.org/2000/svg" xmlns:xlink="http://www.w3.org/1999/xlink" x="0px" y="0px"
	 viewBox="0 0 400 400" enable-background="new 0 0 400 400" xml:space="preserve">
<g>
	<polygon fill="#E97400" points="204.2,321.1 200.5,221.9 215,227.9 219.3,321.1 	"/>
	<polygon fill="#19539C" points="214.6,221.9 215.6,319.7 237.9,325.8 235.7,237.6 	"/>
	<polygon fill="#D6210E" points="166.5,321.1 191.1,321.1 191.1,215.4 166.5,204.2 	"/>
	<path fill="#069B3F" d="M156,265.9c0.1,0.7,0,1.5,0,2.2c-0.1,3.2-0.2,6.3-0.4,9.5c-0.1,3.1-0.3,6.2-0.4,9.3
		c-0.1,2.7-0.2,5.5-0.4,8.2c-0.1,2.7-0.3,5.5-0.4,8.2c-0.1,2.5-0.2,5-0.4,7.5c-0.2,2.1-0.1,4.3-0.5,6.4c-0.3,1.2-0.6,2.4-1.9,3
		c0.2-1.1,0.3-2.3,0.4-3.4c0.2-1.9,0.2-3.8,0.5-5.8c0.1-0.8,0.1-1.7,0.2-2.6c0.1-1.2,0.2-2.5,0.3-3.7c0.1-1.3,0.1-2.5,0.3-3.8
		c0-0.1,0-0.3,0-0.4c-0.1-1.3,0.2-2.7,0.2-4c0.1-1.8,0.3-3.5,0.4-5.3c0.1-1.7,0.3-3.5,0.4-5.2c0.1-1.9,0.3-3.8,0.4-5.7
		c0.1-1.8,0.3-3.6,0.4-5.4c0.1-2,0.3-3.9,0.4-5.9c0.1-0.9,0.1-1.8,0.2-2.7C155.7,266.2,155.6,265.9,156,265.9z"/>
	<path fill="#E6E7E8" d="M156,262.8c0.1,0.1,0.1,0.3,0,0.4C155.8,263,155.8,262.9,156,262.8z"/>
	<path fill="#FEC300" d="M187.6,63.3c-0.4-1.3-1.1-2.5-1.7-3.7c-1.1-2.2-2.1-4.5-3.2-6.7c-1-2.1-0.7-3.1,1.4-4
		c2.5-1.1,3.6-3,3.8-5.6c0.2-1.6,0.1-3.2,0.3-4.7c0-0.2-0.1-0.5,0.1-0.7c0.1,0,0.2,0.1,0.2,0.1c0.8,2,2.1,3.7,3.4,5.4
		c0.8,1,1.5,2.1,2,3.4c0.2,0.4,0.3,0.8,0.6,1.1c0.6,0.9,1.6,1.4,2.7,1.2c0.6-0.1,1-0.5,1.3-1.1c0.5-1,0.9-2,1.4-3
		c0.5-1.2,1.1-2.4,1.8-3.4c0.3-0.4,0.7-0.8,1.1-1.2c0.3-0.3,0.5-0.2,0.6,0.1c0.2,0.6,0.5,1.2,0.4,1.8c-0.1,1.5,0.1,2.9,0.2,4.4
		c0.1,0.8,0.3,1.4,1,1.8c1.8,1.2,3,2.9,3.2,5.1c0.1,1.2-0.2,2.3-0.4,3.5c-0.4,1.6-0.9,3.2-1.1,4.9c0,0.3-0.1,0.5-0.1,0.8
		c0,0.9-0.1,1.8-0.2,2.8c1.2-0.7,1.8-1.6,2.1-2.8c0.4-1.3,0.4-2.6,0.4-4c0-2,0.5-3.8,1-5.7c0.3-1.2,1.4-1.7,2.5-1.3
		c0.6,0.2,0.9,0.6,0.9,1.2c0,0.7-0.2,1.4-0.3,2.1c-0.1,0.6-0.1,1.1,0,1.7c0.6,4,1.4,7.9,1.8,11.9c0.3,2.7,0.4,5.4,0.1,8.2
		c-0.1,1.5-0.1,3.1-0.1,4.7c0,0.8-0.1,1.5-0.4,2.2c-0.2,0.6-0.5,1.2-1.1,1.7c-0.7,0.6-1.4,0.7-2.3,0.3c-0.4-0.2-0.8-0.6-1.1-0.9
		c-1.8-1.6-3.8-2.6-6.3-2.6c-1.5,0-3,0.1-4.4,0.5c-0.2,0-0.4,0.1-0.6,0c0.3-0.7,0.8-1.1,1.2-1.7c1.3-1.5,2.9-2.7,4.6-3.9
		c1.3-0.9,2.6-1.8,3.8-2.9c0.2-0.1,0.4-0.2,0.4-0.6c-0.4-0.1-0.7,0-1.1,0.1c-2.6,0.6-5,1.8-7.2,3.2c-1.1,0.7-2.2,1.5-3.3,2.2
		c-1.6,1-3.4,1.4-5.3,0.8c-2.4-0.7-4.7-0.4-7.1,0.1c-1.6,0.3-3.1,0.9-4.6,1.1c-3.3,0.5-6.4,0.1-9.4-1.1c-4-1.7-8-3.7-11.8-5.8
		c-4.8-2.6-9.3-5.8-13.8-8.9c-6-4.1-12.5-7.3-19.5-9.3c-0.2-0.1-0.3-0.1-0.5-0.2c0-0.3,0.3-0.4,0.4-0.5c3.4-1.6,7-2.5,10.8-2.1
		c2.6,0.2,5,1,7.4,2.2c3.4,1.7,6.8,3.6,10.2,5.3c4.7,2.3,9.5,4.4,14.5,6c1,0.3,2.1,0.7,3.1,0.9c1.6,0.3,2.8,1.2,4,2.1
		c2.9,2.3,6,4.1,9.6,5.1c2,0.5,4,0.5,5.9,0.2c0.1,0,0.2-0.1,0.3-0.2c-0.5-0.4-1.1-0.3-1.6-0.3c-4.9-0.8-9.1-2.8-13.1-5.7
		c-3.2-2.3-6-5.1-8.8-7.9c-1.8-1.8-3.6-3.7-5.3-5.6c-0.2-0.2-0.3-0.4-0.6-0.5c-0.1,0.4,0.1,0.6,0.2,0.9c0.6,1.5,1.6,2.7,2.6,4
		c1.2,1.5,2.6,2.9,3.6,4.5c0.1,0.2,0.2,0.3,0.3,0.5c-2.6,0-21.1-8.4-25.3-11.4c0-0.3,0.3-0.3,0.5-0.3c3.5-1.1,7.1-1.9,10.8-2.3
		c2.5-0.3,4.9-0.3,7.4-0.4c2.5-0.1,4.9-0.2,7.4-0.5c2.2-0.2,4.4-0.7,6.6-0.7c1.9,0,3.1,0.8,4,2.4c0.4,0.7,0.6,1.5,0.9,2.2
		c1,2.7,2.2,5.2,4,7.4C185.9,62,186.5,62.8,187.6,63.3c0,0.1,0,0.2,0.1,0.1C187.7,63.4,187.6,63.3,187.6,63.3z"/>
	<path fill="#D6210E" d="M105.5,86.5c-2.1-0.1-4.4-0.2-6.6-0.9c-3-0.9-5.4-2.7-7.3-5.1c-2.8-3.6-5.8-7-8.4-10.7
		c-2.6-3.6-4.9-7.3-6.9-11.2c-0.4-0.8-0.7-1.6-0.9-2.4c-0.1-0.5,0-0.6,0.5-0.5c1.3,0.3,2.7,0.6,4,0.8c1.4,0.2,2.8,0.4,4.3,0.5
		c4.8,0.4,9.6,0.1,14.4,0.2c1.2,0,2.4,0.1,3.6,0.1c0.7,0,1.3,0.4,1.7,0.9c1.2,1.2,2.3,2.4,3.5,3.5c4.6,4.6,9.7,8.8,15.2,12.5
		c4.7,3.2,9.5,6,14.5,8.6c2.8,1.5,5.7,2.9,8.6,4.2c1,0.5,2.1,0.8,3.2,1.2c0.2,0.1,0.5,0.2,0.7,0.3c1.5,0.8,1.9,1.9,1.4,3.5
		c-0.2,0.8-0.6,1.5-1.1,2.1c-0.7,0.9-1.6,1.3-2.8,1c-0.7-0.2-1.3-0.4-2-0.7c-6.5-3.1-12.9-6.1-19.4-9.2c-6-2.9-11.9-6-17.6-9.3
		c-4.3-2.5-8.5-5-12.5-7.8c-2.7-1.9-5.4-3.8-8-5.8c-0.5-0.4-1-0.6-1.5-0.9c-0.5-0.2-0.7-0.1-1,0.3c-0.3,0.4,0,0.6,0.3,0.7
		c8.2,6.6,16.5,13.1,25.2,19.1c1.4,1,2.7,2,4.1,2.9c0.4,0.3,0.4,0.6,0.3,1c-0.1,0.4-0.2,0.7-0.7,0.7
		C111.3,86.3,108.5,86.4,105.5,86.5z"/>
	<path fill="#F29D02" d="M189.2,318.9c-1.4-0.3-2.6-0.7-3.8-0.8c-2.5-0.3-4.9-0.4-7.4-0.2c-1.6,0.1-3.2,0.3-4.8,0.4
		c-1.4,0.1-2.8,0.4-4.3,0.4c-2,0-2.4-0.4-2.4-2.4c0-2.6,0.2-5.3,0.4-7.9c0.1-1.7,0-3.5,0.1-5.2c0.3-9.7,0.1-19.5,0.2-29.2
		c0-3.4,0.1-6.9,0.2-10.3c0.2-3.8,0.2-7.6,0.4-11.3c0.2-4.2,0-8.3,0.2-12.5c0.2-7,0.1-13.9,0.2-20.9c0-3.1,0.1-6.3,0.2-9.4
		c0-0.8,0.2-1.4,0.6-2.1c0.2-0.4,0.5-0.4,0.8-0.2c0.5,0.3,0.7,0.8,0.7,1.4c0,1.1-0.2,2.1-0.2,3.2c0,1.8,0,3.6-0.1,5.4
		c-0.2,3,0,6-0.2,9.1c-0.1,2.5,0,5-0.2,7.4c-0.2,3-0.1,6.1-0.2,9.2c-0.1,2.7,0,5.4-0.2,8.1c-0.2,2.8,0,5.7-0.2,8.5
		c-0.1,2.7,0,5.3-0.2,8c-0.2,2.9,0,5.7-0.2,8.6c-0.1,2.7,0,5.5-0.2,8.2c-0.2,2.9,0,5.7-0.2,8.6c-0.2,2.8,0,5.7-0.2,8.5
		c-0.2,3-0.1,5.9-0.2,8.9c0,1.1-0.2,2.2-0.3,3.2c-0.1,0.8-0.1,1.5,0.2,2.3c0.3,1,1.1,1.5,2.2,1.5c1,0,1.5-0.5,1.8-1.5
		c0.2-0.6,0.2-1.1,0.2-1.7c-0.1-2.7,0.1-5.5,0.3-8.2c0.1-1.2,0.1-2.4,0.2-3.6c0.1-1.9,0.2-3.9,0.3-5.8c0.2-3.8,0.3-7.6,0.4-11.3
		c0.1-2.4,0-4.8,0.2-7.2c0.1-2.8,0.1-5.6,0.2-8.4c0.1-2.3,0-4.6,0.2-6.9c0.2-2.4,0-4.8,0.2-7.2c0.2-2.4,0-4.7,0.2-7.1
		c0.2-3.2,0-6.4,0.2-9.5c0.1-2.6,0.1-5.2,0.1-7.8c0-6.3,0-12.7,0-19c0-0.9,0-1.7,0.5-2.6c0.6,0.4,0.9,1.1,0.9,1.7c0,2,0,3.9-0.1,5.9
		c-0.1,1.3-0.1,2.6-0.1,3.9c-0.1,3.5-0.1,6.9-0.2,10.4c-0.1,2.5,0,5-0.2,7.5c-0.2,2.4,0,4.9-0.2,7.3c-0.2,2.5,0,5-0.2,7.5
		c-0.2,2.4,0,4.9-0.2,7.3c-0.2,2.6,0,5.3-0.2,7.9c-0.2,2.6,0,5.2-0.2,7.8c-0.2,3.1,0,6.1-0.2,9.2c-0.2,4,0,8-0.2,11.9
		c-0.2,4.1-0.1,8.2-0.2,12.3c0,0.9-0.1,1.8-0.1,2.8c0,0.5,0.1,0.9,0.1,1.4c0.1,1.6,2,2.2,3.2,1.6c0.6-0.3,0.9-0.8,1-1.4
		c0.1-0.5,0.2-0.9,0.2-1.4c0.1-1.8,0.1-3.6,0.2-5.4c0.3-4.3,0.3-8.6,0.4-12.9c0.1-3.9,0-7.8,0.2-11.6c0.2-5.2,0.1-10.4,0.2-15.5
		c0.1-4.6,0-9.2,0.2-13.7c0.2-5,0-10.1,0.2-15.1c0.2-4.7,0-9.4,0.2-14.1c0.1-3.2,0-6.4,0.2-9.6c0-1.2,0.1-2.4,0.4-3.7
		c0.7,0.8,1,1.7,1.1,2.7c0.1,1,0,2,0,3c0,29.6,0,59.3,0,88.9c0,1.4,0,2.8,0,4.2c0,0.8-0.2,1.6-0.2,2.5c0,0.2,0,0.4,0,0.7
		c0,1.5,0.7,2.3,2,2.4c1.4,0.1,2.4-0.8,2.6-2.2c0.1-0.8,0.1-1.6,0.1-2.5c-0.1-1.3-0.1-2.5,0-3.8c0.2-7.1,0.1-14.2,0.2-21.3
		c0.1-7.2,0.1-14.4,0.1-21.7c0-15,0-29.9,0-44.9c0-1-0.1-1.9,0.1-2.9c0.1-0.5,0.3-1,0.6-1.6c1.1,0.8,1.5,1.8,1.6,2.9
		c0.1,0.7,0,1.4,0,2.1c0,17.2,0,34.5,0,51.7c0,10.2,0,20.5,0,30.7c0,4,0.2,8,0.5,12C189.1,315.9,189.1,317.3,189.2,318.9z"/>
	<path fill="#E35E03" d="M162.9,88.5c-0.1,2.3-0.3,4.5-0.5,6.7c-0.2,1.8-0.3,3.5-0.4,5.3c-0.2,2.7-0.5,5.4-0.7,8.2
		c-0.1,1.7-0.3,3.4-0.4,5c-0.2,2.4-0.5,4.9-0.7,7.3c-0.2,2-0.4,3.9-0.6,5.9c-0.3,2.4-0.6,4.7-0.9,7.1c-0.3,2.3-0.7,4.6-1,7
		c-0.1,0.7,0,1.5,0,2.3c0,0.9-0.1,1.8-0.3,2.7c-0.3,1.3-1.2,2-2.5,2.2c-0.9,0.1-1.7,0.1-2.5-0.2c-1.2-0.4-1.8-1.4-1.6-2.7
		c0.1-0.7,0.2-1.4,0.3-2.2c0.1-0.7,0-1.3-0.1-2c-0.1-1,0-2,0.1-3c0.1-1.2,0.2-2.4,0.3-3.6c0.2-2.7,0.3-5.4,0.5-8.1
		c0.2-2.6,0.3-5.2,0.4-7.8c0.2-3.5,0.3-7,0.4-10.5c0.3-6.6,0.1-13.2,0.2-19.8c0-1.6,0-3.2,0-4.9c0-0.5,0-1.1,0.2-1.6
		c0.3-1,0.9-1.3,1.9-1.1c1,0.2,2,0.8,2.9,1.2c0.9,0.4,1.9,1,2.8,1.4c1.8,0.9,2.8,2.4,2.6,4.5C162.9,88.1,162.9,88.3,162.9,88.5z"/>
	<path fill="#E35E03" d="M169.6,111.5c0,6.3,0,12.6,0,18.9c0,1.8,0.2,3.7,0.3,5.5c0.1,1.9,0.3,3.8,0.3,5.7c0,0.7,0.1,1.4,0.1,2.1
		c0,3.2-0.1,6.4-0.5,9.5c-0.1,0.5-0.2,1.1-0.4,1.6c-0.3,0.9-0.8,1.2-1.8,1.1c-0.2,0-0.5,0-0.7-0.1c-2-0.9-4.1-1.1-6.2-1.6
		c-0.5-0.1-1-0.3-1.5-0.5c-1-0.4-1.6-1.2-1.6-2.4c0-1.1,0.2-2.1,0.4-3.2c0.7-4,1.4-7.9,1.9-11.9c0.5-3.8,1-7.6,1.3-11.3
		c0.3-3.3,0.7-6.6,1-9.9c0.3-3.6,0.6-7.1,1-10.7c0.3-3.3,0.6-6.5,0.8-9.8c0.1-2.3,0.4-4.5,0.4-6.8c0-1.4,1.1-2,2.3-1.3
		c1.5,0.9,2.7,2.1,2.7,4.1c0,0.4,0,0.8,0,1.1C169.6,98.3,169.6,104.9,169.6,111.5z"/>
	<path fill="#E97400" d="M198.4,253.6c0,10.3,0,20.7,0,31c0,1.2,0.1,2.3,0.2,3.5c0.3,3.4,0.5,6.9,0.6,10.4c0.1,3.7,0.2,7.3,0.4,11
		c0.1,2.4,0.4,4.7,0.7,7.1c0.3,2.6-0.9,3.7-3.6,3.4c-1.4-0.1-2-0.8-2.2-2.2c-0.1-0.4-0.1-0.8,0-1.1c0.2-2.6,0.3-5.2,0.5-7.8
		c0-0.5,0-1,0-1.5c0.1-2.6,0.1-5.1,0.3-7.7c0.1-3,0.1-5.9,0.2-8.9c0.3-7.3,0.1-14.6,0.1-21.9c0-2.2,0-4.5,0-6.7
		c-0.3-11.8-0.1-23.6-0.2-35.4c0-1.7,0.1-3.5-0.3-5.2c-0.1-0.2,0-0.5,0-0.8c0.1-1.1,0.6-1.6,1.5-1.6c1.1,0,1.7,0.4,1.9,1.5
		c0.1,0.4,0,0.8,0,1.2c0,9,0,18.1,0,27.1C198.4,250.6,198.4,252.1,198.4,253.6z"/>
	<path fill="#D6210E" d="M149.5,86.4c-0.4,0-0.7-0.2-1.1-0.4c-9.2-4.7-18.2-9.9-26.7-15.8c-5.1-3.5-10.1-7.3-14.9-11.3
		c-0.5-0.4-0.6-1-0.3-1.5c0.1-0.2,0.3-0.2,0.5-0.2c0.3,0,0.7,0,1,0c3.7,0,7.4,0,11.1,0c1.6,0,2.8,0.6,3.7,1.9
		c1.4,1.9,2.7,3.7,4.2,5.5c2.6,3.1,5.4,6,8.3,8.8c4,3.9,8.3,7.5,12.7,11C148.6,84.9,149.3,85.5,149.5,86.4L149.5,86.4z"/>
	<path fill="#FFBF07" d="M47.8,53.5c0.5-0.2,0.9-0.3,1.4-0.2c1.3,0.2,2.5,0.4,3.8,0.4c1.7,0.1,3.2-0.3,4.3-1.6
		c0.4-0.5,0.9-0.7,1.6-0.6c0.9,0.2,1.8,0.2,2.7,0.5c1.2,0.3,2.3,1,3.4,1.7c1.2,0.7,2.3,1.5,3.5,2.2c0.8,0.5,1.7,0.9,2.7,1.1
		c0.9,0.2,1.4,0.7,1.8,1.4c0.3,0.5,0.5,1.1,0.6,1.7c0.1,1.3-0.4,2.4-1.9,2.2C69.4,62,67.2,62.2,65,62c-1.7-0.1-3.4,0-5.1-0.1
		c-3.7-0.2-7.5-0.4-11.1-1.3c-1.6-0.4-3.2-1.2-4.7-1.8c-0.5-0.2-1-0.4-1.6-0.7c0.8-0.2,1.5-0.2,2.2-0.2c0.8,0,1.6-0.2,2.4-0.4
		c0.9-0.2,1.5-1,1.2-2C48.2,54.9,47.9,54.2,47.8,53.5z"/>
	<path fill="#FFC700" d="M340.4,61.7c-0.5,0.3-1,0.6-1.5,0.8c-0.7,0.4-1,1-0.8,1.8c0.2,0.8,0.5,1.5,1.4,1.8c0.4,0.1,0.8,0.2,1.3,0.1
		c0.5-0.1,1.1-0.1,1.6-0.1c0.3,0,0.6,0,0.9,0.3c-0.7,0.4-1.5,0.6-2.2,0.9c-3.8,1.3-7.7,2.2-11.7,2.7c-3.1,0.4-6.3,0.6-9.4,0.5
		c-1.5,0-3-0.1-4.5-0.1c-1.3,0-1.9-0.6-1.9-1.9c0-1.9,0.8-3.8,3.3-4.2c0.8-0.1,1.6-0.3,2.3-0.6c1-0.4,1.9-0.9,2.6-1.8
		c1.1-1.5,2.7-2.2,4.6-2c0.6,0,1.1,0.2,1.6,0.5c1.9,1,3.9,1.3,6,1.4c1.9,0.1,3.9-0.2,5.8-0.2c0.2,0,0.3,0,0.5,0
		C340.4,61.6,340.4,61.7,340.4,61.7z"/>
	<path fill="#FEC300" d="M191.9,11c1.1-1.3,2.3-2.3,3.6-3.2c1-0.7,2.1-1.2,3.2-1.6c1.7-0.5,3.2-0.1,4.7,0.7c1.6,0.9,2.9,2.1,4.1,3.5
		c0.1,0.1,0.2,0.3,0.3,0.5c0.3,0.5,0.3,1,0,1.5c-0.3,0.5-0.7,0.6-1.2,0.5c-0.5-0.1-0.9-0.1-1.4-0.3c-0.6-0.2-1.2-0.2-1.8-0.2
		c-1.6,0-2.6,0.9-2.8,2.5c-0.4,2.5,1.1,4.1,3.6,4.2c0.7,0,1.4,0,2.1,0.1c2.9,0.4,3.1,1.7,2.8,3.8c0,0.3-0.1,0.6-0.2,0.9
		c-1.2,3.7-2.3,7.4-3.7,11c-0.3,0.7-0.6,1.4-1,2c-0.9,1.2-2.1,1.3-3.2,0.3c-1-1-1.3-2.2-1.1-3.6c0.1-0.6,0.4-1,0.8-1.3
		c0.6-0.5,1.2-1.1,1.6-1.9c0.5-1.1,0.6-2.3,0.3-3.5c-0.5-2.2-1.3-4.2-2.1-6.3c-0.9-2.3-1.7-4.5-2-6.9c-0.1-0.9-0.6-1.4-1.4-1.7
		c-0.9-0.4-1.9-0.5-2.9-0.5C193.4,11.3,192.7,11.3,191.9,11z"/>
	<path fill="#D6210E" d="M159.5,201.5c0.4,0.5,0.4,0.9,0.4,1.4c0.3,2.1,0.4,4.2,0.2,6.4c-0.1,1-0.1,2.1-0.2,3.1
		c-0.2,2.5-0.2,5-0.3,7.5c-0.1,3.4-0.1,6.8-0.2,10.2c-0.1,2.9,0,5.8-0.2,8.7c-0.2,3.2,0,6.4-0.2,9.5c-0.1,2.7,0,5.3-0.2,8
		c-0.2,3.3-0.1,6.6-0.2,9.9c-0.1,2.9,0,5.7-0.2,8.6c-0.2,3.1,0,6.2-0.2,9.3c-0.1,2.8,0,5.7-0.2,8.5c-0.2,3.1,0,6.2-0.2,9.2
		c-0.1,2.9,0,5.9-0.2,8.8c-0.1,2.4,0,4.8-0.2,7.1c0,0.3-0.1,0.6-0.1,0.9c-0.2,0.7-0.6,1-1.3,1c-0.7-0.1-1-0.4-1-1.2
		c0.1-0.9,0.2-1.9,0.3-2.8c0.1-2.1,0.2-4.2,0.3-6.4c0.1-3,0.4-6,0.5-8.9c0.1-2,0.2-3.9,0.2-5.9c0.2-3.3,0.3-6.6,0.4-9.9
		c0.1-3,0.3-6.1,0.4-9.1c0.1-3.8,0.3-7.6,0.4-11.4c0.1-2,0-4.1,0.2-6.1c0.2-2.5,0-5.1,0.2-7.6c0.2-2.6,0.1-5.1,0.2-7.7
		c0.2-4.3,0.1-8.6,0.2-13c0.1-3.2,0.1-6.4,0.2-9.5c0.1-3.4,0.2-6.7,0.4-10.1C159.1,207.1,159.3,204.4,159.5,201.5z"/>
	<path fill="#E35E03" d="M205.1,85.3c-2,0.5-4,0.9-6,1.2c-3.2,0.5-6.3,1.1-9.4,1.8c-2.4,0.6-4.7,0.2-6.9-0.8
		c-2.2-0.9-4.2-2.2-6.2-3.3c-0.1,0-0.1-0.1-0.2-0.2c0.5-0.3,1.2-0.4,1.7-0.6c2-0.6,4.1-1.3,6.2-1.7c2.1-0.4,4.1-0.4,6.1,0.2
		c3,0.8,6,1.8,9.1,2.5C201.3,84.8,203.2,85,205.1,85.3z"/>
	<path fill="#F18A01" d="M156.8,178c0-1.5-0.1-2.9,0-4.2c0.1-1.7,0.2-3.5,0.5-5.2c0.4-2.8,1.1-5.5,2.2-8.1c0.1-0.3,0.2-0.5,0.4-0.8
		c0.8-1.5,1.8-1.9,3.5-1.6c1.2,0.3,2.4,0.5,3.5,1.1c1.3,0.7,2,1.7,2.4,3c0.4,1.4-0.4,3.2-2.4,3.1c-1.4-0.1-2.8,0.1-4.1,0.6
		c-2.5,0.9-3.9,2.8-4.6,5.3c-0.5,1.6-0.7,3.3-0.8,5C157.3,176.8,157.2,177.4,156.8,178z"/>
	<path fill="#19539C" d="M239.1,243.4c-0.9-1.3-1.6-2.8-2.1-4.2c-1.3-3.3-1.9-6.7-1.9-10.2c0-2.7,0-5.3,0.2-8
		c0.1-1.2,0.5-1.8,1.4-2.1c1-0.3,1.7,0.2,1.8,1.2c0,0.1,0,0.3,0,0.4c0,5.5-0.1,10.9,0.1,16.4c0.1,2.1,0.3,4.1,0.6,6.2
		C239.2,243.1,239.2,243.2,239.1,243.4z"/>
	<path fill="#D6210E" d="M162.7,257.3c0,2.6,0,5.2,0,7.8c0,8.7,0,17.5,0,26.2c0,2.3,0,4.6-0.1,7c-0.1,2.6,0,5.3-0.1,7.9
		c-0.2,3.1-0.1,6.3-0.2,9.4c0,1-0.1,1.9,0.1,2.8c0.1,0.7-0.2,1-0.8,1.1c-0.6,0.1-1.1-0.2-1.3-0.8c-0.1-0.3-0.2-0.6-0.2-0.9
		c0.2-2.6,0.5-5.2,0.7-7.8c0.1-1.2,0.1-2.3,0.2-3.5c0.1-2.1,0.2-4.3,0.3-6.4c0.2-3.4,0.3-6.8,0.4-10.2c0.1-2.8,0.2-5.5,0.4-8.3
		c0.2-3.9,0.3-7.8,0.4-11.7C162.6,265.9,162.5,261.6,162.7,257.3z"/>
	<path fill="#E6E7E8" d="M141.1,51.2c0-0.1,0.1-0.3,0.2-0.3c1-0.4,1.9-0.9,3-1c1.8-0.1,3.6-0.2,5.4-0.4c1.2-0.1,2.4,0,3.6-0.3
		c0.2-0.1,0.6-0.1,0.8,0.2c-0.9,0.4-1.8,0.4-2.8,0.5c-3.2,0.5-6.4,0.9-9.6,1.3C141.6,51.2,141.3,51.2,141.1,51.2z"/>
	<path fill="#E6E7E8" d="M172.2,93.1C172.2,93.1,172.1,93,172.2,93.1C172.2,93,172.2,93,172.2,93.1L172.2,93.1z"/>
	<path fill="#E6E7E8" d="M149.5,86.4c0,0,0.1,0.1,0.1,0.1C149.6,86.6,149.5,86.5,149.5,86.4C149.5,86.4,149.5,86.4,149.5,86.4z"/>
	<path fill="#818386" d="M194.4,111c0,0,0.1,0.1,0.1,0.1C194.4,111.2,194.4,111.1,194.4,111C194.4,111,194.4,111,194.4,111z"/>
	<path fill="#818386" d="M298.1,74.4c0-0.1,0-0.2,0.1-0.1C298.3,74.3,298.1,74.3,298.1,74.4L298.1,74.4z"/>
	<path fill="#818386" d="M279.2,69.8c0,0,0-0.1,0.1-0.1C279.4,69.8,279.2,69.7,279.2,69.8L279.2,69.8z"/>
	<path fill="#818386" d="M187.6,63.3c0,0,0.1,0.1,0.1,0.1C187.6,63.5,187.5,63.4,187.6,63.3C187.5,63.3,187.6,63.3,187.6,63.3z"/>
	<path fill="none" d="M186.9,214.9c-0.1,0.2-0.1,0.3-0.2,0.5l1.1,0.5C187.6,215.5,187.3,215.2,186.9,214.9z"/>
	<path fill="none" d="M180.3,211.5c-0.1,0.3-0.1,0.7-0.2,1l1,0.5C181,212.4,180.8,211.9,180.3,211.5z"/>
	<path fill="none" d="M279.2,69.8c0,0.1-0.1,0.1-0.1,0.2C279.1,69.9,279.1,69.8,279.2,69.8L279.2,69.8z"/>
	<path fill="none" d="M298.1,74.4c0,0.1-0.1,0.2-0.2,0.3C298,74.5,298,74.5,298.1,74.4L298.1,74.4z"/>
	<path fill="none" d="M169.6,207.3c-0.4-0.2-0.6-0.2-0.8,0.2l1.5,0.7C170.2,207.8,170,207.5,169.6,207.3z"/>
	<path fill="none" d="M298.1,74.2c0,0-0.1,0.1-0.1,0.1C298.1,74.3,298.3,74.3,298.1,74.2z"/>
	<path fill="none" d="M175,209.4c-0.1,0.2-0.2,0.5-0.3,0.7l1,0.5C175.7,210.1,175.4,209.7,175,209.4z"/>
	<path fill="none" d="M194.5,111.1c0,0-0.1-0.1-0.1-0.1l0,0h0C194.4,111.1,194.4,111.2,194.5,111.1z"/>
	<path fill="none" d="M279.2,69.6c0,0,0,0.1,0,0.1C279.3,69.7,279.4,69.8,279.2,69.6z"/>
	<path fill="none" d="M196.7,320c2.7,0.2,3.9-0.8,3.6-3.4c-0.3-2.4-0.5-4.7-0.7-7.1c-0.2-3.6-0.3-7.3-0.4-11
		c-0.1-3.5-0.2-6.9-0.6-10.4c-0.1-1.2-0.2-2.3-0.2-3.5c0-10.3,0-20.7,0-31c0-1.5,0-3.1,0-4.6c0-9,0-18.1,0-27.1c0-0.4,0-0.8,0-1.2
		c-0.2-1.1-0.8-1.5-1.9-1.5c-1,0-1.4,0.5-1.5,1.6c0,0.3,0,0.5,0,0.8c0.4,1.7,0.3,3.5,0.3,5.2c0,11.8-0.1,23.6,0.2,35.4
		c0.1,2.2,0,4.5,0,6.7c-0.1,7.3,0.1,14.6-0.1,21.9c-0.1,3,0,5.9-0.2,8.9c-0.1,2.6-0.2,5.1-0.3,7.7c0,0.5,0,1,0,1.5
		c-0.2,2.6-0.3,5.2-0.5,7.8c0,0.4,0,0.8,0,1.1C194.7,319.2,195.3,319.9,196.7,320z"/>
	<path fill="none" d="M237,239.1c0.6,1.5,1.2,2.9,2.1,4.2c0.1-0.2,0.1-0.3,0-0.4c-0.4-2-0.6-4.1-0.6-6.2c-0.1-5.5-0.1-10.9-0.1-16.4
		c0-0.1,0-0.3,0-0.4c-0.1-1-0.9-1.5-1.8-1.2c-0.9,0.2-1.3,0.8-1.4,2.1c-0.2,2.7-0.2,5.3-0.2,8C235.1,232.4,235.7,235.8,237,239.1z"
		/>
	<path fill="none" d="M172.2,93C172.1,93,172.2,93.1,172.2,93L172.2,93C172.2,93,172.2,93,172.2,93z"/>
	<path fill="none" d="M72.9,58.3c-0.4-0.7-0.9-1.2-1.8-1.4c-1-0.2-1.9-0.6-2.7-1.1c-1.2-0.7-2.3-1.5-3.5-2.2
		c-1.1-0.7-2.2-1.3-3.4-1.7c-0.9-0.3-1.8-0.3-2.7-0.5c-0.6-0.1-1.1,0-1.6,0.6c-1.1,1.3-2.6,1.8-4.3,1.6c-1.3-0.1-2.5-0.3-3.8-0.4
		c-0.5-0.1-0.9,0-1.4,0.2c0.1,0.7,0.4,1.4,0.6,2.1c0.3,1-0.3,1.8-1.2,2c-0.8,0.2-1.6,0.3-2.4,0.4c-0.7,0-1.4,0.1-2.2,0.2
		c0.6,0.2,1.1,0.5,1.6,0.7c1.6,0.6,3.1,1.4,4.7,1.8c3.7,0.9,7.4,1.1,11.1,1.3c1.7,0.1,3.4-0.1,5.1,0.1c2.2,0.2,4.4,0,6.6,0.3
		c1.5,0.2,2-0.9,1.9-2.2C73.4,59.4,73.2,58.9,72.9,58.3z"/>
	<path fill="none" d="M190.4,81.9c-2-0.5-4.1-0.5-6.1-0.2c-2.1,0.4-4.1,1-6.2,1.7c-0.6,0.2-1.2,0.2-1.7,0.6c0.1,0.1,0.2,0.2,0.2,0.2
		c2.1,1.1,4,2.4,6.2,3.3c2.2,1,4.5,1.3,6.9,0.8c3.1-0.7,6.3-1.2,9.4-1.8c2-0.3,4-0.7,6-1.2c-1.9-0.3-3.8-0.5-5.6-1
		C196.4,83.6,193.4,82.7,190.4,81.9z"/>
	<path fill="none" d="M166.9,159.2c-1.1-0.6-2.3-0.8-3.5-1.1c-1.7-0.4-2.6,0.1-3.5,1.6c-0.1,0.3-0.3,0.5-0.4,0.8
		c-1.1,2.6-1.7,5.3-2.2,8.1c-0.3,1.7-0.4,3.5-0.5,5.2c-0.1,1.3,0,2.7,0,4.2c0.4-0.6,0.5-1.1,0.5-1.7c0.1-1.7,0.3-3.3,0.8-5
		c0.7-2.5,2.1-4.4,4.6-5.3c1.3-0.5,2.7-0.7,4.1-0.6c2,0.1,2.8-1.8,2.4-3.1C168.9,160.9,168.1,159.9,166.9,159.2z"/>
	<path fill="#D6210E" d="M168.9,318.8c1.4,0,2.8-0.3,4.3-0.4c1.6-0.2,3.2-0.3,4.8-0.4c2.5-0.2,5-0.2,7.4,0.2
		c1.2,0.2,2.4,0.5,3.8,0.8c-0.2-1.6-0.1-3-0.2-4.5c-0.3-4-0.4-8-0.5-12c-0.1-10.2,0-20.5,0-30.7c0-17.2,0-34.5,0-51.7
		c0-0.7,0-1.4,0-2.1c-0.1-0.7-0.3-1.4-0.6-2l-1.1-0.5c-0.2,0.4-0.3,0.8-0.4,1.2c-0.2,1-0.1,1.9-0.1,2.9c0,15,0,29.9,0,44.9
		c0,7.2,0,14.4-0.1,21.7c-0.1,7.1,0,14.2-0.2,21.3c0,1.3-0.1,2.6,0,3.8c0.1,0.8,0,1.6-0.1,2.5c-0.2,1.5-1.2,2.3-2.6,2.2
		c-1.3-0.1-2-0.9-2-2.4c0-0.2,0-0.4,0-0.7c-0.1-0.8,0.2-1.6,0.2-2.5c0-1.4,0-2.8,0-4.2c0-29.6,0-59.3,0-88.9c0-1,0.1-2,0-3
		c0-0.4-0.1-0.8-0.2-1.2l-1-0.5c-0.1,0.9-0.2,1.8-0.2,2.7c-0.1,3.2,0,6.4-0.2,9.6c-0.2,4.7,0,9.4-0.2,14.1c-0.2,5,0,10-0.2,15.1
		c-0.2,4.6,0,9.2-0.2,13.7c-0.2,5.2,0,10.4-0.2,15.5c-0.1,3.9-0.1,7.8-0.2,11.6c-0.1,4.3-0.2,8.6-0.4,12.9c-0.1,1.8-0.2,3.6-0.2,5.4
		c0,0.5-0.1,0.9-0.2,1.4c-0.1,0.6-0.4,1.2-1,1.4c-1.2,0.5-3.1,0-3.2-1.6c0-0.5-0.1-0.9-0.1-1.4c0-0.9,0.1-1.8,0.1-2.8
		c0.1-4.1,0-8.2,0.2-12.3c0.2-4,0-7.9,0.2-11.9c0.1-3,0-6.1,0.2-9.2c0.1-2.6,0-5.2,0.2-7.8c0.2-2.6,0-5.3,0.2-7.9
		c0.1-2.4,0-4.9,0.2-7.3c0.2-2.5,0-5,0.2-7.5c0.2-2.4,0-4.9,0.2-7.3c0.2-2.5,0.1-5,0.2-7.5c0.2-3.5,0.2-6.9,0.2-10.4
		c0-1.3,0-2.6,0.1-3.9c0.1-2,0.1-3.9,0.1-5.9c0-0.2,0-0.4-0.1-0.6l-1-0.5c-0.2,0.6-0.2,1.2-0.2,1.9c0,6.3,0,12.7,0,19
		c0,2.6,0,5.2-0.1,7.8c-0.2,3.2,0,6.4-0.2,9.5c-0.1,2.3,0,4.7-0.2,7.1c-0.2,2.4,0,4.8-0.2,7.2c-0.1,2.3-0.1,4.6-0.2,6.9
		c-0.1,2.8-0.1,5.6-0.2,8.4c-0.1,2.4-0.1,4.8-0.2,7.2c-0.1,3.8-0.2,7.6-0.4,11.3c-0.1,1.9-0.1,3.9-0.3,5.8c-0.1,1.2-0.1,2.4-0.2,3.6
		c-0.2,2.7-0.4,5.4-0.3,8.2c0,0.6,0,1.1-0.2,1.7c-0.3,1-0.9,1.5-1.8,1.5c-1.1,0-1.9-0.5-2.2-1.5c-0.2-0.7-0.2-1.5-0.2-2.3
		c0.1-1.1,0.2-2.1,0.3-3.2c0.1-3,0-5.9,0.2-8.9c0.2-2.8,0-5.7,0.2-8.5c0.2-2.9,0-5.7,0.2-8.6c0.2-2.7,0-5.5,0.2-8.2
		c0.2-2.9,0-5.7,0.2-8.6c0.1-2.7,0-5.3,0.2-8c0.2-2.8,0-5.7,0.2-8.5c0.1-2.7,0.1-5.4,0.2-8.1c0.1-3,0.1-6.1,0.2-9.2
		c0.1-2.5,0-5,0.2-7.4c0.2-3,0-6,0.2-9.1c0.1-1.8,0.1-3.6,0.1-5.4c0-1.1,0.1-2.2,0.2-3.2c0-0.2,0-0.3,0-0.5l-1.5-0.7
		c-0.3,0.7-0.5,1.3-0.6,2.1c0,3.1-0.1,6.3-0.2,9.4c-0.1,7,0.1,13.9-0.2,20.9c-0.1,4.2,0,8.3-0.2,12.5c-0.1,3.8-0.2,7.6-0.4,11.3
		c-0.1,3.4-0.2,6.9-0.2,10.3c-0.1,9.7,0.1,19.5-0.2,29.2c0,1.7,0,3.5-0.1,5.2c-0.1,2.6-0.3,5.3-0.4,7.9
		C166.5,318.4,166.9,318.8,168.9,318.8z"/>
	<path fill="none" d="M213,56.7c-0.1-0.6-0.1-1.1,0-1.7c0.1-0.7,0.3-1.4,0.3-2.1c0-0.6-0.3-1-0.9-1.2c-1.1-0.4-2.2,0.1-2.5,1.3
		c-0.4,1.9-1,3.8-1,5.7c0,1.3-0.1,2.7-0.4,4c-0.3,1.1-0.9,2-2.1,2.8c0.1-1,0.2-1.9,0.2-2.8c0-0.3,0.1-0.5,0.1-0.8
		c0.2-1.7,0.8-3.3,1.1-4.9c0.3-1.1,0.5-2.3,0.4-3.5c-0.2-2.2-1.3-3.9-3.2-5.1c-0.7-0.5-0.9-1-1-1.8c-0.1-1.5-0.2-2.9-0.2-4.4
		c0-0.7-0.2-1.3-0.4-1.8c-0.1-0.3-0.3-0.5-0.6-0.1c-0.4,0.4-0.8,0.8-1.1,1.2c-0.8,1.1-1.3,2.2-1.8,3.4c-0.5,1-0.9,2-1.4,3
		c-0.3,0.5-0.7,0.9-1.3,1.1c-1.1,0.2-2.1-0.2-2.7-1.2c-0.2-0.3-0.4-0.7-0.6-1.1c-0.5-1.2-1.2-2.3-2-3.4c-1.3-1.7-2.6-3.4-3.4-5.4
		c0-0.1-0.1-0.2-0.2-0.1c-0.2,0.2-0.1,0.5-0.1,0.7c-0.2,1.6-0.2,3.2-0.3,4.7c-0.3,2.6-1.4,4.5-3.8,5.6c-2.1,0.9-2.4,1.9-1.4,4
		c1,2.2,2.1,4.5,3.2,6.7c0.6,1.2,1.3,2.4,1.7,3.7l-0.1,0.1c-0.9-0.5-1.6-1.4-2.2-2.2c-1.8-2.2-3.1-4.8-4-7.4
		c-0.3-0.7-0.5-1.5-0.9-2.2c-0.9-1.6-2.2-2.4-4-2.4c-2.2,0-4.4,0.5-6.6,0.7c-2.5,0.2-4.9,0.4-7.4,0.5c-2.5,0.1-5,0.1-7.4,0.4
		c-3.7,0.4-7.3,1.2-10.8,2.3c-0.2,0.1-0.5,0-0.5,0.3c4.2,3,22.7,11.4,25.3,11.4c-0.1-0.2-0.2-0.3-0.3-0.5c-1.1-1.6-2.4-3-3.6-4.5
		c-1-1.2-2-2.5-2.6-4c-0.1-0.3-0.4-0.5-0.2-0.9c0.3,0.1,0.4,0.3,0.6,0.5c1.8,1.9,3.6,3.7,5.3,5.6c2.8,2.8,5.5,5.6,8.8,7.9
		c3.9,2.9,8.2,4.9,13.1,5.7c0.5,0.1,1.1,0,1.6,0.3c-0.2,0.1-0.3,0.1-0.3,0.2c-2,0.4-4,0.4-5.9-0.2c-3.6-1-6.7-2.8-9.6-5.1
		c-1.2-1-2.4-1.8-4-2.1c-1.1-0.2-2.1-0.6-3.1-0.9c-5-1.6-9.8-3.7-14.5-6c-3.5-1.7-6.8-3.6-10.2-5.3c-2.3-1.2-4.8-1.9-7.4-2.2
		c-3.8-0.4-7.4,0.5-10.8,2.1c-0.2,0.1-0.4,0.1-0.4,0.5c0.2,0.1,0.3,0.2,0.5,0.2c7,2.1,13.5,5.3,19.5,9.3c4.5,3.1,9,6.3,13.8,8.9
		c3.9,2.1,7.8,4,11.8,5.8c3,1.3,6.2,1.6,9.4,1.1c1.6-0.2,3.1-0.8,4.6-1.1c2.4-0.5,4.7-0.7,7.1-0.1c1.9,0.5,3.6,0.2,5.3-0.8
		c1.1-0.7,2.2-1.5,3.3-2.2c2.2-1.4,4.6-2.6,7.2-3.2c0.4-0.1,0.7-0.2,1.1-0.1c0,0.3-0.2,0.4-0.4,0.6c-1.2,1.1-2.5,2-3.8,2.9
		c-1.6,1.2-3.2,2.4-4.6,3.9c-0.5,0.5-1,1-1.2,1.7c0.2,0.1,0.4,0,0.6,0c1.5-0.4,2.9-0.5,4.4-0.5c2.5,0,4.5,0.9,6.3,2.6
		c0.4,0.3,0.7,0.7,1.1,0.9c0.8,0.4,1.6,0.3,2.3-0.3c0.5-0.5,0.9-1,1.1-1.7c0.2-0.7,0.4-1.5,0.4-2.2c0-1.6-0.1-3.1,0.1-4.7
		c0.3-2.7,0.2-5.5-0.1-8.2C214.4,64.5,213.6,60.6,213,56.7z"/>
	<path fill="none" d="M342.5,66.1c-0.5,0-1.1,0-1.6,0.1c-0.5,0.1-0.9,0-1.3-0.1c-0.9-0.3-1.2-1-1.4-1.8c-0.2-0.8,0.1-1.4,0.8-1.8
		c0.5-0.3,1-0.6,1.5-0.8c0-0.1,0-0.1,0-0.2c-0.2,0-0.3,0-0.5,0c-1.9,0-3.9,0.3-5.8,0.2c-2.1-0.1-4.1-0.4-6-1.4
		c-0.5-0.3-1-0.5-1.6-0.5c-1.9-0.1-3.4,0.5-4.6,2c-0.7,0.9-1.6,1.5-2.6,1.8c-0.7,0.3-1.5,0.4-2.3,0.6c-2.5,0.5-3.3,2.3-3.3,4.2
		c0,1.3,0.6,1.9,1.9,1.9c1.5,0,3,0.1,4.5,0.1c3.1,0.1,6.3-0.1,9.4-0.5c4-0.5,7.9-1.4,11.7-2.7c0.7-0.3,1.5-0.5,2.2-0.9
		C343.1,66.1,342.8,66.1,342.5,66.1z"/>
	<path fill="none" d="M170.2,141.6c0-1.9-0.2-3.8-0.3-5.7c-0.1-1.8-0.3-3.7-0.3-5.5c0-6.3,0-12.6,0-18.9c0-6.6,0-13.2,0-19.9
		c0-0.4,0-0.8,0-1.1c0-1.9-1.2-3.2-2.7-4.1c-1.2-0.7-2.3-0.1-2.3,1.3c0,2.3-0.2,4.5-0.4,6.8c-0.2,3.3-0.4,6.5-0.8,9.8
		c-0.3,3.6-0.7,7.1-1,10.7c-0.3,3.3-0.6,6.6-1,9.9c-0.4,3.8-0.8,7.6-1.3,11.3c-0.5,4-1.2,8-1.9,11.9c-0.2,1.1-0.4,2.1-0.4,3.2
		c0,1.2,0.6,1.9,1.6,2.4c0.5,0.2,1,0.3,1.5,0.5c2.1,0.5,4.2,0.7,6.2,1.6c0.2,0.1,0.4,0.1,0.7,0.1c0.9,0.1,1.4-0.2,1.8-1.1
		c0.2-0.5,0.3-1,0.4-1.6c0.4-3.2,0.5-6.3,0.5-9.5C170.3,143,170.2,142.3,170.2,141.6z"/>
	<path fill="none" d="M106.8,59c4.8,4,9.8,7.8,14.9,11.3c8.6,5.9,17.5,11.1,26.7,15.8c0.3,0.2,0.6,0.4,1.1,0.4c0,0.1,0.1,0.1,0.2,0
		c0,0-0.1-0.1-0.1-0.1c-0.3-0.9-0.9-1.4-1.6-2c-4.4-3.5-8.7-7.1-12.7-11c-2.9-2.8-5.7-5.7-8.3-8.8c-1.5-1.8-2.9-3.7-4.2-5.5
		c-0.9-1.2-2.1-1.9-3.7-1.9c-3.7,0-7.4,0-11.1,0c-0.3,0-0.7,0-1,0c-0.2,0-0.4,0-0.5,0.2C106.2,58,106.3,58.6,106.8,59z"/>
	<path fill="none" d="M159,209.9c-0.2,3.4-0.3,6.7-0.4,10.1c-0.1,3.2-0.1,6.4-0.2,9.5c-0.2,4.3,0,8.6-0.2,13c-0.1,2.6,0,5.1-0.2,7.7
		c-0.2,2.5,0,5.1-0.2,7.6c-0.1,2-0.1,4.1-0.2,6.1c-0.1,3.8-0.3,7.6-0.4,11.4c-0.1,3-0.2,6.1-0.4,9.1c-0.1,3.3-0.3,6.6-0.4,9.9
		c-0.1,2-0.1,3.9-0.2,5.9c-0.2,3-0.4,6-0.5,8.9c-0.1,2.1-0.2,4.2-0.3,6.4c-0.1,1-0.2,1.9-0.3,2.8c0,0.8,0.3,1.2,1,1.2
		c0.7,0.1,1.1-0.2,1.3-1c0.1-0.3,0.1-0.6,0.1-0.9c0.1-2.4,0-4.8,0.2-7.1c0.2-2.9,0-5.8,0.2-8.8c0.2-3.1,0-6.2,0.2-9.2
		c0.1-2.8,0-5.7,0.2-8.5c0.2-3.1,0-6.2,0.2-9.3c0.1-2.9,0.1-5.7,0.2-8.6c0.1-3.3,0.1-6.6,0.2-9.9c0.1-2.7,0-5.3,0.2-8
		c0.2-3.2,0-6.4,0.2-9.5c0.1-2.9,0.1-5.8,0.2-8.7c0.1-3.4,0.1-6.8,0.2-10.2c0.1-2.5,0-5,0.3-7.5c0.1-1,0.1-2.1,0.2-3.1
		c0.2-2.1,0.2-4.3-0.2-6.4c-0.1-0.4,0-0.9-0.4-1.4C159.3,204.4,159.1,207.1,159,209.9z"/>
	<path fill="none" d="M197,11.9c0.8,0.3,1.4,0.9,1.4,1.7c0.3,2.4,1.1,4.7,2,6.9c0.8,2.1,1.6,4.1,2.1,6.3c0.3,1.2,0.3,2.4-0.3,3.5
		c-0.4,0.8-0.9,1.4-1.6,1.9c-0.4,0.4-0.8,0.8-0.8,1.3c-0.2,1.4,0.1,2.6,1.1,3.6c1.1,1,2.3,0.9,3.2-0.3c0.5-0.6,0.8-1.3,1-2
		c1.4-3.6,2.5-7.3,3.7-11c0.1-0.3,0.2-0.6,0.2-0.9c0.3-2.2,0.1-3.4-2.8-3.8c-0.7-0.1-1.4,0-2.1-0.1c-2.5,0-3.9-1.7-3.6-4.2
		c0.2-1.6,1.2-2.5,2.8-2.5c0.6,0,1.2,0,1.8,0.2c0.5,0.1,0.9,0.2,1.4,0.3c0.5,0.1,1,0,1.2-0.5c0.3-0.5,0.3-1,0-1.5
		c-0.1-0.2-0.2-0.3-0.3-0.5c-1.2-1.4-2.5-2.6-4.1-3.5c-1.5-0.8-3-1.1-4.7-0.7c-1.2,0.3-2.3,0.8-3.2,1.6c-1.3,0.9-2.4,1.9-3.6,3.2
		c0.8,0.3,1.5,0.3,2.2,0.3C195,11.4,196,11.5,197,11.9z"/>
	<path fill="none" d="M149.4,88.6c-0.2-0.1-0.5-0.2-0.7-0.3c-1.1-0.4-2.2-0.7-3.2-1.2c-2.9-1.3-5.8-2.7-8.6-4.2
		c-5-2.6-9.8-5.5-14.5-8.6c-5.4-3.7-10.5-7.8-15.2-12.5c-1.2-1.2-2.3-2.4-3.5-3.5c-0.5-0.5-1-0.9-1.7-0.9c-1.2-0.1-2.4-0.1-3.6-0.1
		c-4.8-0.1-9.6,0.1-14.4-0.2c-1.4-0.1-2.8-0.3-4.3-0.5c-1.4-0.2-2.7-0.5-4-0.8c-0.5-0.1-0.6,0-0.5,0.5c0.2,0.8,0.5,1.6,0.9,2.4
		c2,3.9,4.4,7.6,6.9,11.2c2.7,3.7,5.6,7.2,8.4,10.7c1.9,2.4,4.3,4.2,7.3,5.1c2.2,0.7,4.6,0.8,6.6,0.9c3-0.1,5.8-0.2,8.5-0.3
		c0.5,0,0.6-0.3,0.7-0.7c0.2-0.4,0.1-0.7-0.3-1c-1.4-1-2.7-2-4.1-2.9c-8.7-6-17-12.5-25.2-19.1c-0.2-0.2-0.6-0.3-0.3-0.7
		c0.3-0.5,0.5-0.6,1-0.3c0.5,0.2,1,0.5,1.5,0.9c2.6,2,5.3,4,8,5.8c4.1,2.8,8.3,5.4,12.5,7.8c5.8,3.3,11.6,6.4,17.6,9.3
		c6.4,3.1,12.9,6.2,19.4,9.2c0.6,0.3,1.3,0.5,2,0.7c1.2,0.3,2.1-0.1,2.8-1c0.5-0.6,0.9-1.3,1.1-2.1
		C151.3,90.4,150.9,89.4,149.4,88.6z"/>
	<path fill="none" d="M160.2,318.9c0.2,0.6,0.7,0.8,1.3,0.8c0.6-0.1,0.9-0.4,0.8-1.1c-0.1-0.9-0.1-1.9-0.1-2.8
		c0.1-3.1,0-6.3,0.2-9.4c0.1-2.6,0-5.3,0.1-7.9c0.1-2.3,0.1-4.6,0.1-7c0-8.7,0-17.5,0-26.2c0-2.6,0-5.2,0-7.8
		c-0.2,4.3-0.1,8.5-0.3,12.8c-0.1,3.9-0.2,7.8-0.4,11.7c-0.2,2.8-0.3,5.5-0.4,8.3c-0.1,3.4-0.2,6.8-0.4,10.2
		c-0.1,2.1-0.1,4.3-0.3,6.4c-0.1,1.2-0.1,2.3-0.2,3.5c-0.2,2.6-0.4,5.2-0.7,7.8C160.1,318.3,160.1,318.6,160.2,318.9z"/>
	<path fill="none" d="M157.5,143.3c0-0.8-0.1-1.5,0-2.3c0.3-2.3,0.7-4.6,1-7c0.3-2.4,0.6-4.7,0.9-7.1c0.2-2,0.4-3.9,0.6-5.9
		c0.2-2.4,0.5-4.9,0.7-7.3c0.2-1.7,0.3-3.4,0.4-5c0.2-2.7,0.5-5.4,0.7-8.2c0.2-1.8,0.3-3.5,0.4-5.3c0.2-2.2,0.5-4.5,0.5-6.7
		c0-0.2,0-0.4,0-0.7c0.2-2.1-0.8-3.5-2.6-4.5c-0.9-0.5-1.8-1-2.8-1.4c-0.9-0.4-1.9-1-2.9-1.2c-1-0.2-1.6,0.1-1.9,1.1
		c-0.2,0.5-0.2,1.1-0.2,1.6c0,1.6,0.1,3.2,0,4.9c0,6.6,0.1,13.2-0.2,19.8c-0.1,3.5-0.2,7-0.4,10.5c-0.1,2.6-0.2,5.2-0.4,7.8
		c-0.2,2.7-0.3,5.4-0.5,8.1c-0.1,1.2-0.2,2.4-0.3,3.6c-0.1,1-0.2,2-0.1,3c0,0.7,0.1,1.3,0.1,2c-0.1,0.7-0.2,1.4-0.3,2.2
		c-0.2,1.3,0.4,2.3,1.6,2.7c0.8,0.3,1.7,0.3,2.5,0.2c1.3-0.2,2.2-0.9,2.5-2.2C157.5,145.1,157.5,144.2,157.5,143.3z"/>
	<path fill="#D6210E" d="M175.8,217.1c-0.1,1.3-0.1,2.6-0.1,3.9c-0.1,3.5-0.1,6.9-0.2,10.4c-0.1,2.5,0,5-0.2,7.5
		c-0.2,2.4,0,4.9-0.2,7.3c-0.2,2.5,0,5-0.2,7.5c-0.2,2.4,0,4.9-0.2,7.3c-0.2,2.6,0,5.3-0.2,7.9c-0.2,2.6,0,5.2-0.2,7.8
		c-0.2,3.1,0,6.1-0.2,9.2c-0.2,4,0,8-0.2,11.9c-0.2,4.1-0.1,8.2-0.2,12.3c0,0.9-0.1,1.8-0.1,2.8c0,0.5,0.1,0.9,0.1,1.4
		c0.1,1.6,2,2.2,3.2,1.6c0.6-0.3,0.9-0.8,1-1.4c0.1-0.5,0.2-0.9,0.2-1.4c0.1-1.8,0.1-3.6,0.2-5.4c0.3-4.3,0.3-8.6,0.4-12.9
		c0.1-3.9,0-7.8,0.2-11.6c0.2-5.2,0.1-10.4,0.2-15.5c0.1-4.6,0-9.2,0.2-13.7c0.2-5,0-10.1,0.2-15.1c0.2-4.7,0-9.4,0.2-14.1
		c0.1-3.2,0-6.4,0.2-9.6c0-0.9,0.1-1.7,0.2-2.7l-4.4-1.9c0,0.2,0.1,0.4,0.1,0.6C175.9,213.1,175.9,215.1,175.8,217.1z"/>
	<path fill="#069B3F" d="M175.3,213.8c0,32.9,0,65.7,0,98.6c0,1.6,0,3.1,0,4.7c0,0.9-0.2,1.8-0.2,2.7c0,0.2,0,0.5,0,0.7
		c0,1.7,0.7,2.6,2,2.7c1.4,0.1,2.4-0.9,2.6-2.5c0.1-0.9,0.1-1.8,0.1-2.7c-0.1-1.4-0.1-2.8,0-4.2c0.2-7.9,0.1-15.7,0.2-23.6
		c0.1-8,0.1-16,0.1-24c0-16.6,0-33.2,0-49.8c0-1.1-0.1-2.1,0.1-3.2c0.1-0.4,0.2-0.8,0.4-1.3l-5.5-2.7c0.1,0.4,0.2,0.9,0.2,1.3
		C175.4,211.6,175.3,212.7,175.3,213.8z"/>
	<path fill="#19539C" d="M241.7,205.6c0.3-1.4,0.5-2.9,0.5-4.3c-0.1-3.9,0-7.8-0.1-11.6c-0.1-3.7-0.2-7.5-0.4-11.2
		c-0.2-3.8-0.3-7.6-0.6-11.3c-0.2-2.6-0.3-5.3-0.5-7.9c-0.1-1.1-0.1-2.2-0.2-3.3c-0.2-3.2-0.5-6.3-0.7-9.5c-0.2-2.3-0.3-4.6-0.4-6.8
		c-0.2-3.2-0.5-6.3-0.7-9.5c-0.2-2.9-0.4-5.7-0.5-8.6c-0.2-3.6-0.4-7.3-0.6-10.9c-0.1-2.8-0.2-5.6-0.4-8.4c-0.1-2.2-0.1-4.4-0.2-6.7
		c-0.1-5.9-0.1-11.8,0-17.7c0-1.1-0.1-2.3,0.3-3.5c0.2,0.5,0.3,0.9,0.5,1.4c0.3,0.8,0.5,1.6,1,2.3c0.5,0.8,1.1,1,2,0.7
		c0.8-0.3,1.6-0.7,2.3-1.1c1.8-1,3.5-2.3,5.3-3.4c0.7-0.4,1.3-0.9,1.9-1.4c1.2-1,2.2-2,3.5-2.9c0.8-0.6,1.7-1.1,2.7-1.4
		c0.2,1.1-0.1,1.9-0.7,2.6c-1.7,1.8-3.4,3.7-5.4,5.3c-2.7,2.3-5.7,4.2-8.7,6.2c-2.8,1.8-3.9,4.5-3.6,7.7c0.1,1.8,1.7,3.1,3.5,2.9
		c0.5-0.1,1-0.3,1.5-0.5c1.2-0.7,2.4-1.3,3.6-1.9c1.9-0.9,3.7-2,5.5-3.2c3.4-2.2,6.5-4.8,9.6-7.4c1.8-1.5,3.7-3,5.6-4.2
		c3.6-2.3,7.4-4.2,11.3-5.9c0.2-0.1,0.4-0.2,0.7-0.2c0,0,0,0,0,0h0c0,0,0,0,0,0c0,0,0-0.1,0-0.1c0.1,0.1,0,0.1,0,0.1c0,0,0,0,0,0
		c0,0,0,0,0,0c0,0.1-0.1,0.1-0.1,0.2c0,0.1-0.1,0.1-0.2,0.2c-4,3.1-7.6,6.6-11.3,10.1c-2.7,2.5-5.3,4.9-8.1,7.3
		c-4.5,3.8-9.3,7.2-14.6,9.7c-0.2,0.1-0.4,0.1-0.5,0.4c0.2,0,0.3,0,0.4,0c2.6-0.6,5.2-1.3,7.8-2.1c7.1-2.2,13.9-5.2,20.6-8.4
		c4.5-2.2,9-4.5,13.4-6.9c3.1-1.6,6.1-3.3,9.2-4.8c0.7-0.4,1.4-0.9,2.2-1c0,0,0,0,0,0l0,0c0,0,0,0,0,0c0-0.1,0-0.1,0.1-0.1
		c0.1,0.1,0,0.1-0.1,0.1c0,0,0,0,0,0c0,0,0,0,0,0c0,0.1-0.1,0.2-0.2,0.3c-0.1,0.1-0.2,0.2-0.3,0.3c-0.2,0.2-0.4,0.3-0.5,0.5
		c-1.7,1.4-3.4,2.8-5.1,4.1c-4.9,3.6-10.1,6.8-15.2,10c-1.1,0.7-2.2,1.4-3.5,2.2c0.5,0.1,0.8,0.2,1.1,0.2c2.5,0.2,5,0.4,7.5,0.4
		c4.7,0,9.5-0.1,14.2-0.4c0.8,0,1.5-0.4,1.9-1.1c2.8-4.1,5.7-8.1,8.3-12.3c2.2-3.5,4.1-7.2,5.7-11.1c0.3-0.7,0.5-1.3,0.6-2
		c0.1-1.3-0.7-1.7-1.7-1.7c-0.2,0-0.3,0.1-0.5,0.1c-2.2,0.5-4.5,1-6.7,1.3c-1.7,0.2-3.3,0.5-5,0.6c-3.3,0.2-6.6-0.2-9.9-0.6
		c-2.2-0.3-4.4-0.5-6.5-0.6c-2.7-0.2-5.4,0.3-8.1,0.6c-1.8,0.3-3.5,0.4-5.3,0.1c-4.1-0.8-8.2-1.5-12.3-2.4c-4.4-1-8.8-2.2-13-4.1
		c-3.6-1.6-7.3-3-11.1-4c-2.8-0.7-5.5-1.5-8.4-1.7c-1.6-0.1-2.6,0.3-3.1,1.6c-0.3,0.7-0.4,1.5-0.3,2.3c0.1,1.5,0.3,3,0.3,4.6
		c0.1,2,0.2,3.9,0.3,5.9c0,0.6,0,1.2,0,1.9c-0.4-0.2-0.5-0.5-0.6-0.8c-1.3-2.2-1.7-4.8-2-7.3c-0.2-2-0.3-3.9-0.8-5.8
		c-0.2-0.8-0.4-1.6-0.9-2.3c-0.6,0.6-0.7,1.3-0.6,2.1c0.2,2.4,0.5,4.7,0.9,7.1c0.4,2.9,0.7,5.7,0.8,8.6c0.2,3.2,0.3,6.5,0.4,9.7
		c0.1,3.5,0.2,6.9,0.4,10.4c0.1,3.6,0.2,7.2,0.4,10.8c0.1,3.7,0.2,7.3,0.4,11c0.1,3.6,0.2,7.2,0.4,10.9c0.1,3.3,0.2,6.7,0.4,10
		c0.1,3.4,0.3,6.8,0.4,10.2c0.1,2.8,0.2,5.5,0.4,8.3c0.2,3,0.3,6.1,0.4,9.1c0.1,1.7,0.1,3.3,0.2,5c0.1,2.8,0.1,5.7,0.1,8.5
		c0,0.7,0,0.7-0.7,0.8c-1.1,0.2-2.3,0.3-3.4,0.4c-0.9,0.1-1,0.1-1-0.8c0-6.5,0.1-13-0.2-19.5c-0.1-2.3,0-4.7-0.2-7.1
		c-0.1-2.2-0.1-4.3-0.2-6.5c-0.1-3.8-0.3-7.6-0.4-11.3c-0.1-4-0.2-7.9-0.4-11.9c-0.1-2.9-0.1-5.7-0.2-8.6c-0.1-2.2-1.1-3.8-3-4.9
		c-4.2-2.2-8.3-4.7-12.4-7.1c-0.2-0.1-0.5-0.3-0.7-0.5c-0.2-0.3-0.5-0.5-0.3-0.9c0.2-0.4,0.6-0.4,0.9-0.3c0.2,0,0.5,0.1,0.7,0.1
		c0.3,0,0.5,0,0.7-0.3c0.1-0.2,0-0.4-0.1-0.6c-0.3-0.5-0.6-1-1-1.4c-1.2-1.6-2.6-3-4.5-3.9c-2.2-1.1-4.5-1.1-6.9-0.5
		c-1.1,0.3-2.2,0.5-3.4,0.4c-1.7-0.1-3.5-0.1-5.2-0.1c-2,0-3.9,0-5.9,0c-0.3,0-0.6-0.1-0.8,0.1c0,0.4,0.3,0.5,0.5,0.8
		c2.7,3.1,5.6,6.1,8.6,8.9c3.4,3.2,7,6.3,10.4,9.5c0.5,0.5,1.1,0.9,1.5,1.6c0,0,0.1,0.1,0.1,0.1c-0.1,0.1-0.1,0-0.1-0.1h0l0,0
		c-0.3,0-0.5-0.1-0.7-0.2c-0.1-0.1-0.2-0.2-0.3-0.2c-4.4-2.7-8.4-6-12.2-9.4c-2.8-2.5-5.5-5-8.2-7.6c-0.1-0.1-0.1-0.1-0.2-0.2
		c0,0-0.1-0.1-0.1-0.1c-0.1-0.1-0.3-0.2-0.5-0.3h0l0,0c0,1.3,0,2.6,0,3.9c0,3.6-0.2,7.2,0.2,10.8c0.2,2.5,0.7,5,1.6,7.4
		c1.4,3.6,3,7.2,4.5,10.7c3.8,8.6,7.7,17.2,11.4,25.8c2.3,5.4,4.5,10.8,6.6,16.3c1.2,3.1,2.3,6.3,4,9.1c0.1,0.1,0.2,0.3,0,0.4
		c-1.2,0.2-1.2,0.2-1.7-0.8c-2.7-5.2-5.4-10.4-8-15.7c-4-8.3-7.6-16.7-10.9-25.3c-2-5.4-4-10.9-5.6-16.4c-0.3-1.1-0.7-2.1-1.4-3
		c-0.3-0.4-0.6-0.9-1.3-1.2c0,0.5,0,0.8,0,1.1c0,12,0,24,0,36c0,1.7,0,3.4,0,5.2c0,1.7-0.1,3.3-0.4,4.9c-0.5,2.6-1.7,4.7-4.1,6
		c-1.2,0.7-2.5,1-3.9,1.2c-1,0.2-1.6,0.7-2,1.6c-0.2,0.5-0.4,1.1-0.4,1.7c0,0.6-0.1,1.1-0.3,1.6c-1.2,3.4-1.4,6.9-0.7,10.4
		c0.7,3.7,2.4,6.9,4.6,10c0.3,0.5,0.6,1,0.8,1.5c0.8,2.3,2.3,4,4.5,5.1c1,0.6,2.2,0.9,3.3,1.2c0.6,0.1,1.1,0.3,1.7,0.6
		c1.7,1,3.3,1.9,5,2.8c0.2,0.1,0.6,0.3,0.7,0.5c0.2,0.6,0.7,0.8,1.2,1c4.7,2.6,9.5,5.1,14.3,7.5c6.1,3,12.2,5.8,18.4,8.6
		c0.5,0.2,1,0.5,1.5,0.6c1.8,0.3,3.6,0.2,5.4-0.1c2.5-0.5,4.6-1.7,6.6-3.1c1.9-1.3,3.5-3,4.7-5c0.3-0.4,0.6-0.7,1.1-0.9
		c2-0.7,3.8-1.9,5.2-3.6c0.9-1.1,1.7-2.4,2.2-3.8c0.2-0.5,0.4-0.8,1-0.8c0.4,0,0.9-0.2,1.3-0.3c0.1-0.3,0.1-0.6,0.2-0.9
		c-0.4,0.1-0.9,0.2-1.3,0.2C241.6,206.2,241.6,206.1,241.7,205.6z"/>
	<path fill="#1A1F83" d="M297.6,74.9c0.1-0.1,0.2-0.2,0.3-0.3C297.8,74.7,297.7,74.8,297.6,74.9z"/>
	<path fill="#1A1F83" d="M297.1,75.4c0.2-0.2,0.4-0.3,0.5-0.5C297.5,75.1,297.3,75.2,297.1,75.4z"/>
	<path fill="#1A1F83" d="M279.2,69.8C279.2,69.8,279.2,69.8,279.2,69.8L279.2,69.8C279.2,69.8,279.2,69.8,279.2,69.8z"/>
	<polygon fill="#1A1F83" points="298.1,74.3 298.1,74.3 298.1,74.4 	"/>
	<path fill="#1A1F83" d="M279.2,69.8L279.2,69.8C279.2,69.8,279.2,69.8,279.2,69.8C279.2,69.8,279.2,69.8,279.2,69.8z"/>
	<rect x="279.2" y="69.8" fill="#1A1F83" width="0" height="0"/>
	<path fill="#1A1F83" d="M172.7,93.3c-0.1-0.1-0.3-0.2-0.5-0.3l0,0h0C172.4,93.1,172.6,93.2,172.7,93.3z"/>
	<path fill="#1A1F83" d="M194.4,111L194.4,111c-0.3,0-0.5-0.1-0.7-0.2C193.9,111,194.1,111.1,194.4,111z"/>
	<polygon fill="#1A1F83" points="298.1,74.4 298.1,74.3 298.1,74.4 	"/>
	<rect x="298.1" y="74.3" fill="#1A1F83" width="0" height="0"/>
	<path fill="none" d="M168.9,318.8c1.4,0,2.8-0.3,4.3-0.4c1.6-0.2,3.2-0.3,4.8-0.4c2.5-0.2,5-0.2,7.4,0.2c1.2,0.2,2.4,0.5,3.8,0.8
		c-0.2-1.6-0.1-3-0.2-4.5c-0.3-4-0.4-8-0.5-12c-0.1-10.2,0-20.5,0-30.7c0-17.2,0-34.5,0-51.7c0-0.7,0-1.4,0-2.1
		c-0.1-0.7-0.3-1.4-0.6-2c-0.2-0.3-0.5-0.7-0.9-0.9c-0.1,0.2-0.1,0.3-0.2,0.5l-5.5-2.4c-0.2-0.5-0.4-1-0.9-1.5
		c-0.1,0.3-0.1,0.7-0.2,1l-4.4-1.9c-0.1-0.4-0.4-0.8-0.8-1.2c-0.1,0.2-0.2,0.5-0.3,0.7l-4.4-1.9c-0.1-0.4-0.3-0.7-0.7-0.9
		c-0.4-0.2-0.6-0.2-0.8,0.2c-0.3,0.7-0.5,1.3-0.6,2.1c0,3.1-0.1,6.3-0.2,9.4c-0.1,7,0.1,13.9-0.2,20.9c-0.1,4.2,0,8.3-0.2,12.5
		c-0.1,3.8-0.2,7.6-0.4,11.3c-0.1,3.4-0.2,6.9-0.2,10.3c-0.1,9.7,0.1,19.5-0.2,29.2c0,1.7,0,3.5-0.1,5.2c-0.1,2.6-0.3,5.3-0.4,7.9
		C166.5,318.4,166.9,318.8,168.9,318.8z"/>
	<path fill="none" d="M106.8,59c4.8,4,9.8,7.8,14.9,11.3c8.6,5.9,17.5,11.1,26.7,15.8c0.3,0.2,0.6,0.4,1.1,0.4c0,0.1,0.1,0.1,0.2,0
		c0,0-0.1-0.1-0.1-0.1c-0.3-0.9-0.9-1.4-1.6-2c-4.4-3.5-8.7-7.1-12.7-11c-2.9-2.8-5.7-5.7-8.3-8.8c-1.5-1.8-2.9-3.7-4.2-5.5
		c-0.9-1.2-2.1-1.9-3.7-1.9c-3.7,0-7.4,0-11.1,0c-0.3,0-0.7,0-1,0c-0.2,0-0.4,0-0.5,0.2C106.2,58,106.3,58.6,106.8,59z"/>
	<path fill="none" d="M197,11.9c0.8,0.3,1.4,0.9,1.4,1.7c0.3,2.4,1.1,4.7,2,6.9c0.8,2.1,1.6,4.1,2.1,6.3c0.3,1.2,0.3,2.4-0.3,3.5
		c-0.4,0.8-0.9,1.4-1.6,1.9c-0.4,0.4-0.8,0.8-0.8,1.3c-0.2,1.4,0.1,2.6,1.1,3.6c1.1,1,2.3,0.9,3.2-0.3c0.5-0.6,0.8-1.3,1-2
		c1.4-3.6,2.5-7.3,3.7-11c0.1-0.3,0.2-0.6,0.2-0.9c0.3-2.2,0.1-3.4-2.8-3.8c-0.7-0.1-1.4,0-2.1-0.1c-2.5,0-3.9-1.7-3.6-4.2
		c0.2-1.6,1.2-2.5,2.8-2.5c0.6,0,1.2,0,1.8,0.2c0.5,0.1,0.9,0.2,1.4,0.3c0.5,0.1,1,0,1.2-0.5c0.3-0.5,0.3-1,0-1.5
		c-0.1-0.2-0.2-0.3-0.3-0.5c-1.2-1.4-2.5-2.6-4.1-3.5c-1.5-0.8-3-1.1-4.7-0.7c-1.2,0.3-2.3,0.8-3.2,1.6c-1.3,0.9-2.4,1.9-3.6,3.2
		c0.8,0.3,1.5,0.3,2.2,0.3C195,11.4,196,11.5,197,11.9z"/>
	<path fill="none" d="M149.4,88.6c-0.2-0.1-0.5-0.2-0.7-0.3c-1.1-0.4-2.2-0.7-3.2-1.2c-2.9-1.3-5.8-2.7-8.6-4.2
		c-5-2.6-9.8-5.5-14.5-8.6c-5.4-3.7-10.5-7.8-15.2-12.5c-1.2-1.2-2.3-2.4-3.5-3.5c-0.5-0.5-1-0.9-1.7-0.9c-1.2-0.1-2.4-0.1-3.6-0.1
		c-4.8-0.1-9.6,0.1-14.4-0.2c-1.4-0.1-2.8-0.3-4.3-0.5c-1.4-0.2-2.7-0.5-4-0.8c-0.5-0.1-0.6,0-0.5,0.5c0.2,0.8,0.5,1.6,0.9,2.4
		c2,3.9,4.4,7.6,6.9,11.2c2.7,3.7,5.6,7.2,8.4,10.7c1.9,2.4,4.3,4.2,7.3,5.1c2.2,0.7,4.6,0.8,6.6,0.9c3-0.1,5.8-0.2,8.5-0.3
		c0.5,0,0.6-0.3,0.7-0.7c0.2-0.4,0.1-0.7-0.3-1c-1.4-1-2.7-2-4.1-2.9c-8.7-6-17-12.5-25.2-19.1c-0.2-0.2-0.6-0.3-0.3-0.7
		c0.3-0.5,0.5-0.6,1-0.3c0.5,0.2,1,0.5,1.5,0.9c2.6,2,5.3,4,8,5.8c4.1,2.8,8.3,5.4,12.5,7.8c5.8,3.3,11.6,6.4,17.6,9.3
		c6.4,3.1,12.9,6.2,19.4,9.2c0.6,0.3,1.3,0.5,2,0.7c1.2,0.3,2.1-0.1,2.8-1c0.5-0.6,0.9-1.3,1.1-2.1
		C151.3,90.4,150.9,89.4,149.4,88.6z"/>
	<path fill="none" d="M196.7,320c2.7,0.2,3.9-0.8,3.6-3.4c-0.3-2.4-0.5-4.7-0.7-7.1c-0.2-3.6-0.3-7.3-0.4-11
		c-0.1-3.5-0.2-6.9-0.6-10.4c-0.1-1.2-0.2-2.3-0.2-3.5c0-10.3,0-20.7,0-31c0-1.5,0-3.1,0-4.6c0-9,0-18.1,0-27.1c0-0.4,0-0.8,0-1.2
		c-0.2-1.1-0.8-1.5-1.9-1.5c-1,0-1.4,0.5-1.5,1.6c0,0.3,0,0.5,0,0.8c0.4,1.7,0.3,3.5,0.3,5.2c0,11.8-0.1,23.6,0.2,35.4
		c0.1,2.2,0,4.5,0,6.7c-0.1,7.3,0.1,14.6-0.1,21.9c-0.1,3,0,5.9-0.2,8.9c-0.1,2.6-0.2,5.1-0.3,7.7c0,0.5,0,1,0,1.5
		c-0.2,2.6-0.3,5.2-0.5,7.8c0,0.4,0,0.8,0,1.1C194.7,319.2,195.3,319.9,196.7,320z"/>
	<path fill="none" d="M72.9,58.3c-0.4-0.7-0.9-1.2-1.8-1.4c-1-0.2-1.9-0.6-2.7-1.1c-1.2-0.7-2.3-1.5-3.5-2.2
		c-1.1-0.7-2.2-1.3-3.4-1.7c-0.9-0.3-1.8-0.3-2.7-0.5c-0.6-0.1-1.1,0-1.6,0.6c-1.1,1.3-2.6,1.8-4.3,1.6c-1.3-0.1-2.5-0.3-3.8-0.4
		c-0.5-0.1-0.9,0-1.4,0.2c0.1,0.7,0.4,1.4,0.6,2.1c0.3,1-0.3,1.8-1.2,2c-0.8,0.2-1.6,0.3-2.4,0.4c-0.7,0-1.4,0.1-2.2,0.2
		c0.6,0.2,1.1,0.5,1.6,0.7c1.6,0.6,3.1,1.4,4.7,1.8c3.7,0.9,7.4,1.1,11.1,1.3c1.7,0.1,3.4-0.1,5.1,0.1c2.2,0.2,4.4,0,6.6,0.3
		c1.5,0.2,2-0.9,1.9-2.2C73.4,59.4,73.2,58.9,72.9,58.3z"/>
	<path fill="none" d="M157.5,143.3c0-0.8-0.1-1.5,0-2.3c0.3-2.3,0.7-4.6,1-7c0.3-2.4,0.6-4.7,0.9-7.1c0.2-2,0.4-3.9,0.6-5.9
		c0.2-2.4,0.5-4.9,0.7-7.3c0.2-1.7,0.3-3.4,0.4-5c0.2-2.7,0.5-5.4,0.7-8.2c0.2-1.8,0.3-3.5,0.4-5.3c0.2-2.2,0.5-4.5,0.5-6.7
		c0-0.2,0-0.4,0-0.7c0.2-2.1-0.8-3.5-2.6-4.5c-0.9-0.5-1.8-1-2.8-1.4c-0.9-0.4-1.9-1-2.9-1.2c-1-0.2-1.6,0.1-1.9,1.1
		c-0.2,0.5-0.2,1.1-0.2,1.6c0,1.6,0.1,3.2,0,4.9c0,6.6,0.1,13.2-0.2,19.8c-0.1,3.5-0.2,7-0.4,10.5c-0.1,2.6-0.2,5.2-0.4,7.8
		c-0.2,2.7-0.3,5.4-0.5,8.1c-0.1,1.2-0.2,2.4-0.3,3.6c-0.1,1-0.2,2-0.1,3c0,0.7,0.1,1.3,0.1,2c-0.1,0.7-0.2,1.4-0.3,2.2
		c-0.2,1.3,0.4,2.3,1.6,2.7c0.8,0.3,1.7,0.3,2.5,0.2c1.3-0.2,2.2-0.9,2.5-2.2C157.5,145.1,157.5,144.2,157.5,143.3z"/>
	<path fill="none" d="M237,239.1c0.6,1.5,1.2,2.9,2.1,4.2c0.1-0.2,0.1-0.3,0-0.4c-0.4-2-0.6-4.1-0.6-6.2c-0.1-5.5-0.1-10.9-0.1-16.4
		c0-0.1,0-0.3,0-0.4c-0.1-1-0.9-1.5-1.8-1.2c-0.9,0.2-1.3,0.8-1.4,2.1c-0.2,2.7-0.2,5.3-0.2,8C235.1,232.4,235.7,235.8,237,239.1z"
		/>
	<path fill="none" d="M213,56.7c-0.1-0.6-0.1-1.1,0-1.7c0.1-0.7,0.3-1.4,0.3-2.1c0-0.6-0.3-1-0.9-1.2c-1.1-0.4-2.2,0.1-2.5,1.3
		c-0.4,1.9-1,3.8-1,5.7c0,1.3-0.1,2.7-0.4,4c-0.3,1.1-0.9,2-2.1,2.8c0.1-1,0.2-1.9,0.2-2.8c0-0.3,0.1-0.5,0.1-0.8
		c0.2-1.7,0.8-3.3,1.1-4.9c0.3-1.1,0.5-2.3,0.4-3.5c-0.2-2.2-1.3-3.9-3.2-5.1c-0.7-0.5-0.9-1-1-1.8c-0.1-1.5-0.2-2.9-0.2-4.4
		c0-0.7-0.2-1.3-0.4-1.8c-0.1-0.3-0.3-0.5-0.6-0.1c-0.4,0.4-0.8,0.8-1.1,1.2c-0.8,1.1-1.3,2.2-1.8,3.4c-0.5,1-0.9,2-1.4,3
		c-0.3,0.5-0.7,0.9-1.3,1.1c-1.1,0.2-2.1-0.2-2.7-1.2c-0.2-0.3-0.4-0.7-0.6-1.1c-0.5-1.2-1.2-2.3-2-3.4c-1.3-1.7-2.6-3.4-3.4-5.4
		c0-0.1-0.1-0.2-0.2-0.1c-0.2,0.2-0.1,0.5-0.1,0.7c-0.2,1.6-0.2,3.2-0.3,4.7c-0.3,2.6-1.4,4.5-3.8,5.6c-2.1,0.9-2.4,1.9-1.4,4
		c1,2.2,2.1,4.5,3.2,6.7c0.6,1.2,1.3,2.4,1.7,3.7l-0.1,0.1c-0.9-0.5-1.6-1.4-2.2-2.2c-1.8-2.2-3.1-4.8-4-7.4
		c-0.3-0.7-0.5-1.5-0.9-2.2c-0.9-1.6-2.2-2.4-4-2.4c-2.2,0-4.4,0.5-6.6,0.7c-2.5,0.2-4.9,0.4-7.4,0.5c-2.5,0.1-5,0.1-7.4,0.4
		c-3.7,0.4-7.3,1.2-10.8,2.3c-0.2,0.1-0.5,0-0.5,0.3c4.2,3,22.7,11.4,25.3,11.4c-0.1-0.2-0.2-0.3-0.3-0.5c-1.1-1.6-2.4-3-3.6-4.5
		c-1-1.2-2-2.5-2.6-4c-0.1-0.3-0.4-0.5-0.2-0.9c0.3,0.1,0.4,0.3,0.6,0.5c1.8,1.9,3.6,3.7,5.3,5.6c2.8,2.8,5.5,5.6,8.8,7.9
		c3.9,2.9,8.2,4.9,13.1,5.7c0.5,0.1,1.1,0,1.6,0.3c-0.2,0.1-0.3,0.1-0.3,0.2c-2,0.4-4,0.4-5.9-0.2c-3.6-1-6.7-2.8-9.6-5.1
		c-1.2-1-2.4-1.8-4-2.1c-1.1-0.2-2.1-0.6-3.1-0.9c-5-1.6-9.8-3.7-14.5-6c-3.5-1.7-6.8-3.6-10.2-5.3c-2.3-1.2-4.8-1.9-7.4-2.2
		c-3.8-0.4-7.4,0.5-10.8,2.1c-0.2,0.1-0.4,0.1-0.4,0.5c0.2,0.1,0.3,0.2,0.5,0.2c7,2.1,13.5,5.3,19.5,9.3c4.5,3.1,9,6.3,13.8,8.9
		c3.9,2.1,7.8,4,11.8,5.8c3,1.3,6.2,1.6,9.4,1.1c1.6-0.2,3.1-0.8,4.6-1.1c2.4-0.5,4.7-0.7,7.1-0.1c1.9,0.5,3.6,0.2,5.3-0.8
		c1.1-0.7,2.2-1.5,3.3-2.2c2.2-1.4,4.6-2.6,7.2-3.2c0.4-0.1,0.7-0.2,1.1-0.1c0,0.3-0.2,0.4-0.4,0.6c-1.2,1.1-2.5,2-3.8,2.9
		c-1.6,1.2-3.2,2.4-4.6,3.9c-0.5,0.5-1,1-1.2,1.7c0.2,0.1,0.4,0,0.6,0c1.5-0.4,2.9-0.5,4.4-0.5c2.5,0,4.5,0.9,6.3,2.6
		c0.4,0.3,0.7,0.7,1.1,0.9c0.8,0.4,1.6,0.3,2.3-0.3c0.5-0.5,0.9-1,1.1-1.7c0.2-0.7,0.4-1.5,0.4-2.2c0-1.6-0.1-3.1,0.1-4.7
		c0.3-2.7,0.2-5.5-0.1-8.2C214.4,64.5,213.6,60.6,213,56.7z"/>
	<path fill="none" d="M190.4,81.9c-2-0.5-4.1-0.5-6.1-0.2c-2.1,0.4-4.1,1-6.2,1.7c-0.6,0.2-1.2,0.2-1.7,0.6c0.1,0.1,0.2,0.2,0.2,0.2
		c2.1,1.1,4,2.4,6.2,3.3c2.2,1,4.5,1.3,6.9,0.8c3.1-0.7,6.3-1.2,9.4-1.8c2-0.3,4-0.7,6-1.2c-1.9-0.3-3.8-0.5-5.6-1
		C196.4,83.6,193.4,82.7,190.4,81.9z"/>
	<path fill="none" d="M342.5,66.1c-0.5,0-1.1,0-1.6,0.1c-0.5,0.1-0.9,0-1.3-0.1c-0.9-0.3-1.2-1-1.4-1.8c-0.2-0.8,0.1-1.4,0.8-1.8
		c0.5-0.3,1-0.6,1.5-0.8c0-0.1,0-0.1,0-0.2c-0.2,0-0.3,0-0.5,0c-1.9,0-3.9,0.3-5.8,0.2c-2.1-0.1-4.1-0.4-6-1.4
		c-0.5-0.3-1-0.5-1.6-0.5c-1.9-0.1-3.4,0.5-4.6,2c-0.7,0.9-1.6,1.5-2.6,1.8c-0.7,0.3-1.5,0.4-2.3,0.6c-2.5,0.5-3.3,2.3-3.3,4.2
		c0,1.3,0.6,1.9,1.9,1.9c1.5,0,3,0.1,4.5,0.1c3.1,0.1,6.3-0.1,9.4-0.5c4-0.5,7.9-1.4,11.7-2.7c0.7-0.3,1.5-0.5,2.2-0.9
		C343.1,66.1,342.8,66.1,342.5,66.1z"/>
	<path fill="none" d="M160.2,318.9c0.2,0.6,0.7,0.8,1.3,0.8c0.6-0.1,0.9-0.4,0.8-1.1c-0.1-0.9-0.1-1.9-0.1-2.8
		c0.1-3.1,0-6.3,0.2-9.4c0.1-2.6,0-5.3,0.1-7.9c0.1-2.3,0.1-4.6,0.1-7c0-8.7,0-17.5,0-26.2c0-2.6,0-5.2,0-7.8
		c-0.2,4.3-0.1,8.5-0.3,12.8c-0.1,3.9-0.2,7.8-0.4,11.7c-0.2,2.8-0.3,5.5-0.4,8.3c-0.1,3.4-0.2,6.8-0.4,10.2
		c-0.1,2.1-0.1,4.3-0.3,6.4c-0.1,1.2-0.1,2.3-0.2,3.5c-0.2,2.6-0.4,5.2-0.7,7.8C160.1,318.3,160.1,318.6,160.2,318.9z"/>
	<path fill="none" d="M159,209.9c-0.2,3.4-0.3,6.7-0.4,10.1c-0.1,3.2-0.1,6.4-0.2,9.5c-0.2,4.3,0,8.6-0.2,13c-0.1,2.6,0,5.1-0.2,7.7
		c-0.2,2.5,0,5.1-0.2,7.6c-0.1,2-0.1,4.1-0.2,6.1c-0.1,3.8-0.3,7.6-0.4,11.4c-0.1,3-0.2,6.1-0.4,9.1c-0.1,3.3-0.3,6.6-0.4,9.9
		c-0.1,2-0.1,3.9-0.2,5.9c-0.2,3-0.4,6-0.5,8.9c-0.1,2.1-0.2,4.2-0.3,6.4c-0.1,1-0.2,1.9-0.3,2.8c0,0.8,0.3,1.2,1,1.2
		c0.7,0.1,1.1-0.2,1.3-1c0.1-0.3,0.1-0.6,0.1-0.9c0.1-2.4,0-4.8,0.2-7.1c0.2-2.9,0-5.8,0.2-8.8c0.2-3.1,0-6.2,0.2-9.2
		c0.1-2.8,0-5.7,0.2-8.5c0.2-3.1,0-6.2,0.2-9.3c0.1-2.9,0.1-5.7,0.2-8.6c0.1-3.3,0.1-6.6,0.2-9.9c0.1-2.7,0-5.3,0.2-8
		c0.2-3.2,0-6.4,0.2-9.5c0.1-2.9,0.1-5.8,0.2-8.7c0.1-3.4,0.1-6.8,0.2-10.2c0.1-2.5,0-5,0.3-7.5c0.1-1,0.1-2.1,0.2-3.1
		c0.2-2.1,0.2-4.3-0.2-6.4c-0.1-0.4,0-0.9-0.4-1.4C159.3,204.4,159.1,207.1,159,209.9z"/>
	<path fill="none" d="M166.9,159.2c-1.1-0.6-2.3-0.8-3.5-1.1c-1.7-0.4-2.6,0.1-3.5,1.6c-0.1,0.3-0.3,0.5-0.4,0.8
		c-1.1,2.6-1.7,5.3-2.2,8.1c-0.3,1.7-0.4,3.5-0.5,5.2c-0.1,1.3,0,2.7,0,4.2c0.4-0.6,0.5-1.1,0.5-1.7c0.1-1.7,0.3-3.3,0.8-5
		c0.7-2.5,2.1-4.4,4.6-5.3c1.3-0.5,2.7-0.7,4.1-0.6c2,0.1,2.8-1.8,2.4-3.1C168.9,160.9,168.1,159.9,166.9,159.2z"/>
	<path fill="none" d="M170.2,141.6c0-1.9-0.2-3.8-0.3-5.7c-0.1-1.8-0.3-3.7-0.3-5.5c0-6.3,0-12.6,0-18.9c0-6.6,0-13.2,0-19.9
		c0-0.4,0-0.8,0-1.1c0-1.9-1.2-3.2-2.7-4.1c-1.2-0.7-2.3-0.1-2.3,1.3c0,2.3-0.2,4.5-0.4,6.8c-0.2,3.3-0.4,6.5-0.8,9.8
		c-0.3,3.6-0.7,7.1-1,10.7c-0.3,3.3-0.6,6.6-1,9.9c-0.4,3.8-0.8,7.6-1.3,11.3c-0.5,4-1.2,8-1.9,11.9c-0.2,1.1-0.4,2.1-0.4,3.2
		c0,1.2,0.6,1.9,1.6,2.4c0.5,0.2,1,0.3,1.5,0.5c2.1,0.5,4.2,0.7,6.2,1.6c0.2,0.1,0.4,0.1,0.7,0.1c0.9,0.1,1.4-0.2,1.8-1.1
		c0.2-0.5,0.3-1,0.4-1.6c0.4-3.2,0.5-6.3,0.5-9.5C170.3,143,170.2,142.3,170.2,141.6z"/>
	<path fill="none" d="M168.9,318.8c1.4,0,2.8-0.3,4.3-0.4c1.6-0.2,3.2-0.3,4.8-0.4c2.5-0.2,5-0.2,7.4,0.2c1.2,0.2,2.4,0.5,3.8,0.8
		c-0.2-1.6-0.1-3-0.2-4.5c-0.3-4-0.4-8-0.5-12c-0.1-10.2,0-20.5,0-30.7c0-17.2,0-34.5,0-51.7c0-0.7,0-1.4,0-2.1
		c-0.1-0.7-0.3-1.4-0.6-2c-0.2-0.3-0.5-0.7-0.9-0.9c-0.1,0.2-0.1,0.3-0.2,0.5l-5.5-2.4c-0.2-0.5-0.4-1-0.9-1.5
		c-0.1,0.3-0.1,0.7-0.2,1l-4.4-1.9c-0.1-0.4-0.4-0.8-0.8-1.2c-0.1,0.2-0.2,0.5-0.3,0.7l-4.4-1.9c-0.1-0.4-0.3-0.7-0.7-0.9
		c-0.4-0.2-0.6-0.2-0.8,0.2c-0.3,0.7-0.5,1.3-0.6,2.1c0,3.1-0.1,6.3-0.2,9.4c-0.1,7,0.1,13.9-0.2,20.9c-0.1,4.2,0,8.3-0.2,12.5
		c-0.1,3.8-0.2,7.6-0.4,11.3c-0.1,3.4-0.2,6.9-0.2,10.3c-0.1,9.7,0.1,19.5-0.2,29.2c0,1.7,0,3.5-0.1,5.2c-0.1,2.6-0.3,5.3-0.4,7.9
		C166.5,318.4,166.9,318.8,168.9,318.8z"/>
	<path fill="none" d="M196.7,320c2.7,0.2,3.9-0.8,3.6-3.4c-0.3-2.4-0.5-4.7-0.7-7.1c-0.2-3.6-0.3-7.3-0.4-11
		c-0.1-3.5-0.2-6.9-0.6-10.4c-0.1-1.2-0.2-2.3-0.2-3.5c0-10.3,0-20.7,0-31c0-1.5,0-3.1,0-4.6c0-9,0-18.1,0-27.1c0-0.4,0-0.8,0-1.2
		c-0.2-1.1-0.8-1.5-1.9-1.5c-1,0-1.4,0.5-1.5,1.6c0,0.3,0,0.5,0,0.8c0.4,1.7,0.3,3.5,0.3,5.2c0,11.8-0.1,23.6,0.2,35.4
		c0.1,2.2,0,4.5,0,6.7c-0.1,7.3,0.1,14.6-0.1,21.9c-0.1,3,0,5.9-0.2,8.9c-0.1,2.6-0.2,5.1-0.3,7.7c0,0.5,0,1,0,1.5
		c-0.2,2.6-0.3,5.2-0.5,7.8c0,0.4,0,0.8,0,1.1C194.7,319.2,195.3,319.9,196.7,320z"/>
	<path fill="none" d="M197,11.9c0.8,0.3,1.4,0.9,1.4,1.7c0.3,2.4,1.1,4.7,2,6.9c0.8,2.1,1.6,4.1,2.1,6.3c0.3,1.2,0.3,2.4-0.3,3.5
		c-0.4,0.8-0.9,1.4-1.6,1.9c-0.4,0.4-0.8,0.8-0.8,1.3c-0.2,1.4,0.1,2.6,1.1,3.6c1.1,1,2.3,0.9,3.2-0.3c0.5-0.6,0.8-1.3,1-2
		c1.4-3.6,2.5-7.3,3.7-11c0.1-0.3,0.2-0.6,0.2-0.9c0.3-2.2,0.1-3.4-2.8-3.8c-0.7-0.1-1.4,0-2.1-0.1c-2.5,0-3.9-1.7-3.6-4.2
		c0.2-1.6,1.2-2.5,2.8-2.5c0.6,0,1.2,0,1.8,0.2c0.5,0.1,0.9,0.2,1.4,0.3c0.5,0.1,1,0,1.2-0.5c0.3-0.5,0.3-1,0-1.5
		c-0.1-0.2-0.2-0.3-0.3-0.5c-1.2-1.4-2.5-2.6-4.1-3.5c-1.5-0.8-3-1.1-4.7-0.7c-1.2,0.3-2.3,0.8-3.2,1.6c-1.3,0.9-2.4,1.9-3.6,3.2
		c0.8,0.3,1.5,0.3,2.2,0.3C195,11.4,196,11.5,197,11.9z"/>
	<path fill="none" d="M106.8,59c4.8,4,9.8,7.8,14.9,11.3c8.6,5.9,17.5,11.1,26.7,15.8c0.3,0.2,0.6,0.4,1.1,0.4c0,0.1,0.1,0.1,0.2,0
		c0,0-0.1-0.1-0.1-0.1c-0.3-0.9-0.9-1.4-1.6-2c-4.4-3.5-8.7-7.1-12.7-11c-2.9-2.8-5.7-5.7-8.3-8.8c-1.5-1.8-2.9-3.7-4.2-5.5
		c-0.9-1.2-2.1-1.9-3.7-1.9c-3.7,0-7.4,0-11.1,0c-0.3,0-0.7,0-1,0c-0.2,0-0.4,0-0.5,0.2C106.2,58,106.3,58.6,106.8,59z"/>
	<path fill="none" d="M149.4,88.6c-0.2-0.1-0.5-0.2-0.7-0.3c-1.1-0.4-2.2-0.7-3.2-1.2c-2.9-1.3-5.8-2.7-8.6-4.2
		c-5-2.6-9.8-5.5-14.5-8.6c-5.4-3.7-10.5-7.8-15.2-12.5c-1.2-1.2-2.3-2.4-3.5-3.5c-0.5-0.5-1-0.9-1.7-0.9c-1.2-0.1-2.4-0.1-3.6-0.1
		c-4.8-0.1-9.6,0.1-14.4-0.2c-1.4-0.1-2.8-0.3-4.3-0.5c-1.4-0.2-2.7-0.5-4-0.8c-0.5-0.1-0.6,0-0.5,0.5c0.2,0.8,0.5,1.6,0.9,2.4
		c2,3.9,4.4,7.6,6.9,11.2c2.7,3.7,5.6,7.2,8.4,10.7c1.9,2.4,4.3,4.2,7.3,5.1c2.2,0.7,4.6,0.8,6.6,0.9c3-0.1,5.8-0.2,8.5-0.3
		c0.5,0,0.6-0.3,0.7-0.7c0.2-0.4,0.1-0.7-0.3-1c-1.4-1-2.7-2-4.1-2.9c-8.7-6-17-12.5-25.2-19.1c-0.2-0.2-0.6-0.3-0.3-0.7
		c0.3-0.5,0.5-0.6,1-0.3c0.5,0.2,1,0.5,1.5,0.9c2.6,2,5.3,4,8,5.8c4.1,2.8,8.3,5.4,12.5,7.8c5.8,3.3,11.6,6.4,17.6,9.3
		c6.4,3.1,12.9,6.2,19.4,9.2c0.6,0.3,1.3,0.5,2,0.7c1.2,0.3,2.1-0.1,2.8-1c0.5-0.6,0.9-1.3,1.1-2.1
		C151.3,90.4,150.9,89.4,149.4,88.6z"/>
	<path fill="none" d="M237,239.1c0.6,1.5,1.2,2.9,2.1,4.2c0.1-0.2,0.1-0.3,0-0.4c-0.4-2-0.6-4.1-0.6-6.2c-0.1-5.5-0.1-10.9-0.1-16.4
		c0-0.1,0-0.3,0-0.4c-0.1-1-0.9-1.5-1.8-1.2c-0.9,0.2-1.3,0.8-1.4,2.1c-0.2,2.7-0.2,5.3-0.2,8C235.1,232.4,235.7,235.8,237,239.1z"
		/>
	<path fill="none" d="M72.9,58.3c-0.4-0.7-0.9-1.2-1.8-1.4c-1-0.2-1.9-0.6-2.7-1.1c-1.2-0.7-2.3-1.5-3.5-2.2
		c-1.1-0.7-2.2-1.3-3.4-1.7c-0.9-0.3-1.8-0.3-2.7-0.5c-0.6-0.1-1.1,0-1.6,0.6c-1.1,1.3-2.6,1.8-4.3,1.6c-1.3-0.1-2.5-0.3-3.8-0.4
		c-0.5-0.1-0.9,0-1.4,0.2c0.1,0.7,0.4,1.4,0.6,2.1c0.3,1-0.3,1.8-1.2,2c-0.8,0.2-1.6,0.3-2.4,0.4c-0.7,0-1.4,0.1-2.2,0.2
		c0.6,0.2,1.1,0.5,1.6,0.7c1.6,0.6,3.1,1.4,4.7,1.8c3.7,0.9,7.4,1.1,11.1,1.3c1.7,0.1,3.4-0.1,5.1,0.1c2.2,0.2,4.4,0,6.6,0.3
		c1.5,0.2,2-0.9,1.9-2.2C73.4,59.4,73.2,58.9,72.9,58.3z"/>
	<path fill="none" d="M225.5,232.5c0-0.2,0-0.3-0.2-0.4c-0.5-0.3-1.3,0-1.5,0.6c-0.2,0.8-0.4,1.5-0.4,2.3l2.5,1.2
		C225.8,235,225.6,233.8,225.5,232.5z"/>
	<path fill="none" d="M231.8,237.9c-0.1-0.2-0.3-0.4-0.6-0.3c-0.3,0.1-0.3,0.3-0.3,0.5c0,0.1,0,0.2,0,0.4l1.1,0.5
		C232,238.7,232,238.3,231.8,237.9z"/>
	<path fill="none" d="M204.5,248.6c0.2,5.1,0,10.1,0.2,15.2c0.2,4.8,0.1,9.6,0.2,14.4c0.1,5.5,0.1,11,0.2,16.5
		c0.1,5.6,0.1,11.1,0.2,16.7c0,1.3,0,2.7,0,4c0,0.6,0.1,1.2,0.3,1.8c0.4,1,0.9,1.3,1.9,1.3c0.9,0,1.6-0.3,2.4-0.7
		c0.7-0.3,1.3-0.4,2-0.3c3.2,0.6,6.5,0.8,9.8,1.2c3.2,0.4,6.3,0.9,9.4,2c0.7,0.3,1.5,0.4,2.3,0.3c0.9,0,1.5-0.5,1.8-1.4
		c0.2-0.5,0.2-1,0.2-1.5c-0.1-2-0.3-4.1-0.4-6.1c-0.2-3.1-0.5-6.2-0.7-9.3c-0.2-2.9-0.4-5.9-0.6-8.8c-0.2-3.6-0.4-7.3-0.6-10.9
		c-0.1-2.6-0.3-5.2-0.4-7.8c-0.1-3.5-0.2-6.9-0.4-10.4c-0.1-2.1-0.1-4.2-0.2-6.3c-0.1-3.2-0.1-6.5-0.2-9.7c-0.1-3.2,0-6.5-0.1-9.7
		l-1.1-0.5c-0.1,1.1-0.1,2.1-0.2,3.2c-0.1,2.2,0.1,4.4,0.2,6.6c0,1.3,0.1,2.7,0.2,4c0.4,3.9,0.6,7.7,0.7,11.6
		c0.1,4.1,0.2,8.2,0.4,12.3c0.1,2.9,0.2,5.7,0.4,8.6c0.1,2.7,0.2,5.5,0.4,8.2c0.2,3.4,0.3,6.8,0.4,10.2c0.1,4.5,0.1,9.1,0.2,13.6
		c0,0.5-0.1,1.1-0.2,1.6c-0.2,0.8-0.8,1.3-1.6,1.4c-1.2,0.1-1.9-0.4-2.2-1.6c-0.4-1.9-0.8-3.8-0.8-5.7c-0.1-3,0-6-0.1-9.1
		c-0.2-3.5,0-7-0.2-10.5c-0.1-2.2-0.1-4.4-0.2-6.6c-0.1-3.7-0.2-7.4-0.4-11c-0.1-3.1-0.2-6.2-0.4-9.2c-0.1-3-0.3-6-0.4-9
		c-0.1-2.9-0.3-5.8-0.4-8.7c-0.1-3.5-0.2-6.9-0.6-10.4c-0.1-0.6-0.1-1.1-0.2-1.7l-2.5-1.2c0,0.1,0,0.2,0,0.3c0,2,0.2,4.1,0.4,6.1
		c0.2,3.3,0.4,6.5,0.6,9.8c0.1,2.6,0.3,5.2,0.4,7.8c0.1,3.5,0.3,6.9,0.4,10.4c0.1,2,0.1,4.1,0.2,6.1c0.1,2.5,0.1,5,0.2,7.5
		c0.1,2.7,0.1,5.3,0.2,8c0.1,3.2,0.1,6.5,0.2,9.7c0.1,3.4,0.1,6.7,0.3,10.1c0,0.3,0.1,0.7,0.1,1c0.1,1,0.1,2,0,3
		c-0.1,1-0.4,1.9-1.5,2.1c-1.8,0.4-3.3,0-3.6-2.3c0-0.2,0-0.5,0-0.8c0-0.9,0-1.7,0-2.6c0-1.3,0.2-2.5,0.1-3.8
		c-0.1-1.1-0.1-2.2-0.1-3.2c-0.1-4.4,0-8.7-0.2-13.1c-0.1-2.5,0-5-0.2-7.5c-0.1-2-0.1-3.9-0.2-5.9c-0.1-3.8-0.3-7.6-0.4-11.4
		c-0.1-3-0.2-6-0.4-9c-0.1-3.5-0.3-7-0.4-10.5c-0.1-3.2-0.2-6.4-0.4-9.5c-0.1-1.6-0.3-3.1-0.5-4.7l-3.5-1.7l3.5,1.7
		c-0.1-1.1-0.3-2.2-0.4-3.3c-0.1-0.5,0-1.1-0.2-1.6c-1.1,0.4-1.3,0.5-1.2,1.5l-12.1-5.8c-0.2,2.2-0.4,4.4-0.4,6.5
		c0,1.3,0.1,2.5,0.1,3.8C204.4,238.8,204.3,243.7,204.5,248.6z"/>
	<path fill="none" d="M170.2,141.6c0-1.9-0.2-3.8-0.3-5.7c-0.1-1.8-0.3-3.7-0.3-5.5c0-6.3,0-12.6,0-18.9c0-6.6,0-13.2,0-19.9
		c0-0.4,0-0.8,0-1.1c0-1.9-1.2-3.2-2.7-4.1c-1.2-0.7-2.3-0.1-2.3,1.3c0,2.3-0.2,4.5-0.4,6.8c-0.2,3.3-0.4,6.5-0.8,9.8
		c-0.3,3.6-0.7,7.1-1,10.7c-0.3,3.3-0.6,6.6-1,9.9c-0.4,3.8-0.8,7.6-1.3,11.3c-0.5,4-1.2,8-1.9,11.9c-0.2,1.1-0.4,2.1-0.4,3.2
		c0,1.2,0.6,1.9,1.6,2.4c0.5,0.2,1,0.3,1.5,0.5c2.1,0.5,4.2,0.7,6.2,1.6c0.2,0.1,0.4,0.1,0.7,0.1c0.9,0.1,1.4-0.2,1.8-1.1
		c0.2-0.5,0.3-1,0.4-1.6c0.4-3.2,0.5-6.3,0.5-9.5C170.3,143,170.2,142.3,170.2,141.6z"/>
	<path fill="none" d="M190.4,81.9c-2-0.5-4.1-0.5-6.1-0.2c-2.1,0.4-4.1,1-6.2,1.7c-0.6,0.2-1.2,0.2-1.7,0.6c0.1,0.1,0.2,0.2,0.2,0.2
		c2.1,1.1,4,2.4,6.2,3.3c2.2,1,4.5,1.3,6.9,0.8c3.1-0.7,6.3-1.2,9.4-1.8c2-0.3,4-0.7,6-1.2c-1.9-0.3-3.8-0.5-5.6-1
		C196.4,83.6,193.4,82.7,190.4,81.9z"/>
	<path fill="none" d="M213,56.7c-0.1-0.6-0.1-1.1,0-1.7c0.1-0.7,0.3-1.4,0.3-2.1c0-0.6-0.3-1-0.9-1.2c-1.1-0.4-2.2,0.1-2.5,1.3
		c-0.4,1.9-1,3.8-1,5.7c0,1.3-0.1,2.7-0.4,4c-0.3,1.1-0.9,2-2.1,2.8c0.1-1,0.2-1.9,0.2-2.8c0-0.3,0.1-0.5,0.1-0.8
		c0.2-1.7,0.8-3.3,1.1-4.9c0.3-1.1,0.5-2.3,0.4-3.5c-0.2-2.2-1.3-3.9-3.2-5.1c-0.7-0.5-0.9-1-1-1.8c-0.1-1.5-0.2-2.9-0.2-4.4
		c0-0.7-0.2-1.3-0.4-1.8c-0.1-0.3-0.3-0.5-0.6-0.1c-0.4,0.4-0.8,0.8-1.1,1.2c-0.8,1.1-1.3,2.2-1.8,3.4c-0.5,1-0.9,2-1.4,3
		c-0.3,0.5-0.7,0.9-1.3,1.1c-1.1,0.2-2.1-0.2-2.7-1.2c-0.2-0.3-0.4-0.7-0.6-1.1c-0.5-1.2-1.2-2.3-2-3.4c-1.3-1.7-2.6-3.4-3.4-5.4
		c0-0.1-0.1-0.2-0.2-0.1c-0.2,0.2-0.1,0.5-0.1,0.7c-0.2,1.6-0.2,3.2-0.3,4.7c-0.3,2.6-1.4,4.5-3.8,5.6c-2.1,0.9-2.4,1.9-1.4,4
		c1,2.2,2.1,4.5,3.2,6.7c0.6,1.2,1.3,2.4,1.7,3.7l-0.1,0.1c-0.9-0.5-1.6-1.4-2.2-2.2c-1.8-2.2-3.1-4.8-4-7.4
		c-0.3-0.7-0.5-1.5-0.9-2.2c-0.9-1.6-2.2-2.4-4-2.4c-2.2,0-4.4,0.5-6.6,0.7c-2.5,0.2-4.9,0.4-7.4,0.5c-2.5,0.1-5,0.1-7.4,0.4
		c-3.7,0.4-7.3,1.2-10.8,2.3c-0.2,0.1-0.5,0-0.5,0.3c4.2,3,22.7,11.4,25.3,11.4c-0.1-0.2-0.2-0.3-0.3-0.5c-1.1-1.6-2.4-3-3.6-4.5
		c-1-1.2-2-2.5-2.6-4c-0.1-0.3-0.4-0.5-0.2-0.9c0.3,0.1,0.4,0.3,0.6,0.5c1.8,1.9,3.6,3.7,5.3,5.6c2.8,2.8,5.5,5.6,8.8,7.9
		c3.9,2.9,8.2,4.9,13.1,5.7c0.5,0.1,1.1,0,1.6,0.3c-0.2,0.1-0.3,0.1-0.3,0.2c-2,0.4-4,0.4-5.9-0.2c-3.6-1-6.7-2.8-9.6-5.1
		c-1.2-1-2.4-1.8-4-2.1c-1.1-0.2-2.1-0.6-3.1-0.9c-5-1.6-9.8-3.7-14.5-6c-3.5-1.7-6.8-3.6-10.2-5.3c-2.3-1.2-4.8-1.9-7.4-2.2
		c-3.8-0.4-7.4,0.5-10.8,2.1c-0.2,0.1-0.4,0.1-0.4,0.5c0.2,0.1,0.3,0.2,0.5,0.2c7,2.1,13.5,5.3,19.5,9.3c4.5,3.1,9,6.3,13.8,8.9
		c3.9,2.1,7.8,4,11.8,5.8c3,1.3,6.2,1.6,9.4,1.1c1.6-0.2,3.1-0.8,4.6-1.1c2.4-0.5,4.7-0.7,7.1-0.1c1.9,0.5,3.6,0.2,5.3-0.8
		c1.1-0.7,2.2-1.5,3.3-2.2c2.2-1.4,4.6-2.6,7.2-3.2c0.4-0.1,0.7-0.2,1.1-0.1c0,0.3-0.2,0.4-0.4,0.6c-1.2,1.1-2.5,2-3.8,2.9
		c-1.6,1.2-3.2,2.4-4.6,3.9c-0.5,0.5-1,1-1.2,1.7c0.2,0.1,0.4,0,0.6,0c1.5-0.4,2.9-0.5,4.4-0.5c2.5,0,4.5,0.9,6.3,2.6
		c0.4,0.3,0.7,0.7,1.1,0.9c0.8,0.4,1.6,0.3,2.3-0.3c0.5-0.5,0.9-1,1.1-1.7c0.2-0.7,0.4-1.5,0.4-2.2c0-1.6-0.1-3.1,0.1-4.7
		c0.3-2.7,0.2-5.5-0.1-8.2C214.4,64.5,213.6,60.6,213,56.7z"/>
	<path fill="none" d="M342.5,66.1c-0.5,0-1.1,0-1.6,0.1c-0.5,0.1-0.9,0-1.3-0.1c-0.9-0.3-1.2-1-1.4-1.8c-0.2-0.8,0.1-1.4,0.8-1.8
		c0.5-0.3,1-0.6,1.5-0.8c0-0.1,0-0.1,0-0.2c-0.2,0-0.3,0-0.5,0c-1.9,0-3.9,0.3-5.8,0.2c-2.1-0.1-4.1-0.4-6-1.4
		c-0.5-0.3-1-0.5-1.6-0.5c-1.9-0.1-3.4,0.5-4.6,2c-0.7,0.9-1.6,1.5-2.6,1.8c-0.7,0.3-1.5,0.4-2.3,0.6c-2.5,0.5-3.3,2.3-3.3,4.2
		c0,1.3,0.6,1.9,1.9,1.9c1.5,0,3,0.1,4.5,0.1c3.1,0.1,6.3-0.1,9.4-0.5c4-0.5,7.9-1.4,11.7-2.7c0.7-0.3,1.5-0.5,2.2-0.9
		C343.1,66.1,342.8,66.1,342.5,66.1z"/>
	<path fill="none" d="M157.5,143.3c0-0.8-0.1-1.5,0-2.3c0.3-2.3,0.7-4.6,1-7c0.3-2.4,0.6-4.7,0.9-7.1c0.2-2,0.4-3.9,0.6-5.9
		c0.2-2.4,0.5-4.9,0.7-7.3c0.2-1.7,0.3-3.4,0.4-5c0.2-2.7,0.5-5.4,0.7-8.2c0.2-1.8,0.3-3.5,0.4-5.3c0.2-2.2,0.5-4.5,0.5-6.7
		c0-0.2,0-0.4,0-0.7c0.2-2.1-0.8-3.5-2.6-4.5c-0.9-0.5-1.8-1-2.8-1.4c-0.9-0.4-1.9-1-2.9-1.2c-1-0.2-1.6,0.1-1.9,1.1
		c-0.2,0.5-0.2,1.1-0.2,1.6c0,1.6,0.1,3.2,0,4.9c0,6.6,0.1,13.2-0.2,19.8c-0.1,3.5-0.2,7-0.4,10.5c-0.1,2.6-0.2,5.2-0.4,7.8
		c-0.2,2.7-0.3,5.4-0.5,8.1c-0.1,1.2-0.2,2.4-0.3,3.6c-0.1,1-0.2,2-0.1,3c0,0.7,0.1,1.3,0.1,2c-0.1,0.7-0.2,1.4-0.3,2.2
		c-0.2,1.3,0.4,2.3,1.6,2.7c0.8,0.3,1.7,0.3,2.5,0.2c1.3-0.2,2.2-0.9,2.5-2.2C157.5,145.1,157.5,144.2,157.5,143.3z"/>
	<path fill="none" d="M159,209.9c-0.2,3.4-0.3,6.7-0.4,10.1c-0.1,3.2-0.1,6.4-0.2,9.5c-0.2,4.3,0,8.6-0.2,13c-0.1,2.6,0,5.1-0.2,7.7
		c-0.2,2.5,0,5.1-0.2,7.6c-0.1,2-0.1,4.1-0.2,6.1c-0.1,3.8-0.3,7.6-0.4,11.4c-0.1,3-0.2,6.1-0.4,9.1c-0.1,3.3-0.3,6.6-0.4,9.9
		c-0.1,2-0.1,3.9-0.2,5.9c-0.2,3-0.4,6-0.5,8.9c-0.1,2.1-0.2,4.2-0.3,6.4c-0.1,1-0.2,1.9-0.3,2.8c0,0.8,0.3,1.2,1,1.2
		c0.7,0.1,1.1-0.2,1.3-1c0.1-0.3,0.1-0.6,0.1-0.9c0.1-2.4,0-4.8,0.2-7.1c0.2-2.9,0-5.8,0.2-8.8c0.2-3.1,0-6.2,0.2-9.2
		c0.1-2.8,0-5.7,0.2-8.5c0.2-3.1,0-6.2,0.2-9.3c0.1-2.9,0.1-5.7,0.2-8.6c0.1-3.3,0.1-6.6,0.2-9.9c0.1-2.7,0-5.3,0.2-8
		c0.2-3.2,0-6.4,0.2-9.5c0.1-2.9,0.1-5.8,0.2-8.7c0.1-3.4,0.1-6.8,0.2-10.2c0.1-2.5,0-5,0.3-7.5c0.1-1,0.1-2.1,0.2-3.1
		c0.2-2.1,0.2-4.3-0.2-6.4c-0.1-0.4,0-0.9-0.4-1.4C159.3,204.4,159.1,207.1,159,209.9z"/>
	<path fill="none" d="M166.9,159.2c-1.1-0.6-2.3-0.8-3.5-1.1c-1.7-0.4-2.6,0.1-3.5,1.6c-0.1,0.3-0.3,0.5-0.4,0.8
		c-1.1,2.6-1.7,5.3-2.2,8.1c-0.3,1.7-0.4,3.5-0.5,5.2c-0.1,1.3,0,2.7,0,4.2c0.4-0.6,0.5-1.1,0.5-1.7c0.1-1.7,0.3-3.3,0.8-5
		c0.7-2.5,2.1-4.4,4.6-5.3c1.3-0.5,2.7-0.7,4.1-0.6c2,0.1,2.8-1.8,2.4-3.1C168.9,160.9,168.1,159.9,166.9,159.2z"/>
	<path fill="none" d="M160.2,318.9c0.2,0.6,0.7,0.8,1.3,0.8c0.6-0.1,0.9-0.4,0.8-1.1c-0.1-0.9-0.1-1.9-0.1-2.8
		c0.1-3.1,0-6.3,0.2-9.4c0.1-2.6,0-5.3,0.1-7.9c0.1-2.3,0.1-4.6,0.1-7c0-8.7,0-17.5,0-26.2c0-2.6,0-5.2,0-7.8
		c-0.2,4.3-0.1,8.5-0.3,12.8c-0.1,3.9-0.2,7.8-0.4,11.7c-0.2,2.8-0.3,5.5-0.4,8.3c-0.1,3.4-0.2,6.8-0.4,10.2
		c-0.1,2.1-0.1,4.3-0.3,6.4c-0.1,1.2-0.1,2.3-0.2,3.5c-0.2,2.6-0.4,5.2-0.7,7.8C160.1,318.3,160.1,318.6,160.2,318.9z"/>
	<path fill="#069B3F" d="M353.1,59.8c-3.1-0.1-6.2-0.5-9.1-1.7c-1-0.4-2.1-0.9-3-1.5c-0.7-0.5-1.5-0.6-2.3-0.6
		c-2.4,0-4.8,0.5-7.2,0.9c-3.4,0.6-6.6,2-9.7,3.4c-0.9,0.4-1.8,0.7-2.7,1c-0.7,0.2-1.3,0.4-2,0.4c-3.7,0.1-7.3,0.7-11,1.4
		c-2.9,0.5-5.8,0.8-8.7,0.9c-3.2,0.2-6.3-0.2-9.4-0.7c-1.1-0.2-2.1-0.3-3.2-0.4c-2.9-0.2-5.9-0.4-8.8,0c-3.5,0.5-6.9,0.3-10.3-0.3
		c-4.2-0.7-8.3-1.5-12.4-2.8c-3.9-1.2-7.7-2.6-11.6-3.9c-5-1.8-10.1-3.5-15.3-4.7c-3.5-0.8-7.1-1.3-10.8-1.3c-2,0-2.9-1-3-2.9
		c0-0.9,0.1-1.8,0.2-2.7c0.7-6.2,0.4-12.3,0.3-18.5c-0.1-3.2-0.1-6.4-0.2-9.6c-0.1-2.5-0.3-4.9-1.3-7.2c-0.9-2.2-2.5-3.9-4.6-5
		c-1.9-1-4-1.7-6.1-2c-0.2,0-0.4,0-0.5-0.2c-1.1,0-2.3,0-3.4,0c-0.3,0.3-0.7,0.2-1.1,0.3c-4.2,0.9-7.3,3.3-9.5,6.9
		c-1.8,2.9-2.9,6-3.7,9.3c-0.6,2.5-0.8,5-1.2,7.5c-0.4,2.9-0.7,5.8-1.1,8.7c-0.3,2.4-0.6,4.8-0.8,7.2c-0.1,0.9-0.2,1.7-0.4,2.5
		c-0.5,1.9-1.8,3-3.8,3.3c-1.7,0.2-3.5,0.1-5.2,0.2c-4.1,0.2-8.2,0.4-12.3,0.9c-1.3,0.2-2.6,0.4-3.9,0.5c-0.9,0.4-1.8,0.4-2.8,0.5
		c-3.2,0.5-6.4,0.9-9.6,1.3c-0.2,0-0.4,0-0.7,0c-2,0.4-4.1,0.5-6.1,0.8c-3.6,0.5-7.3,1-10.9,1.6c-3.6,0.6-7.2,1.5-10.9,2
		c-1.5,0.2-3,0.3-4.5,0.4c-3,0.2-6,0.4-9,0.3c-4.1-0.1-8.2-0.2-12.3-0.6c-2.4-0.2-4.7-0.4-7.1-0.7c-2.6-0.3-5.1-0.6-7.7-0.8
		C72,54.1,71.3,54,70.5,54c-0.9,0-1.6-0.4-2.3-0.8c-2.3-1.4-4.7-2.4-7.2-3.3c-2.6-0.9-5.3-1.4-8-1.7c-1.9-0.2-3.9-0.4-5.8-0.4
		c-1.3,0-2.4,0.3-3.4,1.3c-1.3,1.3-2.9,1.9-4.7,2c-1.1,0.1-2.2,0-3.3-0.1c-1.1-0.1-2.2,0-3.2,0.4c-1.2,0.5-2.2,1.3-2.7,2.5
		c-0.1,0.3-0.2,0.5-0.4,0.7c0,0.5,0,1,0,1.5c0.2,0.1,0.3,0.3,0.4,0.5c0.3,0.7,0.8,1.3,1.5,1.7c0.6,0.4,1.1,0.8,1.7,1.2
		c3.7,2.1,7.6,3.7,11.7,4.8c3.7,1,7.5,1.5,11.4,1.8c3.2,0.2,6.3,0.1,9.4-0.2c1.7-0.1,3.3,0,4.9,0.6c2.2,0.9,3.5,2.5,4.5,4.6
		c1.6,3.5,3.4,6.9,5.5,10.1c2,3.1,4.2,6.1,6.8,8.7c2.9,2.9,6.2,4.8,10.3,5.4c2,0.3,4.1,0.3,6.1,0.4c2.4,0.1,4.9,0.3,7.3,0.3
		c3,0,6,0,8.9-0.4c1.8-0.3,3.5,0,5.2,0.9c0.5,0.3,1,0.5,1.6,0.7c5.3,2.5,10.8,4.7,16.4,6.5c1.4,0.4,2.8,0.7,4.1,1.3
		c1.9,0.8,3,2.3,3.4,4.3c0.1,0.6,0.1,1.2,0.1,1.8c0,2.6,0,5.2-0.2,7.8c-0.1,2-0.2,4-0.3,6c-0.1,1.2-0.1,2.4-0.2,3.6
		c-0.2,3.2-0.5,6.3-0.7,9.5c-0.2,2.6-0.2,5.1-0.4,7.7c-0.1,1.7-0.1,3.4-0.3,5c-0.2,1.1-0.4,2.3-0.5,3.4c-0.2,2.2,0.6,3.5,2.4,4.1
		c1.2,0.4,1.7,1.1,2.2,2.2c2.3,5.2,3.3,10.6,2.6,16.3c-0.2,1.3-0.2,2.7-0.6,4c-0.1,0.3,0,0.6,0.1,0.8c0.5,1.2,0.8,2.4,1.1,3.6
		c1,3.7,1.4,7.4,0.8,11.2c-0.1,0.5-0.1,0.9,0,1.3c0.5,2,0.8,3.9,1,5.9c0.3,2.3,0.3,4.6,0,6.9c-0.3,2-0.7,4-0.7,6.1
		c0,2.9,0,5.8-0.1,8.8c-0.1,4.9-0.1,9.7-0.2,14.6c-0.1,5.3-0.2,10.6-0.4,15.9c-0.1,2.3,0,4.5-0.2,6.8c0.1,0.1,0.1,0.3,0,0.4
		c0,0.9,0,1.8-0.1,2.7c0.1,0.7,0,1.5,0,2.2c-0.1,3.2-0.2,6.3-0.4,9.5c-0.1,3.1-0.3,6.2-0.4,9.3c-0.1,2.7-0.2,5.5-0.4,8.2
		s-0.3,5.5-0.4,8.2c-0.1,2.5-0.2,5-0.4,7.5c-0.2,2.1-0.1,4.3-0.5,6.4c-0.3,1.2-0.6,2.4-1.9,3c-0.4,0.4-1,0.6-1.5,0.7
		c-1.1,0.4-2.3,0.6-3.4,0.8c-1.3,0.2-2.7,0.4-4,0.8c-1.8,0.5-3,1.6-3.4,3.5c-0.1,0.6-0.2,1.2-0.2,1.8c0,0.9,0,1.8,0,2.7
		c-0.1,1.9-0.9,2.8-2.7,3.1c-0.2,0-0.5,0.1-0.7,0.2c-1.6,0.5-2.7,1.5-3.1,3.2c-0.2,0.8-0.3,1.6-0.3,2.4c-0.1,1.6-0.2,3.2-0.3,4.8
		c-0.2,3.9-0.5,7.8-0.7,11.7c-0.1,2.4-0.3,4.8-0.4,7.1c-0.2,3.6-0.5,7.3-0.7,10.9c-0.1,2.2-0.3,4.3-0.4,6.5c-0.2,3.5-0.5,7-0.7,10.6
		c0,0.7,0,1.3,0,2c0.1,1.3,0.7,1.9,2,2.2c0.2,0,0.5,0,0.7,0.2c45.3,0,90.6,0,136,0c0.1-0.1,0.2-0.2,0.3-0.2c1.3-0.2,2-0.9,2-2.5
		c0-1.1,0-2.2-0.1-3.2c-0.2-3.2-0.5-6.3-0.7-9.5c-0.2-2.2-0.3-4.4-0.4-6.6c-0.2-3.3-0.5-6.6-0.7-9.9c-0.1-1.9-0.3-3.9-0.4-5.8
		c-0.2-3-0.5-6-0.7-8.9c-0.2-3-0.4-6-0.6-9c-0.2-2.6-1.3-3.8-3.9-4.3c-0.4-0.1-0.9-0.2-1.3-0.3c-1.7-0.6-2.2-1.5-2.1-3.3
		c0.1-0.8,0.2-1.5,0.2-2.3c-0.1-2.7-1.3-4.4-3.8-5.4c-0.5-0.2-1-0.3-1.5-0.4c-1.2-0.3-2.5-0.3-3.6-0.7c-1.1-0.4-2.2-0.5-3.4-0.6
		c-2.9-0.3-4.7-1.7-5.5-4.4c-0.3-1-0.4-2.1-0.5-3.2c-0.3-4.2-0.5-8.3-0.8-12.5c-0.2-3.2-0.4-6.5-0.6-9.7c-0.2-4.2-0.4-8.3-0.6-12.5
		c-0.2-4.2-0.4-8.4-0.5-12.6c-0.1-3.2-0.2-6.5-0.3-9.7c0-1.7-0.1-3.5-0.1-5.2c0-1.1,0.3-2.1,1.1-2.8c1.3-1.1,1.7-2.6,1.8-4.3
		c0-1.9-0.1-3.9-0.2-5.8c-0.1-2.1-0.2-4.3-0.4-6.4c-0.3-3.4-0.4-6.8-0.4-10.2c0-2.2,0-4.3,0.3-6.5c0.2-1.8,0.8-3.5,1.9-4.9
		c0.7-0.8,1.2-1.7,1.6-2.7c0.2-0.6,0.2-1.2,0.1-1.9c0-0.2-0.2-0.2-0.4-0.2c-0.4,0.1-0.9,0.3-1.3,0.3c-0.6,0-0.8,0.3-1,0.8
		c-0.5,1.4-1.2,2.7-2.2,3.8c-1.4,1.7-3.2,2.8-5.2,3.6c-0.5,0.2-0.8,0.4-1.1,0.9c-1.2,2-2.8,3.6-4.7,5c-2,1.4-4.1,2.7-6.6,3.1
		c-1.8,0.3-3.6,0.4-5.4,0.1c-0.5-0.1-1-0.3-1.5-0.6c-6.2-2.8-12.3-5.7-18.4-8.6c-4.8-2.4-9.6-4.8-14.3-7.5c-0.5-0.3-1-0.4-1.2-1
		c-0.1-0.2-0.4-0.3-0.7-0.5c-1.7-0.9-3.3-1.9-5-2.8c-0.5-0.3-1.1-0.5-1.7-0.6c-1.2-0.2-2.3-0.6-3.3-1.2c-2.1-1.1-3.7-2.8-4.5-5.1
		c-0.2-0.5-0.5-1-0.8-1.5c-2.2-3-3.9-6.3-4.6-10c-0.7-3.5-0.5-7,0.7-10.4c0.2-0.5,0.3-1,0.3-1.6c0-0.6,0.2-1.1,0.4-1.7
		c0.4-0.9,1-1.4,2-1.6c1.4-0.2,2.7-0.6,3.9-1.2c2.4-1.3,3.6-3.4,4.1-6c0.3-1.6,0.4-3.3,0.4-4.9c0-1.7,0-3.4,0-5.2c0-12,0-24,0-36
		c0-0.3,0-0.7,0-1.1c0.7,0.3,1,0.8,1.3,1.2c0.7,0.9,1.1,1.9,1.4,3c1.7,5.5,3.6,11,5.6,16.4c3.2,8.6,6.9,17,10.9,25.3
		c2.5,5.3,5.2,10.5,8,15.7c0.5,1,0.5,1,1.7,0.8c0.1-0.2,0-0.3,0-0.4c-1.7-2.9-2.9-6-4-9.1c-2.1-5.5-4.3-10.9-6.6-16.3
		c-3.7-8.7-7.6-17.2-11.4-25.8c-1.6-3.6-3.1-7.1-4.5-10.7c-0.9-2.4-1.4-4.9-1.6-7.4c-0.3-3.6-0.1-7.2-0.2-10.8c0-1.3,0-2.6,0-3.9
		c-0.1,0-0.1,0-0.1-0.1c0,0,0.1,0.1,0.1,0.1l0,0c0.2,0.1,0.3,0.2,0.5,0.3c0,0,0.1,0.1,0.1,0.1c0.1,0.1,0.1,0.1,0.2,0.2
		c2.7,2.5,5.4,5.1,8.2,7.6c3.8,3.5,7.8,6.7,12.2,9.4c0.1,0.1,0.2,0.2,0.3,0.2c0.2,0.1,0.4,0.2,0.7,0.2l0,0c-0.4-0.6-1-1.1-1.5-1.6
		c-3.5-3.2-7-6.3-10.4-9.5c-3-2.8-5.9-5.8-8.6-8.9c-0.2-0.2-0.5-0.4-0.5-0.8c0.2-0.3,0.5-0.1,0.8-0.1c2,0,3.9,0,5.9,0
		c1.7,0,3.5,0,5.2,0.1c1.2,0,2.3-0.1,3.4-0.4c2.3-0.6,4.7-0.6,6.9,0.5c1.8,0.9,3.3,2.3,4.5,3.9c0.3,0.5,0.6,0.9,1,1.4
		c0.1,0.2,0.3,0.4,0.1,0.6c-0.1,0.3-0.4,0.3-0.7,0.3c-0.3,0-0.5-0.1-0.7-0.1c-0.4-0.1-0.7-0.1-0.9,0.3c-0.2,0.3,0.1,0.6,0.3,0.9
		c0.2,0.2,0.4,0.4,0.7,0.5c4.1,2.4,8.2,4.8,12.4,7.1c1.9,1,2.9,2.7,3,4.9c0.1,2.9,0.1,5.7,0.2,8.6c0.1,4,0.2,7.9,0.4,11.9
		c0.1,3.8,0.2,7.6,0.4,11.3c0.1,2.2,0,4.3,0.2,6.5c0.2,2.4,0.1,4.7,0.2,7.1c0.3,6.5,0.2,13,0.2,19.5c0,0.9,0.1,1,1,0.8
		c1.1-0.2,2.3-0.3,3.4-0.4c0.7-0.1,0.7-0.1,0.7-0.8c0-2.8,0-5.7-0.1-8.5c-0.1-1.7-0.1-3.3-0.2-5c-0.1-3-0.2-6.1-0.4-9.1
		c-0.1-2.8-0.2-5.5-0.4-8.3c-0.1-3.4-0.3-6.8-0.4-10.2c-0.1-3.3-0.3-6.7-0.4-10c-0.1-3.6-0.3-7.2-0.4-10.9c-0.1-3.7-0.2-7.3-0.4-11
		c-0.1-3.6-0.2-7.2-0.4-10.8c-0.1-3.5-0.3-6.9-0.4-10.4c-0.1-3.2-0.2-6.5-0.4-9.7c-0.2-2.9-0.5-5.8-0.8-8.6
		c-0.3-2.4-0.7-4.7-0.9-7.1c0-0.7,0-1.4,0.6-2.1c0.5,0.7,0.7,1.5,0.9,2.3c0.5,1.9,0.6,3.9,0.8,5.8c0.2,2.5,0.6,5,2,7.3
		c0.2,0.3,0.3,0.6,0.6,0.8c0-0.7,0-1.3,0-1.9c-0.1-2-0.2-3.9-0.3-5.9c-0.1-1.5-0.2-3-0.3-4.6c-0.1-0.8,0-1.6,0.3-2.3
		c0.5-1.3,1.5-1.7,3.1-1.6c2.9,0.2,5.6,1,8.4,1.7c3.8,1,7.5,2.4,11.1,4c4.2,1.8,8.6,3,13,4.1c4.1,0.9,8.2,1.7,12.3,2.4
		c1.8,0.3,3.5,0.2,5.3-0.1c2.7-0.4,5.3-0.8,8.1-0.6c2.2,0.1,4.4,0.4,6.5,0.6c3.3,0.4,6.6,0.8,9.9,0.6c1.7-0.1,3.3-0.4,5-0.6
		c2.3-0.3,4.5-0.8,6.7-1.3c0.2,0,0.3-0.1,0.5-0.1c1.1,0,1.8,0.5,1.7,1.7c-0.1,0.7-0.3,1.4-0.6,2c-1.5,3.9-3.5,7.6-5.7,11.1
		c-2.6,4.2-5.5,8.2-8.3,12.3c-0.5,0.7-1.1,1-1.9,1.1c-4.7,0.3-9.5,0.4-14.2,0.4c-2.5,0-5-0.3-7.5-0.4c-0.3,0-0.6-0.1-1.1-0.2
		c1.2-0.8,2.3-1.5,3.5-2.2c5.1-3.2,10.3-6.4,15.2-10c1.8-1.3,3.5-2.7,5.1-4.1c0.2-0.2,0.4-0.3,0.5-0.5c0.1-0.1,0.2-0.2,0.3-0.3
		c0.1-0.1,0.1-0.2,0.2-0.3c-0.9,0.1-1.5,0.6-2.2,1c-3.1,1.6-6.1,3.2-9.2,4.8c-4.4,2.3-8.9,4.7-13.4,6.9c-6.7,3.2-13.5,6.2-20.6,8.4
		c-2.6,0.8-5.2,1.5-7.8,2.1c-0.1,0-0.2,0-0.4,0c0.1-0.3,0.3-0.3,0.5-0.4c5.4-2.5,10.1-5.9,14.6-9.7c2.8-2.3,5.4-4.8,8.1-7.3
		c3.7-3.4,7.3-6.9,11.3-10.1c0.1,0,0.1-0.1,0.2-0.2c0-0.1,0.1-0.1,0.1-0.2c-0.3-0.1-0.5,0.1-0.7,0.2c-3.9,1.7-7.7,3.6-11.3,5.9
		c-2,1.3-3.8,2.8-5.6,4.2c-3.1,2.6-6.3,5.1-9.6,7.4c-1.8,1.2-3.6,2.3-5.5,3.2c-1.2,0.6-2.4,1.3-3.6,1.9c-0.5,0.3-1,0.5-1.5,0.5
		c-1.7,0.2-3.3-1.1-3.5-2.9c-0.2-3.2,0.9-5.9,3.6-7.7c3-1.9,6-3.9,8.7-6.2c1.9-1.6,3.7-3.4,5.4-5.3c0.7-0.7,1-1.6,0.7-2.6
		c-1,0.3-1.9,0.8-2.7,1.4c-1.2,0.9-2.3,1.9-3.5,2.9c-0.6,0.5-1.2,1-1.9,1.4c-1.8,1.1-3.5,2.3-5.3,3.4c-0.8,0.4-1.5,0.9-2.3,1.1
		c-0.9,0.3-1.4,0.1-2-0.7c-0.5-0.7-0.7-1.5-1-2.3c-0.1-0.4-0.3-0.8-0.5-1.4c-0.3,1.2-0.3,2.4-0.3,3.5c-0.1,5.9-0.1,11.8,0,17.7
		c0.1,2.2,0.1,4.4,0.2,6.7c0.1,2.8,0.2,5.6,0.4,8.4c0.2,3.6,0.4,7.3,0.6,10.9c0.2,2.9,0.3,5.7,0.5,8.6c0.2,3.2,0.5,6.3,0.7,9.5
		c0.2,2.3,0.3,4.6,0.4,6.8c0.2,3.2,0.5,6.3,0.7,9.5c0.1,1.1,0.1,2.2,0.2,3.3c0.2,2.6,0.3,5.3,0.5,7.9c0.2,3.8,0.4,7.5,0.6,11.3
		c0.2,3.7,0.3,7.5,0.4,11.2c0.1,3.9,0.1,7.8,0.1,11.6c0,1.5-0.2,2.9-0.5,4.3c-0.1,0.5,0,0.6,0.5,0.5c0.4-0.1,0.9-0.2,1.3-0.2
		c0.3-0.3,0.2-0.6,0.2-1c0-3.3,0-6.6-0.1-9.9c-0.2-4.8,0-9.5-0.2-14.3c-0.1-4.2-0.3-8.4-0.6-12.6c-0.2-4-0.5-7.9-0.8-11.9
		c-0.3-3.6-0.5-7.2-0.8-10.8c-0.3-3.7-0.5-7.4-0.8-11.1c-0.3-4.3-0.5-8.7-0.8-13c-0.1-1.2-0.2-2.5-0.3-3.7c-0.1-2.2-0.3-4.4-0.4-6.6
		c0-0.4,0-0.8,0.1-1.1c0.2-0.9,0.6-1.3,1.5-1.4c0.4-0.1,0.8-0.1,1.2-0.1c3.1-0.4,6-1.2,9-2.1c3.2-1,6.4-2,9.8-2.6
		c3.6-0.7,7.2-0.7,10.8-0.9c3.4-0.2,6.7-0.1,10.1-0.2c2.7-0.1,5.4-0.1,8.1-0.3c2.2-0.2,4.5-0.3,6.7-0.7c4-0.7,7.2-2.7,9.4-6.1
		c1-1.5,1.9-2.9,2.8-4.4c2.2-3.7,3.9-7.5,4.8-11.7c0.1-0.6,0.4-1.3,0.7-1.9c0.7-1.6,1.9-2.6,3.6-3c1.1-0.2,2.2-0.3,3.3-0.1
		c1,0.1,2,0.2,2.9,0.2c5,0.3,10-0.2,15-1.1c5-1,9.7-2.6,14.1-5.1c0.6-0.3,1.1-0.6,1.6-1c1.4-0.9,2.4-2,2.8-3.7c0-0.3,0-0.6,0-1
		C356.5,60.7,355.4,59.9,353.1,59.8z M71.6,62.3C69.4,62,67.2,62.2,65,62c-1.7-0.1-3.4,0-5.1-0.1c-3.7-0.2-7.5-0.4-11.1-1.3
		c-1.6-0.4-3.2-1.2-4.7-1.8c-0.5-0.2-1-0.4-1.6-0.7c0.8-0.2,1.5-0.2,2.2-0.2c0.8,0,1.6-0.2,2.4-0.4c0.9-0.2,1.5-1,1.2-2
		c-0.2-0.7-0.5-1.4-0.6-2.1c0.5-0.2,0.9-0.3,1.4-0.2c1.3,0.2,2.5,0.4,3.8,0.4c1.7,0.1,3.2-0.3,4.3-1.6c0.4-0.5,0.9-0.7,1.6-0.6
		c0.9,0.2,1.8,0.2,2.7,0.5c1.2,0.3,2.3,1,3.4,1.7c1.2,0.7,2.3,1.5,3.5,2.2c0.8,0.5,1.7,0.9,2.7,1.1c0.9,0.2,1.4,0.7,1.8,1.4
		c0.3,0.5,0.5,1.1,0.6,1.7C73.6,61.3,73.1,62.4,71.6,62.3z M235.3,220.9c0.1-1.2,0.5-1.8,1.4-2.1c1-0.3,1.7,0.2,1.8,1.2
		c0,0.1,0,0.3,0,0.4c0,5.5-0.1,10.9,0.1,16.4c0.1,2.1,0.3,4.1,0.6,6.2c0,0.1,0.1,0.2,0,0.4c-0.9-1.3-1.6-2.8-2.1-4.2
		c-1.3-3.3-1.9-6.7-1.9-10.2C235,226.2,235,223.6,235.3,220.9z M204.6,223.7l12.1,5.8c0-1.1,0.1-1.2,1.2-1.5
		c0.2,0.5,0.2,1.1,0.2,1.6c0.1,1.1,0.3,2.2,0.4,3.3l4.9,2.3c0-0.8,0.2-1.5,0.4-2.3c0.2-0.5,1-0.8,1.5-0.6c0.2,0.1,0.2,0.2,0.2,0.4
		c0.1,1.2,0.3,2.4,0.4,3.6l5,2.4c0-0.1,0-0.2,0-0.4c0-0.2,0-0.5,0.3-0.5c0.2-0.1,0.4,0.1,0.6,0.3c0.3,0.3,0.2,0.7,0.2,1.1
		c0,3.2,0,6.5,0.1,9.7c0.1,3.2,0.1,6.5,0.2,9.7c0.1,2.1,0.1,4.2,0.2,6.3c0.2,3.5,0.3,6.9,0.4,10.4c0.1,2.6,0.2,5.2,0.4,7.8
		c0.2,3.6,0.4,7.3,0.6,10.9c0.2,2.9,0.4,5.9,0.6,8.8c0.2,3.1,0.5,6.2,0.7,9.3c0.1,2,0.3,4.1,0.4,6.1c0,0.5,0,1-0.2,1.5
		c-0.3,0.9-0.9,1.3-1.8,1.4c-0.8,0-1.5-0.1-2.3-0.3c-3-1.1-6.2-1.6-9.4-2c-3.3-0.4-6.6-0.6-9.8-1.2c-0.7-0.1-1.4,0-2,0.3
		c-0.8,0.3-1.5,0.7-2.4,0.7c-1,0-1.5-0.3-1.9-1.3c-0.2-0.6-0.3-1.2-0.3-1.8c0-1.3,0-2.7,0-4c-0.1-5.6-0.1-11.1-0.2-16.7
		c-0.1-5.5-0.1-11-0.2-16.5c-0.1-4.8,0-9.6-0.2-14.4c-0.2-5.1,0-10.1-0.2-15.2c-0.2-4.9-0.1-9.7-0.2-14.6c0-1.3-0.1-2.5-0.1-3.8
		C204.2,228,204.4,225.9,204.6,223.7z M194.5,316.7c0.2-2.6,0.3-5.2,0.5-7.8c0-0.5,0-1,0-1.5c0.1-2.6,0.1-5.1,0.3-7.7
		c0.1-3,0.1-5.9,0.2-8.9c0.3-7.3,0.1-14.6,0.1-21.9c0-2.2,0-4.5,0-6.7c-0.3-11.8-0.1-23.6-0.2-35.4c0-1.7,0.1-3.5-0.3-5.2
		c-0.1-0.2,0-0.5,0-0.8c0.1-1.1,0.6-1.6,1.5-1.6c1.1,0,1.7,0.4,1.9,1.5c0.1,0.4,0,0.8,0,1.2c0,9,0,18.1,0,27.1c0,1.5,0,3.1,0,4.6
		c0,10.3,0,20.7,0,31c0,1.2,0.1,2.3,0.2,3.5c0.3,3.4,0.5,6.9,0.6,10.4c0.1,3.7,0.2,7.3,0.4,11c0.1,2.4,0.4,4.7,0.7,7.1
		c0.3,2.6-0.9,3.7-3.6,3.4c-1.4-0.1-2-0.8-2.2-2.2C194.4,317.5,194.4,317.1,194.5,316.7z M166.5,316.4c0-2.6,0.2-5.3,0.4-7.9
		c0.1-1.7,0-3.5,0.1-5.2c0.3-9.7,0.1-19.5,0.2-29.2c0-3.4,0.1-6.9,0.2-10.3c0.2-3.8,0.2-7.6,0.4-11.3c0.2-4.2,0-8.3,0.2-12.5
		c0.2-7,0.1-13.9,0.2-20.9c0-3.1,0.1-6.3,0.2-9.4c0-0.8,0.2-1.4,0.6-2.1c0.2-0.4,0.5-0.4,0.8-0.2c0.4,0.2,0.6,0.5,0.7,0.9l4.4,1.9
		c0.1-0.2,0.1-0.5,0.3-0.7c0.4,0.3,0.7,0.7,0.8,1.2l4.4,1.9c0.1-0.3,0.1-0.7,0.2-1c0.4,0.5,0.7,1,0.9,1.5l5.5,2.4
		c0.1-0.1,0.1-0.3,0.2-0.5c0.4,0.3,0.7,0.6,0.9,0.9l6.6,2.9l-6.6-2.9c0.4,0.6,0.6,1.3,0.6,2c0.1,0.7,0,1.4,0,2.1
		c0,17.2,0,34.5,0,51.7c0,10.2,0,20.5,0,30.7c0,4,0.2,8,0.5,12c0.1,1.5,0.1,2.9,0.2,4.5c-1.4-0.3-2.6-0.7-3.8-0.8
		c-2.5-0.3-4.9-0.4-7.4-0.2c-1.6,0.1-3.2,0.3-4.8,0.4c-1.4,0.1-2.8,0.4-4.3,0.4C166.9,318.8,166.5,318.4,166.5,316.4z M195.4,7.8
		c1-0.7,2.1-1.2,3.2-1.6c1.7-0.5,3.2-0.1,4.7,0.7c1.6,0.9,2.9,2.1,4.1,3.5c0.1,0.1,0.2,0.3,0.3,0.5c0.3,0.5,0.3,1,0,1.5
		c-0.3,0.5-0.7,0.6-1.2,0.5c-0.5-0.1-0.9-0.1-1.4-0.3c-0.6-0.2-1.2-0.2-1.8-0.2c-1.6,0-2.6,0.9-2.8,2.5c-0.4,2.5,1.1,4.1,3.6,4.2
		c0.7,0,1.4,0,2.1,0.1c2.9,0.4,3.1,1.7,2.8,3.8c0,0.3-0.1,0.6-0.2,0.9c-1.2,3.7-2.3,7.4-3.7,11c-0.3,0.7-0.6,1.4-1,2
		c-0.9,1.2-2.1,1.3-3.2,0.3c-1-1-1.3-2.2-1.1-3.6c0.1-0.6,0.4-1,0.8-1.3c0.6-0.5,1.2-1.1,1.6-1.9c0.5-1.1,0.6-2.3,0.3-3.5
		c-0.5-2.2-1.3-4.2-2.1-6.3c-0.9-2.3-1.7-4.5-2-6.9c-0.1-0.9-0.6-1.4-1.4-1.7c-0.9-0.4-1.9-0.5-2.9-0.5c-0.7,0-1.4,0-2.2-0.3
		C193,9.7,194.2,8.8,195.4,7.8z M106.5,57.4c0.1-0.2,0.3-0.2,0.5-0.2c0.3,0,0.7,0,1,0c3.7,0,7.4,0,11.1,0c1.6,0,2.8,0.6,3.7,1.9
		c1.4,1.9,2.7,3.7,4.2,5.5c2.6,3.1,5.4,6,8.3,8.8c4,3.9,8.3,7.5,12.7,11c0.7,0.5,1.3,1.1,1.6,2c0,0,0.1,0.1,0.1,0.1
		c-0.1,0.1-0.1,0-0.2,0c-0.4,0-0.7-0.2-1.1-0.4c-9.2-4.7-18.2-9.9-26.7-15.8c-5.1-3.5-10.1-7.3-14.9-11.3
		C106.3,58.6,106.2,58,106.5,57.4z M149.8,94.2c-0.7,0.9-1.6,1.3-2.8,1c-0.7-0.2-1.3-0.4-2-0.7c-6.5-3.1-12.9-6.1-19.4-9.2
		c-6-2.9-11.9-6-17.6-9.3c-4.3-2.5-8.5-5-12.5-7.8c-2.7-1.9-5.4-3.8-8-5.8c-0.5-0.4-1-0.6-1.5-0.9c-0.5-0.2-0.7-0.1-1,0.3
		c-0.3,0.4,0,0.6,0.3,0.7c8.2,6.6,16.5,13.1,25.2,19.1c1.4,1,2.7,2,4.1,2.9c0.4,0.3,0.4,0.6,0.3,1c-0.1,0.4-0.2,0.7-0.7,0.7
		c-2.8,0.1-5.5,0.2-8.5,0.3c-2.1-0.1-4.4-0.2-6.6-0.9c-3-0.9-5.4-2.7-7.3-5.1c-2.8-3.6-5.8-7-8.4-10.7c-2.6-3.6-4.9-7.3-6.9-11.2
		c-0.4-0.8-0.7-1.6-0.9-2.4c-0.1-0.5,0-0.6,0.5-0.5c1.3,0.3,2.7,0.6,4,0.8c1.4,0.2,2.8,0.4,4.3,0.5c4.8,0.4,9.6,0.1,14.4,0.2
		c1.2,0,2.4,0.1,3.6,0.1c0.7,0,1.3,0.4,1.7,0.9c1.2,1.2,2.3,2.4,3.5,3.5c4.6,4.6,9.7,8.8,15.2,12.5c4.7,3.2,9.5,6,14.5,8.6
		c2.8,1.5,5.7,2.9,8.6,4.2c1,0.5,2.1,0.8,3.2,1.2c0.2,0.1,0.5,0.2,0.7,0.3c1.5,0.8,1.9,1.9,1.4,3.5
		C150.7,92.9,150.3,93.6,149.8,94.2z M154.7,148.2c-0.9,0.1-1.7,0.1-2.5-0.2c-1.2-0.4-1.8-1.4-1.6-2.7c0.1-0.7,0.2-1.4,0.3-2.2
		c0.1-0.7,0-1.3-0.1-2c-0.1-1,0-2,0.1-3c0.1-1.2,0.2-2.4,0.3-3.6c0.2-2.7,0.3-5.4,0.5-8.1c0.2-2.6,0.3-5.2,0.4-7.8
		c0.2-3.5,0.3-7,0.4-10.5c0.3-6.6,0.1-13.2,0.2-19.8c0-1.6,0-3.2,0-4.9c0-0.5,0-1.1,0.2-1.6c0.3-1,0.9-1.3,1.9-1.1
		c1,0.2,2,0.8,2.9,1.2c0.9,0.4,1.9,1,2.8,1.4c1.8,0.9,2.8,2.4,2.6,4.5c0,0.2,0,0.4,0,0.7c-0.1,2.3-0.3,4.5-0.5,6.7
		c-0.2,1.8-0.3,3.5-0.4,5.3c-0.2,2.7-0.5,5.4-0.7,8.2c-0.1,1.7-0.3,3.4-0.4,5c-0.2,2.4-0.5,4.9-0.7,7.3c-0.2,2-0.4,3.9-0.6,5.9
		c-0.3,2.4-0.6,4.7-0.9,7.1c-0.3,2.3-0.7,4.6-1,7c-0.1,0.7,0,1.5,0,2.3c0,0.9-0.1,1.8-0.3,2.7C156.9,147.3,156,148,154.7,148.2z
		 M161,306.7c0.1-2.1,0.2-4.3,0.3-6.4c0.2-3.4,0.3-6.8,0.4-10.2c0.1-2.8,0.2-5.5,0.4-8.3c0.2-3.9,0.3-7.8,0.4-11.7
		c0.1-4.3,0-8.5,0.3-12.8c0,2.6,0,5.2,0,7.8c0,8.7,0,17.5,0,26.2c0,2.3,0,4.6-0.1,7c-0.1,2.6,0,5.3-0.1,7.9
		c-0.2,3.1-0.1,6.3-0.2,9.4c0,1-0.1,1.9,0.1,2.8c0.1,0.7-0.2,1-0.8,1.1c-0.6,0.1-1.1-0.2-1.3-0.8c-0.1-0.3-0.2-0.6-0.2-0.9
		c0.2-2.6,0.5-5.2,0.7-7.8C160.8,309,160.9,307.9,161,306.7z M159.9,202.9c0.3,2.1,0.4,4.2,0.2,6.4c-0.1,1-0.1,2.1-0.2,3.1
		c-0.2,2.5-0.2,5-0.3,7.5c-0.1,3.4-0.1,6.8-0.2,10.2c-0.1,2.9,0,5.8-0.2,8.7c-0.2,3.2,0,6.4-0.2,9.5c-0.1,2.7,0,5.3-0.2,8
		c-0.2,3.3-0.1,6.6-0.2,9.9c-0.1,2.9,0,5.7-0.2,8.6c-0.2,3.1,0,6.2-0.2,9.3c-0.1,2.8,0,5.7-0.2,8.5c-0.2,3.1,0,6.2-0.2,9.2
		c-0.1,2.9,0,5.9-0.2,8.8c-0.1,2.4,0,4.8-0.2,7.1c0,0.3-0.1,0.6-0.1,0.9c-0.2,0.7-0.6,1-1.3,1c-0.7-0.1-1-0.4-1-1.2
		c0.1-0.9,0.2-1.9,0.3-2.8c0.1-2.1,0.2-4.2,0.3-6.4c0.1-3,0.4-6,0.5-8.9c0.1-2,0.2-3.9,0.2-5.9c0.2-3.3,0.3-6.6,0.4-9.9
		c0.1-3,0.3-6.1,0.4-9.1c0.1-3.8,0.3-7.6,0.4-11.4c0.1-2,0-4.1,0.2-6.1c0.2-2.5,0-5.1,0.2-7.6c0.2-2.6,0.1-5.1,0.2-7.7
		c0.2-4.3,0.1-8.6,0.2-13c0.1-3.2,0.1-6.4,0.2-9.5c0.1-3.4,0.2-6.7,0.4-10.1c0.1-2.8,0.4-5.5,0.6-8.4
		C159.9,202,159.9,202.4,159.9,202.9z M166.9,165.4c-1.4-0.1-2.8,0.1-4.1,0.6c-2.5,0.9-3.9,2.8-4.6,5.3c-0.5,1.6-0.7,3.3-0.8,5
		c0,0.6-0.1,1.1-0.5,1.7c0-1.5-0.1-2.9,0-4.2c0.1-1.7,0.2-3.5,0.5-5.2c0.4-2.8,1.1-5.5,2.2-8.1c0.1-0.3,0.2-0.5,0.4-0.8
		c0.8-1.5,1.8-1.9,3.5-1.6c1.2,0.3,2.4,0.5,3.5,1.1c1.3,0.7,2,1.7,2.4,3C169.7,163.6,168.9,165.5,166.9,165.4z M169.8,153.2
		c-0.1,0.5-0.2,1.1-0.4,1.6c-0.3,0.9-0.8,1.2-1.8,1.1c-0.2,0-0.5,0-0.7-0.1c-2-0.9-4.1-1.1-6.2-1.6c-0.5-0.1-1-0.3-1.5-0.5
		c-1-0.4-1.6-1.2-1.6-2.4c0-1.1,0.2-2.1,0.4-3.2c0.7-4,1.4-7.9,1.9-11.9c0.5-3.8,1-7.6,1.3-11.3c0.3-3.3,0.7-6.6,1-9.9
		c0.3-3.6,0.6-7.1,1-10.7c0.3-3.3,0.6-6.5,0.8-9.8c0.1-2.3,0.4-4.5,0.4-6.8c0-1.4,1.1-2,2.3-1.3c1.5,0.9,2.7,2.1,2.7,4.1
		c0,0.4,0,0.8,0,1.1c0,6.6,0,13.2,0,19.9c0,6.3,0,12.6,0,18.9c0,1.8,0.2,3.7,0.3,5.5c0.1,1.9,0.3,3.8,0.3,5.7c0,0.7,0.1,1.4,0.1,2.1
		C170.3,146.9,170.2,150.1,169.8,153.2z M199.1,86.5c-3.2,0.5-6.3,1.1-9.4,1.8c-2.4,0.6-4.7,0.2-6.9-0.8c-2.2-0.9-4.2-2.2-6.2-3.3
		c-0.1,0-0.1-0.1-0.2-0.2c0.5-0.3,1.2-0.4,1.7-0.6c2-0.6,4.1-1.3,6.2-1.7c2.1-0.4,4.1-0.4,6.1,0.2c3,0.8,6,1.8,9.1,2.5
		c1.9,0.4,3.7,0.7,5.6,1C203.1,85.9,201.1,86.2,199.1,86.5z M214.9,76.7c-0.1,1.5-0.1,3.1-0.1,4.7c0,0.8-0.1,1.5-0.4,2.2
		c-0.2,0.6-0.5,1.2-1.1,1.7c-0.7,0.6-1.4,0.7-2.3,0.3c-0.4-0.2-0.8-0.6-1.1-0.9c-1.8-1.6-3.8-2.6-6.3-2.6c-1.5,0-3,0.1-4.4,0.5
		c-0.2,0-0.4,0.1-0.6,0c0.3-0.7,0.8-1.1,1.2-1.7c1.3-1.5,2.9-2.7,4.6-3.9c1.3-0.9,2.6-1.8,3.8-2.9c0.2-0.1,0.4-0.2,0.4-0.6
		c-0.4-0.1-0.7,0-1.1,0.1c-2.6,0.6-5,1.8-7.2,3.2c-1.1,0.7-2.2,1.5-3.3,2.2c-1.6,1-3.4,1.4-5.3,0.8c-2.4-0.7-4.7-0.4-7.1,0.1
		c-1.6,0.3-3.1,0.9-4.6,1.1c-3.3,0.5-6.4,0.1-9.4-1.1c-4-1.7-8-3.7-11.8-5.8c-4.8-2.6-9.3-5.8-13.8-8.9c-6-4.1-12.5-7.3-19.5-9.3
		c-0.2-0.1-0.3-0.1-0.5-0.2c0-0.3,0.3-0.4,0.4-0.5c3.4-1.6,7-2.5,10.8-2.1c2.6,0.2,5,1,7.4,2.2c3.4,1.7,6.8,3.6,10.2,5.3
		c4.7,2.3,9.5,4.4,14.5,6c1,0.3,2.1,0.7,3.1,0.9c1.6,0.3,2.8,1.2,4,2.1c2.9,2.3,6,4.1,9.6,5.1c2,0.5,4,0.5,5.9,0.2
		c0.1,0,0.2-0.1,0.3-0.2c-0.5-0.4-1.1-0.3-1.6-0.3c-4.9-0.8-9.1-2.8-13.1-5.7c-3.2-2.3-6-5.1-8.8-7.9c-1.8-1.8-3.6-3.7-5.3-5.6
		c-0.2-0.2-0.3-0.4-0.6-0.5c-0.1,0.4,0.1,0.6,0.2,0.9c0.6,1.5,1.6,2.7,2.6,4c1.2,1.5,2.6,2.9,3.6,4.5c0.1,0.2,0.2,0.3,0.3,0.5
		c-2.6,0-21.1-8.4-25.3-11.4c0-0.3,0.3-0.3,0.5-0.3c3.5-1.1,7.1-1.9,10.8-2.3c2.5-0.3,4.9-0.3,7.4-0.4c2.5-0.1,4.9-0.2,7.4-0.5
		c2.2-0.2,4.4-0.7,6.6-0.7c1.9,0,3.1,0.8,4,2.4c0.4,0.7,0.6,1.5,0.9,2.2c1,2.7,2.2,5.2,4,7.4c0.7,0.8,1.3,1.6,2.2,2.2l0.1-0.1
		c-0.4-1.3-1.1-2.5-1.7-3.7c-1.1-2.2-2.1-4.5-3.2-6.7c-1-2.1-0.7-3.1,1.4-4c2.5-1.1,3.6-3,3.8-5.6c0.2-1.6,0.1-3.2,0.3-4.7
		c0-0.2-0.1-0.5,0.1-0.7c0.1,0,0.2,0.1,0.2,0.1c0.8,2,2.1,3.7,3.4,5.4c0.8,1,1.5,2.1,2,3.4c0.2,0.4,0.3,0.8,0.6,1.1
		c0.6,0.9,1.6,1.4,2.7,1.2c0.6-0.1,1-0.5,1.3-1.1c0.5-1,0.9-2,1.4-3c0.5-1.2,1.1-2.4,1.8-3.4c0.3-0.4,0.7-0.8,1.1-1.2
		c0.3-0.3,0.5-0.2,0.6,0.1c0.2,0.6,0.5,1.2,0.4,1.8c-0.1,1.5,0.1,2.9,0.2,4.4c0.1,0.8,0.3,1.4,1,1.8c1.8,1.2,3,2.9,3.2,5.1
		c0.1,1.2-0.2,2.3-0.4,3.5c-0.4,1.6-0.9,3.2-1.1,4.9c0,0.3-0.1,0.5-0.1,0.8c0,0.9-0.1,1.8-0.2,2.8c1.2-0.7,1.8-1.6,2.1-2.8
		c0.4-1.3,0.4-2.6,0.4-4c0-2,0.5-3.8,1-5.7c0.3-1.2,1.4-1.7,2.5-1.3c0.6,0.2,0.9,0.6,0.9,1.2c0,0.7-0.2,1.4-0.3,2.1
		c-0.1,0.6-0.1,1.1,0,1.7c0.6,4,1.4,7.9,1.8,11.9C215,71.2,215.1,74,214.9,76.7z M341.2,67.3c-3.8,1.3-7.7,2.2-11.7,2.7
		c-3.1,0.4-6.3,0.6-9.4,0.5c-1.5,0-3-0.1-4.5-0.1c-1.3,0-1.9-0.6-1.9-1.9c0-1.9,0.8-3.8,3.3-4.2c0.8-0.1,1.6-0.3,2.3-0.6
		c1-0.4,1.9-0.9,2.6-1.8c1.1-1.5,2.7-2.2,4.6-2c0.6,0,1.1,0.2,1.6,0.5c1.9,1,3.9,1.3,6,1.4c1.9,0.1,3.9-0.2,5.8-0.2
		c0.2,0,0.3,0,0.5,0c0,0.1,0,0.1,0,0.2c-0.5,0.3-1,0.6-1.5,0.8c-0.7,0.4-1,1-0.8,1.8c0.2,0.8,0.5,1.5,1.4,1.8
		c0.4,0.1,0.8,0.2,1.3,0.1c0.5-0.1,1.1-0.1,1.6-0.1c0.3,0,0.6,0,0.9,0.3C342.7,66.8,342,67,341.2,67.3z"/>
	<path fill="#069B3F" d="M222.9,242.6c0.1,3,0.2,6.1,0.4,9.1c0.1,3.2,0.3,6.3,0.4,9.5c0.1,3.2,0.3,6.5,0.4,9.7
		c0.2,3.9,0.3,7.7,0.4,11.6c0.1,2.3,0,4.6,0.2,6.9c0.2,3.7,0.1,7.3,0.2,11c0.1,3.2,0.1,6.3,0.1,9.5c0,2,0.4,4,0.8,6
		c0.3,1.3,1,1.8,2.2,1.7c0.8-0.1,1.4-0.6,1.6-1.4c0.1-0.5,0.2-1.1,0.2-1.7c-0.1-4.8-0.1-9.5-0.2-14.3c-0.1-3.6-0.2-7.1-0.4-10.7
		c-0.1-2.9-0.3-5.7-0.4-8.6c-0.1-3-0.3-6-0.4-9c-0.2-4.3-0.3-8.6-0.4-12.9c-0.1-4.1-0.3-8.1-0.7-12.2c-0.1-1.4-0.2-2.8-0.2-4.2
		c-0.1-2.3-0.3-4.6-0.2-6.9c0-1.1,0.1-2.2,0.2-3.3l-5-2.5c0.1,0.6,0.1,1.2,0.2,1.8C222.7,235.4,222.8,239,222.9,242.6z"/>
	<path fill="#069B3F" d="M212.4,241.6c0.1,3.7,0.3,7.3,0.4,11c0.1,3.1,0.2,6.3,0.4,9.4c0.1,4,0.3,8,0.4,12c0.1,2.1,0,4.1,0.2,6.2
		c0.2,2.6,0.1,5.3,0.2,7.9c0.2,4.6,0.1,9.1,0.2,13.7c0,1.1,0,2.3,0.1,3.4c0.1,1.3-0.1,2.7-0.1,4c0,0.9,0,1.8,0,2.7
		c0,0.3,0,0.5,0,0.8c0.4,2.4,1.8,2.8,3.6,2.4c1.1-0.2,1.4-1.2,1.5-2.2c0.1-1,0.1-2.1,0-3.1c0-0.4-0.1-0.7-0.1-1.1
		c-0.1-3.5-0.2-7.1-0.3-10.6c-0.1-3.4-0.1-6.8-0.2-10.2c-0.1-2.8,0-5.6-0.2-8.4c-0.1-2.6-0.1-5.3-0.2-7.9c-0.1-2.1-0.1-4.3-0.2-6.4
		c-0.1-3.6-0.2-7.3-0.4-10.9c-0.1-2.7-0.2-5.5-0.4-8.2c-0.2-3.4-0.4-6.9-0.6-10.3c-0.1-2.1-0.4-4.2-0.4-6.4c0-0.1,0-0.2,0-0.3
		l-4.9-2.4c0.2,1.6,0.4,3.3,0.5,4.9C212.2,234.9,212.3,238.3,212.4,241.6z"/>
	<polygon fill="#069B3F" points="232,240.5 201.5,225.7 203.3,220.3 232,234.1 	"/>
	<path fill="#FEC300" d="M130.8,347.6c0,0,54.8-7,78.2,2.5c23.4,9.5-40.9,8.2-49.8,8.2c-9,0,23.1,11.4,44,12
		c20.9,0.6,64.6,1.9,24.8,8.2s-69.3,5.1-43,7.6s47.5-3,51.4,3.2c3.9,6.2,3.9,6.2,3.9,6.2l-110.6-0.2c0,0-1.4-6.8-1-12.1
		C128.8,377.9,130.8,347.6,130.8,347.6z"/>
</g>
</svg>
