<?xml version="1.0" encoding="utf-8"?>
<!-- Generator: Adobe Illustrator 18.0.0, SVG Export Plug-In . SVG Version: 6.00 Build 0)  -->
<!DOCTYPE svg PUBLIC "-//W3C//DTD SVG 1.1//EN" "http://www.w3.org/Graphics/SVG/1.1/DTD/svg11.dtd">
<svg version="1.1" id="Layer_1" xmlns="http://www.w3.org/2000/svg" xmlns:xlink="http://www.w3.org/1999/xlink" x="0px" y="0px"
	 viewBox="0 0 400 400" enable-background="new 0 0 400 400" xml:space="preserve">
<g>
	<path fill="#B7A69C" d="M141,105c0,0,8.8-14.8-8.2-25h-13.3v23.3L141,105z"/>
	<path fill="#B7A69C" d="M96.2,106.2c0,0-8.8-14.8,8.2-25h13.3v23.3L96.2,106.2z"/>
	<polygon fill="#BDBEC0" points="104.8,93.6 104.8,74.1 111.8,74.1 111.8,41.9 115.8,36.8 117.6,10 118.7,1.6 119.9,1.6 119.9,93.6 
			"/>
	<polygon fill="#BDBEC0" points="135,93.6 135,74.1 128,74.1 128,41.9 124,36.8 122.2,10 121.1,1.6 119.9,1.6 119.9,93.6 	"/>
	<path fill="#939598" d="M95.8,104.9c0,0-3.8-17,23.7-19.6c0,0,24.9,2.2,23.7,24C141.9,131,95.8,104.9,95.8,104.9z"/>
	<path fill="#997167" d="M89.4,119.9c0,0-2.3-21.3,28.2-21.3s28.2,21.3,28.2,21.3H89.4z"/>
	<path fill="#B7A69C" d="M86,133.9c0,0-2.3-26.9,31.6-26.9s31.6,26.9,31.6,26.9l-0.2,4.3H86V133.9z"/>
	<ellipse fill="#939598" cx="117.6" cy="140.4" rx="31.6" ry="20.5"/>
	<line fill="#A8AAAC" stroke="#A8AAAC" stroke-miterlimit="10" x1="116.6" y1="143.4" x2="117.6" y2="119.9"/>
	<line fill="#A8AAAC" stroke="#A8AAAC" stroke-miterlimit="10" x1="116.6" y1="143.4" x2="135.7" y2="124.3"/>
	<line fill="#A8AAAC" stroke="#A8AAAC" stroke-miterlimit="10" x1="116.6" y1="143.4" x2="147.5" y2="143.4"/>
	<line fill="#A8AAAC" stroke="#A8AAAC" stroke-width="3" stroke-miterlimit="10" x1="116.6" y1="143.4" x2="116.6" y2="160.9"/>
	<line fill="#A8AAAC" stroke="#A8AAAC" stroke-miterlimit="10" x1="116.6" y1="143.4" x2="101.7" y2="158.3"/>
	<line fill="#A8AAAC" stroke="#A8AAAC" stroke-miterlimit="10" x1="118.4" y1="143.4" x2="87" y2="143.4"/>
	<line fill="#A8AAAC" stroke="#A8AAAC" stroke-miterlimit="10" x1="117.5" y1="144.7" x2="97.8" y2="125"/>
	<line fill="#A8AAAC" stroke="#A8AAAC" stroke-miterlimit="10" x1="116.6" y1="143.4" x2="108.2" y2="120.8"/>
	<line fill="#A8AAAC" stroke="#A8AAAC" stroke-miterlimit="10" x1="116.6" y1="143.4" x2="127.5" y2="122.6"/>
	<line fill="#A8AAAC" stroke="#A8AAAC" stroke-miterlimit="10" x1="115.3" y1="143.4" x2="147.8" y2="133.9"/>
	<line fill="#A8AAAC" stroke="#A8AAAC" stroke-miterlimit="10" x1="116.6" y1="143.4" x2="143.2" y2="152.3"/>
	<line fill="#A8AAAC" stroke="#A8AAAC" stroke-width="3" stroke-miterlimit="10" x1="116.6" y1="143.4" x2="128.7" y2="161.1"/>
	<line fill="#A8AAAC" stroke="#A8AAAC" stroke-miterlimit="10" x1="116.6" y1="143.4" x2="93" y2="150.8"/>
	<line fill="#A8AAAC" stroke="#A8AAAC" stroke-miterlimit="10" x1="116.6" y1="143.4" x2="89.3" y2="133"/>
	<path fill="#D2D3D4" d="M99.1,360.3l7-201.2c0,0-2.6-20.8,10.5-20.8s12.2,24.3,12.2,24.3l0,197.8v19.1l-29.7,13h-8.3L99.1,360.3z"
		/>
	<path fill="#371A13" d="M49.8,302.7c0,0,7.4-32.9-1.8-41.7c0,0,72.3,0,116.9-35.5c0,0,68.8,32.8,133.1,16.2c0,0,4.8,29.8,21.5,41.6
		l-12.3,11L179,253.1L49.8,302.7z"/>
	<path fill="#D0E8CF" d="M63,306.1l-13.1-3.4c0,0,13.6-10.4,6.6-36.8c0,0,62.6,4.3,110.8-33c0,0,52.6,28.9,129.2,15.8
		c0,0-0.9,29.8,20.1,39.4L290,304.6l-116.7-25.7l-28-7.4L63,306.1z"/>
	<line fill="none" stroke="#90C5B0" stroke-miterlimit="10" x1="295.9" y1="249.3" x2="256.8" y2="288.8"/>
	<line fill="none" stroke="#90C5B0" stroke-miterlimit="10" x1="167.7" y1="233.6" x2="173.8" y2="274.9"/>
	<line fill="none" stroke="#90C5B0" stroke-miterlimit="10" x1="57.3" y1="265.9" x2="99.6" y2="297.8"/>
	<line fill="none" stroke="#90C5B0" stroke-miterlimit="10" x1="49.8" y1="302.7" x2="90.8" y2="306.1"/>
	<line fill="none" stroke="#90C5B0" stroke-miterlimit="10" x1="314.2" y1="287" x2="275.2" y2="300.7"/>
	<line fill="none" stroke="#90C5B0" stroke-miterlimit="10" x1="223.6" y1="249.3" x2="223.6" y2="288.1"/>
	<line fill="none" stroke="#90C5B0" stroke-miterlimit="10" x1="239.9" y1="251.6" x2="231.6" y2="290.3"/>
	<line fill="none" stroke="#90C5B0" stroke-miterlimit="10" x1="256.8" y1="251.6" x2="239.9" y2="291"/>
	<line fill="none" stroke="#90C5B0" stroke-miterlimit="10" x1="273.1" y1="251.6" x2="246.5" y2="290.3"/>
	<line fill="none" stroke="#90C5B0" stroke-miterlimit="10" x1="181.3" y1="239.1" x2="183.9" y2="274"/>
	<line fill="none" stroke="#90C5B0" stroke-miterlimit="10" x1="192.8" y1="243" x2="192.8" y2="274"/>
	<line fill="none" stroke="#90C5B0" stroke-miterlimit="10" x1="204" y1="246" x2="204" y2="281.9"/>
	<line fill="none" stroke="#90C5B0" stroke-miterlimit="10" x1="213.6" y1="248.1" x2="213.6" y2="281.9"/>
	<line fill="none" stroke="#90C5B0" stroke-miterlimit="10" x1="298.4" y1="263.9" x2="265.8" y2="291"/>
	<line fill="none" stroke="#90C5B0" stroke-miterlimit="10" x1="303.8" y1="274.9" x2="269.6" y2="295.2"/>
	<line fill="none" stroke="#90C5B0" stroke-miterlimit="10" x1="56.4" y1="292.5" x2="85.3" y2="300.8"/>
	<line fill="none" stroke="#90C5B0" stroke-miterlimit="10" x1="58.4" y1="281.9" x2="89.3" y2="296.7"/>
	<line fill="none" stroke="#90C5B0" stroke-miterlimit="10" x1="77.6" y1="265.9" x2="105.4" y2="291"/>
	<line fill="none" stroke="#90C5B0" stroke-miterlimit="10" x1="158.6" y1="239.1" x2="163.1" y2="274"/>
	<line fill="none" stroke="#90C5B0" stroke-miterlimit="10" x1="145.8" y1="246.9" x2="149.2" y2="278.4"/>
	<line fill="none" stroke="#90C5B0" stroke-miterlimit="10" x1="93" y1="264.3" x2="116.6" y2="290.7"/>
	<line fill="none" stroke="#90C5B0" stroke-miterlimit="10" x1="108.2" y1="261.1" x2="127.2" y2="288.7"/>
	<line fill="none" stroke="#90C5B0" stroke-miterlimit="10" x1="119.9" y1="256.9" x2="135" y2="285.7"/>
	<line fill="none" stroke="#90C5B0" stroke-miterlimit="10" x1="131.3" y1="252.9" x2="143.5" y2="288.8"/>
	<path fill="#478270" d="M90.8,323.2L63,306.1c0,0,14-7.9,7-29.8c0,0,43.8,7.9,97.2-23.2c0,0,72.7,17.1,112.1,8.3
		c0,0,3.9,25.9,28,32.9L275,313.5L90.8,323.2z"/>
	<rect x="15.4" y="397" fill="#371A13" width="384.6" height="3.9"/>
	<rect x="26.9" y="393.1" fill="#371A13" width="362.4" height="6"/>
	<rect x="54" y="387.6" fill="#752819" width="292.2" height="6"/>
	<rect x="85.3" y="382.4" fill="#371A13" width="237.4" height="6"/>
	<polygon fill="#C3482E" points="275,313.5 292.9,382.4 281.1,382.4 265.8,319.8 	"/>
	<polygon fill="#644F23" points="105.4,334.2 129.3,338.3 176.6,342.5 235.5,338.3 262,326.6 275,316.3 275,313.5 262,321.9 
		241,333.2 181.8,338.3 134.4,336.3 105.4,330.7 	"/>
	<path fill="#C3482E" d="M126.5,334.6c0,0,3.9-0.9,7.9,0v47.8h-10.1L126.5,334.6z"/>
	<path fill="#C3482E" d="M231.6,334.2c0,0,0.9-5.3,8.3-2.7l10.5,50.9H241L231.6,334.2z"/>
	<polygon fill="#C76E43" points="90.8,323.2 109.7,307.4 164.6,294.3 247.3,300.3 275,314.4 241,334.2 181.8,338.3 134.4,336.3 
		105.6,330.8 	"/>
	<path fill="#F4C78D" d="M90.8,382l6.4-78.5c0,0,7.4-1.8,9.2,0c1.8,1.8-4.4,78.9-4.4,78.9L90.8,382z"/>
	<polygon fill="#C3482E" points="126.5,337.3 149.2,306.1 156.1,306.1 134.4,337.3 	"/>
	<polygon fill="#C3482E" points="231,337.8 241.3,334 214.3,297.8 208.7,302.1 	"/>
	<ellipse fill="#C3482E" cx="181.3" cy="300.8" rx="37.8" ry="9.7"/>
	<polygon fill="#C3482E" points="91.5,316.3 86.3,382.4 91.5,382.4 97.2,316.3 	"/>
	<path fill="#74A295" d="M85.3,319.8l-2.5-34.7c0,0,70.6-11.4,84.9-23.9c0,0,80.3,13.1,105.5,7.9l6.2,41.9l-23.6-11.3l-88.5-11.5
		l-60.9,15.3h-9.2l0.1,12.9h-5.8l-0.7,5.3L85.3,319.8z"/>
	<polygon fill="#478270" points="106.6,310 167.4,294.5 246.5,301.2 275,313.5 279.3,310.9 246.5,296.5 167.2,288.1 106.3,303.5 	
		"/>
	<path fill="#F4C78D" d="M264.9,382.4l-18.4-89.7c0,0,4.4-5,9.2,0l21.9,89.7H264.9z"/>
	<path fill="#F4C78D" d="M172.5,382.4l-5.3-97.2c0,0,3.9-3.3,10.1,0l8.8,97.2H172.5z"/>
	<path fill="#E6E7E7" d="M121.6,115.2c0,1.9-1.6,3.5-3.5,3.5l0,0c-1.9,0-3.5-1.6-3.5-3.5v-3.5c0-1.9,1.6-3.5,3.5-3.5l0,0
		c1.9,0,3.5,1.6,3.5,3.5V115.2z"/>
	<path fill="#E6E7E7" d="M130.5,116.7c0,1.5-1.2,2.7-2.7,2.7l0,0c-1.5,0-2.7-1.2-2.7-2.7v-5.2c0-1.5,1.2-2.7,2.7-2.7l0,0
		c1.5,0,2.7,1.2,2.7,2.7V116.7z"/>
	<path fill="#E6E7E7" d="M111.1,116.4c0,1.5-1.2,2.7-2.7,2.7l0,0c-1.5,0-2.7-1.2-2.7-2.7v-5.2c0-1.5,1.2-2.7,2.7-2.7l0,0
		c1.5,0,2.7,1.2,2.7,2.7V116.4z"/>
	<path fill="#E6E7E7" d="M103,117.9c0,1.1-0.9,2-2,2l0,0c-1.1,0-2-0.9-2-2v-2.4c0-1.1,0.9-2,2-2l0,0c1.1,0,2,0.9,2,2V117.9z"/>
	<path fill="#E6E7E7" d="M96.6,121.2c0,0.8-0.6,1.4-1.4,1.4l0,0c-0.8,0-1.4-0.6-1.4-1.4v-1.9c0-0.8,0.6-1.4,1.4-1.4l0,0
		c0.8,0,1.4,0.6,1.4,1.4V121.2z"/>
	<path fill="#E6E7E7" d="M92.7,125.3c0,0.5-0.4,1-1,1l0,0c-0.5,0-1-0.4-1-1v-2.4c0-0.5,0.4-1,1-1l0,0c0.5,0,1,0.4,1,1V125.3z"/>
	<path fill="#E6E7E7" d="M137.8,118.7c0,1.1-0.9,2.1-2.1,2.1l0,0c-1.1,0-2.1-0.9-2.1-2.1v-3.3c0-1.1,0.9-2.1,2.1-2.1l0,0
		c1.1,0,2.1,0.9,2.1,2.1V118.7z"/>
	<path fill="#E6E7E7" d="M143.2,121.8c0,0.8-0.6,1.4-1.4,1.4l0,0c-0.8,0-1.4-0.6-1.4-1.4v-1.9c0-0.8,0.6-1.4,1.4-1.4l0,0
		c0.8,0,1.4,0.6,1.4,1.4V121.8z"/>
	<path fill="#E6E7E7" d="M146.8,126.2c0,0.5-0.4,1-1,1l0,0c-0.5,0-1-0.4-1-1v-2.4c0-0.5,0.4-1,1-1l0,0c0.5,0,1,0.4,1,1V126.2z"/>
	<rect x="116.6" y="87.4" fill="#BDBEC0" width="4.9" height="9.4"/>
	<rect x="111.1" y="88.6" fill="#BDBEC0" width="3.4" height="8.1"/>
	<rect x="105.8" y="91" fill="#BDBEC0" width="3.4" height="6.8"/>
	<rect x="101.8" y="93.7" fill="#BDBEC0" width="2" height="5"/>
	<rect x="97.8" y="96.7" fill="#BDBEC0" width="2.3" height="3.3"/>
	<rect x="123.9" y="88.6" fill="#BDBEC0" width="3.4" height="8.1"/>
	<rect x="128.8" y="91" fill="#BDBEC0" width="3.4" height="6.8"/>
	<rect x="134.7" y="95.3" fill="#BDBEC0" width="2" height="5"/>
	<rect x="137.8" y="98.7" fill="#BDBEC0" width="2.3" height="3.3"/>
	<rect x="113.3" y="69.6" fill="#F2F2F2" width="5.2" height="4"/>
	<rect x="121.7" y="69.6" fill="#F2F2F2" width="5.2" height="4"/>
	<rect x="113.3" y="50.8" fill="#F2F2F2" width="5.2" height="4"/>
	<rect x="121.7" y="57.2" fill="#F2F2F2" width="5.2" height="4"/>
	<rect x="113.3" y="57.2" fill="#F2F2F2" width="5.2" height="4"/>
	<rect x="121.2" y="63.4" fill="#F2F2F2" width="5.2" height="4"/>
	<rect x="113.3" y="63.4" fill="#F2F2F2" width="5.2" height="4"/>
	<rect x="121.2" y="44.4" fill="#F2F2F2" width="5.2" height="4"/>
	<rect x="113.3" y="44.4" fill="#F2F2F2" width="5.2" height="4"/>
	<rect x="121.7" y="50.8" fill="#F2F2F2" width="5.2" height="4"/>
</g>
</svg>
