<svg xmlns="http://www.w3.org/2000/svg" height="512" width="512" version="1"><defs><clipPath id="a"><path fill-opacity=".67" d="M55.364 0h708.66v708.66H55.364z"/></clipPath></defs><g clip-path="url(#a)" fill-rule="evenodd" transform="matrix(.722 0 0 .722 -40 0)"><path stroke-width="1pt" fill="#0c0" d="M0 0h1063v708.66H0z"/><path stroke-width="1pt" fill="#69f" d="M0 0h1063v354.33H0z"/><path d="M0 0l609.96 353.88L0 707.3V0z" transform="scale(.868 1)" stroke-width="1pt" fill="#fffefe"/><path d="M266.19 534.45l-10.408-7.432-10.357 7.505 3.852-12.196-10.338-7.53 12.79-.106 3.966-12.158 4.052 12.13 12.79.017-10.285 7.6 3.937 12.17z" transform="matrix(4.099 0 0 4.132 -869.84 -1804.1)" stroke-width=".113" fill="#f00"/></g></svg>