<svg xmlns="http://www.w3.org/2000/svg" height="512" width="512" version="1"><g><g fill-rule="evenodd" stroke-width="1pt"><path fill="#ffe800" d="M0 0h511.993v511.984H0z"/><path fill="#00148e" d="M0 255.992h511.993v255.992H0z"/><path fill="#da0010" d="M0 383.993h511.993v128H0z"/></g><g><g fill-rule="evenodd"><path d="M4.8 403.83l23.792 196.9h3.82L8.62 403.83H4.8z" transform="matrix(-.252 -.325 -.247 .333 314.617 111.552)" stroke-width="1pt"/><path d="M4.8 403.83l-7.34 229.84h3.823L8.62 403.83H4.8z" transform="matrix(-.329 -.311 -.322 .319 383.214 126.683)" stroke-width="1pt"/><path d="M478.35 60.236v88.583l17.717 88.582 17.717-88.583V60.235H478.35z" transform="matrix(-.052 -.051 -.067 .068 210.135 349.194)" stroke="#000" stroke-width="4.104" fill="#808080"/><path d="M478.35 60.236v88.583l17.717 88.582 17.717-88.583V60.235H478.35z" transform="matrix(-.052 -.051 -.067 .068 191.679 319.705)" stroke="#000" stroke-width="4.104" fill="#808080"/></g><g><path d="M301.18 272.84s-17.716 336.61 53.15 336.61 106.3-35.433 106.3-35.433l-.86-185.03-158.59-116.15z" fill-rule="evenodd" transform="matrix(.339 0 0 .487 64.717 -20.517)" stroke="#000" stroke-width="1pt" fill="#ffdf00"/><path d="M344.46 304.2c0 17.717-7.846 269.82 27.587 269.82s88.583-17.717 88.583-17.717l-.86-167.31-115.31-84.79z" fill-rule="evenodd" transform="matrix(.339 0 0 .487 64.717 -20.517)" stroke="#000" stroke-width="1pt" fill="#0000c4"/><path d="M367.52 321.16c0 17.717 4.525 217.42 39.958 217.42h53.15l-.86-149.59-92.248-67.833z" fill-rule="evenodd" transform="matrix(.339 0 0 .487 64.717 -20.517)" stroke="#000" stroke-width="1pt" fill="#e10000"/><path d="M4.8 403.83l23.792 196.9h3.82L8.62 403.83H4.8z" fill-rule="evenodd" transform="matrix(.252 -.325 .247 .333 64.717 -20.517)" stroke-width="1pt"/><path d="M301.18 272.84s-35.433 336.61 70.866 336.61c88.583 0 88.583-53.15 106.3-53.15l-17.72-124.02-159.45-159.44z" fill-rule="evenodd" stroke="#000" stroke-width="1pt" fill="#ffdf00" transform="matrix(.441 0 0 .466 17.34 16.951)"/><g stroke="#000"><path d="M269.59 155.24c1.133 0 28.318-94.016 118.94-147.25" transform="matrix(.291 -.021 -.038 .266 112.238 135.893)" stroke-width="2.305" fill="none"/><path d="M421.37-20.327c0 18.133-4.567 31.716-11.328 45.31-5.627-18.125-9.06-27.177-9.06-45.31s6.83-35.114 12.458-48.707c2.23 12.46 7.93 30.574 7.93 48.707z" fill-rule="evenodd" transform="matrix(.105 -.167 .22 .106 142.848 219.132)" stroke-width="1pt" fill="#005b00"/><path d="M454.22-169.28c0 4.066-3.804 7.363-8.495 7.363s-8.496-3.297-8.496-7.363 3.803-7.363 8.495-7.363 8.495 3.297 8.495 7.363z" fill-rule="evenodd" transform="matrix(.137 -.076 .066 .132 144.165 218.615)" stroke-width="1pt" fill="#f00"/><path d="M421.37-20.327c0 18.133-4.567 31.716-11.328 45.31-5.627-18.125-9.06-27.177-9.06-45.31s6.83-35.114 12.458-48.707c2.23 12.46 7.93 30.574 7.93 48.707z" fill-rule="evenodd" transform="matrix(.133 .09 -.097 .252 146.968 97.308)" stroke-width="1pt" fill="#005b00"/><path d="M421.37-20.327c0 18.133-4.567 31.716-11.328 45.31-5.627-18.125-9.06-27.177-9.06-45.31s6.83-35.114 12.458-48.707c2.23 12.46 7.93 30.574 7.93 48.707z" fill-rule="evenodd" transform="matrix(.132 -.023 -.024 .246 145.599 144.885)" stroke-width="1pt" fill="#005b00"/><path d="M421.37-20.327c0 18.133-4.567 31.716-11.328 45.31-5.627-18.125-9.06-27.177-9.06-45.31s6.83-35.114 12.458-48.707c2.23 12.46 7.93 30.574 7.93 48.707z" fill-rule="evenodd" transform="matrix(.047 .191 -.131 .146 182.543 58.727)" stroke-width="1pt" fill="#005b00"/><path d="M421.37-20.327c0 18.133-4.567 31.716-11.328 45.31-5.627-18.125-9.06-27.177-9.06-45.31s6.83-35.114 12.458-48.707c2.23 12.46 7.93 30.574 7.93 48.707z" fill-rule="evenodd" transform="matrix(.156 -.141 .141 .178 123.527 206.822)" stroke-width="1pt" fill="#005b00"/><path d="M421.37-20.327c0 18.133-4.567 31.716-11.328 45.31-5.627-18.125-9.06-27.177-9.06-45.31s6.83-35.114 12.458-48.707c2.23 12.46 7.93 30.574 7.93 48.707z" fill-rule="evenodd" transform="matrix(.164 -.17 .189 .153 112.357 237.88)" stroke-width="1pt" fill="#005b00"/><path d="M421.37-20.327c0 18.133-4.567 31.716-11.328 45.31-5.627-18.125-9.06-27.177-9.06-45.31s6.83-35.114 12.458-48.707c2.23 12.46 7.93 30.574 7.93 48.707z" fill-rule="evenodd" transform="matrix(.194 .072 -.146 .242 108.947 136.116)" stroke-width="1pt" fill="#005b00"/><path d="M421.37-20.327c0 18.133-4.567 31.716-11.328 45.31-5.627-18.125-9.06-27.177-9.06-45.31s6.83-35.114 12.458-48.707c2.23 12.46 7.93 30.574 7.93 48.707z" fill-rule="evenodd" transform="matrix(.114 .158 -.242 .168 145.069 102.564)" stroke-width="1pt" fill="#005b00"/><path d="M421.37-20.327c0 18.133-4.567 31.716-11.328 45.31-5.627-18.125-9.06-27.177-9.06-45.31s6.83-35.114 12.458-48.707c2.23 12.46 7.93 30.574 7.93 48.707z" fill-rule="evenodd" transform="matrix(.061 .066 -.102 .124 199.603 102.001)" stroke-width="1pt" fill="#005b00"/><path d="M421.37-20.327c0 18.133-4.567 31.716-11.328 45.31-5.627-18.125-9.06-27.177-9.06-45.31s6.83-35.114 12.458-48.707c2.23 12.46 7.93 30.574 7.93 48.707z" fill-rule="evenodd" transform="matrix(.081 .004 -.059 .13 190.046 127.565)" stroke-width="1pt" fill="#005b00"/><path d="M421.37-20.327c0 18.133-4.567 31.716-11.328 45.31-5.627-18.125-9.06-27.177-9.06-45.31s6.83-35.114 12.458-48.707c2.23 12.46 7.93 30.574 7.93 48.707z" fill-rule="evenodd" transform="matrix(-.008 .109 -.103 .062 227.364 85.706)" stroke-width="1pt" fill="#005b00"/><path d="M421.37-20.327c0 18.133-4.567 31.716-11.328 45.31-5.627-18.125-9.06-27.177-9.06-45.31s6.83-35.114 12.458-48.707c2.23 12.46 7.93 30.574 7.93 48.707z" fill-rule="evenodd" transform="matrix(.05 .087 -.19 .116 176.924 111.822)" stroke-width="1pt" fill="#005b00"/><path d="M421.37-20.327c0 18.133-4.567 31.716-11.328 45.31-5.627-18.125-9.06-27.177-9.06-45.31s6.83-35.114 12.458-48.707c2.23 12.46 7.93 30.574 7.93 48.707z" fill-rule="evenodd" transform="matrix(.098 .168 -.252 .152 166.677 77.397)" stroke-width="1pt" fill="#005b00"/><path d="M269.59 155.24c1.133 0 28.318-94.016 118.94-147.25" transform="matrix(.267 -.149 .106 .212 94.456 196.796)" stroke-width="2.37" fill="none"/><path d="M454.22-169.28c0 4.066-3.804 7.363-8.495 7.363s-8.496-3.297-8.496-7.363 3.803-7.363 8.495-7.363 8.495 3.297 8.495 7.363z" fill-rule="evenodd" transform="matrix(.137 -.076 .066 .132 161.386 194.345)" stroke-width="1pt" fill="#f00"/><path d="M454.22-169.28c0 4.066-3.804 7.363-8.495 7.363s-8.496-3.297-8.496-7.363 3.803-7.363 8.495-7.363 8.495 3.297 8.495 7.363z" fill-rule="evenodd" transform="matrix(.137 -.076 .066 .132 169.542 189.525)" stroke-width="1pt" fill="#f00"/><path d="M454.22-169.28c0 4.066-3.804 7.363-8.495 7.363s-8.496-3.297-8.496-7.363 3.803-7.363 8.495-7.363 8.495 3.297 8.495 7.363z" fill-rule="evenodd" transform="matrix(.142 -.079 .05 .099 136.04 200.468)" stroke-width="1pt" fill="#f00"/><path d="M454.22-169.28c0 4.066-3.804 7.363-8.495 7.363s-8.496-3.297-8.496-7.363 3.803-7.363 8.495-7.363 8.495 3.297 8.495 7.363z" fill-rule="evenodd" transform="matrix(.142 -.079 .05 .099 138.398 199.443)" stroke-width="1pt" fill="#f00"/><path d="M454.22-169.28c0 4.066-3.804 7.363-8.495 7.363s-8.496-3.297-8.496-7.363 3.803-7.363 8.495-7.363 8.495 3.297 8.495 7.363z" fill-rule="evenodd" transform="matrix(.142 -.079 .05 .099 137.04 201.64)" stroke-width="1pt" fill="#f00"/><path d="M454.22-169.28c0 4.066-3.804 7.363-8.495 7.363s-8.496-3.297-8.496-7.363 3.803-7.363 8.495-7.363 8.495 3.297 8.495 7.363z" fill-rule="evenodd" transform="matrix(.152 -.085 .074 .147 145.021 210.936)" stroke-width="1pt" fill="#f00"/><path d="M454.22-169.28c0 4.066-3.804 7.363-8.495 7.363s-8.496-3.297-8.496-7.363 3.803-7.363 8.495-7.363 8.495 3.297 8.495 7.363z" fill-rule="evenodd" transform="matrix(.152 -.085 .074 .147 146.761 209.136)" stroke-width="1pt" fill="#f00"/><path d="M454.22-169.28c0 4.066-3.804 7.363-8.495 7.363s-8.496-3.297-8.496-7.363 3.803-7.363 8.495-7.363 8.495 3.297 8.495 7.363z" fill-rule="evenodd" transform="matrix(.152 -.085 .074 .147 147.195 210.001)" stroke-width="1pt" fill="#f00"/></g><path d="M336.61 308.27c0 17.717-35.433 212.6 53.15 265.75 35.433 17.716 88.582-17.717 88.582 0l-17.71-141.74-124.02-124.01z" fill-rule="evenodd" transform="matrix(.441 0 0 .466 17.34 16.951)" stroke="#000" stroke-width="1pt" fill="#0000c4"/><path d="M372.05 343.7c0 17.717-17.716 159.45 35.433 194.88 35.433 35.433 124.02 25.822 124.02 25.822l-70.87-132.12-88.58-88.58z" fill-rule="evenodd" stroke="#000" stroke-width="1pt" fill="#e10000" transform="matrix(.441 0 0 .466 17.34 16.951)"/><path d="M4.8 403.83l-7.34 229.84h3.823L8.62 403.83H4.8z" fill-rule="evenodd" transform="matrix(.329 -.311 .322 .319 17.34 16.951)" stroke-width="1pt"/><path d="M460.63 184.25l17.716 35.433V237.4c-.865-1.305 0 17.716-17.716 17.716-17.717 0-17.717-35.433-17.717-35.433s-17.716 35.433-17.716 70.866 17.716 53.15 17.716 53.15-2.61-36.704 17.717-35.434c20.328 1.27 17.716 17.716 17.716 17.716v35.433h17.717v-141.73l17.717-35.433-27.136-53.15-26.014 53.15z" fill-rule="evenodd" transform="matrix(.102 -.107 .078 .082 75.279 169.836)" stroke="#000" stroke-width="1pt" fill="#cececc"/><path d="M557.82 95.67l-26.323 70.865 17.717 53.15-35.433-17.716 35.434 53.148v35.433h17.716V255.12l35.433-53.15-35.433 17.717 17.717-53.15L557.82 95.67z" fill-rule="evenodd" transform="matrix(.079 -.121 .105 .07 96.147 163.545)" stroke="#000" stroke-width="1pt" fill="#cececc"/><path d="M422.53 136.96c0 2.068-1.958 3.746-4.37 3.746-2.413 0-4.372-1.678-4.372-3.746s1.96-3.747 4.37-3.747c2.414 0 4.372 1.68 4.372 3.747zm-6.244 7.91c0 35.8 20.917 187.81 22.582 191.56.14 4.44-4.718 6.382-7.077.832-6.55-17.342-20.743-159.91-21.332-193.22-.244-13.734 3.76-14.8 8.326-14.57 3.76.21 8.325 3.725 8.325 7.91 0 4.995-5.83 8.74-10.824 7.492z" fill-rule="evenodd" transform="matrix(.303 0 0 .234 43.106 77.382)" stroke="#000" stroke-width="1pt" fill="#e10000"/><path d="M422.53 136.96c0 2.068-1.958 3.746-4.37 3.746-2.413 0-4.372-1.678-4.372-3.746s1.96-3.747 4.37-3.747c2.414 0 4.372 1.68 4.372 3.747zm-6.244 7.91c31.488 61.414 48.722 166.77 50.387 170.52.14 4.44-4.718 6.382-7.077.832-2.48-3.315-12.667-100.18-49.138-172.18-.244-13.734 3.76-14.8 8.326-14.57 3.76.21 8.325 3.725 8.325 7.91 0 4.995-5.83 8.74-10.824 7.492z" fill-rule="evenodd" transform="matrix(.286 .069 -.114 .221 67.499 53.474)" stroke="#000" stroke-width="1pt" fill="#0000c4"/><path d="M422.53 136.96c0 2.068-1.958 3.746-4.37 3.746-2.413 0-4.372-1.678-4.372-3.746s1.96-3.747 4.37-3.747c2.414 0 4.372 1.68 4.372 3.747zm-6.244 7.91c0 35.8 20.917 187.81 22.582 191.56.14 4.44-4.718 6.382-7.077.832-6.55-17.342-20.743-159.91-21.332-193.22-.244-13.734 3.76-14.8 8.326-14.57 3.76.21 8.325 3.725 8.325 7.91 0 4.995-5.83 8.74-10.824 7.492z" fill-rule="evenodd" transform="matrix(.387 0 0 .381 -8.517 87.401)" stroke="#000" stroke-width="1pt" fill="#e10000"/><path d="M422.53 136.96c0 2.068-1.958 3.746-4.37 3.746-2.413 0-4.372-1.678-4.372-3.746s1.96-3.747 4.37-3.747c2.414 0 4.372 1.68 4.372 3.747zm-6.244 7.91c31.488 61.414 48.722 166.77 50.387 170.52.14 4.44-4.718 6.382-7.077.832-2.48-3.315-12.667-100.18-49.138-172.18-.244-13.734 3.76-14.8 8.326-14.57 3.76.21 8.325 3.725 8.325 7.91 0 4.995-5.83 8.74-10.824 7.492z" fill-rule="evenodd" transform="matrix(.365 .112 -.146 .36 22.654 48.502)" stroke="#000" stroke-width="1pt" fill="#0000c4"/></g><g fill-rule="evenodd"><path d="M4.8 403.83l23.792 196.9h3.82L8.62 403.83H4.8z" transform="matrix(.252 -.325 .247 .333 188.754 111.552)" stroke-width="1pt"/><path d="M4.8 403.83l-7.34 229.84h3.823L8.62 403.83H4.8z" transform="matrix(.329 -.311 .322 .319 120.157 126.683)" stroke-width="1pt"/><path d="M478.35 60.236v88.583l17.717 88.582 17.717-88.583V60.235H478.35z" transform="matrix(.052 -.051 .067 .068 293.236 349.194)" stroke="#000" stroke-width="4.104" fill="#808080"/><path d="M478.35 60.236v88.583l17.717 88.582 17.717-88.583V60.235H478.35z" transform="matrix(.052 -.051 .067 .068 311.692 319.705)" stroke="#000" stroke-width="4.104" fill="#808080"/></g><g fill-rule="evenodd" stroke-width="1pt"><path d="M301.18 272.84s-17.716 336.61 53.15 336.61 106.3-35.433 106.3-35.433l-.86-185.03-158.59-116.15z" transform="matrix(-.339 0 0 .487 438.742 -20.517)" stroke="#000" fill="#ffdf00"/><path d="M344.46 304.2c0 17.717-7.846 269.82 27.587 269.82s88.583-17.717 88.583-17.717l-.86-167.31-115.31-84.79z" transform="matrix(-.339 0 0 .487 438.742 -20.517)" stroke="#000" fill="#0000c4"/><path d="M367.52 321.16c0 17.717 4.525 217.42 39.958 217.42h53.15l-.86-149.59-92.248-67.833z" transform="matrix(-.339 0 0 .487 438.742 -20.517)" stroke="#000" fill="#e10000"/><path d="M337.743 112.097l-54.63 57.662-.963-1.24 54.63-57.66.963 1.237z"/><g stroke="#000" fill="#005b00"><path d="M295.315 155.23s15.65 19.538 23.206 34.76c7.556 15.225 16.38 38.538 16.38 38.538s-5.06-23.026-14.57-41.358c-12.45-22.996-25.012-30.607-25.014-31.94z"/><path d="M292.528 140.588s16.873 23.46 24.594 40.96c7.72 17.5 16.332 43.838 16.332 43.838s-4.227-25.397-14.01-46.54c-12.873-26.61-27.01-36.838-26.915-38.26z"/><path d="M308.973 117.58s12.37 35.913 16.192 58.094c3.822 22.18 6.232 52.714 6.232 52.714s2.204-25.584-2.918-52.812c-7.072-34.8-19.998-56.88-19.506-57.995z"/><path d="M296.495 115.396s16.347 32.05 22.65 53.852c6.303 21.8 12.145 53.305 12.145 53.305s-.698-28.615-8.862-55.15c-10.957-33.638-26.296-50.55-25.933-52.007z"/><path d="M318.104 124.432s8.727 34.56 11.05 55.272c2.32 20.71 3.228 48.745 3.228 48.745s2.634-22.787-.562-48.282c-4.508-32.673-14.148-54.808-13.715-55.736z"/><path d="M294.55 126.81s16.302 27.63 22.988 46.942c6.685 19.313 13.362 47.576 13.362 47.576s-1.85-26.168-10.44-49.622c-11.44-29.667-26.18-43.52-25.91-44.896z"/><path d="M291.986 144.98s16.773 21.967 24.397 38.835c7.623 16.868 16.074 42.553 16.074 42.553s-4.053-25.173-13.72-45.508c-12.73-25.535-26.858-34.44-26.75-35.88z"/><path d="M294.523 134.592s15.677 24.965 22.506 43.132c6.827 18.166 14.094 45.224 14.094 45.224s-2.93-25.71-11.635-47.7c-11.518-27.73-25.135-39.25-24.966-40.656z"/><path d="M312.756 118.322s10.258 35.205 12.796 56.67c2.537 21.465 3.194 50.804 3.194 50.804s3.652-24.274.108-50.654c-5.05-33.756-16.65-55.79-16.098-56.82z"/><path d="M299.268 109.66s14.735 33.438 19.964 55.74c5.228 22.3 9.535 54.228 9.535 54.228s.675-28.576-6.18-55.765c-9.294-34.525-23.75-52.785-23.318-54.203z"/><path d="M321.726 127.893s6.624 33.003 7.696 52.567c1.072 19.565.292 45.884.292 45.884s3.994-21.146 2.338-45.254c-2.532-30.927-10.813-52.36-10.326-53.197z"/><path d="M296 120.95s15.396 29.162 21.17 49.243c5.776 20.08 10.937 49.268 10.937 49.268s-.193-26.744-7.703-51.16c-10.112-30.924-24.782-45.967-24.403-47.35z"/></g><path d="M301.18 272.84s-35.433 336.61 70.866 336.61c88.583 0 88.583-53.15 106.3-53.15l-17.72-124.02-159.45-159.44z" transform="matrix(-.441 0 0 .466 486.123 16.951)" stroke="#000" fill="#ffdf00"/><path d="M336.61 308.27c0 17.717-35.433 212.6 53.15 265.75 35.433 17.716 88.582-17.717 88.582 0l-17.71-141.74-124.02-124.01z" transform="matrix(-.441 0 0 .466 486.123 16.951)" stroke="#000" fill="#0000c4"/><path d="M372.05 343.7c0 17.717-17.716 159.45 35.433 194.88 35.433 35.433 124.02 25.822 124.02 25.822l-70.87-132.12-88.58-88.58z" transform="matrix(-.441 0 0 .466 486.123 16.951)" stroke="#000" fill="#e10000"/><path d="M354.472 143.897L282.87 219.26l-1.253-1.184 71.6-75.363 1.255 1.184z"/><path d="M460.63 184.25l17.716 35.433V237.4c-.865-1.305 0 17.716-17.716 17.716-17.717 0-17.717-35.433-17.717-35.433s-17.716 35.433-17.716 70.866 17.716 53.15 17.716 53.15-2.61-36.704 17.717-35.434c20.328 1.27 17.716 17.716 17.716 17.716v35.433h17.717v-141.73l17.717-35.433-27.136-53.15-26.014 53.15z" transform="matrix(-.102 -.107 -.078 .082 428.18 169.836)" stroke="#000" fill="#cececc"/><path d="M557.82 95.67l-26.323 70.865 17.717 53.15-35.433-17.716 35.434 53.148v35.433h17.716V255.12l35.433-53.15-35.433 17.717 17.717-53.15L557.82 95.67z" transform="matrix(-.079 -.121 -.105 .07 407.316 163.545)" stroke="#000" fill="#cececc"/><path d="M422.53 136.96c0 2.068-1.958 3.746-4.37 3.746-2.413 0-4.372-1.678-4.372-3.746s1.96-3.747 4.37-3.747c2.414 0 4.372 1.68 4.372 3.747zm-6.244 7.91c0 35.8 20.917 187.81 22.582 191.56.14 4.44-4.718 6.382-7.077.832-6.55-17.342-20.743-159.91-21.332-193.22-.244-13.734 3.76-14.8 8.326-14.57 3.76.21 8.325 3.725 8.325 7.91 0 4.995-5.83 8.74-10.824 7.492z" transform="matrix(-.303 0 0 .234 460.369 77.382)" stroke="#000" fill="#e10000"/><path d="M422.53 136.96c0 2.068-1.958 3.746-4.37 3.746-2.413 0-4.372-1.678-4.372-3.746s1.96-3.747 4.37-3.747c2.414 0 4.372 1.68 4.372 3.747zm-6.244 7.91c31.488 61.414 48.722 166.77 50.387 170.52.14 4.44-4.718 6.382-7.077.832-2.48-3.315-12.667-100.18-49.138-172.18-.244-13.734 3.76-14.8 8.326-14.57 3.76.21 8.325 3.725 8.325 7.91 0 4.995-5.83 8.74-10.824 7.492z" transform="matrix(-.286 .069 .114 .221 435.959 53.474)" stroke="#000" fill="#0000c4"/><path d="M422.53 136.96c0 2.068-1.958 3.746-4.37 3.746-2.413 0-4.372-1.678-4.372-3.746s1.96-3.747 4.37-3.747c2.414 0 4.372 1.68 4.372 3.747zm-6.244 7.91c0 35.8 20.917 187.81 22.582 191.56.14 4.44-4.718 6.382-7.077.832-6.55-17.342-20.743-159.91-21.332-193.22-.244-13.734 3.76-14.8 8.326-14.57 3.76.21 8.325 3.725 8.325 7.91 0 4.995-5.83 8.74-10.824 7.492z" transform="matrix(-.387 0 0 .381 511.966 87.401)" stroke="#000" fill="#e10000"/><path d="M422.53 136.96c0 2.068-1.958 3.746-4.37 3.746-2.413 0-4.372-1.678-4.372-3.746s1.96-3.747 4.37-3.747c2.414 0 4.372 1.68 4.372 3.747zm-6.244 7.91c31.488 61.414 48.722 166.77 50.387 170.52.14 4.44-4.718 6.382-7.077.832-2.48-3.315-12.667-100.18-49.138-172.18-.244-13.734 3.76-14.8 8.326-14.57 3.76.21 8.325 3.725 8.325 7.91 0 4.995-5.83 8.74-10.824 7.492z" transform="matrix(-.365 .112 .146 .36 480.787 48.502)" stroke="#000" fill="#0000c4"/></g><g fill-rule="evenodd" stroke="#000" stroke-width="1pt"><path d="M228.248 341.55c7.814 4.954 16.357 3.846 23.44 0v-65.904H236.06c7.813 24.715 7.813 49.43-7.814 65.905z" fill="#e10000"/><path d="M239.425 275.575c0 46.33-11.254 56.626-11.254 65.888 4.696 0 7.81-4.314 11.255-10.295 4.694-9.266 5.148-56.317 4.694-55.595h-4.695z" fill="#0000c4"/><path d="M230.036 275.575c-.215 27.076-11.87 52.112-9.672 57.656 2.51 4.956 9.672-11.324 19.062-2.058 4.695-9.266 5.148-56.317 4.695-55.595h-14.084z" fill="#0000c4"/><path d="M231.143 275.796c0 30.915-10.785 32.97-10.785 41.213 4.695 0 10.76-4.507 10.785-4.116 4.694-6.183 5.148-37.58 4.694-37.098h-4.694z" fill="#ffdf00"/><path d="M221.754 275.796c-.215 18.068-11.59 33.4-9.39 37.1 2.51 3.306 9.39-6.184 18.78 0 4.695-6.184 5.148-37.582 4.695-37.1h-14.086z" fill="#ffdf00"/><path d="M275.127 341.558c-7.814 4.953-16.357 3.837-23.44-.007v-65.9h15.626c-7.813 24.716-7.813 49.43 7.814 65.906z" fill="#e10000"/><path d="M263.945 275.58c0 46.33 11.254 56.626 11.254 65.888-4.696 0-7.81-4.314-11.255-10.295-4.694-9.266-5.148-56.317-4.694-55.595h4.695z" fill="#0000c4"/><path d="M273.334 275.58c.215 27.076 11.87 52.112 9.672 57.656-2.51 4.955-9.672-11.325-19.062-2.06-4.695-9.265-5.148-56.316-4.695-55.594h14.084z" fill="#0000c4"/><path d="M272.232 275.804c0 30.915 10.785 32.97 10.785 41.213-4.695 0-10.76-4.506-10.785-4.115-4.694-6.183-5.148-37.58-4.694-37.098h4.694z" fill="#ffdf00"/><path d="M281.62 275.796c.216 18.068 11.59 33.4 9.39 37.1-2.51 3.306-9.39-6.184-18.78 0-4.694-6.184-5.147-37.582-4.694-37.1h14.085z" fill="#ffdf00"/></g><g stroke="#000" fill-rule="evenodd"><path d="M198.56 77.952l-89.676 35.434 89.676 35.434 44.837-17.717 22.42 17.717 22.418 35.433 22.42-35.433 22.418-17.717 1201.9-.002V95.668l-1201.9.002-22.42-17.718c0-17.716 4.704-35.433 22.42-35.433 17.717 0 54.242-.003 89.675-.003 0-17.716-44.838-53.15-134.51-53.15-89.675 0-134.51 35.434-134.51 53.15l89.675.002c17.716 0 22.42 17.716 22.42 35.432l-22.44 17.717-44.84-17.717z" transform="matrix(.091 0 0 .17 174.548 269.733)" stroke-width="4.467" fill="#908f8a"/><path transform="matrix(.21 0 0 .207 173.229 277.468)" stroke-width="1.378pt" fill="#b74d00" d="M204.35 95.67h336.61v17.718H204.35z"/><path transform="matrix(.21 0 0 .207 173.229 277.468)" stroke-width="1.378pt" fill="#b74d00" d="M204.35 77.955h336.61v17.717H204.35z"/><path transform="matrix(.21 0 0 .207 173.229 277.468)" stroke-width="1.378pt" fill="#b74d00" d="M204.35 60.237h336.61v17.717H204.35z"/><path transform="matrix(.21 0 0 .207 173.229 277.468)" stroke-width="1.378pt" fill="#b74d00" d="M204.35 42.522h336.61V60.24H204.35z"/><path transform="matrix(.21 0 0 .207 173.229 277.468)" stroke-width="1.378pt" fill="#b74d00" d="M204.35 24.805h336.61v17.717H204.35z"/><path transform="matrix(.21 0 0 .207 173.229 277.468)" stroke-width="1.378pt" fill="#b74d00" d="M204.35 7.09h336.61v17.716H204.35z"/><path transform="matrix(.21 0 0 .207 173.229 277.468)" stroke-width="1.378pt" fill="#b74d00" d="M204.35-10.628h336.61V7.09H204.35z"/><path d="M423.23 60.236l137.8 124.02h19.686l-137.8-124.02H423.23z" transform="matrix(.189 0 0 .207 139.876 262.794)" stroke-width="3.255" fill="#908f8a"/><path d="M423.23 60.236l137.8 124.02h19.686l-137.8-124.02H423.23z" transform="matrix(.189 0 0 -.207 139.876 313.43)" stroke-width="3.255" fill="#908f8a"/><path d="M425.2 60.236v124.02h17.716V60.236H425.2z" transform="matrix(.21 0 0 .207 130.567 262.794)" stroke-width="3.087" fill="#908f8a"/><path d="M423.23 60.236l137.8 124.02h19.686l-137.8-124.02H423.23z" transform="matrix(.189 0 0 .207 173.361 262.794)" stroke-width="3.255" fill="#908f8a"/><path d="M423.23 60.236l137.8 124.02h19.686l-137.8-124.02H423.23z" transform="matrix(.189 0 0 -.207 173.361 313.43)" stroke-width="3.255" fill="#908f8a"/><path d="M425.2 60.236v124.02h17.716V60.236H425.2z" transform="matrix(.21 0 0 .207 190.097 262.794)" stroke-width="3.087" fill="#908f8a"/><path d="M425.2 60.236v124.02h17.716V60.236H425.2z" transform="matrix(.21 0 0 .207 164.052 262.794)" stroke-width="3.087" fill="#908f8a"/><path d="M425.2 60.236v124.02h17.716V60.236H425.2z" transform="matrix(.21 0 0 .207 156.612 262.794)" stroke-width="3.087" fill="#908f8a"/></g><g><g stroke="#000" stroke-width="1pt" fill="#ffdf00" fill-rule="evenodd"><path d="M306.376 201.502c0 40.928-24.502 74.144-54.693 74.144-30.19 0-54.693-33.216-54.693-74.144 0-40.927 24.502-74.144 54.693-74.144 30.19 0 54.693 33.216 54.693 74.144zm-7.813 0c0 36.38-21.002 65.905-46.88 65.905-25.875 0-46.877-29.525-46.877-65.904 0-36.38 21-65.905 46.878-65.905 25.877 0 46.88 29.526 46.88 65.905z"/><path d="M272.966 133.19c-6.543-3.754-13.735-5.83-21.282-5.83s-14.74 2.076-21.28 5.83l3.038 7.59c5.608-3.337 11.773-5.183 18.242-5.183s12.634 1.846 18.24 5.182l3.042-7.59z"/><path d="M273.056 269.816c-6.543 3.753-13.735 5.83-21.282 5.83s-14.74-2.077-21.28-5.83l3.038-7.59c5.608 3.336 11.773 5.182 18.242 5.182s12.634-1.846 18.24-5.182l3.042 7.59z"/></g><path d="M298.566 201.502c0 36.4-20.988 65.905-46.879 65.905-25.89 0-46.878-29.507-46.878-65.905 0-36.4 20.987-65.904 46.877-65.904 25.89 0 46.88 29.507 46.88 65.904z" fill-rule="evenodd" fill="#a7cfff"/><path d="M637.8 396.85c1.133 26.658-4.634 39.635-11.89 67.356-1.912 2.98-10.966-6.537-16.447-11.236s-7.812 4.24-14.537-3.046c-6.725-7.284-11.05 2.058-15.983-4.095s-51.3-7.057-51.366-7.586c4.59-2.276 28.27.152 24.474-11.193-4.3-11.72-31.093-.35-34.69-15.364-2.44-14.907-53.567-15.543-57.22-19.225 1.444 5.665 39.728 8.05 38.814 22.57-.833 5.916-37.693 7.645-41.247 12.652-3.045 6.295 28.927-1.707 30.114 6.032-.077 3.185-4.704.068-21.357 4.99-8.326 2.46 15.454 10.33 6.41 14.637-9.045 4.308-28.26 6.188-27.433 7.998 2.94 8.908 44.693 19.536 40.535 21.065-14.754 6.56-22.552 10.872-29.627 14.652-19.24-25.653-31.146-61.087-31.146-100.2 31.716-11.405 24.968-13.735 83.645-13.735s77.98 2.33 128.95 13.735z" fill-rule="evenodd" stroke="#000" stroke-width="1pt" fill="#afff7b" transform="matrix(.441 0 0 .466 17.34 16.951)"/><path d="M637.8 396.85c-8.07 0-16.454 3.4-25.07 3.4-8.617 0-17.465-3.4-26.466-3.4s-19.287 4.532-28.512 4.532c-9.224 0-17.388-4.53-26.676-4.53-9.287 0-18.566 3.397-27.755 3.397s-18.288-3.4-27.218-3.4-17.69 3.4-26.2 3.4-16.77-3.4-24.7-3.4c0-19.56 2.976-38.197 8.358-55.15 27.075 2 11.042-15.716 27.075-15.716 8.655 0 17.434 1.86 25.238 9.788 2.447 0 14.48-11.373 27.912-9.788 13.432 1.586 8.492 27.272 26.37 28.637 9.063 6.797 14.393 11.134 26.78 13.872 17.716 1.606 68.35-2.5 68.704-.194 1.416 9.223 2.16 18.772 2.16 28.552z" fill-rule="evenodd" stroke="#000" stroke-width="1pt" fill="#fff" transform="matrix(.441 0 0 .466 17.34 16.951)"/><path d="M549.85 473.94c0-5.664 13.512-9.462 13.512-18.524s-11.914-9.35-12.38-17.86c-.2-3.46 10.32-7.046 14.915-7.335s8.493 7.42 8.493 9.12-4.662-4.192-8.578-4.378-12.313.63-12.313 2.33c0 3.4 14.85 7.598 13.717 18.925-1.132 11.327-12.71 14.657-12.71 18.055s5.056 12.86 5.056 12.86-9.713-7.53-9.713-13.192z" fill-rule="evenodd" transform="matrix(.155 0 0 .363 174.111 69.604)" stroke="#000" stroke-width="1pt"/><path d="M549.85 473.94c0-5.664 13.512-9.462 13.512-18.524s-11.95-9.348-12.38-17.86c-.946-3.962 11.814-6.544 16.41-6.833s9.985 7.92 9.985 9.62-5.41-5.195-9.325-5.38-14.553.63-14.553 2.33c0 3.398 14.85 7.597 13.717 18.924-1.132 11.327-12.71 14.657-12.71 18.055s5.056 12.86 5.056 12.86-9.713-7.53-9.713-13.192z" fill-rule="evenodd" transform="matrix(-.155 0 0 .363 346.745 69.311)" stroke="#000" stroke-width="1pt"/><path d="M261.637 224.193c0 1.004-.493 1.818-1.1 1.818-.607 0-1.1-.813-1.1-1.817s.493-1.818 1.1-1.818c.607 0 1.1.814 1.1 1.818z" fill-rule="evenodd"/><path fill-rule="evenodd" stroke-width="1pt" d="M586.7 458.05h.8v31.638h-.8z" transform="matrix(.441 0 0 .466 17.34 16.951)"/><path fill-rule="evenodd" stroke-width="1pt" d="M593.91 455.65h.8v31.638h-.8z" transform="matrix(.441 0 0 .466 17.34 16.951)"/><path fill-rule="evenodd" transform="matrix(.004 -.466 .435 .075 17.34 16.951)" stroke-width="1pt" d="M-376.42 597.92h.8v6.9h-.8z"/><path d="M497.26 478.07s26.052 11.328 31.716 18.124c5.664 6.797 3.398 6.796 3.398 6.796l57.77 2.266c0-3.398 10.193-3.4 12.46-11.328 2.264-7.93 2.264-10.194 2.264-10.194l-18.123 5.664 1.132-10.194H572.02l-2.266 10.194-33.982-1.133 2.266-27.186-6.796 1.132-1.133 26.053c-1.134 0-31.718-7.93-32.85-10.195z" fill-rule="evenodd" transform="matrix(.441 0 0 .466 15.342 17.479)" stroke="#000" stroke-width="1pt" fill="#b74d00"/><path d="M440.53 316.28s37.645-11.214 92.11-10.413 92.11 12.815 91.31 12.815-10.414-18.422-10.414-18.422-38.446-10.412-81.697-11.213c-43.253-.8-80.898 8.01-80.097 8.81L440.53 316.28z" fill-rule="evenodd" stroke="#fede00" stroke-width="1pt" fill="#fede00" transform="matrix(.441 0 0 .466 17.34 16.951)"/><path fill-rule="evenodd" transform="matrix(.441 -.009 .008 .466 17.34 16.951)" stroke-width="1pt" fill="#38a9f9" d="M502.2 301.17h23.228v12.815H502.2z"/><path d="M395.32 373.11l-10.255 11.01 27.822 1.622v-12.815l-17.567.183z" fill-rule="evenodd" transform="matrix(.434 -.081 .076 .459 17.34 16.951)" stroke-width="1pt" fill="#38a9f9"/><path fill-rule="evenodd" transform="matrix(.439 -.039 .037 .464 17.34 16.951)" stroke-width="1pt" fill="#38a9f9" d="M451.6 332.64h23.228v12.815H451.6z"/><path fill-rule="evenodd" transform="matrix(-.44 -.029 -.028 .465 17.34 16.951)" stroke-width="1pt" fill="#38a9f9" d="M-578.71 256.52h23.228v12.815h-23.228z"/><path d="M-662.06 160.45l-11.642 13.5 25.748-.258v-12.815l-14.106-.427z" fill-rule="evenodd" transform="matrix(-.43 -.102 -.096 .455 17.34 16.951)" stroke-width="1pt" fill="#38a9f9"/><path fill-rule="evenodd" transform="matrix(-.437 -.06 -.056 .462 17.34 16.951)" stroke-width="1pt" fill="#38a9f9" d="M-624.16 218.17h23.228v12.815h-23.228z"/><path fill="#ffdf00" fill-rule="evenodd" stroke="#000" stroke-width="1pt" d="M532.64 323.49l-2.58-13.47-7.54 11.46 2.77-13.43-11.34 7.7 7.7-11.35-13.43 2.78 11.45-7.54-13.47-2.58 13.47-2.58-11.45-7.53 13.43 2.77-7.7-11.35 11.34 7.7-2.77-13.43 7.54 11.46 2.58-13.47 2.57 13.47 7.54-11.46-2.77 13.43 11.35-7.7-7.71 11.35 13.44-2.77-11.46 7.53 13.47 2.58-13.47 2.58 11.46 7.54-13.44-2.78 7.71 11.35-11.35-7.7 2.77 13.43-7.54-11.46z" transform="matrix(.441 0 0 .466 17.34 16.951)"/><path d="M547.05 293.86c0 9.29-6.634 16.82-14.818 16.82s-14.818-7.53-14.818-16.82 6.634-16.82 14.818-16.82 14.818 7.53 14.818 16.82z" fill-rule="evenodd" transform="matrix(.429 0 0 .388 23.861 41.08)" stroke="#000" stroke-width="1pt" fill="#ffdf00"/><path d="M252.19 153.235c0 .412-.95.745-2.12.745s-2.12-.333-2.12-.745.95-.745 2.12-.745 2.12.334 2.12.745z" fill-rule="evenodd"/><path d="M256.78 153.236c0 .412-.71.745-1.59.745s-1.588-.332-1.588-.744c0-.41.71-.745 1.59-.745s1.59.335 1.59.746z" fill-rule="evenodd"/><path d="M529.43 297.86l.8.8c-1.9-1.9-.995-1.125 1.603 3.204 2.393-.495 3.09-1.39 4.806-2.403" transform="matrix(.423 -.132 .125 .447 -10.108 93.123)" stroke="#000" stroke-width="1pt" fill="none"/><path d="M527.83 304.27l.8.8c-1.9-1.9-1.123-.994 3.205 1.603 4.027.544 8.092-1.196 10.412-4.005" transform="matrix(.441 0 0 .466 16.634 16.951)" stroke="#000" stroke-width="1pt" fill="none"/><path d="M223.975 171.057s.706 5.972-3.885 13.437c-4.592 7.465-3.886 4.852-3.886 4.852s2.12 4.106 1.766 4.106-3.532-3.732-3.532-3.732l-3.885 4.105s3.532-6.345 3.18-6.345-1.06-2.24-1.06-2.24l2.825-1.12s4.24-7.838 4.24-7.464-12.718 8.584-12.718 8.584l16.955-14.183z" fill-rule="evenodd" fill="#b7e1ff"/><path d="M226.802 173.3c-.353 0 1.766 5.97 3.532 8.957 1.766 2.986 1.766 6.718 1.766 6.718l6.005 2.986-7.77-11.57 4.944 1.867-8.478-8.958z" fill-rule="evenodd" fill="#b7e1ff"/><path d="M226.802 188.975s4.238 4.48 4.59 5.972.355 4.852.355 4.852l-1.766-3.734-2.472 3.36s1.766-5.226 1.413-5.6-2.825 1.867-2.825 1.867 1.06-2.986 1.06-3.36 0-2.24-.353-3.358z" fill-rule="evenodd" fill="#b7e1ff"/><path d="M205.607 199.423c1.413-1.12 4.24-1.866 4.24-1.866s-1.767 2.985-2.12 2.985-1.413 0-2.12-1.12z" fill-rule="evenodd" fill="#b7e1ff"/><path d="M254.35 183s9.184 5.6 9.184 5.973-6.004-2.613-6.004-2.613l-3.18-3.36z" fill-rule="evenodd" fill="#b7e1ff"/><path d="M237.752 171.43c.706.373 13.422 10.824 13.07 10.824s-5.653-2.986-5.653-2.613v2.614l-2.827-5.972-.706 2.24-3.885-7.092z" fill-rule="evenodd" fill="#b7e1ff"/><path d="M240.927 188.225l3.532 7.09 3.53-.745s-6.71-6.345-7.063-6.345z" fill-rule="evenodd" fill="#b7e1ff"/><path d="M251.88 183.746c0 1.12.355 6.72.355 6.72s2.12 1.865 2.12 1.492-2.12-7.838-2.474-8.212z" fill-rule="evenodd" fill="#b7e1ff"/></g><g><path d="M147.73 92.2s15.826-8.765 33.843-15.292C199.59 70.38 219.8 66.09 222.47 66.09c5.34 0 14.49 13.43 16.016 13.43 1.525 0 7.626-3.73 15.252-3.73s12.202 5.967 13.727 5.967h13.728c1.525 0-4.576-14.92 0-14.174 2.288.373 21.735 3.357 39.848 9.232 18.113 5.874 43.825 16.245 43.825 16.245s-42.022 5.618-53.165 3.956c-1.525.746-.076 9.868-2.213 5.855-3.51-.802-16.4-2.813-18.688-2.813s-6.555 2.587-12.656 4.08c-6.1 1.49-13.727 3.73-13.727 3.73l9.914 15.665-12.2 5.967s-7.627-17.904-10.678-17.904-4.575 12.682-8.39 11.936c-3.812-.746-5.337-11.936-8.388-14.92-3.05-2.984-19.133-4.07-25.236-5.562-6.1-1.492-15.947-2.644-21.285-4.135-5.34-1.493-10.677 3.73-12.965 3.73-2.288 0 3.05-4.477.763-5.223s-3.812 2.238-5.338 2.238c-1.525 0-17.54-2.983-19.065-3.73-1.526-.746 3.813-3.73 2.288-3.73h-6.1z" fill-rule="evenodd" fill="#984000"/><path d="M462.91-64.94c0 21.15-20.5 38.298-45.79 38.298S371.327-43.79 371.327-64.94s20.5-38.298 45.79-38.298S462.91-86.09 462.91-64.94z" fill-rule="evenodd" transform="matrix(.166 0 0 .199 185.118 97.444)" stroke="#772600" stroke-width="3.706" fill="#808080"/><path d="M284.74-59.945c6.66-6.66 14.987-16.65 36.633-16.65 4.996-1.666 4.996-11.657 16.65-11.657 11.657 0 8.327 9.99 16.653 13.32 8.325 3.33 76.596-3.33 76.596-3.33s6.66 4.996 6.66 11.657c0 6.66-4.995 11.656-6.66 11.656s-68.27-4.995-73.266-3.33c-4.995 1.666-8.326 3.33-19.982 3.33-11.655 0-14.986-11.655-23.31-11.655-8.327 0-16.653-1.665-29.974 6.66z" fill-rule="evenodd" transform="matrix(.207 0 0 .241 165.286 100.563)" stroke="#772600" stroke-width="5.25" fill="#984000"/><path d="M487.88-76.597h26.642c9.572.114 12.873 3.005 21.647 3.33h23.31c8.476-.314 12.952-2.295 21.648-3.33 14.504-.175 9.555-1.306 6.66-9.99-2.625-6.565-2.95-9.61-6.66-13.322-1.396-7.944-4.655-10.77-4.996-19.98-1.527-7.027-4.342-11.753-1.665-19.983 3.84 5.647 5.387 7.97 14.986 8.326 10.045 0 13.937-.206 19.982 3.33 4.663 4.89 10.886 3.33 19.982 3.33 7.677 1.406 8.96 5.313 14.986 8.326 7.103 3.935 11.694 4.995 21.646 4.995 7.967 1.422 14.88 2.578 19.98 4.995 4.25 5.08 10.952 6.338 19.983 6.66 5.05 0 8.95-.524 13.32-1.665 7.678.37 15.474 0 24.978 0 6.163 7.21 7.587 9.862 18.317 9.99 7.338 5.155 13.527 6.037 19.982 8.327h24.976c8.928.687 11.79 4.35 19.98 6.66 8.115 3.768 15.722 6.35 21.648 8.326 5.89 1.28 13.574 1.665 21.646 1.665 6.183 3.175 13.61 3.46 18.317 6.66 6.89 1.477 16.302 3.215 21.647 4.996 8.816 1.168 12.187 3.94 19.98 4.995 6.704 1.915-2.223 3.56-6.66 4.995-9.826-.364-10.536-3.946-19.98-4.995-5.024-2.94-12.64-2.548-19.982-4.996h-1.666c6.6 3.903 12.948 6.422 9.99 13.32-8.49 0-15.366-1.097-23.31-1.665-8.385-1.616-12.227-3.33-21.647-3.33 9.394-2.264 11.854.27 18.315 3.33 2.396 8.06-2.725 4.996-11.656 4.996-7.61-2.73-12.174-5.983-21.648-6.66h-19.98c9.89.366 11.976 4.1 18.315 8.326.518 2.59-.132 2.472-4.995 3.33-5.16-4.478-11.89-6.013-19.982-8.326-7.88-.28-16.217-.965-23.31-3.33-4.868-.304-4.117-6.177 6.66 3.33 6.532 3.843 8.832 6.946 8.325 9.99-8.576-2.143-12.825-5.58-18.317-8.324-7.736-2.855-14.128-3.33-23.312-3.33-8.61-2.266.894-3.574 6.66 4.995 12.38 8.77-1.632 5.007-6.66 3.33-7.507-2.144-15.284-5.184-21.646-6.66-5.046-1.44-9.44-2.855-14.986-3.33 8.63.785 11.57 3.823 14.986 9.99 8.755 6.032-.384 3.1-8.326 1.666-5.07-4.402-11.487-6.658-14.986-11.656-8.35-4.176-8.563-8.982-3.33 1.665 1.363 3.407 1.11 10.795 1.665 11.656-6.136-6.625-4.825-8.325-11.656-8.325-4.634-3.244-11.496-5.765-14.986-9.99-6.435-.604-6.84-2.9-13.32-4.996 5.34 6.273 12.39 12.478 16.65 18.315 7.598 4.242 9.7 8.06 14.987 11.656 2.14 3.64 7.904 6.657 1.665 1.666-7.144-7.043-12.46-8.67-23.312-13.32-6.15-4.96-8.37-7.045-14.986-11.657-9.003-2.905-5.508-4.543 0 4.995 6.318 5.77 11.17 12.23 16.652 16.65 3.767 4.908 10.136 10.12 14.986 13.322 1.5 2.25 5.99 2.664 0 3.33-5.09-4.598-12.398-7.53-18.317-11.656-8.302-2.34-12.19-6.652-18.316-11.655-3.9-5.85-10.383-10.38-14.987-14.986-9.63-3.77 1.9 3.636 4.995 8.325 2.153 6.068 4.788 11.035 6.66 16.65 2.78 5.56-8.47-1.327-11.655-3.33-7.32-4.157-12.674-6.937-21.647-8.325-5.98-1.3-13.602-2.468-19.982-3.33-7.614-2.05 4.042 4.8 8.326 11.656 8.418 7.908-8.332 1.425-13.32 0-8.224-1.645-16.288-1.666-24.978-1.666-10.67.628-3.05 1.947 0 6.66 3.287 2.53 5.637 7.855 4.995 9.992-7.032-.95-13.025-3.023-21.646-3.33-6.96 2.32-15.344 1.665-23.31 1.665-.382 4.19 1.443.654 4.994 4.995 5.763 2.34 9.585 5.177 8.326 8.326H497.87c-5.29 1.447 1.14.704 5 6.663-2.16 5.403-4.95 3.332-11.655 3.332-4.545-1.818-13.598-2.636-18.317-4.996-4.69 0-4.336-1.22-8.325-1.665 14.035 9.93 7.073 7.45 14.986 14.987 1.366.456 4.523 1.665 1.664 1.665" transform="matrix(.207 0 0 .241 165.286 103.769)" stroke="#772600" stroke-width="3.5" fill="none"/><path d="M371.32 73.265c-.997 0-3.2-5.375-6.66-9.99-2.327-6.05-5.392-2.59-8.326-11.657.348-9.402.684-11.094 0-19.982-6.863-4.783-9.714-6.27-14.986-14.986-8.46-7.078 1.236-19.063 2.845-27.85-7.375-1.638-11 11.477-22.34 16.194-8.156 5.492-.912-11.354-4.892-21.188-2.774-13.872-10.825 6.956-13.91 12.862-5.467 3.718-7.128 8.542-14.986 1.665 0-5.144 4.937-19.49 2.845-22.28-7.815 3.815-18.088 15.49-26.158 17.284-8.13-1.767 1.77-14.828 1.77-24.518-2.938-.98-14.696 25.755-19.52 26.002-4.824.248-2.713-25.993-4.972-25.428-3.542 4.96-10.65 15.43-15.576 18.948-9.454-1.22 1.398-17.435 2.845-23.427 1.628-7.168-8.905 13.75-14.502 15.102-4.1 3.554-12.237 6.072-14.986 6.66 3.24-6.13 19.076-18.712 17.935-22.278-9.21.34-23.31 12.556-31.256 13.952-5.19 0-12.387 1.758-13.32 1.665.448-7.926 19.418-14.65 22.445-19.465-9.306 1.494-27.186 9.706-32.436 16.135-6.146 1.336-13.944 3.02-19.983 0 .897-7.475 14.856-21.998 17.936-26.758-8.396 3.697-12.642 6.59-21.647 8.325-1.652 1.652-6.524 5.23-4.995 1.665 2.656-6.945 6.676-10.11 9.99-14.986-7.45 1.364-10.28 5.634-18.315 9.99-5.094.222-19.646 14.855-24.596 15.103-11.45 8.382-16.01 9.807-28.308 13.32-7.587 1.356-11.26 2.934-14.986 6.66 3.796-6.687 9.597-13.092 14.986-16.65 3.677-5.567 7.12-10.195 14.986-13.32 1.897-2.32 7.188-2.906 1.665-3.33-4.746 4.236-12.696 8.965-16.65 11.655-5.102 3.207-11.01 6.48-13.322 4.995 2.62-7.197 7.438-8.902 11.657-14.986 8.81-5.604.042-1.914-6.66 0-4.338 3.868-12.122 6.727-18.316 9.992-7.113 1.856-11.703 6.132-19.98 8.326 0 2.375 2.364-4.25 3.33-6.66 6.83-7.41 8.656-9.476 16.65-11.657 1.912-2.866 4.42-1.664-1.665-1.664-4.514 4.024-10.81 6.212-16.65 9.99-5.892 1.282-13.575 1.666-21.648 1.666-10.355 1.243-9.46 2.025 0-3.33 5.357-5.042 9.77-3.775 9.99-9.99C10.394-40.43 2.78-37.1-4.998-33.304c-6.434.19-8.133 1.665-14.985 1.665 3.298-3.415 5.277-7.633 9.99-9.99 6.896-7.663-4.377-1.478-6.66 0h-24.977c-4.465 5.58-.23.05 3.33-3.33 4.306-2.24 8.756-5.155 8.326-6.66-4.972 4.314-10.726 6.297-14.986 9.99-4.64 1.39-9.99 2.084-9.99 3.33 3.626-5.346 9.524-8.576 13.32-13.32 5.612-1.22 10.396-2.936 11.656-4.996h-23.312 16.65c8.4 0 15.63-.75 23.313-1.665 13.263-2.21-1.16-3.33-8.326-3.33-1.39-2.548 4.11-3.987 9.99-4.995 5.024-2.38 11.233-4.493 16.65-6.66 5.257-1.434 12.707-5.81 13.322-6.66-5.015.263-4.975 1.4-9.99 1.664 7.446-.574 12.8-1.666 21.646-1.666 8.028-2.58 14.906-5.41 21.647-8.326 2.936-3.588 4.24-3.33-3.33-3.33 6.713-2.158 16.238-3.193 21.647-4.995 7.872-1.687 14.9-4.253 19.982-6.66 4.876-3.316 7.69-7.176 13.32-9.99 6.528 4.437 6.602 4.994 18.318 4.994 9.41-.112 15.17-2.373 19.98-6.66 7.208-1.966 8.483-5.43 16.652-6.66 7.444 1.328 15.03 1.664 23.312 1.664 8.096-2.12 15.677-6.01 21.647-9.99 5.093-2.502 11.14-6.12 16.65-8.326 6.07 3.133 10.844 5.65 18.318 6.66 7.728-1.148 11.747-4.868 18.317-6.66 3.577-4.33 8.777-6.632 14.986-8.325 9.67-4.75 8.913 1.573 13.32 6.66 4.896 5.132 11.374 2.68 18.318 4.995 3.83 5.893 6.647 9.914 11.657 13.32 3.89 4.71 8.508 6.035 16.65 6.66 2.968 3.958.602 6.812 6.662 8.327 2.387 2.53 6.517 3.606 9.99 4.995" transform="matrix(.207 0 0 .241 165.286 103.769)" stroke="#772600" stroke-width="3.5" fill="none"/><path d="M468.74 30.803v.833c0-2.327-.103-1.09 1.665 3.33.595 3.64-.81 3.22-2.498 5.828-.286 3.723-.832 6.4-.832 10.823-.537 3.612-2.57 7.04-4.163 9.99-1.604 3.133-8.555 4.87-8.326 9.16-3.99 1.14-4.084-1.445-4.162-5.83-2.386-2.726-3.212-6.466-4.996-9.99-1.108-3.476-3.47-6.032-4.995-9.99-2.46-3.787-4.546-4.876-6.66-9.16-.827-2.065-.683-4.617-2.498-5.827-2.72-3.438-4.49-3.99-9.16-4.163-3.59.845-4.97 2.416-8.324 3.33-2.57.857-7.57.58-10.823 1.666-.808 1.314 1.6 1.94 2.498 4.995-2.135 1.764-2.926 4.883-4.163 7.493-1.965 2.487-3.283 3.706-4.163 7.494 1.362 2.316.2 5.387-1.666 7.493-.574 3.864-2.434 5.874-3.33 9.16-2.686 1.825-3.652 3.537-5.828 6.66-1.914 2.678-3.636 2.497-8.326 2.497-3.667-1-4.18-2.988-7.493-4.163-.352-1.056-.608-1.312-1.665-1.664" transform="matrix(.207 0 0 .241 165.286 103.769)" stroke="#782600" stroke-width="3.125" fill="none"/><path d="M241.92 119.323s-.344 3.73-2.745 6.22-7.375 5.39-7.375 5.39 6.69-3.18 7.375-2.49c.686.692-4.288 6.22-4.288 6.22s6.517-5.804 7.375-5.804 2.744 5.665 3.43 5.527c.686-.138-1.544-7.187-1.2-8.292.342-1.106 0-7.05 0-7.05l-2.573.278z" fill-rule="evenodd" fill="#812e00"/><path d="M257.37 118.867s-.342 4-2.743 6.67-7.375 5.778-7.375 5.778 6.69-3.408 7.375-2.667c.686.74-4.288 6.668-4.288 6.668s6.516-6.224 7.374-6.224 2.744 6.076 3.43 5.928c.686-.148-1.544-7.706-1.2-8.892.342-1.185 0-7.558 0-7.558l-2.573.297z" fill-rule="evenodd" fill="#812e00"/><path d="M235.83 82.598c0 .744-.73 1.348-1.628 1.348s-1.627-.604-1.627-1.348.728-1.35 1.627-1.35 1.628.605 1.628 1.35z" fill-rule="evenodd" fill="#812e00"/></g></g></g></svg>