<svg xmlns="http://www.w3.org/2000/svg" height="512" width="512"><defs><clipPath id="a"><path fill-opacity=".67" d="M124.02 0h496.06v496.06H124.02z"/></clipPath></defs><g clip-path="url(#a)" transform="matrix(1.032 0 0 1.032 -128 0)"><g fill-rule="evenodd"><path stroke-width="1pt" fill="#fff" d="M0 162.99h744.09v166.54H0z"/><path stroke-width="1pt" d="M0 329.53h744.09v166.54H0z"/><path stroke-width="1pt" fill="#f00" d="M0 0h744.09v162.99H0z"/><g><path d="M322.44-322.44h7.087l3.75 60.236-7.294 7.087-7.086-7.087 3.543-60.236z" transform="matrix(.606 -.032 .057 .759 187.262 504.427)" stroke="#fff" stroke-width="1pt" fill="#d7b900"/><path d="M322.44-322.44h7.087l3.75 60.236-7.294 7.087-7.086-7.087 3.543-60.236z" transform="matrix(.606 .023 -.041 .759 147.092 486.669)" stroke="#fff" stroke-width="1pt" fill="#d7b900"/><g stroke="#fff" stroke-width="4.824" fill="#d7b900"><path d="M421.66 205.49l4.73 84.152-9.46-6.733-4.73-77.422h9.46z"/><path d="M412.207 205.488l4.73 77.422-9.46-6.733-4.73-70.69h9.46z"/><path d="M402.753 205.497l4.73 70.69-9.46-6.733-4.73-63.956h9.46z"/><path d="M393.303 205.5l4.73 63.957-9.46-6.733-4.73-57.224h9.46z"/></g><g stroke="#fff" stroke-width="4.824" fill="#d7b900"><path d="M306.345 205.43l-4.2 84.154 8.4-6.733 4.198-77.42h-8.398z"/><path d="M314.752 205.43l-4.2 77.422 8.4-6.733 4.198-70.69h-8.398z"/><path d="M323.15 205.44l-4.2 70.69 8.4-6.734 4.198-63.956h-8.398z"/><path d="M331.916 206.328l-4.2 63.958 8.4-6.733 4.198-57.224h-8.398z"/></g><path d="M181.73 256.05c-1.004-1.312 19.847-18.646 55.28-18.646 53.15 0 61.307 18.646 96.74 18.646h152.02c35.434 0 45.724-18.646 98.873-18.646 35.433 0 52.168 18.293 53.15 18.646 0 0-17.717-.93-53.15-.93s-49.3 39.04-85.052 38.222c-26.787.818-144.23 0-179.66 0-35.432 0-47.485-37.292-82.92-37.292-35.432 0-56.283-1.312-55.28 0z" transform="matrix(.256 0 0 .19 259.222 156.86)" stroke="#d7b900" stroke-width="4.824" fill="#fff"/><path d="M400.39-109.84v3.543l3.543 3.543-3.543 3.543v3.543c-14.174 7.086-28.85 7.086-42.52 7.086-13.67 0-28.346 0-46.063-7.087v-3.544l-3.543-3.544 3.543-3.543v-3.543c14.173 3.543 28.347 7.086 46.063 7.086 17.717 0 28.347-3.543 42.52-7.086z" transform="matrix(1.323 0 0 1.204 -106.698 429.074)" stroke="#d7b900" stroke-width="1pt" fill="#fff"/><g transform="matrix(-1.063 .285 .305 .992 784.032 308.93)" stroke="#d7b900" fill="#fff"><rect transform="matrix(-.564 -.826 -.888 .459 0 0)" rx="2.395" ry="4.505" height="40.13" width="4.789" y="-406.53" x="-73.159" stroke-width=".623"/><g stroke-width="4.713"><path d="M385.002-129.014l.94 8.38-5.263-5.12.938 8.38-5.262-5.12.94 8.38c-2.292-3.108-4.872-8.068-6.378-13.924 1.996-8.594 6.184-11.15 13.284-9.408 2.307 3.92 4.55 8.843 6.2 13.5l-5.4-5.068z"/><path d="M381.73-136.123l.938 8.38-5.262-5.12.94 8.38-5.263-5.12.94 8.38c-2.292-3.108-4.872-8.068-6.378-13.924 1.996-8.594 6.184-11.15 13.284-9.408 2.306 3.92 4.55 8.843 6.2 13.5l-5.4-5.068z"/><path d="M378.455-143.233l.94 8.38-5.263-5.12.94 8.38-5.263-5.12.938 8.38c-2.29-3.108-4.87-8.068-6.377-13.924 1.997-8.594 6.185-11.15 13.285-9.408 2.307 3.92 4.55 8.843 6.2 13.5l-5.4-5.068z"/><path d="M374.338-151.987l.94 8.38-5.263-5.12.94 8.38-5.263-5.12.94 8.38c-2.292-3.108-4.872-8.068-6.378-13.924 1.996-8.595 6.184-11.15 13.284-9.41 2.307 3.92 4.55 8.844 6.2 13.5l-5.4-5.067z"/><path d="M371.065-159.094l.94 8.38-5.263-5.12.94 8.38-5.263-5.12.938 8.38c-2.29-3.108-4.87-8.068-6.377-13.924 1.997-8.594 6.185-11.15 13.285-9.408 2.307 3.92 4.55 8.843 6.2 13.5l-5.4-5.068z"/><path d="M367.792-166.204l.94 8.38-5.263-5.12.938 8.38-5.262-5.12.94 8.38c-2.292-3.108-4.872-8.068-6.378-13.924 1.996-8.594 6.184-11.15 13.284-9.408 2.307 3.92 4.55 8.843 6.2 13.5l-5.4-5.068z"/></g><path d="M345.63-96.125c0 3.28-1.12 5.938-2.5 5.938s-2.5-2.66-2.5-5.938 1.12-5.938 2.5-5.938 2.5 2.66 2.5 5.938z" transform="matrix(.498 -.385 .291 .659 228.03 87.159)" stroke-width="1pt"/><path d="M345.63-96.125c0 3.28-1.12 5.938-2.5 5.938s-2.5-2.66-2.5-5.938 1.12-5.938 2.5-5.938 2.5 2.66 2.5 5.938z" transform="matrix(.498 -.43 .291 .736 242.09 102.86)" stroke-width="1pt"/><path d="M345.63-96.125c0 3.28-1.12 5.938-2.5 5.938s-2.5-2.66-2.5-5.938 1.12-5.938 2.5-5.938 2.5 2.66 2.5 5.938z" transform="matrix(.535 -.415 .312 .71 245.2 88.253)" stroke-width="1pt"/></g><path d="M268.29 261.84s32.89-42.16 32.89-95.31c0 .002 70.866.002 70.866 0 0 53.15 34.308 95.31 35.434 88.585-17.717 0-53.15-17.717-70.866-53.15-17.716 35.434-50.608 59.875-68.324 59.875z" transform="matrix(.308 0 0 .19 258.622 162.84)" stroke="#d7b900" stroke-width="4.824" fill="#fff"/><path d="M253.46 240.41s47.94-58.726 47.94-111.88V53.946c0-17.717 23.97-18.646 35.954-18.646 17.717 0 35.954.93 35.954 18.646v74.584c0 53.15 47.94 111.88 47.94 111.88-35.433 0-54.193-39.15-71.91-74.584 0 17.717 4.994 53.862-12.723 71.58-17.716-17.718-11.246-53.863-11.246-71.58-17.718 35.433-36.476 74.584-71.91 74.584z" transform="matrix(.296 0 0 .19 262.772 163.37)" stroke="#d7b900" stroke-width="4.824" fill="#fff"/><path d="M283.12 77.953h53.15c0 17.716 0 35.433-17.717 35.433S283.12 95.67 283.12 77.953z" transform="matrix(.242 .077 -.054 .118 281.322 137.68)" stroke="#d7b900" stroke-width="5.909" fill="#fff"/><path d="M183.96 42.52c11.81 0 11.81 17.716 11.81 35.433-17.715 0-29.527-17.717-47.243 0 0-19.56 0-35.433 17.716-35.433h17.717z" transform="matrix(.363 .116 -.054 .118 290.692 143.07)" stroke="#d7b900" stroke-width="4.824" fill="#fff"/><path d="M336.61 69.094c0 4.892-3.966 8.858-8.858 8.858s-8.86-3.966-8.86-8.858 3.967-8.858 8.86-8.858 8.858 3.966 8.858 8.858z" transform="matrix(.242 .077 -.081 .178 287.152 135.46)" stroke="#d7b900" stroke-width="4.824" fill="#fff"/><path d="M322.44-322.44h7.087l3.75 60.236-7.294 7.087-7.086-7.087 3.543-60.236z" transform="matrix(.607 0 0 .76 164.342 494.459)" stroke="#fff" stroke-width="1pt" fill="#d7b900"/><g transform="matrix(1.159 .303 -.356 .987 -103.528 300.58)" stroke="#d7b900" fill="#fff"><rect transform="matrix(-.564 -.826 -.888 .459 0 0)" rx="2.395" ry="4.505" height="40.13" width="4.789" y="-406.53" x="-73.159" stroke-width=".623"/><g stroke-width="4.713"><path d="M385.002-129.014l.94 8.38-5.263-5.12.938 8.38-5.262-5.12.94 8.38c-2.292-3.108-4.872-8.068-6.378-13.924 1.996-8.594 6.184-11.15 13.284-9.408 2.307 3.92 4.55 8.843 6.2 13.5l-5.4-5.068z"/><path d="M381.73-136.123l.938 8.38-5.262-5.12.94 8.38-5.263-5.12.94 8.38c-2.292-3.108-4.872-8.068-6.378-13.924 1.996-8.594 6.184-11.15 13.284-9.408 2.306 3.92 4.55 8.843 6.2 13.5l-5.4-5.068z"/><path d="M378.455-143.233l.94 8.38-5.263-5.12.94 8.38-5.263-5.12.938 8.38c-2.29-3.108-4.87-8.068-6.377-13.924 1.997-8.594 6.185-11.15 13.285-9.408 2.307 3.92 4.55 8.843 6.2 13.5l-5.4-5.068z"/><path d="M374.338-151.987l.94 8.38-5.263-5.12.94 8.38-5.263-5.12.94 8.38c-2.292-3.108-4.872-8.068-6.378-13.924 1.996-8.595 6.184-11.15 13.284-9.41 2.307 3.92 4.55 8.844 6.2 13.5l-5.4-5.067z"/><path d="M371.065-159.094l.94 8.38-5.263-5.12.94 8.38-5.263-5.12.938 8.38c-2.29-3.108-4.87-8.068-6.377-13.924 1.997-8.594 6.185-11.15 13.285-9.408 2.307 3.92 4.55 8.843 6.2 13.5l-5.4-5.068z"/><path d="M367.792-166.204l.94 8.38-5.263-5.12.938 8.38-5.262-5.12.94 8.38c-2.292-3.108-4.872-8.068-6.378-13.924 1.996-8.594 6.184-11.15 13.284-9.408 2.307 3.92 4.55 8.843 6.2 13.5l-5.4-5.068z"/></g><path d="M345.63-96.125c0 3.28-1.12 5.938-2.5 5.938s-2.5-2.66-2.5-5.938 1.12-5.938 2.5-5.938 2.5 2.66 2.5 5.938z" transform="matrix(.498 -.385 .291 .659 228.03 87.159)" stroke-width="1pt"/><path d="M345.63-96.125c0 3.28-1.12 5.938-2.5 5.938s-2.5-2.66-2.5-5.938 1.12-5.938 2.5-5.938 2.5 2.66 2.5 5.938z" transform="matrix(.498 -.43 .291 .736 242.09 102.86)" stroke-width="1pt"/><path d="M345.63-96.125c0 3.28-1.12 5.938-2.5 5.938s-2.5-2.66-2.5-5.938 1.12-5.938 2.5-5.938 2.5 2.66 2.5 5.938z" transform="matrix(.535 -.415 .312 .71 245.2 88.253)" stroke-width="1pt"/></g><g><path d="M301.18 290.55c0 194.88 35.433 177.17 106.3 248.03 70.866-70.866 106.3-53.15 106.3-248.03-35.434 0-70.867 0-106.3-17.716-35.432 17.716-70.866 17.716-106.3 17.716z" transform="matrix(.247 0 0 .19 261.816 157.204)" stroke="#d7b900" stroke-width="4.824" fill="#fff"/><path d="M337.795 213.673c0 33.91 8.114 30.827 24.343 43.157 16.228-12.33 24.343-9.248 24.343-43.157-8.114 0-16.228 0-24.342-3.083-8.114 3.083-16.228 3.083-24.343 3.083z" fill="#d7b900"/><path d="M353.47 214.28v35.453l8.716 5.152 8.716-5.152V214.28c-3.11-.39-6.11-1.1-8.703-1.915-2.884.87-5.82 1.55-8.73 1.916z" fill="#fff"/></g></g></g></g></svg>