<svg xmlns="http://www.w3.org/2000/svg" height="512" width="512"><defs><clipPath id="a"><path fill-opacity=".67" d="M185.98 0h496.06v496.06H185.98z"/></clipPath></defs><g clip-path="url(#a)" fill-rule="evenodd" transform="matrix(1.032 0 0 1.032 -191.96 0)"><path stroke-width="1pt" fill="#fff" d="M0 0h868.11v496.06H0z"/><path stroke-width="1pt" fill="#da0000" d="M0 333.13h868.11v162.93H0z"/><g stroke-width="1pt" fill="#fff"><path d="M165.025 340.035h47.543v3.27h-47.543z"/><path d="M172.114 356.393h3.27v3.177h-3.27z"/><path d="M212.666 356.203v3.27h-9.5v-3.27z"/><path d="M217.802 340.035h3.272v19.532h-3.272z"/><path d="M236.696 356.203v3.27h-18v-3.27z"/><path d="M203.19 348.648h3.272v10.92h-3.272z"/><path d="M234.023 339.952h3.27v19.527h-3.27z"/><path d="M225.87 340.035h3.273v19.532h-3.272z"/><path d="M182.45 347.724v3.27H165.1v-3.27z"/><path d="M220.514 347.724v3.27h-17.347v-3.27z"/><path d="M203.19 348.648h3.272v10.92h-3.272z"/><path d="M203.19 348.648h3.272v10.92h-3.272z"/><path d="M203.19 348.648h3.272v10.92h-3.272z"/><path d="M165.1 348.563h3.272v10.916h-3.27z"/><path d="M193.023 348.648h3.272v10.92h-3.272z"/><path d="M179.18 348.563h3.27v10.916h-3.27z"/><path d="M195.298 356.203v3.27h-14.665v-3.27z"/><path d="M196.273 347.724v3.27h-9.297v-3.27z"/></g><g stroke-width="1pt" fill="#fff"><path d="M86.94 340.035h47.543v3.27H86.94z"/><path d="M94.03 356.393h3.27v3.177h-3.27z"/><path d="M134.58 356.203v3.27h-9.498v-3.27z"/><path d="M139.717 340.035h3.272v19.532h-3.273z"/><path d="M158.61 356.203v3.27h-18v-3.27z"/><path d="M125.105 348.648h3.272v10.92h-3.272z"/><path d="M155.938 339.952h3.27v19.527h-3.27z"/><path d="M147.786 340.035h3.272v19.532h-3.272z"/><path d="M104.364 347.724v3.27H87.017v-3.27z"/><path d="M142.43 347.724v3.27H125.08v-3.27z"/><path d="M125.105 348.648h3.272v10.92h-3.272z"/><path d="M125.105 348.648h3.272v10.92h-3.272z"/><path d="M125.105 348.648h3.272v10.92h-3.272z"/><path d="M87.016 348.563h3.27v10.916h-3.27z"/><path d="M114.938 348.648h3.272v10.92h-3.272z"/><path d="M101.094 348.563h3.27v10.916h-3.27z"/><path d="M117.213 356.203v3.27h-14.665v-3.27z"/><path d="M118.188 347.724v3.27h-9.297v-3.27z"/></g><g stroke-width="1pt" fill="#fff"><path d="M242.465 340.035h47.543v3.27h-47.543z"/><path d="M249.554 356.393h3.27v3.177h-3.27z"/><path d="M290.106 356.203v3.27h-9.5v-3.27z"/><path d="M295.242 340.035h3.272v19.532h-3.272z"/><path d="M314.136 356.203v3.27h-18v-3.27z"/><path d="M280.63 348.648h3.272v10.92h-3.272z"/><path d="M311.463 339.952h3.27v19.527h-3.27z"/><path d="M303.31 340.035h3.273v19.532h-3.272z"/><path d="M259.89 347.724v3.27H242.54v-3.27z"/><path d="M297.954 347.724v3.27h-17.347v-3.27z"/><path d="M280.63 348.648h3.272v10.92h-3.272z"/><path d="M280.63 348.648h3.272v10.92h-3.272z"/><path d="M280.63 348.648h3.272v10.92h-3.272z"/><path d="M242.54 348.563h3.272v10.916h-3.27z"/><path d="M270.463 348.648h3.272v10.92h-3.272z"/><path d="M256.62 348.563h3.27v10.916h-3.27z"/><path d="M272.738 356.203v3.27h-14.665v-3.27z"/><path d="M273.713 347.724v3.27h-9.297v-3.27z"/></g><g stroke-width="1pt" fill="#fff"><path d="M789.275 340.035h47.543v3.27h-47.543z"/><path d="M796.364 356.393h3.27v3.177h-3.27z"/><path d="M836.916 356.203v3.27h-9.5v-3.27z"/><path d="M842.052 340.035h3.272v19.532h-3.272z"/><path d="M860.946 356.203v3.27h-18v-3.27z"/><path d="M827.44 348.648h3.272v10.92h-3.272z"/><path d="M858.273 339.952h3.27v19.527h-3.27z"/><path d="M850.12 340.035h3.273v19.532h-3.272z"/><path d="M806.7 347.724v3.27H789.35v-3.27z"/><path d="M844.764 347.724v3.27h-17.347v-3.27z"/><path d="M827.44 348.648h3.272v10.92h-3.272z"/><path d="M827.44 348.648h3.272v10.92h-3.272z"/><path d="M827.44 348.648h3.272v10.92h-3.272z"/><path d="M789.35 348.563h3.272v10.916h-3.27z"/><path d="M817.273 348.648h3.272v10.92h-3.272z"/><path d="M803.43 348.563h3.27v10.916h-3.27z"/><path d="M819.548 356.203v3.27h-14.665v-3.27z"/><path d="M820.523 347.724v3.27h-9.297v-3.27z"/></g><g stroke-width="1pt" fill="#fff"><path d="M320.405 340.035h47.543v3.27h-47.543z"/><path d="M327.494 356.393h3.27v3.177h-3.27z"/><path d="M368.046 356.203v3.27h-9.5v-3.27z"/><path d="M373.182 340.035h3.272v19.532h-3.272z"/><path d="M392.076 356.203v3.27h-18v-3.27z"/><path d="M358.57 348.648h3.272v10.92h-3.272z"/><path d="M389.403 339.952h3.27v19.527h-3.27z"/><path d="M381.25 340.035h3.273v19.532h-3.272z"/><path d="M337.83 347.724v3.27H320.48v-3.27z"/><path d="M375.894 347.724v3.27h-17.347v-3.27z"/><path d="M358.57 348.648h3.272v10.92h-3.272z"/><path d="M358.57 348.648h3.272v10.92h-3.272z"/><path d="M358.57 348.648h3.272v10.92h-3.272z"/><path d="M320.48 348.563h3.272v10.916h-3.27z"/><path d="M348.403 348.648h3.272v10.92h-3.272z"/><path d="M334.56 348.563h3.27v10.916h-3.27z"/><path d="M350.678 356.203v3.27h-14.665v-3.27z"/><path d="M351.653 347.724v3.27h-9.297v-3.27z"/></g><g stroke-width="1pt" fill="#fff"><path d="M398.625 340.035h47.543v3.27h-47.543z"/><path d="M405.714 356.393h3.27v3.177h-3.27z"/><path d="M446.266 356.203v3.27h-9.5v-3.27z"/><path d="M451.402 340.035h3.272v19.532h-3.272z"/><path d="M470.296 356.203v3.27h-18v-3.27z"/><path d="M436.79 348.648h3.272v10.92h-3.272z"/><path d="M467.623 339.952h3.27v19.527h-3.27z"/><path d="M459.47 340.035h3.273v19.532h-3.272z"/><path d="M416.05 347.724v3.27H398.7v-3.27z"/><path d="M454.114 347.724v3.27h-17.347v-3.27z"/><path d="M436.79 348.648h3.272v10.92h-3.272z"/><path d="M436.79 348.648h3.272v10.92h-3.272z"/><path d="M436.79 348.648h3.272v10.92h-3.272z"/><path d="M398.7 348.563h3.272v10.916h-3.27z"/><path d="M426.623 348.648h3.272v10.92h-3.272z"/><path d="M412.78 348.563h3.27v10.916h-3.27z"/><path d="M428.898 356.203v3.27h-14.665v-3.27z"/><path d="M429.873 347.724v3.27h-9.297v-3.27z"/></g><path stroke-width="1pt" fill="#239f40" d="M0 0h868.11v162.93H0z"/><g stroke-width="1pt" fill="#fff"><path d="M477.305 340.035h47.543v3.27h-47.543z"/><path d="M484.394 356.393h3.27v3.177h-3.27z"/><path d="M524.946 356.203v3.27h-9.5v-3.27z"/><path d="M530.082 340.035h3.272v19.532h-3.272z"/><path d="M548.976 356.203v3.27h-18v-3.27z"/><path d="M515.47 348.648h3.272v10.92h-3.272z"/><path d="M546.303 339.952h3.27v19.527h-3.27z"/><path d="M538.15 340.035h3.273v19.532h-3.272z"/><path d="M494.73 347.724v3.27H477.38v-3.27z"/><path d="M532.794 347.724v3.27h-17.347v-3.27z"/><path d="M515.47 348.648h3.272v10.92h-3.272z"/><path d="M515.47 348.648h3.272v10.92h-3.272z"/><path d="M515.47 348.648h3.272v10.92h-3.272z"/><path d="M477.38 348.563h3.272v10.916h-3.27z"/><path d="M505.303 348.648h3.272v10.92h-3.272z"/><path d="M491.46 348.563h3.27v10.916h-3.27z"/><path d="M507.578 356.203v3.27h-14.665v-3.27z"/><path d="M508.553 347.724v3.27h-9.297v-3.27z"/></g><g stroke-width="1pt" fill="#fff"><path d="M555.535 340.035h47.543v3.27h-47.543z"/><path d="M562.624 356.393h3.27v3.177h-3.27z"/><path d="M603.176 356.203v3.27h-9.5v-3.27z"/><path d="M608.312 340.035h3.272v19.532h-3.272z"/><path d="M627.206 356.203v3.27h-18v-3.27z"/><path d="M593.7 348.648h3.272v10.92H593.7z"/><path d="M624.533 339.952h3.27v19.527h-3.27z"/><path d="M616.38 340.035h3.273v19.532h-3.272z"/><path d="M572.96 347.724v3.27H555.61v-3.27z"/><path d="M611.024 347.724v3.27h-17.347v-3.27z"/><path d="M593.7 348.648h3.272v10.92H593.7z"/><path d="M593.7 348.648h3.272v10.92H593.7z"/><path d="M593.7 348.648h3.272v10.92H593.7z"/><path d="M555.61 348.563h3.272v10.916h-3.27z"/><path d="M583.533 348.648h3.272v10.92h-3.272z"/><path d="M569.69 348.563h3.27v10.916h-3.27z"/><path d="M585.808 356.203v3.27h-14.665v-3.27z"/><path d="M586.783 347.724v3.27h-9.297v-3.27z"/></g><g stroke-width="1pt" fill="#fff"><path d="M633.755 340.035h47.543v3.27h-47.543z"/><path d="M640.844 356.393h3.27v3.177h-3.27z"/><path d="M681.396 356.203v3.27h-9.5v-3.27z"/><path d="M686.532 340.035h3.272v19.532h-3.272z"/><path d="M705.426 356.203v3.27h-18v-3.27z"/><path d="M671.92 348.648h3.272v10.92h-3.272z"/><path d="M702.753 339.952h3.27v19.527h-3.27z"/><path d="M694.6 340.035h3.273v19.532H694.6z"/><path d="M651.18 347.724v3.27H633.83v-3.27z"/><path d="M689.244 347.724v3.27h-17.347v-3.27z"/><path d="M671.92 348.648h3.272v10.92h-3.272z"/><path d="M671.92 348.648h3.272v10.92h-3.272z"/><path d="M671.92 348.648h3.272v10.92h-3.272z"/><path d="M633.83 348.563h3.272v10.916h-3.27z"/><path d="M661.753 348.648h3.272v10.92h-3.272z"/><path d="M647.91 348.563h3.27v10.916h-3.27z"/><path d="M664.028 356.203v3.27h-14.665v-3.27z"/><path d="M665.003 347.724v3.27h-9.297v-3.27z"/></g><g stroke-width="1pt" fill="#fff"><path d="M712.435 340.035h47.543v3.27h-47.543z"/><path d="M719.524 356.393h3.27v3.177h-3.27z"/><path d="M760.076 356.203v3.27h-9.5v-3.27z"/><path d="M765.212 340.035h3.272v19.532h-3.272z"/><path d="M784.106 356.203v3.27h-18v-3.27z"/><path d="M750.6 348.648h3.272v10.92H750.6z"/><path d="M781.433 339.952h3.27v19.527h-3.27z"/><path d="M773.28 340.035h3.273v19.532h-3.272z"/><path d="M729.86 347.724v3.27H712.51v-3.27z"/><path d="M767.924 347.724v3.27h-17.347v-3.27z"/><path d="M750.6 348.648h3.272v10.92H750.6z"/><path d="M750.6 348.648h3.272v10.92H750.6z"/><path d="M750.6 348.648h3.272v10.92H750.6z"/><path d="M712.51 348.563h3.272v10.916h-3.27z"/><path d="M740.433 348.648h3.272v10.92h-3.272z"/><path d="M726.59 348.563h3.27v10.916h-3.27z"/><path d="M742.708 356.203v3.27h-14.665v-3.27z"/><path d="M743.683 347.724v3.27h-9.297v-3.27z"/></g><g stroke-width="1pt" fill="#fff"><path d="M7.92 340.035H55.46v3.27H7.92z"/><path d="M15.008 356.393h3.27v3.177h-3.27z"/><path d="M55.56 356.203v3.27h-9.5v-3.27z"/><path d="M60.696 340.035h3.272v19.532h-3.272z"/><path d="M79.59 356.203v3.27h-18v-3.27z"/><path d="M46.084 348.648h3.272v10.92h-3.272z"/><path d="M76.917 339.952h3.27v19.527h-3.27z"/><path d="M68.765 340.035h3.272v19.532h-3.272z"/><path d="M25.343 347.724v3.27H7.996v-3.27z"/><path d="M63.408 347.724v3.27H46.06v-3.27z"/><path d="M46.084 348.648h3.272v10.92h-3.272z"/><path d="M46.084 348.648h3.272v10.92h-3.272z"/><path d="M46.084 348.648h3.272v10.92h-3.272z"/><path d="M7.995 348.563h3.27v10.916h-3.27z"/><path d="M35.917 348.648h3.272v10.92h-3.273z"/><path d="M22.073 348.563h3.27v10.916h-3.27z"/><path d="M38.192 356.203v3.27H23.527v-3.27z"/><path d="M39.167 347.724v3.27H29.87v-3.27z"/></g><g stroke-width="1pt" fill="#fff"><path d="M165.025 138.975h47.543v3.27h-47.543z"/><path d="M172.114 155.333h3.27v3.177h-3.27z"/><path d="M212.666 155.143v3.27h-9.5v-3.27z"/><path d="M217.802 138.975h3.272v19.532h-3.272z"/><path d="M236.696 155.143v3.27h-18v-3.27z"/><path d="M203.19 147.588h3.272v10.92h-3.272z"/><path d="M234.023 138.892h3.27v19.527h-3.27z"/><path d="M225.87 138.975h3.273v19.532h-3.272z"/><path d="M182.45 146.664v3.27H165.1v-3.27z"/><path d="M220.514 146.664v3.27h-17.347v-3.27z"/><path d="M203.19 147.588h3.272v10.92h-3.272z"/><path d="M203.19 147.588h3.272v10.92h-3.272z"/><path d="M203.19 147.588h3.272v10.92h-3.272z"/><path d="M165.1 147.503h3.272v10.916h-3.27z"/><path d="M193.023 147.588h3.272v10.92h-3.272z"/><path d="M179.18 147.503h3.27v10.916h-3.27z"/><path d="M195.298 155.143v3.27h-14.665v-3.27z"/><path d="M196.273 146.664v3.27h-9.297v-3.27z"/></g><g stroke-width="1pt" fill="#fff"><path d="M86.94 138.975h47.543v3.27H86.94z"/><path d="M94.03 155.333h3.27v3.177h-3.27z"/><path d="M134.58 155.143v3.27h-9.498v-3.27z"/><path d="M139.717 138.975h3.272v19.532h-3.273z"/><path d="M158.61 155.143v3.27h-18v-3.27z"/><path d="M125.105 147.588h3.272v10.92h-3.272z"/><path d="M155.938 138.892h3.27v19.527h-3.27z"/><path d="M147.786 138.975h3.272v19.532h-3.272z"/><path d="M104.364 146.664v3.27H87.017v-3.27z"/><path d="M142.43 146.664v3.27H125.08v-3.27z"/><path d="M125.105 147.588h3.272v10.92h-3.272z"/><path d="M125.105 147.588h3.272v10.92h-3.272z"/><path d="M125.105 147.588h3.272v10.92h-3.272z"/><path d="M87.016 147.503h3.27v10.916h-3.27z"/><path d="M114.938 147.588h3.272v10.92h-3.272z"/><path d="M101.094 147.503h3.27v10.916h-3.27z"/><path d="M117.213 155.143v3.27h-14.665v-3.27z"/><path d="M118.188 146.664v3.27h-9.297v-3.27z"/></g><g stroke-width="1pt" fill="#fff"><path d="M242.465 138.975h47.543v3.27h-47.543z"/><path d="M249.554 155.333h3.27v3.177h-3.27z"/><path d="M290.106 155.143v3.27h-9.5v-3.27z"/><path d="M295.242 138.975h3.272v19.532h-3.272z"/><path d="M314.136 155.143v3.27h-18v-3.27z"/><path d="M280.63 147.588h3.272v10.92h-3.272z"/><path d="M311.463 138.892h3.27v19.527h-3.27z"/><path d="M303.31 138.975h3.273v19.532h-3.272z"/><path d="M259.89 146.664v3.27H242.54v-3.27z"/><path d="M297.954 146.664v3.27h-17.347v-3.27z"/><path d="M280.63 147.588h3.272v10.92h-3.272z"/><path d="M280.63 147.588h3.272v10.92h-3.272z"/><path d="M280.63 147.588h3.272v10.92h-3.272z"/><path d="M242.54 147.503h3.272v10.916h-3.27z"/><path d="M270.463 147.588h3.272v10.92h-3.272z"/><path d="M256.62 147.503h3.27v10.916h-3.27z"/><path d="M272.738 155.143v3.27h-14.665v-3.27z"/><path d="M273.713 146.664v3.27h-9.297v-3.27z"/></g><g stroke-width="1pt" fill="#fff"><path d="M789.275 138.975h47.543v3.27h-47.543z"/><path d="M796.364 155.333h3.27v3.177h-3.27z"/><path d="M836.916 155.143v3.27h-9.5v-3.27z"/><path d="M842.052 138.975h3.272v19.532h-3.272z"/><path d="M860.946 155.143v3.27h-18v-3.27z"/><path d="M827.44 147.588h3.272v10.92h-3.272z"/><path d="M858.273 138.892h3.27v19.527h-3.27z"/><path d="M850.12 138.975h3.273v19.532h-3.272z"/><path d="M806.7 146.664v3.27H789.35v-3.27z"/><path d="M844.764 146.664v3.27h-17.347v-3.27z"/><path d="M827.44 147.588h3.272v10.92h-3.272z"/><path d="M827.44 147.588h3.272v10.92h-3.272z"/><path d="M827.44 147.588h3.272v10.92h-3.272z"/><path d="M789.35 147.503h3.272v10.916h-3.27z"/><path d="M817.273 147.588h3.272v10.92h-3.272z"/><path d="M803.43 147.503h3.27v10.916h-3.27z"/><path d="M819.548 155.143v3.27h-14.665v-3.27z"/><path d="M820.523 146.664v3.27h-9.297v-3.27z"/></g><g stroke-width="1pt" fill="#fff"><path d="M320.405 138.975h47.543v3.27h-47.543z"/><path d="M327.494 155.333h3.27v3.177h-3.27z"/><path d="M368.046 155.143v3.27h-9.5v-3.27z"/><path d="M373.182 138.975h3.272v19.532h-3.272z"/><path d="M392.076 155.143v3.27h-18v-3.27z"/><path d="M358.57 147.588h3.272v10.92h-3.272z"/><path d="M389.403 138.892h3.27v19.527h-3.27z"/><path d="M381.25 138.975h3.273v19.532h-3.272z"/><path d="M337.83 146.664v3.27H320.48v-3.27z"/><path d="M375.894 146.664v3.27h-17.347v-3.27z"/><path d="M358.57 147.588h3.272v10.92h-3.272z"/><path d="M358.57 147.588h3.272v10.92h-3.272z"/><path d="M358.57 147.588h3.272v10.92h-3.272z"/><path d="M320.48 147.503h3.272v10.916h-3.27z"/><path d="M348.403 147.588h3.272v10.92h-3.272z"/><path d="M334.56 147.503h3.27v10.916h-3.27z"/><path d="M350.678 155.143v3.27h-14.665v-3.27z"/><path d="M351.653 146.664v3.27h-9.297v-3.27z"/></g><g stroke-width="1pt" fill="#fff"><path d="M398.625 138.975h47.543v3.27h-47.543z"/><path d="M405.714 155.333h3.27v3.177h-3.27z"/><path d="M446.266 155.143v3.27h-9.5v-3.27z"/><path d="M451.402 138.975h3.272v19.532h-3.272z"/><path d="M470.296 155.143v3.27h-18v-3.27z"/><path d="M436.79 147.588h3.272v10.92h-3.272z"/><path d="M467.623 138.892h3.27v19.527h-3.27z"/><path d="M459.47 138.975h3.273v19.532h-3.272z"/><path d="M416.05 146.664v3.27H398.7v-3.27z"/><path d="M454.114 146.664v3.27h-17.347v-3.27z"/><path d="M436.79 147.588h3.272v10.92h-3.272z"/><path d="M436.79 147.588h3.272v10.92h-3.272z"/><path d="M436.79 147.588h3.272v10.92h-3.272z"/><path d="M398.7 147.503h3.272v10.916h-3.27z"/><path d="M426.623 147.588h3.272v10.92h-3.272z"/><path d="M412.78 147.503h3.27v10.916h-3.27z"/><path d="M428.898 155.143v3.27h-14.665v-3.27z"/><path d="M429.873 146.664v3.27h-9.297v-3.27z"/></g><g stroke-width="1pt" fill="#fff"><path d="M477.305 138.975h47.543v3.27h-47.543z"/><path d="M484.394 155.333h3.27v3.177h-3.27z"/><path d="M524.946 155.143v3.27h-9.5v-3.27z"/><path d="M530.082 138.975h3.272v19.532h-3.272z"/><path d="M548.976 155.143v3.27h-18v-3.27z"/><path d="M515.47 147.588h3.272v10.92h-3.272z"/><path d="M546.303 138.892h3.27v19.527h-3.27z"/><path d="M538.15 138.975h3.273v19.532h-3.272z"/><path d="M494.73 146.664v3.27H477.38v-3.27z"/><path d="M532.794 146.664v3.27h-17.347v-3.27z"/><path d="M515.47 147.588h3.272v10.92h-3.272z"/><path d="M515.47 147.588h3.272v10.92h-3.272z"/><path d="M515.47 147.588h3.272v10.92h-3.272z"/><path d="M477.38 147.503h3.272v10.916h-3.27z"/><path d="M505.303 147.588h3.272v10.92h-3.272z"/><path d="M491.46 147.503h3.27v10.916h-3.27z"/><path d="M507.578 155.143v3.27h-14.665v-3.27z"/><path d="M508.553 146.664v3.27h-9.297v-3.27z"/></g><g stroke-width="1pt" fill="#fff"><path d="M555.535 138.975h47.543v3.27h-47.543z"/><path d="M562.624 155.333h3.27v3.177h-3.27z"/><path d="M603.176 155.143v3.27h-9.5v-3.27z"/><path d="M608.312 138.975h3.272v19.532h-3.272z"/><path d="M627.206 155.143v3.27h-18v-3.27z"/><path d="M593.7 147.588h3.272v10.92H593.7z"/><path d="M624.533 138.892h3.27v19.527h-3.27z"/><path d="M616.38 138.975h3.273v19.532h-3.272z"/><path d="M572.96 146.664v3.27H555.61v-3.27z"/><path d="M611.024 146.664v3.27h-17.347v-3.27z"/><path d="M593.7 147.588h3.272v10.92H593.7z"/><path d="M593.7 147.588h3.272v10.92H593.7z"/><path d="M593.7 147.588h3.272v10.92H593.7z"/><path d="M555.61 147.503h3.272v10.916h-3.27z"/><path d="M583.533 147.588h3.272v10.92h-3.272z"/><path d="M569.69 147.503h3.27v10.916h-3.27z"/><path d="M585.808 155.143v3.27h-14.665v-3.27z"/><path d="M586.783 146.664v3.27h-9.297v-3.27z"/></g><g stroke-width="1pt" fill="#fff"><path d="M633.755 138.975h47.543v3.27h-47.543z"/><path d="M640.844 155.333h3.27v3.177h-3.27z"/><path d="M681.396 155.143v3.27h-9.5v-3.27z"/><path d="M686.532 138.975h3.272v19.532h-3.272z"/><path d="M705.426 155.143v3.27h-18v-3.27z"/><path d="M671.92 147.588h3.272v10.92h-3.272z"/><path d="M702.753 138.892h3.27v19.527h-3.27z"/><path d="M694.6 138.975h3.273v19.532H694.6z"/><path d="M651.18 146.664v3.27H633.83v-3.27z"/><path d="M689.244 146.664v3.27h-17.347v-3.27z"/><path d="M671.92 147.588h3.272v10.92h-3.272z"/><path d="M671.92 147.588h3.272v10.92h-3.272z"/><path d="M671.92 147.588h3.272v10.92h-3.272z"/><path d="M633.83 147.503h3.272v10.916h-3.27z"/><path d="M661.753 147.588h3.272v10.92h-3.272z"/><path d="M647.91 147.503h3.27v10.916h-3.27z"/><path d="M664.028 155.143v3.27h-14.665v-3.27z"/><path d="M665.003 146.664v3.27h-9.297v-3.27z"/></g><g stroke-width="1pt" fill="#fff"><path d="M712.435 138.975h47.543v3.27h-47.543z"/><path d="M719.524 155.333h3.27v3.177h-3.27z"/><path d="M760.076 155.143v3.27h-9.5v-3.27z"/><path d="M765.212 138.975h3.272v19.532h-3.272z"/><path d="M784.106 155.143v3.27h-18v-3.27z"/><path d="M750.6 147.588h3.272v10.92H750.6z"/><path d="M781.433 138.892h3.27v19.527h-3.27z"/><path d="M773.28 138.975h3.273v19.532h-3.272z"/><path d="M729.86 146.664v3.27H712.51v-3.27z"/><path d="M767.924 146.664v3.27h-17.347v-3.27z"/><path d="M750.6 147.588h3.272v10.92H750.6z"/><path d="M750.6 147.588h3.272v10.92H750.6z"/><path d="M750.6 147.588h3.272v10.92H750.6z"/><path d="M712.51 147.503h3.272v10.916h-3.27z"/><path d="M740.433 147.588h3.272v10.92h-3.272z"/><path d="M726.59 147.503h3.27v10.916h-3.27z"/><path d="M742.708 155.143v3.27h-14.665v-3.27z"/><path d="M743.683 146.664v3.27h-9.297v-3.27z"/></g><g stroke-width="1pt" fill="#fff"><path d="M7.92 138.975H55.46v3.27H7.92z"/><path d="M15.008 155.333h3.27v3.177h-3.27z"/><path d="M55.56 155.143v3.27h-9.5v-3.27z"/><path d="M60.696 138.975h3.272v19.532h-3.272z"/><path d="M79.59 155.143v3.27h-18v-3.27z"/><path d="M46.084 147.588h3.272v10.92h-3.272z"/><path d="M76.917 138.892h3.27v19.527h-3.27z"/><path d="M68.765 138.975h3.272v19.532h-3.272z"/><path d="M25.343 146.664v3.27H7.996v-3.27z"/><path d="M63.408 146.664v3.27H46.06v-3.27z"/><path d="M46.084 147.588h3.272v10.92h-3.272z"/><path d="M46.084 147.588h3.272v10.92h-3.272z"/><path d="M46.084 147.588h3.272v10.92h-3.272z"/><path d="M7.995 147.503h3.27v10.916h-3.27z"/><path d="M35.917 147.588h3.272v10.92h-3.273z"/><path d="M22.073 147.503h3.27v10.916h-3.27z"/><path d="M38.192 155.143v3.27H23.527v-3.27z"/><path d="M39.167 146.664v3.27H29.87v-3.27z"/></g><g stroke-width="1pt" fill="#d90000"><path d="M119.3 328.94h5.86v10.178h-5.86z"/><path d="M274.84 328.94h5.86v10.178h-5.86z"/><path d="M-.042 328.94h5.86v10.178h-5.86z"/><path d="M78.9 328.94h5.86v10.178H78.9z"/><path d="M157.278 328.94h5.86v10.178h-5.86z"/><path d="M196.058 328.94h5.86v10.178h-5.86z"/><path d="M235.648 328.94h5.86v10.178h-5.86z"/><path d="M313.62 328.94h5.86v10.178h-5.86z"/><path d="M510.36 328.94h5.86v10.178h-5.86z"/><path d="M353.208 328.94h5.86v10.178h-5.86z"/><path d="M391.998 328.94h5.86v10.178h-5.86z"/><path d="M431.178 328.94h5.86v10.178h-5.86z"/><path d="M470.368 328.94h5.86v10.178h-5.86z"/><path d="M783.46 328.94h5.86v10.178h-5.86z"/><path d="M548.338 328.94h5.86v10.178h-5.86z"/><path d="M587.928 328.94h5.86v10.178h-5.86z"/><path d="M627.928 328.94h5.86v10.178h-5.86z"/><path d="M665.498 328.94h5.86v10.178h-5.86z"/><path d="M705.488 328.94h5.86v10.178h-5.86z"/><path d="M744.678 328.94h5.86v10.178h-5.86z"/><path d="M860.63 328.94h5.86v10.178h-5.86z"/><path d="M823.058 328.94h5.86v10.178h-5.86z"/><path d="M39.308 328.94h5.86v10.178h-5.86z"/></g><g stroke-width="1pt" fill="#239e3f"><path d="M119.3 157.55h5.86v10.178h-5.86z"/><path d="M274.84 157.55h5.86v10.178h-5.86z"/><path d="M-.042 157.55h5.86v10.178h-5.86z"/><path d="M78.9 157.55h5.86v10.178H78.9z"/><path d="M157.278 157.55h5.86v10.178h-5.86z"/><path d="M196.058 157.55h5.86v10.178h-5.86z"/><path d="M235.648 157.55h5.86v10.178h-5.86z"/><path d="M313.62 157.55h5.86v10.178h-5.86z"/><path d="M510.36 157.55h5.86v10.178h-5.86z"/><path d="M353.208 157.55h5.86v10.178h-5.86z"/><path d="M391.998 157.55h5.86v10.178h-5.86z"/><path d="M431.178 157.55h5.86v10.178h-5.86z"/><path d="M470.368 157.55h5.86v10.178h-5.86z"/><path d="M783.46 157.55h5.86v10.178h-5.86z"/><path d="M548.338 157.55h5.86v10.178h-5.86z"/><path d="M587.928 157.55h5.86v10.178h-5.86z"/><path d="M627.928 157.55h5.86v10.178h-5.86z"/><path d="M665.498 157.55h5.86v10.178h-5.86z"/><path d="M705.488 157.55h5.86v10.178h-5.86z"/><path d="M744.678 157.55h5.86v10.178h-5.86z"/><path d="M860.63 157.55h5.86v10.178h-5.86z"/><path d="M823.058 157.55h5.86v10.178h-5.86z"/><path d="M39.308 157.55h5.86v10.178h-5.86z"/></g><g fill="#da0000"><path d="M457.08 191.36c8.19 10.04 33.437 65.548-15.242 101.91-22.884 17.223-8.714 18.093-8.037 20.988 36.786-19.54 48.8-46.013 48.52-69.727-.28-23.714-12.852-44.668-25.24-53.166z"/><path d="M461.95 188.78c18.165 9.3 57.7 56.08 15.148 108.85 26.44-5.868 60.053-83.73-15.15-108.85z"/><path d="M406.16 188.78c-18.167 9.3-57.702 56.08-15.15 108.85-26.44-5.868-60.053-83.73 15.15-108.85z"/><path d="M410.96 191.36c-8.19 10.04-33.44 65.548 15.24 101.91 22.884 17.223 8.714 18.093 8.037 20.988-36.785-19.54-48.8-46.013-48.52-69.727.28-23.714 12.853-44.668 25.242-53.166z"/><path d="M480.72 309.2c-14.4.228-32.55-1.984-46.01-8.98 2.216 4.312 4.058 7.027 6.275 11.338 12.838 1.184 30.554 2.65 39.734-2.358z"/><path d="M388.7 309.2c14.397.228 32.548-1.984 46.01-8.98-2.218 4.312-4.06 7.027-6.277 11.338-12.838 1.184-30.554 2.65-39.734-2.358z"/><path d="M415.11 174.8c2.916 7.753 10.57 8.88 18.76 4.315 5.97 3.582 15.203 3.81 18.387-3.94 2.42 19.17-17.736 14.634-18.487 10.882-7.504 7.254-21.475 3.064-18.66-11.257z"/><path d="M434.41 321.27l7.57-8.652 1.08-116.44-9.01-7.93-9.013 7.57 1.802 117.16 7.57 8.29z"/></g></g></svg>