<svg xmlns="http://www.w3.org/2000/svg" height="512" width="512"><defs><clipPath id="a"><path fill-opacity=".67" d="M0 .354h495.71v495.71H0z"/></clipPath></defs><g fill-rule="evenodd" clip-path="url(#a)" transform="matrix(1.033 0 0 1.033 0 -.366)"><g stroke-width="1pt"><path fill="#e4104d" d="M0 248.03h744.09v248.03H0z"/><path fill="#8a85ff" d="M0 .354h744.09v247.68H0z"/></g><g><g><path d="M145.22 150.275l48.592-.184s17.945-21.525 8.445-35.63c-9.5-14.102-46.747-.444-46.897-.444-.15 0-.302-7.57-9.5-7.72-9.2.15-9.35 7.72-9.5 7.72-.15 0-37.398-13.658-46.897.445-9.5 14.105 8.444 35.63 8.444 35.63l47.315.185z" fill="#f3ef7d"/><path d="M145.307 150.62l46.703-.18s17.246-20.95 8.115-34.677c-9.13-13.727-44.927-.434-45.07-.434-.146 0-.29-7.37-9.132-7.515-8.84.145-8.985 7.514-9.13 7.514-.145 0-35.942-13.294-45.072.433-9.13 13.727 8.118 34.678 8.118 34.678l45.472.18z"/></g><g stroke-width="1pt" fill="#f3ef7d"><path d="M199.445 121.21h-.553v6.63h.553z"/><path d="M197.435 117.612h-.553v13.634h.553z"/><path d="M195.515 115.747h-.65v17.935h.65z"/><path d="M193.055 114.436h-.703v21.45h.703z"/><path d="M190.265 113.668h-.703v24.04h.703z"/><path d="M187.415 112.737h-.697v26.196h.697z"/><path d="M184.995 112.534h-.703v27.3h.703z"/><path d="M182.565 112.534h-.703v28.07h.703z"/><path d="M179.525 112.594h-.65v29.277h.65z"/><path d="M176.675 112.876h-.8v29.293h.8z"/><path d="M173.555 113.595h-.8v28.86h.8z"/><path d="M170.505 114.715h-.75v27.946h.75z"/><path d="M167.315 115.996h-.703v26.46h.703z"/><path d="M164.675 116.86h-.703v24.685h.703z"/><path d="M161.865 118.528h-.6v22.263h.6z"/><path d="M159.405 120.688h-.505v19.025h.505z"/><path d="M157.195 122.8h-.6v15.474h.6z"/><path d="M155.035 126.033h-.54v9.88h.54z"/></g><g stroke-width="1pt" fill="#f3ef7d"><path d="M91.955 120.547h.553v6.63h-.553z"/><path d="M93.965 116.95h.553v13.633h-.553z"/><path d="M95.885 115.084h.65v17.935h-.65z"/><path d="M98.345 113.773h.703v21.45h-.703z"/><path d="M101.135 113.005h.703v24.04h-.703z"/><path d="M103.985 112.074h.697v26.196h-.697z"/><path d="M106.405 111.87h.703v27.302h-.703z"/><path d="M108.835 111.87h.703v28.07h-.703z"/><path d="M111.875 111.93h.65v29.278h-.65z"/><path d="M114.725 112.213h.8v29.293h-.8z"/><path d="M117.845 112.932h.8v28.86h-.8z"/><path d="M120.895 114.052h.75v27.946h-.75z"/><path d="M124.085 115.333h.703v26.46h-.703z"/><path d="M126.725 116.196h.703v24.686h-.703z"/><path d="M129.535 117.865h.6v22.263h-.6z"/><path d="M131.995 120.025h.505v19.025h-.505z"/><path d="M134.205 122.136h.6v15.475h-.6z"/><path d="M136.365 125.37h.54v9.88h-.54z"/></g><path d="M205.64 168.03l-.833-12.49c0-2.497-18.317-16.65-18.316-52.45 0-35.8 15.82-49.955 24.145-49.955s26.642 11.656 27.475 49.12c.832 37.467-18.317 51.62-18.317 51.62l-1.665 14.987s13.32.832 14.154.832c.832 0 18.316-14.986 63.275-13.32s47.456 19.98 48.29 25.81c.83 5.827-6.662 23.31-51.62 23.31-44.96 0-58.28-20.813-59.113-20.813-.832 0-14.153-.832-14.153-.832v10.823s17.484 13.322 16.652 57.448c-.833 44.126-18.317 46.624-23.312 46.624-6.66 0-20.814-2.497-21.647-45.79 1.666-44.127 13.322-56.616 13.322-57.448V184.68h-12.49s-13.32 10.824-59.11 11.657c-45.792.832-48.29-12.49-49.123-19.982-.833-7.493 8.326-20.814 48.288-21.647 39.963-.832 59.112 13.32 59.112 13.32l14.987.002z" transform="matrix(.077 0 0 .08 129.195 76.96)" stroke-width="1pt" fill="#f3ef7d"/><g transform="matrix(.334 0 0 .355 69.731 71.52)" stroke-width="1pt" fill="#f3ef7d"><rect rx="5.828" ry="5.828" height="11.656" width="11.656" y="105.59" x="188.99"/><rect rx="5.828" ry="5.828" height="11.656" width="11.656" y="103.23" x="177.22"/><rect rx="5.828" ry="5.828" height="11.656" width="11.656" y="99.703" x="164.86"/><rect rx="5.828" ry="5.828" height="11.656" width="11.656" y="96.759" x="152.49"/><rect rx="5.828" ry="5.828" height="11.656" width="11.656" y="94.404" x="139.54"/><rect rx="5.828" ry="5.828" height="11.656" width="11.656" y="92.638" x="126.59"/><rect rx="5.828" ry="5.828" height="11.656" width="11.656" y="91.461" x="114.23"/><rect rx="5.828" ry="5.828" height="11.656" width="11.656" y="90.872" x="101.27"/><rect rx="5.828" ry="5.828" height="11.656" width="11.656" y="92.638" x="88.911"/><rect rx="5.828" ry="5.828" height="11.656" width="11.656" y="94.404" x="75.96"/><rect rx="5.828" ry="5.828" height="11.656" width="11.656" y="98.525" x="64.185"/><rect rx="5.828" ry="5.828" height="11.656" width="11.656" y="106.18" x="53"/><rect rx="5.828" ry="5.828" height="11.656" width="11.656" y="116.78" x="45.346"/><rect rx="5.828" ry="5.828" height="11.656" width="11.656" y="127.96" x="40.637"/><rect rx="5.828" ry="5.828" height="11.656" width="11.656" y="140.32" x="38.871"/><rect rx="5.828" ry="5.828" height="11.656" width="11.656" y="153.28" x="39.459"/><rect rx="5.828" ry="5.828" height="11.656" width="11.656" y="165.64" x="42.403"/><rect rx="5.828" ry="5.828" height="11.656" width="11.656" y="178" x="47.113"/><rect rx="5.828" ry="5.828" height="11.656" width="11.656" y="188.6" x="52.411"/></g><g transform="matrix(-.334 0 0 .355 222.045 71.52)" stroke-width="1pt" fill="#f3ef7d"><rect rx="5.828" ry="5.828" height="11.656" width="11.656" y="105.59" x="188.99"/><rect rx="5.828" ry="5.828" height="11.656" width="11.656" y="103.23" x="177.22"/><rect rx="5.828" ry="5.828" height="11.656" width="11.656" y="99.703" x="164.86"/><rect rx="5.828" ry="5.828" height="11.656" width="11.656" y="96.759" x="152.49"/><rect rx="5.828" ry="5.828" height="11.656" width="11.656" y="94.404" x="139.54"/><rect rx="5.828" ry="5.828" height="11.656" width="11.656" y="92.638" x="126.59"/><rect rx="5.828" ry="5.828" height="11.656" width="11.656" y="91.461" x="114.23"/><rect rx="5.828" ry="5.828" height="11.656" width="11.656" y="90.872" x="101.27"/><rect rx="5.828" ry="5.828" height="11.656" width="11.656" y="92.638" x="88.911"/><rect rx="5.828" ry="5.828" height="11.656" width="11.656" y="94.404" x="75.96"/><rect rx="5.828" ry="5.828" height="11.656" width="11.656" y="98.525" x="64.185"/><rect rx="5.828" ry="5.828" height="11.656" width="11.656" y="106.18" x="53"/><rect rx="5.828" ry="5.828" height="11.656" width="11.656" y="116.78" x="45.346"/><rect rx="5.828" ry="5.828" height="11.656" width="11.656" y="127.96" x="40.637"/><rect rx="5.828" ry="5.828" height="11.656" width="11.656" y="140.32" x="38.871"/><rect rx="5.828" ry="5.828" height="11.656" width="11.656" y="153.28" x="39.459"/><rect rx="5.828" ry="5.828" height="11.656" width="11.656" y="165.64" x="42.403"/><rect rx="5.828" ry="5.828" height="11.656" width="11.656" y="178" x="47.113"/><rect rx="5.828" ry="5.828" height="11.656" width="11.656" y="188.6" x="52.411"/></g><g stroke-width="1pt" transform="translate(-16.385 221.83)"><path d="M227.04-79.384L215.936-46.58s-18.36-7.677-52.782-7.677c-34.424 0-50.108 6.716-50.108 6.716l-16.15-32.235c14.367-2.67 18.746 9.57 18.746 9.57s.978-14.295 12.26-16.832c9.532-1.652 17.954 10.712 17.954 10.712s1.985-13.914 16.07-14.296c14.085.38 16.07 14.295 16.07 14.295s8.422-12.363 17.953-10.712c11.282 2.537 12.26 16.834 12.26 16.834s4.38-12.243 18.83-9.182z" fill="#f3ef7d"/><rect transform="translate(13.258 -218.32)" rx="51.429" ry="8.13" height="16.261" width="102.86" y="162.27" x="100.1"/><g transform="matrix(.334 0 0 .355 86.116 -150.31)"><rect rx="3.434" ry="4.651" height="9.301" width="6.868" y="175.06" x="228.46"/><rect rx="3.434" ry="4.651" height="9.301" width="6.868" y="177.41" x="237.82"/><rect rx="3.434" ry="4.651" height="9.301" width="6.868" y="175.06" x="219.87"/><rect rx="3.434" ry="4.651" height="9.301" width="6.868" y="182.12" x="203.48"/><rect rx="3.434" ry="4.651" height="9.301" width="6.868" y="177.41" x="211.28"/><rect rx="3.434" ry="4.651" height="9.301" width="6.868" y="189.19" x="197.23"/><rect rx="3.434" ry="4.651" height="9.301" width="6.868" y="182.71" x="245.63"/><rect rx="3.434" ry="4.651" height="9.301" width="6.868" y="189.19" x="252.65"/></g><g transform="matrix(.33 .055 -.052 .351 129.39 -157.7)"><rect rx="3.434" ry="4.651" height="9.301" width="6.868" y="175.06" x="228.46"/><rect rx="3.434" ry="4.651" height="9.301" width="6.868" y="177.41" x="237.82"/><rect rx="3.434" ry="4.651" height="9.301" width="6.868" y="175.06" x="219.87"/><rect rx="3.434" ry="4.651" height="9.301" width="6.868" y="182.12" x="203.48"/><rect rx="3.434" ry="4.651" height="9.301" width="6.868" y="177.41" x="211.28"/><rect rx="3.434" ry="4.651" height="9.301" width="6.868" y="189.19" x="197.23"/><rect rx="3.434" ry="4.651" height="9.301" width="6.868" y="182.71" x="245.63"/><rect rx="3.434" ry="4.651" height="9.301" width="6.868" y="189.19" x="252.65"/></g><g transform="matrix(.328 -.064 .06 .349 42.896 -131.04)"><rect rx="3.434" ry="4.651" height="9.301" width="6.868" y="175.06" x="228.46"/><rect rx="3.434" ry="4.651" height="9.301" width="6.868" y="177.41" x="237.82"/><rect rx="3.434" ry="4.651" height="9.301" width="6.868" y="175.06" x="219.87"/><rect rx="3.434" ry="4.651" height="9.301" width="6.868" y="182.12" x="203.48"/><rect rx="3.434" ry="4.651" height="9.301" width="6.868" y="177.41" x="211.28"/><rect rx="3.434" ry="4.651" height="9.301" width="6.868" y="189.19" x="197.23"/><rect rx="3.434" ry="4.651" height="9.301" width="6.868" y="182.71" x="245.63"/><rect rx="3.434" ry="4.651" height="9.301" width="6.868" y="189.19" x="252.65"/></g><rect transform="matrix(.976 -.216 .192 .981 13.258 -218.32)" rx="1.15" ry="1.647" height="3.295" width="2.299" y="155.25" x="57.043"/><rect transform="matrix(.976 -.216 .192 .981 13.258 -218.32)" rx="1.15" ry="1.647" height="3.295" width="2.299" y="156.09" x="60.179"/><rect transform="matrix(.976 -.216 .192 .981 13.258 -218.32)" rx="1.15" ry="1.647" height="3.295" width="2.299" y="157.96" x="62.792"/><rect transform="matrix(.976 -.216 .192 .981 13.258 -218.32)" rx="1.15" ry="1.647" height="3.295" width="2.299" y="160.26" x="65.144"/><g transform="matrix(.309 .134 -.126 .329 148.87 -220.32)"><rect rx="3.434" ry="4.651" height="9.301" width="6.868" y="285.4" x="359.08"/><rect rx="3.434" ry="4.651" height="9.301" width="6.868" y="292.46" x="342.69"/><rect rx="3.434" ry="4.651" height="9.301" width="6.868" y="287.75" x="350.49"/><rect rx="3.434" ry="4.651" height="9.301" width="6.868" y="299.53" x="336.44"/></g><path d="M154.13-76.395c8.052 6.397 8.196 18.41 8.196 18.41s-1.295-12.637 7.333-17.786c-4.458 1.404-4.315 1.092-6.76.936l-.574-4.057s-.432 2.027-1.294 3.9c-1.87.623-2.3.623-6.902-1.405z"/><path d="M122.316-71.72c9.24 4.202 12.04 15.84 12.04 15.84S130.3-67.836 137.546-75c-4.02 2.48-3.95 2.14-6.36 2.6l-1.457-3.797s.03 2.08-.395 4.114c-1.68 1.075-2.098 1.183-7.02.363z"/><path d="M187.687-75.48c6.304 8.325 3.635 20 3.635 20s1.7-12.584 11.26-15.29c-4.645.182-4.433-.082-6.764-.88l.39-4.08s-.89 1.85-2.164 3.435c-1.957.11-2.374-.004-6.357-3.185z"/><path d="M104.92-65.762c6.946 3.425 10.553 13.58 10.553 13.58s-4.514-10.4-.584-16.91c-2.4 2.3-2.4 2-3.986 2.474l-1.55-3.298s.322 1.828.326 3.63c-.995.994-1.267 1.1-4.76.524z"/><path d="M211.656-70.23c1.328 8.02-4.446 16.97-4.446 16.97s5.443-9.882 12.713-10.172c-3.144-.78-2.913-.952-4.186-2.065l1.66-3.237s-1.228 1.325-2.616 2.36c-1.335-.302-1.573-.478-3.124-3.856z"/></g><g stroke-width="1pt" transform="translate(-16.385 221.83)"><rect transform="translate(13.258 -218.32)" rx="3.362" ry="3.51" height="7.02" width="6.724" y="97.304" x="145.26" fill="#f3ef7d"/><path d="M161.658-121.016h.704v7.02h-.704z"/><rect transform="translate(13.258 -218.32)" rx="1.553" ry="1.756" height="3.512" width="3.106" y="119.51" x="147.36" fill="#f3ef7d"/><rect transform="translate(13.258 -218.32)" rx="1.454" ry="1.651" height="3.303" width="2.909" y="115.96" x="147.36" fill="#f3ef7d"/><rect transform="translate(13.258 -218.32)" rx="1.454" ry="1.547" height="3.094" width="2.909" y="112.61" x="147.36" fill="#f3ef7d"/><rect transform="translate(13.258 -218.32)" rx="1.258" ry="1.233" height="2.467" width="2.516" y="109.9" x="147.56" fill="#f3ef7d"/><rect transform="translate(13.258 -218.32)" rx="1.258" ry="1.442" height="2.885" width="2.516" y="106.76" x="147.56" fill="#f3ef7d"/><rect transform="translate(13.258 -218.32)" rx="1.061" ry="1.024" height="2.049" width="2.123" y="104.46" x="147.76" fill="#f3ef7d"/><path d="M165.368-117.9l.004.735-6.724.04-.004-.734z"/><rect transform="translate(13.258 -218.32)" rx="1.946" ry="2.07" height="4.139" width="3.892" y="123.07" x="146.97" fill="#f3ef7d"/></g></g></g></svg>