<svg xmlns="http://www.w3.org/2000/svg" height="512" width="512"><g fill-rule="evenodd" stroke-width="1pt"><path fill="#ce0000" d="M256 0h256v511.984H256z"/><path fill="#fff" d="M0 0h256v511.984H0z"/></g><g transform="matrix(.35 0 0 .35 40.728 -25.527)"><path d="M183.107 381.66c0 2.314-2.62 4.19-5.853 4.19-3.232 0-5.852-1.876-5.852-4.19 0-2.313 2.62-4.188 5.852-4.188s5.853 1.875 5.853 4.19z" fill-rule="evenodd" fill="#f1eeee"/><path d="M.06 361.43V467.73h106.302c0 17.713 17.718 35.43 35.436 35.43v106.3h106.296v-106.3c17.718 0 35.436-17.717 35.436-35.43h106.302V361.43H283.53c0-17.714-17.718-35.432-35.436-35.432V219.7H141.798v106.298c-17.718 0-35.436 17.718-35.436 35.43H.06z" fill-rule="evenodd" stroke-width="6pt" fill="#c00"/><path d="M3.6 364.97v99.21h106.302c0 17.713 17.712 35.437 35.43 35.437v106.298h99.216V499.617c17.718 0 35.43-17.724 35.43-35.437H386.28v-99.21H279.978c0-17.714-17.712-35.438-35.43-35.438V223.234h-99.216v106.298c-17.718 0-35.43 17.724-35.43 35.437H3.6z" fill-rule="evenodd" stroke-width="6pt" fill="#ffe600"/><path d="M7.04 368.51v92.13h106.296c0 17.712 17.718 35.43 35.436 35.43v106.3h92.124v-106.3c17.718 0 35.436-17.718 35.436-35.43h106.296v-92.13H276.332c0-17.714-17.718-35.432-35.436-35.432V226.78h-92.124v106.298c-17.718 0-35.436 17.718-35.436 35.43H7.04z" fill-rule="evenodd" stroke-width="6pt" fill="#707070"/><path d="M10.58 372.05v85.038h106.296c0 17.712 17.718 35.437 35.436 35.437v106.297h85.038V492.525c17.718 0 35.436-17.725 35.436-35.437h106.296v-85.04H272.786c0-17.712-17.718-35.43-35.436-35.43V230.32h-85.038v106.298c-17.718 0-35.436 17.718-35.436 35.43H10.58z" fill-rule="evenodd" stroke-width="6pt" fill="#a0a0a0"/><g fill-rule="evenodd"><path d="M153.168 327.843c6.226 6.226 1.178 21.368-11.273 33.82s-27.593 17.498-33.82 11.272c-6.225-6.226-1.178-21.367 11.274-33.82s27.592-17.498 33.818-11.272z" fill="#d0d0d0"/><path d="M145.667 335.345c6.225 6.226 4.543 18.002-3.758 26.303s-20.08 9.984-26.305 3.758c-6.226-6.226-4.543-18.003 3.758-26.304s20.078-9.983 26.304-3.757z" fill="#808080"/><path d="M114.312 354.085l2.504-2.505 10.018 5.007-5.007-10.017 2.505-2.505 10.014 20.034-20.034-10.015z" fill="#d0d0d0"/><path stroke-width="1pt" fill="#d0d0d0" d="M129.44 339.1l2.507-2.505 15.033 15.033-2.505 2.505z"/></g><g fill-rule="evenodd"><path d="M281.607 372.85c-6.226 6.227-21.368 1.18-33.82-11.272s-17.498-27.593-11.272-33.82c6.226-6.225 21.367-1.178 33.82 11.274s17.498 27.593 11.272 33.82z" fill="#d0d0d0"/><path d="M274.105 365.35c-6.226 6.225-18.002 4.543-26.303-3.758s-9.984-20.078-3.758-26.304c6.226-6.226 18.003-4.543 26.304 3.758s9.983 20.078 3.757 26.304z" fill="#808080"/><path d="M255.365 333.995l2.505 2.504-5.007 10.017 10.017-5.007 2.505 2.505-20.034 10.014 10.015-20.035z" fill="#d0d0d0"/><path stroke-width="1pt" fill="#d0d0d0" d="M270.35 349.124l2.505 2.506-15.033 15.033-2.505-2.505z"/></g><g fill-rule="evenodd"><path d="M236.602 501.287c-6.226-6.226-1.178-21.368 11.273-33.82s27.593-17.498 33.82-11.272c6.225 6.226 1.178 21.367-11.274 33.82s-27.592 17.498-33.818 11.272z" fill="#d0d0d0"/><path d="M244.103 493.785c-6.225-6.226-4.543-18.002 3.758-26.303s20.08-9.984 26.305-3.758c6.226 6.226 4.543 18.003-3.758 26.304s-20.078 9.983-26.304 3.757z" fill="#808080"/><path d="M275.458 475.045l-2.504 2.505-10.018-5.007 5.007 10.017-2.505 2.505-10.014-20.034 20.034 10.015z" fill="#d0d0d0"/><path stroke-width="1pt" fill="#d0d0d0" d="M260.33 490.03l-2.507 2.505-15.033-15.033 2.505-2.505z"/></g><g fill-rule="evenodd"><path d="M108.163 456.282c6.226-6.226 21.368-1.178 33.82 11.273s17.498 27.593 11.272 33.82c-6.226 6.225-21.367 1.178-33.82-11.274s-17.498-27.592-11.272-33.818z" fill="#d0d0d0"/><path d="M115.665 463.783c6.226-6.225 18.002-4.543 26.303 3.758s9.984 20.08 3.758 26.305c-6.226 6.226-18.003 4.543-26.304-3.758s-9.983-20.078-3.757-26.304z" fill="#808080"/><path d="M134.405 495.138l-2.505-2.504 5.007-10.018-10.017 5.007-2.505-2.505 20.034-10.014-10.015 20.034z" fill="#d0d0d0"/><path stroke-width="1pt" fill="#d0d0d0" d="M119.42 480.01l-2.505-2.507 15.033-15.033 2.505 2.505z"/></g><path d="M269.29 414.57c0 41.095-34.107 74.41-76.18 74.41s-76.182-33.315-76.182-74.41 34.107-74.41 76.18-74.41 76.182 33.315 76.182 74.41z" transform="matrix(.977 0 0 1 6.263 0)" stroke="#707070" stroke-width="1pt" fill="none"/><path d="M269.29 414.57c0 41.095-34.107 74.41-76.18 74.41s-76.182-33.315-76.182-74.41 34.107-74.41 76.18-74.41 76.182 33.315 76.182 74.41z" transform="matrix(.744 0 0 .762 51.172 98.707)" stroke="#707070" stroke-width="1pt" fill="none"/><path d="M170.08 474.8c0 1.957-1.586 3.543-3.543 3.543s-3.544-1.586-3.544-3.543 1.587-3.543 3.544-3.543 3.543 1.586 3.543 3.543z" fill-rule="evenodd" fill="#d0d0d0"/><path d="M226.773 474.8c0 1.957-1.586 3.543-3.543 3.543s-3.544-1.586-3.544-3.543 1.587-3.543 3.544-3.543 3.543 1.586 3.543 3.543z" fill-rule="evenodd" fill="#d0d0d0"/><path d="M192.522 474.8v3.696h-4.725c-4.724 0-4.724 3.695 0 3.695h4.725v3.695c.016 3.83 4.123 4.29 4.424.3l.3-3.994h4.725c4.725 0 4.725-3.694 0-3.694h-4.724V474.8c0-3.693-4.724-3.693-4.724 0z" fill-rule="evenodd" fill="#d0d0d0"/><path d="M180.71 162.99v7.087s-3.362 5.423-24.803 7.086-24.803 0-24.803 0c.56 6.18 4.732 17.896 3.543 31.89.835 16.29-4.103 31.042-4.103 31.042.56.848-2.018 1.28-6.527.848 3.543-3.544 3.134-13.795 3.543-28.347.41-14.553-13.527-36.456-10.63-42.52s63.78-7.086 63.78-7.086z" fill-rule="evenodd" transform="matrix(.33 0 0 .296 117.56 374.28)" stroke="#707070" stroke-width="1pt" fill="#d0d0d0"/><path d="M272.84 162.26c20.858-1.077 55.86-.843 55.86-.843s8.252 18.502 7.91 28.723-3.182 18.92-7.078 14.57 1.805-3.53 2.498-14.57c.692-11.04-6.66-22.48-6.66-22.48s-14.963 7.303-37.467 5.83c-22.503-1.475-12.54-10.792-15.063-11.23z" fill-rule="evenodd" transform="matrix(.33 0 0 .296 115.22 366.9)" stroke="#707070" stroke-width="1pt" fill="#d0d0d0"/><path d="M312.21 273.91c20.858-1.077 34.55 2.498 34.55 2.498s8.254 18.502 7.91 28.723-3.18 18.92-7.076 14.57 1.805-3.53 2.498-14.57c.692-11.038-6.66-22.478-6.66-22.478s-14.963 7.302-37.467 5.828c-22.503-1.474-16.084-2.975-18.606-3.413s-3.132 6.958-37.177 7.992c-34.044 1.032-51.407-7.993-51.407-7.993s-3.362 5.423-24.803 7.086-24.803 0-24.803 0c.56 6.18 4.732 17.896 3.543 31.89.835 16.29-4.103 31.042-4.103 31.042.56.848-2.018 1.28-6.527.848 3.543-3.544 3.134-13.795 3.543-28.347.41-14.553-13.527-36.456-10.63-42.52s18.333-.394 21.26-3.543c2.926-3.15-13.75-25.333-10.63-46.063 3.12-20.73 20.792-14.886 42.52-14.173 21.727.712 69.865 7.003 81.496 0 11.632-7.003 6.598-32.93 17.717-49.606 7.085-10.63 17.715-14.172 28.345-14.172 7.087 0 17.717 28.346 17.717 35.433l-3.544 3.544h-3.543v3.543c-8.088.907-9.216-7.732-14.173-14.173-2.13 9.984 7.086 42.52 7.086 63.78 0 17.716-6.622 25.525-7.038 24.276z" fill-rule="evenodd" transform="matrix(.33 0 0 .296 104.56 339.3)" stroke="#707070" stroke-width="1pt" fill="#d0d0d0"/><path d="M209.06 131.1c.294 7.062-27.384 22.895-29.637 29.164s7.036 9.744 4.163 13.32c-2.872 3.58-5.24 2.252-5.828 2.915-.588.663-10.407-24.56-10.407-24.56s25.962-13.085 24.978-18.734-19.17-9.085-22.48-23.312c-3.308-14.227-1.473-41.71-4.162-47.456-2.69-5.747-34.552-11.23-34.58-19.92-.026-8.69 32.75-32.54 36.294-36.085 3.543-3.543 7.087 3.543 3.543 7.087-3.543 3.543-29.206 25.455-29.206 28.998 0 3.543 21.26 7.086 28.347 7.086 7.086 0 10.63-3.543 10.63-7.086.042-3.066-7.087-3.544-7.087-10.63 0-7.087 3.543-10.63 10.63-10.63 3.543 0 10.356 4.537 10.63 10.63.274 6.092-6.305 6.608-7.087 10.63-.78 4.02 7.087 7.086 14.173 7.086 7.087 0 31.282 20.608 34.825 24.152 3.544 3.544 7.087 3.543 3.544 7.087-3.543 3.543-1.468 7.738-5.012 4.195-3.017-3.423-3.543-7.087-3.543-7.087-.306-3.22-26.27-17.715-29.814-14.172-3.543 3.543 0 46.064 0 49.606 0 7.086 7.38 7.062 7.087 17.716z" fill-rule="evenodd" transform="matrix(.33 0 0 .296 116.1 372.43)" stroke="#707070" stroke-width="1pt" fill="#d0d0d0"/><path fill-rule="evenodd" stroke-width="1pt" fill="#a7a7a7" d="M170.23 386.9h14.045v14.662H170.23z"/><rect transform="matrix(.554 .832 -.882 .471 0 0)" fill-rule="evenodd" rx="1.27" ry=".57" height="1.139" width="87.553" y="64.582" x="405.61" stroke-width="1pt" fill="#808080"/><path d="M180.71 42.52c0 3.914-3.173 7.087-7.087 7.087s-7.086-3.173-7.086-7.087 3.173-7.087 7.086-7.087 7.087 3.173 7.087 7.087z" fill-rule="evenodd" transform="matrix(.33 0 0 .296 114.05 362.81)" stroke="#707070" stroke-width="1pt" fill="#d0d0d0"/><path d="M354.33 49.606c0 4.89-27.965 10.63-60.237 10.63s-60.236-5.74-60.236-10.63c0-4.89 27.964 7.087 60.236 7.087s60.237-11.976 60.237-7.087z" fill-rule="evenodd" transform="matrix(.194 0 0 .177 145.85 385.64)" stroke-width="1pt" fill="#808080"/><path fill-rule="evenodd" stroke-width="1pt" fill="#a7a7a7" d="M171.4 401.56h11.704v4.19H171.4z"/><path d="M209.453 391.243c-1.135 2.126-2.212 3.643-2.405 3.388-.194-.253.57-2.183 1.704-4.31 1.135-2.124 2.212-3.64 2.405-3.387.193.255-.57 2.184-1.704 4.31z" fill-rule="evenodd" fill="#808080"/><path d="M212.432 396.74c-1.292 1.134-2.37 1.868-2.405 1.64-.037-.23.982-1.333 2.274-2.467 1.293-1.134 2.37-1.868 2.407-1.64.036.23-.982 1.333-2.275 2.467z" fill-rule="evenodd" fill="#808080"/><path d="M210.927 394.09c.953 1.733 1.58 3.2 1.403 3.276-.178.076-1.095-1.267-2.048-3-.953-1.734-1.58-3.2-1.403-3.277.177-.077 1.094 1.266 2.047 3z" fill-rule="evenodd" fill="#808080"/><path d="M210.017 403.13c0 .29-3.668.524-8.193.524s-8.193-.234-8.193-.524c0-.29 3.67-.523 8.194-.523 4.525 0 8.193.234 8.193.523z" fill-rule="evenodd" fill="#808080"/><path d="M183.107 402.08c0 .29-2.62.525-5.853.525-3.232 0-5.852-.235-5.852-.524 0-.288 2.62-.523 5.852-.523s5.853.235 5.853.524z" fill-rule="evenodd" fill="#808080"/><path d="M375.49 171.92s8.938 36.133 47.04 36.633 51.215-10.838 35.8-29.972-44.084-13.18-40.38 3.33-10.75 22.02-14.153 10.408c-3.4-11.61-17.045-45.99 7.493-48.29 24.54-2.298 76.51-14.816 89.5 9.16 12.992 23.975-14.674 45.707 6.245 50.786 20.92 5.08 23.893-5.81 59.896-9.094 36.005-3.286 49.743 11.102 62.077 9.094 12.334-2.007 10.59-37.258.832-46.207-9.76-8.95-28.5-10.586-33.304-20.398-4.802-9.813-17.87-1.826-16.65-12.906s18.53 7.625 18.732 1.966c.006-.177 2.858-3.93 3.434-4.878-2.178-.828-3.42.512-5.056 1.948 1.775-2.36 1.665-3.448 2.26-5.378-.31-.727-2.46 2.734-2.825 2.01s2.506-5.63 1.207-3.85c-.45.512-3.872 3.328-3.91 1.388.058-.787 1.79-2.813 1.177-3.912-.493-.914-3.093 1.064-3.428 1.29 1.487-3.31 1.382-3.27-.048-5.72-1.25-2.453-2.16-2.396-4.2.373.85-3.978 1.08-4.82-.97-6.328-1.684-1.52-1.76-2.956-3.855 4.162.798-7.618-1.343-7.95-.454-11.562.528-3.312 3.322-4.71 7.926-3.978 8.945.13 13.728 17.954 16.65 17.9 2.925-.054 6.197-18.882 18.734-11.24 12.537 7.643 14.085 9.202 20.398 13.738 6.313 4.535-4.435 11.457-.833 20.398 3.602 8.94 28.23 38.804 21.23 69.935-6.998 31.13-25.025 36.055-26.64 49.538-1.618 13.483 57.066 7.95 72.016 12.49 14.95 4.536 24.376 23.11 24.978 26.224s-26.226 2.914-26.226 2.914-13.776-11.836-46.624-12.903c-32.847-1.068-45.355-23.11-57.65-25.87s-38.502 4.63-53.15 3.542c-14.65-1.088-29.488-4.944-38.976-7.087-9.49-2.142-56.693 35.433-56.53 44.184-9.84-.62-33.008-2.71-32.053-1.665.954 1.043 4.15-17.038 22.213-20.216 18.06-3.18 35.645-17.573 35.062-27.025-.583-9.45 3.487-41.875 4.995-55.78s8.27-20.617 6.66-27.892c-1.608-7.274-22.243-14.778-42.044-14.57-19.8.21-41.77 2.057-44.96 9.99-3.187 7.935-.78 30.965 3.332 28.31 4.11-2.658-.994-17.713 3.33-20.816 4.324-3.102 15.405-5.843 25.81-6.244 10.404-.4 28.493 14.73 28.307 19.565-.186 4.837 5.82 20.934-2.498 27.06-8.318 6.123-25.332 8.86-41.628 7.492-16.298-1.37-32.787-10.674-38.716-16.65-5.928-5.978-9.574-24.146-9.574-25.395z" fill-rule="evenodd" transform="matrix(.216 0 0 .13 76.265 416.17)" stroke="#808080" stroke-width="1pt" fill="#d0d0d0"/><path d="M209.473 431.552c0 .52-.42.94-.94.94-.518 0-.938-.42-.938-.94 0-.518.42-.94.94-.94.517 0 .938.422.938.94z" fill-rule="evenodd"/><path d="M187.24 167.99v-3.64l-3.31-4.95h1.383l1.693 2.59c.312.484.603.97.873 1.453.257-.45.57-.955.937-1.517l1.664-2.526h1.325l-3.428 4.95v3.64h-1.137z" transform="matrix(-.426 1.978 -1.252 -.27 543.87 92.986)" stroke-width="1pt" fill="#d0d0d0"/><path d="M171.01 167.99v-7.576h-2.83V159.4h6.808v1.014h-2.84v7.576h-1.138z" transform="matrix(.846 1.838 -1.164 .536 296.6 -19.872)" stroke-width="1pt" fill="#d0d0d0"/><path d="M160.14 167.99v-8.59h1.166l4.51 6.744V159.4h1.09v8.59h-1.165l-4.51-6.75v6.75h-1.09z" transform="matrix(1.366 1.492 -.945 .865 172.12 -16.482)" stroke-width="1pt" fill="#d0d0d0"/><path d="M145.43 167.99v-8.59h1.136v7.576h4.23v1.014h-5.366z" transform="matrix(2.009 .245 -.155 1.272 -69.341 104.28)" stroke-width="1pt" fill="#d0d0d0"/><path d="M138.76 167.99v-8.59h1.137v7.576h4.23v1.014h-5.367z" transform="matrix(1.991 -.362 .229 1.261 -135.47 193.57)" stroke-width="1pt" fill="#d0d0d0"/><path d="M125.48 164.62v-1.008l3.64-.006v3.188c-.56.445-1.136.78-1.73 1.008-.593.222-1.203.334-1.828.334-.843 0-1.61-.18-2.302-.54-.688-.363-1.207-.886-1.56-1.57-.35-.683-.526-1.447-.526-2.29 0-.837.174-1.616.52-2.34.353-.725.857-1.264 1.513-1.616.656-.35 1.412-.527 2.268-.527.62 0 1.18.1 1.68.304.505.2.9.48 1.185.838.285.36.502.828.65 1.407l-1.025.28c-.13-.437-.29-.78-.48-1.03-.192-.25-.466-.45-.82-.598-.356-.152-.75-.23-1.185-.23-.52 0-.968.082-1.347.242-.38.156-.686.363-.92.62-.23.26-.41.542-.54.85-.218.532-.327 1.108-.327 1.73 0 .765.13 1.405.392 1.92.266.516.65.9 1.154 1.15.504.25 1.04.374 1.606.374.492 0 .973-.094 1.44-.28.47-.192.826-.396 1.068-.61v-1.6h-2.526z" transform="matrix(1.579 -1.265 .801 1 -182.99 365.04)" stroke-width="1pt" fill="#d0d0d0"/><path d="M92.86 167.99v-8.59h5.794v1.014h-4.658v2.66h4.03v1.014h-4.03v3.902H92.86z" transform="matrix(-1.171 -1.65 1.045 -.742 79.96 727.93)" stroke-width="1pt" fill="#d0d0d0"/><path d="M112.11 187.63c0 6.42.658 11.488 1.978 15.19 1.328 3.686 2.99 5.528 4.987 5.528 2.032 0 3.703-1.867 5.013-5.595 1.32-3.734 1.978-9.025 1.978-15.886 0-4.336-.283-8.12-.85-11.34-.557-3.25-1.378-5.755-2.464-7.523-1.08-1.793-2.29-2.692-3.637-2.692-1.91 0-3.56 1.724-4.944 5.16-1.373 3.418-2.06 9.138-2.06 17.158zm-2.785-.105c0-8.846.91-15.768 2.73-20.756 1.82-5.02 4.17-7.525 7.046-7.525 1.886 0 3.586 1.172 5.1 3.523s2.664 5.633 3.454 9.85c.798 4.194 1.198 8.958 1.198 14.286 0 5.403-.42 10.235-1.253 14.503-.838 4.262-2.022 7.5-3.552 9.702-1.534 2.182-3.186 3.274-4.96 3.274-1.922 0-3.64-1.216-5.152-3.635-1.515-2.426-2.663-5.733-3.442-9.926-.78-4.193-1.17-8.628-1.17-13.3z" transform="matrix(-.231 -.819 .199 -.056 122.07 538.17)" stroke-width="1pt" fill="#d0d0d0"/><path d="M132.37 213.47v-53.284h9.054c1.82 0 3.204.484 4.15 1.458.95.942 1.705 2.623 2.27 5.05.566 2.424.85 5.098.85 8.032 0 3.777-.47 6.966-1.406 9.56-.94 2.592-2.387 4.242-4.345 4.943.713.892 1.257 1.78 1.628 2.653.79 1.886 1.54 4.25 2.245 7.084l3.55 14.503h-3.398l-2.703-11.085c-.79-3.2-1.438-5.645-1.95-7.344-.51-1.693-.97-2.877-1.377-3.56-.4-.676-.81-1.147-1.227-1.414-.307-.174-.808-.254-1.502-.254h-3.136v23.658h-2.702zm2.702-29.768h5.81c1.234 0 2.2-.323 2.895-.98.697-.677 1.227-1.744 1.588-3.2.364-1.478.544-3.078.544-4.796 0-2.52-.355-4.59-1.06-6.216-.697-1.625-1.8-2.437-3.314-2.437h-6.464v17.63z" transform="matrix(.019 -.851 .206 .005 88.366 527.4)" stroke-width="1pt" fill="#d0d0d0"/><path d="M180.8 213.47l7.842-53.284h2.912l8.357 53.284h-3.077l-2.382-16.134h-8.537l-2.242 16.134h-2.87zm5.892-21.878h6.922l-2.13-14.757c-.65-4.485-1.133-8.17-1.45-11.048-.258 3.412-.625 6.805-1.1 10.173l-2.242 15.632z" transform="matrix(.73 -.437 .106 .177 4.774 406.1)" stroke-width="1pt" fill="#d0d0d0"/><path d="M231.56 213.47l7.842-53.284h2.91l8.357 53.284h-3.08l-2.38-16.134h-8.54l-2.24 16.134h-2.87zm5.893-21.878h6.922l-2.132-14.757c-.65-4.485-1.132-8.17-1.448-11.048-.262 3.412-.628 6.805-1.1 10.173l-2.242 15.632z" transform="matrix(.688 .501 -.122 .167 81.266 203.3)" stroke-width="1pt" fill="#d0d0d0"/><path d="M290.89 213.47v-53.284h9.054c1.82 0 3.202.484 4.15 1.458.947.942 1.703 2.623 2.27 5.05.567 2.424.85 5.098.85 8.032 0 3.777-.47 6.966-1.408 9.56-.936 2.592-2.386 4.242-4.345 4.943.716.892 1.26 1.78 1.632 2.653.79 1.886 1.535 4.25 2.24 7.084l3.553 14.503h-3.397l-2.703-11.085c-.79-3.2-1.44-5.645-1.95-7.344-.51-1.693-.97-2.877-1.38-3.56-.397-.676-.806-1.147-1.224-1.414-.306-.174-.808-.254-1.504-.254h-3.133v23.658h-2.703zm2.703-29.768h5.807c1.236 0 2.2-.323 2.898-.98.696-.677 1.224-1.744 1.588-3.2.36-1.478.542-3.078.542-4.796 0-2.52-.352-4.59-1.058-6.216-.697-1.625-1.802-2.437-3.316-2.437h-6.46v17.63z" transform="matrix(.198 .828 -.201 .048 236.01 144.21)" stroke-width="1pt" fill="#d0d0d0"/></g></svg>