<svg xmlns="http://www.w3.org/2000/svg" height="512" width="512" version="1"><defs><clipPath id="a"><path fill-opacity=".67" d="M192.39 0h708.66v708.66H192.39z"/></clipPath></defs><g fill-rule="evenodd" clip-path="url(#a)" transform="matrix(.722 0 0 .722 -139 0)"><path stroke-width="1pt" fill="#f50013" d="M0 0h1063v708.66H0z"/><path stroke-width="1pt" fill="#00189a" d="M0 0h1063v354.33H0z"/><path d="M0 0l609.96 353.88L0 707.3V0z" stroke-width="1pt" fill="#feffff"/><path d="M266.19 534.45l-10.408-7.432-10.357 7.505 3.852-12.196-10.338-7.53 12.79-.106 3.966-12.158 4.052 12.13 12.79.017-10.285 7.6 3.937 12.17z" transform="matrix(.874 1.97 -2.06 .914 897.48 -367.59)" stroke-width=".113" fill="#eca300"/><path d="M158.64 293.065l-21.89-37.587-12.588-1.425 29.972 42.563 4.505-3.55zm-16.99 17.22l-46.025-35.41-1.648-20.617 18.61-.63 38.05 46.534-8.988 10.124zm-6.99 8.1l-37.878-21.38-1.596-12.57 42.964 29.396-3.49 4.554z" stroke-width="1pt" fill="#eca300"/><path d="M212.808 285.338l11.425-41.97-7.816-9.97-9.3 51.22 5.69.72zm-24.192-.024l-7.057-57.64 13.532-15.64 13.506 12.82-6.462 59.76-13.52.7zm-10.673.7l-11.342-41.99 7.837-9.954 9.198 51.238-5.692.707z" stroke-width="1pt" fill="#eca300"/><path d="M256.692 319.175l38.148-20.895 1.755-12.546-43.335 28.845 3.432 4.595zm-16.77-17.436l36.608-45.08 20.652-1.107.14 18.62-47.515 36.816-9.885-9.25zm-7.91-7.2l22.366-37.305 12.605-1.265-30.513 42.178-4.46-3.608z" stroke-width="1pt" fill="#eca300"/><path d="M263.477 371.766l41.962 11.447 9.973-7.81-51.215-9.327-.72 5.69zm.036-24.192l57.644-7.027 15.633 13.542-12.828 13.498-59.756-6.493-.693-13.52zm-.695-10.674l41.997-11.32 9.95 7.842-51.243 9.17-.704-5.692z" stroke-width="1pt" fill="#eca300"/><path d="M231.53 414.53l22.054 37.49 12.594 1.37-30.16-42.43-4.49 3.57zm16.913-17.295l46.18 35.21 1.74 20.607-18.61.712-38.252-46.365 8.943-10.165zm6.954-8.128l37.972 21.213 1.65 12.56-43.093-29.205 3.47-4.568z" stroke-width="1pt" fill="#eca300"/><path d="M177.566 422.537l-11.136 42.046 7.885 9.916 8.947-51.283-5.696-.68zm24.192-.142l7.453 57.59-13.424 15.732-13.594-12.727 6.05-59.803 13.516-.792zm10.668-.775l11.63 41.912-7.767 10.008-9.552-51.174 5.688-.746z" stroke-width="1pt" fill="#eca300"/><path d="M133.776 389.567L95.97 411.073l-1.555 12.573 42.866-29.538-3.504-4.54zm17.047 17.165l-35.878 45.66-20.632 1.44-.44-18.617 46.918-37.572 10.033 9.09zm8.026 7.07l-21.765 37.66-12.583 1.467 29.83-42.663 4.517 3.536z" stroke-width="1pt" fill="#eca300"/><path d="M126.298 336.473l-42.043-11.15-9.918 7.883 51.28 8.963.68-5.697zm.135 24.192L68.84 368.1l-15.727-13.43 12.73-13.59 59.8 6.07.79 13.515zm.77 10.668L85.29 382.95l-10.007-7.77 51.177-9.535.744 5.688z" stroke-width="1pt" fill="#eca300"/><path d="M266.19 534.45l-10.408-7.432-10.357 7.505 3.852-12.196-10.338-7.53 12.79-.106 3.966-12.158 4.052 12.13 12.79.017-10.285 7.6 3.937 12.17z" transform="matrix(2.052 .66 -.69 2.146 327.17 -931.59)" stroke-width=".113" fill="#eca300"/><path d="M266.19 534.45l-10.408-7.432-10.357 7.505 3.852-12.196-10.338-7.53 12.79-.106 3.966-12.158 4.052 12.13 12.79.017-10.285 7.6 3.937 12.17z" transform="matrix(1.579 1.467 -1.534 1.651 444.17 -1137)" stroke-width=".113" fill="#eca300"/><ellipse cx="190.68" rx="73.029" cy="353.88" transform="translate(4.269)" ry="73.029" stroke-width="1pt" fill="#eca300"/></g></svg>