<svg xmlns="http://www.w3.org/2000/svg" height="512" width="512" version="1"><defs><clipPath id="a"><path fill-opacity=".67" d="M51.624 0h708.66v708.66H51.624z"/></clipPath></defs><g fill-rule="evenodd" clip-path="url(#a)" transform="matrix(.722 0 0 .722 -37.298 0)"><path stroke-width="1pt" fill="#ed0000" d="M0 0h1063v708.66H0z"/><path stroke-width="1pt" fill="#fff" d="M0 141.73h1063v141.73H0z"/><path stroke-width="1pt" fill="#fff" d="M0 425.2h1063v141.73H0z"/><path d="M0 0l609.96 353.88L0 707.3V0z" stroke-width="1pt" fill="#0050f0"/><path d="M266.19 534.45l-10.408-7.432-10.357 7.505 3.852-12.196-10.338-7.53 12.79-.106 3.966-12.158 4.052 12.13 12.79.017-10.285 7.6 3.937 12.17z" transform="matrix(6.31 0 0 6.599 -1411.4 -3076.2)" stroke-width=".113" fill="#fff"/></g></svg>