<svg xmlns="http://www.w3.org/2000/svg" height="512" width="512"><defs><clipPath id="a"><path fill-opacity=".67" d="M248.03 0h496.06v496.06H248.03z"/></clipPath></defs><g clip-path="url(#a)" transform="matrix(1.032 0 0 1.032 -256 0)"><g fill-rule="evenodd" stroke-width="1pt"><path fill="#fff" d="M0 166.54h992.13v162.99H0z"/><path fill="#3d25ca" d="M0 329.53h992.13v166.54H0z"/><path fill="#d60000" d="M0 0h992.13v166.54H0z"/></g><g><path d="M744.14 567.26c0 192.48-157.09 348.52-350.87 348.52S42.4 759.74 42.4 567.26s157.09-348.52 350.87-348.52 350.87 156.04 350.87 348.52z" fill-rule="evenodd" transform="matrix(.182 0 0 .183 424.574 144.209)" stroke="#000" stroke-width="12.5" fill="#fff"/><g stroke="#000" stroke-width="2.553"><g fill-rule="evenodd" fill="#006700"><path d="M504.578 218.43s24.49 10.668 20.194 32.328c-4.295 21.66-17.934 21.42-23.284 23.78-5.35 2.36-9.042 5.764-11.153 5.27-2.11-.495-4.898-2.134-4.898-2.134s-.226 3.56 4.07 4.238c4.295.68 9.946-5.552 12.66-6.23s19.366-2.36 23.435-24.4c4.747-23.526-20.874-32.16-21.024-32.852z"/><g><path d="M516.684 223.244c.42 1.795.4 3.273-.044 3.302s-1.143-1.403-1.562-3.198c-.418-1.795-.398-3.273.045-3.3s1.143 1.402 1.56 3.196z"/><path d="M516.003 223.597c.838 1.735 1.192 3.257.79 3.4s-1.403-1.147-2.24-2.882c-.838-1.735-1.192-3.257-.792-3.4s1.406 1.147 2.243 2.882z"/><path d="M513.485 225.195c1.735.54 3.106 1.346 3.063 1.804s-1.484.392-3.22-.147c-1.734-.538-3.105-1.346-3.062-1.804s1.484-.393 3.22.145z"/><path d="M513.844 224.15c1.555 1.077 2.654 2.263 2.454 2.65s-1.624-.174-3.18-1.25c-1.555-1.078-2.653-2.264-2.453-2.65s1.623.174 3.18 1.25z"/><path d="M514.938 223.96c1.316 1.437 2.14 2.845 1.84 3.145s-1.612-.62-2.928-2.056c-1.316-1.437-2.14-2.844-1.84-3.144s1.612.62 2.928 2.055z"/><path d="M516.432 226.984c.013.015-.95.524-1.165.6-.217.074-.493-.3-1.12.014s-1.07.9-1.215 1.244c-.147.345.156.495.912.135s.973-.944 1.34-1.17c.365-.224.978-.553 1.325-.673.158-.33.665-1.034.928-1.44.263-.404 1.262-1.063 1.645-1.842.333-.645.236-1.2-.187-.974-.423.224-.982.87-1.248 1.333-.267.466-.074 1.065-.367 1.5-.23.315-.79 1.274-.848 1.274z"/></g><g><path d="M524.61 229.64c.06 2.812-.4 4.964-1.03 4.806s-1.19-2.564-1.25-5.376c-.06-2.81.403-4.963 1.033-4.806s1.188 2.565 1.248 5.376z"/><path d="M523.25 228.997c.598 2.812.585 5.114-.03 5.143s-1.6-2.228-2.197-5.04c-.6-2.81-.585-5.114.03-5.142s1.6 2.227 2.197 5.04z"/><path d="M519.696 230.43c2.273 1.496 3.942 3.22 3.727 3.848s-2.23-.072-4.505-1.568c-2.273-1.496-3.942-3.218-3.727-3.848s2.232.073 4.506 1.57z"/><path d="M520.245 229.285c1.855 2.214 3.034 4.38 2.633 4.837s-2.23-.966-4.083-3.18c-1.855-2.213-3.033-4.378-2.633-4.836s2.23.966 4.083 3.18z"/><path d="M522.074 229.342c1.436 2.633 2.182 5.01 1.667 5.31s-2.095-1.59-3.53-4.222c-1.437-2.632-2.183-5.01-1.668-5.31s2.096 1.59 3.532 4.222z"/><path d="M523.14 234.07c.014.027-1.474.35-1.8.367-.324.017-.62-.626-1.583-.44s-1.738.83-2.033 1.256c-.295.426.095.763 1.254.566s1.613-.933 2.188-1.1c.574-.166 1.523-.38 2.043-.406.31-.4 1.203-1.186 1.677-1.65.475-.462 2.053-.98 2.793-1.924.634-.772.64-1.595-.015-1.452-.655.144-1.61.823-2.103 1.37-.495.545-.375 1.47-.9 1.964-.404.35-1.443 1.472-1.523 1.45z"/></g><g><path d="M528.25 239.577c-.478 2.752-1.34 4.763-1.928 4.49s-.674-2.722-.195-5.474c.48-2.752 1.342-4.763 1.93-4.49s.673 2.722.194 5.474z"/><path d="M527 239.266c.06 2.932-.38 5.238-.98 5.153s-1.137-2.533-1.197-5.464c-.06-2.932.38-5.24.98-5.153s1.136 2.532 1.196 5.463z"/><path d="M523.134 239.4c1.915 1.913 3.2 3.94 2.87 4.527s-2.147-.49-4.06-2.404c-1.916-1.915-3.2-3.942-2.872-4.528s2.148.49 4.062 2.404z"/><path d="M523.81 238.914c1.377 2.572 2.11 4.96 1.638 5.33s-1.97-1.41-3.346-3.983c-1.376-2.572-2.11-4.958-1.637-5.33s1.97 1.41 3.346 3.984z"/><path d="M525.75 238.814c.898 2.812 1.173 5.242.615 5.428s-1.738-1.943-2.635-4.755c-.898-2.81-1.173-5.24-.615-5.427s1.738 1.942 2.635 4.754z"/><path d="M526.17 244.206c.01.03-1.523.05-1.848 0-.325-.05-.5-.76-1.488-.77s-1.874.48-2.243.85c-.37.37-.044.79 1.14.83s1.768-.61 2.367-.66c.6-.05 1.58-.07 2.098.01.38-.34 1.41-.95 1.964-1.32.553-.368 2.212-.568 3.116-1.368.77-.65.924-1.478.25-1.468-.675.01-1.744.5-2.333.95-.59.45-.64 1.408-1.25 1.797-.464.27-1.698 1.19-1.773 1.15z"/></g><g><path d="M528.702 250.337c-1.496 2.333-3.056 3.83-3.485 3.343s.435-2.772 1.93-5.105c1.496-2.333 3.057-3.83 3.486-3.344s-.436 2.774-1.93 5.107z"/><path d="M527.67 249.55c-1.076 2.693-2.366 4.61-2.882 4.28s-.06-2.78 1.018-5.47c1.077-2.693 2.367-4.608 2.882-4.28s.06 2.78-1.017 5.47z"/><path d="M523.59 248.213c.958 2.513 1.305 4.874.776 5.275s-1.735-1.312-2.692-3.824c-.957-2.513-1.304-4.874-.775-5.275s1.734 1.31 2.69 3.823z"/><path d="M524.91 248c.24 2.932-.042 5.436-.628 5.594s-1.256-2.092-1.496-5.023c-.24-2.93.043-5.434.63-5.592s1.255 2.092 1.494 5.023z"/><path d="M526.214 248.818c-.3 2.99-1.005 5.38-1.577 5.338s-.794-2.503-.495-5.494c.3-2.99 1.006-5.38 1.578-5.338s.794 2.503.494 5.494z"/><path d="M524.522 253.97c-.003.032-1.407-.6-1.682-.783-.275-.183-.14-.906-1.036-1.334s-1.903-.354-2.392-.173c-.49.182-.368.703.692 1.24s1.862.192 2.428.4c.566.21 1.465.605 1.905.898.486-.15 1.675-.272 2.333-.375.658-.103 2.25.417 3.403.068.97-.267 1.454-.96.836-1.236s-1.794-.28-2.517-.12c-.722.162-1.165 1.018-1.88 1.116-.536.05-2.04.368-2.09.3z"/></g><g><path d="M525.166 261.66c-2.453 2.033-4.684 3.126-4.985 2.44s1.446-2.893 3.898-4.927c2.453-2.034 4.685-3.127 4.985-2.44s-1.444 2.892-3.897 4.926z"/><path d="M524.67 260.862c-2.095 2.632-4.163 4.325-4.62 3.78s.868-3.117 2.962-5.75c2.093-2.63 4.162-4.324 4.62-3.78s-.87 3.118-2.963 5.75z"/><path d="M520.877 257.842c.24 3.17-.147 5.96-.862 6.233s-1.49-2.078-1.728-5.25c-.24-3.17.146-5.96.86-6.232s1.49 2.078 1.73 5.25z"/><path d="M522.424 258.04c-.658 3.35-1.748 6.04-2.435 6.013s-.71-2.768-.052-6.118c.658-3.35 1.748-6.043 2.434-6.014s.71 2.77.052 6.12z"/><path d="M523.782 259.217c-1.316 3.17-2.893 5.532-3.523 5.275s-.074-3.037 1.243-6.207c1.316-3.17 2.893-5.532 3.522-5.275s.073 3.037-1.243 6.207z"/><path d="M520.105 264.195c-.013.033-1.34-1.124-1.582-1.415-.242-.292.126-1.033-.713-1.8s-1.953-1.023-2.54-.99c-.585.034-.614.64.37 1.582s1.96.833 2.508 1.25c.55.415 1.402 1.148 1.79 1.614.57 0 1.897.267 2.64.375.746.11 2.31 1.208 3.668 1.216 1.132.034 1.87-.557 1.285-1.065-.583-.507-1.855-.907-2.688-.973-.832-.067-1.575.716-2.38.582-.595-.125-2.322-.284-2.357-.375z"/></g><g><path d="M517.503 272.266c-3.47.54-6.213.29-6.127-.553s2.968-1.965 6.438-2.503c3.47-.54 6.213-.29 6.127.553s-2.967 1.965-6.437 2.503z"/><path d="M517.828 270.435c-3.41 1.256-6.29 1.636-6.433.85s2.505-2.444 5.915-3.7c3.41-1.256 6.29-1.637 6.433-.85s-2.505 2.443-5.915 3.7z"/><path d="M515.575 265.598c-1.496 3.17-3.38 5.614-4.21 5.456s-.29-2.855 1.205-6.025c1.496-3.172 3.38-5.615 4.21-5.457s.29 2.855-1.205 6.025z"/><path d="M517.056 266.21c-2.453 2.753-4.963 4.636-5.607 4.207s.822-3.008 3.274-5.76c2.453-2.752 4.963-4.635 5.607-4.206s-.822 3.01-3.274 5.76z"/><path d="M517.506 268.458c-2.99 2.273-5.787 3.63-6.245 3.028s1.597-2.93 4.59-5.204c2.99-2.274 5.786-3.63 6.243-3.03s-1.596 2.932-4.587 5.206z"/><path d="M511.035 270.878c-.032.023-.65-1.848-.716-2.265-.068-.416.705-.892.333-2.108s-1.293-2.118-1.874-2.435c-.582-.316-.954.237-.542 1.702s1.407 1.942 1.698 2.658c.29.716.694 1.908.8 2.574.55.34 1.67 1.376 2.324 1.918.652.543 1.532 2.5 2.83 3.314 1.066.703 2.11.586 1.835-.236-.273-.823-1.267-1.952-2.028-2.508-.76-.556-1.916-.263-2.614-.866-.5-.47-2.066-1.642-2.048-1.748z"/></g><g><path d="M507.335 277.856c-3.56.045-6.445-.743-6.445-1.76s2.885-1.88 6.445-1.926c3.56-.045 6.446.744 6.446 1.762s-2.885 1.88-6.445 1.924z"/><path d="M506.576 271.763c-2.253 2.884-4.693 4.71-5.45 4.075s.455-3.484 2.708-6.368c2.253-2.884 4.693-4.708 5.45-4.075s-.455 3.484-2.708 6.368z"/><path d="M507.564 274.84c-3.29 1.397-6.248 1.765-6.608.82s2.015-2.84 5.304-4.237c3.29-1.397 6.248-1.764 6.608-.82s-2.015 2.84-5.304 4.237z"/></g><g><path d="M509.118 219.116c1.623 1.487 2.595 2.873 2.173 3.097s-2.078-.8-3.7-2.288c-1.622-1.487-2.595-2.874-2.173-3.097s2.08.8 3.7 2.288z"/><path d="M506.986 220.826c2.208.316 4.068.944 4.155 1.403s-1.63.575-3.84.26c-2.208-.316-4.068-.944-4.155-1.403s1.633-.576 3.84-.26z"/><path d="M507.883 219.735c2.073 1.082 3.572 2.25 3.35 2.61s-2.086-.225-4.16-1.306c-2.072-1.082-3.57-2.25-3.348-2.61s2.085.224 4.158 1.305z"/></g></g><g fill-rule="evenodd" fill="#006700"><path d="M478.99 271.334s5.39 1.163 10.082 2.873c4.69 1.71 11.832 7.566 13.745 7.9 2.147.1 5.12-.63 6.236-3.728-3.3.877-5.277 2.214-8.438.476-1.117-.424-4.78-3.754-8.788-5.54-4.008-1.784-12.085-3.823-12.085-3.823l-.753 1.84z"/><path d="M484.608 222.76c-.02-.046 6.254-3.3 6.254-3.3l-6.876 1.785-.81 1.204 1.432.31z"/><path d="M490.5 224.202c-2.402-.424-6.094-1.212-8.45-1.388 1.652-1.803 3.935-4.85 5.342-6.72-.936 1.783-2.4 4.133-2.986 5.837 1.648.884 4.248 1.57 6.095 2.272z"/><path d="M483.73 222.87c-.028-.044 5.446-4.226 5.446-4.226l-6.34 2.826-.557 1.314 1.45.085z"/><path d="M489.273 224.067c-2.432-.453-6.173-1.29-8.55-1.49 1.624-1.828 3.858-4.923 5.235-6.822-.904 1.813-2.327 4.203-2.88 5.94 1.68.916 4.318 1.638 6.195 2.372z"/><path d="M482.557 223.23c-.015-.046 6.483-2.66 6.483-2.66l-6.988 1.107-.898 1.11 1.403.444z"/><path d="M488.814 224.28c-2.434-.182-6.197-.605-8.545-.534 1.338-2.062 3.1-5.49 4.185-7.596-.636 1.962-1.702 4.575-2.007 6.418 1.765.744 4.435 1.178 6.366 1.712z"/><path d="M481.8 223.527c-.034-.036 4.475-5.437 4.475-5.437l-5.64 4.233-.275 1.44 1.44-.236z"/><path d="M488.562 224.442c-2.63-.048-6.707-.275-9.22-.054 1.257-2.32 2.85-6.154 3.836-8.507-.514 2.17-1.43 5.075-1.6 7.095 1.96.7 4.865 1.006 6.985 1.467z"/><path d="M481.09 224.595c-.035-.047 5.32-5.133 5.32-5.133l-6.448 3.58-.436 1.534 1.563.02z"/><path d="M487.276 224.773c-2.84.027-7.21-.1-9.98.224 1.83-2.634 4.33-6.967 5.87-9.628-.994 2.44-2.572 5.715-3.16 7.978 1.98.72 5.067.975 7.27 1.425z"/><path d="M479.424 224.757c-.027-.05 6.765-5.692 6.765-5.692l-7.66 4.02-.783 1.68 1.677-.008z"/><path d="M486.622 224.65c-2.774.386-7.07.816-9.734 1.482 1.414-2.788 3.238-7.31 4.364-10.086-.622 2.495-1.698 5.872-1.95 8.143 2.043.447 5.1.302 7.32.46z"/><path d="M478.696 226.262c-.04-.042 5.235-7.336 5.235-7.336l-6.516 5.976-.357 1.83 1.64-.47z"/><path d="M485.16 225.638c-2.78.26-7.08.496-9.77 1.04 1.596-2.71 3.72-7.127 5.03-9.84-.79 2.454-2.092 5.766-2.5 8.015 2 .537 5.046.53 7.242.785z"/><path d="M477.21 226.507c-.028-.052 6.764-5.713 6.764-5.713l-7.66 4.003-.782 1.7 1.677.01z"/><path d="M484.256 226.227c-2.784.62-7.104 1.413-9.765 2.3 1.31-2.866 2.96-7.47 3.98-10.3-.523 2.51-1.466 5.923-1.624 8.18 2.082.263 5.16-.143 7.41-.18z"/><path d="M476.275 227.715c-.046-.03 4.283-7.99 4.283-7.99l-5.8 6.94-.094 1.813 1.61-.763z"/><path d="M483.972 226.766c-3.02.82-7.727 1.907-10.576 3.02 1.1-3.255 2.36-8.465 3.14-11.666-.268 2.82-.89 6.67-.785 9.192 2.35.197 5.725-.4 8.222-.547z"/><path d="M475.465 229.024c-.045-.046 5.46-7.914 5.46-7.914l-6.936 6.4-.315 1.995 1.79-.48z"/><path d="M482.913 227.263c-2.953.928-7.56 2.184-10.335 3.392.97-3.253 2.028-8.442 2.684-11.63-.164 2.792-.64 6.615-.447 9.098 2.327.103 5.638-.618 8.1-.86z"/><path d="M474.297 230.238c-.052-.036 4.177-8.734 4.177-8.734l-5.887 7.53.005 2.005 1.705-.802z"/><path d="M481.95 228.552c-3.008.695-7.69 1.588-10.543 2.577 1.204-3.178 2.64-8.283 3.526-11.42-.368 2.78-1.123 6.564-1.112 9.063 2.31.287 5.662-.173 8.132-.22z"/><path d="M473.048 231.15c-.037-.055 6.76-6.91 6.76-6.91l-7.965 5.122-.65 1.938 1.855-.15z"/><path d="M480.504 229.965c-2.988.432-7.624.913-10.48 1.66 1.412-3.127 3.194-8.198 4.295-11.312-.568 2.798-1.588 6.585-1.764 9.133 2.232.503 5.536.34 7.95.52z"/><path d="M472.362 230.655c-.05-.04 4.57-8.654 4.57-8.654l-6.163 7.295-.113 2.057 1.705-.697z"/><path d="M480.975 228.58c-3.245 1.324-8.314 3.165-11.354 4.797.994-3.85 2.04-9.95 2.688-13.7-.114 3.25-.55 7.718-.273 10.58 2.577-.076 6.223-1.19 8.94-1.676z"/><path d="M471.337 233.13c-.053-.047 5.475-9.894 5.475-9.894l-7.223 8.377-.203 2.335 1.95-.82z"/><path d="M479.465 229.98c-3.207 1.508-8.227 3.64-11.215 5.442.837-3.875 1.632-9.983 2.126-13.736.023 3.225-.227 7.68.17 10.497 2.588-.23 6.207-1.555 8.92-2.203z"/><path d="M470.123 234.8c-.06-.035 4.03-10.67 4.03-10.67l-6.01 9.543.144 2.304 1.836-1.178z"/><path d="M477.993 230.886c-3.207 1.537-8.227 3.718-11.215 5.542.837-3.848 1.632-9.907 2.126-13.63.023 3.193-.227 7.607.17 10.392 2.588-.265 6.207-1.626 8.92-2.304z"/><path d="M469.322 235.88c-.048-.052 6.22-9.32 6.22-9.32l-7.813 7.648-.395 2.302 1.987-.63z"/><path d="M477.976 230.24c-2.834 2.257-7.315 5.577-9.875 8.054.033-3.87-.432-9.83-.71-13.497.677 3.033 1.34 7.295 2.3 9.846 2.488-.893 5.763-3.086 8.287-4.403z"/><path d="M469.703 236.285c-.068-.01.75-11.214.75-11.214l-3.004 10.904.82 2.053 1.433-1.742z"/><path d="M477.253 231.154c-2.834 2.227-7.315 5.5-9.875 7.952.032-3.896-.433-9.906-.712-13.602.678 3.066 1.34 7.367 2.302 9.952 2.487-.86 5.762-3.016 8.286-4.303z"/><path d="M469.255 238.022c-.064-.026 2.812-10.852 2.812-10.852l-4.91 9.997.402 2.22 1.695-1.365z"/><path d="M476.83 231.606c-2.69 2.645-6.975 6.57-9.356 9.413-.41-3.998-1.578-10.1-2.29-13.85 1.055 3.054 2.232 7.378 3.526 9.904 2.487-1.2 5.645-3.827 8.12-5.47z"/><path d="M469.11 239.376c-.072-.01.54-11.544.54-11.544l-2.872 11.233.89 2.11 1.44-1.8z"/><path d="M476.03 233.496c-2.875 2.373-7.428 5.863-10.01 8.465-.098-4.05-.785-10.29-1.2-14.127.81 3.173 1.643 7.632 2.732 10.3 2.56-.943 5.895-3.25 8.478-4.638z"/><path d="M468.502 240.676c-.06-.037 4.008-10.898 4.008-10.898l-6.028 9.655.165 2.392 1.855-1.15z"/><path d="M475.876 233.61c-2.555 2.694-6.622 6.693-8.883 9.585-.384-4.05-1.48-10.227-2.15-14.026.995 3.09 2.105 7.467 3.328 10.02 2.36-1.227 5.357-3.905 7.706-5.58z"/><path d="M468.642 241.45c-.07 0-.447-11.56-.447-11.56l-1.884 11.522 1.06 1.998 1.272-1.96z"/><path d="M474.495 234.258c-2.488 2.694-6.457 6.693-8.642 9.585-.514-4.05-1.813-10.227-2.606-14.026 1.1 3.09 2.354 7.468 3.666 10.022 2.336-1.23 5.27-3.907 7.583-5.583z"/><path d="M467.98 242.542c-.063-.018 1.308-11.713 1.308-11.713l-3.444 11.09.677 2.27 1.46-1.648z"/><path d="M473.968 235.166c-2.276 2.967-5.928 7.4-7.89 10.533-.8-3.995-2.53-10.034-3.587-13.75 1.312 2.974 2.87 7.216 4.354 9.628 2.23-1.484 4.95-4.484 7.124-6.413z"/><path d="M467.843 243.743c-.067-.003-.713-11.746-.713-11.746l-1.5 11.668 1.055 2.046 1.158-1.967z"/><path d="M473.985 235.824c-2.113 3.103-5.52 7.756-7.31 11.007-1.03-3.966-3.116-9.935-4.393-13.607 1.487 2.913 3.296 7.087 4.924 9.428 2.153-1.61 4.708-4.772 6.78-6.827z"/><path d="M468.162 244.603c-.066-.02 1.286-11.755 1.286-11.755l-3.462 11.056.697 2.31 1.48-1.61z"/><path d="M473.274 237c-1.852 3.388-4.87 8.5-6.385 11.99-1.37-3.81-3.964-9.466-5.553-12.947 1.736 2.695 3.9 6.602 5.728 8.707 2.02-1.906 4.31-5.413 6.21-7.75z"/><path d="M468.387 245.886c-.066.02-3.33-11.2-3.33-11.2l1.154 11.822 1.49 1.658.687-2.28z"/><path d="M473.635 237.942c-1.882 3.34-4.95 8.378-6.487 11.818-1.396-3.757-4.038-9.337-5.656-12.77 1.767 2.658 3.97 6.513 5.833 8.59 2.052-1.88 4.38-5.335 6.31-7.64z"/><path d="M467.952 247.523c-.07 0-1.085-11.704-1.085-11.704l-1.207 11.703 1.153 2.006 1.14-2.007z"/><path d="M473.41 238.854c-1.977 3.28-5.19 8.222-6.827 11.616-1.293-3.81-3.78-9.487-5.306-12.98 1.695 2.722 3.794 6.656 5.6 8.8 2.108-1.812 4.536-5.195 6.534-7.437z"/><path d="M467.787 248.642c-.07.008-2.075-11.555-2.075-11.555l-.218 11.827 1.323 1.866.97-2.138z"/><path d="M472.656 240.724c-2.123 3.163-5.555 7.912-7.34 11.21-1.137-3.914-3.396-9.786-4.78-13.398 1.588 2.85 3.53 6.944 5.25 9.218 2.192-1.678 4.77-4.913 6.87-7.03z"/><path d="M466.675 250.12c-.068-.018 1.08-11.877 1.08-11.877L464.42 249.5l.765 2.298 1.488-1.677z"/><path d="M473.09 240.776c-1.786 3.398-4.708 8.533-6.146 12.02-1.5-3.704-4.295-9.187-6.008-12.56 1.84 2.595 4.15 6.37 6.066 8.38 1.996-1.945 4.223-5.475 6.087-7.84z"/><path d="M466.548 250.962c-.067.022-3.515-10.992-3.515-10.992l1.3 11.692 1.537 1.59.678-2.29z"/><path d="M472.055 241.68c-1.302 3.732-3.493 9.42-4.438 13.165-2.017-3.31-5.577-8.084-7.76-11.023 2.2 2.146 5.035 5.347 7.23 6.902 1.718-2.35 3.443-6.31 4.968-9.046z"/><path d="M469.676 251.545c-.067.023-3.845-10.786-3.845-10.786l1.632 11.562 1.593 1.52.62-2.297z"/><path d="M472.477 242.97c-1.224 3.76-3.294 9.498-4.166 13.266-2.042-3.285-5.63-8.01-7.83-10.918 2.204 2.114 5.052 5.275 7.243 6.797 1.656-2.385 3.293-6.38 4.754-9.147z"/><path d="M469.743 253.633c-.064.034-4.936-10.1-4.936-10.1l2.838 11.227 1.73 1.256.368-2.383z"/><path d="M471.864 243.895c-.81 3.9-2.246 9.88-2.698 13.736-2.432-2.97-6.583-7.152-9.13-9.728 2.46 1.788 5.69 4.523 8.07 5.725 1.4-2.595 2.598-6.786 3.758-9.732z"/><path d="M470.215 255.568c-.07.013-2.734-11.47-2.734-11.47l.442 11.897 1.436 1.787.857-2.214z"/><path d="M471.935 244.88c-.43 3.962-1.286 10.06-1.37 13.933-2.664-2.632-7.13-6.244-9.87-8.47 2.583 1.457 6.007 3.755 8.456 4.642 1.134-2.745 1.92-7.043 2.784-10.106z"/><path d="M470.495 256.57c-.054.052-7.24-8.278-7.24-8.278l5.453 10.025 1.995.682-.208-2.43z"/><path d="M472.228 246.755c-.43 4.01-1.286 10.18-1.37 14.104-2.664-2.684-7.13-6.373-9.87-8.646 2.583 1.493 6.007 3.843 8.456 4.76 1.133-2.775 1.92-7.123 2.783-10.22z"/><path d="M471.422 257.95c-.063.037-5.574-9.893-5.574-9.893l3.514 11.098 1.824 1.188.236-2.393z"/><path d="M472.614 248.1c-.256 4.002-.844 10.17-.757 14.066-2.792-2.5-7.438-5.89-10.29-7.98 2.66 1.325 6.2 3.45 8.7 4.21 1.016-2.816 1.615-7.175 2.347-10.297z"/><path d="M471.657 260.105c-.056.05-6.786-8.67-6.786-8.67l4.922 10.302 1.95.798-.085-2.43z"/><path d="M472.456 250.187c-.256 4.032-.844 10.25-.757 14.167-2.793-2.474-7.44-5.815-10.29-7.875 2.658 1.293 6.2 3.378 8.7 4.106 1.015-2.85 1.614-7.247 2.346-10.4z"/><path d="M472.636 261.782c-.065.03-4.792-10.493-4.792-10.493l2.655 11.502 1.722 1.373.414-2.383z"/><path d="M472.914 251.383c.15 4.045.194 10.308.672 14.193-2.998-2.083-7.908-4.777-10.924-6.44 2.75.927 6.446 2.522 8.98 2.907.716-2.973.866-7.426 1.272-10.66z"/><path d="M473.374 260.625c-.04.066-8.82-5.9-8.82-5.9l7.46 8.076 2.085.095-.726-2.27z"/><path d="M472.867 251.632c.325 4.007.636 10.22 1.286 14.054-3.128-1.926-8.22-4.37-11.346-5.88 2.826.792 6.64 2.2 9.226 2.465.598-2.983.56-7.41.833-10.638z"/><path d="M473.98 262.894c-.053.05-7.238-8.32-7.238-8.32l5.452 9.99 1.995.722-.21-2.392z"/><path d="M473.364 252.994c.48 3.97 1.034 10.133 1.83 13.915-3.18-1.77-8.326-3.964-11.488-5.32 2.835.656 6.675 1.88 9.25 2.022.476-2.995.264-7.395.407-10.618z"/><path d="M475.69 264.588c-.042.066-8.655-6.066-8.655-6.066l7.294 8.242 2.056.122-.697-2.298z"/><path d="M474.07 255.146c.79 3.97 1.83 10.158 2.917 13.91-3.28-1.484-8.54-3.205-11.77-4.27 2.852.39 6.742 1.254 9.297 1.15.23-3.08-.33-7.513-.445-10.79z"/><path d="M476.436 265.676c-.054.05-7.074-8.506-7.074-8.506l5.287 10.138 1.965.77-.18-2.402z"/><path d="M474.077 255.942c1.102 3.83 2.626 9.82 4.006 13.39-3.383-1.04-8.753-2.057-12.053-2.69 2.87.012 6.81.362 9.344-.076-.014-3.078-.923-7.394-1.298-10.624z"/><path d="M476.84 265.636c-.014.08-10-2.042-10-2.042l9.496 4.645 1.927-.75-1.422-1.854z"/><path d="M474.872 257.073c1.102 3.83 2.626 9.82 4.006 13.39-3.383-1.04-8.753-2.057-12.053-2.69 2.87.012 6.81.362 9.344-.076-.015-3.078-.924-7.394-1.3-10.624z"/><path d="M478.615 266.94c-.03.07-9.617-4.663-9.617-4.663l8.607 6.994 2.074-.183-1.065-2.147z"/><path d="M474.416 257.937c1.89 3.504 4.65 9.03 6.758 12.222-3.533-.288-9.008-.123-12.374-.03 2.812-.607 6.746-1.115 9.135-2.09-.665-3.005-2.47-7.027-3.52-10.103z"/><path d="M479.89 268.106c-.02.078-9.9-2.722-9.9-2.722l9.277 5.287 1.96-.614-1.338-1.95z"/><path d="M475.507 259.346c1.92 3.485 4.727 8.985 6.858 12.153-3.506-.21-8.932.08-12.268.25 2.78-.675 6.674-1.276 9.03-2.312-.7-3.01-2.54-7.02-3.62-10.092z"/><path d="M481.31 268.826c-.035.067-9.208-5.55-9.208-5.55l8.042 7.765 2.07.02-.904-2.234z"/><path d="M476.44 260.084c2.24 3.236 5.557 8.37 7.977 11.26-3.504.234-8.868 1.205-12.166 1.796 2.7-1.024 6.51-2.113 8.752-3.443-.982-2.916-3.195-6.683-4.564-9.613z"/><path d="M482.373 269.32c-.003.083-10.12-.185-10.12-.185l10.004 2.867 1.783-1.098-1.667-1.583z"/><path d="M487.89 220.883c0-.032 7.274-1.232 7.274-1.232l-7.235.184-1.265.653 1.225.396z"/><path d="M492.02 222.745c-2.094-.602-5.258-1.613-7.41-2.05 2.306-.918 5.722-2.538 7.824-3.532-1.62 1.003-3.975 2.294-5.233 3.295 1.193.79 3.367 1.585 4.82 2.287z"/><path d="M488.047 220.83c-.007-.03 6.96-1.87 6.96-1.87l-7.193.86-1.095.746 1.327.264z"/><path d="M492.456 223.074c-2.44-.218-6.182-.668-8.588-.68 1.808-1.618 4.34-4.323 5.9-5.984-1.07 1.56-2.72 3.63-3.427 5.1 1.638.65 4.265 1.078 6.117 1.564z"/><path d="M485.477 221.932c.006-.032 7.194-.902 7.194-.902l-7-.147-1.314.597 1.12.452z"/><path d="M490.372 223.222c-2.242-.428-5.648-1.172-7.918-1.438 2.175-1.046 5.348-2.847 7.3-3.952-1.46 1.08-3.615 2.488-4.71 3.54 1.36.672 3.72 1.28 5.328 1.85z"/><path d="M484.308 221.84c-.02-.028 6.42-2.796 6.42-2.796l-7.042 1.902-.838.856 1.46.037z"/><path d="M490.44 224.195c-1.84-.75-4.657-2.026-6.475-2.55 1.394-1.337 3.357-3.673 4.566-5.107-.837 1.43-2.12 3.278-2.68 4.693 1.224 1.04 3.2 2.054 4.59 2.965z"/><path d="M484.784 221.952c-.013-.042 5.04-2.08 5.04-2.08l-5.468.682-.684.946 1.112.452z"/><path d="M480.57 268.75c.004.08-10.32.123-10.32.123l10.437 2.52 1.72-1.135-1.837-1.507z"/><path d="M482.355 269.372c-.013.075-10.453-2.435-10.453-2.435l10.026 4.92 1.972-.63-1.545-1.855z"/><path d="M484.208 270.207c0 .08-10.385-.558-10.385-.558l10.385 3.16 1.78-1-1.78-1.603z"/><path d="M477.596 262.469c2.698 2.944 6.742 7.64 9.572 10.235-3.475.543-8.706 1.974-11.925 2.847 2.557-1.24 6.218-2.645 8.275-4.142-1.394-2.748-4.14-6.215-5.923-8.942z"/><path d="M485.766 270.334c-.02.073-10.394-3.3-10.394-3.3l9.772 5.71 2.044-.45-1.422-1.96z"/><path d="M478.654 263.285c2.953 2.667 7.408 6.948 10.453 9.244-3.343.958-8.31 3.022-11.368 4.284 2.37-1.557 5.803-3.41 7.657-5.168-1.655-2.62-4.71-5.808-6.743-8.36z"/><path d="M486.54 271.273c.016.08-9.944 1.936-9.944 1.936l10.45.705 1.492-1.446-1.997-1.197z"/><path d="M484.023 270.706c.01.08-10.215.76-10.215.76l10.526 1.843 1.62-1.23-1.93-1.374z"/><path d="M486.473 271.532c-.007.076-10.677-1.755-10.677-1.755l10.444 4.28 1.928-.764-1.695-1.76z"/><path d="M488.212 271.573c.006.078-10.443.266-10.443.266l10.637 2.336 1.708-1.143-1.903-1.46z"/><path d="M480.922 264.907c2.913 2.782 7.296 7.234 10.32 9.655-3.474.777-8.664 2.563-11.857 3.654 2.5-1.417 6.107-3.072 8.088-4.714-1.583-2.67-4.577-5.972-6.55-8.595z"/><path d="M489.437 272.108c-.014.075-10.64-2.62-10.64-2.62l10.174 5.068 2.02-.583-1.553-1.865z"/><path d="M482.035 265.54c3.148 2.474 7.917 6.463 11.13 8.56-3.264 1.167-8.065 3.537-11.02 4.988 2.248-1.7 5.534-3.765 7.25-5.634-1.85-2.51-5.138-5.496-7.36-7.914z"/><path d="M490.074 272.97c.02.08-9.674 2.574-9.674 2.574l10.373.03 1.364-1.54-2.063-1.064z"/></g><g><path d="M516.38 246.828c0 11.322-8.964 20.5-20.022 20.5-11.058 0-20.022-9.178-20.022-20.5 0-11.323 8.964-20.502 20.022-20.502 11.057 0 20.022 9.18 20.022 20.502z" fill-rule="evenodd" fill="#3d25ca"/><path d="M507.967 258.835l-10.992-6.803-10.99 6.803 4.12-10.884-9.617-6.8h12.366l4.12-10.885 4.123 10.884h12.366l-9.617 6.8 4.12 10.885z" fill-rule="evenodd" fill="#ffd900"/><path d="M480.5 241.23l16.584 4.093" fill="none"/><path d="M497.084 230.317v15.006" fill="none"/><path d="M497.084 245.323v6.82" fill="none"/><path d="M497.084 245.323l6.91 2.728" fill="none"/><path d="M492.937 241.23l4.146 4.092" fill="none"/><path d="M497.084 245.323l4.146-4.093" fill="none"/><path d="M513.666 241.23l-16.582 4.093" fill="none"/><path d="M497.084 245.323l11.055 13.642" fill="none"/><path d="M497.084 245.323l-11.056 13.642" fill="none"/><path d="M490.174 248.05l6.91-2.727" fill="none"/></g></g><g stroke-width="1pt"><path d="M536.85 248.012c0 22.533-18.288 40.82-40.82 40.82s-40.82-18.287-40.82-40.82c0-22.53 18.287-40.82 40.82-40.82 22.53 0 40.82 18.288 40.82 40.82zm13.605 0c0 30.042-24.382 54.424-54.424 54.424s-54.423-24.382-54.423-54.424 24.382-54.424 54.424-54.424 54.425 24.382 54.425 54.424z" fill-rule="evenodd" stroke="#000" fill="#d60000" stroke-width="0.192"/><path d="M537.454 258.026l3.593 1.328 5.96-1.09-.448 1.21-3.106.537c-.58.097-1.152.175-1.717.235.36.388.758.847 1.195 1.373l1.955 2.378-.43 1.16-3.778-4.807-3.593-1.33.367-.994z" fill="#ffe600"/><path d="M547.508 244.343l.114 1.055-5.196.564c-.904.1-1.632.085-2.183-.038-.552-.124-1.02-.405-1.408-.843-.382-.435-.615-1.037-.7-1.805-.08-.748 0-1.374.238-1.88.24-.507.62-.89 1.147-1.154.53-.262 1.272-.445 2.225-.548l5.197-.564.114 1.054-5.19.564c-.782.084-1.35.21-1.71.38-.354.168-.614.42-.78.754-.167.337-.225.732-.176 1.186.084.775.342 1.307.775 1.594.433.286 1.213.37 2.342.246l5.19-.563z" fill="#ffe600"/><path d="M540.498 233.477l1.037-.21.68 3.317-3.28.667c-.56-.415-1.014-.87-1.357-1.364-.34-.496-.567-1.028-.683-1.598-.157-.77-.114-1.508.127-2.214.247-.703.69-1.286 1.327-1.75.637-.464 1.39-.784 2.26-.96.86-.176 1.694-.18 2.502-.015.813.168 1.46.514 1.945 1.04.483.524.805 1.177.963 1.958.116.566.115 1.098 0 1.597-.113.502-.327.92-.644 1.255-.317.336-.76.632-1.326.888l-.48-.876c.426-.21.75-.427.972-.654.222-.228.376-.518.463-.874.09-.356.096-.732.015-1.127-.096-.474-.262-.867-.497-1.18-.23-.313-.5-.55-.81-.71-.308-.155-.633-.26-.974-.313-.59-.088-1.202-.067-1.84.063-.79.16-1.424.414-1.906.76-.482.35-.804.782-.968 1.295-.163.512-.193 1.026-.088 1.542.092.45.277.868.557 1.257.284.388.56.67.825.846l1.647-.335-.47-2.303z" fill="#ffe600"/><path d="M502.635 204.888l1.54-8.892 1.044.18-1.36 7.843 3.88.672-.18 1.05-4.925-.854z" fill="#ffe600"/><path d="M493.92 204.484v-9.045h5.8v1.066h-4.738v2.77h4.436v1.062h-4.436v3.08h4.923v1.066h-5.984z" fill="#ffe600"/><path d="M468.635 210.022l.997-.458c.47.887.652 1.714.55 2.48-.102.763-.47 1.414-1.1 1.955-.653.558-1.312.865-1.98.92-.665.046-1.35-.122-2.052-.507-.7-.386-1.33-.907-1.89-1.56-.61-.71-1.02-1.434-1.234-2.168-.213-.74-.216-1.436-.006-2.09.21-.66.58-1.218 1.115-1.676.607-.52 1.266-.783 1.977-.79.712-.005 1.42.237 2.123.73l-.61.885c-.566-.377-1.08-.564-1.542-.562-.462.002-.895.177-1.3.524-.466.4-.748.86-.846 1.38-.096.52-.024 1.046.214 1.58.236.532.548 1.023.934 1.473.498.582 1.008 1.026 1.53 1.334.522.302 1.033.425 1.534.368.5-.057.936-.244 1.305-.56.45-.386.704-.858.765-1.417.06-.56-.1-1.173-.483-1.843z" fill="#ffe600"/><path d="M464.995 217.875l-6.733-6.013.705-.79 6.733 6.013-.705.79z" fill="#ffe600"/><path d="M460.61 223.18l-7.144-5.5.645-.84 6.302 4.852 2.4-3.118.843.65-3.045 3.955z" fill="#ffe600"/><path d="M447.23 228.538l.39-.982 4.84 1.93c.843.336 1.478.686 1.906 1.052.428.367.71.834.846 1.4.133.563.057 1.202-.228 1.918-.278.696-.64 1.21-1.087 1.546-.446.333-.963.494-1.55.48-.59-.017-1.327-.202-2.215-.556l-4.84-1.93.39-.982 4.836 1.928c.728.29 1.29.444 1.682.465.392.015.74-.085 1.04-.3.305-.22.54-.542.71-.963.287-.723.308-1.312.06-1.767-.246-.454-.895-.892-1.946-1.31l-4.835-1.93z" fill="#ffe600"/><path d="M452.575 250.398l-9.046.05-.034-5.796 1.067-.006.027 4.737 2.77-.016-.025-4.436 1.062-.005.025 4.436 3.08-.016-.03-4.924 1.07-.006.033 5.984z" fill="#ffe600"/><path d="M486.214 205.578l-1.8-8.84 2.7-.55c.61-.124 1.083-.176 1.42-.157.474.026.9.16 1.28.4.493.31.904.752 1.23 1.326.333.57.578 1.247.74 2.035.135.673.187 1.282.154 1.83-.034.546-.125 1.012-.272 1.398-.148.382-.333.698-.553.948-.218.245-.5.455-.846.63-.343.175-.75.31-1.226.407l-2.826.575zm.824-1.254l1.673-.34c.518-.106.91-.242 1.18-.41.276-.17.48-.37.614-.602.19-.328.304-.738.345-1.232.042-.5-.004-1.082-.14-1.75-.188-.924-.468-1.606-.84-2.045-.368-.444-.762-.712-1.18-.802-.304-.064-.763-.034-1.38.092l-1.646.335 1.374 6.754z" fill="#ffe600"/><path d="M515.56 209.245l4.164-8.018 2.682 1.393c.47.245.82.457 1.04.637.315.247.543.525.682.834.14.305.197.66.167 1.066-.027.407-.144.81-.35 1.207-.354.682-.846 1.16-1.477 1.434-.63.27-1.446.145-2.45-.376l-1.824-.946-1.692 3.26-.94-.49zm3.126-3.717l1.837.954c.607.315 1.105.412 1.493.29.388-.123.702-.416.942-.88.175-.335.247-.66.22-.976-.025-.318-.14-.58-.346-.783-.133-.13-.414-.305-.84-.527l-1.82-.944-1.486 2.866z" fill="#ffe600"/><path d="M520.197 211.58l8.306-4.685.85.76-3.57 8.914-.9-.805 1.125-2.66-2.496-2.23-2.476 1.454-.84-.75zm4.19-1.227l2.025 1.808 1.042-2.42c.317-.736.59-1.327.824-1.774-.462.363-.952.696-1.47.998l-2.42 1.39z" fill="#ffe600"/><path d="M526.55 217.578l7.146-5.5 2.16 2.808c.435.565.7 1.044.797 1.438.1.39.054.8-.135 1.226-.19.425-.482.79-.875 1.092-.506.39-1.046.574-1.617.55-.572-.023-1.14-.302-1.7-.837.05.314.06.574.033.78-.066.44-.204.914-.416 1.426l-1.097 2.6-.81-1.055.84-1.982c.24-.575.414-1.03.52-1.363.105-.332.154-.598.147-.795-.004-.194-.038-.37-.102-.526-.05-.113-.158-.278-.325-.494l-.748-.97-3.173 2.44-.646-.838zm4.638-2.234l1.386 1.802c.295.382.57.648.824.797.257.146.526.2.808.162.284-.04.542-.15.772-.327.338-.26.532-.583.58-.97.052-.383-.103-.81-.464-1.28l-1.543-2.003-2.362 1.82z" fill="#ffe600"/><path d="M531.546 223.783l9.368-1.743.56.993-6.26 7.273-.592-1.05 1.924-2.152-1.638-2.915-2.812.573-.55-.98zm4.36.196l1.328 2.363 1.77-1.952c.536-.593.986-1.064 1.35-1.41-.553.194-1.124.35-1.712.468l-2.737.53z" fill="#ffe600"/><path d="M539.335 247.566l8.68 3.987-.118 1.136-9.33 2.337.124-1.202 2.82-.65.344-3.334-2.634-1.154.115-1.12zm3.457 2.68l-.278 2.702 2.576-.575c.783-.177 1.424-.3 1.923-.374-.566-.162-1.124-.364-1.673-.607l-2.548-1.148z" fill="#ffe600"/><path d="M453.846 258.54l-8.79 1.953-.766-3.453c-.155-.695-.192-1.24-.112-1.637.075-.397.29-.747.64-1.052.352-.304.77-.51 1.253-.618.625-.138 1.19-.076 1.697.187.507.26.902.754 1.184 1.476.088-.306.188-.546.3-.72.245-.37.572-.742.98-1.115l2.09-1.885.288 1.296-1.6 1.438c-.46.418-.808.757-1.045 1.014-.236.256-.393.475-.47.656-.078.178-.122.35-.13.52-.002.123.026.317.085.583l.266 1.196 3.903-.867.23 1.03zm-5.14.06l-.492-2.216c-.104-.47-.24-.828-.407-1.07-.17-.24-.392-.402-.662-.488-.275-.084-.554-.094-.838-.03-.415.092-.727.302-.935.63-.21.326-.25.777-.12 1.355l.547 2.466 2.907-.646z" fill="#ffe600"/><path d="M452.834 242.3l-8.994-.77.258-3.01c.045-.53.108-.93.19-1.204.107-.386.276-.7.507-.95.227-.246.534-.433.92-.56.386-.132.802-.178 1.248-.14.765.065 1.395.337 1.89.813.49.476.687 1.278.59 2.406l-.175 2.045 3.657.314-.09 1.055zm-4.627-1.46l.176-2.062c.06-.68-.043-1.177-.305-1.488-.262-.31-.652-.49-1.172-.533-.376-.033-.704.025-.985.172-.283.143-.48.35-.59.617-.068.174-.122.5-.163.978l-.175 2.04 3.215.275z" fill="#ffe600"/><path d="M456.528 228.905l-7.504-4.986 1.658-2.496c.338-.508.684-.864 1.04-1.068.356-.208.75-.294 1.182-.255.43.034.818.166 1.162.395.32.213.572.49.753.832.18.343.254.727.22 1.155.4-.314.833-.472 1.296-.474.466-.004.917.138 1.354.428.35.234.635.518.85.853.214.33.338.645.373.947s-.002.63-.11.98c-.113.344-.31.728-.59 1.15l-1.685 2.538zm-3.766-3.77l.955-1.44c.26-.39.417-.69.47-.896.075-.275.062-.526-.038-.754-.1-.23-.28-.432-.542-.607-.25-.166-.502-.26-.76-.277-.26-.022-.492.044-.69.195-.203.15-.463.462-.78.94l-.884 1.33 2.268 1.506zm3.465 2.3l1.1-1.655c.19-.284.31-.492.363-.623.093-.23.137-.444.132-.644-.005-.2-.068-.403-.19-.61-.127-.21-.31-.396-.548-.554-.28-.187-.565-.285-.854-.294-.292-.01-.555.07-.788.242-.234.167-.49.463-.773.886l-1.022 1.538 2.58 1.714z" fill="#ffe600"/><path d="M471.474 211.823l-2.172-9.285.968-.604 7.557 5.924-1.022.638-2.24-1.825-2.838 1.773.7 2.785-.953.595zm-.003-4.367l2.302-1.437-2.032-1.68c-.62-.51-1.11-.938-1.473-1.287.22.545.403 1.11.547 1.69l.657 2.713z" fill="#ffe600"/></g></g></g></svg>