<svg xmlns="http://www.w3.org/2000/svg" height="512" width="512" version="1"><defs><clipPath id="a"><path fill-opacity=".67" d="M0 0h512v512H0z"/></clipPath></defs><g clip-path="url(#a)"><g fill="#00009e"><path fill="#006" d="M1023.99 511.95V-.033H-.008V511.95H1023.99z"/></g><g fill="#fff"><path d="M-.008 85.267h107.986L-.008 31.077V-.03h61.784L212.834 75.27V-.03h85.06V75.27L448.953-.03h62.317v31.108l-108.52 54.19h108.52v85.364H402.75l108.52 54.19v31.12H448.95l-151.057-75.315v75.314h-85.06v-75.313L61.774 255.94H-.007v-31.12l107.986-54.188H-.008V85.267z"/></g><g fill="#ef072d"><path fill="#ce1126" d="M471.07-.034L300.415 85.324h40.85L511.26-.034h-40.19z"/></g><g fill="#ef072d"><path fill="#ce1126" d="M511.28 255.94l-170.174-85.31h41.03L511.28 235.6v20.34z"/></g><g fill="#ef072d"><path fill="#ce1126" d="M170.967 85.303L-.015-.055V20.33l129.772 64.973h41.21z"/></g><g fill="#ef072d"><path fill="#ce1126" d="M170.61 170.604L-.017 255.916h40.83l170.653-85.312H170.61z"/></g><g fill="#ef072d"><path fill="#ce1126" d="M-.008 102.975h230.96V-.035h49.984v103.01H511.27v49.986H280.935v102.977h-49.984V152.96H-.008v-49.985z"/></g><g><g stroke="#fff" fill="#4fa8ff"><path d="M492.91 276.93c-.23 80.748-12.968 167.74-117.48 209.176C270.91 444.67 258.17 357.678 257.943 276.93H492.91z" stroke-width="4.944.009" fill="#8fc5ff"/></g><g stroke="#000" fill="#fff"><path fill="#366cc9" d="M375.4 486.116c47.38-18.783 75.898-46.935 92.94-79.62-2.552.1-7.896-.054-10.205-.213-2.57-.168-100.21-9.977-111.774-14.22-10.06-3.687-48.442 3.136-66.357 9.538 16.714 34.768 45.664 64.8 95.396 84.516z"/></g><g stroke-width=".125" stroke="#000"><path fill="#5d3100" d="M302.382 436.032c1.597-.52 4.647-.395 5.85-.178 1.412.257 1.67.386 2.184-1.157s1.67-1.157 2.57-.385 3.21.385 4.108-.9c.9-1.28 1.157-1.152 2.057-.257.9.9 1.286.642 2.186.385.9-.252 2.442-1.28 3.213-2.694s1.922-1.928 2.565-1.157 1.285 1.156 2.185 1.027 1.157.77 1.028 1.923c-.128 1.157.386 1.414 2.57-.38 1.93 1.923 2.567 1.152 2.567-.9 0-2.057-.51-9.636-1.28-10.665s-1.543-3.984-1.67-6.298c-.244-4.366-.26-4.623-5.528-7.322 0-1.543-.386-2.186-4.11-1.93.13-.513-.513-2.055-1.284-2.698s-.9-.9-.514-2.695c1.54.13 3.212-.128 4.112-1.414.895-1.285 3.85-1.028 5.65-.257s4.114.9 7.58.387c1.284-1.03 3.47-2.185 5.783-3.47 2.31-1.286 2.95-1.8 3.08-3.6.33-4.613-1.285-9.893-2.57-12.33-1.28-2.443-1.667-5.528-3.466-9.385-1.96-4.197-1.93-5.265-4.114-7.836-.598-.707-1.286-1.286-1.414-2.695-.13-1.413-.643-3.34-2.18-4.755-3.886-3.565-5.4-15.035-6.94-23.514-.886-4.86-.258-16.315-2.31-18.114-3.47-2.828-5.14-2.314-7.455-3.214-1.67-2.314-2.437-6.936-3.98-11.05-2.44.386-4.112 2.957-5.783 3.856s-1.928.9-1.928 3.214c0 2.31-1.286 5.523-3.594 9.122-2.314 3.594-6.17 2.57-9.378 7.965-7.07-8.61-7.198-11.05-7.712-13.494-.514-2.437-1.67-2.95-5.65-6.422 0-1.028-.515-5.137-.13-7.45-2.956-2.443-5.14-2.057-6.55-.258-1.413 1.8-2.442 4.494-4.627 5.523-1.31 1.665-5.26 5.867-8.493 10.87 2.942 44.715 13.03 89.103 43.37 124.602z"/></g><g stroke="#fff" stroke-width=".25" fill="#ff0"><path d="M492.91 276.93c.088-30.415-1.603-59.946-.832-85.824-39.054-17.477-90.443-21.07-116.65-21.07-26.21 0-77.6 3.593-116.653 21.07.77 25.878-.915 55.41-.83 85.825h234.964z" stroke-width="4.84512"/></g><g fill="#cf6200"><path d="M264.267 312.133c1.285 2.057 3.6 5.592 3.856 7.515.9-1.864 1.607-2.695 1.8-3.85s1.542-3.408 1.028-4.63-.9-2.184.515-1.285c1.41.9 1.137 2.458.83 4.757-.83 6.293-3.465 7.58-3.85 11.82 3.79 8.93.963 12.144 5.072 20.88.642.386 2.358-.302 2.872-.173 2.18-1.543 3.81-.984 6.89-.34 3.085.64 4.756 2.822 4.756 4.75s0 2.442.643 3.6 1.927 2.956 1.67 4.24c-.258 1.282.257 2.053.642 2.696s-.128 2.057-.514 2.956-.257 2.056 1.285 3.984c1.543 1.924 5.137 10.022 5.137 14.773 0 4.757.257 6.942 2.185 7.837 1.928.9 2.57 1.67 2.313 3.728s.9 12.72 1.157 14.392.9 1.285 1.67 2.185c.767.894 1.282 1.922 3.852 1.922s5.053-.34 6.724-.084c2.314 3.214 3.728 7.58 4.242 10.28s.47 6.382 1.37 6.382 1.8.13 1.542-3.214-.514-3.856-1.67-5.522c-1.158-1.67-1.8-2.443-1.158-3.47s.77-2.7.514-3.986-.642-3.21 1.543-.643c2.185 2.57 2.828 3.214 3.47 4.114s.895 2.57.77 4.112c-.127 1.538.125 2.18 1.025 1.41.9-.767 2.056.514 1.542 2.185s.13 2.7 1.67 3.213 2.186.9 2.572 2.057 1.67 1.666 1.67-.643c0-2.313-.9-7.198-1.542-8.736-.642-1.542-1.157-4.885-1.285-6.813s-.514-2.437-1.414-2.823-1.67-1.028-1.798-1.928-.9-1.22-1.48-1.22-1.086-.45-1.407-1.094-.643-.707-1.286-.77-1.672.32-1.993-.708-.77-2.507-1.414-3.342-1.22-1.093-1.285-3.98c-.065-2.893-.13-3.278-1.03-4.307s-2.44-3.723-3.083-4.88c-.638-1.157-1.28-2.313-1.28.13 0 2.436 0 3.722 1.537 4.622 1.542.9 1.928.9 1.285 2.185s0 2.185.257 3.085.77 1.8 0 2.695c-.77.9-1.542.642-1.414-.767.13-1.414-.385-3.085-1.023-4.242-.643-1.156-1.157-1.927-1.928-1.284s-1.415-.13-.9-.643.385-.9 0-1.285-.515-.772.128-1.543.642-1.157.257-2.952c-.386-1.8-3.214-10.793-4.5-12.85s-1.156-3.6.515-1.542 3.085 3.858 3.214 5.524c.128 1.67.514 2.7 1.028 3.342s.9.386 1.157-1.028 1.284-.9-.515-3.595c-1.8-2.7-5.142-7.198-6.427-15.292s-1.8-13.49-3.085-15.672c-1.28-2.185-1.666-2.7-1.795-4.756s0-4.113-.9-5.65c-.9-1.544-1.542-1.8-1.67.513-.13 2.31.128 7.45.77 8.35s.258 3.21.13 4.495-2.15 2.556 2.056 5.142c1.67 1.028 1.41 2.442 1.157 3.342-.256.895-.513.766-1.413-.643-.9-1.413-1.8-2.57-2.7-3.34s-1.027-1.286-.9-3.086.515-3.085 0-3.723c-.513-.642-.77-.128-1.027.896-.257 1.028-.514 3.856-1.028 4.628s-.772.257-1.157-1.414.128-4.238 1.028-7.194 1.414-6.042.643-9.893c-.772-3.857-.386-5.014-3.342-8.222-2.952-3.213-6.293-6.298-7.707-10.278-1.414-3.985-1.67-7.456-3.214-9.255-1.537-1.795-3.722-4.11-5.136-4.752v-5.908c0-1.414-.643-2.314-2.314-2.057s-2.7 1.67-3.722 3.595c-1.027 1.928-1.8 1.028-3.212 4.37s-3.47 5.01-3.47 8.608z"/></g><g fill="#cf6200"><path d="M273.56 349.807c1.03.643 2.013 1.073 3.556.302s3.386-2.998 5.442-.812c2.052 2.18 3.21 5.78 3.21 8.607 0 2.824 0 8.094 3.212 11.05 3.214 2.952 4.88 6.037 5.008 9.894.13 3.85 1.542 9.763 1.928 11.306.386 1.537 1.285 3.337 2.314 4.365s1.8 3.986 1.928 7.067c.128 3.085-.386 5.27 0 6.813s0 2.828-1.157 2.056-1.413-1.157-2.056-2.442-1.414-1.028-.77.9 2.57 3.723 4.24 3.723 2.186.257 3.214 1.285c1.023 1.028 1.152 1.543 2.95 1.543s2.058 0 3.73.514 1.67.256 2.57 0 1.794.513 2.437 2.184 2.185 6.294 2.185 7.58 0 2.57.9 3.856.642 2.57-.386 1.8-1.028-.515-1.8-.386-1.285-.257-2.308-.9c-1.028-.643-.386-.514-1.414-2.057s-1.67-2.056-1.67-.9-.13 2.57-.9 1.93-1.158-.644-1.8 0-.9 1.156-1.67-.13-1.672-1.285-2.443-1.542-.772-.258-1.153-1.414c-.386-1.156-1.543-1.413-2.57-1.413s-1.543-.515-1.672-1.286c-.128-.765-.77-1.28-1.285-1.665s-.257-1.286-.386-2.185-.9-.515-1.414-.772-.9-.128-.9-1.414-.513-1.67-.9-2.57c-.38-.9 0-1.8.258-2.824.257-1.028.13-1.67-.638-2.57-.77-.9-.128-1.8-2.185-3.6s-3.085-.257-3.727-4.494c-.643-4.242-1.928-12.978-3.085-14.392s-1.923-2.443-3.08-2.828-1.928-.13-2.056-2.57c-.13-2.44-.9-5.524-2.443-7.066s-2.185-2.057-2.956-2.7-1.028-1.8 0-3.98c1.028-2.185.643-5.142.514-6.556-.128-1.41-.514-3.21-.257-4.75s.13-3.472-.257-4.5-.9-1.286-.257-2.057z"/></g><g fill="#cf6200"><path d="M304.508 313.27c-1.74 2.24-3.594 4.114-5.992 5.824-2.397 1.716-5.482 3.085-3.772 5.997 1.716 2.914 3.085 3.26 3.426 5.484.346 2.225.86 4.114 2.57 4.628 1.716.51 2.4.168 2.4 3.768s0 4.968 1.54 6.338 1.37 2.74 2.058 5.997c.682 3.253.682 10.28 2.738 15.075s6.684 13.878 6.17 15.76-1.2 3.255.855 5.48c2.058 2.23 3.427 5.482 3.6 7.366.168 1.89.514 2.57 2.566 1.89 2.056-.688 3.085-1.376 3.772-2.23.682-.856 2.05-.683 3.94.34 1.883 1.03 4.795 2.057 6.506 1.03 1.715-1.03 2.57-2.567 4.113-2.567 2.397-1.717 3.253-5.316 3.767-6.34.514-1.028.173-1.028-.855-2.057s-.516-2.743-.69-4.454c-.167-1.717-.854-4.283-2.91-8.055-2.052-3.767-3.253-8.395-4.623-9.592-1.37-1.2-2.056-4.113-2.23-5.483-.167-1.37-1.71-2.57-2.738-3.6-1.03-1.022-2.058-2.565-3.254-8.562-1.2-5.997-2.056-10.28-2.056-11.307s-.173-1.2-1.202-1.542-1.542-2.057-1.196-2.912c.34-.855-.346-1.71-.687-2.74s0-2.91.687-3.94c.682-1.028.514-3.94-.173-6.338s-1.37-4.454-4.114-4.8c-2.74-.342-3.253-1.024-4.28-3.254-1.03-2.225-2.058-6.165-2.4-7.025-.34-.857-.854-1.03-2.91.686-2.057 1.71-2.74 2.28-2.74 5.483 0 2.056.342 2.738 1.024 3.94.687 1.196.86 1.542 1.374 4.795s3.426 8.395-.346 11.307c-3.767 2.912-3.253 3.6-3.08 5.65.168 2.058-1.028 3.428-1.715.516-.682-2.912 0-4.623 2.056-5.993 2.056-1.374 3.94-3.085 2.57-4.968-1.374-1.884-1.884-6.34-2.057-8.395s-.514-2.744-1.715-1.202z"/></g><g fill="#00b800"><path d="M273.957 356.926c-.094 1.395.217 2.927.326 4.158.128 1.414.514 4.37-.514 6.556-1.03 2.18-.772 3.338 0 3.98.043.035.083.07.122.104 2.096-.702 2.368-3.04 1.805-4.173-.598-1.195-.425-2.654.257-3.85.687-1.202.687-1.884.09-2.744-.604-.855-.604-.855.083-3.253.603-2.11-.92-2.097-2.17-.777z"/></g><g fill="#00b800"><path d="M295.906 390.15c-.385-1.542-1.8-7.455-1.928-11.306-.128-3.857-1.794-6.942-5.008-9.893-2.506-2.308-3.055-6.016-3.174-8.88-1.883-1.15-2.68-.627-2.52 1.514.167 2.31 2.48 3.426 2.14 6.763-.34 3.343-.34 2.487 1.285 4.114s2.226 3.17 1.37 3.857c-.855.683-.944 1.884.258 2.31 1.196.43 1.285 1.715 1.112 2.91-.173 1.203.944 1.46 1.626 2.315.688.855.772 2.912.09 4.114-.688 1.196-.772 3.08.425 2.056 1.202-1.028 1.716-.09 2.655 1.538.816 1.404 1.498.964 2.383.54-.306-.65-.554-1.32-.712-1.95z"/></g><g fill="#00b800"><path d="M312.616 420.063c-.772 1.542-1.67 1.028-2.443.257s-1.67-.772-1.285-2.186.257-1.67-.77-2.442c-.12-.09-.238-.168-.357-.247-.32-.01-.696-.01-1.186-.01-1.8 0-1.928-.514-2.95-1.543-.233-.227-.436-.415-.634-.573-.02.246-.01.572-.01.958 0 1.414 0 1.157-1.413 1.543s-1.157-1.413-1.414-2.57c-.07-.297-.15-.515-.223-.692-1.547-.297-3.178-1.93-3.762-3.674-.643-1.928.13-2.185.77-.9s.9 1.67 2.058 2.443 1.542-.515 1.157-2.057c-.124-.495-.154-1.068-.14-1.706-.276-.5-.65-.905-1.146-1.122-2.056-.9-1.414-1.157-1.285-2.828.13-1.666-.257-1.666-1.542-.77-1.286.898-1.414-.13-1.414-2.696 0-2.57-1.67-2.57-2.052-.77-.385 1.798-1.028.64-1.8-1.93s-1.8-3.213-1.927-.77c-.11 2.066-.683 2.56-2.027 1.413.237 1.494.445 2.89.613 3.986.642 4.237 1.67 2.695 3.727 4.494s1.414 2.7 2.185 3.6c.767.9.895 1.542.638 2.57-.257 1.024-.638 1.924-.257 2.824.386.9.9 1.285.9 2.57s.385 1.158.9 1.415c.32.157.736.068 1.038.196.33-.435.632-.97 1.018-1.354 1.542-1.543 3.856.128 4.627 2.056s1.665 2.443 2.822.9.77-1.285 2.057.13 1.798 1.156 1.798 1.156 1.285-.514 2.185.257 1.414.644 3.08-1.8c1.67-2.44-.766-1.67-1.537-.127z"/></g><g fill="#00b800"><path d="M317.164 349.56c.51-3.768.168-7.535 1.71-8.91 1.543-1.37 3.426-4.108 3.253 1.716-.168 5.824-.34 5.483-1.537 6.853-1.202 1.368-2.23 1.71-1.03 3.94 1.198 2.224 1.37 2.397 1.198 5.823-.168 3.427-.168 4.796 1.2 6.512 1.37 1.71 1.71 1.883 2.057 3.767.342 1.884 1.538 4.455 3.08 5.824s3.258 5.31 3.426 8.054c.174 2.74 2.572 3.426 4.797 5.31 2.23 1.884-.51 3.253-2.225 2.398-1.71-.855-1.028 0-2.057 1.196-1.028 1.202-1.37 1.375-2.224-.682s-3.77-3.426-5.14-3.94-2.566-2.744-3.768-4.97c-1.028-1.912-3.065-3.312-4.923-3.455.513 1.444.79 2.576.64 3.115-.513 1.883-1.2 3.253.856 5.478 2.057 2.23 3.426 5.483 3.6 7.367.167 1.888.514 2.57 2.565 1.888 2.058-.687 3.086-1.374 3.773-2.23.682-.855 2.052-.682 3.94.342 1.884 1.028 4.795 2.056 6.506 1.028 1.714-1.028 2.57-2.566 4.112-2.566 2.398-1.717 3.253-5.316 3.767-6.34.513-1.028.172-1.028-.856-2.056s-.514-2.744-.687-4.455c-.168-1.716-.856-4.282-2.912-8.055-2.052-3.767-3.253-8.395-4.622-9.59-1.37-1.203-2.057-4.115-2.23-5.484-.168-1.37-1.71-2.57-2.74-3.6-1.027-1.022-2.055-2.565-3.252-8.562-.938-4.687-1.665-8.32-1.937-10.18-1.23 1.963-2.07 2.443-2.516 1.098-.514-1.538-1.2-2.398-1.883-1.37-.687 1.03-.86-.855-.86-1.71 0-.86-.17-1.03-1.03-1.03-.854 0-.167-1.368-.513-3.94-.34-2.57-.854-2.91-1.195.174-.34 3.08-2.057 4.964-1.37 5.65.683.688.34 2.058-.346 4.115-.683 2.05-.342 3.253.172 4.622s-.34 3.94-.687 6.17c-.34 2.225 1.374 4.45 1.89.683z"/></g><g fill="#00b800"><path d="M285.87 318.807c-1.27.094-2.14 1.207-1.413 5.098.455 2.408-1.37 1.884-2.052.682-.687-1.196-1.2-3.767-2.57-5.997-1.375-2.225-.688 1.543-.856 3.6-.174 2.056 1.196 2.056 2.397 3.767 1.196 1.715.168 2.402-1.2 2.402s-.684 2.74-.342 4.622-.342 2.23-1.375.687c-1.023-1.543-.34-3.94-.168-6.853.168-2.912.34-2.23-1.542-2.912-1.884-.687-1.543-1.03-.856-2.744.683-1.71 1.37-2.57.515-3.425-.862-.856-.69-1.37.68-1.543 1.37-.168.86-1.196 2.057-1.543 1.202-.342 1.716.173 1.884-2.052.144-1.86.767-3 2.16-2.438.842 2.863 1.934 7.318 2.68 8.647z"/></g><g fill="#00b800"><path d="M303.124 338.98c0 3.6 0 4.968 1.542 6.338s1.37 2.74 2.057 5.997c.682 3.253.682 10.28 2.74 15.075.612 1.428 1.457 3.243 2.322 5.13 1.137-.893 2.126-2.43 2.477-3.247.51-1.2-1.03-3.6-2.23-5.65-1.196-2.058.173-2.745 1.37-5.316 1.2-2.566-.17-2.74-2.052-3.426-1.888-.68-1.888-2.397-2.917-5.136s-.855-3.94-.168-5.483c.682-1.542.168-2.738-1.2-3.084-1.37-.34-1.03-1.37-.515-3.08.514-1.716.855-2.057-1.197-1.543-1.557.386-1.933.677-2.397 1.24.113.496.168 1.183.168 2.186z"/></g><g><path fill="#5d3100" d="M322.85 346.148c-.19 2.057-.174 3.085-.688 3.768-.51.687-.168 1.715.346 2.744s.855 2.398.34 4.28.342 3.428 1.37 3.942 1.543 0 1.2 2.398c-.345 2.398 1.03 4.968 2.226 5.997 1.2 1.028 2.057 2.74 1.884 3.767-.17 1.03.86 2.057 2.056 2.57 1.2.515 1.028.688 1.028 1.37 0 .688.515.688 1.884 1.03s2.398 1.2 3.94 3.084 3.767 2.912 3.426.856 0-3.427-2.057-4.455c-2.05-1.03-3.594-5.998-4.454-9.425-.854-3.426-3.593-8.05-5.135-8.904-.173-2.402.173-3.598-1.37-4.8-1.542-1.196-2.056-2.74-2.056-3.94 0-1.197-.856-2.74-1.544-3.08-.682-.346-1.028-1.202-1.028-2.23s-1.196-.855-1.37 1.028z"/></g><g fill="#00d860"><path d="M313.753 438.06c3.08-.258 11.434-2.7 12.33-3.472 2.055 1.414 5.654 3.343 7.197 3.343-2.957.643-4.885.258-5.656-.256.386.9 1.414 2.313 2.057 2.442-2.827-.13-6.035-.77-7.064-1.8-2.442 1.03-6.555 1.286-8.863-.257z"/></g><g fill="#00d860"><path d="M319.29 441.916c1.092.32 6.55 1.22 7.257 1.22-1.8 1.538-.257 3.017 2.763 2.76-1.478.192-3.09.75-1.992.964 2.635.514 9.763-1.414 11.177-2.186-2.442 3.15-14.32 6.042-19.206-2.758z"/></g><g fill="#00d860"><path d="M324.184 449.727c1.473-.77 5.136-.514 6.87.322-1.927.706-5.714.706-6.87-.323z"/></g><g><path d="M329.67 449.628c2.636-.45 10.086 1.35 12.72-.257-.9 2.38-5.59 2.7-7.197 2.187-1.602-.515-3.144-1.157-4.237-1.093.58-.32-.385-.386-1.285-.836z"/></g><g fill="#00d860"><path d="M332.39 453.287c1.992.316 9.12-.578 11.306-1.414 2.31.77 6.872 1.988 7.9 1.86-2.185 1.35-6.363.577-7.707 0-3.857 1.284-7.006 1.67-11.5-.446z"/></g><g fill="#00d860"><path d="M335.8 454.474c2.853.642 5.286.183 8.094-.757.875.376 2.936.836 4.874.742 1.29.735 3.026 1.764 4.696 1.892-1.735.707-8.097 0-9.378-.707-3.213.065-8.74.772-10.084 1.864-.065-.9.52-2.15 1.8-3.036z"/></g><g><path d="M332.39 439.987c2.225.742 10.278.386 14.386-1.542 1.62-.762 2.625.514.77 1.157-6.678 2.314-11.948 3.213-15.8 1.157-1.52-.812-1.67-1.544.644-.773z"/></g><g fill="#00d860"><path d="M371.84 429.06c-9.892 4.624-16.448 6.038-30.19 1.8-1.28-.395-2.186 0-.772.9 1.414.895 8.992 2.952 10.792 3.08s1.157.965.064 1.286-1.414 1.093.064.514 9.734-.796 13.106.964c1.473.772 1.86.643 1.73.065s.643-.966 1.735-1.094 1.735-.514.9-.836-.965-.514-.322-.835.707-.643-.257-.836-1.606-.45-.706-.9c.9-.446 2.25-.772 3.277-.895.26-.707-.19-2.57.58-3.214z"/></g><g><path d="M355.378 430.247c5.655.4 16.06-2.185 21.588-7.58 1.923 1.153 4.623 2.44 6.036 2.696s2.7 1.542.515 1.542-5.27-.9-6.68-1.542c-7.326 4.5-15.898 5.977-21.33 5.527-1.538-.128-1.924-.77-.13-.643z"/></g><g fill="#00d860"><path d="M338.668 399.396c1.928 1.35 5.334 3.595 9.764 3.273 2.185 1.735 5.59 3.213 7.134 3.534-2.957 1.222-6.17 2.25-7.006 3.214-1.35-1.285-3.08-1.093-3.53-1.735-1.285 1.028-1.092 1.67-.256 2.185s7.32 1.607 8.928 1.157 2.037.88.707 1.345c-3.472 1.22-10.215.064-12.528-3.66-2.314-3.727-4.306-5.14-10.6-1.734-.706-1.8-.706-2.25-1.927-2.25s-3.47-1.607-1.736-1.543 6.876-.707 11.048-3.787z"/></g><g fill="#00d860"><path d="M340.2 407.653c-1.072.267-4.112 1.928-5.2 2.057-1.092.128-3.02 1.67-1.028 1.735 1.987.064 4.558-2.12 5.972-2.314s1.542-1.798.257-1.477z"/></g><g fill="#00d860"><path d="M346.43 414.18c-.762.133-4.044.9-4.944.835s-1.8.193-1.735.835.322 1.03-1.027.9-2.507.386-2.828.77-.578.773.77.9 2.058.258 3.6-.45 3.02-1.798 4.692-1.863c1.666-.064 3.336-2.25 1.473-1.928z"/></g><g><path d="M341.832 418.134c1.404.91 8.35 3.278 10.856 3.086s2.037 1.003.13 1.414c-3.92.83-8.707-.876-11.95-3.47-1.606-1.287-.128-1.737.964-1.03z"/></g><g fill="#00d860"><path d="M374.707 421.546c-5.314 1.696-10.727 1.093-12.913.514s-4.177-.707-2.7.707c1.48 1.41 6.235 2.373 8.93 1.666-9.57 2.186-12.078 1.993-14.45 1.607-2.38-.386-6.843-.302-8.736-.128-1.414.128-3.342-.065-4.177-.58s-1.092-1.477 1.414-1.22c2.502.257 2.828-.257.643-.58s-5.206.58-2.25 2.444 9.443-.13 13.556 1.028c4.108 1.157 12.844 1.993 21.134-4.692.425-.34 1.157-1.28-.45-.766z"/></g><g fill="#00d860"><path d="M348.605 413.734c.193.643.193 1.35 0 1.8s-.193 1.028.643.385 1.35-1.415 2.185-.965 2.956.386 3.915.257c.97-.128 1.285-.32-.124-.9-1.413-.578-2.827-.77-3.6-.706s-1.734-.13-2.376-.386-.836-.13-.643.514z"/></g><g fill="#00d860"><path d="M362.3 416.206c-1.094.065-3.022-.642-4.05-1.092s-2.502-.515-1.41.964c1.09 1.478 5.844 2.314 7.515 1.607s.964-1.48 2.63-.45c1.67 1.028 3.406 1.735 4.627 1.735s1.67 0 .322-.77-1.992-.965-2.12-1.608-.322-1.028.9-.643 2.634 1.092 3.598.578 2.758-1.67 4.365-1.67l.385-.966c-2.313-.192-3.786.515-4.43.772s-1.798.385-3.02.193-2.827-.322-3.213-.643-.386-.58.642-.77 1.35-.9-.064-.644-5.2.128-7.193-.514c-1.993-.638-2.828-.702-3.664-.386-.834.32-.706 1.22.515 1.285s3.985.322 4.95 1.222.835.964-.258.514-3.085-.192-1.028 1.286z"/></g><g fill="#00d860"><path d="M379.058 413.883l-.386.964c2.378-.065 8.162.514 10.02 1.67 1.8-1.413 1.48-1.863 2.764-1.606s2.892.708 3.6.322 1.22-.32 1.99-.193c.768.128 2.438-.193 3.402-.772s2.957-1.35 4.114-1.35 2.565-.257.45-.578c-2.12-.32-5.335.32-6.427.707-1.088.386-4.365.643-6.293.643s-4.558.964-6.744.385-5.205-.192-6.49-.192z"/></g><g><path d="M408.818 412.745c-3.85 2.828-8.478 3.47-14 3.857-1.607.113-1.113.568.257.707 5.78.577 12.463-1.544 14.643-3.858.632-.667.563-1.775-.9-.707z"/></g><g fill="#00d860"><path d="M382.567 419.32c1.67.065 7.45 1.544 9.314 2.186 1.415-.128 1.8-.45 1.544-.964s-.45-1.092 2.12-.964c2.566.13 8.48.064 9.57.064.9-.385 2.888-1.928 3.788-1.992-2.31.128-11.944.643-13.165.514s-1.864 0-2.635.45-1.22.643-2.185.257-2.7-.9-3.658-.32c-.965.578-2.957.064-4.693.77z"/></g><g fill="#00d860"><path d="M405.11 419.618c.9-.386 2.887-1.93 3.787-1.993 1.67-.128 3.6.58 4.5.707s1.862-.064 1.22-.77-.064-1.93 2.57-1.608c2.63.32 3.98.77 6.55.514s3.728 1.67 8.608-.257c-.386 1.93.514 2.058 1.413 1.672s1.928-.257 3.47.9 10.92 1.286 13.106.9c2.18-.386 3.337.77 1.666 1.285-1.666.515-2.056 1.286-1.666 1.8.38.51.767 1.152-1.285.895-2.058-.257-2.443.386-3.47 1.157s-1.287 1.027-4.114.513c-2.823-.514-3.337-.128-4.88.13s-1.928.256-3.47-.258-4.88-1.03-6.936-.386-3.6 1.284-5.4.77-1.927-.257-.77-1.414 1.414-1.028 3.6-1.285c2.184-.25 3.855-.894 2.313-1.794s-2.057-.77-4.113.257-3.085 1.666-5.394.386c-2.313-1.287-3.47-1.03-5.013-.644s-4.108-.514-6.293-1.478z"/></g><g fill="#00d860"><path d="M412.822 423.474c-2.94.42-3.732-1.473-6.807-1.088-1.028.13-2.764 1.41-.386 1.217 2.372-.193 4.943 1.092 7.257.9s1.285-1.222-.065-1.03z"/></g><g fill="#00d860"><path d="M409.41 425.7c1.55-.565 4.757.513 6.107.256s2.634.578 1.22 1.028-4.82-.835-6.362-.385-3.08-.13-.964-.9z"/></g><g fill="#00d860"><path d="M378.71 434.005c2.122.07 9.765-.257 12.786-6.68.232-.494.45-.706 1.413-.064s4.498 2.765 11.113 3.343c1.854.164 3.856 1.093.128.836s-9.634-1.286-11.626-2.508c-3.342 5.266-9.344 5.89-13.813 5.78-2.693-.064-2.05-.77 0-.707z"/></g><g fill="#00d860"><path d="M395.223 425.254c-1.028 1.414-4.563 3.856-6.17 3.985-1.6.127-6.42-.322-7.642-.772s-2.7-.322-.963.9 6.04 2.056 7.77 1.67c1.736-.385 3.728-.964 5.078-.128s3.856 2.437 5.33 2.116c1.477-.316 4.498-.316 5.462.13.964.45 2.635 1.798.128 1.027s-4.562-.13-5.72-.643c1.286 1.8 4.203 4.692 6.684 4.692.578 0 .963 1.03-.258 1.607 1.22.578 4.044 1.027 5.522-.322-.385.514-.192.835.45 1.157s1.414.77.257.9-3.785.45-4.557.128c2.502 1.602 8.993 4.173 15.607 2.887 1.26-.242 1.928-.766-.128-.707-4.242.13-4.494.065-5.265-.38-.77-.455-.643-.836.578-1.222 1.216-.384 4.3-.834 5.587-.834s2.57-.514-.065-.514-5.843 0-7.128-.45-2.25-1.03-.9-1.928 2.762-.643 3.405-1.48c-4.242-.063-9.447-2.313-6.555-4.364.672-.48.45-.515-.643-.643s-4.3-1.028-5.65-1.8-.45-1.414.642-1.607c-2.507.45-7.52-.9-10.857-3.406z"/></g><g fill="#00d860"><path d="M432.893 425.155c-2.313 1.735-6.678 2.442-8.542 2.442s-2.12.643-.642.836 3.085.386 3.728.193 1.028-.257 1.987.193c.964.45 3.02.706 4.82.127s4.75-.835 5.972-.77 2.57.127.128-.58c-2.437-.707-6.42-.192-7.385.065s-3.6.064-2.185-.386 2.634-1.157 3.34-1.735c-.513-.128-.834-.256-1.22-.385z"/></g><g fill="#00d860"><path d="M431.707 430.15c-1.992 1.477-4.88 2.886-7.836 3.015 2.7.964 4.95 3.727 6.68 3.6-.835.513-1.86 1.284-2.95 1.413 1.67.45 4.492-.064 6.806-1.35 3.856 1.093 8.864.386 10.535-1.028-2.506 0-5.52-.9-6.87-2.057 1.22 0 2.372-.77 2.95-1.473-2.886.51-7.835-.9-9.313-2.12z"/></g><g fill="#00d860"><path d="M427.604 438.207c1.092-.128 2.116-.9 2.95-1.414-2.115.707-11.37-.77-14.128-3.213-2.763-2.438-2.763-.58-.835 1.157s5.33 4.37 12.014 3.47z"/></g><g fill="#00d860"><path d="M434.376 444.09c-1.156.644-6.678 1.03-8.478.644s-2.57-.193-2.12.514.642 1.35-.836 1.157-4.113.128-5.2.514c-1.093.385-2.443 1.35-.13.963 2.31-.386 4.43-.835 6.165-.386s7.9.58 9.12.065.387-.514-.192-.514-.835-.386 0-.772 1.48-1.478 1.67-2.185z"/></g><g fill="#00d860"><path d="M380.936 436.625c-2.314 1.03-10.02 3.086-12.077 3.214-2.572 1.156-4.623 1.8-5.91 1.8.9.77 4.366 1.536 5.78 1.156-.77.766-2.565 1.666-3.208 2.05 2.052-.256 4.494.26 5.522.387-2.7 1.543-6.422 2.057-8.35 1.8.643.9 1.543 1.8 2.7 1.8-2.443.642-5.4.642-6.94.128.64 1.286 1.284 2.058 2.184 2.186-2.057.257-4.628.643-6.808-.643 1.666 2.186 5.394 2.952 10.92 2.314 5.523-.642 10.15-3.085 11.435-4.113-2.313.257-5.398.385-6.94.128 3.084-.77 9.763-3.6 10.92-4.756-1.285 0-2.566-.385-3.47-1.028 1.8.257 8.097-.51 10.025-1.28-2.314-.515-3.727-1.93-4.37-2.83 8.093 2.572 17.1 1.732 21.455.644 1.028-.257 1.152-1.562-.9-1.414-3.6.257-10.534-.77-12.334-1.67 1.672 1.284 3.73 2.056 5.142 2.313-3.34.9-7.964 1.543-14.776-2.185z"/></g><g fill="#00d860"><path d="M365.512 444.882c.643-.386 2.437-1.285 3.208-2.052-1.413.38-4.88-.385-5.78-1.157 1.287 0 3.338-.642 5.91-1.8-4.623-.128-7.837-.128-9.508-1.028s-4.75-.642-5.907-.385-.77 2.185 4.108 1.67c-2.057 1.415-7.58 1.93-9.635 1.415.514 1.666.9 3.337.385 4.237 2.7 1.542 9.764 3.47 13.234 3.214-3.084-1.157-4.755-2.443-2.185-2.7s3.985-.77 6.17-1.414z"/></g><g><path d="M357.553 453.238c6.15-.515 14.386-.623 20.94-6.17 1.672-1.415 2.794-.94 1.158.514-3.465 3.085-12.076 7.322-20.298 7.45-3.347.055-4.88-1.542-1.8-1.794z"/></g><g fill="#00d860"><path d="M403.627 443.053c-1.542.578-5.848 1.285-7.128 1.092-1.287-.192-3.15-.257-4.18.386s-1.09 1.03.323 1.158 3.213.257 4.113.193c-1.157.643-1.928 1.543-2.185 1.93 2.057-.515 5.844.385 6.936 1.027-.835.257-1.8-.064-2.506-.45 3.47 3.664 13.748 3.664 15.42 3.02-.772.58-1.48 1.158-2.25 1.35 2.892.515 6.23.45 9.506-1.477-1.092.193-4.365-.13-5.2-.193.642-.643 1.6-1.22 2.5-1.478-1.28-.258-5.328-.13-6.292.384.385-.77 1.092-1.735 1.864-2.057-5.077 0-11.242-.064-13.49-1.285 3.597.386 7.582-1.735 9.248-1.735-2.823-.065-5.908-.707-6.68-1.864z"/></g><g fill="#00d860"><path d="M390.724 445.87c-2.506.515-6.293 1.543-7.32 2.122s-2.122.9.127.9 8.35.257 9.7.45c-3.405-.515-8.028-.643-8.927-.643s-1.928-.065-.257-.58 3.856-1.67 6.678-2.25z"/></g><g fill="#00d860"><path d="M385.632 451.853c.895 0 4.816 0 6.358-1.35 1.607 1.222 4.69 2.952 6.68 2.952 1.99 0 1.798.514.063.707-1.73.193-5.136-.83-6.872-2.116-2.312.836-4.235.13-6.228-.193z"/></g><g fill="#00d860"><path d="M355.872 469.158c3.98 1.542 9.25 2.7 13.1 1.414 2.186 1.928 6.684 2.056 9.122 1.542 2.442-.514 4.627-.77 7.326.13 2.694.9 8.22.963 9.764 2.243-1.414.07-4.435 0-5.142.198-.707.188-.32.638.964 1.345-4.365-.257-11.884 1.607-14.193 3.6.83-1.993 3.4-4.693 7.45-4.693-2.313-.83-9.7-.895-12.077.58-.707-.773-1.543-2.053-1.607-2.567-3.916 2.244-11.628-.964-14.708-3.792z"/></g><g fill="#00d860"><path d="M345.688 461.94c4.74-.678 7.97-2.186 9.383-3.6.837.77 4.302 1.542 8.094.386-.77.578-.836 1.67-.514 2.25-2.507.063-7.262 1.285-8.864 2.12-1.607.83-6.298 1.41-7.836.574-1.542-.83-1.606-1.538-.262-1.73z"/></g><g fill="#00d860"><path d="M362.645 461c-2.507.064-7.262 1.285-8.864 2.12.322.644.515 1.667.58 2.374 4.622-1.67 15.22-2.695 19.27-2.052-1.93.13-5.592 2.116-7.643 2.373 5.007-.385 9.892.643 11.172.964 1.284.32 1.542 1.285.578 2.185s-1.41 1.028.642 1.092c2.057.065 6.298-.192 8.226-2.056-.77-.835-2.763-.514-3.34-1.092 1.348-.45 2.89-1.414 3.47-2.12-3.47-.065-4.757-.13-5.914-.387-1.156-.25-1.992-.577-.578-1.343 1.414-.772 2.057-1.414 2.506-1.93-2.506.708-6.42 1.287-9.7-1.284 1.222.32 4.11.128 5.137-.32-1.092-.58-1.987-1.03-2.887-1.03 2.63-1.285 7.836-2.442 14.258.13 3.213-.258 6.683-.13 9.12.513 1.03-1.028 3.214-3.47 4.37-4.114-7.578.643-21.197-.77-20.94-4.75-2.442 3.208-8.093 5.007-10.535 4.493-.257 1.157.77 2.57 1.67 3.343-2.57.514-6.94.9-8.992.514 1.158 1.157 3.338 2.185 4.624 2.056-2.695 0-4.108.515-6.23.322z"/></g><g fill="#00d860"><path d="M378.365 470.048c2.057.064 6.3-.193 8.227-2.057-.772-.835-2.764-.513-3.342-1.092 1.35-.45 2.892-1.414 3.47-2.12 5.394-.446 10.214-.19 12.522-.896 2.314-.707 8.226-.32 9.383-.643-5.14.83-6.17 1.28-6.427 2.116s1.67 1.542 2.893 1.542c-2.313-.128-5.205 2.314-5.462 3.278-3.08-1.8-4.558.32-4.88 1.028-1.285-.514-5.526-.385-7.712 1.48-2.822-.837-4.686-1.287-7.514-.837 1.735-.385 1.414-1.542-1.157-1.8z"/></g><g fill="#00d860"><path d="M403.034 455.017c1.735-.064 5.522.13 6.872-.064-.9.45-2.052 1.286-2.31 1.67 4.366-.513 10.338-.834 12.073-.577-2.117-.322-4.302 1.028-5.394 1.735s-.45 1.158 1.028 1.35 3.47 1.35.77.965-8.027-.386-9.313-.193-1.99-.45-.127-.707 3.144-.9 4.044-1.414c-1.543.387-4.494.387-5.394.13s-1.478-.772-.45-1.03.322-.64-.77-.513-3.857 1.286-5.4 2.764c1.672-1.734 3.15-3.277 4.37-4.113z"/></g><g><path d="M383.457 457.934c2.12 2.38 4.623 3.728 8.607 3.857.836.026 2.393 1.148.386 1.222-5.4.193-8.093-1.093-10.47-4.563-.49-.713.414-1.707 1.477-.516z"/></g><g><path d="M415.64 412.993c2.838 1.34 8.543 2.506 12.977 2.313.77-.034 2.324.79.38.965-5.007.45-9.506-.252-13.678-2.57-1.158-.643-.772-1.222.32-.707z"/></g><g fill="#00d860"><path d="M418.507 412.943c4.366-.128 7.643-.064 8.993 1.22 2.5-.77 7-1.22 8.028-1.027s2.185-.257-.193-.836c-2.377-.573-7.9-.766-9.635-.445-1.735.317-7.133.51-8.928.317.77.128 1.28.257 1.735.77z"/></g><g fill="#00d860"><path d="M435.464 414.674c2.057-1.093 7.964-.065 9.764-.836-1.286 1.543 4.113 1.67 8.8.45-1.8 1.157-5.65 1.35-7.322 2.057s-2.57.193-3.856-.386-4.558-1.736-7.386-1.286z"/></g><g fill="#00d860"><path d="M454.052 414.278c-4.687 1.22-10.085 1.093-8.8-.45-1.8.77-7.707-.257-9.763.836 2.12-1.286 3.726-.257 5.264-2.893.964.2 3.213.328 3.984-.7 1.35.32 3.728.9 4.435 1.6.707.708 1.794-.192.894-1.28 2.12-.77.777.915 5.72-.32 1.028-.258 3.535-.708 4.37-.772-1.67 1.35-3.663 2.823-6.105 3.98z"/></g><g stroke-width=".125" stroke="#000" fill="#ff0"><path d="M362.842 392.722c-.084-9.72-1.023-91.08-1.023-109.888 0-4.5-2.314-3.6-2.314 0v109.374c1.062.192 2.496.385 3.336.514z"/></g><g stroke-width=".125" stroke="#000" fill="#ff0"><path d="M398.585 276.93l4.014 115.994-.703.93-2.328.035-2.538-116.96h1.553z"/></g><g stroke-width=".125" stroke="#000" fill="#ff0"><path d="M432.4 374.874c-.327-11.812-1.81-66.49-2.384-93.444-.074-3.594-2.215-2.966-2.18.13.232 21.708 1.523 82.427 1.76 93.378.84 0 2.29-.084 2.803-.064z"/></g><g stroke-width=".125" stroke="#000" fill="#ff0"><path fill="#fff" d="M378.86 296.213l-34.175-.514c-1.923 6.935 6.683 6.807 9.897 5.007 3.722 2.828 6.55 2.57 8.607.257 2.955 2.443 6.677 1.8 8.22.257 4.113 3.086 8.35 0 7.45-5.007z"/></g><g stroke-width=".125" stroke="#000" fill="#ff0"><path fill="#fff" d="M381.43 313.418l-34.946-.128c-6.036 5.78 1.8 8.608 8.483 4.623.9 1.928 5.008 3.085 8.222 1.542 2.955 2.314 6.677.643 8.605-1.285 3.6 1.67 7.836 2.185 9.635-4.752z"/></g><g stroke-width=".125" stroke="#000" fill="#ff0"><path fill="#fff" d="M380.442 335.27l-33.66-.256c-.644 6.037 6.168 5.266 8.863 3.728 2.57 3.98 8.226 3.08 10.41.766 3.21 2.186 6.166 1.672 7.836-.385 3.73 3.213 6.81-.895 6.552-3.852z"/></g><g stroke-width=".125" stroke="#000" fill="#ff0"><path fill="#fff" d="M382.123 357.124l-37.64-.642c-2.058 6.422 3.72 7.58 6.42 6.036.9 3.728 5.908 2.443 7.194-.257 1.928 1.93 4.37.9 5.527-.384.514 3.47 4.88 3.6 8.22.642 6.808 4.756 13.235-.77 10.28-5.394z"/></g><g stroke-width=".125" stroke="#000" fill="#ff0"><path fill="#fff" d="M415.492 348.126l-31.348-.257c1.414 6.42 4.494 8.092 9.507 4.365 3.728 3.856 9.893 2.442 11.436.514 6.807 5.526 10.534-.9 10.406-4.624z"/></g><g stroke-width=".125" stroke="#000" fill="#ff0"><path fill="#fff" d="M412.278 326.67l-30.32-.9c.516 7.707 7.837 7.45 11.564 4.107 2.828 3.6 7.836 2.57 9.636 0 3.856 3.857 10.15 1.543 9.12-3.208z"/></g><g stroke-width=".125" stroke="#000" fill="#ff0"><path fill="#fff" d="M416.283 302.492H383.65c.386 5.394 7.58 8.48 13.106 3.342 1.537 6.165 7.45 4.237 10.02 1.795 3.723 4.755 12.33-.64 9.507-5.138z"/></g><g stroke-width=".125" stroke="#000" fill="#ff0"><path fill="#fff" d="M414.355 286.078l-29.162.385c-.515 4.75 6.42 6.808 8.992 2.952 1.414 2.442 6.293 2.185 7.707-.13 2.314 3.6 5.14 1.158 6.036 0 3.342 2.444 6.94 1.287 6.427-3.207z"/></g><g stroke-width=".125" stroke="#000" fill="#ff0"><path fill="#fff" d="M448.515 296.707l-35.717-.385c-.13 3.723 3.727 5.265 6.036 3.723 0 3.6 5.013 4.756 8.226 1.928 2.185 3.085 8.607 3.985 11.177-.257 5.265 4.37 10.92 1.285 10.278-5.01z"/></g><g stroke-width=".125" stroke="#000" fill="#ff0"><path fill="#fff" d="M448.02 326.026l-34.946-.13c.257 4.88 5.908 6.552 9.12 3.98.773 4.115 5.143 4.372 7.708 2.315 3.085 3.472 8.227 3.73 11.05-.127 4.24 1.542 7.454-2.057 7.07-6.037z"/></g><g stroke-width=".125" stroke="#000" fill="#ff0"><path fill="#fff" d="M446.192 352.378l-27.625-.386c0 4.885 5.784 5.528 8.354 2.957 2.696 3.213 6.81 3.213 9.122.642 3.723 3.213 9.378 2.313 10.15-3.214z"/></g><g stroke-width=".125" stroke="#000"><path d="M401.897 393.86c-14.9.256-30.062.256-40.34-1.287s-13.516-2.986-20.555-7.193c-10.535-6.294-13.106-7.837-28.006-16.573-2.284-1.34-4.76.322-1.542 2.438 15.028 9.893 20.723 13.56 27.877 18.248 7.45 4.88 12.256 9.216 16.83 14.388 5.91 6.685 10.276 6.814 12.976 5.785s6.94-2.442 11.177-1.414c4.242 1.03 9.892 1.158 12.85.644 2.698 2.442 8.862 1.928 12.333 1.157 3.465-.77 6.036-1.156 8.478-.642s6.165.13 8.607-.257 8.865-1.027 13.364-.385c4.493.643 9.12.257 12.077-.642 2.952-.9 8.35-.643 10.15-.13 2.566-1.927 3.85-4.37 4.494-6.935 3.02-.386 4.024-.762 4.69-2.507 1.222-3.213 2.374-6.362 2.765-7.77h1.215l.385-2.894-2.5-2.892.9-5.522 2.693-.643c.128-1.672-.643-4.243-1.157-5.272-16.185.643-32.054 1.157-43.42 1.414-1.285 1.03-2.7 3.728-2.956 5.4-6.936 1.15-11.05 1.666-12.848 2.05s-2.803.53-4.237 2.444c-2.314 3.085-4.5 6.68-6.298 8.993z"/></g><g stroke-width=".125" stroke="#000"><path d="M453.904 374.23c.786-2.723 2.887-10.06 6.693-23.93.638-2.312-1.606-3.227-2.437-.256-4.528 16.192-6.24 22.264-6.812 24.286.87-.015 2.116-.11 2.556-.1z"/></g><g stroke-width=".125" stroke="#000" fill="#fff"><path d="M478.968 347.088c-5.463 2.823-8.098 3.915-10.6 2.95-2.303-.884-5.69-1.383-7.672-.41-.005.21-.034.43-.104.668-2.343 8.54-4.04 14.595-5.18 18.63 4.043 1.43 11.01 1.62 12.635-.124 1.666-1.8 6.23-1.414 8.543-1.285 1.478-1.928 2.056-4.307 1.67-5.463s-.256-3.21.322-4.816 1.35-6.813.386-10.15z"/></g><g stroke-width=".125" stroke="#000" fill="none"><path d="M354.587 300.712c-6.04 17.473-26.982 56.664-39.618 69.287"/></g><g stroke-width=".125" stroke="#000" fill="none"><path d="M324.678 375.714c14.34-11.094 50.603-47.107 56.767-62.266"/></g><g stroke-width=".125" stroke="#000" fill="none"><path d="M346.776 335.024c-1.666 13.235-5.488 36.844-7.544 49.308"/></g><g stroke-width=".125" stroke="#000" fill="none"><path d="M352.362 364.49c-4.88 4.757-11.8 13.058-16.942 17.557"/></g><g stroke-width=".125" stroke="#000" fill="none"><path d="M398.338 338.09c-4.11 3.98-8.8 8.622-12.908 9.78"/></g><g stroke-width=".125" stroke="#000" fill="none"><path d="M400.71 338.732c3.614 3.852 8.75 8.202 12.992 9.36"/></g><g stroke-width=".125" stroke="#000" fill="none"><path d="M397.893 317.423c-3.723 3.21-9.25 6.986-14.258 8.4"/></g><g stroke-width=".125" stroke="#000" fill="none"><path d="M400.018 318.165c3.214 2.7 6.635 6.635 10.743 8.434"/></g><g stroke-width=".125" stroke="#000" fill="none"><path d="M384.397 302.492c3.98-1.157 9.907-4.242 12.99-7.45"/></g><g stroke-width=".125" stroke="#000" fill="none"><path d="M399.178 294.433c3.485 3.98 10.164 7.194 13.506 8.094"/></g><g stroke-width=".125" stroke="#000" fill="none"><path d="M385.188 286.473c4.108-.9 9.2-3.085 11.9-6.94"/></g><g stroke-width=".125" stroke="#000" fill="none"><path d="M398.634 278.464c3.466 2.956 9.556 7.228 13.536 7.614"/></g><g stroke-width=".125" stroke="#000" fill="none"><path d="M427.95 289.983c-2.23 2.314-7.693 6.472-11.158 6.408"/></g><g stroke-width=".125" stroke="#000" fill="none"><path d="M430.224 289.786c1.606 2.57 5.655 6.506 7.97 6.827"/></g><g stroke-width=".125" stroke="#000" fill="none"><path d="M414.454 325.878c4.493-1.543 10.792-5.22 13.94-9.014"/></g><g stroke-width=".125" stroke="#000" fill="none"><path d="M430.866 317.176c1.315 2.373 6.328 7.737 9.156 8.83"/></g><g stroke-width=".125" stroke="#000" fill="none"><path d="M419.793 351.982c2.056-.445 7.648-3.223 9.185-6.5"/></g><g stroke-width=".125" stroke="#000" fill="none"><path d="M431.56 343.676c2.12 2.636 7.32 7.45 10.533 8.608"/></g><g stroke-width=".125" stroke="#000" fill="none"><path d="M349.1 356.53c6.292-1.992 19.012-9.714 25.31-17.04"/></g><g stroke-width=".125" stroke="#000" fill="none"><path d="M362.348 348.77c5.265 3.722 11.385 7.45 16.072 8.285"/></g><g stroke-width=".125" stroke="#000" fill="none"><path d="M347.913 335.024c3.47-1.478 8.028-4 11.563-7.658"/></g><g stroke-width=".125" stroke="#000" fill="none"><path d="M362.15 326.866c1.414 1.988 11.806 8.336 16.235 8.4"/></g><g stroke-width=".125" stroke="#000" fill="none"><path d="M359.48 306.348c-2.698 2.18-9.184 6.1-12.333 6.937"/></g><g stroke-width=".125" stroke="#000" fill="none"><path d="M361.953 306.497c3.6 2.5 10.712 6.92 15.592 6.92"/></g><g stroke-width=".125" stroke="#000" fill="none"><path d="M359.48 286.275c-2.89 3.273-7.77 8.33-11.82 9.488"/></g><g stroke-width=".125" stroke="#000" fill="none"><path d="M361.804 287.017c2.25 3.6 8.27 8.464 12.19 9.107"/></g><g stroke-width=".125" stroke="#000" fill="none"><path d="M413.81 308.623c9.008 16.607 25.713 36.907 42.605 47.572"/></g><g stroke-width=".125" stroke="#000" fill="none"><path d="M386.77 290.23c13.678 19.658 40.532 62.766 66.08 78.68"/></g><g stroke-width=".125" stroke="#000" fill="none"><path d="M457.562 352.08c-4.113 5.722-11.5 14.65-23.705 22.78"/></g><g stroke-width=".125" stroke="#000" fill="none"><path d="M456.03 357.52c-8.607-13.745-13.057-31.123-19.493-54.01"/></g><g stroke-width=".125" stroke="#000" fill="none"><path d="M366.748 364.64l10.6 29.165"/></g><g stroke-width=".125" stroke="#000" fill="none"><path d="M364.77 363.947l9.374 29.75"/></g><g stroke-width=".125" stroke="#000" fill="none"><path d="M362.744 362.563l8.7 30.96"/></g><g stroke-width=".125" stroke="#000" fill="none"><path d="M361.854 363.057l6.718 30.298"/></g><g stroke-width=".125" stroke="#000" fill="none"><path d="M368.33 392.277h8.4"/></g><g stroke-width=".125" stroke="#000" fill="none"><path d="M375.646 389.113h-7.92"/></g><g stroke-width=".125" stroke="#000" fill="none"><path d="M374.757 386.64h-7.643"/></g><g stroke-width=".125" stroke="#000" fill="none"><path d="M373.867 384.168h-7.292"/></g><g stroke-width=".125" stroke="#000" fill="none"><path d="M372.878 381.5h-6.94"/></g><g stroke-width=".125" stroke="#000" fill="none"><path d="M365.463 379.126h6.584"/></g><g stroke-width=".125" stroke="#000" fill="none"><path d="M364.968 376.95h6.25"/></g><g stroke-width=".125" stroke="#000" fill="none"><path d="M364.424 374.577h5.943"/></g><g stroke-width=".125" stroke="#000" fill="none"><path d="M363.98 372.45h5.606"/></g><g stroke-width=".125" stroke="#000" fill="none"><path d="M363.485 370.276h5.33"/></g><g stroke-width=".125" stroke="#000" fill="none"><path d="M363.04 368.248h5.043"/></g><g stroke-width=".125" stroke="#000" fill="none"><path d="M362.546 366.37h4.9"/></g><g stroke-width=".125" stroke="#000" fill="none"><path d="M362.25 364.788h4.562"/></g><g stroke-width=".125" stroke="#000" fill="none"><path d="M353.993 364.837l-5.97 24.384"/></g><g stroke-width=".125" stroke="#000" fill="none"><path d="M355.724 364.392l-5.127 25.76"/></g><g stroke-width=".125" stroke="#000" fill="none"><path d="M357.108 363.453l-4.148 27.435"/></g><g stroke-width=".125" stroke="#000" fill="none"><path d="M358.888 362.91l-3.01 28.69"/></g><g stroke-width=".125" stroke="#000" fill="none"><path d="M359.48 389.953h-9.506"/></g><g stroke-width=".125" stroke="#000" fill="none"><path d="M359.48 387.333h-11"/></g><g stroke-width=".125" stroke="#000" fill="none"><path d="M359.48 384.613h-10.356"/></g><g stroke-width=".125" stroke="#000" fill="none"><path d="M359.48 382.043h-9.713"/></g><g stroke-width=".125" stroke="#000" fill="none"><path d="M359.48 379.422h-9.085"/></g><g stroke-width=".125" stroke="#000" fill="none"><path d="M359.48 376.505h-8.364"/></g><g stroke-width=".125" stroke="#000" fill="none"><path d="M359.48 373.984h-7.756"/></g><g stroke-width=".125" stroke="#000" fill="none"><path d="M359.48 371.413h-7.098"/></g><g stroke-width=".125" stroke="#000" fill="none"><path d="M359.48 368.94h-6.505"/></g><g stroke-width=".125" stroke="#000" fill="none"><path d="M359.48 366.765h-5.99"/></g><g stroke-width=".125" stroke="#000" fill="none"><path d="M359.48 365.035h-5.54"/></g><g stroke-width=".125" stroke="#000" fill="none"><path d="M359.48 392.227v-29.07"/></g><g stroke-width=".125" stroke="#000" fill="none"><path d="M391.466 353.565l-19.918 39.948"/></g><g stroke-width=".125" stroke="#000" fill="none"><path d="M392.702 352.922l-16.957 40.808"/></g><g stroke-width=".125" stroke="#000" fill="none"><path d="M393.938 352.477l-13.452 41.446"/></g><g stroke-width=".125" stroke="#000" fill="none"><path d="M394.778 353.218l-10.46 40.73"/></g><g stroke-width=".125" stroke="#000" fill="none"><path d="M384.792 392.08h-12.527"/></g><g stroke-width=".125" stroke="#000" fill="none"><path d="M385.78 388.42h-11.66"/></g><g stroke-width=".125" stroke="#000" fill="none"><path d="M386.325 385.454h-10.728"/></g><g stroke-width=".125" stroke="#000" fill="none"><path d="M387.363 382.24h-10.15"/></g><g stroke-width=".125" stroke="#000" fill="none"><path d="M387.857 379.67h-9.378"/></g><g stroke-width=".125" stroke="#000" fill="none"><path d="M388.747 376.703h-8.834"/></g><g stroke-width=".125" stroke="#000" fill="none"><path d="M389.637 373.242h-8"/></g><g stroke-width=".125" stroke="#000" fill="none"><path d="M390.33 370.622h-7.357"/></g><g stroke-width=".125" stroke="#000" fill="none"><path d="M391.07 367.606h-6.664"/></g><g stroke-width=".125" stroke="#000" fill="none"><path d="M391.614 365.58h-6.164"/></g><g stroke-width=".125" stroke="#000" fill="none"><path d="M392.11 363.65h-5.652"/></g><g stroke-width=".125" stroke="#000" fill="none"><path d="M392.603 361.673h-5.206"/></g><g stroke-width=".125" stroke="#000" fill="none"><path d="M393.048 359.942h-4.786"/></g><g stroke-width=".125" stroke="#000" fill="none"><path d="M393.493 358.212h-4.385"/></g><g stroke-width=".125" stroke="#000" fill="none"><path d="M393.987 356.432h-3.955"/></g><g stroke-width=".125" stroke="#000" fill="none"><path d="M394.383 354.8h-3.565"/></g><g stroke-width=".125" stroke="#000" fill="none"><path d="M407.335 354.207l8.715 27.588"/></g><g stroke-width=".125" stroke="#000" fill="none"><path d="M409.016 354.8l10.574 26.476"/></g><g stroke-width=".125" stroke="#000" fill="none"><path d="M410.5 354.85l12.383 25.892"/></g><g stroke-width=".125" stroke="#000" fill="none"><path d="M425.873 378.532l-13.66-24.167"/></g><g stroke-width=".125" stroke="#000" fill="none"><path d="M425.873 378.483h-10.836"/></g><g stroke-width=".125" stroke="#000" fill="none"><path d="M423.995 375.22h-9.98"/></g><g stroke-width=".125" stroke="#000" fill="none"><path d="M422.166 371.957h-9.15"/></g><g stroke-width=".125" stroke="#000" fill="none"><path d="M420.287 368.644h-8.345"/></g><g stroke-width=".125" stroke="#000" fill="none"><path d="M418.458 365.38h-7.56"/></g><g stroke-width=".125" stroke="#000" fill="none"><path d="M416.58 362.118h-6.724"/></g><g stroke-width=".125" stroke="#000" fill="none"><path d="M414.75 358.855h-5.902"/></g><g stroke-width=".125" stroke="#000" fill="none"><path d="M412.872 355.542h-5.102"/></g><g stroke-width=".125" stroke="#000" fill="none"><path d="M424.044 356.333l-8.527 25.576"/></g><g stroke-width=".125" stroke="#000" fill="none"><path d="M426.615 355.196l-7.91 26.22"/></g><g stroke-width=".125" stroke="#000" fill="none"><path d="M422.363 380.806l5.804-24.68"/></g><g stroke-width=".125" stroke="#000" fill="none"><path d="M429.68 356.976l-4.884 23.484"/></g><g stroke-width=".125" stroke="#000" fill="none"><path d="M416.53 378.977h8.557"/></g><g stroke-width=".125" stroke="#000" fill="none"><path d="M417.618 375.764h8.157"/></g><g stroke-width=".125" stroke="#000" fill="none"><path d="M418.656 372.6h7.77"/></g><g stroke-width=".125" stroke="#000" fill="none"><path d="M419.694 369.435h7.37"/></g><g stroke-width=".125" stroke="#000" fill="none"><path d="M420.78 366.22h6.972"/></g><g stroke-width=".125" stroke="#000" fill="none"><path d="M421.87 363.057h6.57"/></g><g stroke-width=".125" stroke="#000" fill="none"><path d="M422.907 359.893h6.17"/></g><g stroke-width=".125" stroke="#000" fill="none"><path d="M423.945 356.68h5.077"/></g><g stroke-width=".125" stroke="#000" fill="none"><path d="M433.585 357.223l4.183 17.537"/></g><g stroke-width=".125" stroke="#000" fill="none"><path d="M435.118 356.383l5.78 18.278"/></g><g stroke-width=".125" stroke="#000" fill="none"><path d="M437.095 356.333l6.303 18.303"/></g><g stroke-width=".125" stroke="#000" fill="none"><path d="M439.666 357.322l6.313 17.19"/></g><g stroke-width=".125" stroke="#000" fill="none"><path d="M445.4 372.995h-8.097"/></g><g stroke-width=".125" stroke="#000" fill="none"><path d="M444.46 370.424h-7.69"/></g><g stroke-width=".125" stroke="#000" fill="none"><path d="M443.522 367.853h-7.37"/></g><g stroke-width=".125" stroke="#000" fill="none"><path d="M442.583 365.282h-7.07"/></g><g stroke-width=".125" stroke="#000" fill="none"><path d="M441.594 362.71h-6.713"/></g><g stroke-width=".125" stroke="#000" fill="none"><path d="M440.655 360.14h-6.348"/></g><g stroke-width=".125" stroke="#000" fill="none"><path d="M439.715 357.57h-6.02"/></g><g fill="#00b800"><path d="M357.948 402.956c3.985-2.566 10.792-2.052 14.263.514 4.114-2.31 11.564-1.67 15.034 1.414 5.265-3.594 9.764-4.108 14.9-.642 3.985-2.824 10.15-3.08 14.905.257 4.62-2.187 9.763-3.98 14.256.77-2.694-1.928-8.478-3.6-14.257.9-4.5-4.5-12.335-2.828-14.906.257-3.342-3.985-10.406-4.628-14.648.257-4.622-3.856-11.558-3.985-15.285-1.028-2.956-2.314-7.32-4.238-14.262-2.7z"/></g><g fill="#cf6200"><path d="M428.147 397.468c-20.427 3.53-64.944 1.028-74.707-1.414-3.357-.84-2.442-2.057.385-1.414 11.252 2.556 35.263 2.57 48.497 1.928 2.57-3.406 6.615-9.186 7.836-10.793s1.76-1.755 4.306-2.185c4.558-.77 7.163-1.187 11.113-1.864.064.514.064 1.157.064 1.543-.32.256-.642.706-.9.834 0 2.635.515 9.058 1.03 11.372.514-.065 1.156-.257 1.478-.322.9-.257 1.794 2.057.9 2.314z"/></g><g fill="#cf6200"><path d="M461.616 398.457c.736-.02 2.274-.054 2.7-.064.834-.02 2.006-.594 2.52-1.88s2.106-6.036 2.684-8.028l-2.056-3.1c.45-2.556 1.028-6.022 1.092-6.73 1.03-.385 2.116-.77 2.63-.963.13-.58-.123-2.15-.642-2.665-8.8.336-35.134 1.25-39.954 1.315-1.157 0-1.676-.05-2.116 1.607-2.442 9.12.934 21.92 10.15 29.293.642.514 1.452.084.38-.9-1.538-1.414-3.916-4.307-5.522-7.164 1.8-.03 5.447-.09 6.54-.135.524 2.16 2.165 6.72 2.487 7.49s1.11.88.735-.27c-.885-2.7-1.35-5.776-1.735-7.254 1.67-.04 4.82-.01 6.748-.118.094 2.442.35 5.715.415 6.615s.836.964.85-.064c.02-1.028.04-5.374.025-6.655 2.175-.06 4.954-.153 5.982-.153-.143 1.39-.41 5.883-.51 6.595-.147 1.05.4 1.543.658.065s.772-4.935.915-6.685c.87-.025 3.16-.118 4.123-.143-.094 1.37-1.38 5.532-1.765 6.625s.238 1.127.673.094c.455-1.058 1.864-5.236 1.993-6.73z"/></g><g><path d="M432.448 397.42c-.707-1.415-2.892-6.443-3.084-10.102 1.863-.035 6.525-.124 8.774-.173.332 2.76 1.182 8.7 1.632 10.11-2.63.065-5.843.15-7.322.164z"/></g><g><path d="M439.666 387.086c.242 2.106 1.345 9.34 1.523 10.174 1.907-.113 6.326-.128 7.093-.192-.08-1.93-.39-9.162-.425-10.19-1.998.054-7.188.183-8.192.208z"/></g><g><path d="M429.73 378.137c-.357 1.85-.42 5.8-.322 7.485 2.25.045 7.786-.09 8.552-.153-.187-1.92-.49-5.39-.682-7.556-1.834.08-6.328.188-7.55.223z"/></g><g><path d="M438.924 377.89c.065 1.8.465 6.2.594 7.544 1.943-.054 6.698-.153 8.305-.207-.084-1.647-.346-6.952-.376-7.595-2.58.07-6.886.233-8.523.257z"/></g><g><path d="M449.108 377.593c.08 1.67.292 6.388.228 7.61 2.06-.056 6-.095 7.222-.194.094-1.677.366-6.468.238-7.69-2.314.09-6.002.214-7.688.273z"/></g><g><path d="M458.205 377.247c0 1.414-.178 6.383-.243 7.732 2.042-.08 6.68-.243 7.885-.273.322-1.656.964-5.957 1.157-7.772-1.928.065-7.39.272-8.8.312z"/></g><g><path d="M466.164 386.393c-2.635.084-6.872.198-8.306.252-.222 3.254-.627 8.875-.82 10.16 2.318-.05 7.005-.197 8.033-.227.772-1.542 2.443-6.358 2.83-7.836-.58-.9-1.03-1.414-1.736-2.35z"/></g><g><path d="M449.405 386.838c0 1.157.203 9.44.252 10.146 1.508-.05 5.423-.104 6.002-.17.29-3.222.73-9.397.81-10.17-2.67.076-5.29.155-7.065.194z"/></g><g><path d="M415.294 384.86l-3.347.594c-1.542 2.492-7.257 10.2-7.964 11.1 3.98-.114 10.204-.233 11.702-.376-.11-2.067-.386-10.294-.39-11.317z"/></g><g><path d="M416.777 384.564c.08 2.635.33 9.656.396 11.52 1.972-.114 5.606-.35 7.084-.48-.34-3.312-.964-11.223-1.093-12.187-1.656.302-4.91.875-6.387 1.147z"/></g><g stroke-width=".125" stroke="#000"><path d="M382.27 356.828c.45.005.51.39-.004.385l-37.957-.47c-.515-.004-.446-.39.004-.385l37.957.47z"/></g><g stroke-width=".125" stroke="#000"><path d="M412.13 326.42c.45.016.504.402-.01.387l-30.072-.826c-.514-.013-.44-.4.01-.384l30.072.825z"/></g><g stroke-width=".125" stroke="#000"><path d="M380.392 335.123c.45.005.51.39-.005.386l-33.656-.25c-.513 0-.444-.384 0-.384l33.662.247z"/></g><g stroke-width=".125" stroke="#000"><path d="M381.38 313.27c.45 0 .515.386 0 .386l-35.202-.183c-.515 0-.445-.386.005-.38l35.198.177z"/></g><g stroke-width=".125" stroke="#000"><path d="M378.96 296.015c.448.005.503.396-.006.386l-34.205-.513c-.515-.01-.446-.396.004-.386l34.205.515z"/></g><g stroke-width=".125" stroke="#000"><path fill="#fff" d="M414.355 285.93c.45-.006.52.38.005.385l-29.355.282c-.514.005-.455-.38-.005-.386l29.355-.28z"/></g><g stroke-width=".125" stroke="#000"><path d="M416.184 302.344c.45 0 .514.385 0 .385h-32.44c-.514 0-.45-.386 0-.386h32.44z"/></g><g stroke-width=".125" stroke="#000"><path d="M448.02 325.73c.45 0 .515.385 0 .385h-34.96c-.515 0-.45-.386 0-.386h34.96z"/></g><g stroke-width=".125" stroke="#000"><path d="M448.515 296.51c.45.005.51.39-.005.385l-35.717-.35c-.515-.006-.445-.39.005-.386l35.717.35z"/></g><g stroke-width=".125" stroke="#000"><path d="M415.492 347.88c.45.004.51.39-.005.384l-31.422-.207c-.514-.005-.445-.39.005-.386l31.422.21z"/></g><g stroke-width=".125" stroke="#000"><path d="M446.192 352.13c.45.006.51.39-.005.386l-27.62-.366c-.514-.004-.44-.39.01-.385l27.615.366z"/></g><g stroke-width=".125" stroke="#000" fill="#ef072d"><path d="M471.107 357.42c.776-1.725.885-5.69.44-7.193-1.196.243-2.21.188-3.198-.198-.52-.198-1.09-.376-1.687-.525-.11 1.988-.83 7.05-1.72 9.01-1.553.44-4.682-.076-6.462-.634l-1.294 4.658c2.21.51 4.983.465 7.178-.044-.173 2.97-.563 5.675-2.17 7.544 2.625.06 4.973-.326 5.833-1.246.08-.09.17-.163.262-.237 1.21-2.027 1.245-4.667 1.537-6.447.895.064 2.052-.193 2.566-.707s1.35-.77 2.185-.706c.76.06 1.948-.1 3.455-.707.04-.91.218-1.9.53-2.76.167-.47.35-1.25.504-2.194-1.914.915-6.18 2.442-7.96 2.388z"/></g><g stroke-width=".125" stroke="#000"><path d="M348.506 190.063c-3.91.114-12.423.193-14.213 1.197-1.784 1.008-2.57 1.453.56 2.012s8.423 2.047 11.325 3.836c2.902 1.785 5.334 4.95 4.533 9.463-2.397 13.563 4.692 26.606 14.965 31.525.994.475 1.23.836 1.01 2.68s-.896 4.92-1.455 5.7c-.558.786-.835 2.072.95 1.454-1.227 2.293-3.965 6.876-4.8 8.048-8.212-1.004-14.91.114-15.53 8.716-.058.84.23 2.18 1.51.06 1.284-2.126 2.738-4.14 6.253-4.697-2.067 3.184-2.734 6.036-2.398 7.88.33 1.845.836 2.962 1.73.614.895-2.343 2.54-4.538 4.3-5.868.67-.5 1.12-.613.614.84s.222 4.584 1.23 5.647c1.004 1.057 1.508.612 1.226-1.12-.277-1.734.16-5.358 2.29-6.485 3.07-1.617 5.694-.78 6.925 1.344 1.227 2.12 2.29.108.95-2.295s-2.738-4.078-4.973-4.247c1.958-3.465 4.247-7.658 4.75-8.494.5-.84 1.286-1.23 1.954-.726.673.504 1.118.445 1.79-.95.668-1.4 1.84-5.532 3.515-7.208.84-.227 2.18-.56 2.68-1.01 2.18 3.185 4.132 6.71 4.637 7.492.5.78 1.063 1.117.558 2.74s-2.234 6.762-2.51 7.88c-6.092.222-8.88.33-10.837 3.742-.856 1.488.504 2.067 1.957 1.286 1.45-.78 3.515-1.454 4.578-1.286 1.058.168 1.557.712.5 1.23-3.738 1.845-6.076 4.19-5.918 7.432.054 1.172.54 1.755 1.453.168 1.286-2.234 3.63-4.47 6.476-5.087-.17 2.74.45 6.763 2.12 7.604 1.676.837 1.795-.014 1.172-1.62-1.004-2.572.04-5.157 1.285-6.542 2.625-2.907 8.602 1.118 9.72 2.126 1.116 1.004 2.135 1.424 1.507-1.176-.84-3.46-5.754-5.474-9.942-6.032 1.172-5.646 4.3-17.048 5.977-20.958 2.456 1.34 4.374-2.195 8.487-.673 6.92 2.57 17.308 9.053 19.098 10.506 1.784 1.455 2.457 1.12 3.35.338.89-.78 2.458 0 3.684.222 1.23.223 2.347.56.78-2.57-1.562-3.13-5.358-8.608-11.726-12.855 3.797.336 8.938.336 8.938-.668 0-1.008-5.922-2.907-8.38-3.13 2.35-.558 5.923-1.903 7.594-3.8.994-1.124-.198-1.386-3.683-1.455-10.723-.223-16.08-.138-21.668-3.352-8.933-5.142-14.044-10.556-18.43-12.855-2.343-1.23-3.77-4.07-4.676-6.52-2.903-7.828-2.76-11.348-9.572-13.92s-14.648.58-18.222 3.818z"/></g><g stroke-width=".125" stroke="#000" fill="#fff"><path d="M348.95 191.843c-1.734-.064-5.14-.475-7.963-.193-.643.064-1.414.386.128.58s5.715 1.215 7.193 1.73.836 1.285-.45.963-1.76.153-.706.9c5.462 3.856 6.04 5.335 4.627 18.565 1.027.707 1.862 1.22 2.762 1.67s.643 1.094-.32.837-1.865.32-.322.642 2.244 1.03.77.965c-1.477-.065-3.213 1.22-.32.9 2.886-.322 4.043 1.028.642 1.092-3.406.064-2.12 1.157-.32 1.157 3.207 0 2.243.9 1.413.9-.836 0-1.22 1.093.9.9 2.115-.192 2.95-.256 3.722-.128s1.092.766-.064.836c-1.157.06-1.093.895.642.895s2.457.524.9.835c-.643.13-1.533.45.32.707 3.215.45 3.343 1.22 2.315 1.35s-1.157.707.32.835c1.474.13 2.76.58 1.544.9-1.22.322-1.864 1.03-.327 1.157 1.543.13 2.828.707 1.67 1.093s-1.413 1.092.066 1.028 2.056.77 1.028 1.345c-1.027.578-1.734.964-2.377-.06-.638-1.028-1.023-1.35-1.216-.578-.193.766-.643.257-1.157-.9s-1.414-1.478-1.157-.578-.9 1.028-1.992.578c4.05 4.11 10.022 7.837 19.528 3.98.81-.326.964 0 1.607 1.35s2.442 4.306 3.085 5.4 1.152.108 1.473-.965c1.285-4.242 2.25-7.392 2.635-8.543.385-1.157 2.185-2.314 1.606 1.73 1.414-.964 7.678-1.874 12.528-.064 5.33 1.992 10.688 5.082 13.426 7.134.515.386 1.157.836 2.438.707 1.285-.13 1.606-.32-.836-2.57-2.437-2.25-1.41-3.343.13-2.25 1.54 1.092 2.377.45 1.22-.9s-3.916-3.98-4.815-4.623-1.03-.9-3.085-1.027-6.422-.13-7.707-.13-1.67.13 1.157 1.158c2.822 1.024 8.606 4.752 9.892 5.652s2.185 2.957-.643 1.157-11.693-7.323-17.6-9.38c-13.49.9-24.155 2.7-32.12-6.037-3.815-4.182-3.983-13.75 2.438-17.734-1.285-1.094-1.092-1.737-.578-1.994s.707-.514.193-1.157c-.51-.643-.45-1.217 0-1.474-1.41-.77-2.052-1.67-1.987-2.635-1.736-.385-2.507-2.442-4.82-1.8s-3.47.13-4.173-.45c-.712-.577-1.285-.834-2.57-.706s-2.314-.385-2.378-1.028 1.087-.954 2.827-.193c3.66 1.607 6.615 2.378 8.864-.643 2.25-3.016-.642-5.844-4.948-6.68-4.3-.835-7.45 2.315-9.057 3.793z"/></g><g stroke-width=".125" stroke="#000" fill="#fff"><path d="M370.555 190.706c-1.296-1.404-3.6-2.7-4.75-3.085-1.158-.385-1.287.772-.644 1.35-.513.772-.706 2.636.194 3.15s.91 1.246.064 1.666c-1.285.643-.85 4.054 1.088 3.085.642-.32 1.157-.192 1.028.323s.13 1.156.707 1.285.515.964.387 1.285.064.45.706.515.707 1.606-.45 2.12c1.414 0 1.8-.256 2.186.9.384 1.152 1.927 1.41 1.927 2.824s-.257 1.67-1.928 1.414-2.315.257-2.83.9-.642 1.285.644 1.35 1.542.642.257 1.22-3.4.193-3.722 1.414c-.32 1.217 0 1.795.96 1.345.963-.445 2.955-1.28 3.727-1.73s1.478-.514 2.12.514.13 2.18-.964 1.284c-1.09-.9-1.605-.07-2.248.445s-1.607.835-2.635.835c-1.023 0-1.73.133-1.602 2.442.386 6.942 5.78 12.08 15.672 11.95s14.776-.257 16.254-.064c-3.276-1.8-5.333-2.764-6.49-2.635s-2.12.32-1.606-.58-.065-.9-.58-1.284-1.15-.9-2.18.193-3.47 2.313-4.69 2.57-2.7.193-1.543-.964 3.73-1.542 4.5-2.056.77-.83.77-1.217-.192-1.478 1.286-.642c2.952 1.67 7.58 4.172 8.8 4.108s2.057-.578.964-1.285-1.414-1.73-1.093-2.115.515-.772 2.443.32c1.923 1.09 5.072 2.503 6.23 3.017s2.698.32.32-1.414c-2.378-1.73-9.764-6.615-11.82-8.158s-1.157.322-.964.9-1.414 1.285-2.25.578-1.413-1.478-.257-2.12 1.413-.708-.322-2.25c-1.73-1.538-2.244-1.41-1.86-.13.387 1.287.515 2.7-1.284 1.994s-2.7-1.543-1.543-2.25c1.158-.702 2.636-1.087.708-2.694s-1.35 0-1.8.9-1.927.9-2.763.192-1.22-1.414-.642-1.992.514-.9 1.35-.45 2.12.193.578-1.157-2.12-.77-1.8 0-.898 2.122-2.82.322c-.916-.85-.9-1.992.063-2.185.96-.193 1.053-.692.38-1.67-3.915-5.716-2.308-10.344-6.228-14.58z"/></g><g fill="#cf6200"><path d="M371.197 191.497c-.336.504-.46.484-1.082.9-.767.51-.94 1.967.346 1.794.89-.117 1.41-.646 1.76-1.076-.28-.544-.617-1.083-1.023-1.617z"/></g><g fill="#cf6200"><path d="M367.193 188.283c-.99.96-1.162 1.39-.658 1.39.6 0 .34.084-.09.77-.424.688.862 1.03 1.376.515s.6-.687.856 0c.208.56 1.053.03 1.587-.51-.875-.845-2.052-1.626-3.07-2.165z"/></g><g fill="#cf6200"><path d="M365.413 193.82c-1.285.643-.85 4.055 1.088 3.086.643-.322 1.158-.193 1.03.32-.07.273-.026.585.118.832.766-.322 1.532-.856 2.13-1.538 1.202-1.37.084-1.285-1.71-1.285-1.8 0-2.314-.34-.603-1.37 1.532-.92.534-1.557-1.587-1.26.306.434.153.91-.465 1.216z"/></g><g fill="#cf6200"><path d="M372.78 201.385c-.945-1.028-.347-1.542.68-2.057.253-.123.426-.28.55-.47-.292-1.132-.524-2.22-.83-3.277-.54.154-1.167 1.355-1.345 1.95-.257.854-.514 1.368-1.37 1.11-.76-.226-1.522.63-1.68 1.544.118.05.3.084.543.108.356.035.534.52.426 1.034 2.318-.074 2.714 1.528 3.11 2.625.43 1.203.943 1.03 1.285.347.34-.687-.432-1.884-1.37-2.912z"/></g><g fill="#ff0"><path d="M373.422 214.833c-.42.95-.43.855-1.8.94-1.37.088-3.094.32-3.85 1.117-.41.425-2.78.54-2.784 1.582-.01 1.048 0 1.928 1.028 1.992 1.024.065 1.152.193.77.964-.39.772-.64 2.057 1.153 2.186 1.8.128 3.084-.45 3.534.573.45 1.03-.035 2.67.32 3.278s1.573 1 3.457 1.582c1.257.39 5.998.613 7.456.445 1.453-.173.91-1.043-.55-1.17-1.452-.13-2.525-.343-2.866-1.41-.34-1.073-.643-1.632.173-2.527.81-.9 1.626-1.587 1.157-3.085-.475-1.498-1.246-3.258-2.957-3.728-1.715-.47-1.17-2.813-2.872-3.04-.64-.085-1.195-.085-1.368.3z"/></g><g fill="#cf6200"><path d="M365.117 228.775c1.473.13 2.758.58 1.542.9-1.222.322-1.865 1.03-.327 1.157 1.542.13 2.827.707 1.67 1.093s-1.413 1.092.065 1.028 2.056.77 1.028 1.345c-1.028.578-1.735.964-2.378-.06-.637-1.028-1.023-1.35-1.216-.578-.193.767-.643.257-1.157-.9s-1.414-1.478-1.156-.578-.9 1.028-1.994.578c1.078 1.093 2.29 2.156 3.668 3.056 1.577-.54 3.318-.1 3.91-.04.643.065 2.636.514 3.728 1.093s1.8-.45 1.35-1.608c-.45-1.152-.514-.766-1.093-.128-.58.642-.708-.258-.643-1.602.054-1.137-.707-.836-.964-.13s-.836-.45-.514-1.156-.066-.964-.644-.77-.643 0-.707-1.287-.644-1.093-.837-.58-.706-.192-1.478-1.22c-.672-.9-1.448-.37-2.793.163.168.1.475.183.935.222z"/></g><g fill="#ff0"><path d="M380.738 236.735c-7.02 2.848-12.082 1.583-15.893-.944 1.577-.538 3.35-.078 3.945-.02.642.066 2.635.516 3.727 1.094s1.8-.45 1.35-1.607c.964 1.22 1.67 2.057 2.823 1.993 1.156-.065 3.084-.257 4.048-.515z"/></g><g fill="#ff0"><path d="M365.76 204.4c-.43-1.453-.856-1.8-1.627-1.71-.77.084-1.113-.09-1.973-.43-.855-.34-1.967.084-2.14 1.627s-1.113 2.314-2.398 3.253c-1.285.944-2.056 1.716-2.056 3.258s-.342 1.968-1.197 3.085c-.38.495-.92 1.058-1.425 1.652.554.346 1.073.647 1.617.914.9.45.643 1.092-.32.835s-1.865.32-.323.643 2.244 1.028.77.964c-1.478-.065-3.213 1.22-.32.9 2.886-.322 4.043 1.028.642 1.092-3.406.064-2.12 1.157-.322 1.157 3.21 0 2.245.9 1.414.9-.835 0-1.22 1.094.9.9.03-.004.054-.01.09-.01.306-.316.533-.71.7-1.21.342-1.03.683-4.03 1.885-4.885 1.195-.856 1.798-2.057 1.798-2.912s1.795-4.623 2.996-5.567 1.715-2.996 1.285-4.455z"/></g><g fill="#cf6200"><path d="M363.238 204.45c-1.216-.81-2.398-.34-2.398 1.202s-.77 1.968-1.8 2.482c-1.022.514-1.967 1.8-2.14 3-.168 1.197.173 1.97-.682 2.913-.86.94-.944 1.71-.34 2.225.597.514.597.603.854 1.37.257.77 1.71-.085 1.71-.94s.347-.855 1.286-1.37c.944-.514 2.487-3 2.14-3.683-.34-.688-1.196-1.286-.083-2.23 1.112-.94 2.313-1.03 2.313-1.968 0-.945.34-1.286.682-1.627.346-.346-.77-.86-1.542-1.375z"/></g><g><path d="M363.238 203.214c-.8-.31-1.28 1.37-.168 1.627s1.285-1.2.168-1.626z"/></g><g><path d="M363.04 205.39c-.85.104-1.8 1.22-.385 1.028s1.992-1.22.385-1.028z"/></g><g><path d="M361.36 207.466c-.876.44-.708 1.607.578.772s1.606-1.864-.58-.772z"/></g><g><path d="M359.975 209.246c-.88.435-.707 1.602.58.772 1.284-.836 1.605-1.864-.58-.772z"/></g><g><path d="M358.196 210.087c-.876.44-.322 1.607.964.77s1.22-1.863-.964-.77z"/></g><g><path d="M359.283 211.174c-.875.44-.32 1.607.964.772s1.22-1.864-.964-.772z"/></g><g><path d="M357.75 211.62c-.874.44-.32 1.606.965.77s1.22-1.863-.964-.77z"/></g><g><path d="M358.74 212.855c-.88.44-.322 1.607.958.772 1.286-.836 1.22-1.864-.96-.772z"/></g><g><path d="M357.256 213.597c-.875.435-.32 1.602.964.766s1.22-1.86-.964-.766z"/></g><g><path d="M357.355 214.734c-.875.44-.32 1.607.964.77s1.22-1.862-.965-.77z"/></g><g fill="#cf6200"><path d="M356.663 225.562c-.885.113-1.453 1.374-.34 1.63s1.368.342 1.368 1.198.347 2.057 1.544 2.14c1.2.09 2.23-1.285 1.2-1.71-1.027-.43-1.972-.77-2.056-1.716-.084-.94-1.028-1.626-1.715-1.542z"/></g><g fill="#ff0"><path d="M388.203 218.195c.158.198.356.415.584.608.835.707 2.442 0 2.25-.578s-1.094-2.443.963-.9 9.442 6.427 11.82 8.158c2.378 1.735.835 1.928-.32 1.414s-4.307-1.93-6.23-3.016c-1.928-1.092-2.12-.706-2.442-.32-.272.32-.055 1.097.652 1.755-1.147.168-3.01-.084-3.544-1.306-.643-1.48-2.185-3.28-3.278-4.693-.405-.524-.524-.85-.455-1.122z"/></g><g fill="#00d860"><path d="M451.926 428.665c-1.602 1.093-3.722 3.02-2.313 5.716.168-.088.326-.192.49-.286 6.282-7.604 11.66-15.6 16.268-23.905.056-.287.105-.56.14-.797-1.8 1.543-4.627 3.08-5.784 3.466.77 2.056-2.823 4.755-4.75 5.527.77 1.285.513 3.213-1.158 3.6.386 1.15-.9 1.15-2.442 1.794s-2.314 1.158-2.823 1.93c.83-.45 1.988-.837 2.63-.644s.77 1.157-.385 1.414-1.923.9-2.314 1.414c1.67-.643 4.05-.32 2.442.77z"/></g><g stroke-width=".125" stroke="#000"><path d="M375.745 215.822c-1.898-1.656-2.378-.643-1.606.386s.19 1.542-1.48 1.8-4.177.578-5.205.578-2.245 1.414.193 1.285c2.442-.127 6.555-.963 7.647-1.413s1.988-1.285.45-2.635z"/></g><g stroke-width=".125" stroke="#000"><path d="M379.453 218.74c-1.567-1.41-2.12-1.03-1.735 0s-.322 1.22-1.345 1.54c-1.028.323-5.077 1.673-6.812 1.865s-2.12 1.414.45 1.35 7.515-2.12 8.093-2.507.772-1.156 1.414-.77 1.22-.322-.064-1.48z"/></g><g stroke-width=".125" stroke="#000"><path d="M380.64 222.843c-1.138.677-3.98 1.923-5.137 2.244s-2.12 1.607.32 1.414c2.44-.192 5.33-2.44 6.102-2.886.77-.45 1.157-.77 1.8-.707s1.8-.836-.322-1.993-3.406-.578-2.378.322.257 1.22-.386 1.607z"/></g><g><path d="M360.618 190.508c-3.14-2.062-6.723 2.26-3.253 4.628 3.04 2.076 6.254-2.655 3.253-4.628z"/></g><g fill="#fff"><path d="M356.712 192.387l.93.064c-.193.96.77 2.41 2.25 2.053-1.187.9-3.5-.13-3.18-2.116z"/></g><g fill="#fff"><path d="M368.874 239.207c.95.277 4.246.614 5.363.668-.558 1.177-1.062 1.958-1.4 2.798-.335.836-.498.895-.557-.39-.055-1.29-.78-2.126-1.45-.786-.67 1.344-1.007 1.844-1.338 2.402-.337.558-.84.786-.673-.614s.113-2.852.054-4.08z"/></g><g stroke="#000" stroke-width=".25" fill="none"><path d="M492.91 276.93c-.23 80.748-12.968 167.74-117.48 209.176C270.91 444.67 258.17 357.678 257.943 276.93H492.91z"/></g><g stroke="#000" stroke-width=".25" fill="none"><path d="M492.91 276.93c.088-30.415-1.603-59.946-.832-85.824-39.054-17.477-90.443-21.07-116.65-21.07-26.21 0-77.6 3.593-116.653 21.07.77 25.878-.915 55.41-.83 85.825h234.964z"/></g></g></g></svg>