<svg xmlns="http://www.w3.org/2000/svg" height="512" width="512"><defs><clipPath id="a"><path fill-opacity=".67" d="M177.12.193h708.47v708.47H177.12z"/></clipPath></defs><g><path style="width:0" fill="#fff" d="M0 0h512v512H0z"/><g fill-rule="evenodd" clip-path="url(#a)" transform="matrix(.723 0 0 .723 -128 -.14)"><path stroke-width="1pt" fill="#090" d="M0 567.12h1062.9v141.54H0z"/><path stroke-width="1pt" fill="#090" d="M0 .193h1062.8v141.69H0z"/><path stroke-width="1pt" fill="#f00" d="M0 212.45h1062.9v282.93H0z"/><path d="M266.19 534.45l-10.408-7.432-10.357 7.505 3.852-12.196-10.338-7.53 12.79-.106 3.966-12.158 4.052 12.13 12.79.017-10.285 7.6 3.937 12.17z" transform="matrix(8.829 0 0 8.182 -1739.2 -3887)" stroke-width=".113" fill="#ff0"/></g></g></svg>