<svg xmlns="http://www.w3.org/2000/svg" height="512" width="512"><defs><clipPath id="a"><path fill-opacity=".67" d="M164.71 0h496.06v496.06H164.71z"/></clipPath></defs><g clip-path="url(#a)" transform="matrix(1.032 0 0 1.032 -170 0)"><path fill-rule="evenodd" stroke-width="1pt" fill="#5387f4" d="M0 329.53h825.59v166.54H0z"/><path fill-rule="evenodd" stroke-width="1pt" fill="#5387f4" d="M0 0h825.59v166.54H0z"/><path fill-rule="evenodd" stroke-width="1pt" fill="#fff" d="M0 166.54h825.59v162.99H0z"/><g><g stroke="#000" fill-rule="evenodd"><g><path d="M490.58 234.24c0 .846-.823 1.53-1.837 1.53s-1.838-.684-1.838-1.53.823-1.53 1.838-1.53 1.837.684 1.837 1.53z" transform="matrix(-.475 -.298 -.372 .582 692.289 232.048)" stroke-width=".529" fill="#f00"/><path d="M490.58 234.24c0 .846-.823 1.53-1.837 1.53s-1.838-.684-1.838-1.53.823-1.53 1.838-1.53 1.837.684 1.837 1.53z" transform="matrix(-.475 -.298 -.372 .582 695.899 234.882)" stroke-width=".529" fill="#f00"/><path d="M259.03 105.71s400.32 70.645 414.45 395.62c14.13 324.97-188.39 367.36-259.03 419.16-70.645 51.807-113.03 113.03-146 113.03-32.968 0-80.065-14.13-80.065-14.13s9.42 51.81 75.355 47.1c65.936-4.71 127.16-113.03 164.84-131.87s277.88-98.9 259.04-428.58c-14.13-353.23-423.88-390.91-428.59-400.33z" transform="matrix(-.103 .024 .025 .11 418.701 192.87)" stroke-width="2.553" fill="#006700"/><path d="M320.26 487.2c0 59.825-11.597 108.32-25.903 108.32s-25.903-48.498-25.903-108.32c0-59.825 11.597-108.32 25.903-108.32s25.903 48.498 25.903 108.32z" transform="matrix(-.05 -.004 -.013 .05 396.733 195.482)" stroke-width="2.553" fill="#006700"/><path d="M320.26 487.2c0 59.825-11.597 108.32-25.903 108.32s-25.903-48.498-25.903-108.32c0-59.825 11.597-108.32 25.903-108.32s25.903 48.498 25.903 108.32z" transform="matrix(-.046 -.017 -.023 .047 401.737 201.173)" stroke-width="2.553" fill="#006700"/><path d="M320.26 487.2c0 59.825-11.597 108.32-25.903 108.32s-25.903-48.498-25.903-108.32c0-59.825 11.597-108.32 25.903-108.32s25.903 48.498 25.903 108.32z" transform="matrix(-.004 -.053 -.047 .014 404.321 231.603)" stroke-width="2.553" fill="#006700"/><path d="M320.26 487.2c0 59.825-11.597 108.32-25.903 108.32s-25.903-48.498-25.903-108.32c0-59.825 11.597-108.32 25.903-108.32s25.903 48.498 25.903 108.32z" transform="matrix(-.022 -.045 -.043 .03 407.212 220.02)" stroke-width="2.553" fill="#006700"/><path d="M320.26 487.2c0 59.825-11.597 108.32-25.903 108.32s-25.903-48.498-25.903-108.32c0-59.825 11.597-108.32 25.903-108.32s25.903 48.498 25.903 108.32z" transform="matrix(-.034 -.035 -.037 .039 406.013 211.688)" stroke-width="2.553" fill="#006700"/><path d="M490.58 234.24c0 .846-.823 1.53-1.837 1.53s-1.838-.684-1.838-1.53.823-1.53 1.838-1.53 1.837.684 1.837 1.53z" transform="matrix(-.534 -.173 -.216 .655 673.855 167.717)" stroke-width=".529" fill="#f00"/><path d="M490.58 234.24c0 .846-.823 1.53-1.837 1.53s-1.838-.684-1.838-1.53.823-1.53 1.838-1.53 1.837.684 1.837 1.53z" transform="matrix(-.534 -.173 -.216 .655 678.058 169.586)" stroke-width=".529" fill="#f00"/><path d="M320.26 487.2c0 59.825-11.597 108.32-25.903 108.32s-25.903-48.498-25.903-108.32c0-59.825 11.597-108.32 25.903-108.32s25.903 48.498 25.903 108.32z" transform="matrix(-.071 .017 -.001 .077 385.858 185.532)" stroke-width="2.553" fill="#006700"/><path d="M320.26 487.2c0 59.825-11.597 108.32-25.903 108.32s-25.903-48.498-25.903-108.32c0-59.825 11.597-108.32 25.903-108.32s25.903 48.498 25.903 108.32z" transform="matrix(-.069 -.004 -.016 .079 394.636 191.394)" stroke-width="2.553" fill="#006700"/><path d="M320.26 487.2c0 59.825-11.597 108.32-25.903 108.32s-25.903-48.498-25.903-108.32c0-59.825 11.597-108.32 25.903-108.32s25.903 48.498 25.903 108.32z" transform="matrix(-.024 -.073 -.061 .042 408.081 233.792)" stroke-width="2.553" fill="#006700"/><path d="M320.26 487.2c0 59.825-11.597 108.32-25.903 108.32s-25.903-48.498-25.903-108.32c0-59.825 11.597-108.32 25.903-108.32s25.903 48.498 25.903 108.32z" transform="matrix(-.045 -.054 -.05 .062 408.335 215.88)" stroke-width="2.553" fill="#006700"/><path d="M320.26 487.2c0 59.825-11.597 108.32-25.903 108.32s-25.903-48.498-25.903-108.32c0-59.825 11.597-108.32 25.903-108.32s25.903 48.498 25.903 108.32z" transform="matrix(-.058 -.035 -.038 .072 403.969 204.49)" stroke-width="2.553" fill="#006700"/><path d="M320.26 487.2c0 59.825-11.597 108.32-25.903 108.32s-25.903-48.498-25.903-108.32c0-59.825 11.597-108.32 25.903-108.32s25.903 48.498 25.903 108.32z" transform="matrix(-.067 .031 .013 .076 371.26 198.28)" stroke-width="2.553" fill="#006700"/><path d="M320.26 487.2c0 59.825-11.597 108.32-25.903 108.32s-25.903-48.498-25.903-108.32c0-59.825 11.597-108.32 25.903-108.32s25.903 48.498 25.903 108.32z" transform="matrix(-.068 .01 -.002 .081 380.877 202.353)" stroke-width="2.553" fill="#006700"/><path d="M320.26 487.2c0 59.825-11.597 108.32-25.903 108.32s-25.903-48.498-25.903-108.32c0-59.825 11.597-108.32 25.903-108.32s25.903 48.498 25.903 108.32z" transform="matrix(-.036 -.068 -.052 .053 401.504 241.59)" stroke-width="2.553" fill="#006700"/><path d="M320.26 487.2c0 59.825-11.597 108.32-25.903 108.32s-25.903-48.498-25.903-108.32c0-59.825 11.597-108.32 25.903-108.32s25.903 48.498 25.903 108.32z" transform="matrix(-.053 -.045 -.037 .07 398.591 223.849)" stroke-width="2.553" fill="#006700"/><path d="M320.26 487.2c0 59.825-11.597 108.32-25.903 108.32s-25.903-48.498-25.903-108.32c0-59.825 11.597-108.32 25.903-108.32s25.903 48.498 25.903 108.32z" transform="matrix(-.062 -.023 -.024 .079 392.314 213.453)" stroke-width="2.553" fill="#006700"/><path d="M320.26 487.2c0 59.825-11.597 108.32-25.903 108.32s-25.903-48.498-25.903-108.32c0-59.825 11.597-108.32 25.903-108.32s25.903 48.498 25.903 108.32z" transform="matrix(-.049 .057 .04 .065 351.449 214.047)" stroke-width="2.553" fill="#006700"/><path d="M320.26 487.2c0 59.825-11.597 108.32-25.903 108.32s-25.903-48.498-25.903-108.32c0-59.825 11.597-108.32 25.903-108.32s25.903 48.498 25.903 108.32z" transform="matrix(-.058 .038 .028 .076 361.695 213.765)" stroke-width="2.553" fill="#006700"/><path d="M363.45 260.657c-1.614 4.247-2.24 8.247-1.395 8.934s2.838-2.2 4.453-6.447c1.615-4.247 2.24-8.247 1.396-8.934s-2.838 2.2-4.453 6.447z" stroke-width=".152.553" fill="#006700"/><path d="M320.26 487.2c0 59.825-11.597 108.32-25.903 108.32s-25.903-48.498-25.903-108.32c0-59.825 11.597-108.32 25.903-108.32s25.903 48.498 25.903 108.32z" transform="matrix(-.065 -.019 -.007 .082 385.91 226.216)" stroke-width="2.553" fill="#006700"/><path d="M320.26 487.2c0 59.825-11.597 108.32-25.903 108.32s-25.903-48.498-25.903-108.32c0-59.825 11.597-108.32 25.903-108.32s25.903 48.498 25.903 108.32z" transform="matrix(-.065 .005 .007 .083 376.271 219.234)" stroke-width="2.553" fill="#006700"/><path d="M320.26 487.2c0 59.825-11.597 108.32-25.903 108.32s-25.903-48.498-25.903-108.32c0-59.825 11.597-108.32 25.903-108.32s25.903 48.498 25.903 108.32z" transform="matrix(-.035 .081 .065 .057 339.862 229.399)" stroke-width="2.553" fill="#006700"/><path d="M490.58 234.24c0 .846-.823 1.53-1.837 1.53s-1.838-.684-1.838-1.53.823-1.53 1.838-1.53 1.837.684 1.837 1.53z" transform="matrix(-.219 -.315 -.416 .224 597.45 312.073)" stroke-width=".529" fill="#f00"/><path d="M490.58 234.24c0 .846-.823 1.53-1.837 1.53s-1.838-.684-1.838-1.53.823-1.53 1.838-1.53 1.837.684 1.837 1.53z" transform="matrix(-.219 -.315 -.416 .224 598.956 314.803)" stroke-width=".529" fill="#f00"/><path d="M320.26 487.2c0 59.825-11.597 108.32-25.903 108.32s-25.903-48.498-25.903-108.32c0-59.825 11.597-108.32 25.903-108.32s25.903 48.498 25.903 108.32z" transform="matrix(-.051 .063 .056 .073 351.052 225.303)" stroke-width="2.553" fill="#006700"/><path d="M320.26 487.2c0 59.825-11.597 108.32-25.903 108.32s-25.903-48.498-25.903-108.32c0-59.825 11.597-108.32 25.903-108.32s25.903 48.498 25.903 108.32z" transform="matrix(-.08 -.031 -.007 .088 396.95 243.438)" stroke-width="2.553" fill="#006700"/><path d="M320.26 487.2c0 59.825-11.597 108.32-25.903 108.32s-25.903-48.498-25.903-108.32c0-59.825 11.597-108.32 25.903-108.32s25.903 48.498 25.903 108.32z" transform="matrix(-.078 .004 .018 .093 381.716 230.104)" stroke-width="2.553" fill="#006700"/><path d="M320.26 487.2c0 59.825-11.597 108.32-25.903 108.32s-25.903-48.498-25.903-108.32c0-59.825 11.597-108.32 25.903-108.32s25.903 48.498 25.903 108.32z" transform="matrix(-.07 .03 .035 .089 368.863 225.949)" stroke-width="2.553" fill="#006700"/><path d="M320.26 487.2c0 59.825-11.597 108.32-25.903 108.32s-25.903-48.498-25.903-108.32c0-59.825 11.597-108.32 25.903-108.32s25.903 48.498 25.903 108.32z" transform="matrix(.01 .097 .094 .016 324.612 260.882)" stroke-width="2.553" fill="#006700"/><path d="M490.58 234.24c0 .846-.823 1.53-1.837 1.53s-1.838-.684-1.838-1.53.823-1.53 1.838-1.53 1.837.684 1.837 1.53z" transform="matrix(-.339 .444 .555 .416 402.665 -25.893)" stroke-width=".529" fill="#f00"/><path d="M490.58 234.24c0 .846-.823 1.53-1.837 1.53s-1.838-.684-1.838-1.53.823-1.53 1.838-1.53 1.837.684 1.837 1.53z" transform="matrix(-.339 .444 .555 .416 405.819 -29.218)" stroke-width=".529" fill="#f00"/><path d="M320.26 487.2c0 59.825-11.597 108.32-25.903 108.32s-25.903-48.498-25.903-108.32c0-59.825 11.597-108.32 25.903-108.32s25.903 48.498 25.903 108.32z" transform="matrix(-.016 .091 .093 .036 333.218 250.375)" stroke-width="2.553" fill="#006700"/><path d="M320.26 487.2c0 59.825-11.597 108.32-25.903 108.32s-25.903-48.498-25.903-108.32c0-59.825 11.597-108.32 25.903-108.32s25.903 48.498 25.903 108.32z" transform="matrix(-.094 .018 .041 .088 387.214 240.522)" stroke-width="2.553" fill="#006700"/><path d="M320.26 487.2c0 59.825-11.597 108.32-25.903 108.32s-25.903-48.498-25.903-108.32c0-59.825 11.597-108.32 25.903-108.32s25.903 48.498 25.903 108.32z" transform="matrix(-.073 .05 .067 .077 365.38 236.834)" stroke-width="2.553" fill="#006700"/><path d="M320.26 487.2c0 59.825-11.597 108.32-25.903 108.32s-25.903-48.498-25.903-108.32c0-59.825 11.597-108.32 25.903-108.32s25.903 48.498 25.903 108.32z" transform="matrix(-.052 .07 .082 .064 350.752 240.477)" stroke-width="2.553" fill="#006700"/><g stroke-width="2.553" fill="#006700"><path d="M390.567 309.154c5.768.09 10.434-1.206 10.42-2.894s-4.697-3.13-10.465-3.22c-5.768-.09-10.433 1.205-10.42 2.894s4.698 3.13 10.465 3.22z"/><path d="M391.634 299.625c3.65 4.82 7.605 7.875 8.834 6.82s-.733-5.82-4.383-10.642c-3.65-4.82-7.605-7.874-8.835-6.82s.734 5.82 4.384 10.642z"/><path d="M390.296 304.31c5.363 2.343 10.183 2.975 10.766 1.41s-3.29-4.732-8.653-7.075-10.183-2.975-10.766-1.41 3.29 4.732 8.652 7.075z"/></g><g stroke-width="2.553" fill="#006700"><path d="M387.17 211.843c-2.66 2.434-4.26 4.708-3.578 5.08s3.39-1.297 6.05-3.73c2.658-2.434 4.26-4.71 3.577-5.08s-3.392 1.297-6.05 3.73z"/><path d="M390.31 214.63c-3.606.495-6.64 1.51-6.776 2.268s2.675.97 6.28.473c3.605-.494 6.638-1.51 6.775-2.267s-2.676-.97-6.28-.474z"/><path d="M389.224 212.833c-3.38 1.757-5.827 3.665-5.467 4.26s3.392-.345 6.77-2.102c3.38-1.757 5.83-3.664 5.47-4.26s-3.393.345-6.773 2.103z"/></g><path d="M490.58 234.24c0 .846-.823 1.53-1.837 1.53s-1.838-.684-1.838-1.53.823-1.53 1.838-1.53 1.837.684 1.837 1.53z" transform="matrix(-.562 0 0 .689 632.249 91.475)" stroke-width=".529" fill="#f00"/><path d="M490.58 234.24c0 .846-.823 1.53-1.837 1.53s-1.838-.684-1.838-1.53.823-1.53 1.838-1.53 1.837.684 1.837 1.53z" transform="matrix(-.562 0 0 .689 636.833 91.957)" stroke-width=".529" fill="#f00"/><path d="M490.58 234.24c0 .846-.823 1.53-1.837 1.53s-1.838-.684-1.838-1.53.823-1.53 1.838-1.53 1.837.684 1.837 1.53z" transform="matrix(-.486 .279 .348 .597 516.154 -4.657)" stroke-width=".529" fill="#f00"/><path d="M490.58 234.24c0 .846-.823 1.53-1.837 1.53s-1.838-.684-1.838-1.53.823-1.53 1.838-1.53 1.837.684 1.837 1.53z" transform="matrix(-.486 .279 .348 .597 520.363 -6.512)" stroke-width=".529" fill="#f00"/><path d="M490.58 234.24c0 .846-.823 1.53-1.837 1.53s-1.838-.684-1.838-1.53.823-1.53 1.838-1.53 1.837.684 1.837 1.53z" transform="matrix(-.302 -.239 -.333 .333 607.876 254.634)" stroke-width=".529" fill="#f00"/><path d="M490.58 234.24c0 .846-.823 1.53-1.837 1.53s-1.838-.684-1.838-1.53.823-1.53 1.838-1.53 1.837.684 1.837 1.53z" transform="matrix(-.302 -.239 -.333 .333 610.108 256.816)" stroke-width=".529" fill="#f00"/></g><g><path d="M490.58 234.24c0 .846-.823 1.53-1.837 1.53s-1.838-.684-1.838-1.53.823-1.53 1.838-1.53 1.837.684 1.837 1.53z" transform="matrix(.475 -.298 .372 .582 132.78 232.502)" stroke-width=".529" fill="#f00"/><path d="M490.58 234.24c0 .846-.823 1.53-1.837 1.53s-1.838-.684-1.838-1.53.823-1.53 1.838-1.53 1.837.684 1.837 1.53z" transform="matrix(.475 -.298 .372 .582 129.17 235.336)" stroke-width=".529" fill="#f00"/><path d="M259.03 105.71s400.32 70.645 414.45 395.62c14.13 324.97-188.39 367.36-259.03 419.16-70.645 51.807-113.03 113.03-146 113.03-32.968 0-80.065-14.13-80.065-14.13s9.42 51.81 75.355 47.1c65.936-4.71 127.16-113.03 164.84-131.87s277.88-98.9 259.04-428.58c-14.13-353.23-423.88-390.91-428.59-400.33z" transform="matrix(.103 .024 -.025 .11 406.368 193.324)" stroke-width="2.553" fill="#006700"/><path d="M320.26 487.2c0 59.825-11.597 108.32-25.903 108.32s-25.903-48.498-25.903-108.32c0-59.825 11.597-108.32 25.903-108.32s25.903 48.498 25.903 108.32z" transform="matrix(.05 -.004 .013 .05 428.336 195.936)" stroke-width="2.553" fill="#006700"/><path d="M320.26 487.2c0 59.825-11.597 108.32-25.903 108.32s-25.903-48.498-25.903-108.32c0-59.825 11.597-108.32 25.903-108.32s25.903 48.498 25.903 108.32z" transform="matrix(.046 -.017 .023 .047 423.332 201.627)" stroke-width="2.553" fill="#006700"/><path d="M320.26 487.2c0 59.825-11.597 108.32-25.903 108.32s-25.903-48.498-25.903-108.32c0-59.825 11.597-108.32 25.903-108.32s25.903 48.498 25.903 108.32z" transform="matrix(.004 -.053 .047 .014 420.748 232.057)" stroke-width="2.553" fill="#006700"/><path d="M320.26 487.2c0 59.825-11.597 108.32-25.903 108.32s-25.903-48.498-25.903-108.32c0-59.825 11.597-108.32 25.903-108.32s25.903 48.498 25.903 108.32z" transform="matrix(.022 -.045 .043 .03 417.857 220.474)" stroke-width="2.553" fill="#006700"/><path d="M320.26 487.2c0 59.825-11.597 108.32-25.903 108.32s-25.903-48.498-25.903-108.32c0-59.825 11.597-108.32 25.903-108.32s25.903 48.498 25.903 108.32z" transform="matrix(.034 -.035 .037 .039 419.056 212.142)" stroke-width="2.553" fill="#006700"/><path d="M490.58 234.24c0 .846-.823 1.53-1.837 1.53s-1.838-.684-1.838-1.53.823-1.53 1.838-1.53 1.837.684 1.837 1.53z" transform="matrix(.534 -.173 .216 .655 151.214 168.171)" stroke-width=".529" fill="#f00"/><path d="M490.58 234.24c0 .846-.823 1.53-1.837 1.53s-1.838-.684-1.838-1.53.823-1.53 1.838-1.53 1.837.684 1.837 1.53z" transform="matrix(.534 -.173 .216 .655 147.011 170.04)" stroke-width=".529" fill="#f00"/><path d="M320.26 487.2c0 59.825-11.597 108.32-25.903 108.32s-25.903-48.498-25.903-108.32c0-59.825 11.597-108.32 25.903-108.32s25.903 48.498 25.903 108.32z" transform="matrix(.071 .017 .001 .077 439.211 185.986)" stroke-width="2.553" fill="#006700"/><path d="M320.26 487.2c0 59.825-11.597 108.32-25.903 108.32s-25.903-48.498-25.903-108.32c0-59.825 11.597-108.32 25.903-108.32s25.903 48.498 25.903 108.32z" transform="matrix(.069 -.004 .016 .079 430.433 191.848)" stroke-width="2.553" fill="#006700"/><path d="M320.26 487.2c0 59.825-11.597 108.32-25.903 108.32s-25.903-48.498-25.903-108.32c0-59.825 11.597-108.32 25.903-108.32s25.903 48.498 25.903 108.32z" transform="matrix(.024 -.073 .061 .042 416.988 234.246)" stroke-width="2.553" fill="#006700"/><path d="M320.26 487.2c0 59.825-11.597 108.32-25.903 108.32s-25.903-48.498-25.903-108.32c0-59.825 11.597-108.32 25.903-108.32s25.903 48.498 25.903 108.32z" transform="matrix(.045 -.054 .05 .062 416.734 216.334)" stroke-width="2.553" fill="#006700"/><path d="M320.26 487.2c0 59.825-11.597 108.32-25.903 108.32s-25.903-48.498-25.903-108.32c0-59.825 11.597-108.32 25.903-108.32s25.903 48.498 25.903 108.32z" transform="matrix(.058 -.035 .038 .072 421.1 204.944)" stroke-width="2.553" fill="#006700"/><path d="M320.26 487.2c0 59.825-11.597 108.32-25.903 108.32s-25.903-48.498-25.903-108.32c0-59.825 11.597-108.32 25.903-108.32s25.903 48.498 25.903 108.32z" transform="matrix(.067 .031 -.013 .076 453.809 198.734)" stroke-width="2.553" fill="#006700"/><path d="M320.26 487.2c0 59.825-11.597 108.32-25.903 108.32s-25.903-48.498-25.903-108.32c0-59.825 11.597-108.32 25.903-108.32s25.903 48.498 25.903 108.32z" transform="matrix(.068 .01 .002 .081 444.192 202.807)" stroke-width="2.553" fill="#006700"/><path d="M320.26 487.2c0 59.825-11.597 108.32-25.903 108.32s-25.903-48.498-25.903-108.32c0-59.825 11.597-108.32 25.903-108.32s25.903 48.498 25.903 108.32z" transform="matrix(.036 -.068 .052 .053 423.565 242.044)" stroke-width="2.553" fill="#006700"/><path d="M320.26 487.2c0 59.825-11.597 108.32-25.903 108.32s-25.903-48.498-25.903-108.32c0-59.825 11.597-108.32 25.903-108.32s25.903 48.498 25.903 108.32z" transform="matrix(.053 -.045 .037 .07 426.478 224.303)" stroke-width="2.553" fill="#006700"/><path d="M320.26 487.2c0 59.825-11.597 108.32-25.903 108.32s-25.903-48.498-25.903-108.32c0-59.825 11.597-108.32 25.903-108.32s25.903 48.498 25.903 108.32z" transform="matrix(.062 -.023 .024 .079 432.755 213.907)" stroke-width="2.553" fill="#006700"/><path d="M320.26 487.2c0 59.825-11.597 108.32-25.903 108.32s-25.903-48.498-25.903-108.32c0-59.825 11.597-108.32 25.903-108.32s25.903 48.498 25.903 108.32z" transform="matrix(.049 .057 -.04 .065 473.62 214.501)" stroke-width="2.553" fill="#006700"/><path d="M320.26 487.2c0 59.825-11.597 108.32-25.903 108.32s-25.903-48.498-25.903-108.32c0-59.825 11.597-108.32 25.903-108.32s25.903 48.498 25.903 108.32z" transform="matrix(.058 .038 -.028 .076 463.374 214.219)" stroke-width="2.553" fill="#006700"/><path d="M461.823 261.11c1.615 4.248 2.24 8.248 1.396 8.935s-2.84-2.2-4.454-6.448c-1.615-4.247-2.24-8.247-1.396-8.934s2.838 2.2 4.453 6.448z" stroke-width=".152.553" fill="#006700"/><path d="M320.26 487.2c0 59.825-11.597 108.32-25.903 108.32s-25.903-48.498-25.903-108.32c0-59.825 11.597-108.32 25.903-108.32s25.903 48.498 25.903 108.32z" transform="matrix(.065 -.019 .007 .082 439.159 226.67)" stroke-width="2.553" fill="#006700"/><path d="M320.26 487.2c0 59.825-11.597 108.32-25.903 108.32s-25.903-48.498-25.903-108.32c0-59.825 11.597-108.32 25.903-108.32s25.903 48.498 25.903 108.32z" transform="matrix(.065 .005 -.007 .083 448.798 219.688)" stroke-width="2.553" fill="#006700"/><path d="M320.26 487.2c0 59.825-11.597 108.32-25.903 108.32s-25.903-48.498-25.903-108.32c0-59.825 11.597-108.32 25.903-108.32s25.903 48.498 25.903 108.32z" transform="matrix(.035 .081 -.065 .057 485.207 229.853)" stroke-width="2.553" fill="#006700"/><path d="M490.58 234.24c0 .846-.823 1.53-1.837 1.53s-1.838-.684-1.838-1.53.823-1.53 1.838-1.53 1.837.684 1.837 1.53z" transform="matrix(.219 -.315 .416 .224 227.619 312.527)" stroke-width=".529" fill="#f00"/><path d="M490.58 234.24c0 .846-.823 1.53-1.837 1.53s-1.838-.684-1.838-1.53.823-1.53 1.838-1.53 1.837.684 1.837 1.53z" transform="matrix(.219 -.315 .416 .224 226.113 315.257)" stroke-width=".529" fill="#f00"/><path d="M320.26 487.2c0 59.825-11.597 108.32-25.903 108.32s-25.903-48.498-25.903-108.32c0-59.825 11.597-108.32 25.903-108.32s25.903 48.498 25.903 108.32z" transform="matrix(.051 .063 -.056 .073 474.017 225.757)" stroke-width="2.553" fill="#006700"/><path d="M320.26 487.2c0 59.825-11.597 108.32-25.903 108.32s-25.903-48.498-25.903-108.32c0-59.825 11.597-108.32 25.903-108.32s25.903 48.498 25.903 108.32z" transform="matrix(.08 -.031 .007 .088 428.119 243.892)" stroke-width="2.553" fill="#006700"/><path d="M320.26 487.2c0 59.825-11.597 108.32-25.903 108.32s-25.903-48.498-25.903-108.32c0-59.825 11.597-108.32 25.903-108.32s25.903 48.498 25.903 108.32z" transform="matrix(.078 .004 -.018 .093 443.353 230.558)" stroke-width="2.553" fill="#006700"/><path d="M320.26 487.2c0 59.825-11.597 108.32-25.903 108.32s-25.903-48.498-25.903-108.32c0-59.825 11.597-108.32 25.903-108.32s25.903 48.498 25.903 108.32z" transform="matrix(.07 .03 -.035 .089 456.206 226.403)" stroke-width="2.553" fill="#006700"/><path d="M320.26 487.2c0 59.825-11.597 108.32-25.903 108.32s-25.903-48.498-25.903-108.32c0-59.825 11.597-108.32 25.903-108.32s25.903 48.498 25.903 108.32z" transform="matrix(-.01 .097 -.094 .016 500.457 261.336)" stroke-width="2.553" fill="#006700"/><path d="M490.58 234.24c0 .846-.823 1.53-1.837 1.53s-1.838-.684-1.838-1.53.823-1.53 1.838-1.53 1.837.684 1.837 1.53z" transform="matrix(.339 .444 -.555 .416 422.404 -25.439)" stroke-width=".529" fill="#f00"/><path d="M490.58 234.24c0 .846-.823 1.53-1.837 1.53s-1.838-.684-1.838-1.53.823-1.53 1.838-1.53 1.837.684 1.837 1.53z" transform="matrix(.339 .444 -.555 .416 419.25 -28.764)" stroke-width=".529" fill="#f00"/><path d="M320.26 487.2c0 59.825-11.597 108.32-25.903 108.32s-25.903-48.498-25.903-108.32c0-59.825 11.597-108.32 25.903-108.32s25.903 48.498 25.903 108.32z" transform="matrix(.016 .091 -.093 .036 491.851 250.829)" stroke-width="2.553" fill="#006700"/><path d="M320.26 487.2c0 59.825-11.597 108.32-25.903 108.32s-25.903-48.498-25.903-108.32c0-59.825 11.597-108.32 25.903-108.32s25.903 48.498 25.903 108.32z" transform="matrix(.094 .018 -.041 .088 437.856 240.976)" stroke-width="2.553" fill="#006700"/><path d="M320.26 487.2c0 59.825-11.597 108.32-25.903 108.32s-25.903-48.498-25.903-108.32c0-59.825 11.597-108.32 25.903-108.32s25.903 48.498 25.903 108.32z" transform="matrix(.073 .05 -.067 .077 459.689 237.288)" stroke-width="2.553" fill="#006700"/><path d="M320.26 487.2c0 59.825-11.597 108.32-25.903 108.32s-25.903-48.498-25.903-108.32c0-59.825 11.597-108.32 25.903-108.32s25.903 48.498 25.903 108.32z" transform="matrix(.052 .07 -.082 .064 474.317 240.931)" stroke-width="2.553" fill="#006700"/><g stroke-width="2.553" fill="#006700"><path d="M434.707 309.608c-5.768.09-10.434-1.206-10.42-2.894s4.697-3.13 10.465-3.22c5.768-.09 10.433 1.205 10.42 2.894s-4.698 3.13-10.465 3.22z"/><path d="M433.64 300.08c-3.65 4.82-7.605 7.874-8.834 6.818s.733-5.82 4.383-10.64c3.65-4.822 7.604-7.875 8.834-6.82s-.734 5.82-4.384 10.64z"/><path d="M434.978 304.764c-5.363 2.343-10.183 2.975-10.766 1.41s3.29-4.732 8.653-7.075c5.362-2.344 10.182-2.976 10.765-1.41s-3.29 4.73-8.652 7.074z"/></g><g stroke-width="2.553" fill="#006700"><path d="M438.105 212.297c2.66 2.434 4.26 4.708 3.577 5.08s-3.39-1.297-6.05-3.73c-2.658-2.434-4.26-4.71-3.577-5.08s3.39 1.297 6.05 3.73z"/><path d="M434.965 215.083c3.605.496 6.638 1.51 6.775 2.27s-2.675.968-6.28.472c-3.605-.495-6.638-1.51-6.775-2.268s2.675-.97 6.28-.474z"/><path d="M436.05 213.287c3.38 1.757 5.827 3.665 5.467 4.26s-3.392-.345-6.77-2.102c-3.38-1.758-5.83-3.665-5.47-4.26s3.393.344 6.773 2.102z"/></g><path d="M490.58 234.24c0 .846-.823 1.53-1.837 1.53s-1.838-.684-1.838-1.53.823-1.53 1.838-1.53 1.837.684 1.837 1.53z" transform="matrix(.562 0 0 .689 192.82 91.929)" stroke-width=".529" fill="#f00"/><path d="M490.58 234.24c0 .846-.823 1.53-1.837 1.53s-1.838-.684-1.838-1.53.823-1.53 1.838-1.53 1.837.684 1.837 1.53z" transform="matrix(.562 0 0 .689 188.236 92.411)" stroke-width=".529" fill="#f00"/><path d="M490.58 234.24c0 .846-.823 1.53-1.837 1.53s-1.838-.684-1.838-1.53.823-1.53 1.838-1.53 1.837.684 1.837 1.53z" transform="matrix(.486 .279 -.348 .597 308.915 -4.203)" stroke-width=".529" fill="#f00"/><path d="M490.58 234.24c0 .846-.823 1.53-1.837 1.53s-1.838-.684-1.838-1.53.823-1.53 1.838-1.53 1.837.684 1.837 1.53z" transform="matrix(.486 .279 -.348 .597 304.706 -6.058)" stroke-width=".529" fill="#f00"/><path d="M490.58 234.24c0 .846-.823 1.53-1.837 1.53s-1.838-.684-1.838-1.53.823-1.53 1.838-1.53 1.837.684 1.837 1.53z" transform="matrix(.302 -.239 .333 .333 217.193 255.088)" stroke-width=".529" fill="#f00"/><path d="M490.58 234.24c0 .846-.823 1.53-1.837 1.53s-1.838-.684-1.838-1.53.823-1.53 1.838-1.53 1.837.684 1.837 1.53z" transform="matrix(.302 -.239 .333 .333 214.961 257.27)" stroke-width=".529" fill="#f00"/></g><g stroke-width=".375" fill="#5387f4"><path d="M411.28 311.04l.026 3.902c7.648-.383 3.942 5.177 5.265 8.328l1.69-2.098 2.338 2.08c-.187-3.642 2.06-12.907-9.32-12.21z"/><path d="M414.01 311.202l-.027 3.9c-7.648-.382-3.942 5.178-5.265 8.33l-1.69-2.1-2.337 2.08c.188-3.64-2.058-12.906 9.32-12.21z"/><g><path d="M427.813 304.613c-.413 1.37-4.077 7.415-5.11 8.788-1 1.103-2.527 4.315-9.358 1.344-3.28-1.426-1.11-4.303-.964-4.232.146.07.736 1.792 2.62 1.28 1.885-.514 5.522-11.804 7.49-12.464 2.163-.726 6.212 4.27 5.323 5.285z"/><path d="M427.813 304.613c-1.294-.85-1.88-1.523-2.976-.2-4.39 5.358-4.086 12.15-11.492 10.33-3.48-.837-1.11-4.302-.964-4.23.146.07.736 1.79 2.62 1.278 1.885-.512 5.522-11.802 7.49-12.462 2.163-.726 6.212 4.27 5.323 5.285z"/></g><g><path d="M398.688 304.613c.413 1.37 4.077 7.415 5.11 8.788 1 1.103 2.527 4.315 9.358 1.344 3.28-1.426 1.11-4.303.964-4.232-.145.07-.735 1.792-2.62 1.28-1.884-.514-5.52-11.804-7.488-12.464-2.164-.726-6.213 4.27-5.324 5.285z"/><path d="M398.688 304.613c1.294-.85 1.88-1.523 2.976-.2 4.39 5.358 4.086 12.15 11.492 10.33 3.48-.837 1.11-4.302.964-4.23-.145.07-.735 1.79-2.62 1.278-1.884-.512-5.52-11.802-7.488-12.462-2.164-.726-6.213 4.27-5.324 5.285z"/></g><path d="M411.112 310.715l-.135 5.026 3.805-.027.46-4.998h-4.13z"/></g></g><path d="M409.69 276.93s-14.322 12.064-14.322 20.725c.306 3.457 3.17 6.98 8.407 9.52-2.418-3.586-2.747-6.52-2.747-9.93.306-5.86 8.46-12.932 8.46-12.932l.202-7.383z" fill-rule="evenodd" transform="matrix(-.557 0 0 .561 640.36 115.47)" stroke="#000" stroke-width=".375" fill="#5387f4"/><g stroke="#000" fill-rule="evenodd"><path transform="matrix(.001 -.799 -.669 -.102 128.901 338.569)" stroke-width=".28" fill="#ffd200" d="M172.65-427.57h49.93v2.055h-49.93z"/><path d="M283.46-389.76l-17.717 70.866 17.717 25.037 17.716-25.037-17.716-70.866z" transform="matrix(-.117 -.022 -.001 .125 447.005 248.258)" stroke-width="1.698" fill="#ffd200"/><path d="M368.98-419.45s-40.71-27.717-40.71.866c0 28.582 39.844.866 40.71-.866zm-7.795-.18s-28.583-19.343-28.583.603c0 19.945 27.975.604 28.583-.604z" transform="matrix(-.091 -.007 .003 .065 448.398 234.626)" stroke-width="2.684"/><path d="M368.98-419.45s-40.71-27.717-40.71.866c0 28.582 39.844.866 40.71-.866zm-7.795-.18s-28.583-19.343-28.583.603c0 19.945 27.975.604 28.583-.604z" transform="matrix(.088 -.01 -.012 -.065 376.711 181.761)" stroke-width="2.684"/><path d="M422.29-165.7l2.45-.306s1.766 2.602 3.675 6.737c1.68 4.332 3.368 11.33 4.9 27.256-4.594-.307-21.437 1.53-21.437 1.53s.236-19.168 6.125-26.028c2.757-2.906 4.593-8.575 4.287-9.188z" transform="matrix(.674 0 0 .799 128.901 338.569)" stroke-width=".279" fill="#5387f4"/><path d="M422.29-165.7l2.45-.306s1.766 2.602 3.675 6.737c1.68 4.332-4.9 11.637-3.37 27.562-4.592-.307-13.167 1.225-13.167 1.225s.236-19.17 6.125-26.03c2.757-2.905 4.593-8.574 4.287-9.187z" transform="matrix(.674 0 0 .799 128.901 338.569)" stroke-width=".279" fill="#fff"/><path d="M422.29-165.7l2.45-.306s-.613 7.962-2.756 11.943c-2.144 3.98-3.37 22.967-3.063 22.967.308 0-7.042.613-7.042.613s.236-19.17 6.125-26.03c2.757-2.905 4.593-8.574 4.287-9.187z" transform="matrix(.674 0 0 .799 128.901 338.569)" stroke-width=".279" fill="#5387f4"/></g><path d="M409.69 276.93s-14.322 12.064-14.322 20.725c.306 3.457 3.17 6.98 8.407 9.52-2.418-3.586-2.747-6.52-2.747-9.93.306-5.86 8.46-12.932 8.46-12.932l.202-7.383z" fill-rule="evenodd" transform="matrix(.573 0 0 .546 180.32 119.86)" stroke="#000" stroke-width=".375" fill="#5387f4"/><g stroke="#000" fill-rule="evenodd"><path d="M407.48-248.03l106.3-106.3s-27.516 220.02-88.583 265.75c0 0-53.15 24.117-53.15-.135l35.433-159.31z" transform="matrix(-.268 0 0 .195 512.17 287.48)" stroke-width="1pt" fill="#5387f4"/><path d="M407.48-248.03l70.866-70.867s-35.433 230.31-106.3 230.31v-.135l35.433-159.31z" transform="matrix(-.268 0 0 .195 512.17 287.48)" stroke-width="1pt" fill="#fff"/><path d="M407.48-248.03l35.433-35.434s-35.433 194.88-70.866 194.88v-.135l35.433-159.31z" transform="matrix(-.268 0 0 .195 512.17 287.48)" stroke-width="1pt" fill="#5387f4"/><path transform="matrix(-.193 -.135 -.186 .14 512.17 346.21)" stroke-width="1.3" fill="#ffd200" d="M678.85-116.49h177.17v7.323H678.85z"/><path d="M283.46-389.76l-17.717 70.866 17.717 25.037 17.716-25.037-17.716-70.866z" transform="matrix(-.12 .084 .106 .076 434.351 213.692)" stroke-width="2.753" fill="#ffd200"/><path d="M368.98-419.45s-40.71-27.717-40.71.866c0 28.582 39.844.866 40.71-.866zm-7.795-.18s-28.583-19.343-28.583.603c0 19.945 27.975.604 28.583-.604z" transform="matrix(-.104 .051 .044 .048 425.472 216.303)" stroke-width="1pt"/><path d="M368.98-419.45s-40.71-27.717-40.71.866c0 28.582 39.844.866 40.71-.866zm-7.795-.18s-28.583-19.343-28.583.603c0 19.945 27.975.604 28.583-.604z" transform="matrix(.09 -.063 -.055 -.042 313.113 221.043)" stroke-width="1pt"/><path d="M407.48-248.03l106.3-53.15S496.063-79.79 407.48-79.79c-53.15 0-70.866-70.866-70.866-70.866l70.866-97.378z" transform="matrix(-.268 0 0 .195 507.422 296.128)" stroke-width="1pt" fill="#5387f4"/><path d="M407.48-248.03l70.866-35.434c0 35.434-17.716 185.96-70.866 185.96-35.433 0-70.866-53.15-70.866-53.15l70.866-97.378z" transform="matrix(-.268 0 0 .195 507.422 296.128)" stroke-width="1pt" fill="#fff"/><path d="M407.48-248.03l35.433-17.717c0 79.662-17.716 150.53-53.15 150.53-17.716 0-53.15-35.433-53.15-35.433l70.867-97.378z" transform="matrix(-.268 0 0 .195 507.422 296.128)" stroke-width="1pt" fill="#5387f4"/><path transform="matrix(-.24 -.087 -.12 .174 512.17 346.21)" stroke-width="1.3" fill="#ffd200" d="M569.18-267.74h177.17v7.323H569.18z"/><path d="M283.46-389.76l-17.717 70.866 17.717 25.037 17.716-25.037-17.716-70.866z" transform="matrix(-.08 .107 .132 .049 427.648 219.969)" stroke-width="2.753" fill="#ffd200"/><path d="M368.98-419.45s-40.71-27.717-40.71.866c0 28.582 39.844.866 40.71-.866zm-7.795-.18s-28.583-19.343-28.583.603c0 19.945 27.975.604 28.583-.604z" transform="matrix(-.078 .072 .062 .036 420.257 224.397)" stroke-width="1pt"/><path d="M368.98-419.45s-40.71-27.717-40.71.866c0 28.582 39.844.866 40.71-.866zm-7.795-.18s-28.583-19.343-28.583.603c0 19.945 27.975.604 28.583-.604z" transform="matrix(.06 -.08 -.069 -.027 315.04 253.47)" stroke-width="1pt"/></g><g stroke="#000" fill-rule="evenodd"><path d="M407.48-248.03l106.3-106.3s-27.516 220.02-88.583 265.75c0 0-53.15 24.117-53.15-.135l35.433-159.31z" transform="matrix(.264 0 0 .195 316.86 287.48)" stroke-width="1pt" fill="#5387f4"/><path d="M407.48-248.03l70.866-70.867s-35.433 230.31-106.3 230.31v-.135l35.433-159.31z" transform="matrix(.264 0 0 .195 316.86 287.48)" stroke-width="1pt" fill="#fff"/><path d="M407.48-248.03l35.433-35.434s-35.433 194.88-70.866 194.88v-.135l35.433-159.31z" transform="matrix(.264 0 0 .195 316.86 287.48)" stroke-width="1pt" fill="#5387f4"/><path transform="matrix(.19 -.135 .183 .14 316.86 346.21)" stroke-width="1.3" fill="#ffd200" d="M678.85-116.49h177.17v7.323H678.85z"/><path d="M283.46-389.76l-17.717 70.866 17.717 25.037 17.716-25.037-17.716-70.866z" transform="matrix(.118 .084 -.104 .076 393.518 213.692)" stroke-width="2.753" fill="#ffd200"/><path d="M368.98-419.45s-40.71-27.717-40.71.866c0 28.582 39.844.866 40.71-.866zm-7.795-.18s-28.583-19.343-28.583.603c0 19.945 27.975.604 28.583-.604z" transform="matrix(.102 .051 -.044 .048 402.264 216.303)" stroke-width="1pt"/><path d="M368.98-419.45s-40.71-27.717-40.71.866c0 28.582 39.844.866 40.71-.866zm-7.795-.18s-28.583-19.343-28.583.603c0 19.945 27.975.604 28.583-.604z" transform="matrix(-.089 -.063 .054 -.042 512.946 221.043)" stroke-width="1pt"/><path d="M407.48-248.03l106.3-53.15S496.063-79.79 407.48-79.79c-53.15 0-70.866-70.866-70.866-70.866l70.866-97.378z" transform="matrix(.264 0 0 .195 321.537 296.128)" stroke-width="1pt" fill="#5387f4"/><path d="M407.48-248.03l70.866-35.434c0 35.434-17.716 185.96-70.866 185.96-35.433 0-70.866-53.15-70.866-53.15l70.866-97.378z" transform="matrix(.264 0 0 .195 321.537 296.128)" stroke-width="1pt" fill="#fff"/><path d="M407.48-248.03l35.433-17.717c0 79.662-17.716 150.53-53.15 150.53-17.716 0-53.15-35.433-53.15-35.433l70.867-97.378z" transform="matrix(.264 0 0 .195 321.537 296.128)" stroke-width="1pt" fill="#5387f4"/><path transform="matrix(.236 -.087 .118 .174 316.86 346.21)" stroke-width="1.3" fill="#ffd200" d="M569.18-267.74h177.17v7.323H569.18z"/><path d="M283.46-389.76l-17.717 70.866 17.717 25.037 17.716-25.037-17.716-70.866z" transform="matrix(.078 .107 -.13 .049 400.12 219.969)" stroke-width="2.753" fill="#ffd200"/><path d="M368.98-419.45s-40.71-27.717-40.71.866c0 28.582 39.844.866 40.71-.866zm-7.795-.18s-28.583-19.343-28.583.603c0 19.945 27.975.604 28.583-.604z" transform="matrix(.077 .072 -.061 .036 407.401 224.397)" stroke-width="1pt"/><path d="M368.98-419.45s-40.71-27.717-40.71.866c0 28.582 39.844.866 40.71-.866zm-7.795-.18s-28.583-19.343-28.583.603c0 19.945 27.975.604 28.583-.604z" transform="matrix(-.059 -.08 .068 -.027 511.048 253.47)" stroke-width="1pt"/></g><g stroke-linejoin="bevel" stroke="#000" stroke-width=".168"><path d="M378.33 276.153l35.664-60.855 35.662 60.855H378.33z" fill-rule="evenodd" fill="#ffd200"/><path d="M381.94 274.035l32.137-55.132 32.137 55.132H381.94z" fill-rule="evenodd" fill="#0ff"/><path d="M419.705 247.684c0 2.885-2.414 5.223-5.392 5.223s-5.392-2.338-5.392-5.223 2.415-5.223 5.393-5.223c2.978 0 5.392 2.34 5.392 5.224z" fill-rule="evenodd" fill="#ffd200"/><g fill="none"><path d="M414.164 245.513l-.213-19.498"/><path d="M415.23 246.785l7.033-9.75"/><path d="M416.296 247.844l11.295-4.662"/><path d="M417.15 249.33l13.212.423"/><path d="M416.296 251.024l7.673 6.782"/><path d="M414.164 250.387v6.146"/><path d="M411.82 248.904l-10.016 8.69"/><path d="M412.886 249.54l-4.475 8.265"/><path d="M411.18 247.844l-16.622 5.722"/><path d="M410.968 246.996l-11.722-.424"/><path d="M401.59 242.122l10.23 3.39"/><path d="M406.492 233.433l6.18 11.868"/></g><g fill-rule="evenodd"><path d="M414.016 242.323c-6.413 0-11.086 1.17-15.03 2.546l1.002-1.725 1-1.727 1.003-1.727 1.004-1.723 1-1.727 1.004-1.725 1.11-1.758c1.494-1.306 4.702-1.917 7.907-1.917 3.208 0 6.415.645 8.02 1.948l1 1.727 1.002 1.725 1.003 1.727 1.003 1.724 1 1.728 1.003 1.727 1 1.724c-4.157-1.376-8.617-2.547-15.03-2.547z" fill="#c453d7"/><path d="M414.018 241.107c-6.434-.01-13.626 1.908-14.028 2.04l1-1.727 1.003-1.728 1.003-1.724 1-1.727 1.004-1.723 1.11-1.76c1.494-1.305 4.702-1.916 7.907-1.916 3.208 0 6.415.647 8.02 1.95l1 1.727 1.002 1.724 1.002 1.728 1.003 1.724 1 1.728 1.003 1.727s-7.617-2.04-14.03-2.04z" fill="#5000c1"/><path d="M414.016 239.728c-4.75-.02-12.432 1.285-12.974 1.53l.95-1.568 1.002-1.724 1-1.727 1.004-1.725 1.11-1.76c1.494-1.305 4.702-1.916 7.907-1.916 3.208 0 6.415.644 8.02 1.948l1 1.727 1.002 1.724 1.003 1.726 1.003 1.724 1 1.727s-6.614-1.69-13.027-1.69z" fill="#0053d7"/><path d="M414.013 238.297c-6.3-.013-11.533 1.193-12.025 1.393l1.003-1.724 1.002-1.728 1.003-1.724 1.11-1.758c1.494-1.306 4.702-1.918 7.907-1.918 3.208 0 6.415.646 8.02 1.95l1 1.726 1.002 1.724 1.003 1.728 1.003 1.724s-5.614-1.393-12.027-1.393z" fill="#009f9f"/><path d="M414.016 237.08c-6.444-.023-10.49.802-11.022.886l1-1.727 1.004-1.725 1.11-1.758c1.494-1.307 4.702-1.918 7.907-1.918 3.208 0 6.415.645 8.02 1.948l1 1.727 1.002 1.724 1.003 1.726s-4.61-.887-11.024-.887z" fill="#ff0"/><path d="M413.96 235.488c-5.613-.12-9.735.765-9.967.75l1.003-1.725 1.11-1.758c1.494-1.306 4.702-1.917 7.907-1.917 3.207 0 6.415.645 8.018 1.948l1.004 1.727 1 1.725s-3.66-.75-10.073-.75z" fill="#f50"/><path d="M414.17 233.637c-5.634.046-8.55.78-9.178.88l1.11-1.758c1.495-1.308 4.702-1.92 7.908-1.92 3.207 0 6.414.647 8.018 1.95l1.003 1.727s-2.446-.88-8.86-.88z" fill="#ff0b00"/></g><path d="M381.94 274.035l9.038-15.507h46.197l9.04 15.507h-64.276z" fill-rule="evenodd" fill="#4363ff"/><path d="M412.348 246.985c.05 0 .09-.176.216-.332.27-.15.557-.27.933-.332.203-.077.62-.054.934-.054.442.03.47.175.72.387.11.173.37.413.502.664.143.134.257.34.36.498.103.17.214.426.358.664.074.265.144.472.144.774 0 .315-.068.45-.144.664-.22.056-.645.084-.862 0-.23-.16-.63-.058-.79-.22-.413-.046-.513-.42-.718-.61-.143-.162-.14-.285-.287-.443-.227-.124-.257-.277-.36-.498.09-.236.247-.288.504-.387.137-.155.215-.217.215-.498-.052-.314-.198-.28-.575-.332-.465 0-.704.037-1.15.055z" fill-rule="evenodd" fill="#f00"/><g fill-rule="evenodd" fill="#6da700"><path d="M423.414 271.055s2.05-.78 3.07-2.518c1.02-1.738.372-4.36 1.013-4.436.64-.074 1.505 2.883 3.304 3.753 1.8.87 4.58 1.983 4.58 1.983l-11.966 1.22z"/><path d="M422.288 271.186s2.05-.78 3.07-2.518c1.02-1.738.372-4.36 1.013-4.436.642-.075 1.506 2.882 3.305 3.752 1.798.87 4.58 1.983 4.58 1.983l-11.967 1.22z"/><path d="M419.546 272.05s2.46-.897 3.71-2.852c1.25-1.955.527-4.877 1.293-4.97.765-.09 1.74 3.203 3.867 4.153 2.128.95 5.425 2.16 5.425 2.16l-14.296 1.51z"/><path d="M416.846 272.543s2.69-1.02 4.03-3.277c1.34-2.258.49-5.655 1.33-5.754.842-.1 1.973 3.73 4.33 4.85 2.36 1.118 6.007 2.55 6.007 2.55l-15.697 1.63z"/><path d="M413.855 272.716s3.065-1.15 4.602-3.67c1.537-2.52.588-6.29 1.545-6.408.958-.116 2.225 4.135 4.903 5.364 2.677 1.23 6.822 2.797 6.822 2.797l-17.872 1.916z"/><path d="M410.404 272.9s3.244-1.275 4.85-4.097c1.604-2.822.555-7.07 1.57-7.194 1.017-.125 2.41 4.662 5.266 6.06 2.857 1.4 7.277 3.19 7.277 3.19l-18.963 2.04z"/><path d="M406.25 271.92s3.813-1.005 5.928-3.617c2.115-2.613 1.365-6.784 2.53-6.834 1.166-.05 2.25 4.666 5.346 6.215 3.097 1.548 7.926 3.583 7.926 3.583l-21.73.65z"/><path d="M404.204 272s3.813-1.004 5.928-3.616c2.115-2.613 1.365-6.784 2.53-6.834 1.167-.05 2.25 4.667 5.346 6.216 3.097 1.548 7.926 3.583 7.926 3.583l-21.73.65z"/><path d="M399.38 272.435s4.558-1.122 7.107-4.023c2.55-2.9 1.7-7.52 3.09-7.58 1.39-.058 2.63 5.168 6.308 6.876 3.677 1.71 9.413 3.95 9.413 3.95l-25.918.777z"/><path d="M394.03 272.962s5.013-1.272 7.8-4.623c2.785-3.35 1.81-8.72 3.343-8.78 1.532-.058 2.942 6.017 7.01 8.025 4.065 2.008 10.406 4.65 10.406 4.65l-28.56.727z"/><path d="M388.6 273.168s5.696-1.42 8.865-5.148c3.17-3.73 2.07-9.698 3.81-9.765 1.74-.067 3.334 6.686 7.95 8.914 4.615 2.227 11.814 5.157 11.814 5.157l-32.44.84z"/><path d="M383.023 273.61s6.04-1.602 9.37-5.813c3.333-4.21 2.11-10.955 3.957-11.03 1.85-.075 3.606 7.553 8.53 10.07 4.926 2.518 12.603 5.83 12.603 5.83l-34.46.944z"/></g></g><g><path d="M380.34 293.64l5.82-4.9s7.96 6.43 23.578 6.125c14.71-.283 19.906-5.513 22.05-6.126l5.817 5.205c-3.37.92-15.31 6.737-28.785 7.35-14.087-.612-26.642-5.817-28.48-7.655z" fill-rule="evenodd" transform="matrix(.749 0 0 .742 106.501 70.642)" stroke="#000" stroke-width=".375" fill="#ffc200"/><path transform="matrix(.518 -.182 .191 .529 108.76 97.198)" stroke-width="1pt" d="M425.45 510.86v-3.4h-1.476v-.455h3.55v.454h-1.48v3.4h-.594z"/><path transform="matrix(.531 -.139 .147 .543 125.494 72.275)" stroke-width="1pt" d="M415.64 510.86v-3.855h3.238v.454h-2.645v1.18h2.477v.452h-2.477v1.313h2.75v.455h-3.343z"/><path transform="matrix(.531 -.139 .147 .543 125.437 72.163)" stroke-width="1pt" d="M409.81 510.86v-3.855h.593v3.855h-.593z"/><path transform="matrix(.545 -.066 .07 .558 158.512 34.589)" stroke-width="1pt" d="M406.21 510.86v-3.855h.593v3.4h2.206v.455h-2.8z"/><path transform="matrix(.549 -.014 .016 .562 184.143 11.624)" stroke-width="1pt" d="M399.97 510.86v-3.855h.608l2.352 3.026v-3.025h.568v3.855h-.608l-2.352-3.03v3.03h-.568z"/><path transform="matrix(.546 .057 -.058 .559 222.983 -15.348)" stroke-width="1pt" d="M393.47 510.86v-3.855h.592v3.855h-.592z"/><path transform="matrix(.539 .102 -.105 .553 249.145 -29.441)" stroke-width="1pt" d="M388.85 510.86v-3.855h.608l2.352 3.026v-3.025h.568v3.855h-.608l-2.352-3.03v3.03h-.568z"/><path transform="matrix(.531 .138 -.143 .544 271.982 -39.228)" stroke-width="1pt" d="M387.28 507.01h.592v2.227c0 .387-.05.695-.152.923-.103.228-.287.413-.554.557-.264.142-.613.213-1.044.213-.42 0-.763-.062-1.03-.187-.266-.124-.457-.304-.57-.54-.115-.235-.172-.558-.172-.966v-2.227h.593v2.224c0 .335.035.582.107.742.073.158.197.28.373.365s.392.13.647.13c.436 0 .746-.085.932-.255.185-.17.278-.497.278-.98v-2.225z"/><path transform="matrix(.53 .152 -.145 .541 273.735 -43.257)" stroke-width="1pt" d="M378.22 509.63l.56-.042c.025.193.086.35.182.476.098.122.248.223.452.3.203.075.433.113.687.113.227 0 .427-.03.6-.087s.302-.137.385-.237c.085-.102.128-.212.128-.33 0-.122-.04-.227-.122-.317-.08-.09-.215-.167-.402-.228-.12-.04-.386-.103-.797-.187-.41-.085-.7-.166-.864-.24-.214-.097-.374-.217-.48-.36-.104-.143-.155-.303-.155-.48 0-.194.065-.376.193-.544.128-.17.315-.3.562-.387.247-.088.52-.132.822-.132.332 0 .624.046.877.14.254.09.45.225.586.404s.21.38.22.608l-.568.036c-.03-.243-.135-.427-.312-.552-.175-.124-.435-.187-.78-.187-.357 0-.62.057-.784.17-.163.113-.244.25-.244.41 0 .137.058.25.174.34.114.09.412.182.892.277.482.093.813.174.993.244.26.104.454.235.578.395.124.158.187.34.187.547 0 .205-.07.4-.205.58-.137.18-.333.323-.59.424-.254.1-.542.15-.86.15-.407 0-.747-.05-1.02-.152-.275-.102-.49-.254-.646-.458-.155-.205-.236-.436-.244-.694z"/><path transform="matrix(.514 .197 -.192 .527 303.186 -52.914)" stroke-width="1pt" d="M371.92 510.86v-3.855h.593v3.855h-.593z"/><path transform="matrix(.421 .352 -.355 .436 420.367 -64.17)" stroke-width="1pt" d="M367.3 510.86v-3.855h1.542c.35 0 .615.018.798.055.257.05.476.142.656.276.237.172.413.392.53.66.117.266.176.57.176.915 0 .294-.04.553-.12.78-.078.225-.18.413-.304.562-.125.147-.26.264-.41.35-.146.084-.325.148-.534.192-.208.044-.447.066-.718.066H367.3zm.593-.455h.956c.294 0 .525-.024.692-.07.17-.05.303-.115.404-.202.14-.12.25-.282.326-.486.08-.205.12-.453.12-.744 0-.403-.078-.713-.233-.928-.153-.217-.34-.363-.56-.437-.16-.052-.414-.08-.766-.08h-.94v2.947z"/><path transform="matrix(.514 .197 -.192 .527 303.186 -52.744)" stroke-width="1pt" d="M373.38 508.99c0-.64.2-1.14.598-1.502.4-.362.915-.544 1.546-.544.414 0 .786.085 1.118.255s.585.407.758.712c.175.303.263.648.263 1.033 0 .39-.092.74-.276 1.05-.183.308-.442.542-.778.702-.337.157-.7.236-1.09.236-.42 0-.797-.087-1.13-.263-.33-.175-.583-.415-.754-.717-.17-.304-.256-.625-.256-.963zm.61.008c0 .464.145.83.435 1.1.29.266.655.398 1.093.398.446 0 .813-.134 1.1-.404.29-.27.434-.653.434-1.15 0-.313-.062-.587-.187-.82-.122-.235-.302-.416-.54-.544-.237-.13-.503-.195-.798-.195-.42 0-.78.125-1.084.374-.3.247-.452.66-.452 1.24z"/><path transform="matrix(.546 .057 -.058 .559 223.095 -15.4)" stroke-width="1pt" d="M394.93 508.99c0-.64.2-1.14.598-1.502.4-.362.915-.544 1.546-.544.413 0 .786.085 1.118.255s.585.407.758.712c.175.303.262.648.262 1.033 0 .39-.09.74-.275 1.05-.183.308-.442.542-.78.702-.335.157-.697.236-1.086.236-.42 0-.797-.087-1.13-.263-.33-.175-.583-.415-.754-.717-.17-.304-.256-.625-.256-.963zm.61.008c0 .464.145.83.435 1.1.29.266.655.398 1.093.398.446 0 .813-.134 1.1-.404.29-.27.434-.653.434-1.15 0-.313-.063-.587-.187-.82-.122-.235-.302-.416-.54-.544-.237-.13-.503-.195-.798-.195-.42 0-.78.125-1.084.374-.302.247-.452.66-.452 1.24z"/><path transform="matrix(.494 -.237 .248 .505 89.586 133.037)" stroke-width="1pt" d="M432.31 510.86v-3.855h1.542c.35 0 .615.018.798.055.256.05.475.142.656.276.237.172.413.392.53.66.117.266.176.57.176.915 0 .294-.04.553-.12.78s-.18.413-.305.562c-.124.147-.26.264-.41.35-.145.084-.324.148-.533.192-.208.044-.448.066-.718.066h-1.616zm.593-.455h.956c.294 0 .525-.024.692-.07.17-.05.303-.115.403-.202.14-.12.25-.282.327-.486.08-.205.12-.453.12-.744 0-.403-.078-.713-.233-.928-.154-.217-.34-.363-.56-.437-.16-.052-.415-.08-.767-.08h-.94v2.947z"/><path transform="matrix(.531 -.139 .147 .543 125.608 72.163)" stroke-width="1pt" d="M419.8 510.86v-3.855h1.985c.4 0 .703.035.91.105.21.068.374.19.5.365.123.175.185.37.185.58 0 .275-.103.505-.308.693-.206.188-.524.307-.953.357.155.065.274.13.356.192.173.137.337.308.492.513l.78 1.05H423l-.592-.802c-.173-.232-.315-.41-.427-.532s-.212-.208-.3-.257c-.09-.05-.18-.085-.27-.104-.067-.012-.177-.018-.33-.018h-.688v1.712h-.592zm.592-2.154h1.275c.27 0 .482-.024.635-.07.152-.05.27-.128.348-.233.08-.106.12-.222.12-.347 0-.182-.08-.332-.233-.45-.153-.117-.395-.176-.727-.176h-1.418v1.276z"/><path transform="matrix(.509 -.204 .214 .521 100.573 111.178)" stroke-width="1pt" d="M427.64 510.86l1.72-3.855h.638l1.833 3.855h-.674l-.522-1.168h-1.873l-.49 1.168h-.63zm1.292-1.584h1.518l-.467-1.067c-.143-.325-.248-.592-.318-.8-.057.247-.137.492-.24.736l-.493 1.13z"/><path transform="matrix(.537 -.113 .119 .55 136.757 58.006)" stroke-width="1pt" d="M411.43 510.86v-3.855h1.68c.342 0 .616.04.822.118.208.077.37.197.486.36.117.16.177.33.177.508 0 .165-.052.32-.156.466s-.262.263-.472.352c.27.07.48.185.624.35.146.165.22.36.22.584 0 .18-.045.35-.135.505-.087.154-.196.273-.327.357-.13.085-.294.148-.492.192-.195.043-.435.064-.72.064h-1.708zm.593-2.236h.968c.263 0 .452-.015.566-.044.15-.04.264-.103.34-.192.076-.09.115-.202.115-.337 0-.127-.035-.24-.106-.335-.07-.1-.173-.165-.305-.2-.133-.037-.36-.056-.682-.056h-.895v1.164zm0 1.78h1.115c.19 0 .326-.006.403-.018.137-.02.25-.056.343-.105.09-.048.167-.12.226-.212.058-.095.088-.203.088-.326 0-.144-.043-.268-.13-.374-.084-.107-.204-.18-.356-.223-.15-.044-.37-.066-.654-.066h-1.035v1.325z"/></g><g stroke="#000" fill="#ffc200" stroke-width=".375"><path d="M444.37 317.01l3.746 9.087-1.23.484-3.304-8.015-4.582 1.802-.442-1.07 5.812-2.288z"/><path d="M463.765 303.94l6.333 6.032 2.307-2.31.847.808-5.55 5.556-.847-.807 2.317-2.32-6.334-6.03.927-.93z"/><path d="M472.36 294.666l6.984 7.036-.978.925-9.264-1.94 5.483 5.523-.912.864-6.984-7.035.976-.927 9.268 1.947-5.488-5.528.914-.866z"/><path d="M475.716 287.84l8.452 5.274-3.907 5.97-.996-.624 3.19-4.876-2.588-1.616-2.99 4.567-.99-.62 2.988-4.565-2.877-1.796-3.317 5.068-.996-.622 4.032-6.16z"/><path d="M480.288 287.228l-.997.915c-.768-.802-1.2-1.653-1.292-2.55-.093-.895.142-1.77.704-2.63.583-.89 1.242-1.5 1.977-1.828.736-.323 1.552-.412 2.446-.266.893.15 1.743.477 2.55.98.88.55 1.54 1.19 1.98 1.925.44.74.633 1.518.576 2.334-.057.82-.323 1.595-.8 2.323-.54.827-1.21 1.386-2.01 1.68-.798.295-1.66.31-2.586.045l.444-1.238c.74.192 1.372.194 1.89.005.52-.188.96-.56 1.32-1.11.415-.635.607-1.264.576-1.885-.034-.62-.257-1.18-.67-1.68-.41-.5-.894-.923-1.45-1.27-.72-.45-1.415-.74-2.086-.873-.67-.127-1.278-.057-1.826.21-.547.265-.985.65-1.315 1.153-.402.612-.56 1.243-.476 1.892.084.65.432 1.27 1.044 1.866z"/><path d="M488.893 259.41l-.28 1.307c-1.1-.227-1.953-.683-2.557-1.367-.6-.68-.92-1.53-.964-2.548-.045-1.055.138-1.922.548-2.603.415-.677 1.032-1.206 1.85-1.586.82-.376 1.71-.583 2.666-.622 1.045-.042 1.962.115 2.753.47.795.36 1.41.89 1.84 1.59.436.705.673 1.49.71 2.352.04.98-.18 1.812-.663 2.5-.483.688-1.18 1.182-2.095 1.482l-.362-1.262c.72-.256 1.238-.608 1.553-1.052.314-.445.457-.995.43-1.648-.032-.752-.243-1.375-.633-1.867-.392-.488-.902-.82-1.537-1-.628-.18-1.273-.257-1.933-.23-.853.034-1.593.184-2.22.45-.625.27-1.082.667-1.376 1.192-.292.523-.426 1.084-.4 1.68.03.725.27 1.33.72 1.815.45.486 1.1.8 1.95.945z"/><path d="M486.104 248.484l10.007-.61.084 1.294-10.007.61-.083-1.294z"/><path d="M481.774 227.928l9.63-2.732 2.025 6.8-1.138.324-1.654-5.556-2.95.836 1.55 5.204-1.13.32-1.55-5.203-3.277.93 1.72 5.775-1.136.322-2.09-7.02z"/><path d="M476.22 217.766l9.2-3.9.795 1.79-5.568 4.888c-.52.453-.91.79-1.172 1.006.38-.04.943-.09 1.687-.147l7.358-.562.71 1.6-9.2 3.9-.508-1.146 7.7-3.264-8.86.653-.478-1.072 6.676-5.918-7.83 3.32-.51-1.146z"/><path d="M454.24 194.297l5.685-8.066 1.094.736-5.017 7.115 4.07 2.738-.67.95-5.164-3.47z"/><path d="M441.515 187.794l4.218-8.89 1.235.558 1.466 9.142 3.312-6.98 1.154.52-4.218 8.892-1.234-.56-1.464-9.147-3.315 6.986-1.155-.522z"/><path d="M433.607 184.04l3.78-9.072 6.714 2.67-.446 1.072-5.486-2.183-1.157 2.78 5.138 2.042-.444 1.064-5.137-2.044-1.286 3.088 5.702 2.268-.446 1.07-6.93-2.757z"/><path d="M381.372 188.063l-6.607-8.29 1.376-.403 4.594 6.083c.37.487.694.95.976 1.388-.008-.555.007-1.118.046-1.686l.498-7.577 1.296-.38-.873 10.483-1.305.383z"/><path d="M373.33 191.88l-4.913-8.54 1.156-.635 4.334 7.532 4.307-2.365.58 1.006-5.464 3z"/><path d="M356.12 201.708l.86-.895c.38.326.756.538 1.132.634.376.09.8.06 1.274-.09.472-.156.92-.418 1.345-.79.38-.328.662-.674.85-1.036s.267-.697.234-1.008c-.034-.317-.154-.59-.36-.815-.21-.23-.46-.37-.75-.42-.295-.054-.652-.002-1.072.155-.27.1-.822.37-1.656.81-.836.436-1.457.703-1.863.8-.525.13-.998.137-1.422.022-.42-.12-.786-.348-1.093-.684-.337-.368-.545-.805-.622-1.31-.08-.51.01-1.028.27-1.552.26-.526.64-1.008 1.144-1.448.553-.483 1.122-.822 1.705-1.014.584-.198 1.144-.228 1.682-.087.538.138 1.012.414 1.42.828l-.885.898c-.473-.417-.967-.614-1.477-.592-.508.02-1.05.28-1.626.783-.6.522-.938 1.01-1.016 1.468-.078.45.02.825.298 1.128.24.262.534.393.884.394.346.002 1.002-.257 1.97-.778.966-.53 1.66-.856 2.08-.985.616-.184 1.165-.216 1.65-.095.48.118.9.373 1.26.764.355.39.576.855.664 1.4.086.54.002 1.094-.25 1.66-.253.56-.646 1.075-1.18 1.54-.677.592-1.334.99-1.97 1.2-.63.204-1.254.23-1.87.072-.613-.163-1.15-.482-1.61-.958z"/><path d="M349.378 215.624l-8.118-5.755.78-1.05 7.16 5.076 2.902-3.904.958.678-3.682 4.954z"/><path d="M344.87 224.355l-8.78-4.742 3.51-6.198 1.036.56-2.867 5.063 2.688 1.453 2.685-4.742 1.03.557-2.685 4.742 2.99 1.614 2.98-5.262 1.034.56-3.622 6.397z"/><path d="M340.335 239.457l-9.793-2.113 1.565-6.913 1.156.25-1.28 5.65 3 .646 1.198-5.29 1.15.25-1.197 5.288 3.333.72 1.33-5.87 1.154.25-1.615 7.133z"/><path d="M337.978 270.72l-.087-1.335c1.123-.067 2.07.15 2.84.654.763.5 1.304 1.234 1.623 2.206.33 1.006.39 1.89.182 2.652-.215.76-.666 1.43-1.35 2.012-.69.575-1.49 1.007-2.4 1.293-.996.313-1.923.4-2.783.262-.866-.14-1.602-.49-2.21-1.054-.61-.566-1.052-1.26-1.323-2.083-.308-.933-.322-1.794-.045-2.583.277-.79.816-1.447 1.615-1.974l.693 1.123c-.624.434-1.027.907-1.21 1.42s-.17 1.076.037 1.7c.235.717.608 1.263 1.12 1.636.51.367 1.092.556 1.752.564.655.01 1.297-.084 1.927-.282.812-.255 1.484-.59 2.017-1.01.527-.424.86-.927 1-1.508.138-.583.115-1.158-.072-1.726-.227-.692-.623-1.213-1.19-1.565-.566-.35-1.28-.485-2.137-.403z"/><path d="M344.476 280.13l-8.985 4.348-.588-1.16 8.985-4.348.59 1.16z"/><path d="M347.914 287.035l-9.217 3.857-.523-1.19 8.13-3.403-1.946-4.435 1.087-.455 2.47 5.625z"/><path d="M346.494 303.163l-.863-.985 4.403-3.678c.766-.64 1.448-1.063 2.047-1.27s1.235-.207 1.907 0c.666.204 1.313.666 1.942 1.384.61.698.986 1.37 1.13 2.02.14.65.063 1.263-.235 1.84-.302.582-.857 1.21-1.664 1.883l-4.4 3.678-.864-.986 4.397-3.674c.662-.553 1.098-1.02 1.31-1.403.205-.382.265-.79.18-1.223-.088-.437-.318-.866-.69-1.29-.633-.724-1.253-1.1-1.86-1.128s-1.385.36-2.342 1.158l-4.396 3.673z"/><path d="M371.597 312.975l-6.22 7.68-5.688-4.392.733-.906 4.647 3.587 1.905-2.352-4.353-3.36.73-.9 4.353 3.36 2.117-2.615-4.83-3.728.733-.907 5.872 4.532z"/><path d="M453.996 311.552l1.84 10.34-1.228.716-8.667-6.353 1.298-.758 2.56 1.96 3.6-2.1-.612-3.1 1.21-.705zm-.372 4.903l-2.917 1.704 2.323 1.803c.707.548 1.266 1.01 1.677 1.387-.22-.603-.392-1.228-.518-1.876l-.566-3.02z"/><path d="M461.242 306.47l6.51 7.447-3.38 2.818c-.68.566-1.258.93-1.73 1.09-.468.16-.958.162-1.465 0-.507-.163-.94-.45-1.298-.86-.464-.528-.678-1.118-.645-1.772.034-.655.374-1.336 1.02-2.044-.377.095-.688.142-.933.135-.525-.018-1.094-.115-1.703-.293l-3.1-.92 1.27-1.058 2.363.707c.685.202 1.227.343 1.625.42.4.08.715.102.95.07.233-.03.443-.092.632-.185.136-.07.333-.216.593-.432l1.17-.976-2.89-3.306 1.01-.84zm2.628 5l-2.17 1.81c-.46.384-.782.73-.962 1.038-.178.31-.245.626-.203.94.046.32.173.6.384.84.306.353.692.533 1.154.54.458.01.97-.22 1.535-.692l2.414-2.012-2.154-2.463z"/><path d="M485.776 261.266l8.377 6.572-.436 1.33-10.803.828.46-1.405 3.25-.182 1.278-3.9-2.556-1.93.43-1.312zm3.04 3.92l-1.038 3.162 2.965-.145c.9-.046 1.633-.06 2.197-.043-.573-.31-1.126-.667-1.658-1.074l-2.467-1.9z"/><path d="M484.364 236.83l9.99-.894.408 4.323c.082.868.052 1.537-.087 2.005-.134.468-.416.858-.844 1.17-.43.31-.918.49-1.467.54-.71.063-1.327-.108-1.856-.512-.528-.405-.903-1.07-1.122-1.992-.137.357-.277.63-.425.823-.318.408-.727.806-1.227 1.19l-2.56 1.94-.152-1.624 1.958-1.477c.563-.43.993-.782 1.288-1.054.295-.274.497-.513.606-.72.11-.2.18-.404.21-.61.02-.148.012-.39-.02-.72l-.14-1.497-4.436.396-.122-1.29zm5.703.79l.26 2.773c.057.59.16 1.046.315 1.367.158.322.382.557.67.705.295.148.602.208.925.18.473-.043.845-.247 1.118-.61.272-.36.375-.9.307-1.624l-.29-3.085-3.305.295z"/><path d="M469.563 208.88l10.414-2.592.826 1.14-5.813 8.93-.874-1.204 1.803-2.646-2.426-3.34-3.115.836-.817-1.123zm5.035-.018l1.966 2.708 1.662-2.4c.504-.732.932-1.312 1.286-1.742-.6.262-1.223.48-1.876.65l-3.038.784z"/><path d="M459.284 198.178l9.66-4.587 1.045.956-3.848 9.894-1.105-1.01 1.218-2.946-3.064-2.798-2.876 1.432-1.03-.94zm4.925-1.008l2.483 2.27 1.132-2.68c.342-.817.642-1.47.9-1.96-.533.374-1.1.71-1.703 1.006l-2.813 1.364z"/><path d="M416.298 181.368l.996-9.75 4.425.43c.89.087 1.556.242 2 .464.447.218.785.563 1.017 1.032.23.47.32.975.265 1.51-.07.693-.36 1.253-.867 1.682-.506.43-1.246.663-2.217.7.333.197.582.384.748.562.35.382.67.85.963 1.403l1.464 2.823-1.662-.162-1.112-2.155c-.326-.622-.6-1.102-.817-1.436-.217-.336-.42-.575-.607-.72-.183-.142-.374-.247-.572-.316-.147-.046-.39-.085-.73-.118l-1.533-.15-.44 4.33-1.322-.128zm1.878-5.32l2.838.277c.603.06 1.082.046 1.435-.04.352-.092.63-.262.835-.51.204-.254.323-.538.355-.853.047-.46-.086-.857-.4-1.188-.31-.33-.836-.53-1.577-.602l-3.158-.307-.33 3.224z"/><path d="M404.455 175.92c.166-1.618.74-2.84 1.722-3.668.984-.83 2.18-1.178 3.586-1.042.922.09 1.73.387 2.426.887.695.503 1.196 1.16 1.503 1.967.312.805.418 1.696.318 2.67-.1.99-.393 1.854-.882 2.595-.49.74-1.128 1.275-1.918 1.605-.79.327-1.618.448-2.485.364-.94-.093-1.756-.397-2.45-.91-.696-.517-1.194-1.176-1.497-1.98s-.41-1.634-.323-2.49zm1.36.152c-.12 1.175.107 2.133.682 2.873.58.738 1.358 1.154 2.334 1.25.996.096 1.848-.167 2.556-.787.715-.62 1.137-1.557 1.265-2.812.082-.794.014-1.498-.203-2.116-.21-.62-.566-1.118-1.064-1.493-.493-.38-1.07-.6-1.726-.665-.936-.09-1.773.145-2.514.71-.736.558-1.18 1.572-1.33 3.04z"/><path d="M396.482 182.26l-1.907-9.61 3.39-.643c.766-.145 1.36-.21 1.78-.194.59.02 1.117.16 1.58.416.605.33 1.1.804 1.49 1.424.39.615.672 1.35.842 2.207.145.732.186 1.395.122 1.993-.063.597-.194 1.107-.394 1.53-.2.42-.442.766-.726 1.042-.28.27-.64.504-1.08.7-.436.197-.95.35-1.546.464l-3.552.67zm1.078-1.38l2.102-.397c.648-.123 1.145-.278 1.488-.467.348-.187.61-.41.788-.665.25-.36.408-.81.477-1.348.074-.545.04-1.18-.105-1.905-.2-1.006-.524-1.745-.97-2.218-.443-.48-.925-.765-1.445-.857-.374-.065-.95-.024-1.724.122l-2.067.392 1.457 7.344z"/><path d="M386.596 185.538l1.484-10.395 1.39-.316 6.267 8.636-1.473.335-1.826-2.632-4.084.927-.385 3.133-1.374.312zm1.887-4.558l3.312-.752-1.648-2.41c-.5-.734-.89-1.34-1.163-1.823.02.64-.01 1.287-.093 1.94l-.407 3.045z"/><path d="M364.255 198.38l-2.266-10.254 1.196-.765 8.923 6.003-1.266.808-2.64-1.856-3.51 2.242.74 3.07-1.18.753zm.168-4.912l2.845-1.817-2.397-1.71c-.727-.52-1.305-.958-1.732-1.318.246.593.443 1.21.596 1.853l.69 2.993z"/><path d="M340.052 248.925l-9.99-.902.32-3.36c.07-.757.174-1.33.307-1.72.185-.55.47-1.004.852-1.367.494-.474 1.1-.806 1.82-.996.714-.194 1.517-.252 2.407-.172.758.07 1.422.216 1.992.442.57.226 1.035.49 1.395.797.356.305.63.63.82.973.19.338.318.74.388 1.208.07.463.077.99.02 1.578l-.333 3.52zm-1.056-1.397l.198-2.082c.062-.642.048-1.152-.04-1.526-.088-.38-.233-.687-.435-.924-.285-.335-.683-.61-1.194-.825-.515-.22-1.15-.365-1.903-.433-1.046-.095-1.863.002-2.454.287-.596.282-1.012.654-1.248 1.116-.17.333-.29.884-.364 1.65l-.194 2.05 7.632.688z"/><path d="M340.243 268.506l-10.286-3.02-.106-1.393 9.694-4.728.112 1.473-2.94 1.36.313 4.084 3.108.85.105 1.374zm-4.32-2.518l-.254-3.312-2.692 1.222c-.818.372-1.49.654-2.02.844.65.078 1.3.207 1.95.387l3.014.858z"/><path d="M352.512 294.85l-8.22 5.602-2.153-3.013c-.44-.615-.707-1.163-.8-1.647-.103-.485-.054-.95.145-1.394.192-.448.477-.8.855-1.057.35-.24.75-.37 1.192-.396s.895.085 1.354.33c-.2-.583-.22-1.126-.053-1.624.164-.502.485-.917.963-1.243.385-.262.8-.426 1.25-.492.44-.067.834-.045 1.18.066.347.112.693.313 1.04.603.34.29.693.69 1.058 1.202l2.188 3.06zm-5.525 2.186l-1.24-1.737c-.338-.473-.61-.79-.82-.95-.276-.214-.557-.324-.845-.328-.29-.01-.578.084-.866.28-.273.186-.466.413-.58.68-.118.27-.13.55-.036.84.092.29.344.724.756 1.3l1.147 1.606 2.484-1.692zm3.796-2.587l-1.428-2c-.246-.344-.43-.576-.556-.697-.22-.214-.442-.368-.665-.46-.222-.094-.47-.126-.743-.096-.278.03-.548.137-.81.315-.305.208-.516.466-.63.772-.12.31-.126.63-.02.965.1.333.332.756.697 1.268l1.326 1.857 2.827-1.926z"/><path d="M364.53 307.558l-6.693 7.293-2.815-2.465c-.496-.434-.853-.79-1.07-1.063-.313-.382-.515-.766-.608-1.152-.096-.382-.08-.79.048-1.223.124-.435.352-.833.684-1.195.57-.62 1.252-.97 2.052-1.046.797-.074 1.723.35 2.78 1.276l1.913 1.676 2.722-2.965.987.865zm-4.498 2.96l-1.93-1.69c-.638-.558-1.198-.84-1.68-.84-.48-.005-.914.205-1.3.626-.28.305-.44.635-.478.99-.045.356.03.682.224.978.126.188.414.48.862.87l1.91 1.673 2.392-2.606z"/><path d="M380.71 317.508l-5.188 8.384-3.805-2.248c-.764-.45-1.3-.872-1.602-1.26-.306-.382-.46-.836-.463-1.357 0-.522.14-1.014.426-1.474.368-.596.875-.98 1.52-1.156.648-.175 1.417-.075 2.31.3-.213-.318-.356-.59-.427-.82-.147-.494-.232-1.05-.25-1.672l-.083-3.164 1.43.845.055 2.415c.02.698.055 1.245.105 1.638.05.394.127.695.232.904.1.205.227.38.377.526.112.104.315.24.607.414l1.317.778 2.305-3.723 1.136.67zm-4.034 4.013l-2.44-1.44c-.52-.307-.957-.496-1.314-.565-.358-.067-.685-.03-.978.108-.296.144-.528.35-.696.62-.245.397-.298.81-.16 1.242.135.427.52.83 1.156 1.205l2.716 1.604 1.716-2.773z"/></g></g></g></svg>