<svg xmlns="http://www.w3.org/2000/svg" height="512" width="512" version="1"><defs><clipPath id="a"><path fill-opacity=".67" d="M0 0h512v512H0z"/></clipPath></defs><g clip-path="url(#a)"><path fill="#006" d="M1024 512V0H0v512h1024z"/><g><path fill-rule="evenodd" fill="#006" d="M0 0h512v256H0z"/><g stroke-width="1pt"><path fill="#fff" d="M0 0v28.62l454.74 227.37h57.24v-28.62L57.24 0H0zm511.98 0v28.62L57.24 255.99H0v-28.62L454.74 0h57.24z"/><path fill="#fff" d="M213.325 0v255.99h85.33V0h-85.33zM0 85.33v85.33h511.98V85.33H0z"/><path fill="#c00" d="M0 102.396v51.198h511.98v-51.198H0zM230.39 0v255.99h51.2V0h-51.2z"/><path fill="#c00" d="M0 255.99l170.66-85.33h38.16L38.16 255.99H0zM0 0l170.66 85.33H132.5L0 19.08V0zm303.16 85.33L473.82 0h38.16L341.32 85.33h-38.16zm208.82 170.66l-170.66-85.33h38.16l132.5 66.25v19.08z"/></g></g><g><path fill-opacity=".996" fill="#fff" d="M493.562 140.875V257.36c0 95.634-37.564 183.177-149 236.39-111.39-53.213-148.96-140.753-148.96-236.39V140.876h298.014z"/><path fill-opacity=".996" fill="#fdc300" d="M483.578 152.746v108.648c0 89.2-35.036 170.854-138.975 220.484-103.943-49.63-138.976-131.284-138.976-220.484V152.746h277.965z"/><g stroke="#000" stroke-width=".063"><path d="M279.884 200.382c-2.01-1.51-4.194-2.43-7.208-2.515.667-7.378-4.695-10.564-8.553-11.905-3.85-1.342-5.196-2.85-5.863-5.87-.672-3.017-2.684-4.86-6.205-5.867-3.52-1.007-6.54-4.528-7.88-6.205-1.34-1.676-1.846-1.34-2.85 1.51-1.008 2.85-5.03 8.216-1.344 8.384-2.677 2.18-4.187 4.695-2.512 8.048-1.846 1.51-3.185 3.69-.672 4.527 2.518.837 3.185 1.508 3.356 2.18-2.262 0-2.85 4.526 2.513 5.532-1.174.168-1.675 3.857.507 3.857-3.02 0-5.54 4.527-9.39 4.527-3.858 0-5.87.837-6.035 2.515-.17 1.676-2.182 3.688-3.185 4.527 2.85.334 4.69 0 6.2-1.175s4.022-1.51 5.703-.168c1.676 1.342 5.197 2.012 6.872 1.677-3.686 2.515-6.37 5.87-6.706 9.054-.336 3.187-2.512 6.875-5.03 7.882-2.514 1.006-5.864 3.69-7.038 6.874 3.185 7.88 7.704 9.828 12.234 11.905 8.05 3.69 13.077 6.37 16.433 10.06 3.35 3.69 4.694 1.006 9.72 7.377 5.03 6.372 9.726 18.445 14.752 20.457 5.03 2.012 11.4.67 15.088-5.7 3.692-6.372 6.04-70.76-12.906-81.49z" fill="#ff9e3d"/><path d="M288.43 173.55c-4.694 5.032-10.734 10.062-9.725 19.117s2.01 23.81-6.37 28.84c-8.383 5.03-12.405 17.774-2.348 25.152 10.057 7.377 10.393 16.432 12.068 24.815 1.68 8.384 6.04 15.09 12.746 9.39 6.702 1.006 10.395-1.677 10.395-7.042s.336-8.384 5.36-10.06c5.033-1.678 6.372-3.355 8.72-7.882 2.347-4.526 3.686-6.538 2.347-9.22-1.34-2.684-1.846-8.217-.838-12.242 1.01-4.024-1.34-6.204-2.683-8.72-1.338-2.514-1.84-4.694-1.173-8.047.672-3.353-1.003-5.533-3.35-7.21-2.348-1.676-3.357-3.353-2.85-6.036.502-2.683-1.68-4.36-4.193-6.372s-4.36-4.694-4.36-8.72c0-4.023-7.71-13.413-13.743-15.76z" fill="#ff927f"/><path d="M290.31 283.046c11.232-2.85 10.23-21.295 8.554-29.008-1.68-7.713-5.988-18.76-2.684-27.5 4.696-12.407-5.703-24.145-3.02-28.84 2.684-4.695 2.348-7.21 2.012-8.72-.33-1.508-2.85-2.682-3.014.504-.17 3.186-1.01 4.36-3.02 6.372s-1.51 6.37 0 11.234c1.51 4.862 4.695 12.24-.337 21.966-5.024 9.725-2.956 14.06-1 18.612 3.013 7.042 10.227 31.524 2.51 35.38z" fill="#ff9ee1"/><path d="M239.998 177.91c1.26 0 3.692-.503 3.692 1.174" fill="none"/><path d="M237.49 185.958c1.51-1.09 4.195.167 6.873-1.425" fill="none"/><path d="M240.17 192.666c2.01 0 4.694-.084 7.207-2.096" fill="none"/><path d="M242.676 198.2c1.846 0 5.282-1.174 6.12-3.605" fill="none"/><path d="M243.19 202.058c3.6-.168 8.38 1.174 9.047-.084" fill="none"/><path d="M243.36 213.963c2.513-2.348 8.467-3.94 9.806-6.372" fill="none"/><path d="M249.742 176.572c4.188 1.342 2.455 3.933 4.524 5.533 3.692 2.85.336 6.037 3.356 6.875 3.014.838 2.963 1.348 2.177 4.695-.924 3.94 2.848 4.108 1.51 6.707" fill="none"/><path d="M272.705 197.87c-1.676 0-6.62.166-8.718 4.61" fill="none"/><path d="M236.92 246.242c1.933.336 2.896-.763 3.437-1.844.587-1.174.838-2.013 2.598-2.096 1.76-.085 4.445-.587 5.032-1.93.587-1.34 2.683-.083 4.444-3.604 1.762-3.52 2.936-7.713 7.625-9.222" fill="none"/></g><g stroke="#000" stroke-width=".063"><path d="M369.912 319.508c1.898 2.757-.068 5.738 3.15 6.93 3.774 1.396.48 6.358 4.93 8.106 3.943 1.552.03 6.295 4.29 8.425 3.813 1.907-.637 6.358 4.45 8.9 5.084 2.544-.956 8.266 2.86 10.492 3.813 2.225-1.27 7.948 3.18 10.173 4.45 2.225-1.908 6.676 2.223 9.855 4.13 3.18-.95 7.948 3.18 10.81s-2.536 6.68 1.59 10.808c3.18 3.18-1.146 6.293 1.27 11.127 1.59 3.18-1.59 15.896-10.49 14.624-3.18 5.404-15.573 10.172-20.023 8.583-4.45 3.18-18.752 7.63-26.068.636-7.305 6.992-21.613 2.542-26.063-.637-4.45 1.59-16.842-3.18-20.022-8.584-8.9 1.27-12.08-11.446-10.49-14.625 2.416-4.834-1.908-7.948 1.27-11.127 4.126-4.127-2.54-7.947 1.59-10.81s-.95-7.63 3.18-10.808c4.13-3.18-2.228-7.63 2.222-9.855 4.45-2.225-.632-7.948 3.18-10.173 3.818-2.226-2.222-7.948 2.86-10.49 5.09-2.544.64-6.995 4.45-8.903 4.263-2.13.348-6.874 4.29-8.426 4.45-1.748 1.158-6.71 4.93-8.106 3.27-1.21 1.185-4.268 3.248-7.06 9.464 3.722 38.763 6.395 50.814.13z" fill="#00a728"/><g fill-opacity=".996" fill="#fdc300"><path d="M322.904 336.138c.006 1.428-.03 2.85-1.35 4.61-2.86 3.815 1.27 5.723-1.91 9.855-3.173 4.133.64 6.677-2.86 10.173-3.493 3.497.64 6.677-2.86 10.492-3.493 3.815.638 6.358-2.86 9.854-3.493 3.498.638 7.313-2.86 10.81-3.494 3.497.637 7.947-3.18 12.08-3.812 4.133.638 7.312-2.542 10.49-3.18 3.18-.32 6.36-2.54 8.584 3.81-2.86 3.81-7.31 6.67-9.536 2.862-2.226-.95-5.405.64-6.995s.32-8.265 3.18-11.444c2.86-3.18.318-9.537 2.86-11.762s.632-8.9 3.81-11.127 0-7.63 2.543-10.49c2.547-2.86 0-7.312 2.547-10.81 2.54-3.496.114-6.67 1.903-9.536.798-1.272.798-10.49-1.19-5.246z"/><path d="M332.078 340.11c-2.222 4.133 1.59 5.086-1.27 9.22s1.59 7.31-1.59 11.444 1.59 6.358-1.27 10.49c-2.862 4.134 1.27 6.36-1.272 9.54-2.547 3.178 1.903 6.357-1.27 10.17-3.18 3.817 1.27 6.678-1.277 10.175-2.542 3.496.956 7.31-1.272 10.17-2.222 2.863 1.59 6.996-1.59 10.81s.64 6.36-1.27 8.903c3.818-1.272 2.387-6.518 3.818-7.63 1.43-1.113-.48-8.425 1.743-10.333 2.227-1.907-1.43-7.79.637-10.332 3.5-4.29.48-7.153 2.542-10.49 2.067-3.34-.788-7.624.796-9.856 2.7-3.815-1.196-7.254.792-10.014 2.86-3.974-.552-7.246 1.43-9.855 3.02-3.974-.318-7.948.958-10.015 1.27-2.066 3.333-10.967-.638-12.398z"/><path d="M344.442 343.58c-2.222 5.54 1.59 7.756.32 12.187-1.27 4.432 1.59 7.755-.32 12.555-1.903 4.8 2.547 8.494 0 14.772-2.54 6.278 1.64 7.84 0 14.032-1.903 7.202 3.18 11.017 0 16.104-3.173 5.086 3.64 6.77.32 12.08-1.59 2.544.16 9.06 2.7 1.272 2.547-7.79-1.903-8.742.32-11.922 2.227-3.18-.793-11.603.16-16.054.956-4.45-2.223-10.49-.16-15.26 2.068-4.768-3.18-9.855-1.112-13.988 2.07-4.132-.95-9.22.952-12.557 1.91-3.337-1.43-7.788-.633-9.695.79-1.908-.798-8.955-2.548-3.524z"/></g><path d="M368.26 323.258c0-35.923-5.083-48.322-23.84-48.322-18.752 0-23.835 12.4-23.835 48.322h47.675z" fill="#ef072d"/><g fill="none"><path d="M327.576 320.397c-3.498 3.497.64 6.04-2.86 10.173s-.32 6.358-3.18 10.173 1.27 5.723-1.908 9.856c-3.174 4.13.638 6.675-2.86 10.172-3.494 3.497.637 6.676-2.86 10.49-3.494 3.816.637 6.36-2.862 9.856-3.492 3.497.64 7.312-2.86 10.81-3.493 3.496.638 7.946-3.18 12.08-3.81 4.132.64 7.31-2.54 10.49-3.18 3.18-.32 6.358-2.542 8.584-2.228 2.225-2.54 5.326-1.59 6.676"/><path d="M334.243 321.668c-3.174 4.133 1.59 6.04-1.27 9.537-2.86 3.498 1.27 4.77-.952 8.902s1.59 5.087-1.27 9.22 1.59 7.31-1.59 11.444 1.59 6.36-1.27 10.493c-2.86 4.132 1.27 6.357-1.27 9.537-2.548 3.18 1.902 6.358-1.272 10.173-3.18 3.815 1.27 6.676-1.276 10.173-2.54 3.497.957 7.312-1.27 10.173-2.223 2.86 1.59 6.993-1.59 10.808s.638 6.358-1.27 8.902c-1.91 2.543-3.414 6.278-1.59 7.312"/><path d="M344.442 325.487c-1.584 6.646 2.228 12.555 0 18.094-2.222 5.54 1.59 7.756.32 12.187-1.27 4.432 1.59 7.755-.32 12.555-1.903 4.8 2.547 8.494 0 14.772-2.54 6.278 1.64 7.84 0 14.032-1.903 7.202 3.18 11.017 0 16.104-3.173 5.086 2.867 6.358.32 12.08-2.542 5.723 1.59 7.948-.32 13.67"/><path d="M361.308 320.397c3.5 3.497-.638 6.04 2.86 10.173 3.5 4.133.32 6.358 3.18 10.173s-1.27 5.723 1.91 9.856c3.173 4.13-.64 6.675 2.86 10.172 3.492 3.497-.64 6.676 2.86 10.49 3.493 3.816-.638 6.36 2.86 9.856 3.493 3.497-.638 7.312 2.86 10.81 3.494 3.496-.637 7.946 3.18 12.08 3.812 4.132-.638 7.31 2.542 10.49 3.18 3.18.32 6.358 2.54 8.584 2.23 2.225 2.548 5.326 1.59 6.676"/><path d="M354.642 321.668c3.174 4.133-1.59 6.04 1.27 9.537 2.86 3.498-1.27 4.77.952 8.902 2.228 4.133-1.59 5.087 1.27 9.22s-1.59 7.31 1.59 11.444-1.59 6.36 1.27 10.493c2.862 4.132-1.27 6.357 1.272 9.537 2.547 3.18-1.903 6.358 1.276 10.173 3.174 3.815-1.276 6.676 1.27 10.173 2.542 3.497-.956 7.312 1.27 10.173 2.224 2.86-1.588 6.993 1.59 10.808s-.637 6.358 1.272 8.902c1.91 2.543 3.42 6.278 1.59 7.312"/></g><path d="M320.625 323.258c0-35.923 5.082-48.322 23.835-48.322-8.582 0-13.824 6.676-15.254 11.127s-.638 4.132 1.27 2.384.952 2.066-.632 4.133c-1.59 2.066-3.18 7.948-.957 6.04 2.228-1.907 3.97.318 1.59 3.656s-4.45 11.127-2.07 8.425c2.39-2.7 2.862 1.75 1.437 3.975-1.436 2.225-1.276 4.132 0 3.18 1.27-.955 1.11 3.655-.16 5.403h-9.06z"/><path d="M364.613 321.195c0-28.135-3.493-36.56-10.484-39.42-3.96-1.623-4.075-1.272-2.183 1.27s1.6 6.2-.148 3.657c-1.745-2.543-2.326-3.02-3.056-1.907s2.035 6.358 4.074 11.127c1.642 3.835.582 5.722-1.89 1.907s-2.474-.36-.303 2.86c2.786 4.133 2.7 16.69 2.7 21.936l11.288-1.43z"/><path d="M344.442 328.507c7.47 0 15.647-1.33 21.14-3.464 6.52-2.53 6.866-4.755 4.61-7.594-1.59-2-5.09-.8-8.422.665-3.34 1.465-12.558 2.398-17.328 2.398-4.763 0-13.982-.933-17.322-2.398-3.333-1.465-6.83-2.665-8.42-.666-2.258 2.838-1.91 5.062 4.61 7.593 5.486 2.133 13.668 3.464 21.132 3.464z" fill="#ef072d"/></g><g fill-rule="evenodd" fill="#b95a1e"><path d="M779.41 912.6s-.12 103.6 0 179.24c.12 75.63 19.822 104.91 54.262 103.59 34.44-1.33 41.108-58.83 34.53-92.08-6.576-33.26-53.24-198.97-53.24-198.97l-35.552 8.222z" transform="matrix(.077 -.05 .048 .082 314.447 245.698)" stroke="#000" stroke-width="4.375"/><path d="M779.41 912.6s-.12 103.6 0 179.24c.12 75.63 19.822 104.91 54.262 103.59 34.44-1.33 41.108-58.83 34.53-92.08-6.576-33.26-53.24-198.97-53.24-198.97l-35.552 8.222z" transform="matrix(.088 -.02 .018 .093 330.446 211.958)" stroke="#000" stroke-width="4.375"/><path d="M779.41 912.6s-.12 103.6 0 179.24c.12 75.63 19.822 104.91 54.262 103.59 34.44-1.33 41.108-58.83 34.53-92.08-6.576-33.26-53.24-198.97-53.24-198.97l-35.552 8.222z" transform="matrix(.091 0 0 .096 344.03 194.88)" stroke="#000" stroke-width="4.375"/><path d="M779.53 255.12c159.57-1.394 177.16-35.432 177.16-35.432s35.43-70.866 17.716-88.584c-17.717-17.716-194.88-17.716-194.88-17.716v141.73z" transform="matrix(.056 0 0 .096 370.855 257.565)" stroke="#000" stroke-width="5.554"/><path d="M779.53 255.12c106.3 0 124.02-35.432 124.02-35.432s35.43-70.866 17.716-88.584c-17.717-17.716-141.73-17.716-141.73-17.716v141.73z" transform="matrix(.091 0 0 .096 344.03 250.786)" stroke="#000" stroke-width="4.375"/><path d="M779.53 255.12c88.583 0 141.73-35.433 141.73-35.433s35.43-70.866 17.716-88.584c-17.72-17.72-159.45-17.71-159.45-17.71v141.73z" transform="matrix(.091 0 0 .096 344.03 244.006)" stroke="#000" stroke-width="4.375"/><path d="M832.68 113.39s70.866-88.583 194.88-177.17c124.01-88.582 213.73-156.72 230.31-141.73 0 17.717-106.3 106.3-194.88 177.17C974.4 42.52 868.1 148.82 868.1 148.82l-35.433-35.433z" transform="matrix(.113 0 0 .096 326.425 195.076)" stroke="#000" stroke-width="3.927"/><path d="M832.68 113.39s70.05-52.025 204.38-124.02c132.23-63.918 318.89-53.15 318.89-35.433-17.71 17.716-177.16 17.716-283.46 70.866-101.48 50.73-204.39 124.01-204.39 124.01l-35.433-35.433z" transform="matrix(.113 0 0 .096 327.356 201.856)" stroke="#000" stroke-width="3.927"/><path d="M832.68 113.39s61.675-35.068 204.38-88.583c141.72-53.15 329.87-17.717 329.87 0-17.7 17.713-170.4 6.944-276.7 35.43-109.99 27.757-222.09 88.583-222.09 88.583l-35.433-35.433z" transform="matrix(.113 0 0 .096 327.442 213.527)" stroke="#000" stroke-width="3.927"/><path d="M832.68 113.39s71.08-70.976 222.47-88.583c152.3-17.72 276.3 88.583 276.3 106.29-17.7 17.72-159.5-77.972-265.7-64.286-112.67 13.655-197.69 82.007-197.69 82.007l-35.433-35.433z" transform="matrix(.113 0 0 .096 328.202 225.371)" stroke="#000" stroke-width="3.927"/><path d="M779.53 255.12c159.57-1.394 159.45-45.508 159.45-45.508s35.43-70.866 17.716-88.584c-17.717-17.716-177.16-7.64-177.16-7.64v141.73z" transform="matrix(.091 0 0 .096 344.03 235.546)" stroke="#000" stroke-width="4.375"/><path d="M779.53 255.12c159.57-1.394 177.16-35.432 177.16-35.432s35.43-70.866 17.716-88.584c-17.717-17.716-194.88-17.716-194.88-17.716v141.73z" transform="matrix(.091 0 0 .096 344.03 228.767)" stroke="#000" stroke-width="4.375"/><path d="M779.53 255.12c159.57-1.394 194.88-35.433 194.88-35.433s35.43-70.866 17.716-88.583c-17.717-17.716-212.6-17.716-212.6-17.716v141.73z" transform="matrix(.091 0 0 .096 344.03 220.295)" stroke="#000" stroke-width="4.375"/><path d="M779.53 255.12c159.57-1.394 212.6-35.433 212.6-35.433s17.714-70.866 0-88.583c-17.717-17.716-212.6-17.716-212.6-17.716v141.73z" transform="matrix(.091 0 0 .096 344.03 211.823)" stroke="#000" stroke-width="4.375"/><path d="M832.68 113.39S946.89 24.807 946.89-46.06c0-70.866-50.35-141.73-64.625-177.17 28.552 0 93.176 106.3 93.176 177.17 0 77.444-107.32 194.88-107.32 194.88l-35.432-35.433z" transform="matrix(.113 0 0 .096 324.23 188.1)" stroke="#000" stroke-width="3.927"/><path d="M832.68 113.39s-14.276-53.15-14.276-159.45c0-124.02 63-202.89 85.654-230.32 5.898 27.422-57.102 124.02-57.102 230.32 0 77.444 21.157 194.88 21.157 194.88l-35.433-35.433z" transform="matrix(.113 0 0 .096 324.23 188.1)" stroke="#000" stroke-width="3.927"/><path d="M779.53 255.12c159.57-1.394 212.6-35.433 212.6-35.433s0-70.866-17.716-88.583c-17.717-17.716-194.88-17.716-194.88-17.716v141.73z" transform="matrix(.091 0 0 .096 344.03 203.352)" stroke="#000" stroke-width="4.375"/><path d="M779.53 255.12c159.57-1.394 194.88-35.433 194.88-35.433s0-70.866-17.716-88.583c-17.717-17.716-177.16-17.716-177.16-17.716v141.73z" transform="matrix(.091 0 0 .096 344.03 194.88)" stroke="#000" stroke-width="4.375"/><path d="M318.9 1318.1c55.065-122.32 70.866-336.61 70.866-372.05 0-99.782-32.948-585.11-35.433-779.53s124.02-301.18 248.03-301.18c106.3 0 177.17 70.866 177.17 177.17h-53.15c0-70.866-53.15-124.02-124.02-124.02-106.3 0-187.99 83.74-194.88 248.03-7.605 189.89 21.316 682.94 17.717 814.96s-51.234 249.72-106.3 336.61z" transform="matrix(-.091 0 0 .096 485.425 194.88)" stroke="#fdc301" stroke-width="11.026"/><path d="M779.41 912.6s-.12 103.6 0 179.24c.12 75.63 19.822 104.91 54.262 103.59 34.44-1.33 41.108-58.83 34.53-92.08-6.576-33.26-53.24-198.97-53.24-198.97l-35.552 8.222z" transform="matrix(-.077 -.05 -.048 .082 515.008 245.698)" stroke="#000" stroke-width="4.375"/><path d="M779.53 32.884c124.13.14 177.77 102.39 177.46 100.31l-35.734 33.347c-18.985 17.718-141.73 17.718-140.21 17.627l-1.52-151.29z" transform="matrix(.091 0 0 .096 344.03 194.88)" stroke="#000" stroke-width="4.375"/><path d="M779.41 912.6s-.12 103.6 0 179.24c.12 75.63 19.822 104.91 54.262 103.59 34.44-1.33 41.108-58.83 34.53-92.08-6.576-33.26-53.24-198.97-53.24-198.97l-35.552 8.222z" transform="matrix(-.088 -.02 -.018 .093 498.996 211.958)" stroke="#000" stroke-width="4.375"/><path d="M779.41 912.6s-.12 103.6 0 179.24c.12 75.63 19.822 104.91 54.262 103.59 34.44-1.33 41.108-58.83 34.53-92.08-6.576-33.26-53.24-198.97-53.24-198.97l-35.552 8.222z" transform="matrix(-.091 0 0 .096 485.412 194.88)" stroke="#000" stroke-width="4.375"/><path d="M779.53 255.12c159.57-1.394 177.16-35.432 177.16-35.432s35.43-70.866 17.716-88.584c-17.717-17.716-194.88-17.716-194.88-17.716v141.73z" transform="matrix(-.056 0 0 .096 458.587 257.565)" stroke="#000" stroke-width="5.554"/><path d="M779.53 255.12c106.3 0 124.02-35.432 124.02-35.432s35.43-70.866 17.716-88.584c-17.717-17.716-141.73-17.716-141.73-17.716v141.73z" transform="matrix(-.091 0 0 .096 485.412 250.786)" stroke="#000" stroke-width="4.375"/><path d="M779.53 255.12c88.583 0 141.73-35.433 141.73-35.433s35.43-70.866 17.716-88.584c-17.72-17.72-159.45-17.71-159.45-17.71v141.73z" transform="matrix(-.091 0 0 .096 485.412 244.006)" stroke="#000" stroke-width="4.375"/><path d="M832.68 113.39s70.866-88.583 194.88-177.17c124.01-88.582 213.73-156.72 230.31-141.73 0 17.717-106.3 106.3-194.88 177.17C974.4 42.52 868.1 148.82 868.1 148.82l-35.433-35.433z" transform="matrix(-.113 0 0 .096 503.018 195.076)" stroke="#000" stroke-width="3.927"/><path d="M832.68 113.39s70.05-52.025 204.38-124.02c132.23-63.918 318.89-53.15 318.89-35.433-17.71 17.716-177.16 17.716-283.46 70.866-101.48 50.73-204.39 124.01-204.39 124.01l-35.433-35.433z" transform="matrix(-.113 0 0 .096 502.098 201.856)" stroke="#000" stroke-width="3.927"/><path d="M832.68 113.39s61.675-35.068 204.38-88.583c141.72-53.15 329.87-17.717 329.87 0-17.7 17.713-170.4 6.944-276.7 35.43-109.99 27.757-222.09 88.583-222.09 88.583l-35.433-35.433z" transform="matrix(-.113 0 0 .096 502.012 213.527)" stroke="#000" stroke-width="3.927"/><path d="M832.68 113.39s71.08-70.976 222.47-88.583c152.3-17.72 276.3 88.583 276.3 106.29-17.7 17.72-159.5-77.972-265.7-64.286-112.67 13.655-197.69 82.007-197.69 82.007l-35.433-35.433z" transform="matrix(-.113 0 0 .096 501.252 225.371)" stroke="#000" stroke-width="3.927"/><path d="M779.53 255.12c159.57-1.394 159.45-45.508 159.45-45.508s35.43-70.866 17.716-88.584c-17.717-17.716-177.16-7.64-177.16-7.64v141.73z" transform="matrix(-.091 0 0 .096 485.412 235.546)" stroke="#000" stroke-width="4.375"/><path d="M779.53 255.12c159.57-1.394 177.16-35.432 177.16-35.432s35.43-70.866 17.716-88.584c-17.717-17.716-194.88-17.716-194.88-17.716v141.73z" transform="matrix(-.091 0 0 .096 485.412 228.767)" stroke="#000" stroke-width="4.375"/><path d="M779.53 255.12c159.57-1.394 194.88-35.433 194.88-35.433s35.43-70.866 17.716-88.583c-17.717-17.716-212.6-17.716-212.6-17.716v141.73z" transform="matrix(-.091 0 0 .096 485.412 220.295)" stroke="#000" stroke-width="4.375"/><path d="M779.53 255.12c159.57-1.394 212.6-35.433 212.6-35.433s17.714-70.866 0-88.583c-17.717-17.716-212.6-17.716-212.6-17.716v141.73z" transform="matrix(-.091 0 0 .096 485.412 211.823)" stroke="#000" stroke-width="4.375"/><path d="M832.68 113.39S946.89 24.807 946.89-46.06c0-70.866-50.35-141.73-64.625-177.17 28.552 0 93.176 106.3 93.176 177.17 0 77.444-107.32 194.88-107.32 194.88l-35.432-35.433z" transform="matrix(-.113 0 0 .096 505.224 188.1)" stroke="#000" stroke-width="3.927"/><path d="M832.68 113.39s-14.276-53.15-14.276-159.45c0-124.02 63-202.89 85.654-230.32 5.898 27.422-57.102 124.02-57.102 230.32 0 77.444 21.157 194.88 21.157 194.88l-35.433-35.433z" transform="matrix(-.113 0 0 .096 505.224 188.1)" stroke="#000" stroke-width="3.927"/><path d="M779.53 255.12c159.57-1.394 212.6-35.433 212.6-35.433s0-70.866-17.716-88.583c-17.717-17.716-194.88-17.716-194.88-17.716v141.73z" transform="matrix(-.091 0 0 .096 485.412 203.352)" stroke="#000" stroke-width="4.375"/><path d="M779.53 255.12c159.57-1.394 194.88-35.433 194.88-35.433s0-70.866-17.716-88.583c-17.717-17.716-177.16-17.716-177.16-17.716v141.73z" transform="matrix(-.091 0 0 .096 485.412 194.88)" stroke="#000" stroke-width="4.375"/><path d="M318.9 1318.1c55.065-122.32 70.866-336.61 70.866-372.05 0-99.782-32.948-585.11-35.433-779.53s124.02-301.18 248.03-301.18c106.3 0 177.17 70.866 177.17 177.17h-53.15c0-70.866-53.15-124.02-124.02-124.02-106.3 0-187.99 83.74-194.88 248.03-7.605 189.89 21.316 682.94 17.717 814.96s-51.234 249.72-106.3 336.61z" transform="matrix(.091 0 0 .096 344.018 194.88)" stroke="#fdc301" stroke-width="11.026"/><path d="M779.53 32.884c124.13.14 177.77 102.39 177.46 100.31l-35.734 33.347c-18.985 17.718-141.73 17.718-140.21 17.627l-1.52-151.29z" transform="matrix(-.091 0 0 .096 485.412 194.88)" stroke="#000" stroke-width="4.375"/></g></g></g></svg>