<svg xmlns="http://www.w3.org/2000/svg" height="512" width="512" version="1"><defs><clipPath id="a"><path fill-opacity=".67" d="M0 0h496.06v496.06H0z"/></clipPath></defs><g fill-rule="evenodd" clip-path="url(#a)" transform="scale(1.032 1.032)"><path stroke-width="1pt" fill="#004e00" d="M0 0h744.09v496.06H0z"/><g stroke-width="1pt"><path d="M252.47 166.54h13.68" fill="#ffef00"/><path d="M255.117 133.217c27.032 13.035 59.22-.06 70.864-18.056 11.94-16.793 13.407-44.992-7.235-70.865 32.04 26.572 39.123 56.693 23.183 81.497-21.262 28.344-68.43 27.524-86.81 7.425z" fill="#fff"/><path fill="#feffff" d="M296.92 76.18l1.535-5.37-4.36-3.344 5.436-.162L301.277 62l1.83 5.272 5.44.07-4.306 3.418 1.614 5.347-4.49-3.16z"/><path fill="#feffff" d="M270.07 109.842l1.535-5.37-4.36-3.345 5.436-.162 1.746-5.304 1.83 5.273 5.44.07-4.306 3.418 1.614 5.348-4.49-3.16z"/><path fill="#feffff" d="M271.84 83.275l1.535-5.37-4.36-3.345 5.436-.162 1.746-5.304 1.83 5.272 5.44.07-4.306 3.418 1.614 5.347-4.49-3.16z"/><path fill="#feffff" d="M271.84 56.693l1.535-5.37-4.36-3.346 5.436-.16 1.746-5.305 1.83 5.27 5.44.07-4.306 3.42 1.614 5.347-4.49-3.162z"/><path fill="#feffff" d="M242 90.36l1.535-5.37-4.36-3.344 5.436-.162 1.746-5.304 1.83 5.272 5.44.07-4.306 3.418 1.614 5.347-4.49-3.16z"/></g><g><path stroke-width="1pt" fill="#980000" d="M46.063 0h159.45v496.06H46.063z"/><g stroke-width="1pt" fill="#e69900"><path d="M46.064 129.33v-3.543l6.59-8.86-1.328-1.77 3.986-5.315-1.328-1.772-2.658 3.543-1.33-1.77L59.3 97.44l1.327 1.772-1.328 1.772 2.738 3.58 6.562-8.895-6.673-8.62-2.628 3.304 1.327 1.77-1.328 1.773-9.303-12.402 1.33-1.77 2.657 3.542 1.328-1.772-3.986-5.315 1.33-1.77-6.592-8.86v-3.543l9.248 12.402-1.328 1.77 3.986 5.315-2.658 3.544 2.658 3.542 3.986-5.315L71.31 95.88l-9.354 12.19-3.986-5.315-2.658 3.544 2.658 3.542-3.986 5.315 1.328 1.77-9.248 12.403z"/><path d="M46.063 85.04l1.33 3.543v5.315h3.985l2.657 1.772-2.657 1.772h-3.986v5.315l-1.33 3.543V85.04z"/></g><g stroke-width="1pt" fill="#e69900"><path d="M46.064 214.368v-3.543l6.59-8.858-1.328-1.772 3.986-5.315-1.328-1.772-2.658 3.543-1.33-1.77 9.303-12.402 1.327 1.772-1.328 1.772 2.738 3.58 6.562-8.895-6.673-8.62-2.628 3.305 1.327 1.772-1.328 1.77-9.303-12.4 1.33-1.772 2.657 3.543 1.328-1.772-3.986-5.314 1.33-1.773-6.592-8.858v-3.545l9.248 12.402-1.328 1.772 3.986 5.314-2.658 3.543 2.658 3.543 3.986-5.314 9.354 12.612-9.354 12.19-3.986-5.315-2.658 3.544 2.658 3.543-3.986 5.315 1.328 1.772-9.248 12.4z"/><path d="M46.063 170.078l1.33 3.543v5.316h3.985l2.657 1.772-2.657 1.772h-3.986v5.315l-1.33 3.543v-21.26z"/></g><g stroke-width="1pt" fill="#e69900"><path d="M46.065 299.41v-3.544l6.59-8.858-1.328-1.772 3.986-5.315-1.328-1.77-2.658 3.543-1.33-1.772 9.303-12.4 1.328 1.77-1.328 1.773 2.74 3.58 6.56-8.895-6.672-8.62-2.628 3.305 1.328 1.772-1.328 1.77-9.302-12.4 1.33-1.772 2.657 3.543 1.328-1.772-3.986-5.315 1.33-1.772-6.592-8.858v-3.543l9.248 12.4-1.328 1.773 3.986 5.315-2.657 3.543 2.658 3.543 3.987-5.314 9.354 12.613-9.353 12.19-3.986-5.315-2.657 3.543 2.658 3.543-3.985 5.316 1.328 1.772-9.248 12.4z"/><path d="M46.064 255.12l1.33 3.542v5.315h3.985l2.656 1.772-2.657 1.77h-3.987v5.316l-1.33 3.543v-21.26z"/></g><g stroke-width="1pt" fill="#e69900"><path d="M46.065 379.13v-3.543l6.59-8.858-1.328-1.773 3.986-5.315-1.328-1.772-2.658 3.543-1.33-1.77L59.3 347.24l1.328 1.772-1.328 1.772 2.74 3.58 6.56-8.895-6.672-8.62-2.628 3.304 1.328 1.772-1.328 1.77-9.302-12.4 1.33-1.772 2.657 3.543 1.328-1.772-3.986-5.315 1.33-1.77-6.592-8.86v-3.543l9.248 12.402-1.328 1.77 3.986 5.315-2.657 3.544 2.658 3.542 3.987-5.314 9.354 12.612-9.353 12.19-3.986-5.315-2.657 3.544 2.658 3.542-3.985 5.315 1.328 1.772-9.248 12.4z"/><path d="M46.064 334.84l1.33 3.543v5.315h3.985l2.656 1.772-2.657 1.772h-3.987v5.315l-1.33 3.543v-21.26z"/></g><g stroke-width="1pt" fill="#e69900"><path d="M205.51 129.33v-3.543l-6.592-8.86 1.33-1.77-3.987-5.315 1.33-1.772 2.657 3.543 1.328-1.77-9.3-12.403-1.33 1.772 1.33 1.772-2.74 3.58-6.562-8.895 6.673-8.62 2.628 3.304-1.328 1.77 1.328 1.773 9.3-12.402-1.327-1.77-2.658 3.542-1.33-1.772 3.987-5.315-1.33-1.77 6.592-8.86v-3.543l-9.25 12.402 1.33 1.77-3.987 5.315 2.658 3.544-2.657 3.542-3.986-5.315-9.354 12.613 9.354 12.19 3.986-5.315 2.658 3.544-2.657 3.542 3.986 5.315-1.33 1.77 9.25 12.403z"/><path d="M205.51 85.04l-1.33 3.543v5.315h-3.985l-2.657 1.772 2.657 1.772h3.986v5.315l1.33 3.543V85.04z"/></g><g stroke-width="1pt" fill="#e69900"><path d="M205.95 214.37v-3.544l-6.592-8.86 1.33-1.77-3.987-5.315 1.33-1.77 2.657 3.542 1.328-1.77-9.3-12.403-1.33 1.77 1.33 1.773-2.74 3.58-6.562-8.895 6.673-8.62 2.628 3.305-1.328 1.77 1.328 1.773 9.3-12.402-1.327-1.77-2.658 3.542-1.33-1.772 3.987-5.315-1.33-1.772 6.592-8.858v-3.544l-9.25 12.402 1.33 1.77-3.987 5.316 2.658 3.544-2.657 3.543-3.986-5.314-9.354 12.613 9.354 12.19 3.986-5.316 2.658 3.544-2.657 3.543 3.986 5.316-1.33 1.77 9.25 12.403z"/><path d="M205.95 170.08l-1.33 3.542v5.315h-3.985l-2.657 1.772 2.657 1.77h3.986v5.316l1.33 3.543v-21.26z"/></g><g stroke-width="1pt" fill="#e69900"><path d="M205.51 299.41v-3.544l-6.592-8.858 1.33-1.772-3.987-5.315 1.33-1.77 2.657 3.543 1.328-1.772-9.3-12.4-1.33 1.77 1.33 1.773-2.74 3.58-6.562-8.895 6.673-8.62 2.628 3.305-1.328 1.772 1.328 1.77 9.3-12.4-1.327-1.772-2.658 3.543-1.33-1.772 3.987-5.315-1.33-1.772 6.592-8.858v-3.543l-9.25 12.4 1.33 1.773-3.987 5.315 2.658 3.543-2.657 3.543-3.986-5.314-9.354 12.613 9.354 12.19 3.986-5.315 2.658 3.543-2.657 3.543 3.986 5.316-1.33 1.772 9.25 12.4z"/><path d="M205.51 255.12l-1.33 3.542v5.315h-3.985l-2.657 1.772 2.657 1.77h3.986v5.316l1.33 3.543v-21.26z"/></g><g stroke-width="1pt" fill="#e69900"><path d="M205.51 379.13v-3.543l-6.592-8.858 1.33-1.773-3.987-5.315 1.33-1.772 2.657 3.543 1.328-1.77-9.3-12.402-1.33 1.772 1.33 1.772-2.74 3.58-6.562-8.895 6.673-8.62 2.628 3.304-1.328 1.772 1.328 1.77 9.3-12.4-1.327-1.772-2.658 3.543-1.33-1.772 3.987-5.315-1.33-1.77 6.592-8.86v-3.543l-9.25 12.402 1.33 1.77-3.987 5.315 2.658 3.544-2.657 3.542-3.986-5.314-9.354 12.612 9.354 12.19 3.986-5.315 2.658 3.544-2.657 3.542 3.986 5.315-1.33 1.772 9.25 12.4z"/><path d="M205.51 334.84l-1.33 3.543v5.315h-3.985l-2.657 1.772 2.657 1.772h3.986v5.315l1.33 3.543v-21.26z"/></g><g stroke-width="1pt" fill="#e69900"><path d="M46.067 33.66v-3.543l6.59-8.86-1.328-1.77 3.985-5.315-1.328-1.772-2.658 3.543-1.33-1.77L59.302 1.77l1.328 1.772-1.328 1.772 2.74 3.58L68.6-.002l2.71-.002L61.96 12.4l-3.987-5.315-2.658 3.544 2.658 3.542-3.986 5.315 1.328 1.77-9.248 12.403z"/><path d="M46.067 0h7.972L51.38 1.772h-3.986v5.315l-1.33 3.543V0z"/></g><g stroke-width="1pt" fill="#e69900"><path d="M205.506 33.66v-3.543l-6.59-8.86 1.328-1.77-3.986-5.315 1.328-1.772 2.658 3.543 1.328-1.77-9.3-12.403-1.33 1.772 1.33 1.772-2.74 3.58-6.562-8.895-2.71-.002 9.354 12.402 3.986-5.315 2.658 3.544-2.658 3.542 3.986 5.315-1.328 1.77 9.248 12.403z"/><path d="M205.506 0h-7.972l2.657 1.772h3.987v5.315l1.33 3.543V0z"/></g><path d="M63.64 485.46s11.048-14.584 38.89-19.003c27.843-4.42 32.705 9.723 48.614 9.723 15.91 0 41.1-9.723 41.1-9.723s-25.19 18.56-44.635 18.12c-19.447-.442-26.076-9.723-45.963-8.397-19.888 1.325-38.007 9.722-38.007 9.28z" transform="matrix(.518 0 0 .689 79.56 154.66)" stroke-width="1pt" fill="#e69900"/><path d="M63.64 485.46s11.048-14.584 38.89-19.003c27.843-4.42 32.705 9.723 48.614 9.723 15.91 0 41.1-9.723 41.1-9.723s-25.19 18.56-44.635 18.12c-19.447-.442-26.076-9.723-45.963-8.397-19.888 1.325-38.007 9.722-38.007 9.28z" transform="matrix(-.518 0 0 .689 173.29 154.66)" stroke-width="1pt" fill="#e69900"/><g stroke-width="1pt" fill="#e69900"><path d="M93.29 472.558c-1.27-2.66-4.445-14.263-2.752-15.714 2.54-.966 9.315 10.88 8.68 21.516-4.445 2.417-19.475-.967-19.264-4.11 1.06-4.35 9.526-2.9 13.337-1.692z"/><path d="M83.877 462.394c-.827-2.95-2.127-15.175-.247-16.127 2.633-.246 7.41 13.207 5.137 23.435-4.72 1.14-18.878-6.313-18.183-9.328 1.71-3.965 9.758-.212 13.293 2.02z"/><path d="M76.51 451.084c-.558-3.06-.76-15.41 1.19-16.058 2.636.172 6.184 14.29 3.017 24.09-4.788.387-18.185-9.25-17.227-12.137 2.05-3.668 9.71 1.33 13.02 4.104z"/><path d="M71.02 438.724c-.2-3.138 1.02-15.367 3.022-15.605 2.584.714 4.466 15.38.21 24.4-4.775-.607-16.904-12.89-15.625-15.54 2.448-3.196 9.44 3.32 12.393 6.744z"/><path d="M67.127 426.233c.138-3.145 2.657-15.022 4.665-14.875 2.482 1.2 2.772 16.084-2.41 24.203-4.66-1.513-15.35-15.99-13.8-18.37 2.766-2.697 8.99 5.09 11.545 9.043z"/><path d="M67.944 411.947c-.356 12.594-2.642 12.745-6.808 3.443-1.844-3.513-2.057-18.118-.392-18.665 2.407-.054 7.14 10.354 7.2 15.222z"/></g><g stroke-width="1pt" fill="#e69900"><path d="M158.842 473.884c1.27-2.66 4.446-14.263 2.753-15.714-2.54-.966-9.315 10.88-8.68 21.516 4.445 2.417 19.475-.967 19.264-4.11-1.06-4.35-9.527-2.9-13.338-1.692z"/><path d="M168.256 463.72c.827-2.95 2.127-15.175.247-16.127-2.633-.246-7.41 13.207-5.137 23.435 4.72 1.14 18.878-6.313 18.183-9.328-1.71-3.965-9.76-.212-13.294 2.02z"/><path d="M175.622 452.41c.56-3.06.762-15.41-1.19-16.058-2.635.172-6.183 14.29-3.016 24.09 4.788.387 18.185-9.25 17.227-12.137-2.05-3.667-9.71 1.33-13.02 4.105z"/><path d="M181.113 440.05c.2-3.138-1.02-15.367-3.022-15.605-2.583.715-4.465 15.382-.208 24.402 4.774-.608 16.903-12.89 15.624-15.54-2.448-3.197-9.44 3.32-12.393 6.743z"/><path d="M185.006 427.56c-.138-3.146-2.657-15.023-4.665-14.876-2.48 1.2-2.77 16.084 2.41 24.203 4.662-1.514 15.352-15.99 13.8-18.37-2.765-2.698-8.988 5.088-11.544 9.042z"/><path d="M184.19 413.273c.355 12.594 2.64 12.745 6.807 3.443 1.844-3.513 2.057-18.118.392-18.665-2.408-.053-7.14 10.355-7.2 15.223z"/></g><g transform="matrix(.969 0 0 1.226 182.42 -74.639)"><path d="M-3.543 290.55h-5.315v3.543h-5.315v3.543h-21.26l-3.543 3.544 1.77 1.77h8.86l1.77-1.77h-8.857l1.772-1.772h12.4l-5.314 5.315h-12.402l-3.544-1.772-3.543 1.772h-12.402l-5.315-5.316 12.402.002 1.77 1.772-8.857-.002 1.772 1.773h8.858l1.772-1.77-3.544-3.544h-19.488v-3.543h-5.315v-3.543h-5.315v-15.945h5.315v-3.543h5.315v-3.543h19.488l3.544-3.545-1.772-1.77h-8.858l-1.772 1.772 8.858-.002-1.77 1.772-12.403.002 5.315-5.318h12.402l3.543 1.772 3.544-1.772h12.402l5.315 5.315h-12.4l-1.773-1.772h8.858l-1.772-1.77h-8.858l-1.77 1.77 3.542 3.544h21.26v3.542h5.315v3.543h5.315v15.945z" transform="matrix(1.488 0 0 1.24 3.502 -39.474)" stroke="#000" stroke-width=".125" fill="#980000"/><path d="M375.59 499.67v24.803h10.63v7.02h10.63v7.086h35.432l14.174 10.63 14.173-10.63h38.975v-7.02l10.63-.068v-7.087h10.63v-24.803h-10.63v-7.086l-10.63.068v-7.155H460.63l-14.174-10.63-14.174 10.63H396.85v7.154h-10.63v7.086h-10.63z" transform="matrix(.744 0 0 .62 -392.03 -6.521)" stroke="#e69900" stroke-width="1pt" fill="#004e00"/><path d="M425.2 492.52l-21.26 17.716V492.52h21.26z" transform="matrix(.744 0 0 .62 -392.03 -8.718)" stroke-width="1pt" fill="#980000"/><path d="M425.2 492.52l-21.26 17.717V492.52h21.26z" transform="matrix(-.744 0 0 .62 272.46 -8.718)" stroke-width="1pt" fill="#980000"/><path d="M425.2 492.52l-21.26 17.716V492.52h21.26z" transform="matrix(.744 0 0 -.62 -392.03 630.57)" stroke-width="1pt" fill="#980000"/><path d="M425.2 492.52l-21.26 17.717V492.52h21.26z" transform="matrix(-.744 0 0 -.62 272.46 630.57)" stroke-width="1pt" fill="#980000"/><path d="M474.8 506.69l-7.086 7.087h14.173l-7.087-7.087z" transform="matrix(.744 0 0 .62 -392.03 -10.915)" stroke-width="1pt" fill="#980000"/><path d="M418.11 506.69l-7.086 7.087h14.173l-7.087-7.087z" transform="matrix(.744 0 0 .62 -392.03 -10.915)" stroke-width="1pt" fill="#980000"/><path d="M418.11 506.69l-7.086 7.087h14.173l-7.087-7.087z" transform="matrix(.744 0 0 -.62 -392.03 632.77)" stroke-width="1pt" fill="#980000"/><path d="M418.11 506.69l-7.086 7.087h14.173l-7.087-7.087z" transform="matrix(.744 0 0 -.62 -349.84 632.77)" stroke-width="1pt" fill="#980000"/><path d="M418.11 506.69l-7.086 7.087h14.173l-7.087-7.087z" transform="matrix(.744 0 0 -.62 -370.94 643.75)" stroke-width="1pt" fill="#e69900"/><path d="M418.11 506.69l-7.086 7.087h14.173l-7.087-7.087z" transform="matrix(.744 0 0 -.62 -370.94 621.78)" stroke-width="1pt" fill="#e69900"/><path d="M418.11 506.69l-7.086 7.087h14.173l-7.087-7.087z" transform="matrix(.744 0 0 .62 -370.94 -21.899)" stroke-width="1pt" fill="#e69900"/><path d="M418.11 506.69l-7.086 7.087h14.173l-7.087-7.087z" transform="matrix(.744 0 0 .62 -370.94 .069)" stroke-width="1pt" fill="#e69900"/><path transform="matrix(.744 0 0 .62 -392.03 -6.521)" stroke="#000" stroke-width=".125" fill="#e69900" d="M467.72 506.69h14.173v3.543H467.72z"/><path transform="matrix(.744 0 0 .62 -392.03 -6.521)" stroke="#000" stroke-width=".125" fill="#c00" d="M414.57 510.24h7.087v3.543h-7.087z"/><path transform="matrix(.744 0 0 .62 -392.03 -6.521)" stroke="#000" stroke-width=".125" fill="#c00" d="M471.26 510.24h7.087v3.543h-7.087z"/><path transform="matrix(.744 0 0 .62 -392.03 -6.521)" stroke="#000" stroke-width=".125" fill="#900" d="M439.37 488.98h14.173v3.543H439.37z"/><path transform="matrix(.744 0 0 .62 -392.03 -6.521)" stroke="#000" stroke-width=".125" fill="#900" d="M439.37 496.06h14.173v3.543H439.37z"/><path transform="matrix(.744 0 0 .62 -392.03 -6.521)" stroke="#000" stroke-width=".125" fill="#900" d="M435.83 492.52h21.26v3.543h-21.26z"/><path transform="matrix(.744 0 0 .62 -392.03 -6.521)" stroke="#000" stroke-width=".125" fill="#900" d="M439.37 524.41h14.173v3.543H439.37z"/><path transform="matrix(.744 0 0 .62 -392.03 -6.521)" stroke="#000" stroke-width=".125" fill="#900" d="M439.37 531.5h14.173v3.543H439.37z"/><path transform="matrix(.744 0 0 .62 -392.03 -6.521)" stroke="#000" stroke-width=".125" fill="#900" d="M435.83 527.95h21.26v3.543h-21.26z"/><path transform="matrix(.744 0 0 .62 -392.03 -6.521)" stroke="#000" stroke-width=".125" fill="#e69900" d="M467.72 513.78h14.173v3.543H467.72z"/><path transform="matrix(.744 0 0 .62 -392.03 -6.521)" stroke="#000" stroke-width=".125" fill="#e69900" d="M411.02 506.69h14.173v3.543H411.02z"/><path transform="matrix(.744 0 0 .62 -392.03 -6.521)" stroke="#000" stroke-width=".125" fill="#e69900" d="M411.02 513.78h14.173v3.543H411.02z"/><path transform="matrix(.744 0 0 .62 -392.03 -6.521)" stroke="#000" stroke-width=".125" fill="#e69900" d="M407.48 510.24h7.087v3.543h-7.087z"/><path transform="matrix(.744 0 0 .62 -392.03 -6.521)" stroke="#000" stroke-width=".125" fill="#e69900" d="M421.65 510.24h7.087v3.543h-7.087z"/><path transform="matrix(.744 0 0 .62 -392.03 -6.521)" stroke="#000" stroke-width=".125" fill="#e69900" d="M464.17 510.24h7.087v3.543h-7.087z"/><path transform="matrix(.744 0 0 .62 -392.03 -6.521)" stroke="#000" stroke-width=".125" fill="#e69900" d="M478.35 510.24h7.087v3.543h-7.087z"/><ellipse fill="#fff" transform="matrix(.744 0 0 .62 -374.14 -38.912)" cx="413.68" rx=".886" cy="581.99" ry=".886" stroke-width="1pt"/><ellipse fill="#fff" transform="matrix(.744 0 0 .62 -367.57 -38.912)" cx="413.68" rx=".886" cy="581.99" ry=".886" stroke-width="1pt"/><ellipse fill="#fff" transform="matrix(.744 0 0 .62 -361 -38.958)" cx="413.68" rx=".886" cy="581.99" ry=".886" stroke-width="1pt"/><ellipse fill="#fff" transform="matrix(.744 0 0 .62 -371.51 -41.102)" cx="413.68" rx=".886" cy="581.99" ry=".886" stroke-width="1pt"/><ellipse fill="#fff" transform="matrix(.744 0 0 .62 -363.68 -41.148)" cx="413.68" rx=".886" cy="581.99" ry=".886" stroke-width="1pt"/><ellipse fill="#fff" transform="matrix(.744 0 0 .62 -371.57 -36.768)" cx="413.68" rx=".886" cy="581.99" ry=".886" stroke-width="1pt"/><ellipse fill="#fff" transform="matrix(.744 0 0 .62 -363.68 -36.677)" cx="413.68" rx=".886" cy="581.99" ry=".886" stroke-width="1pt"/><ellipse fill="#fff" transform="matrix(.744 0 0 .62 -353.17 -49.999)" cx="413.68" rx=".886" cy="581.99" ry=".886" stroke-width="1pt"/><ellipse fill="#fff" transform="matrix(.744 0 0 .62 -346.59 -49.999)" cx="413.68" rx=".886" cy="581.99" ry=".886" stroke-width="1pt"/><ellipse fill="#fff" transform="matrix(.744 0 0 .62 -340.02 -50.045)" cx="413.68" rx=".886" cy="581.99" ry=".886" stroke-width="1pt"/><ellipse fill="#fff" transform="matrix(.744 0 0 .62 -350.54 -52.189)" cx="413.68" rx=".886" cy="581.99" ry=".886" stroke-width="1pt"/><ellipse fill="#fff" transform="matrix(.744 0 0 .62 -342.71 -52.235)" cx="413.68" rx=".886" cy="581.99" ry=".886" stroke-width="1pt"/><ellipse fill="#fff" transform="matrix(.744 0 0 .62 -350.59 -47.855)" cx="413.68" rx=".886" cy="581.99" ry=".886" stroke-width="1pt"/><ellipse fill="#fff" transform="matrix(.744 0 0 .62 -342.71 -47.764)" cx="413.68" rx=".886" cy="581.99" ry=".886" stroke-width="1pt"/><ellipse fill="#fff" transform="matrix(.744 0 0 .62 -374.2 -60.904)" cx="413.68" rx=".886" cy="581.99" ry=".886" stroke-width="1pt"/><ellipse fill="#fff" transform="matrix(.744 0 0 .62 -367.62 -60.904)" cx="413.68" rx=".886" cy="581.99" ry=".886" stroke-width="1pt"/><ellipse fill="#fff" transform="matrix(.744 0 0 .62 -361.05 -60.949)" cx="413.68" rx=".886" cy="581.99" ry=".886" stroke-width="1pt"/><ellipse fill="#fff" transform="matrix(.744 0 0 .62 -371.57 -63.094)" cx="413.68" rx=".886" cy="581.99" ry=".886" stroke-width="1pt"/><ellipse fill="#fff" transform="matrix(.744 0 0 .62 -363.74 -63.139)" cx="413.68" rx=".886" cy="581.99" ry=".886" stroke-width="1pt"/><ellipse fill="#fff" transform="matrix(.744 0 0 .62 -371.62 -58.759)" cx="413.68" rx=".886" cy="581.99" ry=".886" stroke-width="1pt"/><ellipse fill="#fff" transform="matrix(.744 0 0 .62 -363.74 -58.668)" cx="413.68" rx=".886" cy="581.99" ry=".886" stroke-width="1pt"/><ellipse fill="#fff" transform="matrix(.744 0 0 .62 -395.28 -49.817)" cx="413.68" rx=".886" cy="581.99" ry=".886" stroke-width="1pt"/><ellipse fill="#fff" transform="matrix(.744 0 0 .62 -388.71 -49.817)" cx="413.68" rx=".886" cy="581.99" ry=".886" stroke-width="1pt"/><ellipse fill="#fff" transform="matrix(.744 0 0 .62 -382.14 -49.862)" cx="413.68" rx=".886" cy="581.99" ry=".886" stroke-width="1pt"/><ellipse fill="#fff" transform="matrix(.744 0 0 .62 -392.65 -52.007)" cx="413.68" rx=".886" cy="581.99" ry=".886" stroke-width="1pt"/><ellipse fill="#fff" transform="matrix(.744 0 0 .62 -384.82 -52.052)" cx="413.68" rx=".886" cy="581.99" ry=".886" stroke-width="1pt"/><ellipse fill="#fff" transform="matrix(.744 0 0 .62 -392.71 -47.672)" cx="413.68" rx=".886" cy="581.99" ry=".886" stroke-width="1pt"/><ellipse fill="#fff" transform="matrix(.744 0 0 .62 -384.82 -47.581)" cx="413.68" rx=".886" cy="581.99" ry=".886" stroke-width="1pt"/></g><g><path d="M-79.724 145.28l3.543 3.543 3.543-3.543h-7.087z" transform="matrix(1.24 0 0 -.581 233.433 332.153)" stroke-width="1pt" fill="#fff"/><path d="M-79.724 145.28l3.543 3.543 3.543-3.543h-7.087z" transform="matrix(1.24 0 0 -.581 220.252 332.153)" stroke-width="1pt" fill="#fff"/><path d="M-79.724 145.28l3.543 3.543 3.543-3.543h-7.087z" transform="matrix(1.24 0 0 -.581 207.071 332.153)" stroke-width="1pt" fill="#fff"/><path d="M-79.724 145.28l3.543 3.543 3.543-3.543h-7.087z" transform="matrix(1.24 0 0 .581 233.433 116.009)" stroke-width="1pt" fill="#fff"/><path d="M-79.724 145.28l3.543 3.543 3.543-3.543h-7.087z" transform="matrix(1.24 0 0 .581 220.252 116.009)" stroke-width="1pt" fill="#fff"/><path d="M-79.724 145.28l3.543 3.543 3.543-3.543h-7.087z" transform="matrix(1.24 0 0 .581 207.071 116.009)" stroke-width="1pt" fill="#fff"/><path d="M-83.268 219.68l-5.315-3.544-5.315 3.544-5.315-3.544-5.314 3.544v-1.77l3.543-1.774-1.772-1.77v-1.773h1.772l1.77 1.772 1.773-1.772h1.77v1.772l-1.77 1.77 3.542 1.773 3.544-1.772-1.772-1.77v-1.773h1.772l1.77 1.772 1.773-1.772h1.77v1.772l-1.77 1.77 3.542 1.773 3.544-1.77-1.772-1.773v-1.772h1.772l1.77 1.772 1.773-1.772h1.77v1.772l-1.77 1.772 3.542 1.772v1.77l-5.315-3.543-5.315 3.543z" transform="matrix(.964 0 0 -1.162 211.221 509.183)" stroke-width="0" fill="#004e00"/><path d="M-83.268 219.68l-5.315-3.544-5.315 3.544-5.315-3.544-5.314 3.544v-1.77l3.543-1.774-1.772-1.77v-1.773h1.772l1.77 1.772 1.773-1.772h1.77v1.772l-1.77 1.77 3.542 1.773 3.544-1.772-1.772-1.77v-1.773h1.772l1.77 1.772 1.773-1.772h1.77v1.772l-1.77 1.77 3.542 1.773 3.544-1.77-1.772-1.773v-1.772h1.772l1.77 1.772 1.773-1.772h1.77v1.772l-1.77 1.772 3.542 1.772v1.77l-5.315-3.543-5.315 3.543z" transform="matrix(.964 0 0 1.162 211.222 -61.031)" stroke-width="0" fill="#004e00"/><path d="M-83.268 219.68l-5.315-3.544-5.315 3.544-5.315-3.544-5.314 3.544v-1.77l3.543-1.774-1.772-1.77v-1.773h1.772l1.77 1.772 1.773-1.772h1.77v1.772l-1.77 1.77 3.542 1.773 3.544-1.772-1.772-1.77v-1.773h1.772l1.77 1.772 1.773-1.772h1.77v1.772l-1.77 1.77 3.542 1.773 3.544-1.77-1.772-1.773v-1.772h1.772l1.77 1.772 1.773-1.772h1.77v1.772l-1.77 1.772 3.542 1.772v1.77l-5.315-3.543-5.315 3.543z" transform="matrix(0 .839 -1.55 0 510.22 298.42)" stroke-width="0" fill="#004e00"/><path d="M-83.268 219.68l-5.315-3.544-5.315 3.544-5.315-3.544-5.314 3.544v-1.77l3.543-1.774-1.772-1.77v-1.773h1.772l1.77 1.772 1.773-1.772h1.77v1.772l-1.77 1.77 3.542 1.773 3.544-1.772-1.772-1.77v-1.773h1.772l1.77 1.772 1.773-1.772h1.77v1.772l-1.77 1.77 3.542 1.773 3.544-1.77-1.772-1.773v-1.772h1.772l1.77 1.772 1.773-1.772h1.77v1.772l-1.77 1.772 3.542 1.772v1.77l-5.315-3.543-5.315 3.543z" transform="matrix(0 .839 1.55 0 -258.64 298.42)" stroke-width="0" fill="#004e00"/><path transform="matrix(1.24 0 0 1.162 204.874 -5.463)" stroke="#000" stroke-width=".25" fill="#004e00" d="M-26.575 214.37h1.772v1.772h-1.772z"/><path transform="matrix(1.24 0 0 1.162 204.874 -5.463)" stroke="#000" stroke-width=".25" fill="#004e00" d="M-28.346 216.14h1.772v1.772h-1.772z"/><path transform="matrix(1.24 0 0 1.162 204.874 -5.463)" stroke="#000" stroke-width=".25" fill="#004e00" d="M-37.205 225h1.772v1.772h-1.772z"/><path transform="matrix(1.24 0 0 1.162 204.874 -5.463)" stroke="#000" stroke-width=".25" fill="#004e00" d="M-35.433 223.23h1.772v1.772h-1.773z"/><path transform="matrix(1.24 0 0 1.162 204.874 -5.463)" stroke="#000" stroke-width=".25" fill="#004e00" d="M-93.898 223.23h1.772v1.772h-1.772z"/><path transform="matrix(1.24 0 0 1.162 204.874 -5.463)" stroke="#000" stroke-width=".25" fill="#004e00" d="M-102.76 214.37h1.772v1.772h-1.772z"/><path transform="matrix(1.24 0 0 1.162 204.874 -5.463)" stroke="#000" stroke-width=".25" fill="#004e00" d="M-100.98 216.14h1.772v1.772h-1.772z"/><path transform="matrix(1.24 0 0 1.162 204.874 -5.463)" stroke="#000" stroke-width=".25" fill="#004e00" d="M-100.98 177.17h1.772v1.772h-1.772z"/><path transform="matrix(1.24 0 0 1.162 204.874 -5.463)" stroke="#000" stroke-width=".25" fill="#004e00" d="M-102.76 178.94h1.772v1.772h-1.772z"/><path transform="matrix(1.24 0 0 1.162 204.874 -5.463)" stroke="#000" stroke-width=".25" fill="#004e00" d="M-92.126 168.31h1.772v1.772h-1.772z"/><path transform="matrix(1.24 0 0 1.162 204.874 -5.463)" stroke="#000" stroke-width=".25" fill="#004e00" d="M-93.898 170.08h1.772v1.772h-1.772z"/><path transform="matrix(1.24 0 0 1.162 204.874 -5.463)" stroke="#000" stroke-width=".25" fill="#004e00" d="M-37.205 168.31h1.772v1.772h-1.772z"/><path transform="matrix(1.24 0 0 1.162 204.874 -5.463)" stroke="#000" stroke-width=".25" fill="#004e00" d="M-35.433 170.08h1.772v1.772h-1.773z"/><path transform="matrix(1.24 0 0 1.162 204.874 -5.463)" stroke="#000" stroke-width=".25" fill="#004e00" d="M-28.346 177.17h1.772v1.772h-1.772z"/><path transform="matrix(1.24 0 0 1.162 204.874 -5.463)" stroke="#000" stroke-width=".25" fill="#004e00" d="M-26.575 178.94h1.772v1.772h-1.772z"/><path transform="matrix(1.24 0 0 1.162 204.874 -5.463)" stroke="#000" stroke-width=".25" fill="#004e00" d="M-92.126 225h1.772v1.772h-1.772z"/><path d="M423.42 278.15l-15.942-.002-.003-8.864 10.63.005v-8.313h10.63v-7.633h10.63v9.54c-8.802 0-15.945 6.464-15.945 15.266z" transform="matrix(.406 0 0 .457 -52.9 97.115)" stroke-width="1.25" fill="#fff"/><path d="M423.42 278.15l-15.942-.002-.003-8.864 10.63.005v-8.313h10.63v-7.633h10.63v9.54c-8.802 0-15.945 6.464-15.945 15.266z" transform="matrix(-.406 0 0 .457 304.02 97.115)" stroke-width="1.25" fill="#e69900"/><path d="M423.42 278.15l-15.942-.002-.003-8.864 10.63.005v-8.313h10.63v-7.633h10.63v9.54c-8.802 0-15.945 6.464-15.945 15.266z" transform="matrix(-.406 0 0 -.457 304.02 351.035)" stroke-width="1.25" fill="#fff"/><path d="M423.42 278.15l-15.942-.002-.003-8.864 10.63.005v-8.313h10.63v-7.633h10.63v9.54c-8.802 0-15.945 6.464-15.945 15.266z" transform="matrix(.406 0 0 -.457 -52.9 351.035)" stroke-width="1.25" fill="#e69900"/><path d="M437.6 273.72h-15.944v-15.06c8.8 0 15.944 6.748 15.944 15.06z" transform="matrix(.406 0 0 .462 -45.71 97.429)" stroke-width="1pt" fill="#004e00"/><path d="M437.6 273.72h-15.944v-15.06c8.8 0 15.944 6.748 15.944 15.06z" transform="matrix(.406 0 0 -.462 -45.71 350.721)" stroke-width="1pt" fill="#980000"/><path d="M437.6 273.72h-15.944v-15.06c8.8 0 15.944 6.748 15.944 15.06z" transform="matrix(-.406 0 0 -.462 296.83 350.721)" stroke-width="1pt" fill="#004e00"/><path d="M437.6 273.72h-15.944v-15.06c8.8 0 15.944 6.748 15.944 15.06z" transform="matrix(-.406 0 0 .462 296.83 97.429)" stroke-width="1pt" fill="#980000"/><path d="M-83.268 219.68l-5.315-3.544-5.315 3.544-5.315-3.544-5.314 3.544v-1.77l3.543-1.774-1.772-1.77v-1.773h1.772l1.77 1.772 1.773-1.772h1.77v1.772l-1.77 1.77 3.542 1.773 3.544-1.772-1.772-1.77v-1.773h1.772l1.77 1.772 1.773-1.772h1.77v1.772l-1.77 1.77 3.542 1.773 3.544-1.77-1.772-1.773v-1.772h1.772l1.77 1.772 1.773-1.772h1.77v1.772l-1.77 1.772 3.542 1.772v1.77l-5.315-3.543-5.315 3.543z" transform="matrix(1.24 0 0 1.162 235.63 -5.462)" stroke-width="0" fill="#004e00"/><path d="M-83.268 219.68l-5.315-3.544-5.315 3.544-5.315-3.544-5.314 3.544v-1.77l3.543-1.774-1.772-1.77v-1.773h1.772l1.77 1.772 1.773-1.772h1.77v1.772l-1.77 1.77 3.542 1.773 3.544-1.772-1.772-1.77v-1.773h1.772l1.77 1.772 1.773-1.772h1.77v1.772l-1.77 1.77 3.542 1.773 3.544-1.77-1.772-1.773v-1.772h1.772l1.77 1.772 1.773-1.772h1.77v1.772l-1.77 1.772 3.542 1.772v1.77l-5.315-3.543-5.315 3.543z" transform="matrix(1.24 0 0 -1.162 235.63 453.617)" stroke-width="0" fill="#004e00"/><path d="M-83.268 219.68l-5.315-3.544-5.315 3.544-5.315-3.544-5.314 3.544v-1.77l3.543-1.774-1.772-1.77v-1.773h1.772l1.77 1.772 1.773-1.772h1.77v1.772l-1.77 1.77 3.542 1.773 3.544-1.772-1.772-1.77v-1.773h1.772l1.77 1.772 1.773-1.772h1.77v1.772l-1.77 1.77 3.542 1.773 3.544-1.77-1.772-1.773v-1.772h1.772l1.77 1.772 1.773-1.772h1.77v1.772l-1.77 1.772 3.542 1.772v1.77l-5.315-3.543-5.315 3.543z" transform="matrix(0 .968 .93 0 -47.77 309.854)" stroke-width="0" fill="#004e00"/><path d="M-100.98 177.17l-7.087 7.086v26.575l7.087 7.088h31.89l7.086-7.087v-26.574l-7.087-7.086h-31.89zm-1.772-5.316l-17.717 17.716v15.945l17.718 17.717h35.433l17.717-17.717V189.57l-17.716-17.716h-35.432z" transform="matrix(1.24 0 0 1.162 231.237 -5.462)" stroke="#000" stroke-width=".4" fill="#004e00"/><path d="M-93.898 147.05l3.543 5.315 3.544-5.315H-93.9z" transform="matrix(.992 0 0 .775 208.389 135.903)" stroke="#000" stroke-width=".25" fill="#e69900"/><path d="M-93.898 147.05l3.543 5.315 3.544-5.315H-93.9z" transform="matrix(.992 0 0 -.775 208.389 312.259)" stroke="#000" stroke-width=".25" fill="#e69900"/><path d="M-93.898 147.05l3.543 5.315 3.544-5.315H-93.9z" transform="matrix(.992 0 0 -.775 222.449 312.259)" stroke="#000" stroke-width=".25" fill="#e69900"/><path d="M-93.898 147.05l3.543 5.315 3.544-5.315H-93.9z" transform="matrix(.992 0 0 .775 222.449 135.903)" stroke="#000" stroke-width=".25" fill="#e69900"/><path d="M-93.898 147.05l3.543 5.315 3.544-5.315H-93.9z" transform="matrix(.992 0 0 -.775 201.359 312.259)" stroke="#000" stroke-width=".25" fill="#980000"/><path d="M-93.898 147.05l3.543 5.315 3.544-5.315H-93.9z" transform="matrix(.992 0 0 -.775 215.419 312.259)" stroke="#000" stroke-width=".25" fill="#980000"/><path d="M-93.898 147.05l3.543 5.315 3.544-5.315H-93.9z" transform="matrix(.992 0 0 -.775 229.479 312.259)" stroke="#000" stroke-width=".25" fill="#980000"/><path d="M-104.53 180.71l3.544-3.544h-3.544v3.544z" transform="matrix(1.86 0 0 -1.743 293.83 558.592)" stroke="#000" stroke-width=".25" fill="#980000"/><path d="M-83.268 219.68l-5.315-3.544-5.315 3.544-5.315-3.544-5.314 3.544v-1.77l3.543-1.774-1.772-1.77v-1.773h1.772l1.77 1.772 1.773-1.772h1.77v1.772l-1.77 1.77 3.542 1.773 3.544-1.772-1.772-1.77v-1.773h1.772l1.77 1.772 1.773-1.772h1.77v1.772l-1.77 1.77 3.542 1.773 3.544-1.77-1.772-1.773v-1.772h1.772l1.77 1.772 1.773-1.772h1.77v1.772l-1.77 1.772 3.542 1.772v1.77l-5.315-3.543-5.315 3.543z" transform="matrix(0 .968 -.93 0 299.34 309.854)" stroke-width="0" fill="#004e00"/><path d="M-76.18 154.13h7.086l1.77 1.772-1.77 1.77h-7.087v-3.542z" transform="matrix(1.24 0 0 1.046 253.205 57.323)" stroke="#000" stroke-width=".25" fill="#980000"/><path d="M-99.213 180.71l-3.543 3.544v26.575l3.543 3.542h-5.316l.002-33.662h5.315z" transform="matrix(1.24 0 0 1.162 222.449 -5.462)" stroke="#000" stroke-width=".375" fill="#980000"/><path d="M-93.898 147.05l3.543 5.315 3.544-5.315H-93.9z" transform="matrix(.992 0 0 .775 201.359 135.903)" stroke="#000" stroke-width=".25" fill="#980000"/><path d="M-93.898 147.05l3.543 5.315 3.544-5.315H-93.9z" transform="matrix(.992 0 0 .775 215.419 135.903)" stroke="#000" stroke-width=".25" fill="#980000"/><path d="M-93.898 147.05l3.543 5.315 3.544-5.315H-93.9z" transform="matrix(.992 0 0 .775 229.479 135.903)" stroke="#000" stroke-width=".25" fill="#980000"/><path d="M-99.212 180.71l-3.544 3.544v26.575l3.544 3.542h-5.315V180.71h5.315z" transform="matrix(-1.24 0 0 1.162 29.13 -5.462)" stroke="#000" stroke-width=".375" fill="#980000"/><path d="M-104.53 180.71l3.544-3.544h-3.544v3.544z" transform="matrix(-1.86 0 0 -1.743 -42.26 558.592)" stroke="#000" stroke-width=".25" fill="#980000"/><path d="M-104.53 180.71l3.544-3.544h-3.544v3.544z" transform="matrix(-1.86 0 0 1.743 -42.26 -110.435)" stroke="#000" stroke-width=".25" fill="#980000"/><path d="M-104.53 180.71l3.544-3.544h-3.544v3.544z" transform="matrix(1.86 0 0 1.743 293.83 -110.435)" stroke="#000" stroke-width=".25" fill="#980000"/><path d="M-100.98 177.17l-7.087 7.086v26.575l7.087 7.088h31.89l7.086-7.087v-26.574l-7.087-7.086h-31.89zm0-1.773l-8.86 8.858v26.575l8.86 8.858h31.89l8.857-8.858v-26.575l-8.86-8.858h-31.888z" transform="matrix(1.24 0 0 1.162 231.237 -5.462)" stroke="#000" stroke-width=".4" fill="#004e00"/><path d="M-76.18 154.13h7.086l1.77 1.772-1.77 1.77h-7.087v-3.542z" transform="matrix(1.24 0 0 1.046 253.204 61.016)" stroke="#000" stroke-width=".25" fill="#e69900"/><path d="M-76.18 154.13h7.086l1.77 1.772-1.77 1.77h-7.087v-3.542z" transform="matrix(1.24 0 0 1.046 253.205 64.735)" stroke="#000" stroke-width=".25" fill="#980000"/><path d="M-76.18 154.13h7.086l1.77 1.772-1.77 1.77h-7.087v-3.542z" transform="matrix(1.24 0 0 1.046 253.205 68.428)" stroke="#000" stroke-width=".25" fill="#e69900"/><path d="M-76.18 154.13h7.086l1.77 1.772-1.77 1.77h-7.087v-3.542z" transform="matrix(1.24 0 0 1.046 253.205 53.605)" stroke="#000" stroke-width=".25" fill="#e69900"/><path d="M-76.18 154.13h7.086l1.77 1.772-1.77 1.77h-7.087v-3.542z" transform="matrix(-1.24 0 0 1.046 -1.63 57.323)" stroke="#000" stroke-width=".25" fill="#980000"/><path d="M-76.18 154.13h7.086l1.77 1.772-1.77 1.77h-7.087v-3.542z" transform="matrix(-1.24 0 0 1.046 -1.63 61.017)" stroke="#000" stroke-width=".25" fill="#e69900"/><path d="M-76.18 154.13h7.086l1.77 1.772-1.77 1.77h-7.087v-3.542z" transform="matrix(-1.24 0 0 1.046 -1.63 64.735)" stroke="#000" stroke-width=".25" fill="#980000"/><path d="M-76.18 154.13h7.086l1.77 1.772-1.77 1.77h-7.087v-3.542z" transform="matrix(-1.24 0 0 1.046 -1.63 68.429)" stroke="#000" stroke-width=".25" fill="#e69900"/><path d="M-76.18 154.13h7.086l1.77 1.772-1.77 1.77h-7.087v-3.542z" transform="matrix(-1.24 0 0 1.046 -1.63 53.606)" stroke="#000" stroke-width=".25" fill="#e69900"/><path d="M-100.98 178.94v37.205h8.858v8.858h56.693v-8.858h8.86V178.94h-8.86v-8.858H-92.12v8.858h-8.858zm1.77 1.772v33.66h8.86v8.86h53.15v-8.86h8.858v-33.66H-37.2v-8.86h-53.15v8.86h-8.86z" transform="matrix(1.24 0 0 1.162 204.874 -5.463)" stroke="#000" stroke-width=".25" fill="#970000"/></g><g><path d="M-28.347 69.094l-5.315-7.087v-5.315l-5.315-5.314h-10.63l-8.858-5.315H-86.81l-8.86 5.315h-10.63l-5.315 5.315v5.315l-5.315 7.086v14.173l5.315 7.087v5.315l5.315 5.314h10.63l8.86 5.315h28.345l8.858-5.316h10.63l5.315-5.315v-5.316l5.315-7.087V69.093z" transform="matrix(1.24 0 0 1.118 215.855 -35.546)" stroke="#000" stroke-width=".25" fill="#980000"/><path d="M345.47 251.58v5.315l5.315 7.086v5.316l5.315 5.315h10.63l8.86 5.316h12.4V251.58h-42.52z" transform="matrix(1.24 0 0 1.118 -355.234 -231.64)" stroke-width="1pt" fill="#e69900"/><path d="M328.36 268.9l-8.416 7.965h-5.027l1.676 2.654-3.35 5.31 1.674 2.654 5.027-2.655 1.676 2.654.774-7.094 9.28-8.397-3.314-3.093z" transform="matrix(.953 0 0 .639 -205.787 -108.474)" stroke-width="1pt" fill="#980000"/><path d="M328.36 268.9l-8.416 7.965h-5.027l1.676 2.654-3.35 5.31 1.674 2.654 5.027-2.655 1.676 2.654.774-7.094 9.28-8.397-3.314-3.093z" transform="matrix(.953 0 0 .639 -214.569 -112.435)" stroke-width="1pt" fill="#980000"/><path d="M328.36 268.9l-8.416 7.965h-5.027l1.676 2.654-3.35 5.31 1.674 2.654 5.027-2.655 1.676 2.654.774-7.094 9.28-8.397-3.314-3.093z" transform="matrix(.953 0 0 .639 -218.966 -120.354)" stroke-width="1pt" fill="#980000"/><path d="M345.47 251.58v5.315l5.315 7.086v5.316l5.315 5.315h10.63l8.86 5.316h12.4V251.58h-42.52z" transform="matrix(-1.24 0 0 -1.118 606.825 330.893)" stroke-width="1pt" fill="#e69900"/><path d="M-72.638 47.835h3.28l3.807 3.543h6.035l3.28 1.772-1.64 1.772-3.28-1.772h-3.28l-3.282 5.315-4.92-1.772V53.15h4.92l-4.92-5.315z" transform="matrix(-1.24 0 0 -1.118 35.741 134.796)" stroke-width="1pt" fill="#980000"/><path d="M345.47 251.58v5.315l5.315 7.086v5.316l5.315 5.315h10.63l8.86 5.316h12.4V251.58h-42.52z" transform="matrix(1.24 0 0 -1.118 -355.234 330.893)" stroke-width="1pt" fill="#fff"/><path d="M-72.638 47.835h3.28l3.807 3.543h6.035l3.28 1.772-1.64 1.772-3.28-1.772h-3.28l-3.282 5.315-4.92-1.772V53.15h4.92l-4.92-5.315z" transform="matrix(-1.24 0 0 1.118 35.741 -35.547)" stroke-width="1pt" fill="#980000"/><path d="M-72.638 47.835h3.28l3.807 3.543h6.035l3.28 1.772-1.64 1.772-3.28-1.772h-3.28l-3.282 5.315-4.92-1.772V53.15h4.92l-4.92-5.315z" transform="matrix(1.24 0 0 1.118 215.856 -35.547)" stroke-width="1pt" fill="#980000"/><path d="M345.47 251.58v5.315l5.315 7.086v5.316l5.315 5.315h10.63l8.86 5.316h12.4V251.58h-42.52z" transform="matrix(-1.24 0 0 1.118 606.825 -231.64)" stroke-width="1pt" fill="#fff"/><path d="M-72.638 47.835h3.28l3.807 3.543h6.035l3.28 1.772-1.64 1.772-3.28-1.772h-3.28l-3.282 5.315-4.92-1.772V53.15h4.92l-4.92-5.315z" transform="matrix(1.24 0 0 -1.118 215.856 134.796)" stroke-width="1pt" fill="#980000"/><path d="M328.36 268.9l-8.416 7.965h-5.027l1.676 2.654-3.35 5.31 1.674 2.654 5.027-2.655 1.676 2.654.774-7.094 9.28-8.397-3.314-3.093z" transform="matrix(.953 0 0 -.639 -214.569 211.681)" stroke-width="1pt" fill="#980000"/><path d="M328.36 268.9l-8.416 7.965h-5.027l1.676 2.654-3.35 5.31 1.674 2.654 5.027-2.655 1.676 2.654.774-7.094 9.28-8.397-3.314-3.093z" transform="matrix(-.953 0 0 -.639 457.378 207.723)" stroke-width="1pt" fill="#980000"/><path d="M328.36 268.9l-8.416 7.965h-5.027l1.676 2.654-3.35 5.31 1.674 2.654 5.027-2.655 1.676 2.654.774-7.094 9.28-8.397-3.314-3.093z" transform="matrix(.953 0 0 -.639 -205.787 207.723)" stroke-width="1pt" fill="#980000"/><path d="M328.36 268.9l-8.416 7.965h-5.027l1.676 2.654-3.35 5.31 1.674 2.654 5.027-2.655 1.676 2.654.774-7.094 9.28-8.397-3.314-3.093z" transform="matrix(.953 0 0 -.639 -218.966 219.608)" stroke-width="1pt" fill="#980000"/><path d="M334.75 269.29h1.555l1.554 1.635 1.553-1.635h32.636v22.894h-1.555l1.554 1.636v1.635l-4.663-4.906v-1.636h1.554v1.635h1.555v-1.636l-12.62-7.223h-10.63v-7.086l-4.724-3.68h-3.107l-1.554 1.636 1.553 1.636h-1.554l-3.11-4.906z" transform="matrix(1.309 0 0 1.211 -361.1 -276.538)" stroke-width="0" fill="#fff"/><path d="M334.75 269.29h1.555l1.554 1.635 1.553-1.635h32.636v22.894h-1.555l1.554 1.636v1.635l-4.663-4.906v-1.636h1.554v1.635h1.555v-1.636l-12.62-7.223h-10.63v-7.086l-4.724-3.68h-3.107l-1.554 1.636 1.553 1.636h-1.554l-3.11-4.906z" transform="matrix(1.309 0 0 -1.211 -361.1 375.792)" stroke-width="0" fill="#e69900"/><path d="M340.16 269.29h31.89v21.26l-14.173-8.858h-10.63v-7.087l-7.087-5.315z" transform="matrix(1.24 0 0 1.118 -335.476 -251.451)" stroke-width="0" fill="#004e00"/><path d="M328.36 268.9l-8.416 7.965h-5.027l1.676 2.654-3.35 5.31 1.674 2.654 5.027-2.655 1.676 2.654.774-7.094 9.28-8.397-3.314-3.093z" transform="matrix(-.953 0 0 -.639 466.16 211.681)" stroke-width="1pt" fill="#980000"/><path d="M328.36 268.9l-8.416 7.965h-5.027l1.676 2.654-3.35 5.31 1.674 2.654 5.027-2.655 1.676 2.654.774-7.094 9.28-8.397-3.314-3.093z" transform="matrix(-.953 0 0 -.639 470.557 219.608)" stroke-width="1pt" fill="#980000"/><path d="M334.75 269.29h1.555l1.554 1.635 1.553-1.635h32.636v22.894h-1.555l1.554 1.636v1.635l-4.663-4.906v-1.636h1.554v1.635h1.555v-1.636l-12.62-7.223h-10.63v-7.086l-4.724-3.68h-3.107l-1.554 1.636 1.553 1.636h-1.554l-3.11-4.906z" transform="matrix(-1.309 0 0 -1.211 612.691 375.792)" stroke-width="0" fill="#fff"/><path d="M340.16 269.29h31.89v21.26l-14.173-8.858h-10.63v-7.087l-7.087-5.315z" transform="matrix(-1.24 0 0 -1.118 587.068 350.704)" stroke-width="0" fill="#004e00"/><path d="M328.36 268.9l-8.416 7.965h-5.027l1.676 2.654-3.35 5.31 1.674 2.654 5.027-2.655 1.676 2.654.774-7.094 9.28-8.397-3.314-3.093z" transform="matrix(-.953 0 0 .639 457.378 -108.474)" stroke-width="1pt" fill="#980000"/><path d="M328.36 268.9l-8.416 7.965h-5.027l1.676 2.654-3.35 5.31 1.674 2.654 5.027-2.655 1.676 2.654.774-7.094 9.28-8.397-3.314-3.093z" transform="matrix(-.953 0 0 .639 466.16 -112.435)" stroke-width="1pt" fill="#980000"/><path d="M328.36 268.9l-8.416 7.965h-5.027l1.676 2.654-3.35 5.31 1.674 2.654 5.027-2.655 1.676 2.654.774-7.094 9.28-8.397-3.314-3.093z" transform="matrix(-.953 0 0 .639 470.557 -120.354)" stroke-width="1pt" fill="#980000"/><path d="M334.75 269.29h1.555l1.554 1.635 1.553-1.635h32.636v22.894h-1.555l1.554 1.636v1.635l-4.663-4.906v-1.636h1.554v1.635h1.555v-1.636l-12.62-7.223h-10.63v-7.086l-4.724-3.68h-3.107l-1.554 1.636 1.553 1.636h-1.554l-3.11-4.906z" transform="matrix(-1.309 0 0 1.211 612.691 -276.538)" stroke-width="0" fill="#e69900"/><path d="M340.16 269.29h31.89v21.26l-14.173-8.858h-10.63v-7.087l-7.087-5.315z" transform="matrix(-1.24 0 0 1.118 587.068 -251.451)" stroke-width="0" fill="#980000"/><path d="M340.16 269.29h31.89v21.26l-14.173-8.858h-10.63v-7.087l-7.087-5.315z" transform="matrix(1.24 0 0 -1.118 -335.476 350.704)" stroke-width="0" fill="#980000"/><path d="M328.36 268.9l-8.416 7.965h-5.027l1.676 2.654-3.35 5.31 1.674 2.654 5.027-2.655 1.676 2.654.774-7.094 9.28-8.397-3.314-3.093z" transform="matrix(-1.311 0 0 -.746 560.583 250.252)" stroke-width="1pt" fill="#980000"/><path d="M328.36 268.9l-8.416 7.965h-5.027l1.676 2.654-3.35 5.31 1.674 2.654 5.027-2.655 1.676 2.654.774-7.094 9.28-8.397-3.314-3.093z" transform="matrix(1.311 0 0 .746 -308.992 -151.009)" stroke-width="1pt" fill="#980000"/><path d="M328.36 268.9l-8.416 7.965h-5.027l1.676 2.654-3.35 5.31 1.674 2.654 5.027-2.655 1.676 2.654.774-7.094 9.28-8.397-3.314-3.093z" transform="matrix(1.311 0 0 -.746 -308.992 250.252)" stroke-width="1pt" fill="#004e00"/><path d="M328.36 268.9l-8.416 7.965h-5.027l1.676 2.654-3.35 5.31 1.674 2.654 5.027-2.655 1.676 2.654.774-7.094 9.28-8.397-3.314-3.093z" transform="matrix(-1.311 0 0 .746 560.583 -151.009)" stroke-width="1pt" fill="#004e00"/><path d="M311.81 217.91l8.858-5.315 8.86 5.315-8.86 5.315-8.858-5.315z" transform="matrix(1.488 0 0 1.864 -351.296 -356.42)" stroke-width="1.246" fill="#fff"/><path d="M-66.076 53.15l-1.64-1.772 1.64-1.77h1.64l4.922 7.085h-1.64l-3.282-5.315h-1.64l1.64 1.772-1.64 1.772h-3.28V53.15h3.28z" transform="matrix(-1.24 0 0 -1.118 1.163 113.006)" stroke-width="1pt" fill="#980000"/><path d="M-66.076 53.15l-1.64-1.772 1.64-1.77h1.64l4.922 7.085h-1.64l-3.282-5.315h-1.64l1.64 1.772-1.64 1.772h-3.28V53.15h3.28z" transform="matrix(-1.24 0 0 1.118 1.163 -13.758)" stroke-width="1pt" fill="#980000"/><path d="M-66.076 53.15l-1.64-1.772 1.64-1.77h1.64l4.922 7.085h-1.64l-3.282-5.315h-1.64l1.64 1.772-1.64 1.772h-3.28V53.15h3.28z" transform="matrix(1.24 0 0 -1.118 250.432 113.006)" stroke-width="1pt" fill="#980000"/><path d="M-66.076 53.15l-1.64-1.772 1.64-1.77h1.64l4.922 7.085h-1.64l-3.282-5.315h-1.64l1.64 1.772-1.64 1.772h-3.28V53.15h3.28z" transform="matrix(1.24 0 0 1.118 250.432 -13.758)" stroke-width="1pt" fill="#980000"/><path stroke-width="1pt" fill="#980000" d="M-81.496 44.29h3.543v14.174h-3.543z" transform="matrix(1.148 0 0 1.118 217.32 -7.816)"/><path stroke-width="1pt" fill="#980000" d="M-86.81 47.835h14.172v7.087H-86.81z" transform="matrix(1.148 0 0 1.118 217.32 -7.816)"/></g><g><path d="M333.07 170.08l-10.63 5.315v8.858l10.63 5.315h10.63l10.63-5.315v-8.858l-10.63-5.315h-10.63z" transform="matrix(3.444 0 0 3.727 -1039.78 -283.145)" stroke="#000" stroke-width=".066" fill="#004e00"/><path d="M302.95 233.86h1.77v-5.315h3.545v5.315h1.77v-12.4h-1.77v5.314h-3.544v-5.315h-1.77v12.4z" transform="matrix(1.25 0 0 .764 -294.26 205.275)" stroke-width="1pt" fill="#c00"/><path d="M302.95 233.86h1.77v-5.315h3.545v5.315h1.77v-12.4h-1.77v5.314h-3.544v-5.315h-1.77v12.4z" transform="matrix(1.25 0 0 .764 -238.16 236.855)" stroke-width="1pt" fill="#c00"/><path d="M302.95 233.86h1.77v-5.315h3.545v5.315h1.77v-12.4h-1.77v5.314h-3.544v-5.315h-1.77v12.4z" transform="matrix(1.25 0 0 .764 -273.59 189.485)" stroke-width="1pt" fill="#c00"/><path d="M302.95 233.86h1.77v-5.315h3.545v5.315h1.77v-12.4h-1.77v5.314h-3.544v-5.315h-1.77v12.4z" transform="matrix(1.25 0 0 .764 -241.11 189.485)" stroke-width="1pt" fill="#c00"/><path d="M302.95 233.86h1.77v-5.315h3.545v5.315h1.77v-12.4h-1.77v5.314h-3.544v-5.315h-1.77v12.4z" transform="matrix(1.25 0 0 .764 -220.45 205.275)" stroke-width="1pt" fill="#c00"/><path d="M302.95 233.86h1.77v-5.315h3.545v5.315h1.77v-12.4h-1.77v5.314h-3.544v-5.315h-1.77v12.4z" transform="matrix(1.25 0 0 .764 -220.45 221.065)" stroke-width="1pt" fill="#c00"/><path d="M-205.51 345.47v38.977h53.15V366.73l-35.433-21.26h-17.717z" transform="matrix(1 0 0 -.891 331.299 729.765)" stroke-width="1pt" fill="#e69900"/><path d="M-205.51 345.47v38.977h53.15V366.73l-35.433-21.26h-17.717z" transform="matrix(-1 0 0 .891 -79.72 44.445)" stroke-width="1pt" fill="#e69900"/><path d="M-205.51 345.47v38.977h53.15V366.73l-35.433-21.26h-17.717z" transform="matrix(1 0 0 .891 331.299 44.445)" stroke-width="1pt" fill="#fff"/><path d="M-205.51 345.47v38.976h53.15V366.73l-35.433-21.26h-17.717z" transform="matrix(-1 0 0 -.891 -79.72 729.765)" stroke-width="1pt" fill="#fff"/><path d="M-177.16 368.5h21.26l-21.26-10.63v10.63zm24.803-1.772v17.717h-33.662v-14.173h-7.085l-8.858-5.315v-12.402l5.314-5.315h-7.085v17.717h-1.772v-19.49h17.717l35.433 21.26z" transform="matrix(1 0 0 .891 331.299 44.446)" stroke="#000" stroke-width=".125" fill="#e69900"/><path d="M333.07 176.72v6.2h1.594l3.72 1.772 3.722-1.772h1.594v-6.2h-1.594l-3.72-1.772-3.722 1.772h-1.594z" transform="matrix(3.333 0 0 3.565 -1002.18 -254.015)" stroke-width=".625" fill="#980000"/><path d="M-177.16 368.5h21.26l-21.26-10.63v10.63zm24.803-1.772v17.717h-33.662v-14.173h-7.085l-8.858-5.315v-12.402l5.314-5.315h-7.085v17.717h-1.772v-19.49h17.717l35.433 21.26z" transform="matrix(-1 0 0 -.891 -79.72 729.765)" stroke="#000" stroke-width=".125" fill="#e69900"/><path d="M-177.16 368.5h21.26l-21.26-10.63v10.63zm24.803-1.772v17.717h-33.662v-14.173h-7.085l-8.858-5.315v-12.402l5.314-5.315h-7.085v17.717h-1.772v-19.49h17.717l35.433 21.26z" transform="matrix(-1 0 0 .891 -79.72 44.446)" stroke="#000" stroke-width=".125" fill="#fff"/><path d="M-177.16 368.5h21.26l-21.26-10.63v10.63zm24.803-1.772v17.717h-33.662v-14.173h-7.085l-8.858-5.315v-12.402l5.314-5.315h-7.085v17.717h-1.772v-19.49h17.717l35.433 21.26z" transform="matrix(1 0 0 -.891 331.3 729.765)" stroke="#000" stroke-width=".125" fill="#fff"/><path d="M302.95 233.86h1.77v-5.315h3.545v5.315h1.77v-12.4h-1.77v5.314h-3.544v-5.315h-1.77v12.4z" transform="matrix(1.25 0 0 .891 -295.44 191.295)" stroke-width="1pt" fill="#980000"/><path d="M302.95 233.86h1.77v-5.315h3.545v5.315h1.77v-12.4h-1.77v5.314h-3.544v-5.315h-1.77v12.4z" transform="matrix(1.25 0 0 .891 -274.19 207.085)" stroke-width="1pt" fill="#980000"/><path d="M302.95 233.86h1.77v-5.315h3.545v5.315h1.77v-12.4h-1.77v5.314h-3.544v-5.315h-1.77v12.4z" transform="matrix(1.25 0 0 -.891 -295.44 582.925)" stroke-width="1pt" fill="#980000"/><path d="M302.95 233.86h1.77v-5.315h3.545v5.315h1.77v-12.4h-1.77v5.314h-3.544v-5.315h-1.77v12.4z" transform="matrix(1.25 0 0 -.891 -274.19 567.135)" stroke-width="1pt" fill="#980000"/><path d="M302.95 233.86h1.77v-5.315h3.545v5.315h1.77v-12.4h-1.77v5.314h-3.544v-5.315h-1.77v12.4z" transform="matrix(1.25 0 0 .891 -240.52 207.085)" stroke-width="1pt" fill="#980000"/><path d="M302.95 233.86h1.77v-5.315h3.545v5.315h1.77v-12.4h-1.77v5.314h-3.544v-5.315h-1.77v12.4z" transform="matrix(1.25 0 0 .891 -219.26 177.075)" stroke-width="1pt" fill="#980000"/><path d="M302.95 233.86h1.77v-5.315h3.545v5.315h1.77v-12.4h-1.77v5.314h-3.544v-5.315h-1.77v12.4z" transform="matrix(1.25 0 0 .891 -240.52 207.085)" stroke-width="1pt" fill="#980000"/><path d="M302.95 233.86h1.77v-5.315h3.545v5.315h1.77v-12.4h-1.77v5.314h-3.544v-5.315h-1.77v12.4z" transform="matrix(1.25 0 0 .891 -240.52 207.085)" stroke-width="1pt" fill="#980000"/><path d="M302.95 233.86h1.77v-5.315h3.545v5.315h1.77v-12.4h-1.77v5.314h-3.544v-5.315h-1.77v12.4z" transform="matrix(1.25 0 0 .891 -219.26 191.285)" stroke-width="1pt" fill="#980000"/><path d="M302.95 233.86h1.77v-5.315h3.545v5.315h1.77v-12.4h-1.77v5.314h-3.544v-5.315h-1.77v12.4z" transform="matrix(1.25 0 0 .891 -240.52 161.285)" stroke-width="1pt" fill="#980000"/><path d="M-154.13 334.84l7.087-7.088h3.543v3.543h-3.543v1.772h5.314v-7.086h-5.313v-5.314h-7.087v5.314h1.772v-3.544h3.543v3.544l-7.086 7.087-7.088-7.086v-3.542h3.543v3.543h1.772v-5.314h-7.087v5.315h-5.315v7.09h5.315v-1.773h-3.544v-3.544h3.544l7.087 7.086-7.087 7.085h-3.543v-3.543h3.543v-1.772h-5.314v7.087h5.314v5.314l7.087.003v-5.316h-1.77v3.544h-3.544v-3.543l7.085-7.086 7.088 7.09v3.542h-3.543V343.7h-1.772v5.313h7.087V343.7l5.315-.003v-7.086h-5.315v1.773h3.544v3.544h-3.543l-7.087-7.087z" transform="matrix(1 0 0 .812 281.693 115.055)" stroke-width="1.247" fill="#004e00"/></g><g transform="matrix(1 0 0 .929 198.43 17.59)"><path d="M372.05 391.54l3.544-3.543h21.26l15.944-15.946h21.26l15.945 15.946h21.26l3.543 3.543-3.543 3.543h-21.26l-15.945 15.945h-21.26l-15.945-15.945h-21.26l-3.543-3.543z" transform="matrix(.968 0 0 1.053 -482.4 -277.85)" stroke-width="1pt" fill="#980000"/><path d="M372.05 391.54l1.903-1.95h22.834l17.126-19.488h19.03l17.125 19.49h22.835l1.903 1.948-1.903 1.948h-22.835l-15.223 17.54H412.01l-15.223-17.54h-22.834l-1.903-1.948z" transform="matrix(.931 0 0 .909 -466.86 -221.29)" stroke="#000" stroke-width=".272" fill="#980000"/><path d="M428.74 354.33l7.087 7.086-3.543 3.543-1.772-1.773h-1.77v1.772l1.77 1.77h3.544l3.543-3.543v-3.543l-7.087-7.086 7.086-7.087v-3.542l-3.544-3.543h-3.543l-1.772 1.77v1.773h1.773l1.77-1.772 3.544 3.544-7.086 7.086-7.086-7.086 7.087-7.087v-1.77h-1.77l-7.087 7.085-7.087-7.087h-1.772v1.772l7.087 7.087-7.086 7.086-7.087-7.086 3.543-3.544 1.772 1.772h1.772v-1.772l-1.772-1.77h-3.543l-3.545 3.542v3.543l7.087 7.088-7.087 7.087v3.543l3.544 3.543h3.542l1.772-1.77v-1.772h-1.772l-1.772 1.772-3.543-3.544 7.087-7.086 7.086 7.086-7.086 7.087v1.772h1.77l7.088-7.087 7.087 7.087h1.77v-1.772l-7.086-7.087 7.086-7.086zm-8.858-8.86l-7.087 7.088 7.087 7.087 7.087-7.087-7.088-7.087z" transform="matrix(.968 0 0 1.053 -478.98 -236.82)" stroke-width="0" fill="#e69900"/><path d="M412.8 411.02v14.173l1.772-1.772 1.772 1.773 1.77-1.772 1.773 1.773 1.772-1.772 1.77 1.773 1.772-1.772 1.772 1.773 1.77-1.772 1.773 1.773 1.77-1.772 1.773 1.773V411.02H412.8z" transform="matrix(.968 0 0 1.053 -482.4 -277.85)" stroke-width="1pt" fill="#e69900"/><path d="M412.8 411.02v14.173l1.772-1.772 1.772 1.773 1.77-1.772 1.773 1.773 1.772-1.772 1.77 1.773 1.772-1.772 1.772 1.773 1.77-1.772 1.773 1.773 1.77-1.772 1.773 1.773V411.02H412.8z" transform="matrix(-.968 0 0 -1.053 337.13 546.43)" stroke-width="1pt" fill="#e69900"/><path d="M419.88 411.02v14.173l1.772-1.772 1.77 1.773 1.773-1.772 1.772 1.773 1.77-1.772 1.773 1.773 1.77-1.772 1.773 1.773V411.02H419.88z" transform="matrix(-.968 0 0 -1.053 373.13 563.22)" stroke-width="1pt" fill="#e69900"/><path d="M419.88 411.02v14.173l1.772-1.772 1.77 1.773 1.773-1.772 1.772 1.773 1.77-1.772 1.773 1.773 1.77-1.772 1.773 1.773V411.02H419.88z" transform="matrix(-.968 0 0 -1.053 307.98 563.22)" stroke-width="1pt" fill="#e69900"/><path d="M419.88 411.02v14.173l1.772-1.772 1.77 1.773 1.773-1.772 1.772 1.773 1.77-1.772 1.773 1.773 1.77-1.772 1.773 1.773V411.02H419.88z" transform="matrix(-.968 0 0 1.053 373.13 -294.63)" stroke-width="1pt" fill="#e69900"/><path d="M419.88 411.02v14.173l1.772-1.772 1.77 1.773 1.773-1.772 1.772 1.773 1.77-1.772 1.773 1.773 1.77-1.772 1.773 1.773V411.02H419.88z" transform="matrix(-.968 0 0 1.053 307.98 -294.63)" stroke-width="1pt" fill="#e69900"/><path d="M412.8 411.02v8.858l1.77-1.772 1.773 1.772 1.77-1.772 1.773 1.772 1.772-1.772 1.77 1.772 1.773-1.772 1.772 1.772 1.772-1.772v-23.03L412.8 411.02z" transform="matrix(.968 0 0 1.053 -461.83 -277.85)" stroke-width="1pt" fill="#004e00"/><path d="M412.8 411.02v8.86l1.772-1.773 1.772 1.772 1.77-1.773 1.773 1.772 1.772-1.773 1.77 1.772 1.772-1.773 1.77 1.772 1.773-1.773v-23.032L412.8 411.02z" transform="matrix(-.968 0 0 1.053 316.55 -277.85)" stroke-width="1pt" fill="#004e00"/><path d="M412.8 411.02v8.858l1.77-1.772 1.773 1.772 1.77-1.772 1.773 1.772 1.772-1.772 1.77 1.772 1.773-1.772 1.772 1.772 1.772-1.772v-23.03L412.8 411.02z" transform="matrix(-.968 0 0 -1.053 316.55 546.43)" stroke-width="1pt" fill="#004e00"/><path d="M412.8 411.02v8.858l1.77-1.772 1.773 1.772 1.77-1.772 1.773 1.772 1.772-1.772 1.77 1.772 1.773-1.772 1.772 1.772 1.772-1.772v-23.03L412.8 411.02z" transform="matrix(.968 0 0 -1.053 -461.83 546.43)" stroke-width="1pt" fill="#004e00"/><path d="M380.9 414.57l-1.772-1.772-1.77 1.772-1.772-1.772-1.772 1.772-1.772-1.772-1.772 1.772-1.77-1.772-1.772 1.772v-28.347l1.77 1.772 1.772-1.772 1.772 1.772 1.77-1.772 1.773 1.772 1.772-1.772 1.77 1.772 1.773-1.772v10.63h-7.086l-3.544 3.544 3.544 3.543h7.086v10.63z" transform="matrix(.968 0 0 1.053 -480.69 -287.17)" stroke-width="1pt" fill="#004e00"/><path d="M380.9 414.57l-1.772-1.772-1.77 1.772-1.772-1.772-1.772 1.772-1.772-1.772-1.772 1.772-1.77-1.772-1.772 1.772v-28.347l1.77 1.772 1.772-1.772 1.772 1.772 1.77-1.772 1.773 1.772 1.772-1.772 1.77 1.772 1.773-1.772v10.63h-7.086l-3.544 3.544 3.544 3.543h7.086v10.63z" transform="matrix(-.968 0 0 1.053 335.41 -287.17)" stroke-width="1pt" fill="#004e00"/><path d="M357.87 396.85s-3.543 3.544-3.543 5.315c-.07 1.652 3.78 5.354 5.315 5.315 2.007.04 5.315-3.543 5.315-5.315 0-1.77-3.544-5.315-3.544-5.315v-7.086s7.696 12.183 7.696 6.868c0-3.812-7.697-10.412-7.697-10.412h-3.543s-7.696 7.727-7.696 10.412c0 5.315 7.696-6.868 7.696-6.868v7.086z" transform="matrix(.403 0 0 .416 -235.66 -9.092)" stroke-width="1pt" fill="#fff"/><path d="M357.87 396.85s-3.543 3.544-3.543 5.315c-.07 1.652 3.78 5.354 5.315 5.315 2.007.04 5.315-3.543 5.315-5.315 0-1.77-3.544-5.315-3.544-5.315v-7.086s6.276 11.593 6.276 6.278c0-3.437-6.277-9.822-6.277-9.822h-3.543s-7.244 7.994-6.275 9.82c0 5.316 6.275-6.276 6.275-6.276v7.086z" transform="matrix(.484 0 0 .582 -246.66 -69.429)" stroke-width="1pt" fill="#980000"/><ellipse fill="#004e00" transform="matrix(.968 0 0 1.053 -482.4 -277.85)" cx="403.94" rx="3.543" cy="391.54" ry="1.772" stroke-width="1pt"/><ellipse fill="#004e00" transform="matrix(.968 0 0 1.053 -463.54 -277.85)" cx="403.94" rx="3.543" cy="391.54" ry="1.772" stroke-width="1pt"/><ellipse fill="#004e00" transform="matrix(.968 0 0 1.053 -444.69 -277.85)" cx="403.94" rx="3.543" cy="391.54" ry="1.772" stroke-width="1pt"/><path d="M357.87 396.85s-3.543 3.544-3.543 5.315c-.07 1.652 3.78 5.354 5.315 5.315 2.007.04 5.315-3.543 5.315-5.315 0-1.77-3.544-5.315-3.544-5.315v-7.086s7.696 12.183 7.696 6.868c0-3.812-7.697-10.412-7.697-10.412h-3.543s-7.696 7.727-7.696 10.412c0 5.315 7.696-6.868 7.696-6.868v7.086z" transform="matrix(.403 0 0 -.416 -236.02 277.83)" stroke-width="1pt" fill="#fff"/><path d="M357.87 396.85s-3.543 3.544-3.543 5.315c-.07 1.652 3.78 5.354 5.315 5.315 2.007.04 5.315-3.543 5.315-5.315 0-1.77-3.544-5.315-3.544-5.315v-7.086s6.276 11.593 6.276 6.278c0-3.437-6.277-9.822-6.277-9.822h-3.543s-7.244 7.994-6.275 9.82c0 5.316 6.275-6.276 6.275-6.276v7.086z" transform="matrix(.484 0 0 -.582 -247.02 338.16)" stroke-width="1pt" fill="#980000"/><path d="M357.87 396.85s-3.543 3.544-3.543 5.315c-.07 1.652 3.78 5.354 5.315 5.315 2.007.04 5.315-3.543 5.315-5.315 0-1.77-3.544-5.315-3.544-5.315v-7.086s7.696 12.183 7.696 6.868c0-3.812-7.697-10.412-7.697-10.412h-3.543s-7.696 7.727-7.696 10.412c0 5.315 7.696-6.868 7.696-6.868v7.086z" transform="matrix(.403 0 0 .416 -199.16 -9.092)" stroke-width="1pt" fill="#fff"/><path d="M357.87 396.85s-3.543 3.544-3.543 5.315c-.07 1.652 3.78 5.354 5.315 5.315 2.007.04 5.315-3.543 5.315-5.315 0-1.77-3.544-5.315-3.544-5.315v-7.086s7.696 12.183 7.696 6.868c0-3.812-7.697-10.412-7.697-10.412h-3.543s-7.696 7.727-7.696 10.412c0 5.315 7.696-6.868 7.696-6.868v7.086z" transform="matrix(.403 0 0 -.416 -199.52 277.83)" stroke-width="1pt" fill="#fff"/><path d="M357.87 396.85s-3.543 3.544-3.543 5.315c-.07 1.652 3.78 5.354 5.315 5.315 2.007.04 5.315-3.543 5.315-5.315 0-1.77-3.544-5.315-3.544-5.315v-7.086s6.276 11.593 6.276 6.278c0-3.437-6.277-9.822-6.277-9.822h-3.543s-7.244 7.994-6.275 9.82c0 5.316 6.275-6.276 6.275-6.276v7.086z" transform="matrix(.536 0 0 .39 -298.12 -9.27)" stroke-width="1pt" fill="#980000"/><path d="M357.87 396.85s-3.543 3.544-3.543 5.315c-.07 1.652 3.78 5.354 5.315 5.315 2.007.04 5.315-3.543 5.315-5.315 0-1.77-3.544-5.315-3.544-5.315v-7.086s6.276 11.593 6.276 6.278c0-3.437-6.277-9.822-6.277-9.822h-3.543s-7.244 7.994-6.275 9.82c0 5.316 6.275-6.276 6.275-6.276v7.086z" transform="matrix(.536 0 0 -.39 -298.52 279.33)" stroke-width="1pt" fill="#980000"/><path d="M357.87 396.85s-3.543 3.544-3.543 5.315c-.07 1.652 3.78 5.354 5.315 5.315 2.007.04 5.315-3.543 5.315-5.315 0-1.77-3.544-5.315-3.544-5.315v-7.086s6.276 11.593 6.276 6.278c0-3.437-6.277-9.822-6.277-9.822h-3.543s-7.244 7.994-6.275 9.82c0 5.316 6.275-6.276 6.275-6.276v7.086z" transform="matrix(.536 0 0 .39 -232.27 -9.712)" stroke-width="1pt" fill="#980000"/><path d="M357.87 396.85s-3.543 3.544-3.543 5.315c-.07 1.652 3.78 5.354 5.315 5.315 2.007.04 5.315-3.543 5.315-5.315 0-1.77-3.544-5.315-3.544-5.315v-7.086s6.276 11.593 6.276 6.278c0-3.437-6.277-9.822-6.277-9.822h-3.543s-7.244 7.994-6.275 9.82c0 5.316 6.275-6.276 6.275-6.276v7.086z" transform="matrix(.536 0 0 -.39 -232.67 278.89)" stroke-width="1pt" fill="#980000"/><path d="M354.98 396.41c-1.526 3.07-1.123 4.474-1.123 6.245-.07 1.652 4.256 4.868 5.792 4.83 2.006.038 5.314-3.544 5.314-5.316 0-1.772.084-3.302-.738-6.356l-2.215 5.178c-2.688-7.346-2.834-7.517-4.43.178l-2.6-4.76z" transform="matrix(.403 0 0 -.416 -263.42 310.25)" stroke-width="1pt" fill="#fff"/><path d="M354.98 396.41c-1.526 3.07-1.123 4.474-1.123 6.245-.07 1.652 4.256 4.868 5.792 4.83 2.006.038 5.314-3.544 5.314-5.316 0-1.772.084-3.302-.738-6.356l-2.215 5.178c-2.688-7.346-2.834-7.517-4.43.178l-2.6-4.76z" transform="matrix(.403 0 0 .416 -263.36 -40.956)" stroke-width="1pt" fill="#fff"/><path d="M354.98 396.41c-1.526 3.07-1.123 4.474-1.123 6.245-.07 1.652 4.256 4.868 5.792 4.83 2.006.038 5.314-3.544 5.314-5.316 0-1.772.084-3.302-.738-6.356l-2.215 5.178c-2.688-7.346-2.834-7.517-4.43.178l-2.6-4.76z" transform="matrix(.403 0 0 -.416 -170.94 309.98)" stroke-width="1pt" fill="#fff"/><path d="M354.98 396.41c-1.526 3.07-1.123 4.474-1.123 6.245-.07 1.652 4.256 4.868 5.792 4.83 2.006.038 5.314-3.544 5.314-5.316 0-1.772.084-3.302-.738-6.356l-2.215 5.178c-2.688-7.346-2.834-7.517-4.43.178l-2.6-4.76z" transform="matrix(.403 0 0 .416 -170.89 -41.232)" stroke-width="1pt" fill="#fff"/><path d="M-83.27 170.073v-5.315h-15.944v-10.63h-14.173v-3.543h-12.402v-31.89h12.403v-3.543h14.173v-10.63h15.944V99.21h21.26v5.315h15.945v10.63h14.173v3.542h12.402v31.89h-12.402v3.543h-14.173v10.63H-62.01v5.315h-21.26zm-1.772 1.772v-5.315h-15.944V155.9h-14.173v-3.543h-12.4v-35.433h12.4v-3.544h14.174v-10.63h15.945v-5.314h24.802v5.315h15.945v10.63h14.173v3.544h12.402v35.433H-30.12v3.543h-14.173v10.63h-15.945v5.315h-24.804z" stroke="#000" stroke-width=".125" fill="#980000"/></g></g></g></svg>