<svg xmlns="http://www.w3.org/2000/svg" height="512" width="512"><g><path stroke-width="1pt" fill-rule="evenodd" fill="#f31930" d="M0 0h512v512H0z"/><g><path d="M448.824 228.37" stroke="#000" stroke-width=".728pt" fill="none"/><path d="M348.84 263.77c0 70.584-58.278 127.8-130.17 127.8S88.503 334.353 88.503 263.77s58.278-127.8 130.17-127.8S348.84 193.19 348.84 263.77z" fill-rule="evenodd" fill="#fff"/><path d="M355.278 264.012c0 56.514-46.602 102.328-104.088 102.328s-104.088-45.814-104.088-102.328 46.602-102.328 104.088-102.328 104.088 45.814 104.088 102.328z" fill-rule="evenodd" fill="#f31830"/><path d="M374.104 204.23l-1.05 47.272-44.103 11.973 43.474 15.482-1.05 43.35 28.352-33.853 42.842 14.863-24.782-36.332 30.242-36.125-46.413 12.798-27.512-39.428z" fill-rule="evenodd" stroke-width="1pt" fill="#fff"/></g></g></svg>