<svg xmlns="http://www.w3.org/2000/svg" height="512" width="512"><defs><clipPath id="a"><path fill-opacity=".67" d="M0 0h496.06v496.06H0z"/></clipPath></defs><g clip-path="url(#a)" fill-rule="evenodd" transform="scale(1.032 1.032)"><path stroke-width="1pt" fill="#fff" d="M0 0h992.13v496.06H0z"/><path stroke-width="1pt" fill="#94acd4" d="M0 0h992.13v171.7H0z"/><path stroke-width="1pt" fill="#b73000" d="M0 160.33h992.13v11.374H0z"/><path stroke-width="1pt" fill="#00a900" d="M0 335.73h992.13v160.33H0z"/><path stroke-width="1pt" fill="#b73000" d="M0 335.73h992.13v11.374H0z"/><path transform="matrix(.923 0 0 .928 71.38 -68.428)" stroke-width="1pt" fill="#feffff" d="M205.58 128.74l-10.01-6.85-9.91 7.01 3.42-11.64-9.72-7.25 12.12-.35 3.89-11.495 4.08 11.425 12.13.15-9.6 7.41z"/><path transform="matrix(.923 0 0 .928 27.81 17.296)" stroke-width="1pt" fill="#feffff" d="M205.58 128.74l-10.01-6.85-9.91 7.01 3.42-11.64-9.72-7.25 12.12-.35 3.89-11.495 4.08 11.425 12.13.15-9.6 7.41z"/><path transform="matrix(.923 0 0 .928 71.798 17.296)" stroke-width="1pt" fill="#feffff" d="M205.58 128.74l-10.01-6.85-9.91 7.01 3.42-11.64-9.72-7.25 12.12-.35 3.89-11.495 4.08 11.425 12.13.15-9.6 7.41z"/><path transform="matrix(.923 0 0 .928 112.44 17.296)" stroke-width="1pt" fill="#feffff" d="M205.58 128.74l-10.01-6.85-9.91 7.01 3.42-11.64-9.72-7.25 12.12-.35 3.89-11.495 4.08 11.425 12.13.15-9.6 7.41z"/><path transform="matrix(.923 0 0 .928 150.14 17.296)" stroke-width="1pt" fill="#feffff" d="M205.58 128.74l-10.01-6.85-9.91 7.01 3.42-11.64-9.72-7.25 12.12-.35 3.89-11.495 4.08 11.425 12.13.15-9.6 7.41z"/><path transform="matrix(.923 0 0 .928 -18.272 17.296)" stroke-width="1pt" fill="#feffff" d="M205.58 128.74l-10.01-6.85-9.91 7.01 3.42-11.64-9.72-7.25 12.12-.35 3.89-11.495 4.08 11.425 12.13.15-9.6 7.41z"/><path transform="matrix(.923 0 0 .928 26.972 -25.25)" stroke-width="1pt" fill="#feffff" d="M205.58 128.74l-10.01-6.85-9.91 7.01 3.42-11.64-9.72-7.25 12.12-.35 3.89-11.495 4.08 11.425 12.13.15-9.6 7.41z"/><path transform="matrix(.923 0 0 .928 71.38 -25.25)" stroke-width="1pt" fill="#feffff" d="M205.58 128.74l-10.01-6.85-9.91 7.01 3.42-11.64-9.72-7.25 12.12-.35 3.89-11.495 4.08 11.425 12.13.15-9.6 7.41z"/><path transform="matrix(.923 0 0 .928 113.27 -25.25)" stroke-width="1pt" fill="#feffff" d="M205.58 128.74l-10.01-6.85-9.91 7.01 3.42-11.64-9.72-7.25 12.12-.35 3.89-11.495 4.08 11.425 12.13.15-9.6 7.41z"/><path transform="matrix(.923 0 0 .928 149.72 -25.25)" stroke-width="1pt" fill="#feffff" d="M205.58 128.74l-10.01-6.85-9.91 7.01 3.42-11.64-9.72-7.25 12.12-.35 3.89-11.495 4.08 11.425 12.13.15-9.6 7.41z"/><path transform="matrix(.923 0 0 .928 149.3 -68.428)" stroke-width="1pt" fill="#feffff" d="M205.58 128.74l-10.01-6.85-9.91 7.01 3.42-11.64-9.72-7.25 12.12-.35 3.89-11.495 4.08 11.425 12.13.15-9.6 7.41z"/><path transform="matrix(.923 0 0 .928 112.85 -68.428)" stroke-width="1pt" fill="#feffff" d="M205.58 128.74l-10.01-6.85-9.91 7.01 3.42-11.64-9.72-7.25 12.12-.35 3.89-11.495 4.08 11.425 12.13.15-9.6 7.41z"/><path d="M142.44 25.95C93.004 12.4 61.688 47.4 62.16 78.763c.47 31.366 29.377 64.577 73.99 56.292-70.098 32.85-105.95-18.893-104.52-59.978 2.462-48.56 57.045-88.16 110.81-49.127z" fill="#fff"/></g></svg>