<svg xmlns="http://www.w3.org/2000/svg" height="512" width="512" version="1"><g fill-rule="evenodd"><path stroke-width="1.032pt" fill="#fff" d="M255.992 0h255.992v511.984H255.992z"/><g><path d="M282.43-735.13c0 .625 55.956 222.85 118.17 300.56 69.375 87.27 113.18 87.333 113.18 87.333l70.866-17.717s-41.496 2.093-123.8-104.21c-83.45-107.78-109.42-285.96-108.17-282.84l-70.24 16.875z" transform="matrix(-.216 0 0 .178 450.664 340.121)" stroke="#000" stroke-width="1pt" fill="#fff"/><path d="M285-727.64c-1.535-9.37 33.898 220.95 140.2 327.24 53.15 53.15 88.583 53.15 88.583 53.15l88.582-17.717s-51.712 3.75-134.02-102.55c-83.45-107.78-108.58-263.25-107.96-263.87l-75.38 3.75z" transform="matrix(.216 0 0 .178 313.778 341.739)" stroke="#000" stroke-width="1pt" fill="#fff"/><path d="M282.43-735.13c0 .625 55.956 222.85 118.17 300.56 69.375 87.27 113.18 87.333 113.18 87.333l70.866-17.717s-41.496 2.093-123.8-104.21c-83.45-107.78-109.42-285.96-108.17-282.84l-70.24 16.875z" transform="matrix(.216 0 0 .178 313.778 341.739)" stroke="#000" stroke-width="1pt" fill="#fff"/><path d="M285-727.64c-1.535-9.37 33.898 220.95 140.2 327.24 53.15 53.15 88.583 53.15 88.583 53.15l88.582-17.717s-51.712 3.75-134.02-102.55c-83.45-107.78-108.58-263.25-107.96-263.87l-75.38 3.75z" transform="matrix(-.216 0 0 .178 450.664 340.121)" stroke="#000" stroke-width="1pt" fill="#fff"/><path d="M344.54-596.29l9.152 22.14s1.455-9.766 8.526-11.533l7.07-1.768s26.865 49.327 32.17 58.166c5.3 8.838-3.537 16.793-1.77 16.793 1.77 0 26.517-11.49 26.517-11.49s-10.606.882-15.026-6.19-34.82-59.933-34.82-59.933 6.187-2.652 11.49-5.303c5.304-2.652 10.607 7.955 10.607 7.955L385.2-613.97s0 8.84-4.42 10.607c-4.42 1.766-7.956 3.534-7.956 3.534s-3.535-6.187-7.955-13.258c-4.42-7.07 4.42-14.142 4.42-14.142l-22.982 11.49s7.955 4.42 10.607 8.84c2.65 4.42 5.303 8.838 5.303 8.838s-3.223 1.768-8.214 3.482c-3.59 1.875-7.696.054-9.464-1.714z" transform="matrix(.216 .004 -.005 .178 312.088 347.217)" stroke="#000" stroke-width="1pt" fill="#fff133"/><g stroke="#000" stroke-width="14.25" fill="#b00"><path d="M338.974 341.605c-.567-.07-.815-.496-.496-.85s1.204-.64 1.77-.568l3.12.39c.566.07.814.496.495.85-.333.37-1.204.638-1.77.567l-3.12-.39z"/><path d="M337.48 342.994c-.568-.106-.816-.567-.497-.92s1.204-.603 1.77-.497l3.12.585c.566.106.814.566.495.92-.333.37-1.204.603-1.77.497l-3.12-.586z"/><path d="M335.592 344.227c-.567-.07-.815-.496-.496-.85s1.204-.64 1.77-.568l3.12.39c.566.07.814.495.495.85-.332.37-1.203.637-1.77.566l-3.118-.39z"/><path d="M357.092 326.397c-.567.035-.92-.354-.708-.78s.992-.885 1.56-.92l3.117-.196c.568-.034.922.356.71.78-.223.445-.993.887-1.56.922l-3.118.195z"/><path d="M356.026 327.944c-.567 0-.92-.425-.708-.85s.992-.85 1.56-.85h3.117c.567 0 .92.425.708.85-.222.444-.992.85-1.56.85h-3.117z"/><path d="M354.6 329.506c-.567.035-.92-.354-.708-.78s.992-.885 1.56-.92l3.117-.196c.566-.035.92.355.707.78-.222.444-.992.886-1.56.92l-3.117.196z"/><path d="M353.247 330.214c-.567 0-.886-.425-.638-.85s1.062-.85 1.63-.85h3.117c.567 0 .886.425.638.85-.26.444-1.063.85-1.63.85h-3.118z"/><path d="M361.977 320.375c-.566.07-.992-.283-.85-.708s.85-.922 1.417-.993l3.118-.39c.567-.07.993.284.85.71-.147.444-.85.92-1.416.992l-3.12.39z"/><path d="M361.082 321.914c-.566.07-.992-.283-.85-.708s.85-.922 1.417-.993l3.117-.39c.567-.07.993.284.85.71-.147.444-.85.92-1.416.992l-3.118.39z"/><path d="M359.935 323.822c-.566.07-.992-.283-.85-.708s.85-.922 1.417-.993l3.118-.388c.567-.07.993.283.85.708-.147.445-.85.922-1.416.993l-3.12.39z"/><path d="M358.41 325.168c-.567.07-.957-.283-.78-.708s.922-.922 1.49-.993l3.117-.39c.567-.07.956.284.78.71-.186.444-.922.92-1.49.992l-3.117.388z"/><path d="M345.698 336.765c-.567-.036-.85-.46-.567-.85s1.135-.745 1.702-.71l3.118.195c.567.036.85.46.567.85-.296.408-1.134.745-1.7.71l-3.12-.195z"/><path d="M344.322 338.25c-.567-.072-.85-.532-.567-.922s1.134-.71 1.7-.638l3.12.39c.566.07.85.53.566.92-.295.408-1.133.71-1.7.64l-3.118-.39z"/><path d="M342.58 339.604c-.567-.036-.85-.46-.567-.85s1.134-.745 1.7-.71l3.12.195c.566.035.85.46.566.85-.297.407-1.135.744-1.702.708l-3.118-.194z"/><path d="M340.863 340.37c-.567-.105-.815-.566-.496-.92s1.204-.602 1.77-.496l3.12.585c.566.105.814.565.495.92-.333.37-1.204.602-1.77.496l-3.12-.585z"/><path d="M351.69 331.91c-.568 0-.887-.425-.64-.85s1.064-.85 1.63-.85h3.12c.566 0 .885.425.637.85-.26.444-1.063.85-1.63.85h-3.118z"/><path d="M350.462 333.282c-.567 0-.886-.425-.638-.85s1.063-.85 1.63-.85h3.118c.567 0 .886.425.638.85-.26.444-1.063.85-1.63.85h-3.118z"/><path d="M348.816 333.925c-.567-.036-.85-.46-.567-.85s1.133-.745 1.7-.71l3.118.195c.567.036.85.46.567.85-.296.408-1.134.745-1.7.71l-3.12-.195z"/><path d="M347.44 335.41c-.567-.07-.85-.53-.567-.92s1.134-.71 1.7-.64l3.12.39c.566.072.85.532.566.922-.297.407-1.135.71-1.702.638l-3.118-.39z"/><path d="M372.004 300.79c-.53.177-1.027-.106-.992-.567s.603-1.098 1.134-1.275l2.923-.975c.53-.177 1.027.106.992.567-.038.48-.603 1.098-1.134 1.276l-2.924.974z"/><path d="M371.07 301.53c-.53.14-.956-.178-.85-.638s.744-1.063 1.276-1.205l2.923-.78c.53-.14.955.178.85.638-.112.482-.745 1.063-1.276 1.205l-2.924.78z"/><path d="M370.65 303.535c-.53.14-.99-.178-.92-.638s.673-1.063 1.204-1.205l2.924-.78c.53-.14.992.178.92.638-.073.482-.672 1.063-1.204 1.205l-2.923.78z"/><path d="M369.524 305.15c-.53.14-.956-.178-.85-.638s.744-1.063 1.276-1.205l2.923-.78c.53-.14.956.178.85.638-.11.482-.744 1.063-1.275 1.205l-2.924.78z"/><path d="M373.875 295.026c-.53.177-1.027-.106-.992-.567s.603-1.1 1.134-1.276l2.923-.975c.532-.178 1.028.105.993.566-.038.48-.603 1.098-1.134 1.276l-2.925.974z"/><path d="M373.197 297.08c-.53.178-1.027-.105-.992-.566s.603-1.098 1.134-1.275l2.922-.976c.532-.177 1.028.106.993.567-.038.482-.603 1.1-1.134 1.277l-2.923.974z"/><path d="M372.682 298.734c-.53.177-1.027-.106-.992-.567s.603-1.098 1.134-1.275l2.923-.975c.532-.177 1.028.106.993.567-.038.48-.603 1.098-1.134 1.276l-2.924.974z"/><path d="M365.755 313.828c-.566.107-.992-.248-.85-.708s.85-1.028 1.417-1.134l3.118-.585c.567-.105.993.25.85.71-.147.48-.85 1.027-1.416 1.134l-3.12.584z"/><path d="M364.93 315.606c-.566.07-.992-.32-.85-.78s.85-.992 1.417-1.063l3.118-.39c.567-.07.993.32.85.78-.147.48-.85.992-1.416 1.063l-3.12.39z"/><path d="M363.867 317.335c-.566.107-.992-.248-.85-.708s.85-1.028 1.417-1.134l3.118-.585c.567-.106.993.248.85.71-.147.48-.85 1.026-1.416 1.133l-3.12.585z"/><path d="M363.125 318.467c-.566.07-.992-.283-.85-.708s.85-.923 1.417-.994l3.118-.39c.567-.07.993.284.85.71-.147.444-.85.92-1.416.992l-3.12.39z"/><path d="M369.105 307.155c-.532.14-.992-.178-.92-.638s.672-1.063 1.203-1.205l2.924-.78c.53-.14.992.178.92.638-.073.482-.672 1.063-1.204 1.205l-2.923.78z"/><path d="M368.703 308.593c-.566.07-.992-.32-.85-.78s.85-.992 1.417-1.063l3.118-.39c.567-.07.993.32.85.78-.147.48-.85.992-1.416 1.063l-3.12.39z"/><path d="M367.642 310.32c-.566.108-.992-.247-.85-.707s.85-1.028 1.417-1.134l3.117-.586c.567-.106.993.248.85.71-.147.48-.85 1.026-1.416 1.133l-3.118.584z"/><path d="M366.817 312.1c-.566.07-.992-.32-.85-.78s.85-.992 1.417-1.063l3.118-.39c.567-.07.993.32.85.78-.147.48-.85.992-1.416 1.063l-3.12.39z"/><path d="M377.465 284.496c-.496.248-1.028.035-1.063-.425s.425-1.17.92-1.417l2.73-1.364c.496-.25 1.027-.036 1.063.424.037.482-.426 1.17-.922 1.418l-2.728 1.364z"/><path d="M376.805 286.3c-.53.178-1.027-.105-.992-.566s.603-1.098 1.134-1.275l2.923-.976c.532-.177 1.028.106.993.567-.038.482-.603 1.1-1.134 1.277l-2.925.974z"/><path d="M376.325 287.962c-.53.177-1.027-.106-.992-.567s.603-1.098 1.134-1.275l2.923-.975c.532-.177 1.028.106.993.567-.038.48-.603 1.098-1.134 1.276l-2.925.974z"/><path d="M378.205 278.774c-.496.213-1.028-.035-1.063-.496s.425-1.133.92-1.346l2.73-1.17c.496-.212 1.027.036 1.063.497.037.48-.426 1.133-.922 1.345l-2.728 1.17z"/><path d="M377.93 280.68c-.496.247-1.028.034-1.063-.426s.425-1.17.92-1.418l2.73-1.364c.496-.248 1.027-.035 1.063.425.037.482-.426 1.17-.922 1.418l-2.728 1.364z"/><path d="M377.74 282.59c-.497.213-1.03-.035-1.064-.496s.425-1.133.92-1.346l2.73-1.17c.496-.212 1.027.036 1.063.497.036.48-.427 1.134-.923 1.346l-2.728 1.17z"/><path d="M375.692 290.027c-.53.177-1.027-.106-.992-.567s.603-1.098 1.134-1.275l2.923-.975c.532-.177 1.028.106.993.567-.038.48-.603 1.098-1.134 1.276l-2.924.974z"/><path d="M375.098 291.223c-.53.177-1.027-.106-.992-.567s.603-1.098 1.134-1.275l2.923-.974c.532-.177 1.028.106.993.567-.038.48-.603 1.098-1.134 1.276l-2.924.973z"/><path d="M374.42 293.278c-.53.177-1.026-.106-.99-.567s.602-1.097 1.133-1.274l2.923-.975c.532-.176 1.028.107.993.568-.04.48-.604 1.098-1.135 1.276l-2.924.974z"/></g><g stroke="#000" stroke-width="14.25" fill="#b00"><path d="M423.185 337.097c.567-.07.85-.53.567-.92s-1.134-.71-1.7-.64l-3.12.39c-.566.072-.85.532-.566.922.296.406 1.134.708 1.7.637l3.12-.39z"/><path d="M424.576 338.36c.567-.07.85-.53.567-.92s-1.134-.71-1.7-.64l-3.12.39c-.566.072-.85.532-.566.922.296.407 1.134.71 1.7.638l3.12-.39z"/><path d="M426.335 339.915c.567-.07.85-.53.567-.92s-1.134-.71-1.7-.64l-3.12.39c-.566.072-.85.532-.566.922.296.407 1.134.71 1.7.638l3.12-.39z"/><path d="M406.426 320.243c.567.07.957-.283.78-.708s-.922-.922-1.49-.993l-3.117-.39c-.568-.07-.957.284-.78.71.185.444.92.92 1.488.992l3.118.39z"/><path d="M407.376 321.855c.567.035.957-.354.78-.78s-.922-.885-1.49-.92l-3.117-.196c-.568-.036-.957.354-.78.78.185.443.92.885 1.488.92l3.118.195z"/><path d="M408.65 323.5c.566.072.956-.282.78-.707s-.923-.922-1.49-.993l-3.118-.39c-.567-.07-.956.284-.78.71.186.444.922.92 1.49.992l3.117.39z"/><path d="M409.957 324.474c.567 0 .92-.425.708-.85s-.992-.85-1.56-.85h-3.117c-.567 0-.92.425-.708.85.222.444.992.85 1.56.85h3.117z"/><path d="M402.04 314.432c.567.107 1.028-.248.92-.708s-.778-1.028-1.345-1.134l-3.118-.585c-.567-.106-1.028.248-.922.71.112.48.78 1.026 1.347 1.133l3.118.584z"/><path d="M402.803 316.027c.567.107 1.028-.248.92-.708s-.778-1.03-1.345-1.135l-3.118-.585c-.567-.106-1.028.248-.922.71.112.48.78 1.026 1.347 1.133l3.118.584z"/><path d="M403.787 318.006c.567.107 1.028-.248.92-.708s-.778-1.028-1.345-1.134l-3.118-.585c-.567-.107-1.028.247-.922.708.112.48.78 1.027 1.347 1.134l3.117.584z"/><path d="M405.197 319.417c.566.107.992-.248.85-.708s-.85-1.03-1.417-1.135l-3.118-.585c-.567-.106-.993.248-.85.71.147.48.85 1.026 1.416 1.133l3.12.584z"/><path d="M416.91 331.44c.567-.035.886-.46.638-.85s-1.063-.744-1.63-.71l-3.118.196c-.567.036-.886.46-.638.85.26.408 1.063.745 1.63.71l3.118-.195z"/><path d="M418.175 332.793c.567-.036.886-.46.638-.85s-1.063-.745-1.63-.71l-3.118.195c-.567.036-.886.46-.638.85.26.408 1.063.745 1.63.71l3.118-.195z"/><path d="M419.78 334.462c.566-.036.885-.46.637-.85s-1.063-.745-1.63-.71l-3.118.195c-.568.036-.887.46-.64.85.26.408 1.064.745 1.63.71l3.12-.195z"/><path d="M421.425 335.543c.567-.07.85-.53.567-.92s-1.134-.71-1.7-.64l-3.12.39c-.566.072-.85.532-.566.922.296.407 1.134.71 1.7.638l3.12-.39z"/><path d="M411.368 326.05c.567.035.92-.354.708-.78s-.992-.885-1.56-.92l-3.117-.196c-.568-.035-.922.355-.71.78.223.444.993.886 1.56.92l3.118.196z"/><path d="M412.475 327.708c.567 0 .92-.425.708-.85s-.992-.85-1.56-.85h-3.117c-.567 0-.92.425-.708.85.222.444.992.85 1.56.85h3.117z"/><path d="M414.042 328.42c.567-.037.886-.462.638-.852s-1.063-.744-1.63-.71l-3.118.196c-.567.036-.886.46-.638.85.26.408 1.063.745 1.63.71l3.118-.195z"/><path d="M415.306 329.772c.567-.036.886-.46.638-.85s-1.063-.745-1.63-.71l-3.118.195c-.567.036-.886.46-.638.85.26.408 1.063.745 1.63.71l3.118-.195z"/><path d="M393.663 293.82c.53.213 1.063-.035 1.063-.496s-.532-1.133-1.063-1.346l-2.923-1.17c-.532-.212-1.063.036-1.063.497 0 .48.53 1.134 1.063 1.346l2.923 1.17z"/><path d="M394.1 294.778c.53.14 1.027-.178.992-.638s-.603-1.063-1.134-1.205l-2.923-.78c-.532-.14-1.028.178-.993.638.038.482.603 1.063 1.134 1.205l2.924.78z"/><path d="M394.802 296.627c.53.177 1.027-.106.992-.567s-.603-1.098-1.134-1.275l-2.923-.975c-.532-.177-1.028.106-.993.567.038.48.603 1.098 1.134 1.276l2.924.974z"/><path d="M395.34 298.5c.53.14 1.026-.18.99-.64s-.602-1.062-1.133-1.204l-2.923-.78c-.532-.14-1.028.178-.993.638.04.482.604 1.063 1.135 1.205l2.924.78z"/><path d="M392.278 288.14c.53.178 1.063-.105 1.063-.566s-.53-1.098-1.062-1.275l-2.923-.976c-.532-.177-1.063.106-1.063.567 0 .482.53 1.1 1.063 1.277l2.923.974z"/><path d="M392.783 290.03c.53.212 1.063-.036 1.063-.497s-.532-1.133-1.063-1.346l-2.923-1.17c-.532-.212-1.063.036-1.063.497 0 .48.53 1.134 1.063 1.346l2.923 1.17z"/><path d="M393.158 291.932c.53.177 1.063-.106 1.063-.567s-.53-1.098-1.062-1.275l-2.923-.975c-.532-.177-1.063.106-1.063.567 0 .48.53 1.098 1.063 1.276l2.923.974z"/><path d="M398.842 307.196c.567.14 1.028-.178.92-.638s-.778-1.063-1.345-1.205l-3.118-.78c-.568-.14-1.03.178-.923.638.112.483.78 1.064 1.347 1.206l3.118.78z"/><path d="M399.747 309.025c.53.107.956-.248.85-.708s-.744-1.028-1.276-1.134l-2.922-.585c-.53-.106-.956.248-.85.71.11.48.744 1.026 1.275 1.133l2.924.585z"/><path d="M400.43 310.82c.568.142 1.03-.177.922-.637s-.78-1.063-1.346-1.205l-3.118-.78c-.567-.14-1.028.178-.922.638.112.482.78 1.063 1.347 1.205l3.118.78z"/><path d="M401.056 312.453c.567.107 1.028-.248.92-.708s-.778-1.028-1.345-1.134l-3.117-.584c-.567-.106-1.028.248-.922.71.113.48.78 1.026 1.348 1.133l3.118.583z"/><path d="M396.04 300.347c.532.177 1.028-.106.993-.567s-.603-1.098-1.134-1.275l-2.924-.975c-.532-.177-1.028.106-.993.567.038.48.603 1.098 1.134 1.276l2.924.974z"/><path d="M396.572 301.774c.53.107.956-.248.85-.708s-.744-1.028-1.276-1.134l-2.923-.585c-.53-.106-.956.248-.85.71.11.48.744 1.026 1.275 1.133l2.924.584z"/><path d="M397.255 303.57c.567.14 1.028-.178.92-.638s-.778-1.063-1.345-1.205l-3.118-.78c-.567-.14-1.028.178-.922.638.112.482.78 1.063 1.347 1.205l3.118.78z"/><path d="M398.16 305.4c.53.107.956-.248.85-.708s-.744-1.028-1.276-1.134l-2.923-.585c-.53-.106-.955.248-.85.71.112.48.745 1.026 1.276 1.133l2.924.584z"/><path d="M389.753 277.194c.46.284.992.107 1.063-.354s-.32-1.205-.78-1.488l-2.533-1.56c-.46-.283-.992-.106-1.063.355-.074.48.32 1.205.78 1.488l2.533 1.56z"/><path d="M390.298 279.003c.496.213.992-.035.992-.496s-.496-1.133-.992-1.346l-2.73-1.168c-.495-.213-.99.035-.99.496 0 .48.495 1.134.99 1.346l2.73 1.17z"/><path d="M390.638 280.698c.496.213.992-.035.992-.496s-.496-1.133-.992-1.346l-2.73-1.17c-.495-.212-.99.036-.99.497 0 .48.495 1.134.99 1.346l2.73 1.168z"/><path d="M389.508 271.404c.46.248.992.035 1.063-.425s-.318-1.17-.778-1.42l-2.534-1.363c-.46-.248-.992-.035-1.063.425-.074.482.32 1.17.78 1.418l2.533 1.364z"/><path d="M389.606 273.333c.46.284.992.107 1.063-.354s-.32-1.206-.78-1.49l-2.534-1.558c-.46-.284-.992-.107-1.063.354-.074.48.32 1.205.78 1.488l2.533 1.56z"/><path d="M389.655 275.264c.46.248.992.035 1.063-.425s-.32-1.17-.78-1.42l-2.533-1.363c-.46-.248-.992-.035-1.063.425-.074.482.32 1.17.78 1.418l2.533 1.364z"/><path d="M391.096 282.807c.496.213.992-.035.992-.496s-.496-1.132-.992-1.345l-2.73-1.17c-.495-.212-.99.036-.99.497 0 .48.495 1.134.99 1.346l2.73 1.17z"/><path d="M391.376 284.254c.53.177 1.063-.106 1.063-.567s-.533-1.098-1.064-1.275l-2.923-.975c-.532-.177-1.063.106-1.063.567 0 .48.53 1.098 1.063 1.276l2.923.974z"/><path d="M391.88 286.142c.53.213 1.062-.035 1.062-.496s-.532-1.133-1.063-1.346l-2.924-1.17c-.532-.212-1.063.036-1.063.497 0 .48.53 1.134 1.063 1.346l2.923 1.17z"/></g><path d="M344.54-596.29l9.152 22.14s1.455-9.766 8.526-11.533l7.07-1.768s26.865 49.327 32.17 58.166c5.3 8.838-3.537 16.793-1.77 16.793 1.77 0 26.517-11.49 26.517-11.49s-10.606.882-15.026-6.19-34.82-59.933-34.82-59.933 6.187-2.652 11.49-5.303c5.304-2.652 10.607 7.955 10.607 7.955L385.2-613.97s0 8.84-4.42 10.607c-4.42 1.766-7.956 3.534-7.956 3.534s-3.535-6.187-7.955-13.258c-4.42-7.07 4.42-14.142 4.42-14.142l-22.982 11.49s7.955 4.42 10.607 8.84c2.65 4.42 5.303 8.838 5.303 8.838s-3.223 1.768-8.214 3.482c-3.59 1.875-7.696.054-9.464-1.714z" transform="matrix(-.216 .004 .005 .178 452.353 345.599)" stroke="#000" stroke-width="1pt" fill="#fff133"/><g transform="matrix(.13 0 0 .108 351.328 305.238)"><path stroke-width="1pt" fill="#c0c0c0" d="M324.546-255.37l-50.11 50.11L449.82-29.874l50.11-50.11z"/><ellipse fill="#fff133" transform="matrix(-.707 .707 .707 .707 833.17 -197.75)" cx="354.33" rx="35.433" cy="-1428" ry="35.433" stroke="#000" stroke-width="1pt"/><path d="M-402.046-956.91l37.583 37.582-25.055 25.054-37.583-37.582c-12.53-12.528 12.526-37.583 25.054-25.055z" stroke="#000" stroke-width="1pt" fill="#c0c0c0"/><path d="M-346.606-926.53l-50.11 50.11c-13.798 0-25.35-11.554-25.055-25.056 10.877-25.88 25.027-38.434 50.11-50.11 12.476.73 24.216 10.892 25.054 25.055z" stroke="#000" stroke-width="1pt" fill="#fff133"/><path d="M-351.926-931.85l37.583 37.582-50.11 50.11-37.583-37.583c5.027-20.03 30.082-45.085 50.11-50.11z" stroke="#000" stroke-width="1pt" fill="#c0c0c0"/><path d="M-309.026-888.95l-50.11 50.11c-13.798 0-25.35-11.554-25.055-25.056 10.877-25.88 25.027-38.434 50.11-50.11 12.476.73 24.216 10.892 25.054 25.055z" stroke="#000" stroke-width="1pt" fill="#fff133"/><path d="M-314.356-894.28L28.44-551.478l-50.11 50.11-342.796-342.804c5.027-20.03 30.082-45.085 50.11-50.11z" stroke="#000" stroke-width="1pt" fill="#c0c0c0"/><path d="M48.934-530.97l-50.11 50.11c-13.798 0-25.35-11.554-25.055-25.056 10.877-25.88 25.027-38.434 50.11-50.11 12.476.73 24.216 10.892 25.054 25.055z" stroke="#000" stroke-width="1pt" fill="#fff133"/><path d="M48.944-530.976L274.44-305.48l-50.11 50.11L-1.165-480.865c5.027-20.028 30.082-45.084 50.11-50.11z" stroke="#000" stroke-width="1pt" fill="#c0c0c0"/><path d="M186.744-418.23l-75.166 75.165c-13.797 0-25.35-11.553-25.055-25.055 0 0 0-25.055 25.055-50.11s50.11-25.055 50.11-25.055c11.64 1.567 21.415 12.527 25.055 25.055z" stroke="#000" stroke-width="1pt" fill="#c0c0c0"/><path d="M186.744-418.23l50.11 75.165-50.11 50.11-75.165-50.11c-2.83-2.443 0-25.055 25.054-50.11s48.98-24.457 50.11-25.056z" stroke="#000" stroke-width="1pt" fill="#c0c0c0"/><path d="M336.61-506.69c0-35.433 0-86.653 17.717-129.98 17.716 43.326 17.716 94.546 17.716 129.98H336.61z" transform="matrix(-.707 .707 .578 .578 755.37 -275.55)" stroke="#000" stroke-width="1pt" fill="#c0c0c0"/><path d="M318.9-506.69h17.716v-43.326c0-43.327-35.433-64.99-35.433-64.99l17.717 108.32z" transform="matrix(.707 -.707 .578 .578 254.27 225.55)" stroke="#000" stroke-width="1pt" fill="#c0c0c0"/><path d="M318.9-506.69h17.716v-43.326c0-43.327-35.433-64.99-35.433-64.99l17.717 108.32z" transform="matrix(-.707 .707 .578 .578 755.37 -275.55)" stroke="#000" stroke-width="1pt" fill="#c0c0c0"/><path d="M-314.356-894.28l37.583 37.582C-251.718-831.643-164.03-718.9-164.03-718.9s117.297 92.25 142.357 117.31l37.583 37.583c-25.056-25.055-179.937-129.835-179.937-129.835S-71.784-551.48-34.2-513.896l-37.584-37.583c-25.055-25.054-117.305-142.36-117.3-142.365-.005.005-100.223-75.168-125.276-100.22l-50.11-50.11c25.054 25.054 175.38 125.28 175.38 125.28s-100.218-150.338-125.27-175.39z" stroke="#000" stroke-width="1pt" fill="#fff133"/><path d="M299.493-230.317c50.11 75.165 100.22 125.276 112.744 137.8 23.776 23.82 50.11 25.055 50.11 25.055s0-25.056-25.055-50.11c-12.527-12.528-62.638-62.64-137.8-112.745zm-62.64-112.75c87.695 87.695 187.916 137.806 250.552 200.442 50.11 50.11 15.414 88.464 1.443 100.606-13.97 12.142-51.966 50.283-101.664-.385-62.638-62.638-112.746-162.857-200.442-250.552 0-25.055 25.056-50.11 50.11-50.11z" stroke="#000" stroke-width="1pt" fill="#c0c0c0"/><path transform="matrix(-1.249 -1.421 -1.359 1.317 1166.1 -102.64)" stroke="#000" stroke-width="1pt" fill="#c0c0c0" d="M218.28 257.88h22.934v73.043H218.28z"/><g stroke="#000" fill="#c0c0c0"><path d="M301.18 396.85l17.717 17.717-17.717 17.716 8.858 8.86 17.717-17.718 35.433 35.433-17.717 17.717 8.86 8.858 17.716-17.716 17.717 17.716-53.15 53.15-35.433-35.433 17.717-17.717 8.858 8.86 8.858-8.86L301.18 450l-8.858 8.86 8.858 8.857-17.716 17.716-17.717-17.716 8.858-8.86-8.858-8.857-35.433 35.433 8.858 8.858 8.858-8.857 17.717 17.717-17.716 17.716-8.857-8.858-8.86 8.858 35.434 35.433 8.86-8.86-8.86-8.858 17.717-17.716 35.433 35.433-53.15 53.15-17.717-17.718 17.717-17.716-8.858-8.858-17.718 17.716-35.433-35.433 17.716-17.716-8.86-8.858-17.715 17.717-17.716-17.717 124.02-124.02z" transform="matrix(-2.294 0 0 2.244 360.524 -1733.766)" stroke-width=".625"/><path d="M318.9 786.61v35.433l88.582 88.583V839.76l-17.716-17.717h-35.433L318.9 786.61z" stroke-width="1.25" transform="matrix(-1.147 0 0 1.122 157.31 -1288.5)"/><path d="M230.41 698.78l70.38 70.38.84 35.19-71.22-71.218V698.78z" transform="matrix(-1.147 0 0 1.122 157.424 -1288.525)" stroke-width="1.25"/><path d="M301.18 804.33l35.433-35.433v-35.433l-35.433 35.433v35.433z" stroke-width="1.25" transform="matrix(-1.147 0 0 1.122 157.31 -1288.5)"/><path d="M301.18 804.33l35.433-35.433v-35.433l-35.433 35.433v35.433z" transform="matrix(-1.147 0 0 1.122 258.915 -1387.89)" stroke-width="1.25"/><path d="M248.03 644.88v35.433l17.717-17.717-17.717-17.716z" stroke-width="1.25" transform="matrix(-1.147 0 0 1.122 157.31 -1288.5)"/><path d="M248.03 644.88v35.433l17.717-17.717-17.717-17.716z" transform="matrix(-1.147 0 0 1.122 55.705 -1189.11)" stroke-width="1.25"/><path d="M230.41 698.78l35.786 35.433v35.433l-35.786-36.514V698.78z" transform="matrix(-1.147 0 0 1.122 218.79 -1348.976)" stroke-width="1.25"/><path d="M301.18 804.33l35.433-35.433v-35.433l-35.433 35.433v35.433z" transform="matrix(-1.147 0 0 1.122 55.705 -1507.155)" stroke-width="1.25"/><path d="M301.18 804.33l35.433-35.433v-35.433l-35.433 35.433v35.433z" transform="matrix(-1.147 0 0 1.122 136.989 -1427.65)" stroke-width="1.25"/><path d="M283.46 822.05l53.15-53.15v-35.433l-70.866 70.866 17.716 17.717z" transform="matrix(-1.147 0 0 1.122 136.989 -1546.919)" stroke-width="1.25"/><path d="M248.03 644.88v35.433l17.717-17.717-17.717-17.716z" transform="matrix(-1.147 0 0 1.122 35.384 -1447.521)" stroke-width="1.25"/><path d="M301.18 804.33l-35.433-35.433v-35.433l35.433 35.433v35.433z" transform="matrix(-1.147 0 0 1.122 55.705 -1507.155)" stroke-width="1.25"/><path d="M389.76 822.05l-53.15-53.15v-35.433l70.866 70.866-17.716 17.717z" transform="matrix(-1.147 0 0 1.122 55.705 -1546.919)" stroke-width="1.25"/><path d="M230.41 698.05l70.866 70.866h35.433l17.716 17.716V857.5l-124.02-124.37v-35.08z" transform="matrix(-1.147 0 0 1.122 -66.103 -1387.915)" stroke-width="1.25"/><path d="M354.33 822.05l106.3-106.3h35.433l-106.3 106.3H354.33z" stroke-width="1.25" transform="matrix(-1.147 0 0 1.122 157.31 -1288.5)"/><path d="M407.48 839.76l106.3-106.3-17.72-17.71-106.3 106.3 17.72 17.71z" stroke-width="1.25" transform="matrix(-1.147 0 0 1.122 157.31 -1288.5)"/><path d="M407.48 839.76v70.866l106.3-106.3V733.46l-106.3 106.3z" transform="matrix(-1.147 0 0 1.122 157.31 -1288.5)" stroke-width="1.25"/><path d="M354.33 822.05l106.3-106.3h35.433l-106.3 106.3H354.33z" transform="matrix(-1.147 0 0 1.122 -5.254 -1447.521)" stroke-width="1.25"/><path d="M407.48 839.76l106.3-106.3-17.72-17.71-106.3 106.3 17.72 17.71z" transform="matrix(-1.147 0 0 1.122 -5.254 -1447.521)" stroke-width="1.25"/><path d="M407.48 839.76v70.866l106.3-106.3V733.46l-106.3 106.3z" transform="matrix(-1.147 0 0 1.122 -5.254 -1447.521)" stroke-width="1.25"/><path d="M318.9 786.62l17.717-17.717V733.47l-35.433 35.433L318.9 786.62z" transform="matrix(-1.147 0 0 1.122 -86.542 -1527.037)" stroke-width="1.25"/><path d="M318.9 786.62l17.717-17.717V733.47l-35.433 35.433L318.9 786.62z" transform="matrix(-1.147 0 0 1.122 15.059 -1626.424)" stroke-width="1.25"/><path d="M265.75 768.9v-35.433l17.717 17.716L265.75 768.9z" transform="matrix(-1.147 0 0 1.122 55.705 -1348.134)" stroke-width="1.25"/><path d="M301.18 804.33l-35.433-35.433 17.717-17.717 17.716 17.717v35.433z" transform="matrix(-1.147 0 0 1.122 136.989 -1427.65)" stroke-width="1.25"/><path d="M301.18 804.33l-17.716-17.717 17.716-17.716v35.433z" transform="matrix(-1.147 0 0 1.122 15.059 -1586.671)" stroke-width="1.25"/></g><path transform="matrix(-1.251 -1.419 -1.361 1.315 1166.1 -102.64)" stroke="#000" stroke-width="1pt" fill="#fff133" d="M196.5 254.15h25.197v80.26H196.5z"/><path d="M336.61 166.54c0 14.67 35.433 35.434 35.433-17.716H336.61v17.716z" transform="matrix(-1.899 0 0 1.887 1166.1 -102.64)" stroke="#000" stroke-width="1pt" fill="#c0c0c0"/><path d="M242.1 24.803c-147.06 0-113.13 164.24-100.37 124.02 9.36-29.503 35.433-70.866 64.935-80.225 40.225-12.76 26.696 9.36 41.364 9.36 14.67 0 1.14-22.12 41.363-9.36 29.503 9.36 55.577 50.722 64.936 80.225 12.76 40.224 53.148-124.02-112.23-124.02z" transform="matrix(-1.899 0 0 1.887 1166.1 -102.64)" stroke="#000" stroke-width="1pt" fill="#c0c0c0"/><path d="M389.76 166.54c0 78.237-63.496 141.73-141.73 141.73-78.236 0-141.73-63.496-141.73-141.73v-17.716c0-29.116 35.433 124.02 141.73 124.02s141.73-124.77 141.73-124.02v17.716z" transform="matrix(-1.899 0 0 1.887 1166.1 -102.64)" stroke="#000" stroke-width="1pt" fill="#c0c0c0"/><path d="M336.61 166.54c0 14.67 35.433 35.434 35.433-17.716H336.61v17.716z" transform="matrix(1.899 0 0 1.887 224 -100.51)" stroke="#000" stroke-width="1pt" fill="#c0c0c0"/><path d="M389.76 148.82c0 78.236-63.496 141.73-141.73 141.73-78.236 0-141.73-63.496-141.73-141.73 0-78.236 63.496-141.73 141.73-141.73 78.237 0 141.73 63.496 141.73 141.73zm-53.15 0c0 14.67 22.812 3.042 9.36 43.04-9.36 27.826-27.076 45.543-56.58 54.902-40.224 12.76-26.693-9.36-41.363-9.36-14.668 0-1.14 22.12-41.364 9.36-29.502-9.36-47.218-27.076-56.577-56.578-12.76-40.224 9.36-26.695 9.36-41.364 0-14.67-22.12-1.14-9.36-41.364 9.36-29.502 27.075-47.22 56.577-56.578 40.225-12.76 26.696 9.36 41.364 9.36 14.67 0 1.14-22.12 41.364-9.36 29.504 9.36 47.22 27.075 56.58 56.578 12.76 40.224-9.36 26.694-9.36 41.364z" transform="matrix(-1.899 0 0 1.887 1166.1 -102.64)" stroke="#000" stroke-width="1pt" fill="#c0c0c0"/><path d="M126.55 157.68c-20.248 0-1.93 67.6-9.104 51.705s-11.144-33.368-11.144-51.705 3.97-35.81 11.144-51.705c7.175-15.894-11.144 51.705 9.104 51.705z" transform="matrix(-1.662 0 0 1.761 1107.2 -99.519)" stroke="#000" stroke-width="1pt" fill="#c0c0c0"/><path d="M372.05 139.96c0 15.892-2.13 31.632-9.75 44.81-7.966 13.776 9.75-44.81-7.966-44.81 17.716 0 1.687-58.587 7.965-44.81 6.278 13.775 9.75 28.918 9.75 44.81z" transform="matrix(-1.899 0 0 2.032 1166.1 -106.24)" stroke="#000" stroke-width="1pt" fill="#c0c0c0"/><path d="M296.29 263.08c-14.836 6.28-31.144 9.75-48.258 9.75s-33.422-3.47-48.257-9.75c-14.835-6.278 48.257 9.75 48.257-7.966 0 17.717 63.093 1.688 48.258 7.966z" transform="matrix(-1.899 0 0 1.887 1166.1 -102.64)" stroke="#000" stroke-width="1pt" fill="#c0c0c0"/><path d="M248.03 42.52c0-17.716-63.092-1.688-48.257-7.966s31.143-9.75 48.257-9.75 33.422 3.472 48.258 9.75c14.835 6.278-48.258-9.75-48.258 7.966z" transform="matrix(-1.899 0 0 1.887 1166.1 -102.64)" stroke="#000" stroke-width="1pt" fill="#c0c0c0"/><ellipse fill="#fff133" transform="matrix(-1.293 -1.382 -1.391 1.284 1257.6 -120.02)" cx="82.112" rx="18.433" cy="160.86" ry="20.109" stroke="#000" stroke-width="1pt"/><path d="M276.58 287.67c-9.223 1.89-18.773 2.88-28.552 2.88s-19.33-.99-28.553-2.88l-1.432 6.965c9.686 1.984 19.715 3.025 29.985 3.025s20.3-1.04 29.985-3.025l-1.433-6.965z" transform="matrix(-1.293 -1.382 1.391 -1.284 808.89 712.05)" stroke="#000" stroke-width="1pt" fill="#fff133"/><path d="M276.58 287.67c-9.223 1.89-18.773 2.88-28.552 2.88s-19.33-.99-28.553-2.88l-1.432 6.965c9.686 1.984 19.715 3.025 29.985 3.025s20.3-1.04 29.985-3.025l-1.433-6.965z" transform="matrix(-1.293 -1.382 -1.391 1.284 1223.2 329.88)" stroke="#000" stroke-width="1pt" fill="#fff133"/><path d="M267.7 308.51c-9.223 1.89-20.19.927-29.97.927-9.777 0-19.284-2.612-28.508-4.5l8.82-10.304c9.687 1.984 19.716 3.025 29.986 3.025s20.3-1.04 29.985-3.025L267.7 308.51z" transform="matrix(-1.293 -1.382 -1.391 1.284 1223.2 329.88)" stroke="#000" stroke-width="1pt" fill="#fff133"/><path d="M276.58 287.67c-9.223 1.89-18.773 2.88-28.552 2.88s-19.33-.99-28.553-2.88l-1.432 6.965c9.686 1.984 19.715 3.025 29.985 3.025s20.3-1.04 29.985-3.025l-1.433-6.965z" transform="matrix(-1.391 1.284 1.293 1.382 847.44 -345.21)" stroke="#000" stroke-width="1pt" fill="#fff133"/><ellipse fill="#fff133" transform="matrix(-1.293 -1.382 -1.391 1.284 789.14 314.38)" cx="82.112" rx="18.433" cy="160.86" ry="20.109" stroke="#000" stroke-width="1pt"/><path d="M267.59 281.47c-9.223 1.89-17.098 2.943-26.877 2.943s-23.112-.712-32.336-2.6l9.672 12.82c9.685 1.985 19.714 3.026 29.984 3.026s20.3-1.042 29.985-3.026l-10.43-13.164z" transform="matrix(-1.391 1.284 1.293 1.382 850.63 -315.18)" stroke="#000" stroke-width="1pt" fill="#fff133"/><path d="M173.94 271.77l-.838 14.842-3.24 4.493.977-15.087 3.1-4.248z" transform="matrix(-1.899 0 0 1.887 1166.1 -102.64)" stroke="#000" stroke-width="1pt" fill="#fff133"/><path d="M330.54 265.6l3.562 4.19 1.047 13.615-2.934-2.933-1.676-14.872z" transform="matrix(-1.899 0 0 1.887 1166.1 -102.64)" stroke="#000" stroke-width="1pt" fill="#fff133"/><ellipse fill="#fff133" transform="matrix(-1.293 -1.382 -1.391 1.284 1237.6 329.88)" cx="82.112" rx="18.433" cy="160.86" ry="20.109" stroke="#000" stroke-width="1pt"/></g><path d="M513.78-790.16l35.432-17.714 35.433 17.714s-73.366 35.433-73.366 159.45c-.002 88.58 125.26 106.3 125.26 212.6 0 45.65-34.184 88.582-69.617 88.582s-88.583-17.716-141.73-70.866c35.433 17.716 76.082 37.308 106.3 36.058 19.588-.405 55.025-17.716 55.025-53.15 0-70.865-122.77-106.92-122.77-213.22 0-124.02 50.025-159.45 50.026-159.45z" transform="matrix(-.216 0 0 .178 450.664 340.121)" stroke="#000" stroke-width="1pt" fill="#fff"/><path d="M520.25-790.16l46.683-17.717 10 17.717s-70.65 35.433-70.65 159.45c0 88.58 125.89 106.3 125.89 212.6 0 45.65-26.713 87.362-65.24 88.582-73.403 2.363-90.458-23.966-141.73-70.866 43.15 32.308 105 46.752 129.02 34.183 29.354-15.365 35.024-36.06 35.024-53.775 0-70.866-120.89-104.42-120.89-210.72 0-124.02 51.9-159.45 51.9-159.45z" transform="matrix(-.216 0 0 .178 450.664 340.121)" stroke="#000" stroke-width="1pt" fill="#fff"/><path d="M513.34-789.69c7.004-2.437 35.875-18.186 71.308 17.247 17.717 17.72 17.716 53.15 17.716 70.866l53.15-53.15s-29.066-86.87-107.62-53.59c-11.127 4.9-28.14 14.537-34.55 18.627z" transform="matrix(-.216 0 0 .178 450.664 340.121)" stroke="#000" stroke-width="1pt" fill="#fff"/><path d="M523.8-795.94c8.84-2.87 36.676-6.325 64.596 18.5 17.717 17.72 18.966 42.934 18.966 60.65l40.65-37.932c3.44-3.21-24.832-81.252-99.24-54.034-4.5 1.807-14.78 6.302-24.972 12.816z" transform="matrix(-.216 0 0 .178 450.664 340.121)" stroke="#000" stroke-width="1pt" fill="#fff"/><path d="M344.54-596.29l9.152 22.14s1.455-9.766 8.526-11.533l7.07-1.768s26.865 49.327 32.17 58.166c5.3 8.838-3.537 16.793-1.77 16.793 1.77 0 26.517-11.49 26.517-11.49s-10.606.882-15.026-6.19-34.82-59.933-34.82-59.933 6.187-2.652 11.49-5.303c5.304-2.652 10.607 7.955 10.607 7.955L385.2-613.97s0 8.84-4.42 10.607c-4.42 1.766-7.956 3.534-7.956 3.534s-3.535-6.187-7.955-13.258c-4.42-7.07 4.42-14.142 4.42-14.142l-22.982 11.49s7.955 4.42 10.607 8.84c2.65 4.42 5.303 8.838 5.303 8.838s-3.223 1.768-8.214 3.482c-3.59 1.875-7.696.054-9.464-1.714z" transform="matrix(-.176 -.018 -.06 .155 365.632 342.589)" stroke="#000" stroke-width="1pt" fill="#fff133"/><path d="M344.54-596.29l9.152 22.14s1.455-9.766 8.526-11.533l7.07-1.768s26.865 49.327 32.17 58.166c5.3 8.838-3.537 16.793-1.77 16.793 1.77 0 26.517-11.49 26.517-11.49s-10.606.882-15.026-6.19-34.82-59.933-34.82-59.933 6.187-2.652 11.49-5.303c5.304-2.652 10.607 7.955 10.607 7.955L385.2-613.97s0 8.84-4.42 10.607c-4.42 1.766-7.956 3.534-7.956 3.534s-3.535-6.187-7.955-13.258c-4.42-7.07 4.42-14.142 4.42-14.142l-22.982 11.49s7.955 4.42 10.607 8.84c2.65 4.42 5.303 8.838 5.303 8.838s-3.223 1.768-8.214 3.482c-3.59 1.875-7.696.054-9.464-1.714z" transform="matrix(.16 .021 .003 -.118 258.658 126.599)" stroke="#000" stroke-width="1pt" fill="#fff133"/><g transform="matrix(.13 0 0 .108 351.328 305.238)"><g stroke-width="1pt" transform="matrix(.707 .707 -.707 .707 -216.75 -485.87)"><ellipse fill="#c0c0c0" transform="translate(124.01 283.46)" cx="354.33" rx="35.433" cy="-1428" ry="35.433" stroke="#000"/><path d="M460.63-1126.77v53.15h35.432v-53.15c0-17.717-35.432-17.717-35.432 0z" stroke="#000" fill="#fff133"/><path d="M442.91-1066.09h70.866c9.757-9.756 9.757-26.095 0-35.433-25.99-10.607-44.874-9.48-70.866 0-8.307 9.338-9.422 24.826 0 35.433z" stroke="#000" fill="#c0c0c0"/><path d="M442.91-1073.62v53.15h70.866v-53.15c-17.717-10.607-53.15-10.607-70.866 0z" stroke="#000" fill="#fff133"/><path d="M442.91-1012.94h70.866c9.757-9.756 9.757-26.095 0-35.433-25.99-10.607-44.874-9.48-70.866 0-8.307 9.338-9.422 24.826 0 35.433z" stroke="#000" fill="#c0c0c0"/><path fill="#fff133" d="M442.91-116.93h70.866V131.1H442.91z"/><path d="M442.91-1020.476l.006 484.79h70.867l-.007-484.79c-17.717-10.607-53.15-10.607-70.866 0z" stroke="#000" fill="#fff133"/><path d="M442.92-506.698h70.866c9.757-9.756 9.757-26.095 0-35.433-25.99-10.608-44.874-9.48-70.866 0-8.307 9.337-9.422 24.825 0 35.432z" stroke="#000" fill="#c0c0c0"/><path d="M442.92-506.7v318.9h70.866v-318.9c-17.717-10.607-53.15-10.607-70.866 0z" stroke="#000" fill="#fff133"/><path d="M425.19-329.53h106.3c9.757-9.756 9.757-26.095 0-35.433 0 0-17.716-17.716-53.15-17.716s-53.15 17.717-53.15 17.717c-7.12 9.338-6.283 24 0 35.433z" stroke="#000" fill="#fff133"/><path d="M425.19-329.53l17.717 88.583h70.866l17.716-88.583c.273-3.727-17.717-17.716-53.15-17.716s-51.928 17.34-53.15 17.716z" stroke="#000" fill="#fff133"/><path d="M336.61-506.69c0-35.433 0-86.653 17.717-129.98 17.716 43.326 17.716 94.546 17.716 129.98H336.61z" transform="matrix(1 0 0 .818 124.01 173.44)" stroke="#000" fill="#fff133"/><path d="M318.9-506.69h17.716v-43.326c0-43.327-35.433-64.99-35.433-64.99l17.717 108.32z" transform="matrix(-1 0 0 .818 832.67 173.44)" stroke="#000" fill="#fff133"/><path d="M318.9-506.69h17.716v-43.326c0-43.327-35.433-64.99-35.433-64.99l17.717 108.32z" transform="matrix(1 0 0 .818 124.01 173.44)" stroke="#000" fill="#fff133"/><path d="M478.34-116.93c17.716 88.582 17.716 159.45 17.716 177.16.03 33.655-17.716 53.15-17.716 53.15s-17.717-17.717-17.717-53.15c0-17.716 0-88.583 17.717-177.16zm-35.433-124.02c0 124.02-35.433 230.32-35.433 318.9 0 70.866 51.654 73.453 70.118 72.16 18.464-1.294 72.3-1.19 71.614-72.16 0-88.583-35.433-194.88-35.433-318.9-17.717-17.716-53.15-17.716-70.866 0z" stroke="#000" fill="#fff133"/><path d="M442.91-1020.476v53.15c0 35.433 17.716 177.16 17.716 177.16s-17.71 148.17-17.71 183.61v53.15c0-35.433 35.427-219.04 35.427-219.04s35.44 165.89 35.44 219.04v-53.15c0-35.433-17.717-183.61-17.724-183.61.006 0 17.716-124.02 17.716-159.45v-70.867c0 35.433-35.426 212.6-35.426 212.6s-35.44-177.17-35.44-212.6z" stroke="#000" fill="#c0c0c0"/></g><path transform="matrix(1.249 -1.421 1.359 1.317 -662.45 -102.64)" stroke="#000" stroke-width="1pt" fill="#fff133" d="M218.28 257.88h22.934v73.043H218.28z"/><path d="M336.61 166.54c0 14.67 35.433 35.434 35.433-17.716H336.61v17.716z" transform="matrix(1.899 0 0 1.887 -662.45 -102.64)" stroke="#000" stroke-width="1pt" fill="#fff133"/><path d="M242.1 24.803c-147.06 0-113.13 164.24-100.37 124.02 9.36-29.503 35.433-70.866 64.935-80.225 40.225-12.76 26.696 9.36 41.364 9.36 14.67 0 1.14-22.12 41.363-9.36 29.503 9.36 55.577 50.722 64.936 80.225 12.76 40.224 53.148-124.02-112.23-124.02z" transform="matrix(1.899 0 0 1.887 -662.45 -102.64)" stroke="#000" stroke-width="1pt" fill="#fff133"/><path d="M389.76 166.54c0 78.237-63.496 141.73-141.73 141.73-78.236 0-141.73-63.496-141.73-141.73v-17.716c0-29.116 35.433 124.02 141.73 124.02s141.73-124.77 141.73-124.02v17.716z" transform="matrix(1.899 0 0 1.887 -662.45 -102.64)" stroke="#000" stroke-width="1pt" fill="#fff133"/><ellipse fill="#c0c0c0" transform="matrix(1.293 -1.382 1.391 1.284 -753.9 -120.02)" cx="82.112" rx="18.433" cy="160.86" ry="20.109" stroke="#000" stroke-width="1pt"/><path transform="matrix(1.251 -1.419 1.361 1.315 -662.45 -102.64)" stroke="#000" stroke-width="1pt" fill="#c0c0c0" d="M196.5 254.15h25.197v80.26H196.5z"/><path d="M336.61 166.54c0 14.67 35.433 35.434 35.433-17.716H336.61v17.716z" transform="matrix(-1.899 0 0 1.887 279.67 -100.51)" stroke="#000" stroke-width="1pt" fill="#fff133"/><path d="M389.76 148.82c0 78.236-63.496 141.73-141.73 141.73-78.236 0-141.73-63.496-141.73-141.73 0-78.236 63.496-141.73 141.73-141.73 78.237 0 141.73 63.496 141.73 141.73zm-53.15 0c0 14.67 22.812 3.042 9.36 43.04-9.36 27.826-27.076 45.543-56.58 54.902-40.224 12.76-26.693-9.36-41.363-9.36-14.668 0-1.14 22.12-41.364 9.36-29.502-9.36-47.218-27.076-56.577-56.578-12.76-40.224 9.36-26.695 9.36-41.364 0-14.67-22.12-1.14-9.36-41.364 9.36-29.502 27.075-47.22 56.577-56.578 40.225-12.76 26.696 9.36 41.364 9.36 14.67 0 1.14-22.12 41.364-9.36 29.504 9.36 47.22 27.075 56.58 56.578 12.76 40.224-9.36 26.694-9.36 41.364z" transform="matrix(1.899 0 0 1.887 -662.45 -102.64)" stroke="#000" stroke-width="1pt" fill="#fff133"/><path d="M126.55 157.68c-20.248 0-1.93 67.6-9.104 51.705s-11.144-33.368-11.144-51.705 3.97-35.81 11.144-51.705c7.175-15.894-11.144 51.705 9.104 51.705z" transform="matrix(1.662 0 0 1.761 -603.57 -99.519)" stroke="#000" stroke-width="1pt" fill="#fff133"/><path d="M372.05 139.96c0 15.892-2.13 31.632-9.75 44.81-7.966 13.776 9.75-44.81-7.966-44.81 17.716 0 1.687-58.587 7.965-44.81 6.278 13.775 9.75 28.918 9.75 44.81z" transform="matrix(1.899 0 0 2.032 -662.45 -106.24)" stroke="#000" stroke-width="1pt" fill="#fff133"/><path d="M296.29 263.08c-14.836 6.28-31.144 9.75-48.258 9.75s-33.422-3.47-48.257-9.75c-14.835-6.278 48.257 9.75 48.257-7.966 0 17.717 63.093 1.688 48.258 7.966z" transform="matrix(1.899 0 0 1.887 -662.45 -102.64)" stroke="#000" stroke-width="1pt" fill="#fff133"/><path d="M248.03 42.52c0-17.716-63.092-1.688-48.257-7.966s31.143-9.75 48.257-9.75 33.422 3.472 48.258 9.75c14.835 6.278-48.258-9.75-48.258 7.966z" transform="matrix(1.899 0 0 1.887 -662.45 -102.64)" stroke="#000" stroke-width="1pt" fill="#fff133"/><path d="M276.58 287.67c-9.223 1.89-18.773 2.88-28.552 2.88s-19.33-.99-28.553-2.88l-1.432 6.965c9.686 1.984 19.715 3.025 29.985 3.025s20.3-1.04 29.985-3.025l-1.433-6.965z" transform="matrix(1.293 -1.382 -1.391 -1.284 -305.22 712.05)" stroke="#000" stroke-width="1pt" fill="#c0c0c0"/><path d="M276.58 287.67c-9.223 1.89-18.773 2.88-28.552 2.88s-19.33-.99-28.553-2.88l-1.432 6.965c9.686 1.984 19.715 3.025 29.985 3.025s20.3-1.04 29.985-3.025l-1.433-6.965z" transform="matrix(1.293 -1.382 1.391 1.284 -719.56 329.88)" stroke="#000" stroke-width="1pt" fill="#c0c0c0"/><path d="M267.7 308.51c-9.223 1.89-20.19.927-29.97.927-9.777 0-19.284-2.612-28.508-4.5l8.82-10.304c9.687 1.984 19.716 3.025 29.986 3.025s20.3-1.04 29.985-3.025L267.7 308.51z" transform="matrix(1.293 -1.382 1.391 1.284 -719.56 329.88)" stroke="#000" stroke-width="1pt" fill="#c0c0c0"/><path d="M276.58 287.67c-9.223 1.89-18.773 2.88-28.552 2.88s-19.33-.99-28.553-2.88l-1.432 6.965c9.686 1.984 19.715 3.025 29.985 3.025s20.3-1.04 29.985-3.025l-1.433-6.965z" transform="matrix(1.391 1.284 -1.293 1.382 -343.78 -345.21)" stroke="#000" stroke-width="1pt" fill="#c0c0c0"/><ellipse fill="#c0c0c0" transform="matrix(1.293 -1.382 1.391 1.284 -285.47 314.38)" cx="82.112" rx="18.433" cy="160.86" ry="20.109" stroke="#000" stroke-width="1pt"/><path d="M267.59 281.47c-9.223 1.89-17.098 2.943-26.877 2.943s-23.112-.712-32.336-2.6l9.672 12.82c9.685 1.985 19.714 3.026 29.984 3.026s20.3-1.042 29.985-3.026l-10.43-13.164z" transform="matrix(1.391 1.284 -1.293 1.382 -346.96 -315.18)" stroke="#000" stroke-width="1pt" fill="#c0c0c0"/><path d="M173.94 271.77l-.838 14.842-3.24 4.493.977-15.087 3.1-4.248z" transform="matrix(1.899 0 0 1.887 -662.45 -102.64)" stroke="#000" stroke-width="1pt" fill="#c0c0c0"/><path d="M330.54 265.6l3.562 4.19 1.047 13.615-2.934-2.933-1.676-14.872z" transform="matrix(1.899 0 0 1.887 -662.45 -102.64)" stroke="#000" stroke-width="1pt" fill="#c0c0c0"/><ellipse fill="#c0c0c0" transform="matrix(1.293 -1.382 1.391 1.284 -733.89 329.88)" cx="82.112" rx="18.433" cy="160.86" ry="20.109" stroke="#000" stroke-width="1pt"/><g stroke="#000" fill="#fff133"><path d="M301.18 396.85l17.717 17.717-17.717 17.716 8.858 8.86 17.717-17.718 35.433 35.433-17.717 17.717 8.86 8.858 17.716-17.716 17.717 17.716-53.15 53.15-35.433-35.433 17.717-17.717 8.858 8.86 8.858-8.86L301.18 450l-8.858 8.86 8.858 8.857-17.716 17.716-17.717-17.716 8.858-8.86-8.858-8.857-35.433 35.433 8.858 8.858 8.858-8.857 17.717 17.717-17.716 17.716-8.857-8.858-8.86 8.858 35.434 35.433 8.86-8.86-8.86-8.858 17.717-17.716 35.433 35.433-53.15 53.15-17.717-17.718 17.717-17.716-8.858-8.858-17.718 17.716-35.433-35.433 17.716-17.716-8.86-8.858-17.715 17.717-17.716-17.717 124.02-124.02z" transform="matrix(2.294 0 0 2.244 143.146 -1733.766)" stroke-width=".625"/><path d="M318.9 786.61v35.433l88.582 88.583V839.76l-17.716-17.717h-35.433L318.9 786.61z" stroke-width="1.25" transform="matrix(1.147 0 0 1.122 346.36 -1288.5)"/><path d="M230.41 698.78l70.38 70.38.84 35.19-71.22-71.218V698.78z" transform="matrix(1.147 0 0 1.122 346.246 -1288.525)" stroke-width="1.25"/><path d="M301.18 804.33l35.433-35.433v-35.433l-35.433 35.433v35.433z" stroke-width="1.25" transform="matrix(1.147 0 0 1.122 346.36 -1288.5)"/><path d="M301.18 804.33l35.433-35.433v-35.433l-35.433 35.433v35.433z" transform="matrix(1.147 0 0 1.122 244.755 -1387.89)" stroke-width="1.25"/><path d="M248.03 644.88v35.433l17.717-17.717-17.717-17.716z" stroke-width="1.25" transform="matrix(1.147 0 0 1.122 346.36 -1288.5)"/><path d="M248.03 644.88v35.433l17.717-17.717-17.717-17.716z" transform="matrix(1.147 0 0 1.122 447.965 -1189.11)" stroke-width="1.25"/><path d="M230.41 698.78l35.786 35.433v35.433l-35.786-36.514V698.78z" transform="matrix(1.147 0 0 1.122 284.88 -1348.976)" stroke-width="1.25"/><path d="M301.18 804.33l35.433-35.433v-35.433l-35.433 35.433v35.433z" transform="matrix(1.147 0 0 1.122 447.965 -1507.155)" stroke-width="1.25"/><path d="M301.18 804.33l35.433-35.433v-35.433l-35.433 35.433v35.433z" transform="matrix(1.147 0 0 1.122 366.681 -1427.65)" stroke-width="1.25"/><path d="M283.46 822.05l53.15-53.15v-35.433l-70.866 70.866 17.716 17.717z" transform="matrix(1.147 0 0 1.122 366.681 -1546.919)" stroke-width="1.25"/><path d="M248.03 644.88v35.433l17.717-17.717-17.717-17.716z" transform="matrix(1.147 0 0 1.122 468.286 -1447.521)" stroke-width="1.25"/><path d="M301.18 804.33l-35.433-35.433v-35.433l35.433 35.433v35.433z" transform="matrix(1.147 0 0 1.122 447.965 -1507.155)" stroke-width="1.25"/><path d="M389.76 822.05l-53.15-53.15v-35.433l70.866 70.866-17.716 17.717z" transform="matrix(1.147 0 0 1.122 447.965 -1546.919)" stroke-width="1.25"/><path d="M230.41 698.05l70.866 70.866h35.433l17.716 17.716V857.5l-124.02-124.37v-35.08z" transform="matrix(1.147 0 0 1.122 569.773 -1387.915)" stroke-width="1.25"/><path d="M354.33 822.05l106.3-106.3h35.433l-106.3 106.3H354.33z" stroke-width="1.25" transform="matrix(1.147 0 0 1.122 346.36 -1288.5)"/><path d="M407.48 839.76l106.3-106.3-17.72-17.71-106.3 106.3 17.72 17.71z" stroke-width="1.25" transform="matrix(1.147 0 0 1.122 346.36 -1288.5)"/><path d="M407.48 839.76v70.866l106.3-106.3V733.46l-106.3 106.3z" transform="matrix(1.147 0 0 1.122 346.36 -1288.5)" stroke-width="1.25"/><path d="M354.33 822.05l106.3-106.3h35.433l-106.3 106.3H354.33z" transform="matrix(1.147 0 0 1.122 508.924 -1447.521)" stroke-width="1.25"/><path d="M407.48 839.76l106.3-106.3-17.72-17.71-106.3 106.3 17.72 17.71z" transform="matrix(1.147 0 0 1.122 508.924 -1447.521)" stroke-width="1.25"/><path d="M407.48 839.76v70.866l106.3-106.3V733.46l-106.3 106.3z" transform="matrix(1.147 0 0 1.122 508.924 -1447.521)" stroke-width="1.25"/><path d="M318.9 786.62l17.717-17.717V733.47l-35.433 35.433L318.9 786.62z" transform="matrix(1.147 0 0 1.122 590.212 -1527.037)" stroke-width="1.25"/><path d="M318.9 786.62l17.717-17.717V733.47l-35.433 35.433L318.9 786.62z" transform="matrix(1.147 0 0 1.122 488.611 -1626.424)" stroke-width="1.25"/><path d="M265.75 768.9v-35.433l17.717 17.716L265.75 768.9z" transform="matrix(1.147 0 0 1.122 447.965 -1348.134)" stroke-width="1.25"/><path d="M301.18 804.33l-35.433-35.433 17.717-17.717 17.716 17.717v35.433z" transform="matrix(1.147 0 0 1.122 366.681 -1427.65)" stroke-width="1.25"/><path d="M301.18 804.33l-17.716-17.717 17.716-17.716v35.433z" transform="matrix(1.147 0 0 1.122 488.611 -1586.671)" stroke-width="1.25"/></g></g><g stroke="#000" stroke-width="20.006" fill="#b00"><path d="M381.055 287.072c-.46-.284-1.027-.107-1.133.354s.248 1.205.708 1.488l2.534 1.56c.46.283 1.027.106 1.134-.355.11-.482-.25-1.206-.71-1.49l-2.533-1.558z"/><path d="M381.087 285.355c-.46-.284-1.027-.107-1.133.354s.248 1.204.708 1.487l2.534 1.56c.46.283 1.027.106 1.134-.355.11-.48-.25-1.205-.71-1.488l-2.533-1.56z"/><path d="M381.09 283.21c-.46-.284-1.026-.107-1.132.354s.248 1.205.708 1.488l2.534 1.56c.46.283 1.027.106 1.134-.355.11-.48-.25-1.205-.71-1.488l-2.533-1.56z"/><path d="M381.122 281.492c-.46-.284-1.027-.107-1.133.354s.247 1.205.707 1.488l2.534 1.56c.46.283 1.028.106 1.135-.355.11-.482-.25-1.206-.71-1.49l-2.533-1.558z"/><path d="M380.985 294.797c-.46-.284-1.027-.107-1.133.354s.248 1.206.708 1.49l2.534 1.558c.46.284 1.027.107 1.134-.354.11-.48-.25-1.205-.71-1.488l-2.533-1.56z"/><path d="M381.016 293.08c-.46-.285-1.027-.108-1.133.353s.248 1.205.708 1.488l2.535 1.56c.46.284 1.027.107 1.134-.354.11-.48-.25-1.205-.71-1.488l-2.534-1.56z"/><path d="M381.02 290.935c-.46-.284-1.027-.107-1.133.354s.248 1.204.708 1.487l2.534 1.56c.46.283 1.026.106 1.133-.355.11-.48-.25-1.205-.71-1.488l-2.533-1.56z"/><path d="M381.052 289.216c-.46-.284-1.027-.107-1.133.354s.247 1.205.707 1.488l2.534 1.56c.46.283 1.028.106 1.135-.355.11-.48-.25-1.205-.71-1.488l-2.533-1.56z"/><path d="M381.197 271.624c-.46-.284-1.027-.107-1.133.354s.248 1.205.708 1.488l2.534 1.56c.46.283 1.027.106 1.134-.355.11-.48-.25-1.204-.71-1.487l-2.533-1.56z"/><path d="M381.23 269.906c-.46-.284-1.028-.107-1.134.354s.248 1.205.708 1.488l2.534 1.56c.46.283 1.027.106 1.134-.355.11-.48-.25-1.205-.71-1.488l-2.533-1.56z"/><path d="M381.233 267.762c-.46-.284-1.027-.107-1.133.354s.248 1.205.708 1.488l2.534 1.56c.46.283 1.027.106 1.134-.355.11-.482-.25-1.206-.71-1.49l-2.533-1.558z"/><path d="M381.264 266.043c-.46-.284-1.027-.107-1.133.354s.25 1.205.71 1.488l2.533 1.56c.46.283 1.027.106 1.134-.355.11-.48-.25-1.205-.71-1.488l-2.533-1.56z"/><path d="M381.126 279.35c-.46-.285-1.027-.108-1.133.353s.248 1.205.708 1.488l2.535 1.56c.46.284 1.027.107 1.134-.354.11-.48-.25-1.205-.71-1.488l-2.534-1.56z"/><path d="M381.158 277.63c-.46-.284-1.027-.107-1.133.354s.248 1.205.708 1.488l2.534 1.56c.46.283 1.027.106 1.134-.355.112-.48-.248-1.205-.708-1.488l-2.534-1.56z"/><path d="M381.162 275.486c-.46-.284-1.027-.107-1.133.354s.247 1.205.707 1.488l2.534 1.56c.46.283 1.028.106 1.135-.355.11-.48-.25-1.205-.71-1.488l-2.533-1.56z"/><path d="M381.193 273.768c-.46-.284-1.027-.107-1.133.354s.248 1.205.708 1.488l2.534 1.56c.46.283 1.027.106 1.134-.355.11-.48-.25-1.205-.71-1.488l-2.533-1.56z"/><path d="M380.772 317.97c-.46-.283-1.027-.106-1.133.355s.247 1.205.707 1.488l2.534 1.56c.46.283 1.028.106 1.135-.355.11-.48-.25-1.205-.71-1.488l-2.533-1.56z"/><path d="M380.804 316.252c-.46-.284-1.027-.107-1.133.354s.25 1.205.71 1.488l2.533 1.56c.46.283 1.027.106 1.134-.355.11-.482-.25-1.206-.71-1.49l-2.533-1.558z"/><path d="M380.807 314.108c-.46-.284-1.027-.107-1.133.354s.248 1.205.708 1.488l2.534 1.56c.46.283 1.027.106 1.134-.355.11-.48-.25-1.205-.71-1.488l-2.533-1.56z"/><path d="M380.84 312.39c-.46-.284-1.028-.107-1.134.354s.248 1.205.708 1.488l2.534 1.56c.46.283 1.027.106 1.134-.355.11-.48-.25-1.205-.71-1.488l-2.533-1.56z"/><path d="M380.7 325.694c-.46-.284-1.026-.107-1.132.354s.248 1.205.708 1.488l2.534 1.56c.46.283 1.027.106 1.134-.355.11-.48-.25-1.204-.71-1.487l-2.533-1.56z"/><path d="M380.733 323.976c-.46-.284-1.027-.107-1.133.354s.248 1.205.708 1.488l2.534 1.56c.46.283 1.027.106 1.134-.355.11-.48-.25-1.205-.71-1.488l-2.533-1.56z"/><path d="M380.737 321.832c-.46-.284-1.027-.107-1.133.354s.248 1.205.708 1.488l2.534 1.56c.46.283 1.027.106 1.134-.355.11-.482-.25-1.206-.71-1.49l-2.533-1.558z"/><path d="M380.768 320.115c-.46-.284-1.027-.107-1.133.354s.248 1.204.708 1.487l2.534 1.56c.46.283 1.027.106 1.134-.355.112-.48-.248-1.205-.708-1.488l-2.534-1.56z"/><path d="M380.914 302.52c-.46-.283-1.027-.106-1.133.355s.25 1.205.71 1.488l2.533 1.56c.46.283 1.027.106 1.134-.355.11-.48-.25-1.205-.71-1.488l-2.533-1.56z"/><path d="M380.945 300.803c-.46-.284-1.027-.107-1.133.354s.248 1.205.708 1.488l2.534 1.56c.46.283 1.027.106 1.134-.355.11-.48-.25-1.205-.71-1.488l-2.533-1.56z"/><path d="M380.95 298.66c-.46-.285-1.028-.108-1.134.353s.248 1.205.708 1.488l2.534 1.56c.46.284 1.027.107 1.134-.354.11-.48-.25-1.205-.71-1.488l-2.533-1.56z"/><path d="M380.98 296.94c-.46-.283-1.026-.106-1.132.355s.248 1.205.708 1.488l2.534 1.56c.46.283 1.027.106 1.134-.355.11-.48-.25-1.205-.71-1.488l-2.533-1.56z"/><path d="M380.843 310.246c-.46-.284-1.027-.107-1.133.354s.248 1.205.708 1.488l2.534 1.56c.46.283 1.027.106 1.134-.355.11-.48-.25-1.205-.71-1.488l-2.533-1.56z"/><path d="M380.874 308.527c-.46-.284-1.027-.107-1.133.354s.25 1.206.71 1.49l2.533 1.558c.46.284 1.027.107 1.134-.354.11-.48-.25-1.205-.71-1.488l-2.533-1.56z"/><path d="M380.878 306.384c-.46-.284-1.027-.107-1.133.354s.248 1.205.708 1.488l2.534 1.56c.46.283 1.027.106 1.134-.355.112-.48-.248-1.204-.708-1.487l-2.534-1.56z"/><path d="M380.91 304.665c-.46-.284-1.027-.107-1.133.354s.248 1.204.708 1.487l2.534 1.56c.46.283 1.026.106 1.133-.355.11-.48-.25-1.205-.71-1.488l-2.533-1.56z"/><path d="M380.488 348.868c-.46-.284-1.027-.107-1.133.354s.248 1.205.708 1.488l2.534 1.56c.46.283 1.027.106 1.134-.355.112-.48-.248-1.205-.708-1.488l-2.534-1.56z"/><path d="M380.52 347.15c-.46-.284-1.027-.107-1.133.354s.248 1.205.708 1.488l2.534 1.56c.46.283 1.026.106 1.133-.355.11-.48-.25-1.205-.71-1.488l-2.533-1.56z"/><path d="M380.524 345.006c-.46-.284-1.027-.107-1.133.354s.25 1.205.71 1.488l2.533 1.56c.46.283 1.027.106 1.134-.355.11-.48-.25-1.205-.71-1.488l-2.533-1.56z"/><path d="M380.556 343.287c-.46-.284-1.027-.107-1.133.354s.248 1.206.708 1.49l2.535 1.558c.46.284 1.027.107 1.134-.354.11-.48-.25-1.205-.71-1.488l-2.534-1.56z"/><path d="M380.45 354.874c-.46-.284-1.028-.107-1.134.354s.248 1.205.708 1.488l2.534 1.56c.46.283 1.027.106 1.134-.355.11-.48-.25-1.204-.71-1.487l-2.533-1.56z"/><path d="M380.453 352.73c-.46-.284-1.027-.107-1.133.354s.248 1.205.708 1.488l2.534 1.56c.46.283 1.027.106 1.134-.355.11-.48-.25-1.205-.71-1.488l-2.533-1.56z"/><path d="M380.485 351.012c-.46-.284-1.027-.107-1.133.354s.248 1.205.708 1.488l2.534 1.56c.46.283 1.027.106 1.134-.355.11-.482-.25-1.206-.71-1.49l-2.533-1.558z"/><path d="M380.63 333.42c-.46-.285-1.027-.108-1.133.353s.248 1.205.708 1.488l2.534 1.56c.46.284 1.026.107 1.133-.354.11-.48-.25-1.205-.71-1.488l-2.533-1.56z"/><path d="M380.662 331.7c-.46-.284-1.027-.107-1.133.354s.247 1.205.707 1.488l2.534 1.56c.46.283 1.028.106 1.135-.355.11-.48-.25-1.205-.71-1.488l-2.533-1.56z"/><path d="M380.666 329.557c-.46-.284-1.027-.107-1.133.354s.248 1.206.708 1.49l2.535 1.558c.46.284 1.027.107 1.134-.354.11-.48-.25-1.205-.71-1.488l-2.534-1.56z"/><path d="M380.697 327.838c-.46-.284-1.027-.107-1.133.354s.248 1.205.708 1.488l2.534 1.56c.46.283 1.027.106 1.134-.355.11-.48-.25-1.205-.71-1.488l-2.533-1.56z"/><path d="M380.56 341.144c-.46-.284-1.028-.107-1.134.354s.248 1.205.708 1.488l2.534 1.56c.46.283 1.027.106 1.134-.355.11-.48-.25-1.204-.71-1.487l-2.533-1.56z"/><path d="M380.59 339.425c-.46-.284-1.026-.107-1.132.354s.248 1.204.708 1.487l2.534 1.56c.46.283 1.027.106 1.134-.355.11-.48-.25-1.205-.71-1.488l-2.533-1.56z"/><path d="M380.595 337.28c-.46-.283-1.027-.106-1.133.355s.248 1.205.708 1.488l2.534 1.56c.46.283 1.027.106 1.134-.355.11-.48-.25-1.205-.71-1.488l-2.533-1.56z"/><path d="M380.626 335.563c-.46-.284-1.027-.107-1.133.354s.248 1.205.708 1.488l2.535 1.56c.46.283 1.027.106 1.134-.355.11-.48-.25-1.205-.71-1.488l-2.534-1.56z"/><path d="M380.31 368.277c-.46-.284-1.027-.107-1.133.354s.248 1.206.708 1.49l2.534 1.558c.46.284 1.026.107 1.133-.354.11-.48-.25-1.205-.71-1.488l-2.533-1.56z"/><path d="M380.342 366.558c-.46-.284-1.027-.107-1.133.354s.247 1.205.707 1.488l2.534 1.56c.46.283 1.028.106 1.135-.355.11-.48-.25-1.205-.71-1.488l-2.533-1.56z"/><path d="M380.346 364.415c-.46-.284-1.027-.107-1.133.354s.248 1.204.708 1.487l2.535 1.56c.46.283 1.027.106 1.134-.355.11-.48-.25-1.205-.71-1.488l-2.534-1.56z"/><path d="M380.377 362.697c-.46-.284-1.027-.107-1.133.354s.248 1.206.708 1.49l2.534 1.558c.46.284 1.027.107 1.134-.354.11-.48-.25-1.205-.71-1.488l-2.533-1.56z"/><path d="M380.27 374.283c-.46-.284-1.026-.107-1.132.354s.248 1.205.708 1.488l2.534 1.56c.46.283 1.027.106 1.134-.355.11-.48-.25-1.205-.71-1.488l-2.533-1.56z"/><path d="M380.275 372.14c-.46-.285-1.027-.108-1.133.353s.248 1.205.708 1.488l2.534 1.56c.46.284 1.027.107 1.134-.354.11-.48-.25-1.205-.71-1.488l-2.533-1.56z"/><path d="M380.307 370.42c-.46-.283-1.027-.106-1.133.355s.248 1.205.708 1.488l2.534 1.56c.46.283 1.027.106 1.134-.355.11-.48-.25-1.205-.71-1.488l-2.533-1.56z"/><path d="M380.38 360.553c-.46-.284-1.026-.107-1.132.354s.248 1.205.708 1.488l2.534 1.56c.46.283 1.027.106 1.134-.355.11-.48-.25-1.205-.71-1.488l-2.533-1.56z"/><path d="M380.413 358.835c-.46-.284-1.027-.107-1.133.354s.248 1.204.708 1.487l2.534 1.56c.46.283 1.027.106 1.134-.355.11-.48-.25-1.205-.71-1.488l-2.533-1.56z"/><path d="M380.417 356.69c-.46-.283-1.027-.106-1.133.355s.248 1.205.708 1.488l2.534 1.56c.46.283 1.027.106 1.134-.355.11-.48-.25-1.205-.71-1.488l-2.533-1.56z"/></g><g stroke="#000" stroke-width="20.006" fill="#b00"><path d="M383.767 287.435c-.46-.284-1.027-.107-1.133.354s.248 1.204.708 1.487l2.534 1.56c.46.283 1.027.106 1.134-.355.11-.48-.25-1.205-.71-1.488l-2.533-1.56z"/><path d="M383.783 285.718c-.46-.284-1.027-.107-1.133.354s.248 1.205.708 1.488l2.534 1.56c.46.283 1.027.106 1.134-.355.11-.48-.25-1.205-.71-1.488l-2.533-1.56z"/><path d="M383.767 283.573c-.46-.284-1.027-.107-1.133.354s.248 1.205.708 1.488l2.534 1.56c.46.283 1.027.106 1.134-.355.11-.48-.25-1.205-.71-1.488l-2.533-1.56z"/><path d="M383.783 281.855c-.46-.284-1.027-.107-1.133.354s.248 1.204.708 1.487l2.534 1.56c.46.283 1.027.106 1.134-.355.11-.48-.25-1.205-.71-1.488l-2.533-1.56z"/><path d="M383.767 295.16c-.46-.284-1.027-.107-1.133.354s.248 1.205.708 1.488l2.534 1.56c.46.283 1.027.106 1.134-.355.11-.48-.25-1.205-.71-1.488l-2.533-1.56z"/><path d="M383.783 293.442c-.46-.284-1.027-.107-1.133.354s.248 1.205.708 1.488l2.534 1.56c.46.283 1.027.106 1.134-.355.11-.482-.25-1.206-.71-1.49l-2.533-1.558z"/><path d="M383.767 291.298c-.46-.284-1.027-.107-1.133.354s.248 1.205.708 1.488l2.534 1.56c.46.283 1.027.106 1.134-.355.11-.48-.25-1.205-.71-1.488l-2.533-1.56z"/><path d="M383.783 289.58c-.46-.285-1.027-.108-1.133.353s.248 1.205.708 1.488l2.534 1.56c.46.284 1.027.107 1.134-.354.11-.48-.25-1.205-.71-1.488l-2.533-1.56z"/><path d="M383.767 271.987c-.46-.284-1.027-.107-1.133.354s.248 1.206.708 1.49l2.534 1.558c.46.284 1.027.107 1.134-.354.11-.48-.25-1.205-.71-1.488l-2.533-1.56z"/><path d="M383.783 270.27c-.46-.285-1.027-.108-1.133.353s.248 1.205.708 1.488l2.534 1.56c.46.284 1.027.107 1.134-.354.11-.48-.25-1.205-.71-1.488l-2.533-1.56z"/><path d="M383.767 268.125c-.46-.284-1.027-.107-1.133.354s.248 1.204.708 1.487l2.534 1.56c.46.283 1.027.106 1.134-.355.11-.48-.25-1.205-.71-1.488l-2.533-1.56z"/><path d="M383.783 266.406c-.46-.284-1.027-.107-1.133.354s.248 1.205.708 1.488l2.534 1.56c.46.283 1.027.106 1.134-.355.11-.48-.25-1.205-.71-1.488l-2.533-1.56z"/><path d="M383.767 279.712c-.46-.284-1.027-.107-1.133.354s.248 1.205.708 1.488l2.534 1.56c.46.283 1.027.106 1.134-.355.11-.482-.25-1.206-.71-1.49l-2.533-1.558z"/><path d="M383.783 277.993c-.46-.284-1.027-.107-1.133.354s.248 1.205.708 1.488l2.534 1.56c.46.283 1.027.106 1.134-.355.11-.48-.25-1.205-.71-1.488l-2.533-1.56z"/><path d="M383.767 275.85c-.46-.285-1.027-.108-1.133.353s.248 1.205.708 1.488l2.534 1.56c.46.284 1.027.107 1.134-.354.11-.48-.25-1.205-.71-1.488l-2.533-1.56z"/><path d="M383.783 274.13c-.46-.283-1.027-.106-1.133.355s.248 1.205.708 1.488l2.534 1.56c.46.283 1.027.106 1.134-.355.11-.48-.25-1.205-.71-1.488l-2.533-1.56z"/><path d="M383.767 318.334c-.46-.284-1.027-.107-1.133.354s.248 1.205.708 1.488l2.534 1.56c.46.283 1.027.106 1.134-.355.11-.48-.25-1.204-.71-1.487l-2.533-1.56z"/><path d="M383.783 316.615c-.46-.284-1.027-.107-1.133.354s.248 1.204.708 1.487l2.534 1.56c.46.283 1.027.106 1.134-.355.11-.48-.25-1.205-.71-1.488l-2.533-1.56z"/><path d="M383.767 314.47c-.46-.283-1.027-.106-1.133.355s.248 1.205.708 1.488l2.534 1.56c.46.283 1.027.106 1.134-.355.11-.48-.25-1.205-.71-1.488l-2.533-1.56z"/><path d="M383.783 312.753c-.46-.284-1.027-.107-1.133.354s.248 1.205.708 1.488l2.534 1.56c.46.283 1.027.106 1.134-.355.11-.48-.25-1.205-.71-1.488l-2.533-1.56z"/><path d="M383.767 326.057c-.46-.284-1.027-.107-1.133.354s.248 1.206.708 1.49l2.534 1.558c.46.284 1.027.107 1.134-.354.11-.48-.25-1.205-.71-1.488l-2.533-1.56z"/><path d="M383.783 324.34c-.46-.285-1.027-.108-1.133.353s.248 1.205.708 1.488l2.534 1.56c.46.284 1.027.107 1.134-.354.11-.48-.25-1.205-.71-1.488l-2.533-1.56z"/><path d="M383.767 322.195c-.46-.284-1.027-.107-1.133.354s.248 1.204.708 1.487l2.534 1.56c.46.283 1.027.106 1.134-.355.11-.48-.25-1.205-.71-1.488l-2.533-1.56z"/><path d="M383.783 320.478c-.46-.284-1.027-.107-1.133.354s.248 1.205.708 1.488l2.534 1.56c.46.283 1.027.106 1.134-.355.11-.48-.25-1.205-.71-1.488l-2.533-1.56z"/><path d="M383.767 302.884c-.46-.284-1.027-.107-1.133.354s.248 1.205.708 1.488l2.534 1.56c.46.283 1.027.106 1.134-.355.11-.48-.25-1.204-.71-1.487l-2.533-1.56z"/><path d="M383.783 301.166c-.46-.284-1.027-.107-1.133.354s.248 1.205.708 1.488l2.534 1.56c.46.283 1.027.106 1.134-.355.11-.48-.25-1.205-.71-1.488l-2.533-1.56z"/><path d="M383.767 299.022c-.46-.284-1.027-.107-1.133.354s.248 1.205.708 1.488l2.534 1.56c.46.283 1.027.106 1.134-.355.11-.482-.25-1.206-.71-1.49l-2.533-1.558z"/><path d="M383.783 297.304c-.46-.284-1.027-.107-1.133.354s.248 1.205.708 1.488l2.534 1.56c.46.283 1.027.106 1.134-.355.11-.48-.25-1.204-.71-1.487l-2.533-1.56z"/><path d="M383.767 310.61c-.46-.285-1.027-.108-1.133.353s.248 1.205.708 1.488l2.534 1.56c.46.284 1.027.107 1.134-.354.11-.48-.25-1.205-.71-1.488l-2.533-1.56z"/><path d="M383.783 308.89c-.46-.284-1.027-.107-1.133.354s.248 1.205.708 1.488l2.534 1.56c.46.283 1.027.106 1.134-.355.11-.48-.25-1.205-.71-1.488l-2.533-1.56z"/><path d="M383.767 306.747c-.46-.284-1.027-.107-1.133.354s.248 1.206.708 1.49l2.534 1.558c.46.284 1.027.107 1.134-.354.11-.48-.25-1.205-.71-1.488l-2.533-1.56z"/><path d="M383.783 305.028c-.46-.284-1.027-.107-1.133.354s.248 1.205.708 1.488l2.534 1.56c.46.283 1.027.106 1.134-.355.11-.48-.25-1.205-.71-1.488l-2.533-1.56z"/><path d="M383.767 349.23c-.46-.283-1.027-.106-1.133.355s.248 1.205.708 1.488l2.534 1.56c.46.283 1.027.106 1.134-.355.11-.48-.25-1.205-.71-1.488l-2.533-1.56z"/><path d="M383.783 347.513c-.46-.284-1.027-.107-1.133.354s.248 1.205.708 1.488l2.534 1.56c.46.283 1.027.106 1.134-.355.11-.48-.25-1.205-.71-1.488l-2.533-1.56z"/><path d="M383.767 345.37c-.46-.285-1.027-.108-1.133.353s.248 1.205.708 1.488l2.534 1.56c.46.284 1.027.107 1.134-.354.11-.48-.25-1.205-.71-1.488l-2.533-1.56z"/><path d="M383.783 343.65c-.46-.284-1.027-.107-1.133.354s.248 1.205.708 1.488l2.534 1.56c.46.283 1.027.106 1.134-.355.11-.48-.25-1.205-.71-1.488l-2.533-1.56z"/><path d="M383.783 355.237c-.46-.284-1.027-.107-1.133.354s.248 1.206.708 1.49l2.534 1.558c.46.284 1.027.107 1.134-.354.11-.48-.25-1.205-.71-1.488l-2.533-1.56z"/><path d="M383.767 353.093c-.46-.284-1.027-.107-1.133.354s.248 1.205.708 1.488l2.534 1.56c.46.283 1.027.106 1.134-.355.11-.48-.25-1.205-.71-1.488l-2.533-1.56z"/><path d="M383.783 351.375c-.46-.284-1.027-.107-1.133.354s.248 1.204.708 1.487l2.534 1.56c.46.283 1.027.106 1.134-.355.11-.48-.25-1.205-.71-1.488l-2.533-1.56z"/><path d="M383.767 333.782c-.46-.284-1.027-.107-1.133.354s.248 1.205.708 1.488l2.534 1.56c.46.283 1.027.106 1.134-.355.11-.482-.25-1.206-.71-1.49l-2.533-1.558z"/><path d="M383.783 332.063c-.46-.284-1.027-.107-1.133.354s.248 1.205.708 1.488l2.534 1.56c.46.283 1.027.106 1.134-.355.11-.48-.25-1.205-.71-1.488l-2.533-1.56z"/><path d="M383.767 329.92c-.46-.284-1.027-.107-1.133.354s.248 1.205.708 1.488l2.534 1.56c.46.283 1.027.106 1.134-.355.11-.48-.25-1.205-.71-1.488l-2.533-1.56z"/><path d="M383.783 328.2c-.46-.283-1.027-.106-1.133.355s.248 1.205.708 1.488l2.534 1.56c.46.283 1.027.106 1.134-.355.11-.48-.25-1.205-.71-1.488l-2.533-1.56z"/><path d="M383.767 341.507c-.46-.284-1.027-.107-1.133.354s.248 1.206.708 1.49l2.534 1.558c.46.284 1.027.107 1.134-.354.11-.48-.25-1.205-.71-1.488l-2.533-1.56z"/><path d="M383.783 339.788c-.46-.284-1.027-.107-1.133.354s.248 1.205.708 1.488l2.534 1.56c.46.283 1.027.106 1.134-.355.11-.48-.25-1.205-.71-1.488l-2.533-1.56z"/><path d="M383.767 337.644c-.46-.284-1.027-.107-1.133.354s.248 1.205.708 1.488l2.534 1.56c.46.283 1.027.106 1.134-.355.11-.48-.25-1.204-.71-1.487l-2.533-1.56z"/><path d="M383.783 335.926c-.46-.284-1.027-.107-1.133.354s.248 1.205.708 1.488l2.534 1.56c.46.283 1.027.106 1.134-.355.11-.48-.25-1.205-.71-1.488l-2.533-1.56z"/><path d="M383.767 368.64c-.46-.284-1.027-.107-1.133.354s.248 1.205.708 1.488l2.534 1.56c.46.283 1.027.106 1.134-.355.11-.48-.25-1.205-.71-1.488l-2.533-1.56z"/><path d="M383.783 366.92c-.46-.283-1.027-.106-1.133.355s.248 1.205.708 1.488l2.534 1.56c.46.283 1.027.106 1.134-.355.11-.48-.25-1.205-.71-1.488l-2.533-1.56z"/><path d="M383.767 364.778c-.46-.284-1.027-.107-1.133.354s.248 1.205.708 1.488l2.534 1.56c.46.283 1.027.106 1.134-.355.11-.48-.25-1.205-.71-1.488l-2.533-1.56z"/><path d="M383.783 363.06c-.46-.284-1.027-.107-1.133.354s.248 1.205.708 1.488l2.534 1.56c.46.283 1.027.106 1.134-.355.11-.48-.25-1.205-.71-1.488l-2.533-1.56z"/><path d="M383.783 374.646c-.46-.284-1.027-.107-1.133.354s.248 1.205.708 1.488l2.534 1.56c.46.283 1.027.106 1.134-.355.11-.48-.25-1.205-.71-1.488l-2.533-1.56z"/><path d="M383.767 372.502c-.46-.284-1.027-.107-1.133.354s.248 1.205.708 1.488l2.534 1.56c.46.283 1.027.106 1.134-.355.11-.482-.25-1.206-.71-1.49l-2.533-1.558z"/><path d="M383.783 370.784c-.46-.284-1.027-.107-1.133.354s.248 1.205.708 1.488l2.534 1.56c.46.283 1.027.106 1.134-.355.11-.48-.25-1.204-.71-1.487l-2.533-1.56z"/><path d="M383.767 360.916c-.46-.284-1.027-.107-1.133.354s.248 1.205.708 1.488l2.534 1.56c.46.283 1.027.106 1.134-.355.11-.48-.25-1.205-.71-1.488l-2.533-1.56z"/><path d="M383.783 359.198c-.46-.284-1.027-.107-1.133.354s.248 1.205.708 1.488l2.534 1.56c.46.283 1.027.106 1.134-.355.11-.48-.25-1.205-.71-1.488l-2.533-1.56z"/><path d="M383.767 357.054c-.46-.284-1.027-.107-1.133.354s.248 1.205.708 1.488l2.534 1.56c.46.283 1.027.106 1.134-.355.11-.48-.25-1.204-.71-1.487l-2.533-1.56z"/></g><g stroke="#000" stroke-width="14.25" fill="#b00"><path d="M392.588 274.734c-.567-.14-1.063.178-.993.638s.71 1.063 1.276 1.205l3.12.78c.566.14 1.062-.178.99-.638-.073-.483-.707-1.064-1.274-1.206l-3.118-.78z"/><path d="M393.344 275.084c-.177-.46-.78-.602-1.204-.284s-.673 1.1-.496 1.56l.974 2.533c.177.46.78.602 1.205.283.444-.333.673-1.098.496-1.56l-.976-2.532z"/><path d="M393.333 275.14c-.425-.355-1.063-.284-1.275.14s0 1.206.425 1.56l2.34 1.95c.424.353 1.062.283 1.274-.143.222-.444 0-1.204-.425-1.56l-2.34-1.947z"/><path d="M391.65 276.44c.353-.39.14-.85-.427-.922s-1.488.248-1.842.638l-1.948 2.144c-.354.39-.142.85.425.92.593.075 1.49-.247 1.843-.637l1.95-2.143z"/><path d="M394.022 276.428c.32-.39.07-.85-.496-.922s-1.453.248-1.77.638L390 278.288c-.318.39-.07.85.497.92.592.075 1.452-.247 1.77-.637l1.755-2.142z"/><path d="M382.2 276.818c.353-.39.14-.886-.427-.992s-1.488.177-1.842.567l-1.948 2.144c-.354.39-.142.886.425.992.593.11 1.49-.178 1.843-.568l1.95-2.144z"/><path d="M384.358 276.87c.354-.39.14-.886-.426-.992s-1.488.177-1.842.567l-1.95 2.144c-.353.388-.14.885.426.99.593.112 1.49-.176 1.843-.566l1.948-2.144z"/><path d="M387.053 276.905c.354-.39.14-.886-.426-.992s-1.488.177-1.842.567l-1.95 2.144c-.353.39-.14.886.426.992.594.11 1.49-.177 1.844-.567l1.95-2.145z"/><path d="M389.168 276.483c.32-.39.07-.85-.496-.922s-1.453.25-1.77.64l-1.755 2.143c-.32.39-.07.85.496.92.592.075 1.452-.247 1.77-.637l1.755-2.143z"/><path d="M379.08 276c.355-.39.142-.887-.425-.993s-1.488.177-1.842.567l-1.95 2.144c-.353.39-.14.886.426.992.592.11 1.488-.177 1.842-.567l1.95-2.144z"/><path d="M380.372 276.566c.39-.354.213-.85-.354-.992s-1.524.07-1.914.425l-2.143 1.948c-.39.354-.212.85.355.992.592.148 1.524-.07 1.913-.425l2.144-1.95z"/><path d="M377.3 276.137c.532-.213.602-.71.142-.992s-1.453-.355-1.984-.142l-2.924 1.17c-.53.212-.602.708-.14.99.48.298 1.45.356 1.983.143l2.923-1.17z"/></g><g stroke="#000" stroke-width="14.25" fill="#b00"><path d="M424.51 356.353c.46.283.424.78-.072.992s-1.453.142-1.913-.142l-2.534-1.56c-.46-.282-.424-.778.072-.99.518-.223 1.453-.143 1.913.14l2.534 1.56z"/><path d="M426.454 355.812c.46.283.425.78-.07.992s-1.454.142-1.914-.142l-2.534-1.56c-.46-.282-.425-.778.07-.99.52-.223 1.454-.143 1.914.14l2.534 1.56z"/><path d="M428.89 355.164c.46.283.426.78-.07.992s-1.453.142-1.913-.142l-2.534-1.56c-.46-.282-.425-.778.07-.99.52-.223 1.454-.143 1.914.14l2.534 1.56z"/><path d="M430.836 354.62c.46.284.425.78-.07.993s-1.454.142-1.914-.142l-2.534-1.558c-.46-.283-.425-.78.07-.992.52-.222 1.454-.142 1.914.142l2.534 1.56z"/><path d="M440.103 347.493c.566-.107.992.248.85.708s-.85 1.03-1.417 1.135l-3.118.585c-.567.106-.993-.248-.85-.71.147-.48.85-1.026 1.416-1.133l3.12-.584z"/><path d="M438.722 344.012c.354-.355.92-.284 1.134.14s.07 1.206-.284 1.56l-1.95 1.95c-.353.353-.92.283-1.133-.143-.223-.445-.07-1.205.283-1.56l1.95-1.948z"/><path d="M440.69 345.534c.566-.107 1.027.248.92.708s-.78 1.028-1.346 1.134l-3.118.585c-.567.107-1.028-.247-.922-.708.112-.48.78-1.027 1.347-1.134l3.12-.584z"/><path d="M415.604 358.41c.426.32.355.815-.14.992s-1.42.035-1.844-.283l-2.338-1.755c-.426-.32-.355-.815.14-.992.52-.186 1.42-.036 1.844.283l2.338 1.754z"/><path d="M417.597 358.01c.426.32.355.816-.14.993s-1.42.035-1.844-.283l-2.338-1.754c-.426-.32-.355-.815.14-.992.52-.186 1.42-.036 1.844.283l2.337 1.754z"/><path d="M420.055 356.78c.46.285.46.816 0 1.064s-1.382.213-1.842-.07l-2.534-1.56c-.46-.283-.46-.814 0-1.062.48-.26 1.38-.213 1.842.07l2.533 1.56z"/><path d="M422.166 356.867c.39.32.248.815-.284.992s-1.453.034-1.842-.284l-2.144-1.754c-.39-.32-.248-.815.283-.992.555-.186 1.452-.036 1.842.283l2.143 1.754z"/><path d="M433.273 353.974c.46.283.425.78-.07.992s-1.454.142-1.914-.142l-2.535-1.56c-.46-.282-.425-.778.07-.99.52-.223 1.454-.143 1.914.14l2.533 1.56z"/><path d="M435.218 353.432c.46.283.425.78-.07.992s-1.454.142-1.914-.142l-2.534-1.56c-.46-.282-.425-.778.07-.99.52-.223 1.454-.143 1.914.14l2.534 1.56z"/><path d="M387.63 360.525c.353.39.176.886-.355.992s-1.418-.177-1.772-.567l-1.95-2.144c-.353-.39-.176-.886.356-.992.554-.11 1.416.177 1.77.567l1.95 2.145z"/><path d="M389.89 360.472c.32.39.106.886-.425.992s-1.382-.177-1.7-.567l-1.755-2.144c-.32-.39-.106-.886.425-.992.555-.11 1.382.178 1.7.568l1.755 2.144z"/><path d="M392.234 360.436c.354.39.177.886-.354.992s-1.418-.177-1.772-.567l-1.95-2.143c-.353-.39-.176-.886.356-.992.555-.11 1.417.177 1.77.567l1.95 2.144z"/><path d="M394.496 360.383c.32.39.106.886-.425.992s-1.38-.177-1.7-.567l-1.754-2.144c-.32-.39-.106-.886.425-.992.556-.11 1.383.177 1.702.567l1.754 2.143z"/><path d="M378.42 360.703c.353.39.176.886-.355.992s-1.418-.177-1.772-.567l-1.95-2.144c-.353-.39-.176-.886.356-.992.554-.11 1.416.177 1.77.567l1.95 2.143z"/><path d="M380.68 360.65c.32.39.107.885-.424.99s-1.382-.176-1.7-.566l-1.755-2.144c-.318-.39-.105-.886.426-.992.555-.11 1.382.177 1.7.567l1.755 2.144z"/><path d="M383.023 360.613c.354.39.177.886-.354.992s-1.42-.177-1.773-.567l-1.95-2.144c-.353-.39-.176-.886.356-.992.555-.11 1.417.177 1.77.567l1.95 2.143z"/><path d="M385.285 360.56c.32.39.106.887-.425.993s-1.382-.177-1.7-.567l-1.755-2.144c-.32-.39-.106-.886.425-.992.555-.11 1.382.177 1.7.567l1.755 2.144z"/><path d="M406.505 359.86c.39.355.25.85-.283.993s-1.453-.07-1.842-.425l-2.144-1.95c-.39-.353-.248-.85.283-.99.555-.15 1.452.07 1.842.424l2.143 1.95z"/><path d="M408.788 359.63c.39.353.25.85-.283.99s-1.453-.07-1.842-.424l-2.144-1.95c-.39-.353-.25-.85.282-.99.556-.15 1.453.07 1.843.424l2.143 1.95z"/><path d="M411.1 359.504c.426.32.32.78-.212.922s-1.488-.036-1.913-.355l-2.34-1.753c-.424-.318-.318-.78.214-.92.554-.15 1.487.035 1.912.354l2.34 1.754z"/><path d="M413.11 358.88c.425.32.354.815-.142.992s-1.418.035-1.843-.283l-2.338-1.755c-.426-.32-.355-.815.14-.992.52-.186 1.42-.036 1.844.283l2.34 1.754z"/><path d="M396.838 360.347c.354.39.177.886-.354.992s-1.418-.178-1.772-.568l-1.95-2.144c-.353-.39-.176-.886.356-.992.555-.11 1.417.177 1.77.567l1.95 2.144z"/><path d="M399.23 360.546c.354.355.177.815-.354.922s-1.418-.142-1.772-.496l-1.95-1.95c-.353-.354-.176-.814.356-.92.555-.112 1.417.14 1.77.496l1.95 1.948z"/><path d="M401.876 360.023c.39.354.25.85-.283.992s-1.453-.07-1.842-.425l-2.143-1.95c-.39-.353-.248-.85.283-.99.556-.15 1.453.07 1.843.424l2.143 1.95z"/><path d="M403.72 360.147c.355.355.178.815-.353.922s-1.418-.143-1.772-.497l-1.95-1.95c-.353-.354-.176-.814.356-.92.556-.112 1.418.14 1.772.496l1.95 1.947z"/><path d="M350.42 359.96c.248.426-.036.85-.567.85s-1.31-.424-1.56-.85l-1.363-2.338c-.248-.425.035-.85.567-.85.555 0 1.31.425 1.56.85l1.363 2.34z"/><path d="M352.9 360.217c.247.425-.07.85-.638.85s-1.382-.425-1.63-.85l-1.364-2.34c-.248-.424.07-.85.637-.85.593 0 1.382.426 1.63.85l1.364 2.34z"/><path d="M355.104 360.192c.32.39.106.85-.425.922s-1.383-.248-1.702-.638l-1.754-2.144c-.32-.39-.106-.85.425-.92.554-.075 1.38.247 1.7.637l1.754 2.142z"/><path d="M357.363 360.273c.284.39.036.85-.496.922s-1.346-.248-1.63-.638l-1.56-2.144c-.282-.39-.034-.85.497-.92.556-.075 1.347.247 1.63.637l1.56 2.143z"/><path d="M343.8 359.007c.248.425-.07.85-.637.85s-1.382-.425-1.63-.85l-1.364-2.34c-.25-.424.07-.85.636-.85.593 0 1.382.426 1.63.85l1.364 2.34z"/><path d="M345.87 359.356c.248.425-.036.85-.567.85s-1.31-.425-1.56-.85l-1.363-2.34c-.248-.424.035-.85.567-.85.555 0 1.31.426 1.56.85l1.363 2.34z"/><path d="M348.35 359.612c.248.425-.07.85-.637.85s-1.382-.425-1.63-.85l-1.364-2.34c-.25-.424.07-.85.636-.85.593 0 1.382.426 1.63.85l1.364 2.34z"/><path d="M368.902 360.824c.32.39.106.85-.425.922s-1.382-.248-1.7-.638l-1.755-2.144c-.32-.39-.106-.85.425-.92.555-.075 1.382.247 1.7.637l1.755 2.144z"/><path d="M371.16 360.905c.285.39.037.85-.495.922s-1.346-.248-1.63-.638l-1.56-2.145c-.282-.39-.034-.85.497-.92.556-.075 1.347.247 1.63.637l1.56 2.143z"/><path d="M373.814 360.79c.354.39.177.887-.354.993s-1.418-.177-1.772-.567l-1.95-2.144c-.353-.39-.176-.886.356-.992.555-.11 1.417.177 1.77.567l1.95 2.144z"/><path d="M376.075 360.74c.32.39.106.885-.425.99s-1.382-.176-1.7-.566l-1.755-2.144c-.32-.39-.106-.886.425-.992.555-.11 1.382.177 1.7.567l1.755 2.144z"/><path d="M359.703 360.402c.32.39.106.85-.425.922s-1.382-.248-1.7-.638l-1.755-2.144c-.32-.39-.106-.85.425-.92.555-.075 1.382.247 1.7.637l1.755 2.142z"/><path d="M361.963 360.483c.284.39.036.85-.496.922s-1.346-.248-1.63-.638l-1.56-2.144c-.282-.39-.034-.85.497-.92.556-.075 1.347.247 1.63.637l1.56 2.143z"/><path d="M364.303 360.613c.32.39.106.85-.425.922s-1.382-.248-1.7-.638l-1.755-2.144c-.32-.39-.106-.85.425-.92.555-.075 1.382.247 1.7.637l1.755 2.143z"/><path d="M366.562 360.694c.284.39.036.85-.496.922s-1.346-.248-1.63-.638l-1.56-2.144c-.282-.39-.034-.85.497-.92.556-.075 1.347.247 1.63.637l1.56 2.144z"/><path d="M331.087 349.872c-.567.07-.957-.283-.78-.708s.922-.922 1.49-.993l3.117-.388c.567-.07.956.283.78.708-.186.445-.922.922-1.49.993l-3.117.39z"/><path d="M331.6 352.698c-.46.284-1.027.107-1.133-.354s.248-1.205.708-1.488l2.534-1.56c.46-.283 1.026-.106 1.133.355.11.482-.25 1.206-.71 1.49l-2.533 1.558z"/><path d="M332.878 354.86c-.32.39-.922.39-1.205 0s-.248-1.17.07-1.56l1.755-2.143c.32-.39.92-.39 1.205 0 .296.407.248 1.17-.07 1.56l-1.755 2.142z"/><path d="M334.064 356.202c-.106.46-.638.637-1.063.354s-.743-1.028-.637-1.488l.585-2.534c.106-.46.638-.638 1.063-.354.445.296.745 1.027.64 1.488l-.586 2.534z"/><path d="M335.19 345.386c-.566-.035-.885-.496-.637-.92s1.063-.816 1.63-.78l3.118.194c.568.036.887.496.64.92-.26.446-1.064.816-1.63.78l-3.12-.194z"/><path d="M333.59 346.846c-.566 0-.885-.425-.637-.85s1.063-.85 1.63-.85h3.118c.568 0 .887.425.64.85-.26.444-1.064.85-1.63.85h-3.12z"/><path d="M332.29 347.98c-.568.072-.958-.282-.78-.707s.92-.922 1.488-.993l3.118-.39c.567-.07.956.284.78.71-.186.444-.922.92-1.49.992l-3.117.39z"/><path d="M335.97 357.56c.036.497-.424.816-.92.64s-1.028-.85-1.063-1.347l-.195-2.73c-.036-.495.425-.814.92-.636.52.185 1.03.85 1.064 1.346l.195 2.728z"/><path d="M338.447 358.12c.14.462-.248.852-.78.78s-1.205-.602-1.346-1.062l-.78-2.534c-.14-.46.25-.85.78-.78.556.075 1.205.603 1.347 1.064l.78 2.533z"/><path d="M341.205 358.735c.248.425-.036.85-.567.85s-1.31-.425-1.56-.85l-1.363-2.34c-.248-.424.035-.85.567-.85.555 0 1.31.426 1.56.85l1.363 2.34z"/><path d="M436.298 351.507c.567.106.78.567.425.92s-1.276.603-1.843.497l-3.118-.585c-.567-.107-.78-.567-.425-.922.37-.37 1.276-.602 1.843-.496l3.118.585z"/><path d="M437.093 351.688c.53.142.673.638.283.992s-1.31.567-1.842.426l-2.923-.78c-.53-.142-.673-.638-.283-.992.408-.37 1.31-.567 1.843-.425l2.923.778z"/><path d="M440.346 349.17c.567.07.815.53.496.92s-1.204.71-1.77.64l-3.12-.39c-.566-.072-.814-.532-.495-.922.333-.407 1.204-.71 1.77-.638l3.12.39z"/><path d="M438.69 351.05c.532.142.674.603.284.922s-1.31.496-1.842.354l-2.923-.78c-.533-.14-.675-.602-.285-.92.408-.334 1.31-.497 1.843-.355l2.923.78z"/><path d="M428.24 342.143c-.532.213-.638.71-.213.992s1.382.355 1.913.142l2.924-1.17c.53-.212.637-.708.212-.99-.444-.298-1.382-.356-1.913-.143l-2.923 1.17z"/><path d="M426.248 341.29c-.496.214-.567.71-.142.993s1.347.355 1.843.142l2.727-1.17c.496-.212.567-.708.142-.99-.446-.298-1.348-.356-1.844-.143l-2.728 1.17z"/><path d="M424.1 339.954c-.532.177-.674.673-.284.992s1.31.46 1.842.284l2.923-.975c.533-.177.675-.673.285-.992-.408-.333-1.31-.46-1.843-.283l-2.923.974z"/><path d="M434.283 345.07c-.496.212-.567.708-.142.99s1.348.356 1.844.143l2.728-1.17c.496-.212.567-.708.142-.99-.445-.298-1.347-.356-1.843-.143l-2.727 1.17z"/><path d="M432.26 344.033c-.533.213-.64.71-.214.992s1.382.355 1.913.142l2.923-1.17c.53-.212.637-.708.212-.99-.444-.298-1.382-.356-1.913-.143l-2.923 1.17z"/><path d="M430.265 343.18c-.496.213-.567.71-.142.992s1.347.355 1.843.142l2.728-1.17c.496-.212.567-.708.142-.99-.445-.298-1.347-.356-1.843-.143l-2.728 1.17z"/></g><g stroke-width="1pt" transform="matrix(.072 0 0 .085 364.632 298.808)"><path d="M212.603-1994.912v53.15h-53.15v35.44h53.15v106.3h35.433v-106.3h53.15v-35.44h-53.15v-53.15h-35.433z" stroke="#000" fill="#fff133"/><ellipse fill="#fff133" transform="matrix(.571 0 0 .618 93.645 -678.94)" cx="239.17" rx="62.008" cy="-1813.5" ry="57.32" stroke="#000"/><path d="M602.36-1119.4c0 68.45-10.417 145.68-29.252 205.02-120.08-26.455-268.06-39.682-339.04-39.682-87.586 0-246.15 13.227-345.26 26.455-18.835-59.336-30.538-123.34-30.538-191.79 0-273.81 105.27-390.21 367.5-496.03 233.3 105.82 376.6 222.22 376.6 496.03z" transform="matrix(1.058 0 0 1.339 -5.764 363.72)" stroke="#000" fill="#fff"/><path d="M566.93-657.28c0-44.007-150.8-79.724-336.61-79.724s-336.61 35.717-336.61 79.724v26.575c0-44.007 150.8-70.866 336.61-70.866s336.61 44.575 336.61 88.582v-44.292z" transform="matrix(1.171 0 0 .745 -32.833 -634.89)" stroke="#000" fill="#fff133"/><g stroke="#000" fill="#fff133"><path d="M237.105-1381.874l-62.345 39.597 41.563 26.398-20.78 13.2-41.563-26.398-62.345 39.596 62.345 39.597 41.562-26.397 20.78 13.198v39.597h41.564v-39.597l20.782-13.198 41.563 26.397 62.346-39.597-62.345-39.596-41.562 26.398-20.782-13.2 41.564-26.397-62.345-39.597z"/><path d="M-181.945-1340.002l6.116 39.88 10.418 25.547-14.9 16.07-10.416-25.55-4.483 41.618 35.734 35.025-10.417-25.547 25.316 9.48 15.626 38.32 20.107-3.295-15.626-38.322 14.9-16.068 10.417 25.547 4.483-41.616-35.735-35.026 10.42 25.548-25.318-9.48-10.418-25.546-26.225-36.584z"/><path d="M654.99-1339.374l-23.76 37.11-9.46 25.688-24.962 9.833 9.46-25.69-34.423 35.522 6.042 41.544 9.46-25.688 15.502 15.856-14.192 38.534 20.233 3.01 14.192-38.533 24.963-9.832-9.46 25.69 34.422-35.522-6.042-41.546-9.46 25.69-15.502-15.857 9.46-25.69 3.528-40.12z"/><path d="M-30.793-1285.432c-3.313-13.024 9.78-27.73 26.184-29.414 16.407-1.683 36.126 9.658 39.44 22.682s-9.78 27.725-9.78 27.725l78.874 45.355-32.81 3.366-59.157-34.015-39.277 44.114-32.81 3.366 52.37-58.82s-19.72-11.334-23.033-24.358z"/><path d="M438.894-1292.267c3.172-13.04 22.768-24.47 39.19-22.86 16.424 1.613 29.675 16.267 26.503 29.31s-22.765 24.464-22.765 24.464l53.008 58.606-32.847-3.224-39.756-43.956-58.783 34.282-32.846-3.225 78.378-45.707s-13.254-14.648-10.082-27.69z"/><path d="M631.95-1164.134c0-32.785-176.89-59.394-394.845-59.394s-394.843 26.61-394.843 59.394v19.8c0-32.786 176.888-52.796 394.843-52.796s394.844 33.21 394.844 65.994v-32.998z"/></g><path d="M566.93-657.28c0-44.007-150.8-79.724-336.61-79.724s-336.61 35.717-336.61 79.724v26.575c0-44.007 150.8-70.866 336.61-70.866s336.61 44.575 336.61 88.582v-44.292z" transform="matrix(1.073 0 0 .745 -9.254 -386.86)" stroke="#000" fill="#fff133"/><g stroke="#000" fill="#fff133"><path d="M241.38-1133.844l-58.676 39.597 39.118 26.398-19.56 13.2-39.117-26.398-58.677 39.596 58.677 39.597 39.118-26.397 19.56 13.198v39.597h39.117v-39.597l19.56-13.198 39.117 26.397 58.678-39.597-58.678-39.596-39.118 26.398-19.56-13.2 39.12-26.397-58.68-39.597z"/><path d="M-152.357-1091.972l5.712 39.88 9.78 25.547-14.05 16.07-9.78-25.55-4.27 41.618 33.61 35.025-9.78-25.547 23.83 9.48 14.668 38.32 18.94-3.295-14.67-38.322 14.05-16.068 9.778 25.547 4.27-41.616-33.608-35.026 9.78 25.548-23.828-9.48-9.78-25.546-24.65-36.584z"/><path d="M635.43-1091.344l-22.4 37.11-8.93 25.688-23.51 9.833 8.93-25.69-32.44 35.522 5.652 41.544 8.93-25.688 14.58 15.856-13.394 38.534 19.046 3.01 13.394-38.533 23.51-9.832-8.93 25.69 32.44-35.522-5.653-41.546-8.928 25.69-14.58-15.857 8.928-25.69 3.355-40.12z"/><path d="M-10.656-1037.402c-3.12-13.024 9.21-27.73 24.66-29.414 15.45-1.683 34.016 9.658 37.135 22.682s-9.214 27.725-9.214 27.725l74.268 45.355-30.898 3.366-55.7-34.015-36.993 44.114-30.897 3.366 49.323-58.82s-18.568-11.334-21.686-24.358z"/><path d="M432.006-1044.237c2.994-13.04 21.456-24.47 36.922-22.86 15.467 1.613 27.938 16.267 24.944 29.31s-21.454 24.464-21.454 24.464l49.89 58.606-30.933-3.224-37.418-43.956-55.38 34.282-30.934-3.225 73.842-45.707s-12.474-14.648-9.48-27.69z"/><path d="M613-916.104c0-32.785-166.484-59.394-371.62-59.394s-371.616 26.61-371.616 59.394v19.8c0-32.786 166.483-52.796 371.617-52.796S613-915.89 613-883.106v-32.998z"/></g><path d="M566.93-657.28c0-44.007-150.8-79.724-336.61-79.724s-336.61 35.717-336.61 79.724v26.575c0-44.007 150.8-70.866 336.61-70.866s336.61 44.575 336.61 88.582v-44.292z" transform="matrix(1.105 0 0 .745 -16.106 -865.2)" stroke="#000" fill="#fff133"/><g stroke="#000" fill="#fff133"><path d="M242.578-1610.91l-57.402 37.31 38.267 24.874-19.133 12.437-38.268-24.873-57.402 37.31 57.402 37.312 38.268-24.875 19.133 12.437v37.31h38.268v-37.31l19.135-12.437 38.268 24.874 57.402-37.312-57.402-37.31-38.268 24.873-19.134-12.436 38.27-24.874-57.402-37.31z"/><path d="M-142.51-1572.065l5.587 37.617 9.567 24.094-13.748 15.166-9.567-24.095-4.182 39.26L-121.97-1447l-9.567-24.094 23.315 8.93 14.35 36.14 18.532-3.118-14.35-36.142 13.748-15.165 9.566 24.095 4.18-39.26-32.88-33.023 9.567 24.095-23.315-8.93-9.566-24.094-24.12-34.498z"/><path d="M627.436-1571.616l-21.88 35.014-8.718 24.236-22.978 9.284 8.717-24.237-31.695 33.52 5.546 39.19 8.716-24.236 14.26 14.953-13.074 36.354 18.62 2.835 13.076-36.354 22.98-9.282-8.718 24.235 31.695-33.52-5.546-39.188-8.716 24.237-14.26-14.954 8.716-24.236 3.26-37.848z"/><path d="M-3.824-1520.297c-3.048-12.28 9.017-26.155 24.128-27.75 15.113-1.594 33.273 9.092 36.32 21.372s-9.017 26.148-9.017 26.148l72.637 42.732-30.224 3.19-54.48-32.05-36.193 41.616-30.224 3.19 48.26-55.488s-18.16-10.68-21.207-22.96z"/><path d="M428.682-1526.722c2.924-12.298 20.978-23.072 36.107-21.548 15.13 1.523 27.335 15.345 24.41 27.642s-20.974 23.066-20.974 23.066l48.827 55.275-30.26-3.047-36.62-41.457-54.16 32.314-30.26-3.047 72.213-43.086s-12.208-13.815-9.284-26.112z"/><path d="M606.116-1405.65c0-30.89-162.864-55.965-363.538-55.965s-363.54 25.074-363.54 55.966v18.657c0-30.893 162.865-49.748 363.54-49.748s363.538 31.292 363.538 62.184v-31.093z"/></g><ellipse fill="#b90000" transform="matrix(.966 0 0 .414 12.936 -517.53)" cx="234.13" rx="375.87" cy="-822.11" ry="120.53"/></g><path d="M513.78-790.16l35.432-17.714 35.433 17.714s-73.366 35.433-73.366 159.45c-.002 88.58 125.26 106.3 125.26 212.6 0 45.65-34.184 88.582-69.617 88.582s-88.583-17.716-141.73-70.866c35.433 17.716 76.082 37.308 106.3 36.058 19.588-.405 55.025-17.716 55.025-53.15 0-70.865-122.77-106.92-122.77-213.22 0-124.02 50.025-159.45 50.026-159.45z" transform="matrix(.216 0 0 .178 313.778 341.739)" stroke="#000" stroke-width="1pt" fill="#fff"/><path d="M212.6-453.54c-35.433 0-70.866 35.433-70.866 70.866s35.433 70.866 70.866 70.866h194.88c35.433 0 70.866-35.433 70.866-70.866 0-37.027-35.433-70.866-70.866-70.866H212.6z" transform="matrix(.019 -.001 .008 .02 378.972 384.449)" stroke="#000" stroke-width="20.006" fill="#b00"/><path d="M520.25-790.16l46.683-17.717 10 17.717s-70.65 35.433-70.65 159.45c0 88.58 125.89 106.3 125.89 212.6 0 45.65-26.713 87.362-65.24 88.582-73.403 2.363-90.458-23.966-141.73-70.866 43.15 32.308 105 46.752 129.02 34.183 29.354-15.365 35.024-36.06 35.024-53.775 0-70.866-120.89-104.42-120.89-210.72 0-124.02 51.9-159.45 51.9-159.45z" transform="matrix(.216 0 0 .178 313.778 341.739)" stroke="#000" stroke-width="1pt" fill="#fff"/><path d="M513.34-789.69c7.004-2.437 35.875-18.186 71.308 17.247 17.717 17.72 17.716 53.15 17.716 70.866l53.15-53.15s-29.066-86.87-107.62-53.59c-11.127 4.9-28.14 14.537-34.55 18.627z" transform="matrix(.216 0 0 .178 313.778 341.739)" stroke="#000" stroke-width="1pt" fill="#fff"/><path d="M523.8-795.94c8.84-2.87 36.676-6.325 64.596 18.5 17.717 17.72 18.966 42.934 18.966 60.65l40.65-37.932c3.44-3.21-24.832-81.252-99.24-54.034-4.5 1.807-14.78 6.302-24.972 12.816z" transform="matrix(.216 0 0 .178 313.778 341.739)" stroke="#000" stroke-width="1pt" fill="#fff"/><path d="M344.54-596.29l9.152 22.14s1.455-9.766 8.526-11.533l7.07-1.768s26.865 49.327 32.17 58.166c5.3 8.838-3.537 16.793-1.77 16.793 1.77 0 26.517-11.49 26.517-11.49s-10.606.882-15.026-6.19-34.82-59.933-34.82-59.933 6.187-2.652 11.49-5.303c5.304-2.652 10.607 7.955 10.607 7.955L385.2-613.97s0 8.84-4.42 10.607c-4.42 1.766-7.956 3.534-7.956 3.534s-3.535-6.187-7.955-13.258c-4.42-7.07 4.42-14.142 4.42-14.142l-22.982 11.49s7.955 4.42 10.607 8.84c2.65 4.42 5.303 8.838 5.303 8.838s-3.223 1.768-8.214 3.482c-3.59 1.875-7.696.054-9.464-1.714z" transform="matrix(.176 -.018 .06 .155 398.81 344.209)" stroke="#000" stroke-width="1pt" fill="#fff133"/><path d="M344.54-596.29l9.152 22.14s1.455-9.766 8.526-11.533l7.07-1.768s26.865 49.327 32.17 58.166c5.3 8.838-3.537 16.793-1.77 16.793 1.77 0 26.517-11.49 26.517-11.49s-10.606.882-15.026-6.19-34.82-59.933-34.82-59.933 6.187-2.652 11.49-5.303c5.304-2.652 10.607 7.955 10.607 7.955L385.2-613.97s0 8.84-4.42 10.607c-4.42 1.766-7.956 3.534-7.956 3.534s-3.535-6.187-7.955-13.258c-4.42-7.07 4.42-14.142 4.42-14.142l-22.982 11.49s7.955 4.42 10.607 8.84c2.65 4.42 5.303 8.838 5.303 8.838s-3.223 1.768-8.214 3.482c-3.59 1.875-7.696.054-9.464-1.714z" transform="matrix(-.16 .021 -.003 -.118 505.789 128.218)" stroke="#000" stroke-width="1pt" fill="#fff133"/><path d="M212.6-453.54c-35.433 0-70.866 35.433-70.866 70.866s35.433 70.866 70.866 70.866h194.88c35.433 0 70.866-35.433 70.866-70.866 0-37.027-35.433-70.866-70.866-70.866H212.6z" transform="matrix(.019 -.001 .008 .02 382.118 384.258)" stroke="#000" stroke-width="20.006" fill="#b00"/><path d="M212.6-453.54c-35.433 0-70.866 35.433-70.866 70.866s35.433 70.866 70.866 70.866h194.88c35.433 0 70.866-35.433 70.866-70.866 0-37.027-35.433-70.866-70.866-70.866H212.6z" transform="matrix(.031 -.001 .014 .02 377.434 386.883)" stroke="#000" stroke-width="20.006" fill="#b00"/><path d="M212.6-453.54c-35.433 0-70.866 35.433-70.866 70.866s35.433 70.866 70.866 70.866h194.88c35.433 0 70.866-35.433 70.866-70.866 0-37.027-35.433-70.866-70.866-70.866H212.6z" transform="matrix(.031 -.001 .014 .02 380.403 386.693)" stroke="#000" stroke-width="20.006" fill="#b00"/><path d="M212.6-453.54c-35.433 0-70.866 35.433-70.866 70.866s35.433 70.866 70.866 70.866h194.88c35.433 0 70.866-35.433 70.866-70.866 0-37.027-35.433-70.866-70.866-70.866H212.6z" transform="matrix(.039 -.001 .018 .02 376.248 389.685)" stroke="#000" stroke-width="20.006" fill="#b00"/><path d="M212.6-453.54c-35.433 0-70.866 35.433-70.866 70.866s35.433 70.866 70.866 70.866h194.88c35.433 0 70.866-35.433 70.866-70.866 0-37.027-35.433-70.866-70.866-70.866H212.6z" transform="matrix(.039 -.001 .018 .02 379.929 389.494)" stroke="#000" stroke-width="20.006" fill="#b00"/></g><path stroke-width="1.032pt" fill="#ffe000" d="M0 0h255.992v511.984H0z"/></g></svg>