<?xml version="1.0" encoding="utf-8"?>
<!-- Generator: Adobe Illustrator 18.1.1, SVG Export Plug-In . SVG Version: 6.00 Build 0)  -->
<svg version="1.1" xmlns="http://www.w3.org/2000/svg" xmlns:xlink="http://www.w3.org/1999/xlink" x="0px" y="0px"
	 viewBox="0 0 2253.4 1025.5" enable-background="new 0 0 2253.4 1025.5" xml:space="preserve">
<g id="Layer_1">
	<path display="none" fill="#4D4D4D" d="M-15.3,335.8c-43,45.8-62.4,47.3-100.7,47.3c-16.8,0-39.2-10.3-58.9-27.1
		c-16.8,7.5-29.9,29-29.9,50.4c0,37.4,31.8,63.5,71,63.5c47.6,0,90.6-25.2,128-65.4c53,36,76.4,89.7,135.3,89.7L23.6,362.7"/>
	<path display="none" fill="#4D4D4D" d="M2173.7,338.8c47,45.8,77.2,45.3,119.1,45.3c18.4,0,42.9-10.3,64.4-27.1
		c18.4,7.5,32.7,29,32.7,50.4c0,37.4-34.7,63.5-77.6,63.5c-52.1,0-99.1-25.2-139.9-65.4c-58,36-83.6,89.7-147.9,89.7l147.9-89.7"/>
	<g display="none">
		<path display="inline" fill="#010101" d="M1451.3,205.6c87.2,0,89.7,83.2,95.1,114.2c6.5,37.9,5.7,43.6,6.5,91.9
			c0.4,24-3.8,63.3-6.9,119.4l-8.8,93.9c0,0-1.8,19.3-4.2,36.4c-11.4,80.3-10.8,149.3-44.4,151.3l-112,29.5
			c49.2-1,46.1-139.8,48.2-166.1c1.5-20.8,0.6-5.4,3-73.1c0,0-37.9,37.9-91.6,37.9c-51.3,0-97.4-53.7-93.6-135.5
			c12.4-268,126.5-294.9,209.2-299.6"/>
	</g>
</g>
<g id="Layer_7">
</g>
<g id="Layer_6" display="none">
	<path display="inline" fill="#010101" d="M1852.5,671.7c-22.2,0-45.8,11.9-56,34.1c-14.5,31.5-13.2,104.4-13.2,104.4
		c4.1,21.3,20.2,36.2,32.7,35.5c12.6-0.7,36.8-12.7,43.8-37c0,0,8.2-17.8,8.2-71.9C1867.9,682.6,1852.5,671.7,1852.5,671.7z"/>
</g>
<g id="Layer_3">
</g>
<g id="Layer_2" display="none">
	<path display="inline" fill="#505050" d="M1451.3,257.1c56.6-3.3,89.7,34.2,95.1,65.2c6.5,37.9,5.7,43.6,6.5,91.9
		c0.4,24-3.8,63.3-6.9,119.4l-8.8,93.9c0,0-1.6,19.3-4.2,36.4c-32.9,218.9-87.8,229.3-121.4,231.3c-72.8,4.2-161.9-42.9-166-113.9
		c-2.1-36.8,27.5-88.1,69.4-69.2c51.2,23.1,32.8,83.2,61.6,82.6c49.2-1,46.1-89.8,48.2-116.1c1.5-20.8,0.6-22.4,3-90.1
		c-10.4,23.1-49.4,52.4-91.6,54.9c-51.2,3-93.8-53.7-96.6-135.5c-4.6-135.4,129.5-245.9,212.2-250.6 M1360.2,483.1
		c4.1,21.3,11.2,26.2,23.7,25.5c12.6-0.7,35.3-13.2,43.8-37c10.5-29.4,7.7-46.9,7.7-46.9s-0.3-54.1-35.2-35.3
		C1359.2,411.7,1360.2,483.1,1360.2,483.1z"/>
</g>
<g id="Layer_4">
</g>
<g id="Layer_5">
	<g>
		<g>
			<path fill="#FFFFFF" d="M603.2,453.5c-45.6,123.1-1.8,144.7-1.8,144.7c37.2,11.5,62.3-97.1,62.3-97.1
				c11.6-86.3,13.4-145,42.3-181.4c9.2-11.6,22.3-19.7,35.7-21.2c50.1-5.5,70.7,6.2,74.8,42.8c1.8,16.1,0.2,34.4-9.3,71.7
				c-13.1,53.1-41.5,140.4-39.6,157.4c1.3,11.6,7,13.7,14.1,12.9c20.6-2.3,65.4-136.4,113.7-223.2c18.8-2.1,32.1,41.1,33.9,57.2
				c3.6,32.2-39.1,132-80.6,187.8c-37.9,50.9-83,111-120.6,115.2c-36.7,4.1-60.3-21.1-65.5-67.6c-1.4-12.5-4.9-21.6,0.2-40.1
				c-21.7,79.3-64,122.5-114.6,123.2c-29,0.4-61.8-39.1-70.6-82.9c0,0-20.5-80.9-2-194.1c16.8-102.8,49.6-145.2,112.3-152.1
				c30.7-3.4,40.7,11.4,43.9,37C635.4,374.1,603.2,453.5,603.2,453.5z"/>
			<path fill="#FFFFFF" d="M1677.1,501.5c-1-46-6.5-295.4,14.2-414.1c8.8-50.7,40-81.6,53.5-84.5c45-9.9,60.5,5,63.1,50.8
				c0,0-31.6,324.6-30.6,380.1c1,55.6,1,55.6,1,55.6c0.7,11.9,1.7,36.3,21.1,35.1c27.8-1.7,79.2-86,121.7-161.5
				c17.1-1,43.7-9.9,44.7,8c3.9,68.3-120.6,258.1-211.4,263.3c-52.1,3-72.3-9.4-75-56.1L1677.1,501.5z"/>
		</g>
		<g>
			<path fill="#FFFFFF" d="M874.1,445.8c-9.4-52.3,52.7-159.5,107.6-169.3c30.1-5.4,42,3.8,46.8,30.3c4,22.1,0.6,87.2-15.5,134.9
				c44.6-123.2,101.5-175.1,140.5-182.1c40.7-7.3,65.9,15.6,72.1,50.1c4.3,23.9,2.8,56.2-8.2,102.1c-8.9,41.8-26,109.8-22,132
				c1.8,9.7,6.8,12.5,14.8,11.1c17.7-3.2,65.4-58.4,106.1-147.1c16.8-3,36.6,5.3,39.8,23c10,55.8-112.7,232.4-194.2,247.1
				c-52.3,9.4-74.1-10.4-82.9-59.2c-10.5-58.5,18.5-156.1,15-175.5c-1.3-7.1-5.5-10-12.5-8.7c-8,1.4-39.1,17.4-58.7,74
				c-8.9,25.6,8.4,101.6-1.1,169c-1.8,12.6-14,17.2-34.4,20.9c-49.6,8.9-84.4-31.5-94.8-84.5c-6.1-33.7-5.5-71.3,2.2-114.7
				C884.7,483.6,877.3,463.5,874.1,445.8z"/>
		</g>
		<path fill="#FFFFFF" stroke="#E82525" stroke-miterlimit="10" d="M2043.1,190.2"/>
		<path fill="#FFFFFF" d="M1863.3,469.6c-7.8-135.7,94.7-280.4,181.9-285.4c62-3.6,97.8,24.1,101.5,87
			c4.4,75.5-35.2,156.4-156.6,191.3c2.3,40.4,10.6,42.5,45.6,40.4c61.1-3.5,137.2-60.2,183.9-141.3c0,0,17.5-10.6,25.9-0.6
			s7.9,27.4,7.9,27.4c3.3,66.5-135.9,218.9-252.7,225.6C1912.5,619.1,1868.9,566.7,1863.3,469.6z M2028.2,279.8
			c-12.6,0.7-35.1,32.7-37.7,95.9c49.8-11.9,59-40.4,57.4-67.3C2046.8,289.6,2039,279.2,2028.2,279.8z"/>
		<path fill="#FFFFFF" stroke="#DA1F26" stroke-miterlimit="10" d="M1466.3,773.3"/>
		<path fill="#FFFFFF" d="M1663.7,495.9"/>
		<path fill="#FFFFFF" d="M1513,966.3c50.2-27.3,63.3-179,70.8-284c1.2-17.3,3.2-36.4,3.2-36.4l5.8-67.9l13.9-91.7
			c4,17.7,6-75.3,10.6-100.9c1.8-9.9,2.2-19.3,2.2-28.5c0-19.3-2.9-36.5-8.6-51.7c-5.7-15.2-14.1-28-25.1-38.6
			c-11-10.5-24.5-18.6-40.4-24.1c-16-5.6-34.2-8.3-54.7-8.3c-14.2,0-28.2,1.9-41.9,5.6c-13.8,3.7-27.1,9-39.9,15.8
			c-12.8,6.8-25,15-36.7,24.6c-11.7,9.6-22.5,20.2-32.5,31.9c-10,11.7-19.1,24.4-27.2,37.9c-8.1,13.5-15,27.6-20.8,42.4
			c-5.7,14.7-10.2,29.9-13.3,45.5c-3.1,15.6-4.7,31.3-4.7,47.1c0,15,1.3,29.1,3.9,42.3c2.6,13.2,6.4,25.4,11.4,36.5
			c5,11.1,11.3,21,18.7,29.9c7.4,8.8,15.9,16.3,25.6,22.4c9.6,6.1,20.3,10.8,32.2,14c11.8,3.2,24.6,4.9,38.4,4.9
			c9.6,0,19-1.2,28.2-3.6c9.2-2.4,18-5.6,26.2-9.5c8.2-4,35.8-18.5,42.8-23.6l41.1-26.4c34.6-18.9,181.9-77.8,227.4-291.3
			c9.9-46.6-5.2-68.2-32.3-68.2c-12.1,0-19.9-10.4-29.2-4.8c17.9,61.2-51.5,172.1-78.6,200.6c-36.7,38.5-46.8,36.2-46.8,36.2
			l-87.9,26.8c2.6,0.9-14.8,47.8-61.3,34.1c-30.3-8.9-35.1-50.4-27.7-75.4c6-20.5,13-34.6,29.6-44.3c25-14.6,42-4.4,42.4-4.2
			c8.3,4.6,15.7,16,18.5,30.1c7.5,37.8-13.6,130.3-8.2,110.7l-9.3,120c-7.3,93.5-1.8,35-4,54c-3.1,26.3-14.6,151-72.2,172.1l0,0.1
			c-69.4,24.2-210.4,10.1-433,4.5c-221.5-5.4-341.6,12.5-415.2,19.8c-56.5,5.6-195.7,28.1-195.7,104.1c0,24.6,29.8,29,29.8,29
			s33.5-1.5,33.5-24.2c0-42.3,374-47.1,483.4-47.1c109.4,0,412.6,21.3,412.6,21.3s29.4,0.6,122.3,3c0,0,15.6,1.6,38.3-1.9
			C1501.2,973,1513,966.3,1513,966.3z"/>
		<path fill="#FFFFFF" stroke="#FFFFFF" stroke-width="12" stroke-miterlimit="10" d="M1471.7,647"/>
		<path fill="#FFFFFF" stroke="#FFFFFF" stroke-width="12" stroke-miterlimit="10" d="M1479.7,528"/>
		<path fill="#FFFFFF" d="M10.7,170.1c4-3.9,12.7-11.9,18.1-14.1c5.5-2.1,19.5-7.5,26.2-8.2c12.2-1.2,21.3,1.2,31.4,7.1
			c10.1,5.9,19.5,15.8,28.1,29.6c8.6,13.8,16.7,31.6,24.3,53.6c7.5,21.9,14.8,48.2,21.9,78.9c5.3,22.9,11,46.8,16.9,71.8
			c6,25,12.1,50.4,18.5,76.3c6.4,25.8,15,51.7,21.7,77.5l15.5,57.1c0,0-8,10,12.4-41.7c20.4-51.7,74-345.3,90.5-391.7
			c10.3-28.9,57.4-55.2,96.9-31.5c23,13.8,28,55.6,17.5,105.9c-42.4,201.5-109.8,383-126.8,425.8l-16.2,37.1c0,0-25.4,49-43.7,61.4
			c-18.6,12.5-34.7,13.4-42,14.2c-6.1,0.6-11.7,0.4-16.7-0.5c-5.1-0.9-10-3.3-14.8-7.1c-4.8-3.8-9.6-9.4-14.5-16.9
			c-4.9-7.5-10-17.5-15.4-30c-5.4-12.5-11.4-27.9-17.9-46.2c-6.5-18.3-13.8-40.2-21.9-65.8c-8.1-25.5-17.2-55-27.3-88.4
			C83.4,490.8,72,452.6,59.3,409.8c-8.3-27.7-17-52.3-24-73.8c-7-21.5-9.7-30.5-16.1-46.9c-6.4-16.4-5.5-20-12.4-41.7
			c-3.6-6.8-7.7-35-6.7-45.9C2.3,179.8,10.7,170.1,10.7,170.1z"/>
		<path fill="#FFFFFF" stroke="#DA1F26" stroke-miterlimit="10" d="M1466.3,779.5"/>
	</g>
</g>
</svg>
