<?xml version="1.0" encoding="utf-8"?>
<!-- Generator: Adobe Illustrator 18.1.1, SVG Export Plug-In . SVG Version: 6.00 Build 0)  -->
<!DOCTYPE svg PUBLIC "-//W3C//DTD SVG 1.1//EN" "http://www.w3.org/Graphics/SVG/1.1/DTD/svg11.dtd">
<svg version="1.1" id="Layer_1" xmlns="http://www.w3.org/2000/svg" xmlns:xlink="http://www.w3.org/1999/xlink" x="0px" y="0px"
	 viewBox="0 0 400 400" enable-background="new 0 0 400 400" xml:space="preserve">
<g>
	<path fill="#FFFFFF" d="M199.6,386c-28.2,0-56.3,0-84.5,0c-8.6,0-12.2-3.5-12.2-12.2c0-39-0.1-77.9,0-116.9c0-9.3,3.6-12.7,13-12.7
		c55.8,0,111.7,0,167.5,0c9.3,0,13,3.5,13,12.7c0.1,39,0,77.9,0,116.9c0,8.7-3.7,12.2-12.3,12.2C256,386,227.8,386,199.6,386z
		 M199.2,366.5c24.3,0,48.6,0,72.9,0.1c3.4,0,4.8-0.8,4.8-4.5c-0.1-31.3-0.1-62.5,0-93.8c0-3.7-1.3-4.6-4.8-4.6
		c-48.4,0.1-96.7,0.1-145.1,0c-3.8,0-4.8,1.2-4.8,4.9c0.1,31,0.1,62,0.1,93c0,4.9,0.1,4.9,5,4.9
		C151.4,366.5,175.3,366.5,199.2,366.5z"/>
	<path fill="#FFFFFF" d="M115,190.1c-23.9,0-47.9,0-71.8,0c-9.1,0-12.6-3.6-12.6-12.6c0-7.7,0-15.4,0-23.1
		c0.1-6.7,4.1-11.3,9.8-11.2c5.6,0.1,9.5,4.6,9.6,11.1c0.1,4,0.2,7.9,0,11.9c-0.2,3.4,1,4.5,4.4,4.5c15.4-0.1,30.8,0,46.2,0
		c29,0,58.1,0,87.1,0c5,0,5,0,5-4.9c0-4.8-0.1-9.7,0-14.5c0.1-5.4,4.2-9.5,9.3-9.6c5.2-0.1,9.5,4.2,9.6,9.7c0.1,4.8,0.2,9.7,0,14.5
		c-0.2,3.7,1,4.9,4.8,4.9c29.5-0.2,59.1-0.1,88.6-0.1c14.9,0,29.8-0.1,44.7,0c3.5,0,4.9-1,4.7-4.6c-0.3-4.1-0.1-8.2,0-12.3
		c0.2-6.2,4.3-10.6,9.7-10.6c5.5,0,9.6,4.4,9.7,10.6c0.1,8.2,0.1,16.4,0,24.6c0,8-3.9,11.8-12,11.8c-47.9,0-95.8,0.1-143.7,0.1
		c-7.2,0-6.5-0.6-6.6,6.7c0,6.6,0,13.2,0,19.7c-0.1,6.2-3.9,10.1-9.5,10.1c-5.7,0-9.4-4-9.4-10.2c-0.1-7.3-0.2-14.6,0-22
		c0.1-3.5-1.1-4.4-4.5-4.4C163.9,190.2,139.5,190.2,115,190.1C115,190.2,115,190.1,115,190.1z"/>
	<path fill="#FFFFFF" d="M199.8,35c14.5,0,29,0,43.5,0c7.7,0,11.4,3.7,11.4,11.4c0.1,21.2,0,42.4,0,63.6c0,7.9-3.8,11.6-11.7,11.6
		c-28.9,0-57.8,0-86.7,0c-8.1,0-11.8-3.7-11.8-11.9c0-21,0-41.9,0-62.9c0-8.4,3.6-11.9,12.1-11.9C171,35,185.4,35,199.8,35z
		 M199.9,54c-10.7,0-21.3,0.1-32,0c-2.9,0-3.9,1-3.9,3.9c0.1,13.4,0.1,26.8,0,40.2c0,3,0.9,4.2,4,4.2c21.1-0.1,42.2-0.1,63.2,0
		c3.1,0,4.1-1.1,4.1-4.1c-0.1-13.3-0.1-26.5,0-39.8c0-3.2-0.9-4.4-4.2-4.3C220.7,54.1,210.3,54,199.9,54z"/>
	<path fill="#FFFFFF" d="M337.3,35c14.5,0,29,0,43.5,0c7.6,0,11.1,3.5,11.1,11.2c0,21.5,0,42.9,0,64.4c0,7.5-3.6,11.1-11.2,11.1
		c-29.1,0-58.3,0-87.4,0c-7.5,0-11.1-3.7-11.1-11.3c0-21.5,0-42.9,0-64.4c0-7.4,3.5-11,10.9-11C307.8,35,322.5,35,337.3,35z M337,54
		c-10.3,0-20.6,0.1-30.9-0.1c-3.3-0.1-4.6,0.8-4.6,4.4c0.2,13.1,0.2,26.3,0,39.4c0,3.5,1.2,4.5,4.6,4.4c20.8-0.1,41.6-0.1,62.5,0
		c3.1,0,4.4-0.8,4.4-4.2c-0.2-13.3-0.1-26.5,0-39.8c0-3.3-1.2-4.3-4.3-4.3C358.1,54.1,347.5,54,337,54z"/>
	<path fill="#FFFFFF" d="M62.5,35c14.6,0,29.3,0,43.9,0c7.1,0,10.8,3.6,10.8,10.8c0,21.6,0,43.2,0,64.7c0,7.5-3.7,11.2-11.2,11.2
		c-29.1,0-58.3,0-87.4,0c-7.6,0-11.1-3.6-11.1-11.3c0-21.5,0-42.9,0-64.4c0-7.6,3.5-11.1,11.2-11.1C33.2,35,47.8,35,62.5,35z
		 M61.9,54c-10.4,0-20.8,0.1-31.2-0.1c-3.2,0-4.3,1-4.3,4.3c0.1,13.3,0.1,26.5,0,39.8c0,3.4,1.3,4.2,4.4,4.2
		c20.8-0.1,41.6-0.1,62.5,0c3.4,0,4.6-1.1,4.5-4.5c-0.1-13.1-0.2-26.3,0-39.4c0-3.6-1.4-4.4-4.6-4.3C82.7,54.1,72.3,54,61.9,54z"/>
</g>
</svg>
