<?xml version="1.0" encoding="utf-8"?>
<!-- Generator: Adobe Illustrator 18.1.1, SVG Export Plug-In . SVG Version: 6.00 Build 0)  -->
<!DOCTYPE svg PUBLIC "-//W3C//DTD SVG 1.1//EN" "http://www.w3.org/Graphics/SVG/1.1/DTD/svg11.dtd">
<svg version="1.1" id="Layer_1" xmlns="http://www.w3.org/2000/svg" xmlns:xlink="http://www.w3.org/1999/xlink" x="0px" y="0px"
	 viewBox="0 0 400 400" enable-background="new 0 0 400 400" xml:space="preserve">
<g>
	<path fill="#394C5F" d="M311.5,199.1v32.6v130.3v32.6h-16.3h-8.1c-13.5,0-24.4-11.4-24.4-24.4v-32.6v-8.1v-32.6v-32.6v-8.1v-32.6
		c0-14.7,10.9-24.4,24.4-24.4h8.1H311.5z"/>
	<path fill="#5B305B" d="M327.8,215.4c9,0,16.3,6.5,16.3,16.3v32.6v65.2v32.6c0,8.1-7.3,16.3-16.3,16.3h-16.3v-32.6V248v-32.6H327.8
		z"/>
	<rect x="295.2" y="199.1" fill="#A768A8" width="32.6" height="195.5"/>
	<path fill="#5B305B" d="M67.1,215.4c-9,0-16.3,7.3-16.3,16.3v32.6v65.2v32.6c0,9,7.3,16.3,16.3,16.3h16.3v-32.6V248v-32.6H67.1z"/>
	<path fill="#394C5F" d="M83.4,199.1v32.6v130.3v32.6h16.3h8.1c13.5,0,24.4-11.4,24.4-24.4v-32.6v-8.1v-32.6v-32.6v-8.1v-32.6
		c0-14.7-10.9-24.4-24.4-24.4h-8.1H83.4z"/>
	<path fill="#394C5F" d="M197,2C98,2,17.8,81.8,17.8,181.2l0,16.3h16.3c0.7-74.9,51-136.9,119.1-156.4c3.6-1.6,7.5-1.6,11.2-3.3h3.1
		c4.1-1.6,8.5-1.6,12.7-1.6c5.6-1.6,11-1.6,16.8-1.6c5.8,0,11.2,0,16.8,1.6c4.4,0,8.4,0,12.7,1.6c4.8,0,9.7,1.6,14.3,3.3
		c68.1,19.6,118.5,81.5,119.1,156.4h16.3v-16.3C376.2,81.8,296,2,197,2L197,2z"/>
	<path fill="#2F4152" d="M197,18.3c-99,0-179.2,79.8-179.2,179.2h16.3c0.7-74.9,51-136.9,119.1-156.4c3.6-1.6,7.5-1.6,11.2-3.3h3.1
		c4.1-1.6,8.5-1.6,12.7-1.6c5.6-1.6,11-1.6,16.8-1.6c5.8,0,11.2,0,16.8,1.6c4.4,0,8.4,0,12.7,1.6c4.8,0,9.7,1.6,14.3,3.3
		c68.1,19.6,118.5,81.5,119.1,156.4h16.3C376.2,98.1,296,18.3,197,18.3z"/>
	<path fill="#2F4152" d="M59,207.3c0,13.5-10.9,24.4-24.4,24.4s-24.4-10.9-24.4-24.4s10.9-24.4,24.4-24.4S59,193.8,59,207.3z"/>
	<path fill="#394C5F" d="M25.6,202.4l25.3,94.5c1.2,3.3,5.6,6.5,10,4.9c4.3-1.6,6.9-4.9,5.8-9.8l-25.3-94.5L25.6,202.4L25.6,202.4z"
		/>
	<path fill="#2F4152" d="M336,207.3c0,13.5,10.9,24.4,24.4,24.4s24.4-10.9,24.4-24.4s-10.9-24.4-24.4-24.4S336,193.8,336,207.3z"/>
	<g>
		<path fill="#394C5F" d="M369.4,202.4l-25.3,94.5c-1.2,3.3-5.6,6.5-10,4.9c-4.4-1.6-6.9-4.9-5.8-9.8l25.3-94.5L369.4,202.4
			L369.4,202.4z"/>
		<path fill="#394C5F" d="M50.9,205.7c0,9-7.3,16.3-16.3,16.3s-16.3-7.3-16.3-16.3c0-9,7.3-16.3,16.3-16.3S50.9,196.7,50.9,205.7z"
			/>
		<path fill="#394C5F" d="M376.7,205.7c0,9-7.3,16.3-16.3,16.3s-16.3-7.3-16.3-16.3c0-9,7.3-16.3,16.3-16.3S376.7,196.7,376.7,205.7
			z"/>
	</g>
	<rect x="67.1" y="199.1" fill="#A768A8" width="32.6" height="195.5"/>
</g>
</svg>
