<?xml version="1.0" encoding="utf-8"?>
<!-- Generator: Adobe Illustrator 18.1.1, SVG Export Plug-In . SVG Version: 6.00 Build 0)  -->
<!DOCTYPE svg PUBLIC "-//W3C//DTD SVG 1.1//EN" "http://www.w3.org/Graphics/SVG/1.1/DTD/svg11.dtd">
<svg version="1.1" id="Layer_1" xmlns="http://www.w3.org/2000/svg" xmlns:xlink="http://www.w3.org/1999/xlink" x="0px" y="0px"
	 viewBox="0 0 400 400" enable-background="new 0 0 400 400" xml:space="preserve">
<g>
	<rect x="126.2" y="43.6" fill="#F7E8D4" width="187.7" height="295"/>
	<rect x="135.5" y="340.5" fill="#DCE0DF" width="187.7" height="31"/>
	<rect x="126.7" y="7.7" fill="#DCE0DF" width="187.7" height="31"/>
	<path fill="#434344" d="M329.4,192.4c0,51.9,0,103.8,0,155.7c0,21.8-11.7,33.6-33.4,33.6c-50.2,0-100.4,0-150.6,0
		c-20.8,0-32.8-12-32.8-32.9c0-104.3,0-208.5,0-312.8c0-21,12-33,32.8-33c50.4,0,100.8,0,151.2,0c20.8,0,32.7,12,32.7,33
		C329.4,88.2,329.4,140.3,329.4,192.4z M313.9,43.6c-63,0-125.3,0-187.7,0c0,98.7,0,196.9,0,295c62.9,0,125.2,0,187.7,0
		C313.9,240.2,313.9,142.2,313.9,43.6z M219.8,371.4c4.1,0,8.2,0.2,12.3,0c6.7-0.3,11.5-4.8,12.3-11.1c0.8-6.9-2.7-13-9.7-13.7
		c-9.6-0.9-19.3-0.9-28.9-0.1c-6.5,0.5-10.5,6.8-10,13c0.5,6.4,5.7,11.4,12.4,11.8C212,371.6,215.9,371.5,219.8,371.4z M219.5,20.9
		c-6.9,0-13.7-0.3-20.6,0.2c-2.1,0.1-4,2.1-6,3.3c1.9,1.4,3.7,3.9,5.6,3.9c14.1,0.3,28.3,0.3,42.4,0c1.8,0,3.5-2.3,5.3-3.5
		c-1.9-1.3-3.7-3.5-5.6-3.6C233.7,20.7,226.6,20.9,219.5,20.9z"/>
	<path fill="#81AA61" d="M294.3,101.5c3.3,13.8-2.6,28.2-13.8,36.1c-12.8,9-29.1,8.8-41.4-0.5c-8.2-6.1-12.8-14.6-13.8-24.9
		c-0.4-4.3,0-8.6,1.3-12.7c6.1,0,12.3,0,18.4,0.1c-3.2,3.1-6.4,6.2-9.2,8.9c3.7,3.9,7.1,7.5,10.6,11.2c4,4.1,8,8.2,12.1,12.3
		c0.8,0.9,1.5,1.6,2.7,0.3c7.4-7.5,14.9-14.9,22.3-22.3c0.8-0.8,0.8-1.2,0-2c-1.9-1.9-3.8-3.8-5.7-5.7c0.5-1,1.5-0.6,2.3-0.6
		C284.8,101.6,289.5,101.5,294.3,101.5z"/>
	<path fill="#D3B665" d="M226.2,270.9c-0.2-8.2,2.4-15.5,7.6-21.7c9.8-11.7,22.4-15.9,37.2-11.6c13.8,4,21.9,13.7,24.7,27.8
		c0.3,1.5,0.7,3,0.4,4.6c-3.1,0-6.2,0-9.3,0c-0.8,0-1.5-0.1-2.1-0.7c-1.2-1.2-2.7-2.3-3.8-3.6c-5.2-5.7-11-11-16.4-16.5
		c-0.5-0.5-1-1.3-1.9-1.2l0.1,0c-0.1-0.2-0.3-0.3-0.4-0.5l0,0c-0.1-0.3-0.3-0.5-0.4-0.8c-0.3,0-0.5-0.7-0.9-0.2
		c-2.9,3.6-4.3,8-6.9,11.8c-2.7,4-5,8.3-7.4,12.5C239.8,270.7,233,270,226.2,270.9z"/>
	<path fill="#E47F42" d="M226.2,270.9c6.8-0.9,13.5-0.1,20.3,0c-2.5,4.5-5.1,8.9-7.6,13.4c-1.3,2.3-1.3,2.3,1.2,2.3
		c14,0,27.9,0,41.9,0c0.6,0,1.1,0.1,1.7,0c0.7-0.1,0.5-0.5,0.2-0.9c-0.4-0.9-0.9-1.8-1.3-2.6c-3-5.3-6-10.6-9.1-15.9
		c2.3,0.3,3.9,1.8,5.6,3.1c1.7,1.3,3.3,2.5,5.5,2.9c1.2,0.2,2.8-0.2,3.7,0.5c2.2,1.9,4.7,1.9,7.4,1.9c-0.4,5.9-2.7,11.1-6,15.8
		c-2.9,4.2-6.7,7.5-11.1,10c-12.6,7.2-27.5,6.5-39.2-2.8C230.7,291.7,226,282.3,226.2,270.9z"/>
	<path fill="#775193" d="M212.4,115.3c-1.3,7.3-4.7,13.3-9.9,18.6c-6,6-13.2,9.2-21.4,10.1c-7.4,0.8-14.4-0.9-20.8-4.7
		c-8.6-5.1-14-12.6-16.3-22.3c1,0.2,1.9-0.2,2.9-0.1c5.5,0.2,11,0.3,16.5-0.3c4.3,4.3,9,8.2,13,12.8c1.1,1.3,1.9,1.2,3,0
		c1.6-1.7,3.4-3.2,5-4.9c6-6,12.3-11.6,18.1-17.7c0.9,0,1.4,0.7,1.8,1.3c1.9,2.3,4.2,4.2,6.3,6.3
		C211.1,114.8,211.6,115.3,212.4,115.3z"/>
	<path fill="#D3B665" d="M143.3,194.6c-1.2-8.1,0.6-15.6,4.9-22.4c11.3-18.3,35.7-22.2,52.2-8.5c7.1,5.9,11.3,13.3,12.3,22.6
		c0.3,2.7,0.5,5.3,0.2,8c-0.8-0.2-1.3-0.9-1.8-1.4c-5.1-5.1-10.3-10.3-15.4-15.4c-0.5-0.5-1-1.2-1.8-1.5c-0.3-0.3-0.5-0.6-0.8-0.9
		c-4.8-2.1-9.6-4.1-14.5-5.9c-0.2-0.3-0.5-0.3-0.8-0.2c-5,1.8-9.9,4-14.8,6.1c-2.7,4.9-4.5,10.1-6.4,15.3c-0.3,1.7,1.1,2.8,1.3,4.3
		c-1,0.4-2,0.5-3.1,0.5C150.9,194.9,147.1,195.1,143.3,194.6z"/>
	<path fill="#C4944F" d="M193.9,175.9c0.8,0.2,1.2,0.9,1.8,1.5c5.1,5.1,10.3,10.3,15.4,15.4c0.5,0.5,1,1.2,1.8,1.4
		c-1.4,17.3-17.1,31.4-34.7,31.4c-18.3,0-33.3-14.2-34.9-31c3.8,0.5,7.6,0.4,11.4,0.4c1.1,0,2.1-0.1,3.1-0.5c1.6,3.7,3.2,7.3,4.8,11
		c0.1,0.2,0.2,0.4,0.3,0.5c4.8,2,9.7,4,14.5,6c0.5,0.2,0.9,0.2,1.4,0c4.8-2.2,9.8-3.9,14.6-6.3c2.1-5.1,4.2-10.1,6.3-15.2
		c0.1-0.2-0.2-0.5-0.3-0.7C197.6,185.1,195.7,180.5,193.9,175.9z"/>
	<path fill="#E5749D" d="M144.3,279.4c-2.8-9.5-1.3-18.5,3.7-26.8c5.4-8.9,13.4-14.7,23.8-16.7c9.5-1.8,18.2,0.2,26,5.7
		c8.8,6.3,14.1,14.8,15.2,25.7c0.1,0.9,0,1.8,0,2.7c-0.7-0.6-1.4-1.2-2-1.9c-4.4-4.3-8.8-8.6-13.2-13c-0.1-0.1-0.2-0.2-0.3-0.3
		c-1.2-1.3-2.5-2.5-3.7-3.8c-0.5-0.5-1-0.6-1.7-0.6c-9.7,0-19.4,0.1-29,0.1c-1.2,0.1-1.9,0.9-2.3,2l0,0c-0.5,1-2.8,0.9-1.6,2.9
		c-0.6,1.9-2.4,1.2-3.8,1.5c0.9,1.1,2,0.4,3,0.7c0,7.2-0.1,14.3-0.1,21.5C153.6,279.9,148.9,280.1,144.3,279.4z"/>
	<path fill="#A16FAB" d="M163.4,116.4c-5.5,0.6-11,0.5-16.5,0.3c-1,0-1.9,0.3-2.9,0.1c-1.9-6.8-1.2-13.4,1.2-19.9
		c2-5.6,5.5-10.2,10-14.1c1.1,0.4,2.3,0.5,3.5,0.5c10.5,0,21.1,0,31.6,0c3.4,0,6.8,0,10.1-0.9c9.8,8.5,14.1,19.1,12.3,32
		c0,0.3-0.2,0.5-0.2,0.8c-0.8,0-1.3-0.5-1.8-1c-2.1-2.1-4.4-4-6.3-6.3c-0.5-0.6-0.9-1.3-1.8-1.3c-0.1-0.2,0-0.5-0.2-0.6
		c-3.8-4-7.7-8-11.5-12c-0.4-0.4-0.8-0.5-1.3-0.5c-3.3,0-6.6,0.1-9.9,0.1c-3,0-5.9-0.1-8.9-0.1c-3.6,0-4.6,0.9-4.8-4.5
		c0-0.1-0.1-0.1-0.2-0.3c-0.2,0.8-0.4,1.6-0.4,2.3c0,1.8-0.8,2.6-2.6,2.4c-0.6,0-1.3,0-1.7,0.6c1.1,0.7,2.7-0.6,3.3,1.1l0,0
		c-0.1,0.1-0.3,0.3-0.4,0.4l0,0c-0.1,0.1-0.3,0.3-0.4,0.4l0,0c-0.1,0.1-0.3,0.3-0.4,0.4c-2.6,3.3-6.3,5.4-8.8,8.9
		c-0.8,1.1-0.7,1.4,0.1,2.2C157.3,110.6,160.6,113.2,163.4,116.4z"/>
	<path fill="#5D91C9" d="M294.8,194.2c-0.4,6.5-2.8,12.4-6.8,17.5c-7.5,9.6-17.5,14.4-29.7,13.8c-7.4-0.3-14.1-2.9-20-7.6
		c-4.3-3.5-7.6-7.6-9.8-12.7c4,0,8,0,12,0c1.6,0,3.2,0.2,4.8-0.4c4.7,2.8,9.3,5.7,14,8.5c0.6,0.3,1,1,1.9,0.7
		c4.5-2.7,9-5.5,13.5-8.1c1.4-0.8,1.9-1.7,1.9-3.3c-0.1-8.6-0.1-17.2-0.1-25.8c0.8,0.1,1.3,0.8,1.8,1.3c2.3,2,4,4.6,6.6,6.4
		c2,2.1,3.9,4.3,5.9,6.4C291.8,192.1,293.2,193.3,294.8,194.2z"/>
	<path fill="#E05268" d="M144.3,279.4c4.7,0.7,9.3,0.5,14-0.1c0.4,2.1-0.3,4.2,0.4,6.3c1.3,1.3,2.6,2.7,3.9,4
		c0.4,0.7,1.1,0.4,1.7,0.4c9.1,0,18.2,0,27.3,0c0.5,0,1.1,0.1,1.6-0.3c1.4-1.4,2.8-2.8,4.2-4.2c0.5-0.7,0.3-1.5,0.3-2.2
		c0-9.3,0-18.6,0-28c4.4,4.3,8.8,8.7,13.2,13c0.6,0.6,1.3,1.2,2,1.9c0.1,7.4-2,14.1-6.3,20c-7.3,10.1-17.2,15.5-29.7,15.1
		c-12.5-0.4-22.1-6.2-28.8-16.7C146.4,285.7,145.1,282.6,144.3,279.4z"/>
	<path fill="#B8C86F" d="M294.3,101.5c-4.7,0-9.4,0.1-14.1,0.2c-0.8,0-1.7-0.4-2.3,0.6c-5.5-5.5-11.1-10.9-16.5-16.4
		c-1-1.1-1.6-1.1-2.6,0c-4.5,4.6-9.2,9.2-13.8,13.7c-6.1,0-12.3,0-18.4-0.1c1.1-5.3,3.8-9.7,7.3-13.6c12.9-14.2,33-16,48.1-4.3
		C288.4,86.7,292.7,93.3,294.3,101.5z"/>
	<path fill="#74CDDD" d="M284.7,184.4c-2.5-1.8-4.2-4.4-6.6-6.4c-0.6-0.5-1-1.2-1.8-1.3l-0.1,0.1c-0.1-0.2-0.2-0.6-0.4-0.7
		c-4.9-3-9.9-6-14.8-9c-2.3,0.8-4.4,2.1-6.4,3.5c-1,0.1-1.6,1-2.4,1.4c-1.1,0.8-2.2,1.8-3.5,2.2c-3.3,1.1-4.2,3.3-3.6,6.5
		c0.1,0.3,0.1,0.6,0.1,0.8l0,0c-0.1,2.4-0.1,4.8-0.2,7.1c-0.1-0.6-0.3-1.3-0.2-1.9c0.3-2-0.6-2.5-2.5-2.4c-5.5,0.1-11.1,0-16.6,0
		c0.7-5.6,3-10.6,6.4-15c13.6-17.9,39.8-18.8,54.5-1.8c4,4.6,6.8,9.8,7.7,15.9c-2.6,0.5-5.2,0.4-7.8,0.4
		C285.9,183.9,285.1,183.7,284.7,184.4z"/>
	<path fill="#69B8D8" d="M225.7,184.3c5.5,0,11.1,0.1,16.6,0c1.9,0,2.8,0.4,2.5,2.4c-0.1,0.6,0.1,1.2,0.2,1.9
		c0.1,0.6,0.1,1.2,0.2,1.7c-0.3,4.8-0.1,9.6-0.1,14.4c-1.5,0.7-3.2,0.4-4.8,0.4c-4,0-8,0-12,0C225.1,198.5,224.2,191.6,225.7,184.3z
		"/>
	<path fill="#B288BA" d="M200.4,82.5c-3.3,0.9-6.7,1-10.1,0.9c-10.5,0-21.1,0-31.6,0c-1.2,0-2.4-0.1-3.5-0.5c4.2-4.1,9.4-6.5,15-7.9
		c10.9-2.6,20.6,0.1,29.5,6.7C200,81.9,200.1,82.2,200.4,82.5z"/>
	<path fill="#C4944F" d="M295.7,275.6c-2.6,0-5.2,0-7.4-1.9c-0.9-0.8-2.4-0.3-3.7-0.5c-2.2-0.4-3.8-1.6-5.5-2.9
		c-1.7-1.3-3.3-2.8-5.6-3.1c-3.8-6.3-7.6-12.6-11-19.1c0.9,0,1.4,0.7,1.9,1.2c5.4,5.5,11.1,10.8,16.4,16.5c1.2,1.3,2.6,2.4,3.8,3.6
		c0.6,0.6,1.3,0.7,2.1,0.7c3.1,0,6.2,0,9.3,0C296.1,271.9,296.3,273.7,295.7,275.6z"/>
	<path fill="#69B8D8" d="M284.7,184.4c0.5-0.7,1.3-0.5,1.9-0.5c2.6,0,5.2,0.1,7.8-0.4c0.8,3.5,1.3,7.1,0.5,10.6
		c-1.6-0.9-3-2-4.3-3.4C288.5,188.7,286.6,186.6,284.7,184.4z"/>
	<path fill="#E05268" d="M244.9,99.6c4.6-4.6,9.3-9.1,13.8-13.7c1-1.1,1.6-1,2.6,0c5.5,5.5,11,11,16.5,16.4c1.9,1.9,3.7,3.9,5.7,5.7
		c0.8,0.8,0.8,1.2,0,2c-7.5,7.4-14.9,14.8-22.3,22.3c-1.2,1.3-1.9,0.5-2.7-0.3c-4-4.1-8.1-8.2-12.1-12.3c-3.5-3.6-7-7.3-10.6-11.2
		C238.5,105.8,241.7,102.7,244.9,99.6z M237.9,108.8c2.7,0,5.3,0,8,0c0.7,0,1.1-0.4,1.6-0.9c3.5-3.7,7.3-7,10.7-10.9
		c0.4-0.5,0.9-1.4,1.8-0.5c2.9,3,5.8,6.2,8.8,9c1.2,1.1,2.2,3,3.9,3.1c3.2,0.3,6.4,0.1,9.9,0.1c-0.4-0.5-0.5-0.8-0.7-0.9
		c-6.9-6.9-13.8-13.8-20.7-20.7c-1.2-1.2-1.8-0.4-2.5,0.4c-6.6,6.6-13.2,13.2-19.8,19.8C238.6,107.7,238,108,237.9,108.8z
		 M256,125.9c0.6-4,0.6-4,4.7-4.7c-3,0-5-1.1-4.7-3.2c0.5,2.5-2.2,3-5,3.3C255.3,121.5,255.6,122.2,256,125.9z M262,128.2
		c-0.5-0.3-1.1,0-1.7-0.7c-0.8-0.9-1.2,0.9-2,0.6c-0.2-0.1-0.2,0.2-0.1,0.2c0.9-0.3,1.3,1.5,2.1,0.6
		C260.8,128.2,261.4,128.4,262,128.2z"/>
	<path fill="#B288BA" d="M262.6,248c3.4,6.5,7.2,12.8,11,19.1c3,5.3,6,10.6,9.1,15.9c0.5,0.9,0.9,1.7,1.3,2.6
		c-0.1,0.1-0.2,0.1-0.2,0.2c-4.1-2.6-8.1-5.2-12.2-7.8c-0.8-3.1-1.6-3.8-4.6-3.8c-4.1,0-8.2-0.1-12.3,0c-1.8,0-1.9-0.6-1.1-1.9
		c1.6-2.7,3.3-5.4,4.8-8.2c0.9-1.8,2.5-3.3,2.5-5.5c0.1-4,0-8.1,0-12.1c0.4-0.6,0.6,0.1,0.9,0.2c0.1,0.3,0.3,0.5,0.4,0.8l0,0
		C262.2,247.8,262.3,248,262.6,248L262.6,248z"/>
	<path fill="#A16FAB" d="M260.9,246.6c0,4,0.1,8.1,0,12.1c0,2.1-1.6,3.7-2.5,5.5c-1.5,2.8-3.2,5.5-4.8,8.2c-0.8,1.3-0.7,2,1.1,1.9
		c4.1-0.1,8.2,0,12.3,0c2.9,0,3.8,0.7,4.6,3.8c-6.6,0-13.2,0.1-19.8,0.1c-1.1,0-2.1,0-2.7,1.2c-1,0-1.8-0.5-2.1-1.3
		c-0.5-1.2-0.6-0.8-0.9,0.1c-0.2,0.6-0.5,0-0.8,0c-0.1-0.1-0.3-0.3-0.4-0.4l-0.1-0.1l0.1,0.1c0.1,0.1,0.3,0.3,0.4,0.4
		c0.2,1.6-1.5,0.9-2,1.6c0.7,0.5,2.4-0.5,2,1.5l0,0c-0.4,0.1-0.7,0.2-0.8,0.6c-1.9,1.4-3.8,2.8-6,4.4c0.7,0,1,0,1.2,0
		c14.2,0,28.3,0,42.5,0c0.5,0,1.1,0.2,1.6-0.3c0.1-0.1,0.1-0.1,0.2-0.2c0.3,0.4,0.5,0.8-0.2,0.9c-0.6,0.1-1.1,0-1.7,0
		c-14,0-27.9,0-41.9,0c-2.6,0-2.5,0-1.2-2.3c2.5-4.5,5.1-8.9,7.6-13.4c2.5-4.2,4.7-8.5,7.4-12.5C256.6,254.6,258,250.2,260.9,246.6z
		 M248.4,277.6c-0.1,0-0.1,0-0.2,0.1c-0.2,0.1-0.2,0.2,0,0.2c0,0,0.1-0.1,0.1-0.1C248.4,277.8,248.4,277.7,248.4,277.6z"/>
	<path fill="#C4944F" d="M262.2,247.5c-0.1-0.3-0.3-0.5-0.4-0.8C261.9,247,262.1,247.3,262.2,247.5z"/>
	<path fill="#C4944F" d="M262.6,248c-0.3,0-0.4-0.2-0.4-0.5C262.3,247.7,262.5,247.9,262.6,248z"/>
	<path fill="#D2E8F1" d="M163.4,116.4c-2.7-3.2-6-5.9-9-8.8c-0.8-0.8-0.9-1.1-0.1-2.2c2.5-3.4,6.2-5.6,8.8-8.9
		c0.1-0.1,0.3-0.3,0.4-0.4l0,0c0.1-0.1,0.3-0.3,0.4-0.4l0,0c0.1-0.1,0.3-0.3,0.4-0.4l0,0c1.7,1,0.6,3,1.7,4.5c0-0.9,0-1.6,0-2.3
		c0-0.7,0-1.4,0.5-1.7c0.7-0.4,1,0.6,1.4,0.9c0.5,0.4,1,0.7,1.5,1.1c1,0.8,1.6,1.6,0.3,2.7c-0.3,0.3-0.5,0.8-0.7,1.2
		c1,0.3,1.6,2.5,3,0.6c0.8-1,1.5-0.5,2.1,0.2c0.8,0.9,1.6,1.8,2.3,2.7c1,1.2,1.9,1.5,3.1,0.1c0.9-1.1,1.9-2.3,2.9-3.3
		c2.2-2,2.2-2.5,0.2-4.7c-1.1-1.2-2.6-2-3.1-3.6c3.3,0,6.6-0.1,9.9-0.1c0.5,0,1,0.1,1.3,0.5c3.8,4,7.7,8,11.5,12
		c0.1,0.1,0.1,0.4,0.2,0.6c-5.8,6.2-12.1,11.7-18.1,17.7c-1.6,1.6-3.4,3.1-5,4.9c-1.1,1.2-1.8,1.3-3,0
		C172.4,124.7,167.7,120.7,163.4,116.4z"/>
	<path fill="#69B8D8" d="M162.6,205.5c-1.6-3.7-3.2-7.3-4.8-11c-0.2-1.5-1.6-2.7-1.3-4.3c2.3,0,4.6,0,6.9,0c0.8,0.4,1.6,0.9,2.5,1.3
		c0.3,2,1.5,3.8,2.2,5.7c0.4,1.1,1,1.3,2.1,0.7c6-3.1,12-6.1,18.1-9c1.3-0.6,1.3-1.4,0.9-2.5c-0.7-1.7-1.4-3.4-2.1-5.1
		c2-2.1,4-4.2,6-6.4c0.3,0.3,0.5,0.6,0.8,0.9c1.9,4.6,3.8,9.2,5.6,13.9c-0.5,0.7-1.2,0.5-1.9,0.5c-1.8,0-3.6,0-5.5,0
		c-0.6,0-1.3-0.2-1.6,0.7c-0.8,2.2-2,4.2-2.1,6.5c0,0.1-0.1,0.3-0.1,0.4c-0.1,0.1-0.2,0.1-0.3,0.3c-0.7-0.1-0.2-1.1-1-1.3
		c-0.3,1.8-1.4,2.7-3.4,2.4c0.9,0.9,2.4-0.3,2.7,1.3c-0.2,0.3-0.5,0.4-0.8,0.4l-0.2-0.1c0-0.1,0-0.3,0.1-0.4c0-0.1,0.1-0.1,0.1-0.2
		c0,0.1-0.1,0.1-0.1,0.2c-0.4,0.1-0.9,0-1.2,0.2c-4.4,3.1-8.7,1.9-13-0.3c-0.2-0.1-0.5-0.2-0.8-0.4c-1.1-0.6-1.9-0.4-2.8,0.5
		C166,202.2,164.3,203.8,162.6,205.5z"/>
	<path fill="#74CDDD" d="M163.5,190.2c-2.3,0-4.6,0-6.9,0c1.9-5.2,3.8-10.4,6.4-15.3c1.3,1.8,2.9,3.3,4.5,4.8
		c0.2,1.1-0.7,0.8-1.2,0.9c-0.9,0.1-1.8-0.1-2.6,0.7c1.3,0.4,2.9-0.2,4,1c-0.1,0-0.1,0-0.2,0.1c0,0,0,0.1,0,0.1
		c0-0.1,0.1-0.1,0.1-0.2c1.4,0.2,0.6,1.3,0.8,2.1c-1.4,0.7-1.2,2.3-1.8,3.4c-0.2,0.4-0.4,0.8,0,1.1c0.4,0.3,0.8,0,1.1-0.2
		c0.4-0.3,0.7-0.6,1.1-1c0.1-0.1,0.3-0.2,0.4-0.4c0.5-0.1,1-0.1,1.4-0.3c3.9-1.9,7.9-3.9,11.8-5.9c0.5-0.2,0.8-0.5,0.8-1.1
		c1.4,0,2.5,1.1,3.8,1.3c0.7,1.7,1.4,3.4,2.1,5.1c0.5,1.1,0.5,1.9-0.9,2.5c-6.1,2.9-12.1,6-18.1,9c-1.1,0.5-1.7,0.4-2.1-0.7
		c-0.6-1.9-1.9-3.6-2.2-5.7c0.5-0.4,0.6-1.2,1.4-1.5c-1.1-0.1-2-0.5-2-1.8C165,189.3,164.1,189.6,163.5,190.2z M166.3,183.5
		c0.1,0,0.3-0.1,0.4-0.1c0-0.1-0.1-0.1-0.1-0.2C166.5,183.3,166.4,183.4,166.3,183.5l-0.1,0.1L166.3,183.5z"/>
	<path fill="#D2E8F1" d="M183.3,180c0,0.6-0.3,0.9-0.8,1.1c-3.9,2-7.8,3.9-11.8,5.9c-0.4,0.2-0.9,0.2-1.4,0.3c0-5.7,0-5.3,6.5-6.2
		c-1.8-0.2-3.1-0.4-4.4-0.6c-0.6-0.1-1.1-0.1-1.2-0.9c0-0.1,0.1-0.1,0.1-0.2c0,0.1-0.1,0.1-0.1,0.2c-1.5-1.3-0.5-3.1-1-4.7
		c-0.7,0.9-0.7,2-0.7,3c0,0.7,0.2,1.6-1,1.7c-1.6-1.5-3.2-3-4.5-4.8c4.9-2.1,9.8-4.3,14.8-6.1c0.2,2.9-0.4,5.9,0.4,8.8
		C179.6,178.9,181.7,178.9,183.3,180z M171.2,178.7c0,0.1-0.1,0.1-0.1,0.2c0,0,0.1,0,0.1,0.1c0-0.1,0.1-0.1,0.1-0.2
		C171.3,178.7,171.2,178.7,171.2,178.7z"/>
	<path fill="#5D91C9" d="M183.3,180c-1.5-1.2-3.7-1.1-5.1-2.4c0.3-2.9-0.4-5.8,0.4-8.6c4.9,1.8,9.7,3.8,14.5,5.9c-2,2.1-4,4.2-6,6.4
		C185.7,181.2,184.7,180,183.3,180z"/>
	<path fill="#74CDDD" d="M178.6,169c-0.8,2.8-0.1,5.7-0.4,8.6c-0.8-2.9-0.2-5.9-0.4-8.8C178.1,168.7,178.4,168.7,178.6,169z"/>
	<path fill="#5D91C9" d="M162.6,205.5c1.7-1.7,3.5-3.3,5.1-5c0.9-0.9,1.7-1.2,2.8-0.5c0.2,0.1,0.5,0.2,0.8,0.4
		c4.3,2.3,8.5,3.4,13,0.3c0.3-0.2,0.8-0.2,1.2-0.2l0,0c0,0.1,0,0.2-0.1,0.4c-0.1,0.2-0.2,0.3-0.3,0.5c0,0,0.1,0.1,0.1,0.1
		c0.1-0.2,0.2-0.3,0.3-0.5c0.3,0,0.6-0.1,0.8-0.4c0.5,1.2,1.1,0.9,1.6,0c1.8,1.7,3.7,3.4,5.5,5.1c-4.7,2.4-9.7,4.2-14.6,6.3
		c-0.5,0.2-0.9,0.2-1.4,0c-4.8-2-9.7-4-14.5-6C162.8,205.9,162.7,205.7,162.6,205.5z"/>
	<path fill="#74CDDD" d="M193.4,205.6c-1.8-1.7-3.7-3.4-5.5-5.1c0.6-1,1.8-0.7,2.6-1.1c-0.8-0.7-2.3,0.4-2.6-1.3
		c0.1-0.1,0.2-0.2,0.3-0.3c0.3,0,0.8,0,0.8-0.4c0-0.4-0.4,0-0.7,0c0.2-2.3,1.4-4.4,2.1-6.5c0.3-0.8,1-0.7,1.6-0.7c1.8,0,3.6,0,5.5,0
		c0.7,0,1.4,0.2,1.9-0.5c0.1,0.2,0.3,0.5,0.3,0.7C197.6,195.5,195.5,200.6,193.4,205.6z"/>
	<path fill="#81AA61" d="M197.4,285.4c-1.4,1.4-2.8,2.8-4.2,4.2c-1.1,0-2.2-0.1-3.4-0.1c-8.9,0-17.7,0-26.6-0.1
		c1.6-2.2,3.1-4.6,5-6.6c1.3-1.5,0.5-2-0.4-3c-1-1.1-1.8-0.9-2.8,0.1c-1.9,1.9-4.2,3.5-6.4,5.1c0-7.9,0-15.9,0-23.8
		c0-1.4,0.5-2.3,2-2.3c0.2,0.6-0.2,1.4,0.4,1.9c0.8-0.3,0.5-1,0.6-1.4c0.3-1.4,0.8-0.3,1.2-0.1c0.3,0.6,0.8,0.6,1.3,0.8
		c1.7,0.7,3,1.5,2.9,3.8c-0.2,2.3,0.1,4.7,0,7c0,1.3,0.3,1.9,1.8,1.9c6.1-0.1,12.1-0.1,18.2,0c1.3,0,1.7-0.5,1.7-1.7
		c0-2.5,0.1-5.1,0-7.6c0-1.1,0.3-1.8,1.2-2.5c1.7-1.2,3.3-2.6,5-3.9c0.4-0.3,1-0.5,0.7-1.3c-0.6-1.4-3.8-3.4-5.4-3.4
		c-8.1,0-16.2-0.1-24.3,0c-1.3,0-2.3-0.3-3-1.5c9.7,0,19.4-0.1,29-0.1c0.7,0,1.2,0.1,1.7,0.6c1.2,1.3,2.4,2.5,3.7,3.8
		C197.2,265.1,197.3,275.3,197.4,285.4z M186.5,283.4c0.3-2.1,1.8-2.6,3.7-2.7c-1.5-0.5-3.2-0.2-3.4-1.9
		C183.9,280.2,186.5,281.8,186.5,283.4z"/>
	<path fill="#B8C86F" d="M163.1,250.6c0.6,1.2,1.6,1.5,3,1.5c8.1,0,16.2,0,24.3,0c1.7,0,4.8,2,5.4,3.4c0.3,0.8-0.2,1-0.7,1.3
		c-1.7,1.3-3.3,2.7-5,3.9c-0.9,0.6-1.3,1.4-1.2,2.5c0,2.5-0.1,5.1,0,7.6c0,1.2-0.3,1.8-1.7,1.7c-6.1-0.1-12.1-0.1-18.2,0
		c-1.4,0-1.8-0.5-1.8-1.9c0.1-2.3-0.2-4.7,0-7c0.2-2.2-1.2-3.1-2.9-3.8c-0.5-0.2-1.1-0.2-1.3-0.8c-0.2-0.9-0.1-1.5,1.1-1.4
		c0.9,0.1,1.7-0.1,2.7-0.8c-0.6-0.1-0.9-0.1-1.2-0.2c-3.1-0.2-3.2-0.3-3.8-3.3c-0.1-0.5-0.1-1-0.9-0.8
		C161.2,251.5,161.8,250.7,163.1,250.6z M171.6,259.8c-1.5-2.7-3,0.4-4.6-0.2c1.4,0.3,2.9,0.5,2.9,2.6
		C170.2,261,171.1,260.4,171.6,259.8z"/>
	<path fill="#DCE0DF" d="M160.8,252.6c0.7-0.2,0.8,0.3,0.9,0.8c0.6,3.1,0.7,3.1,3.8,3.3c0.3,0,0.7,0.1,1.2,0.2
		c-0.9,0.7-1.8,0.9-2.7,0.8c-1.2-0.1-1.3,0.5-1.1,1.4c-0.4-0.2-0.9-1.3-1.2,0.1c-0.1,0.5,0.2,1.1-0.6,1.4c-0.6-0.5-0.2-1.3-0.4-1.9
		c-0.3-1.4-1.4-1.2-2.4-1.1c-1-0.3-2.1,0.4-3-0.7c1.4-0.3,3.2,0.4,3.8-1.5c1.1,0.3,1.8,0.2,1.7-1.2
		C160.8,253.7,160.8,253.2,160.8,252.6L160.8,252.6z"/>
	<path fill="#D3B665" d="M158.3,257.7c1-0.1,2-0.3,2.4,1.1c-1.5,0-2,0.9-2,2.3c0,7.9,0,15.9,0,23.8c0,0.2,0,0.4,0,0.6
		c-0.8-2.1,0-4.2-0.4-6.3C158.3,272.1,158.3,264.9,158.3,257.7z"/>
	<path fill="#91743B" d="M197.4,285.4c-0.1-10.2-0.2-20.3,0.1-30.5c0.1,0.1,0.2,0.1,0.3,0.3c0,9.3,0,18.6,0,28
		C197.7,284,198,284.8,197.4,285.4z"/>
	<path fill="#B8C86F" d="M160.8,252.6c0,0.5,0,1.1,0,1.6c0.2,1.4-0.6,1.6-1.7,1.2C158,253.6,160.4,253.6,160.8,252.6z"/>
	<path fill="#DCE0DF" d="M179.5,93.7c0.6,1.6,2.1,2.4,3.1,3.6c2,2.2,2,2.6-0.2,4.7c-1.1,1-2,2.2-2.9,3.3c-1.1,1.4-2.1,1.1-3.1-0.1
		c-0.7-0.9-1.5-1.8-2.3-2.7c-0.6-0.7-1.3-1.2-2.1-0.2c-1.5,1.8-2-0.4-3-0.6c0.2-0.4,0.4-0.9,0.7-1.2c1.3-1.1,0.7-1.9-0.3-2.7
		c-0.5-0.4-1-0.8-1.5-1.1c-0.5-0.3-0.7-1.3-1.4-0.9c-0.5,0.3-0.5,1.1-0.5,1.7c0,0.7,0,1.4,0,2.3c-1.1-1.5,0-3.5-1.7-4.5
		c-0.7-1.7-2.3-0.4-3.3-1.1c0.4-0.6,1.1-0.6,1.7-0.6c1.8,0.1,2.6-0.6,2.6-2.4c0-0.7,0.3-1.5,0.4-2.3c0.1,0.2,0.2,0.2,0.2,0.3
		c0.1,5.4,1.2,4.4,4.8,4.5C173.6,93.6,176.5,93.7,179.5,93.7z"/>
	<path fill="#DCE0DF" d="M164.2,95.3c-0.1,0.1-0.3,0.3-0.4,0.4C163.9,95.5,164.1,95.4,164.2,95.3z"/>
	<path fill="#DCE0DF" d="M163.8,95.7c-0.1,0.1-0.3,0.3-0.4,0.4C163.5,96,163.7,95.8,163.8,95.7z"/>
	<path fill="#DCE0DF" d="M163.4,96.1c-0.1,0.1-0.3,0.3-0.4,0.4C163.1,96.4,163.2,96.3,163.4,96.1z"/>
	<path fill="#D3B665" d="M245.2,190.3c-0.1-0.6-0.1-1.2-0.2-1.7c0.1-2.4,0.1-4.8,0.2-7.1c3.2-0.1,5.2,1.1,5.2,4.7
		c0,0,0.1,0.1,0.5,0.3c-0.8-3.6,0.8-5.1,4.4-4.8c-1.4-1.1-2.7-0.2-3.8-1.3c-1.1-1.1-0.2-2.5-1.5-4.2c1.1,4.9-2,4.9-4.8,5.3
		c0-0.3,0-0.6-0.1-0.8c-0.6-3.2,0.3-5.4,3.6-6.5c1.3-0.4,2.3-1.5,3.5-2.2c0.6,0.2,1.4,0.3,1.7,1.1c0.5,1.4,0.7-0.5,1.2-0.1l0,0
		l-0.1,0c-0.1-1,0.6-0.9,1.2-1c-0.7-0.3-1.7-0.2-1.6-1.4c2-1.4,4.1-2.6,6.4-3.5c0,2.4,0.2,4.8-0.1,7.2c-0.3,2.9,0.7,4.7,3.2,5.8
		c1.3,0.6,2.4,1.4,3.6,2.1c1.1,0.7,1.9,0.6,2.8-0.4c1.7-1.9,3.7-3.5,5.6-5.1l0.1-0.1c0,8.6,0,17.2,0.1,25.8c0,1.6-0.4,2.5-1.9,3.3
		c-4.6,2.6-9,5.4-13.5,8.1c0-2.9,0-5.9,0-8.8c0.3-0.9,1.3-1.2,2-2c-2,0-1.6-1.6-2.1-2.6c-0.5,0.7,0,1.6-0.8,2.1
		c-1.8-1.1-3.6-2.2-5.5-3.1c-1.8-0.9-2.6-2.1-2.3-4.2c0.2-1.1,0-2.2,0-3.4c0.1-1.2-0.4-1.7-1.6-1.6
		C249,190.4,247.1,190.3,245.2,190.3z"/>
	<path fill="#C4944F" d="M261,205.1c0,2.9,0,5.9,0,8.8c-0.8,0.3-1.3-0.4-1.9-0.7c-4.7-2.8-9.3-5.7-14-8.5c-0.1-4.8-0.2-9.6,0.1-14.4
		c1.9,0,3.8,0,5.7,0c1.2,0,1.6,0.4,1.6,1.6c-0.1,1.1,0.1,2.3,0,3.4c-0.3,2,0.5,3.3,2.3,4.2c1.9,0.9,3.7,2.1,5.5,3.1
		c-0.2,0.8-1,0.3-1.6,0.8C259.6,203.7,260.5,204.2,261,205.1z"/>
	<path fill="#B8C86F" d="M158.7,285.6c0-0.2,0-0.4,0-0.6c2.2-1.6,4.5-3.1,6.4-5.1c1-1,1.7-1.2,2.8-0.1c0.9,1,1.7,1.6,0.4,3
		c-1.9,2-3.3,4.4-5,6.6c-0.2,0-0.5,0.1-0.7,0.1C161.3,288.2,160,286.9,158.7,285.6z"/>
	<path fill="#91743B" d="M162.6,289.6c0.2,0,0.5-0.1,0.7-0.1c8.8,0,17.7,0,26.6,0.1c1.1,0,2.2,0.1,3.4,0.1c-0.5,0.5-1.1,0.3-1.6,0.3
		c-9.1,0-18.2,0-27.3,0C163.7,290,163,290.3,162.6,289.6z"/>
	<path fill="#C4944F" d="M276.1,176.8c-2,1.6-3.9,3.2-5.6,5.1c-0.9,0.9-1.7,1.1-2.8,0.4c-1.2-0.7-2.3-1.5-3.6-2.1
		c-2.6-1.2-3.6-3-3.2-5.8c0.3-2.4,0.1-4.8,0.1-7.2c4.9,3,9.9,6,14.8,9C275.9,176.2,276,176.5,276.1,176.8z"/>
	<path fill="#DCE0DF" d="M245.2,181.5c2.8-0.4,5.8-0.5,4.8-5.3c1.3,1.7,0.3,3.1,1.5,4.2c1.1,1.1,2.5,0.2,3.8,1.3
		c-3.6-0.3-5.3,1.2-4.4,4.8c-0.4-0.2-0.5-0.3-0.5-0.3C250.4,182.6,248.4,181.3,245.2,181.5L245.2,181.5z"/>
	<path fill="#DCE0DF" d="M255,172.9c-0.4-0.3-0.6,1.5-1.2,0.1c-0.3-0.8-1-0.8-1.7-1.1c0.8-0.5,1.4-1.3,2.4-1.4
		c-0.1,1.1,0.9,1.1,1.6,1.4C255.6,172,254.8,171.9,255,172.9L255,172.9z"/>
	<path fill="#E5749D" d="M237.9,108.8c0-0.8,0.6-1.1,1-1.5c6.6-6.6,13.2-13.2,19.8-19.8c0.8-0.8,1.3-1.6,2.5-0.4
		c6.8,6.9,13.8,13.8,20.7,20.7c0.2,0.2,0.3,0.4,0.7,0.9c-3.5,0-6.7,0.2-9.9-0.1c-1.7-0.2-2.7-2-3.9-3.1c-3.1-2.9-5.9-6-8.8-9
		c-0.9-1-1.4,0-1.8,0.5c-3.3,3.8-7.2,7.2-10.7,10.9c-0.5,0.5-0.8,0.9-1.6,0.9C243.3,108.8,240.6,108.8,237.9,108.8z M255.2,97.3
		c0.4-1.3,1.7-2.6-0.1-4.1c0,1.2-1.1,1.1-1.7,2C254.8,95.3,255.2,96.1,255.2,97.3z"/>
	<path fill="#DCE0DF" d="M256,125.9c-0.4-3.7-0.7-4.5-5-4.6c2.8-0.3,5.5-0.8,5-3.3c-0.3,2.1,1.7,3.2,4.7,3.2
		C256.6,122,256.6,122,256,125.9z"/>
	<path fill="#DCE0DF" d="M262,128.2c-0.6,0.2-1.2,0.1-1.7,0.6c-0.8,0.9-1.2-0.9-2.1-0.6c-0.1,0.1-0.1-0.2,0.1-0.2
		c0.9,0.4,1.3-1.5,2-0.6C260.8,128.1,261.5,127.8,262,128.2z"/>
	<path fill="#775193" d="M249.1,279.3c0.5-1.2,1.6-1.2,2.7-1.2c6.6,0,13.2,0,19.8-0.1c4.1,2.6,8.1,5.2,12.2,7.8
		c-0.5,0.5-1.1,0.3-1.6,0.3c-14.2,0-28.3,0-42.5,0c-0.2,0-0.5,0-1.2,0c2.3-1.7,4.2-3,6-4.4c0.3-0.2,0.5-0.4,0.8-0.6l0,0
		c1.4-0.3,0.7,1.4,1.6,1.7c-0.1-2,0.6-3.1,2.7-3c0.5,0,0.3-0.3,0-0.4C249.4,279.3,249.3,279.3,249.1,279.3z M254.6,282.3
		L254.6,282.3L254.6,282.3c1.2-1.1,0-1.4-0.6-1.9c-0.3-0.3-0.3-0.7-0.5-1.2c-0.3,0.8-0.6,1.5-1.4,1.9c-0.1,0-0.6,0.3-0.2,0.3
		C253.1,281.1,253.1,283.6,254.6,282.3z"/>
	<path fill="#D2E8F1" d="M249.1,279.3c0.1,0,0.3,0,0.4,0.1c0.3,0.1,0.5,0.4,0,0.4c-2.1-0.1-2.8,1-2.7,3c-1-0.2-0.2-2-1.6-1.7
		c0.4-2-1.3-1-2-1.5c0.6-0.7,2.2,0.1,2-1.6l0,0c0.3,0,0.6,0.6,0.8,0c0.3-0.9,0.4-1.3,0.9-0.1C247.3,278.8,248.2,279.3,249.1,279.3z"
		/>
	<path fill="#D2E8F1" d="M245.3,281.1c-0.3,0.2-0.5,0.4-0.8,0.6C244.6,281.3,244.9,281.1,245.3,281.1z"/>
	<path fill="#D2E8F1" d="M248.4,277.6c0,0.1,0,0.1,0,0.2c0,0-0.1,0.1-0.1,0.1c-0.2,0-0.2-0.1,0-0.2
		C248.3,277.7,248.3,277.6,248.4,277.6z"/>
	<path fill="#D2E8F1" d="M245.3,278.1c-0.1-0.1-0.3-0.3-0.4-0.4l0,0C244.9,277.8,245.1,278,245.3,278.1L245.3,278.1z"/>
	<polygon fill="#D2E8F1" points="244.8,277.7 244.7,277.6 244.8,277.7 	"/>
	<path fill="#D2E8F1" d="M188,198.2c0.3,1.7,1.8,0.6,2.6,1.3c-0.9,0.4-2.1,0.1-2.6,1.1c-0.5,0.9-1.1,1.2-1.6,0
		c-0.3-1.6-1.8-0.4-2.7-1.3c2,0.3,3.1-0.6,3.4-2.4C187.8,197.1,187.3,198,188,198.2z"/>
	<path fill="#D2E8F1" d="M163.5,190.2c0.6-0.6,1.6-0.9,1.8-2.1c0,1.4,0.9,1.7,2,1.8c-0.8,0.3-0.9,1.1-1.4,1.5
		C165.1,191.1,164.3,190.6,163.5,190.2z"/>
	<path fill="#D2E8F1" d="M188.4,197.5c0.2,0,0.6-0.4,0.7,0c0,0.4-0.5,0.4-0.8,0.4C188.3,197.8,188.3,197.6,188.4,197.5z"/>
	<path fill="#5D91C9" d="M185.4,200.5c0-0.1,0.1-0.1,0.1-0.2C185.5,200.3,185.4,200.4,185.4,200.5L185.4,200.5z"/>
	<path fill="#DCE0DF" d="M167.5,179.7c1.2-0.1,0.9-1,1-1.7c0-1,0-2.1,0.7-3c0.5,1.6-0.5,3.4,1,4.7l0,0c0.1,0.7,0.6,0.8,1.2,0.9
		c1.3,0.1,2.6,0.3,4.4,0.6c-6.6,0.9-6.5,0.5-6.5,6.2c-0.1,0.1-0.3,0.2-0.4,0.4c-0.2-1.1-0.3-2.2-0.5-3.4c-0.2-0.7,0.6-1.8-0.8-2.1
		l0,0c-1.1-1.2-2.6-0.6-4-1c0.8-0.8,1.7-0.5,2.6-0.7C166.8,180.5,167.7,180.8,167.5,179.7z"/>
	<path fill="#D2E8F1" d="M168.4,184.3c0.2,1.1,0.3,2.2,0.5,3.4c-0.4,0.3-0.7,0.6-1.1,1c-0.3,0.3-0.7,0.5-1.1,0.2
		c-0.4-0.3-0.2-0.8,0-1.1C167.2,186.5,167,185,168.4,184.3z"/>
	<path fill="#DCE0DF" d="M166.3,183.5c0.1-0.1,0.2-0.2,0.3-0.3c0,0.1,0.1,0.1,0.1,0.2C166.6,183.4,166.5,183.5,166.3,183.5
		L166.3,183.5z"/>
	<polygon fill="#DCE0DF" points="166.3,183.5 166.2,183.6 166.3,183.5 	"/>
	<path fill="#DCE0DF" d="M167.6,182.2c0,0.1-0.1,0.1-0.1,0.2c0,0,0-0.1,0-0.1C167.5,182.3,167.6,182.3,167.6,182.2L167.6,182.2z"/>
	<path fill="#DCE0DF" d="M171.2,178.7c0.1,0,0.1,0,0.1,0.1c0,0.1,0,0.1-0.1,0.2c-0.1,0-0.1,0-0.1-0.1
		C171.1,178.8,171.1,178.8,171.2,178.7z"/>
	<path fill="#DCE0DF" d="M170.2,179.7c0-0.1,0.1-0.1,0.1-0.2C170.2,179.6,170.2,179.6,170.2,179.7L170.2,179.7z"/>
	<path fill="#69B8D8" d="M185.5,201c-0.1,0.2-0.2,0.3-0.3,0.5c-0.1,0-0.2-0.1-0.1-0.1c0.1-0.2,0.2-0.3,0.3-0.5L185.5,201z"/>
	<path fill="#D2E8F1" d="M186.5,283.4c0-1.7-2.6-3.3,0.2-4.6c0.3,1.7,2,1.4,3.4,1.9C188.3,280.8,186.8,281.4,186.5,283.4z"/>
	<path fill="#DCE0DF" d="M171.6,259.8c-0.6,0.7-1.5,1.2-1.7,2.4c0-2.1-1.4-2.3-2.9-2.6C168.6,260.2,170.2,257.1,171.6,259.8z"/>
	<path fill="#DCE0DF" d="M261,205.1c-0.5-0.9-1.4-1.5-2.4-1.8c0.5-0.4,1.4,0.1,1.6-0.8c0.7-0.4,0.3-1.3,0.8-2.1
		c0.5,1.1,0.1,2.7,2.1,2.6C262.2,203.9,261.2,204.2,261,205.1z"/>
	<polygon fill="#DCE0DF" points="255,172.9 255,172.9 255,172.9 	"/>
	<path fill="#DCE0DF" d="M255.2,97.3c0-1.2-0.4-2-1.7-2.2c0.5-0.9,1.7-0.8,1.7-2C256.9,94.7,255.6,95.9,255.2,97.3z"/>
	<path fill="#D2E8F1" d="M254.6,282.3c-1.4,1.3-1.5-1.3-2.7-1c-0.3,0.1,0.1-0.2,0.2-0.3c0.8-0.3,1.1-1.1,1.4-1.9
		c0.2,0.4,0.2,0.9,0.5,1.2C254.6,281,255.8,281.3,254.6,282.3L254.6,282.3z"/>
	<polygon fill="#D2E8F1" points="254.6,282.3 254.6,282.4 254.6,282.3 	"/>
</g>
</svg>
