<?xml version="1.0" encoding="utf-8"?>
<!-- Generator: Adobe Illustrator 18.1.1, SVG Export Plug-In . SVG Version: 6.00 Build 0)  -->
<!DOCTYPE svg PUBLIC "-//W3C//DTD SVG 1.1//EN" "http://www.w3.org/Graphics/SVG/1.1/DTD/svg11.dtd">
<svg version="1.1" id="Layer_1" xmlns="http://www.w3.org/2000/svg" xmlns:xlink="http://www.w3.org/1999/xlink" x="0px" y="0px"
	 viewBox="0 169 800 489.2" enable-background="new 0 169 800 489.2" xml:space="preserve">
<g>
	<path fill="none" stroke="#818181" stroke-width="2" d="M68.2,191c-31.6,1.8-57,26.8-59.6,58.2H8.4L7.6,570
		c0,33.8,26.2,61.4,59.6,63.6v0.2l655.2,1.4c35,0,63.6-28.2,63.6-63.4l0.8-320.6h-0.2c-2.4-32.8-29.8-58.6-63.2-58.6L68.2,191
		L68.2,191z"/>
	<circle fill="none" stroke="#818181" stroke-width="2" cx="36.6" cy="278.4" r="7"/>
	<path fill="none" stroke="#818181" stroke-width="2" d="M35.2,366.2c2,0,3.8,1.6,3.8,3.8v86c0,2-1.6,3.8-3.8,3.8l0,0
		c-2,0-3.8-1.6-3.8-3.8v-86C31.4,367.8,33.2,366.2,35.2,366.2L35.2,366.2z"/>
	<rect x="85.6" y="217.4" fill="#3892CC" width="620.8" height="389.8"/>
	<path fill="none" stroke="#818181" stroke-width="2" d="M724.6,380.2v8V434v8c0,5.8,4.8,10.6,10.6,10.6h14.4
		c5.8,0,10.6-4.8,10.6-10.6v-8v-45.8v-8c0-5.8-4.8-10.6-10.6-10.6h-14.4C729.4,369.6,724.6,374.4,724.6,380.2z"/>
	<rect x="735.2" y="517.4" fill="none" stroke="#818181" stroke-width="2" width="12.6" height="26.4"/>
	<rect x="735.2" y="278.4" fill="none" stroke="#818181" stroke-width="2" width="12.6" height="26.4"/>
	<g>
		<path fill="#FFFFFF" d="M436,417.8c-9-5.6-18.2-11.2-27.2-16.6l-39.4,57.4C391.6,444.8,413.6,431.4,436,417.8z"/>
		<path fill="#FFFFFF" d="M408.8,401.2c-14.2-8.6-28.4-17.4-42.6-26.2c0,28.6,0,56.8,0,85.6c1-0.6,2.2-1.4,3.2-2L408.8,401.2z"/>
	</g>
	<path fill="#FFFFFF" d="M662.4,562.4l-2.6,2.6c1.4,1.4,2.2,3.2,2.2,5.4c0,2-0.8,4-2.2,5.4l2.6,2.6c2-2,3.4-4.8,3.4-8
		C665.8,567.4,664.4,564.6,662.4,562.4z"/>
	<path fill="#FFFFFF" d="M673.2,570.6c0-5.2-2.2-10-5.6-13.4l-2.6,2.6c2.8,2.8,4.4,6.6,4.4,10.8s-1.6,8-4.4,10.8l2.6,2.6
		C671.2,580.4,673.2,575.8,673.2,570.6z"/>
	<path fill="#FFFFFF" d="M680.8,570.6c0-7.4-3-14-7.8-18.6l-2.6,2.6c4.2,4,6.6,9.8,6.6,16s-2.6,12-6.6,16l2.6,2.6
		C677.8,584.4,680.8,577.8,680.8,570.6z"/>
	<polygon fill="#FFFFFF" points="633.8,578 643.8,578 654.6,588 654.6,553 644,563 633.8,563 	"/>
</g>
</svg>
