<?xml version="1.0" encoding="utf-8"?>
<!-- Generator: Adobe Illustrator 18.1.1, SVG Export Plug-In . SVG Version: 6.00 Build 0)  -->
<!DOCTYPE svg PUBLIC "-//W3C//DTD SVG 1.1//EN" "http://www.w3.org/Graphics/SVG/1.1/DTD/svg11.dtd">
<svg version="1.1" id="Layer_1" xmlns="http://www.w3.org/2000/svg" xmlns:xlink="http://www.w3.org/1999/xlink" x="0px" y="0px"
	 viewBox="0 0 400 400" enable-background="new 0 0 400 400" xml:space="preserve">
<g>
	<path fill="#B9B9B9" d="M167.8,196.5c-52.9,0-96-43-96-95.7c-0.1-53.1,43.7-97,96.7-96.9c52.1,0.1,95.6,44.1,95.6,96.5
		C264.1,153.7,221.1,196.6,167.8,196.5z M90.3,101.2c0.1,43.3,34.5,77.7,77.7,77.6c43.1-0.1,77.5-34.7,77.5-78
		c0-43.1-34.7-78.1-77.5-78.1C124.6,22.6,90.2,57.4,90.3,101.2z"/>
	<path fill="#AC947D" d="M217.3,185.7c2.6-0.3,3.5,1.6,4.3,3.4c3.2,6.7,6.3,13.5,9.5,20.2c1.6,3.3,0.9,5.4-2.8,6.4
		c-1.9,0.5-3.8,1.1-5.6,2c-9,4.1-9,4.2-13.3-5.1c-2.2-4.8-4.5-9.5-6.8-14.2c-1.7-3.5-0.9-5.7,2.8-7.1
		C209.5,189.5,213.4,187.5,217.3,185.7z"/>
	<path fill="#C4C4C4" d="M138.2,49.1c0,0,55.9-42.7,88.8,66.9l-19.7,9.9C207.3,125.8,211.7,57.8,138.2,49.1z"/>
	<path fill="#927151" d="M237.5,282.2c15.1,34.3,30.1,68.7,45.2,103c3.4,7.7,7.7,9.5,15.8,7.3c3.3-0.9,6.3-2.3,9.1-4.2l-87.8-146.1
		C225.8,255.4,231.6,268.8,237.5,282.2z"/>
	<path fill="#764E24" d="M315.1,376.7c-0.5-1.3-1.2-3.4-2.1-5.4c-24.2-49.4-48.6-98.8-72.6-148.2c-3-6.1-7-7.4-12.8-5.3
		c-2.9,1-5.6,2.5-8.2,4.1c-4.5,2.8-5.9,6.3-3.4,11.6c1.3,2.9,2.6,5.8,3.9,8.7l87.8,146.1c1.4-1,2.7-2,3.9-3.2
		C313.5,382.9,314.9,380.5,315.1,376.7z"/>
</g>
</svg>
