<?xml version="1.0" encoding="utf-8"?>
<!-- Generator: Adobe Illustrator 18.1.1, SVG Export Plug-In . SVG Version: 6.00 Build 0)  -->
<!DOCTYPE svg PUBLIC "-//W3C//DTD SVG 1.1//EN" "http://www.w3.org/Graphics/SVG/1.1/DTD/svg11.dtd">
<svg version="1.1" id="Layer_1" xmlns="http://www.w3.org/2000/svg" xmlns:xlink="http://www.w3.org/1999/xlink" x="0px" y="0px"
	 viewBox="0 0 400 400" enable-background="new 0 0 400 400" xml:space="preserve">
<g>
	<g>
		<path fill="#434344" stroke="#434344" stroke-width="0.4877" stroke-miterlimit="10" d="M357.2,104.5H44
			c-11.7,0-23.8,14.7-23.8,26.4v228.2c0,11.7,12.1,24.6,23.8,24.6h313.2c11.7,0,22.5-12.9,22.5-24.6V130.9
			C379.7,119.2,368.9,104.5,357.2,104.5z M59.9,357.3c-8.8,0-15.9-7.1-15.9-15.9c0-8.8,7.1-15.9,15.9-15.9c8.8,0,15.9,7.1,15.9,15.9
			C75.9,350.2,68.7,357.3,59.9,357.3z M349.2,345.4h-13.3c-4.4,0-8-1.3-8-5.7s3.6-5.7,8-5.7h13.3c4.4,0,8,1.3,8,5.7
			S353.6,345.4,349.2,345.4z M46.9,307.2V127.4h310.2l0,179.7H46.9z"/>
		
			<line fill="#434344" stroke="#434344" stroke-width="1.463" stroke-linecap="round" stroke-linejoin="round" stroke-miterlimit="10" x1="265.3" y1="117.6" x2="157.4" y2="9.7"/>
		
			<line fill="#434344" stroke="#434344" stroke-width="1.463" stroke-linecap="round" stroke-linejoin="round" stroke-miterlimit="10" x1="265.3" y1="117.6" x2="339.3" y2="43.6"/>
	</g>
	<path fill="none" d="M46.9,307.2v-2.7C46.9,306.2,46.9,307.2,46.9,307.2z"/>
	<linearGradient id="SVGID_1_" gradientUnits="userSpaceOnUse" x1="46.9429" y1="215.9742" x2="357.1773" y2="215.9742">
		<stop  offset="0" style="stop-color:#B9A4CB"/>
		<stop  offset="0.986" style="stop-color:#A768A8"/>
	</linearGradient>
	<path fill="url(#SVGID_1_)" d="M357.2,127.4H46.9v177.1C47.5,282.8,61.9,134.3,357.2,127.4z"/>
	<path fill="#A768A8" d="M46.9,304.5v2.7h310.2V127.4C61.9,134.3,47.5,282.8,46.9,304.5z"/>
	<circle fill="#DCE0DF" cx="59.7" cy="340.8" r="15.6"/>
	<ellipse fill="#DCE0DF" cx="343" cy="339.6" rx="17" ry="6.9"/>
</g>
</svg>
