<svg xmlns="http://www.w3.org/2000/svg" viewBox="0 0 400 400" enable-background="new 0 0 400 400"><path fill="#B29A80" d="M210.6 150.4l32.2-33.8 32.7-24.3 4.5-13.8 25.9-9.2 1.8-7.9 12.4-4.1 14.1 4.2-.4 18.1-46 43.6-26.2 22.9-47 31.4z"/><path fill="#AE9770" d="M36.9 69.4l39.7-21.6 7.9-5 2.8 7.9-30.6 20.2H36.9z"/><path fill="#CAB094" d="M63.4 129.5l-1.1-47.1-5.6-11.6s45.9-23.7 50-27.1c0 0 46.4 27.5 53.9 27.5l-5.3 7-4.1 6.8v44.4H63.4z"/><path fill="#CCB485" d="M24.7 199.1l1.7-63.6 166.5 1.9 2.7 59.7-102.3 6.8z"/><path fill="#A38C79" d="M233.9 374.9s17-59.9.7-70.8c0 0-85-49.2-91-55.3s-36.5-34-55.3-37.2l-49.6-10.3v20.2l51.4 13.1s38.6 30.8 44.3 33.6l21.3 13.5s75.1 45.3 75.8 49.6c0 0 5.3-1.4 7.1 15.2l-4.7 28.4z"/><path fill="#B8926D" d="M158.1 214.2h-47.8s-6.8-3.8-23.2-7.2-34.4-7.7-34.4-7.7H158.8V214l-.7.2z"/><path fill="#4D3A44" d="M253.7 375.6l3.9-27.7s-.5-19.7-5.3-25c0 0-5.5 51.1-7.7 53.2h9l.1-.5z"/><path fill="#D7B27B" d="M38.8 221.6v80.2s68.8-4.4 109.6 32.3 41.5 42.7 41.5 42.7l45-.5 3.6-29.7 1.3-8.5s-5.9-13.3-73-52.7c0 0-58.6-34.4-73-50l-55-13.8z"/><path fill="#F1EBAF" d="M122.4 316.6s3.1-34.7 8-36.7c0 0 8.8-3.7 10 8.8 1.2 12.4-.4 38.8-.4 38.8l-17.6-10.9z"/><path fill="#472C1B" d="M124.8 318s2.2-31.6 8-34.3c0 0 2.2 0 3.9 4.9 1.6 4.9-.6 36.1-.6 36.1l-11.3-6.7z"/><path fill="#C38155" d="M38.5 208.4l-13.1.2v70.3h13.8v-70.6z"/><path fill="#C6A274" d="M25.4 208.6L1 197.9v56.5l24.4 24.5z"/><path fill="#6C4E54" d="M1 197.9l.5-4.6 22.8 10.9 14.5-.1-.3 4.3-13.1.2z"/><path fill="#E7D19A" d="M1.2 190.2l22.7 10.7 14.9.5v2.7l-14.5.1-22.8-10.9z"/><path fill="#B29A80" d="M385.5 375.2s1.6-80.9-35.7-94.6c0 0-97-37.7-115.8-56.9 0 0-35.3-40.8-75.8-42.4v33s40.1 9 52.2 23.2l29.1 30.9 11.1 4.3 47.9 31.7 6.9.7 47.3 18.9s20 15.3 23.7 51.3l9.1-.1z"/><path fill="#816D5F" d="M109.5 214l48.7.2s42.4 8.7 54.5 25.4c12.1 16.7 62.9 49.4 66 52 3.1 2.6 68.3 28.5 74.2 32.5 0 0 20.9 14.6 25.2 50.6l.1 1.6-125-.3s5.2-47.3-.8-53c0 0 3.6-17.7-22.9-30.6L138.8 240l-29.3-26z"/><path fill="#675844" d="M142.2 239.4l38.3-2.1-.3 26.5c0-.1-34-20.8-38-24.4z"/><path fill="#8E8162" d="M220.7 265.5l-40.1-28.2-.4 26.4 39.8 23.5z"/><path fill="#675844" d="M220 287.2l.7-21.7 3.9-2.6 4.5 1.5.3 27.9z"/><path fill="#D9D1B1" d="M136.6 234.8l44.6-2.1s34.7 19.4 47.9 31.7l-4.4-1.5-3.9 2.6-40.8-27-37.7.8-6.6-4.8.9.3z"/><path fill="#ECE6BB" d="M234.9 376.3h10.3s13.6-63.4 3.6-71.9c0 0-1.5-2-7.7-5.2 0 0-103.2-57.7-112.2-71 0 0-18-15.2-27-18l-57.5-12.5-5.6 3.7s45.3 9.3 53 13.2 11.5 2.5 50.6 36.6c0 0 55.7 34.4 65 39.5 9.2 5.1 41.4 13.1 32.5 50.3l-5 35.3z"/><path fill="#DFD2AB" d="M70.8 198.3l-1.3-35.7s2.9-24.3 25.4-22.9c0 0 20 1.6 20.9 22.7v36.9h-45v-1zM139 181.8v-21.6s3.8-14.4 16.5-13.4c0 0 13.4.9 14.4 13.6v17.4l-4.5-.3-7.1 3.7v1.9l-19.4-.2.1-1.1z"/><path fill="#141318" d="M144.8 182.7l.8-22.8s2.7-6.8 9.1-6.5c6.5.4 8.5 5.7 8.5 5.7v19.3l-5 2.7v1.9l-13.4-.3z"/><path fill="#0A0A0B" d="M80.6 198.6l1.1-36s2.8-11.2 13.1-9.7 10.2 10 10.2 10v36H80.3l.3-.3z"/><path fill="#A98A6D" d="M26.4 135.5l-22.3-4.4-1.7 57.3L23.9 199l.8.1z"/><path fill="#544023" d="M20.7 197.8l1.6-43.6s-2.2-7.6-3.4 4.2l-.6 38.6 2.4.8zM9.8 192.2l1.6-41.9s-2.2-7.3-3.4 4l-.7 37.1 2.5.8zM15.2 195.2l1.6-43.6s-2.2-7.6-3.4 4.2l-.7 38.6 2.5.8z"/><path fill="#F3F0DA" d="M.2 189.6l23.7 11.3 14.9.5 1.7-1.3-1.3-1.2-15.3.1-20.8-10.2-3.5.1z"/><path fill="#DDD1AA" d="M117.7 98.9v-6.6h4.9v7.6h1.8v-7.6h10.2v7.8h1.5v-7.8h7.2v7.1h2.3v-7.1h6.5v7.8h-34.4z"/><path fill="#978069" d="M152.1 114.1V94.2h4.6V98h1.1v-3.8h2.8v1.2h-1.7v18.7z"/><path fill="#B6A288" d="M4.1 124.5V96.2l4.4-5 4.2.6-2.2 4.9.8.1 2.6-5.1 6.1.1-2.5 6.2h.8l2.9-6.2 5.2-.1v37.8h-.6z"/><path fill="#271311" d="M103.7 65.3h2.1v6.1h-2.1zM108 65.3h2.1v6.1H108z"/><path fill="#66575D" d="M36.9 69.4l19.9 1.4 5.6 11.6 1.4 48.3-23 .3s5.3-44.1 3.3-50c-2.1-5.8-7-8.9-7-8.9v-2.7z"/><path fill="#453134" d="M4.1 131.1v-6.6l21.7 5h167v7.9l-166.4-1.9z"/><path fill="#DDD1AA" d="M25.8 129.5l.6-36.9s12.5-.7 12.4 0c-.1.7 0 6.7 0 6.7h1.7v-7.1h10.4V99h1.8v-6.8h10.1v22.3H71V93.9h15v5.7h1.5v-6h7.7V98h1.2v-4.6h6.2V98h2.3v-4.3h4.4v19.9h8.2V95.4h5v4.5h1.7v-6h10v6.2h1.7v-6.5h7.2v5.7h2.3v-7.1h6.4V114h6.8V95.4h9.6v5.2h1.3v-5.5h8.2v5h2v-5.2h4.5l6.7.7 1.6 33.9H160v-5h-6v5h-38.2v-6.2h-5.6v6.2H68.6v-6.2h-5.2v6.2H25.8z"/><path fill="#9C807A" d="M87.3 110.9v-4.3l2.5-1.8 2.8 1.5v4.6z"/><path fill="#B7A08E" d="M131.9 110.9v-4.1l2.5-2 3 2v5h-5.5z"/><path fill="#271311" d="M131.9 119.5h6v5.9h-6zM87.3 125.4V119h5.4l-.1 6.4zM153.3 124.5h6.7v5h-6.7z"/><path fill="#816B5E" d="M63.7 49.7l21.9-12.1s6.5.2 9.5 0-13 8.4-13 8.4l1.5 3.7-5.2 3.2-1.7-5-12.1 6.6-.9-4.8z"/><path fill="#918067" d="M55.9 65.3s-2.1-3.8 1.6-5.1c3.7-1.3 4.6 1.6 4.6 1.6l21.5-12.1L82 46s22.5-13.1 24.5-15.3c0 0-.1-1.8 1.5-2.4s2.1 1.3 2.1 1.3l.4 3.2S131.1 48 133.3 48v3s2.7.8 3.7.4c0 0 .1 1.9.8 2.3.7.4 17.8 10.7 21.9 7.5 0 0 3.7 4.6-.8 6.8l-52.3-27.5-46 25-4.6.5-.1-.7z"/><path fill="#DDD1AA" d="M56.7 70.9s39-17.3 50-27.1c0 0 42 28.5 53.9 27.5 0 0-.9-3.6-4.3-4.9-3.4-1.3-41.6-21.6-47.1-25.5l-2.3-2S60.7 68.3 52.4 65.3c0 0 .3 4 4.3 5.6z"/><path fill="#918067" d="M37.4 69.1s-3.1-5.4 0-8.9c0 0 5-.1 6.7 1.1 0 0 13.3-5.8 14.5-7.7 0 0 .8-1.8 0-2.8-.8-1-2.9-1.1-2.9-1.1S68.6 47.3 85 34.3c0 0 .7-4 2.3-4.3 1.6-.3 1.6 4.2 1.6 4.2l14.6-1.2-7.7 4.8-10.2-.2-21.9 12.1.9 4.7-27.2 14.7z"/><path fill="#91807A" d="M333.5 146.2l-2.9-84.8h-21.9V26.7h24.8V40h8.6V26.7h23.1v15h5.2v-15h13.3v119.5z"/><path fill="#534E56" d="M192.8 146.7s29-14.1 30.1-15.8c1.1-1.7 16.3-16.9 16.3-16.9s9.5-15 17.2-16.1c7.7-1.1 19.5-14.6 19.5-14.6s.4-12.9 4.7-12.7 28.1-9.2 28.1-9.2v8.2s-25.1 11.2-28.1 10.3l-.6 3.2-1.9 3.4s1.1 8.9-4.1 9.3c0 0-16.3 10.9-21 15.1 0 0-8.4 6.6-10.1 9.6 0 0-23.6 27.3-29.9 28.4 0 0-11.2 7.5-19.1 9.7l-1.1-11.9z"/><path fill="#EBE6D4" d="M192.8 148s30.4-13.8 30.9-16.3l19-20.6s8.2-10.7 21.8-15.9c0 0 11.4-9.3 12-10.7.5-1.4 0-11.3 3-13.5 0 0 12.2-1.5 29.3-9.5v-2.7l-34.2 11.8s-3.7 5.8-3.2 12.2c0 0-14.1 13.8-19.7 13.6s-31.8 30.4-31.8 30.4l-27 16.1v5.1z"/><path fill="#D9DCAC" d="M386.3 375.9l13.7.2s-8.5-79.3-24.3-89.4c-15.8-10.1-75.7-28.3-96.7-42.9s-33.7-16.8-56.4-42.7c0 0-18.4-18.9-57.3-23.6l-7.1 3.7s32.3 2.9 58.8 27.4 32.3 26.7 32.3 26.7l53.3 28.1s60.4 21.5 68.2 41.3c7.7 19.7 15.5 71.2 15.5 71.2z"/><path fill="#A38C79" d="M194 161.3l21.4-7.8v41.6l-19.8-10.2h-.6zM218.5 151.8l10.6-4.7v37.2l-6.9 6.9-2 1.9-1.4 1.5zM232.7 145.1l10.1-4.8v30.5L232.6 181zM247.3 138.4l8.5-5v22.7l-8.6 8.7zM260.4 130.8l8.6-7.2.8 11.9 3.7-2.1v-11.7l6.5-6.1v13l3.3-2.3v-13l7.2-6v10.8l2.1-1.6v-13.2L297 98v14.7l3.2-3.2V96.4l4.6-5.2V106l1.1-1.7V91.2l4.3-5.5V98l1.4-1V84.5l4.2-3.4v11.7l2.9-2.1V80.3l3-2.9v10.8l3.1-2.3v-10l6.1-3.8.5 14.4-60.5 63.6-51.4 48.2-23.9-19.3 64.8-36.2z"/><path fill="#D7B27B" d="M331.4 86.5s-7.7 7.4-17.2 14.7c-9.6 7.3-39.1 44.9-50.2 47.3-11.1 2.4-47.5 54.9-51.2 45.1l31.8 32.2s40.2-19.8 46.7-28.1 14.8-28.9 26-32.8c11.2-3.9 16.8-13.1 16.8-13.9s-2.7-64.5-2.7-64.5z"/><path fill="#ECDECE" d="M214.6 153.8l-4-3.4-17 5.7.4 5.8z"/><path fill="#A38C79" d="M218.5 151.8l-4.8-.8 11.3-5.6 4.1 1.7z"/><path fill="#ECDECE" d="M232.7 145.1l-3.6-1.8 8.6-4.7 5.1 1.7zM247.3 138.4l-4.5-1 7.9-5.3 5.1 1.3zM260.4 130.8l-4.6-.7 8.7-6.9 4.5.4zM272.8 121.8H269l7.4-7.4 3.6 1.2-6.5 6.1zM283.3 113.3H279l6-6.6 5.5.6zM292.6 103.3h-4.8l5.3-6.1 3.9.8zM300.2 96.4h-5.1l5.1-5.2h4.6zM311.6 84.5l-3.9-1 4.9-3.8 3.2 1.4zM318.7 80.3L315 79l4.7-3.7 2 2.1zM324.8 75.9h-3.1l1.6-3.2V61.4h7.3l.3 10.7z"/><path fill="#878079" d="M229.1 143.3l3.6 1.8-.1 13.3-3.5-2.8zM242.8 137.4l4.5 1-.1 11.8-4.4-2.2zM255.8 130.1l4.6.7v12l-4.6-1.4zM269 121.8l4.5-.1v11.7l-3.9-1.3zM279 113.3h4.3v12.1l-3.3-2.2zM287.8 103.3h4.8v11.8l-2.1-.7v-7.1l-2-.2-.7-.1zM295.1 96.4h5.1l.5 12.8-3.7-1.1V98l-1.9-.4zM318.7 90.7V80.3L315 79v1.7l.8.4V89zM321.7 75.9h3.1v10l-3.1-.4zM218.6 166.2l-3.2-2.4v-10.3l-.8.3-.9-.8v-2l4.8.8z"/><path fill="#E7E3BD" d="M280 83.1l27.8.6h2.7l-5.2 10.9-28-.7c.1 0-.3-7.5 2.7-10.8z"/><path fill="#211311" d="M215.4 168v-4.2l3.2 2.4zM229.1 155.6l3.5 2.8-3.5 1.9z"/><path fill="#564637" d="M242.8 148l4.4 2.2-4.4 2.5z"/><path fill="#A38C79" d="M255.8 141.4l4.6 1.4-4.6 2.6z"/><path fill="#564637" d="M269.6 132.1l3.9 1.3-3.7 2.1z"/><path fill="#4B443F" d="M280 123.2l3.3 2.2h.4l-.4.9-3.3 2.3zM290.5 114.4l2.8.7v.4l-2.8 2.6zM297 108.1l3.7 1.1-3.7 3.5zM304.8 102l1.1 2.3-1.1 1.7zM310.2 94.4h2.1v2l-2.1 1.6zM315.8 89l2.9 1.7-2.9 2.1zM321.7 85.5l3.1.4-3.1 2.3z"/><path fill="#ECDECE" d="M305.9 90.5l-3.4-.7 4.1-5.1 3.6 1-3.7 4.8z"/><path fill="#878079" d="M306.5 90.5l-4-.7v1.4h2.3V102l1.1 2.3zM311.6 84.5v9.9h-1.4v-8.7l-2.5-.7v-1.5z"/><path fill="#D8BD8A" d="M330.6 61.4h53.1v84.8h-50.2z"/><path fill="#685F71" d="M383.7 26.7v34.7l11.8 3.5v-32z"/><path fill="#756969" d="M383.7 146.2l11.8-5.9V64.9l-11.8-3.5z"/><path fill="#574941" d="M308.7 58.7l75-1.4 11.8 4.1v3.5l-11.8-3.5h-75zM318.4 32.5h4.9v5.1h-4.9zM318.4 44h4.9v5.1h-4.9zM349.7 32.5h4.9v5.1h-4.9zM349.7 44h4.9v5.1h-4.9zM374.6 32.5h3.2v5.1h-3.2zM374.6 44h3.2v5.1h-3.2z"/><path fill="#381C25" d="M335.3 53.6h4.9v5.1h-4.9zM365 53.1h4.9v5.1H365z"/></svg>