<svg xmlns="http://www.w3.org/2000/svg" viewBox="0 0 400 400" enable-background="new 0 0 400 400"><path fill="none" d="M96.2 276.3v15.4c1.5 1.2 3 2.5 4.6 3.7.1.1.4 0 1.1-.1 0-3.1-.5-6.3.1-9.3.7-3.2 1.3-6.3.8-9.7h-6.6zm4.3 15.5c-1.1-3.3-3.1-6.3-1.6-10 .5-1.1-.3-2.8.3-4.7 0 .9-.1 1.8-.1 2.6.5-.4.9-.7 1.4-1.1v13.2z"/><path fill="#020202" d="M99.2 277.1c-.6 2 .1 3.6-.3 4.7-1.5 3.7.6 6.8 1.6 10v-13.2c-.5.4-.9.7-1.4 1.1.1-.9.1-1.8.1-2.6z"/><path fill="none" d="M190.2 65.7c-.7 0-1.2-.1-1.9-.1-.1.8-.1 1.4-.1 2l.5.5c.5-.7.9-1.4 1.5-2.4zM187.6 85.1c.2 0 .4 0 .6-.1v-3c-.3 0-.7.1-1 .1.1 1 .2 2 .4 3zM167.2 117.9h5c.6-1.4 1.1-2.6 1.7-4.2H166c-1 2.1.1 3.2 1.2 4.2zM168.3 107.4c.7.6 1.3 1.1 1.9 1.6h1.1c-.5-3.4-1-6.7-1.5-10.2h-5.7c-.2 0-.4.4-.7.8 1.1.7 2.2 1.3 3.5 2.1.4 1.9.9 3.9 1.4 5.7zM170.2 109h-3.3v3.2h5.4c0-1.3 1.2-2.8-.9-3.2-.3.3-.5.6-.8.9-.1-.3-.2-.6-.4-.9zM191.3 62v5.5c.9-.6 1.5-1 2.2-1.5-.7-1.2-1.3-2.2-2.2-4zM219.1 119.1c1.5-3.2 2.4-5.2 3.6-7.6-1.4-.1-2.4-.2-3.6-.2v7.8z"/><path fill="#A9D4C0" d="M379.4 122.7H258.2c0-1.4-.1-2.7 0-4 .2-1 .8-1.9 1-2.9.1-.6-.1-1.4-.2-2.2h-4.7c-.9-1.4-1.6-2.4-2.3-3.3h-13.8l.7-.7c-1.3-.8-2.6-1.5-3.5-2 .7-2.1 1.2-3.6 1.7-4.8 1.8-.5 3.4-1 5.4-1.5-.5 2.9-2.7 4.5-2.4 6.9 0 .4.4.8.9 1.6 1-.9 1.8-1.6 2.1-1.8.6-3.3 1.1-5.9 1.6-8.4-1-.4-1.7-.7-2.3-.9.4-1.8 1.5-3.8 1-4.4-1.6-1.9-.7-3.9-1.1-6.2.7-.6 1.6-1.3 2.1-1.6.3-2.8.5-5.1.7-7.5-.8-.4-2.1-.9-3.1-1.3-3.7 2.8-6.4 6-7.1 10.3-.5 2.8-1.8 4.5-5.5 5.5-.5 0-2.2.2-4.9.4 1.7.7 2.3.9 3.1 1.3-2.2 5.2-.5 10.8-1.3 16.3h-4.5v-2.8c-.8-.3-1.3-.6-2.8-1.2 2.9-.2 4.6-.4 6.3-.5v-.8h-4c-.7-1.7-1.2-3-1.7-4.1 2.8-5.5.8-9.9-2.4-14.4 2-3.5 1.4-7.2 1.2-11h-4.2c-.6 1.4-1.3 2.9-1.9 4.4-2-.9-1.3-4.5-4.7-4.4-.2 1.1-.5 2.3-.8 4-1.3-1-2.2-1.7-3.1-2.3.6-1.7 1.1-3 1.6-4.3-1.1-.8-1.9-1.5-2.7-2-.8.6-1.3.9-2.1 1.4v-7.6c2.5-1 4.8-2.2 4.4-5.3-1.3-1.4-2.5-2.8-3.7-4.2 2.9-2.2 4.6-5.1 4.8-7.9h-2.5c-2.2.2-1 3.9-3.9 3.3-.2-1-.4-2.2-.7-3.3h-.5c-.2 1.5-.4 2.9-.6 4.4-.9-3.9-5-3.4-7-5.5 0 0-.2.2-.5.4v2.9l6.5 6.5-2.1 2.1c.1 1.6.1 3.3.2 5.1h2c0-.7.1-1.3.1-2.2.8.1 1.4.1 2.2.1-.7 1.1-1.2 1.9-1.7 2.7l-.6-.6c.8 1 1.5 2 2.2 3V73c-1.7 1.7-3.4 3.2-4.8 4.9-1.4 1.7-2.8 4-1.8 5.9 1.4 2.7.7 5.4 1 8.1 0 .3-.4.6-.8 1.1-.9-.6-1.7-1.2-2.7-1.9V78.9c-1.4-.4-2.7-.7-4.5-1.2 0 2.6.8 5.2-.2 6.5-1.6 2.1.1 4.5-1.2 6.1H170c-1.6-4.3-2.5-8.9-7-11.1-.6 0-1.3-.2-1.7 0-.6.4-1.1 1-1.8 1.7.5 3.5-1.5 7.9 3.4 10.1-1.5 6.1-2.9 12.3-1.9 18.8.8-.2 1.3-.3 2-.4-.4-2.4-.8-4.7-1.1-7 0-.2.5-.5 1-.9 1.2.9 2.4 1.8 3.7 2.8.7-.6 1.1-1 1.5-1.3 1.6 2.4 2.3 4.9.2 8.6-.4-1.1-.8-2.1-1.2-3.2l-2.6 2.6h-15c-.1 1.1-.2 2-.4 3.3h-5.8c.6 3.2 1 6 1.6 9.2H21.2c0 .1 0 .2.1.3h357.9c.1-.7.1-.9.2-1.1zM175.1 92.2c1.9-.1 3.7 0 5.7 0 .5 3.5 1 6.8 1.5 10.2 2.1.5.9 1.9.9 3.2h-5.4v-3.2h3.3c-.6-.5-1.2-1-1.9-1.6-.5-1.8-1-3.9-1.4-5.7-1.3-.8-2.3-1.4-3.5-2.1.4-.4.6-.8.8-.8zm8 19.1h-5c-1.2-1-2.2-2.2-1.2-4.2h7.9c-.6 1.5-1.1 2.8-1.7 4.2zm16-32.9c-.2 0-.4 0-.6.1-.1-1-.3-2-.4-3 .3 0 .7-.1 1-.1v3zm1.4-20.9c1.1 2 1.7 3.1 2.5 4.6-.8.5-1.5 1-2.5 1.7v-6.3zm29.5 54.9v-7.8c1.2.1 2.2.2 3.6.2-1.1 2.5-2.1 4.4-3.6 7.6z"/><path fill="#020202" d="M196.2 53.7h-.1z"/><path fill="#F2E2CC" d="M394.3 340.8l-11.6-147.4 6.1-9.6h-5.5l-.7-15.7 11.6-12.1 4.8-10.4h-25.2V132l5.1-8.8H198.8v92.1l1.2.6 18.7-.7c16.2-.7 9.8 10.9 9.8 10.9l.7 115.3c-5.5 9.6 4.8 9.8 4.8 9.8 31.4 3.6 27.3-5 27.3-5l-3.4-3.4-3.4-118.7c-.7-9.6 3.4-8.9 3.4-8.9h12.3c17.1-.7 13 7.5 13 7.5l2.7 115.3c-3.4.7-2.7 6.1-2.7 6.1 6.8 7.5 40.3 7 40.3 7 13 .9 2.7-9.1 2.7-9.1l-6.8-122.8c8.2-9.6 20.5.7 20.5.7l2 116c-4.8.7-4.8 9.6-4.8 9.6 44.4 10.2 62.1 3.4 62.1 3.4 1.3-4.7-4.9-8.1-4.9-8.1z"/><path fill="#F1E1CA" d="M5.2 340.8l11.6-147.4-6.1-9.6h5.5l.7-15.7-11.7-12-4.8-10.4h25.2V132l-5.1-8.8h180.2v92.1l-1.2.6-18.7-.7c-16.2-.7-9.8 10.9-9.8 10.9l-.7 115.3c5.5 9.6-4.8 9.8-4.8 9.8-31.4 3.6-27.3-5-27.3-5l3.4-3.4 3.4-118.7c.7-9.6-3.4-8.9-3.4-8.9h-12.3c-17.1-.7-13 7.5-13 7.5L113.6 338c3.4.7 2.7 6.1 2.7 6.1-6.8 7.5-40.3 7-40.3 7-13 .9-2.7-9.1-2.7-9.1l6.8-122.8c-8.2-9.6-20.5.7-20.5.7l-2 116c4.8.7 4.8 9.6 4.8 9.6C18.2 355.8.5 349 .5 349c-1.4-4.8 4.7-8.2 4.7-8.2z"/><path fill="#E7BD75" d="M25.7 131.6h118.2v13H25.7zM256.7 132.3h118.2v13H256.7zM43.3 349.3l9.5-139h27.9l-.4 9s-6.2-4.1-20.5.7l-2 116s11 8.2 4.8 9.6-19.3 3.7-19.3 3.7zM145.1 224.1v-13.8h-34.5l-7.1 139s23.4-2.2 10.2-11.2l2.7-113.9s-.5-8.7 7.9-8.8c8.3-.1 14.1-.1 14.1-.1s7-2.1 6.7 8.8zM159.7 351.9l7.3-141.5h32.5l.2 5.6-18.7-.7s-13.7.6-9.8 10.9l-.7 115.3c-.1 0 6.9 11.3-10.8 10.4zM355.7 349.3l-9.5-139h-27.9l.4 9s6.2-4.1 20.5.7l2 116s-11 8.2-4.8 9.6 19.3 3.7 19.3 3.7zM254.3 224v-13.8h34.5l7.1 139s-23.4-2.2-10.2-11.2L283 224.1s.5-8.7-7.9-8.8c-8.3-.1-14.1-.1-14.1-.1s-7.1-2.1-6.7 8.8zM238.8 351.9l-7.3-141.5H199l-.2 5.6 18.7-.7s13.7.6 9.8 10.9l.7 115.3c.1 0-6.9 11.3 10.8 10.4z"/><path fill="none" stroke="#E7BD75" stroke-width="11" stroke-miterlimit="10" d="M16.8 193.4h365.9"/><path fill="#E7BD75" d="M16.8 169.2H383v13H16.8z"/><path fill="#E9D0AD" d="M144.4 122.9h115v46.3h-115z"/><path fill="#284841" stroke="#409482" stroke-width="2" stroke-miterlimit="10" d="M149.3 113.7h105"/><path fill="#409482" stroke="#3290CF" stroke-miterlimit="10" d="M144.5 119.1h115v3.6h-115z"/><path fill="#E7BD75" d="M143.9 127.8h117.2v4.1H143.9z"/></svg>