<svg xmlns="http://www.w3.org/2000/svg" viewBox="0 0 400 400" enable-background="new 0 0 400 400"><path fill="#EBE6E1" d="M123.4 117.7s11.1-56 78.1-59.2 78.9 67 78.9 67l-157-7.8z"/><path fill="#C6C6C7" d="M118.8 161.5s-2.3-34.1 4.7-48.9c7-14.8 121.4-42.4 157.2 9.2 0 0 7 15.7 3.1 39.7L233 141.2l-66.9 11.4-31.4 12.4h-14.9l-1-3.5z"/><path fill="#898E94" d="M54.7 302v-2.8h3l12.5-134L93.4 155v14.3l65-26.8v-16.7l39.3-19V302z"/><path fill="#EEE9E5" d="M197.9 106.8l51.8 23.2v19.7l59 20.2v-13.1l19.7 7.8 15.5 132.9h-146z"/><path fill="#728088" d="M93.3 170.3l24.4-10.2-24.4-5.1z"/><path fill="#B9ADA5" d="M283.6 160.4l25.2 11.8v-14.5z"/><path fill="#AA998A" d="M249.5 149.3v-16.2s6.5-7.9 10.5 2.1v17.7l-10.5-3.6zM262.2 153.7v-17.8s6.1-4.4 8.3 4.1v16.5l-8.3-2.8zM272.3 155.9V140s5.9-3 5.6 7.9V159l-5.6-1.9v-1.2z"/><path fill="#525559" d="M141.9 149.7l8.8-4.1v-12.3s-1.6-9-8.8-1.7v18.1zM139.1 149.7l-6.9 4.7v-16.3s-.9-7.7 6.9-4.9v16.5zM129 154.4l-5.5 2.4s-1.4-25.1 5.5-18.7v16.3z"/><path fill="#7C473E" d="M268.4 297.9h24.3c-.6-11-5.1-81-13.9-92.4-9.6 12.1-10.4 92.4-10.4 92.4z"/><path fill="#2E1413" d="M279.9 204.9c-.5 0-.8.3-.8.3-.1.1-.2.2-.3.4 8.8 11.4 13.3 81.4 13.9 92.4h2.4c-.9-16.4-4.9-77-15.2-93.1z"/><path fill="#856C66" d="M303.9 297.9c-11.1-87.3-21.1-93.3-23.9-93.1 10.3 16.2 14.3 76.7 15.2 93.1h8.7z"/><path fill="#15100D" d="M269.9 258.8s5.1 17 4.6 22.7c-.5 5.7 1.4-21.3 5.5-20.2 4 1.1 4.3 20.9 4 17.2s3.6-16.6 5.9-16.5c2.4.1 2.8 35.9 2.8 35.9h-24.3l1.5-39.1z"/><path fill="#100D0D" d="M122.5 206.2c-7.9 8.1-17.4 85.4-18.6 95.9h28.8c0-.1 2.2-77.7-10.2-95.9z"/><path fill="#46423A" d="M122.5 206.2c-.1-.1-.1-.2-.2-.2 0 0-9.4-11.8-21.1 96.1h2.7c1.2-10.5 10.7-87.9 18.6-95.9z"/><path fill="#EDDCD1" d="M197.9 297.5l-.2 4.5h166.2v-4.1z"/><path fill="#55565E" d="M38.2 302h159.5v3.6H38.2z"/><path fill="#4C4D4E" d="M197.7 305.6v9.9H-.8l22.9-9.9z"/><path fill="#E7D7CA" d="M197.7 302h186v3.6h-186z"/><path fill="#ECDED0" d="M197.7 315.5v-9.9h186l14.2 9.9z"/></svg>