<svg xmlns="http://www.w3.org/2000/svg" viewBox="0 0 400 400" enable-background="new 0 0 400 400"><g fill="#C22026"><path d="M195.6 54.4l15.2 3-4-5.1zM116.1 38.6v20.8l-3.5 3.2v304.3h5.9l-2-297.7 79.1-14.8zM206.8 52.3l1.2-29.5h9.5l1.8-4.9C154.8-3.7 116.1 38.6 116.1 38.6l79.4 15.8 11.3-2.1zM210.8 57.4l13.4-34.6h-6.6l-10.8 29.5zM206.8 52.3l10.8-29.5H208z"/></g><path fill="#DE1E31" d="M208.2 54.5L118.8 71l2.3 295.9 87.1 15s22.5 3.8 26.3-2.3l48.8-24-2.9-287-2.8-.7.7-20.7s-27.2-45.6-58.5-29.7l-11.6 37z"/><path fill="#F6F1D5" d="M233.8 70.1l3.7 271.8 37.5-254z"/><path fill="#FEDFBD" d="M237.5 341.9l37.5-14.6V87.9z"/><path fill="#F6F1D5" d="M127.4 82.9v251l71.5-262.3z"/><path fill="#FEDFBD" d="M198.9 71.6l-71.5 262.3 73.1 6.5z"/><path fill="#DEEED6" d="M128 145.5"/><path fill="#C22026" d="M112.9 368.7v5.7l96.2 23.4s21.1 6.8 34.2-4.6l43.4-26.8v-10.3L230.8 383s-12.3 5.4-29.7 0l-88.2-14.3zM109.5 30.9s35.1-42.1 120.3-28.1c0 0 32.1-.5 48.6 38.1l-1 3.9s-25.8-50.1-58.5-29.7c0 0-50.4-29.1-103.3 20.7l-6.1-4.9z"/><path fill="none" stroke="#DE1E31" stroke-width="2" stroke-miterlimit="10" d="M137.4 76.7v269.2M189.6 64.8v285.7M122.5 111.2l84.5-9.1M122.5 142.3l90.1-6.1M122.5 174.6l90.1-4.3M122.5 207.6l90.1-3M124.7 237.9l86.5 2.8M123.2 270.3l85.2 3.5M124 303.3l87.2 5.7M243.6 70.2v290.1M270.1 76.7v269.2M227.3 102.1l51.2 15.5M227.3 136.2l51.2 9.3M230.2 170.3l48.3 4.3M233.3 206.1l45.2 1.5M235.6 236.9h42.9M230.2 273.8l48.3-8.5M233.3 309l45.2-12.7"/><path fill="#F6F1D5" d="M224.6 44.8l2.7-22.4 44.4 24.8v17.6zM124.7 57V40.2l76.4-14.8v15.8z"/><path d="M254 45.2c.8.4 1.6.8 2.4 1.1.1 0 .2-.3.1-.5-.2-1-.3-2-.5-3-.1-.4-.4-.8-.6-1.2.5.2 1 .5 1.5.8v.1h-.2c-.2-.1-.3.2-.2.7.4 2.7.9 5.5 1.4 8.4.2 1.1.5 1.1.8 1.6-.6-.2-1.1-.5-1.7-.7v-.2c.1 0 .2.1.3 0 .1-.2.2-.4.1-.7-.2-1.5-.5-2.9-.7-4.5-.8-.4-1.7-.8-2.5-1.2.2 1.6.4 3.2.7 4.8.1.3.4.7.6 1.1-.6-.2-1.2-.5-1.8-.7.8.3.4-1.3.3-2.5-.3-2-.6-4-.8-5.9-.2-1.8-.2-1.8-1-2.8.6.3 1.2.6 1.7.9-.6-.2-.3 1-.2 1.9.1.8.2 1.6.3 2.5zM264.5 46.2c.4.2.8.4 1.1.6-.4-.1-.1 1 .1 2 .6 2.6 1.2 5.3 1.8 8.1-.2.1-.4-.3-.7-.9-1.2-2.8-2.4-5.6-3.6-8.3-.1-.3-.2-.5-.4-1 .1.4.1.6.1.8.4 1.8.8 3.7 1.2 5.6.4 1.7.4 1.7 1 2.7-.5-.2-.8-.3-1.2-.5.3-.4.4-.4 0-2-.4-2.2-.9-4.3-1.3-6.3-.2-1-.4-1.7-.9-2 .4-.3.8.2 1.3 1.3l3.3 7.5c.2.4.3.7.6 1.3-.2-1.1-.4-1.9-.6-2.7-.3-1.5-.7-2.9-1-4.4-.2-.8-.3-1.3-.7-1.5.1.1 0-.1-.1-.3zM261.3 54.4c-1.3-.5-2.5-3.1-3.1-6.7-.6-3.3-.1-4.9 1.2-4.3 1.2.6 2.3 2.9 2.9 5.9.7 3.4.3 5.6-1 5.1zm-2.6-6.9c-.1 0-.1 0 0 0 .3 1.3.6 2.7 1.1 3.9.6 1.8 1.3 2.6 1.9 2.6.6 0 .7-.9.6-2.5-.1-1-.3-2.1-.6-3.1-.6-2.6-1.5-4.3-2.4-4.6-.9-.2-1.1 1.1-.6 3.7zM244.5 47.1c.9.6.7-.7.6-1.8-.2-2.6-.4-5.1-.6-7.6-.1-.9-.2-1.5-.7-1.7 0 0-.1-.2-.3-.4 1.4.7 2.6 1.3 3.9 2 0 .7.1 1.4.1 2.1h-.1c0-.2-.1-.4-.1-.5-.1-.8-.3-1.2-.6-1.4-.4-.2-.9-.5-1.3-.7-.2-.1-.3.1-.3.5.1 1 .1 2.1.3 3.2 0 .3.2.7.4.9.2.2.5.3.7.4.7.3.7.3.8-1.1.1 1.2.2 2.3.3 3.6-.2-.6-.3-1.4-.5-1.5-.5-.4-.9-.5-1.4-.7-.1 0-.1.3-.1.5l.3 3.9c0 .3.3.8.4.9.4.3.9.4 1.3.6.5.2.8.1.7-1.2v-.6s.1 0 .1.1c.1.8.2 1.6.2 2.4 0 .2-.3.3-.4.2-.9-.4-1.8-.8-2.8-1.2-.3-.1-.5-.2-.8-.3 0-.3 0-.4-.1-.6zM268.4 57.1c.4 0 .2-.8 0-1.7-.5-2.2-1-4.4-1.5-6.5-.2-.7-.4-1.5-.7-1.6 0 0-.1-.1-.2-.3.9.4 1.7.8 2.5 1.3.1.7.3 1.3.4 1.9l-.1-.1c-.2-1-.5-1.4-.8-1.6-.3-.1-.6-.3-.9-.5.3 1.2.6 2.4.8 3.6 0 .2.2.5.3.5.2.1.3.2.5.3.4.2.4.2.3-1 .2 1 .5 2 .7 3.1l-.1-.1c-.2-1.1-.5-1.4-.8-1.5-.2-.1-.4-.2-.7-.3.3 1.4.6 2.7 1 4 0 .2.2.5.3.6.3.2.6.2.9.4.3.2.4-.1.2-1.1 0-.2-.1-.4-.1-.6l.1.1c.2.7.3 1.4.5 2.3-1-.5-1.8-.9-2.6-1.2zM237.7 40.1c-.2-.6-.3-1.5-.5-1.6-.6-.4-1.1-.6-1.7-.8-.1 0-.1.3-.1.6v4c0 .6.1 1 .4 1.1.5.2 1.1.4 1.6.7.5.3.9 0 .9-1.2 0-.3.1-.5.1-.7l.1.1v2.9c-1.6-.6-3.2-1.3-4.8-2 1 .1.8-1.5.8-2.7V33c0-.9-.1-1.5-.6-1.7-.1 0-.1-.2-.3-.5 1.6.8 3.1 1.6 4.6 2.3 0 .7 0 1.4-.1 2.2l-.1-.1c0-1.3-.4-1.9-1-2.2-.5-.3-1-.5-1.6-.8v4.1c0 .3.2.8.4.9.3.3.6.3.9.5.8.3.8.3 1-1.1-.1 1-.1 2.2 0 3.5zM249.4 49.4c.6-.4.6-.4.4-2.2-.2-2.3-.5-4.5-.7-6.7-.2-1.6-.2-1.6-.9-2.6l1.8.9c.4.2.8.4 1.1.7.7.7 1.2 2.2 1.2 3.7-.1 1.5-.9 2.1-1.6 1.2 0 0-.1-.2-.2-.5.2.1.4.2.5.2.6.2.8-.5.7-1.8-.1-1.2-.5-2.2-1.1-2.8l-.2-.2c-1-.5-.9-.3-.7 1.6.2 2 .5 4 .7 6.1.2 2 .2 2 1.1 3.1-.8-.2-1.5-.5-2.1-.7zM227.8 30.1c0-.8.1-1.6.2-2.5 1.8.9 3.5 1.8 5.3 2.7 0 .8-.1 1.6-.1 2.4h-.1c0-.1 0-.2-.1-.3-.1-.6-.1-1.5-.2-1.6-.4-.5-.9-.7-1.4-.9-.1 0-.2.4-.2.6-.1 3-.2 6.3-.3 9.6 0 .9.1 1.4.6 1.6.1 0 .2.2.3.4-.9-.4-1.9-.8-3-1.2 1.1-.3 1.2-.3 1.3-2.4.1-2.7.2-5.4.3-7.9.1-1.3 0-1.3-.7-1.7-.1 0-.2-.1-.2-.1-.9-.4-.9-.4-1.1 1 0 .2-.1.3-.1.4-.4 0-.5-.1-.5-.1zM239 33.2c.7.4 1.4.7 2.1 1.1v.2c-.7-.1-.7-.1-.6 1.4.1 2.6.3 5.4.3 8.2 0 1 .2 1.4.7 1.5.1 0 .2.1.4.1.5.1.9.3 1.4.4.6.1.2-1.6.6-2.2 0 1.1.1 2 0 2.9 0 .2-.3.3-.5.2-.9-.4-1.8-.8-2.8-1.2-.3-.1-.5-.2-.7-.3.1-.7.3-1.4.2-2.1-.1-2.8-.2-5.5-.3-8.1 0-1.1-.3-1.8-.9-1.9 0 0 .1-.1.1-.2zM157.9 41.5c1.6-.3 3.1-.6 4.6-.9.2 0 .5-.5.5-.7.1-.9.2-1.9.2-2.7 0-.4-.5-.5-.8-.7 1-.2 2.1-.5 3.3-.7v.1c-.2.1-.3.2-.5.2-.5.1-.7.5-.8 1-.3 2.5-.5 5-.8 7.5-.1.9.6.7 1 .9-1.2.2-2.3.4-3.4.6V46c.2-.1.4-.1.5-.2.2-.2.6-.5.6-.7.2-1.3.3-2.5.4-3.8-1.6.3-3.3.6-4.9 1-.1 1.3-.3 2.6-.4 3.9 0 .2.5.3.8.5-1 .2-2.1.4-3.1.5 1.4-.3 1.2-1.4 1.3-2.3.2-1.7.4-3.3.5-5 .2-1.6.2-1.6-.9-1.9 1.1-.3 2.2-.5 3.2-.7-1.2.4-1.1 1.3-1.2 2.2.1.5 0 1.2-.1 2zM185.9 31.2c1.4-.3 2.6-.6 3.8-.8-1.7.6-1.5 1.8-1.7 2.8-.3 2.9-.7 5.7-1 8.6-.8.4-1.3.1-1.7-.4-1.8-2.2-3.5-4.4-5.2-6.5-.2-.2-.4-.4-.6-.7-.1.4-.2.7-.2.9l-.6 5.7c-.2 1.7-.1 1.7 1.2 2.1-1.3.2-2.3.4-3.4.6 1.3-.8 1.3-.8 1.5-2.3.2-2.1.4-4.2.7-6.3.1-1 .1-1.8-1.2-1.5 1.5-.9 2.6-.8 3.3.1 1.6 2 3.2 3.9 4.8 5.9.2.3.5.5 1 1 .1-1.2.2-2 .3-2.9.2-1.6.3-3.2.5-4.8.1-.9 0-1.5-1-1.2-.1 0-.2-.2-.5-.3zM170.1 44.8c-2.9.5-4.4-1.2-4-4.3.4-3.1 2.5-5.5 5.6-6.2 3.1-.7 4.9.8 4.6 3.9-.5 3.2-3.1 6-6.2 6.6zm-2.8-5c-.1 0-.1.1-.2.1.2 1 .3 2.2.7 3.1.6 1.3 1.9 1.5 3.4 1.1 1.5-.5 2.6-1.6 3-3.2.3-1 .5-2.1.5-3.1 0-2.5-1.5-3.6-3.9-2.8-1.9.5-3.3 2.3-3.5 4.8zM142.3 49.1c1 0 1-.9 1.1-1.6.2-1.8.4-3.7.6-5.5.1-.7 0-1.1-.6-1-.1 0-.1-.1-.3-.2 1.9-.4 3.6-.8 5.5-1.2l-.3 1.8s-.1 0-.1.1c0-.1-.1-.2-.1-.4.1-.7-.2-.8-.7-.8-.6.1-1.2.3-1.8.4-.3.1-.5.3-.5.7l-.3 2.4c0 .2.2.4.4.5.3 0 .6-.1.9-.1 1-.2 1-.2 1.4-1.4l-.3 2.7c-.1-.3-.2-.9-.4-.9-.6 0-1.3.2-1.9.3-.1 0-.2.3-.3.5l-.3 2.7c0 .2.2.4.4.4.6 0 1.1-.2 1.7-.2.6-.1 1.1-.4 1.3-1.3 0-.1.1-.3.2-.5h.2c-.1.6-.1 1.2-.3 1.8 0 .2-.5.3-.7.4-1.2.2-2.4.4-3.6.5-.3 0-.6.1-.9.2l-.3-.3zM189.9 41.2c1.3-.4 1.5-1.3 1.6-2.2.3-2.4.6-4.9.8-7.3.1-.9.1-1.7-1.1-1.4-.1 0-.2-.1-.3-.2 3.1-.7 6.1-1.4 9.3-2.1-.2.9-.4 1.7-.6 2.5-.2 0-.3 0-.3-.1.3-1.3-.5-1.5-1.7-1.3-1.1.3-2.2.5-3.5.8-.2 1.5-.3 2.8-.5 4.2 0 .2.3.4.6.4.5 0 1.1-.2 1.7-.3 1.7-.4 1.7-.4 2.4-2-.1 1.2-.3 2.4-.4 3.6h-.2c.2-1.3-.5-1.4-1.7-1.2-.8.2-1.5.3-2.5.5-.2 1.6-.4 3-.5 4.4 0 .2.4.4.6.4 1-.1 2.1-.4 3.2-.5 1.1-.1 1.8-.6 2-1.7 0-.2.2-.5.3-.7h.3c-.2.8-.3 1.7-.5 2.6-3.2.6-6.2 1.1-9 1.6zM135.2 47.6c-.1-.3-.2-.8-.3-.8-.5 0-1.1.2-1.7.3-.1 0-.2.3-.2.4-.1.8-.2 1.7-.3 2.5 0 .4.1.5.3.5l1.5-.3c.5-.1.9-.4 1-1.1 0-.2.1-.3.2-.5h.1c-.1.6-.2 1.1-.3 1.8-1.5.3-3 .5-4.5.8.9-.3.8-1.2.9-1.9.2-1.6.3-3.2.5-4.9.1-.6 0-1-.5-.9-.1 0-.1-.1-.3-.2 1.6-.4 3.1-.7 4.7-1-.1.6-.2 1.1-.3 1.7h-.1c.1-1-.3-1.1-.9-1-.5.1-1 .2-1.7.4-.1 1-.2 1.9-.3 2.8 0 .2.2.4.3.4.3 0 .6-.1.8-.1.8-.2.8-.2 1.2-1.3.1.8 0 1.6-.1 2.4zM148.5 48.2c1-.6 1-.6 1.2-2 .2-1.7.4-3.5.6-5.2.1-1.4.1-1.4-.8-1.7 1-.2 1.9-.4 2.9-.6.6-.1 1.3-.3 1.9-.3 1.2 0 1.6 1.2.9 2.6-.6 1.4-2.2 2.6-3.3 2.4-.1 0-.1-.1-.2-.3.4-.1.6-.1.9-.2.9-.2 1.6-1 1.8-2.2.2-1-.2-1.7-1.1-1.8h-.3c-1.7.4-1.6.5-1.8 2.1-.2 1.6-.4 3.2-.5 4.9-.2 1.5-.2 1.5 1 1.8-1.2.2-2.2.3-3.2.5zM126.7 46c.1-.5.1-1 .2-1.6 1.5-.3 3-.7 4.6-1-.1.6-.2 1.1-.2 1.7l-.1.1V45c0-.3 0-.9-.1-1-.4-.1-.8.1-1.3.2-.1 0-.2.3-.2.5l-.6 6c-.1.5.1.7.4.6.1 0 .1 0 .2.2-.7.1-1.5.2-2.3.4.9-.6.9-.6 1-1.8.2-1.6.3-3.2.5-4.9.1-.9.1-.9-.6-.7h-.2c-.7.2-.7.2-1 1.2l-.3.3c.1 0 0 0 0 0zM137.4 42c.8-.2 1.6-.4 2.5-.6 0 .1 0 .2-.1.2-.8.4-.8.4-1 1.5l-.6 5.7c-.1.7.1.8.6.7.1 0 .3 0 .4-.1.5-.1 1.1-.2 1.6-.4.8-.2.5-1.2 1.1-1.9-.1.8-.2 1.4-.4 2-.1.2-.5.3-.7.4-1 .2-2.1.3-3.1.5-.3 0-.6.1-.7.1.2-.5.4-1 .5-1.5.2-1.9.4-3.7.6-5.6.1-.8-.1-1.2-.9-.9.1.1.2 0 .2-.1z"/></svg>