<svg xmlns="http://www.w3.org/2000/svg" viewBox="0 0 400 400" enable-background="new 0 0 400 400"><path fill="#B6E4E4" d="M244.7 281.8s-1.2-41.7-1.4-52.1c-.3-10.4-5.8-40.7-5.8-40.7l1-1.4-.6-45.1s-9.6-24.2-19.7-27-26.6-7.9-26.6-7.9l-1.1-.1v-6.7l-.7-2.3-3.6-5s-4.3-6.4-5.7-6.8-6.7 14-6.7 14 .4 17.4.7 18.4-.2 6.7.3 8.7-.3 9 1.6 14.9c0 0 .7 6.9 5.1 11.4 0 0-12.1 10.3-.6 52.5 0 0 3.4 7.6 1.7 10.5 0 0-11.3 7.7-7.4 52.7 0 0-4.7 3.7-3.9 9.1 0 0-3.2 4.1-5.1 2.8l78.5.1zM159.1 315h100.5v10.9H159.1z"/><path fill="#019B8D" d="M259.4 320.8v73.7H158.5v-73.7h100.9zm-55.8 26.5h13.9V326h-13.9v21.3zm-20.2-21.4v21.4h13.9v-21.4h-13.9zm54.3 21.4V326H224v21.3h13.7zM186.2 269.3c1.5-.7 3-1.5 4.7-2.3.4 1 .8 1.7 1.2 2.6 2-2.9 3.8-5.8 5.7-8.6.3.1.5.2.8.3-.8 3.8-1.6 7.5-2.4 11.3.2.1.5.2.7.3 2-2.3 3-5.2 3.8-8.1 1.5-5.3 4.6-9.5 8.6-13.3-1.2 3.7-2.4 7.4-3.7 11.1.4.2.9.4 1.3.6 2.4-4.5 4.8-8.9 7.2-13.4.3.1.5.2.8.2.4 7.7-3 15.1-2.9 22.9 3.5-1.1 4.9-2.9 4.8-6.1-.1-4.4-.6-8.8-.2-13.1.6-5.7 4.6-9.8 10-10.8-.2 2.7 0 5.4-.6 7.9-1.2 5.5-2.7 11-4.3 16.5-1.5 5.2-1.3 6.2 3.8 9.9 1.4-12.7 2.8-25.1 4.2-37.6 4.7 1.7 6 4.7 5.7 11.8 3.7-1.3 4.2-5.4 7.3-7.6.6 12.3-1.9 24.5.5 36.8-.6.1-1.3.5-2 .4l-40.1-.6c-5.9-.1-11.9.1-17.8.2-.9 0-1.8.4-2.6 1h71.5v13.8h-86v-13.7c2.1 0 4.1.1 6-.1.7-.1 1.8-.7 1.8-1.2.6-5.1 3.9-7.6 8.3-9.3.8-.3 1.5-1 2.3-1.5.5 0 1.1-.1 1.6-.3zM219.8 127.4c.5 3.4 1.1 6.9 1.4 10.3 1.9 19.4-.5 38.3-7.3 56.5-5.2 14-14.2 25.6-26.5 34.3-2.1 1.5-4.6 2.5-6.9 3.7-.3-.2-.6-.5-.9-.7.9-2.2 1.3-4.6 2.7-6.4 3.5-4.7 4.3-9.5 1.8-14.7-1.6-3.2-1.2-6.2.8-9 .4-.6.8-1.3 1.4-1.9 9.4-9.4 13.5-21.4 17.5-33.6 3.9-12.1 7.6-24.2 13.4-35.5.5-1 1-1.9 1.5-2.9.2-.1.6-.1 1.1-.1zM259.6 300.2V315H159.1v-14.8h100.5zM197 136c-2.9 2.5-5.8 5-8.6 7.4-.3-.2-.6-.4-.8-.6.2-1 .2-2.1.6-3.1 2.1-5.1 4.3-10.2 6.6-15.2.7-1.6 1-2.7-.9-3.8-1.3-.8-2.3-2-3.8-3.4-1.1 2.2-2.1 4.2-3.3 6.5-1.4-.6-1.8-2.1-1.4-3.8.4-1.3 1.2-2.5 1.7-3.7.8-1.9 1.4-3.8 1.7-6-3.7 5-8.6 7.6-14.4 8.8-.7-4.4.2-6.5 4.2-8.1 3-1.2 4.5-3.1 5-6.2.6-3.5 1.5-7 2.5-11.4 1.4 2 2.4 3.4 3.6 5 1-.4 2.2-.9 3.3-1.4-.1-1.6-.2-3-.3-4.9-2.2-.4-4.5-.8-7.6-1.4 1.1-.6 1.6-1.2 2.1-1.2 1.2-.1 2.4-.2 3.6 0 2.6.3 4.7-.4 6.3-2.9-2.1-2.9-4.4-6-6.7-9.1.1-.1.2-.3.4-.4 1.2 1 2.4 1.9 3.6 2.9 1.3 1 2.8 1.9 3.7 3.2 2.1 2.8 4.6 1.2 7 .8.4-.1.8-1.2 1-1.9.8-3.4 1.5-6.9 2.6-10.3v11.7c3 1.9 5.5 1.6 8-.5 2.1-1.9 4.5-3.4 6.9-5.1.7-.5 1.5-.9 1.7-1-2.2 2.4-4.8 5.2-7.4 8.2-.6.8-1.4 2-1.2 2.8.4 1.5 1.9 1.3 3.3 1 3.4-.8 6.9-1.5 10.4-2.2.8-.2 1.6-.2 2.5.2-4.1 1.6-8.1 3-12.1 4.7-.8.3-1.3 1.2-1.9 1.9.8.5 1.5 1.2 2.3 1.3 4 .5 8 .8 12.1 1.7-1.6.1-3.3.3-4.9.4-2.4.2-4.8.3-7.2.4-2.9.2-3.5 1-2.8 3.9.2.8.5 1.6.7 2.5h-.8c-.1 1.3-.8 2.9-.3 4 2.2 4.9.8 8.4-3.3 11.6-4.4 3.3-8.6 6.8-12.7 10.5-1.6 1.4-2.7 3.4-4 5.2-.4.2-.7.6-1 1zm9.6-29.5c.6-.2 1.4-.4 2.2-.7-.7-2.8-1.4-5.5 1.9-7.3-1.2-.5-4.3.8-4.6 1.6-.6 1.3-1.2 2.6-2 4.2.6 1.9 1.2 4.3 2.1 6.7.3.7 1.1 1.1 1.8 1.6.1.1.8-.4.8-.5-.2-.7-.5-1.4-.8-2.2.1-.1.5-.3.8-.6-.8-1-1.4-1.9-2.2-2.8zm-16.2-5.8v6.7c.4 0 .7.1 1.1.1.7-2.2 1.3-4.5 2.1-7.1-1.5.2-2.4.3-3.2.3zm18.1-6.8c.5-.6.8-.9 1.2-1.4.6 2.2.8 4.2 3.4 4.2-.5-1.5-1-2.9-1.5-4.5-2.9-.9-3.1-.8-3.1 1.7zM236.6 184.7l5.1 25.8c2 10.1 2.2 20.2.3 30.3-.2 1.3-.9 2.5-1.6 4.5-1.1-1.6-1.7-2.5-2.3-3.5-2.6-4.2-5.9-7-11.3-5.6-2.1.5-3-.3-3-2.5.1-8.7.2-17.4 0-26-.2-7.7-.8-15.5-1.1-23.2-.3-7.5 0-14.8 3.3-21.7.8-1.7 1-3.6 1.5-5.5.3-1 .6-1.9.9-2.8.2 0 .5-.1.7-.1.5 1.3 1.2 2.5 1.5 3.9 1.9 8.6 3.8 17.1 5.7 25.7.1.1.3.4.3.7zM186.2 269.3c-.5.2-1.1.4-1.6.6-1.8.4-3.6.8-6.1 1.3-.4-4.2-1.2-8-.9-11.8.6-7.3 1.8-14.5 3-21.7.2-1.3 1.4-2.7 2.5-3.6 7.1-6 14.6-11.6 21.4-17.9 3.3-3.1 5.3-7.5 7.9-11.3l2.7-4.2c.3.2.7.3 1 .5-.3 1.3-.3 2.7-.8 3.8-2.9 6.6-5.3 13.5-8.9 19.7-5 8.6-9 17.4-11.2 27-1 4.1-2.7 8.2-4.6 12-.9 2.1-2.9 3.7-4.4 5.6zM236.7 184.7c-.1-2-.2-3.9-.3-5.9-.8-10-1.6-20.1-2.3-30.1-.1-1.1 0-2.2.2-3.3.3-1.9 1.5-3.2 3.6-3 5.6.5 11.1 1.5 16 4.4 2.3 1.4 3.7 3.5 4.2 6.2.1.6.3 1.3 1.1 2.1 1.4-2.4 2.7-4.8 4.1-7.2 2.5 1.8 3.1 4.8 1.5 6.9-2.1 2.7-4.3 5.4-6.4 8.1 2 3.1.5 6.9-3.2 7.4-2.9.4-4.8 1.8-6.6 4-2.3 2.9-4.8 5.6-7.2 8.5-1.1 1.4-1.9 2.9-3.1 4.7-.6-1.1-1.1-1.9-1.6-2.8-.1 0 0 0 0 0zM193.2 262.9c.3-1.1.5-2.3 1-3.3 4.1-9.2 8.2-18.4 12.4-27.5 4.8-10.3 9.1-20.8 11.2-32.1.7-3.5.9-7 1.4-10.5.1-.9.4-1.8 1.1-2.7.2 5.4.6 10.7.6 16.1.1 7.2-.3 14.5-.2 21.7.1 4.3.6 8.6 1.3 12.8.5 3.4-.1 5-3.3 6.6-4.1 2.2-8.2 4.3-12.2 6.7-4.7 2.8-8.7 6.5-11.6 11.2-.3.5-.7.8-1.1 1.2-.1.1-.4 0-.6-.2zM197 136l.9-1.2c6.3-4.8 12.5-9.6 18.8-14.4.2.1.4.3.5.4-.5 1.1-1 2.3-1.6 3.3-3.8 5.9-7.5 11.8-11.6 17.5-3.4 4.8-6.1 9.8-7.7 15.4-.5 1.9-1.2 3.9-2.3 5.4-.7.9-2.6 1-4 1.5-.4-1.3-1.3-2.7-1.1-3.8.3-1.9 1.4-3.7 1.8-5.7-3.2 3.7-4.2 8-3 12.6.6 2.3.5 4.1-.9 6-2.4 3.3-4.6 6.8-7.6 10.2-.3-1.2-.8-2.5-.8-3.7-.4-13.7 3.4-25.8 13.4-35.7 2.1-2.1 3.5-5.1 5.2-7.8zM212.5 134.9c-.3 1.4-.4 2.8-.9 4.1-2.7 6.8-5.6 13.5-8.2 20.3-2.1 5.4-4 10.8-5.8 16.3-2.1 6.2-4.9 11.9-9.2 16.9-1.4 1.7-2.2 3.9-3.5 5.7-.5.8-1.5 1.7-2.3 1.7-.6 0-1.4-1.3-1.8-2.2-2.3-5.8-1.3-11.2 2.2-16.1 1.2-1.8 2.6-3.4 4.1-5 4.2-4.3 7-9.3 8.8-15 3.2-9.9 9.3-18.2 15.2-26.6.1-.2.4-.3.6-.4.3.2.6.2.8.3zM191.4 120.1c1.1 4.6-2.7 13.8-7.9 19.6.9.1 1.7.2 2.9.4-1.4 4.8-2.7 9.5-4 14.1-.3 0-.5-.1-.8-.1-1-3.4-1.9-6.8-2.8-9.9 1.2-1.1 2.2-1.9 3.1-2.7-.1-.1-.1-.2-.2-.4-1.6.5-3.3 1-5.2 1.6.2-3.6 1.6-6.4 3.6-8.9 1.6-2 3.6-3.7 5.2-5.7 2-2.5 3.9-5.2 6.1-8zM232.1 155c-1-1.5-2-2.9-3-4.4-.9 1-1.5 1.6-2.5 2.7-2-9.9-3.8-19.3-5.8-29.2 5.8 3.8 14.3 26.5 11.3 30.9zM174.8 127.8c-.8-4 .1-5.9 3.3-7.7 1-.5 2-.9 3-1.5.9-.5 1.6-1.2 2.4-1.8 2.4 3.6-1.6 8.8-8.7 11z"/><path fill="#B6E4E4" d="M203.6 347.3V326h13.9v21.3h-13.9zM183.4 325.9h13.9v21.4h-13.9v-21.4zM237.7 347.3H224V326h13.7v21.3zM206.6 106.5c.7 1 1.4 1.9 2.1 2.9-.3.2-.7.5-.8.6.3.8.6 1.4.8 2.2 0 .1-.7.6-.8.5-.6-.5-1.5-.9-1.8-1.6-.9-2.3-1.5-4.8-2.1-6.7.7-1.5 1.4-2.8 2-4.2.4-.8 3.4-2.2 4.6-1.6-3.3 1.7-2.6 4.5-1.9 7.3-.7.1-1.5.4-2.1.6z"/><path fill="#fff" d="M190.4 100.7c.8-.1 1.6-.1 3.2-.3-.8 2.6-1.4 4.9-2.1 7.1-.4 0-.7-.1-1.1-.1v-6.7z"/><path fill="#B6E4E4" d="M208.5 93.9c0-2.6.2-2.6 3-1.7.5 1.6 1 3 1.5 4.5-2.5.1-2.8-2-3.4-4.2-.3.5-.6.9-1.1 1.4z"/><path fill="#fff" d="M176 25.7c.2-.8.5-1.9.6-1.9 1.5.2 2.9.6 4.4.9 0 .3-.1.7-.1 1H176zM162.9 24.6c1.8-.4 3.6-.7 5.4-1.1-.1 1.8-1.4 2.2-5.4 1.1z"/><path fill="#B6E4E4" d="M159.1 300.2l7.1-4.7h86l7.4 4.7z"/><path fill="none" d="M168.3 23.5c-1.2.2-2.3.5-3.4.7.8.3 1.7.6 2.6.8.5-.3.8-.8.8-1.5zM176.6 23.8c-.1 0-.4 1.1-.6 1.9h3c.6-.1 1.3-.2 1.9-.3 0-.2.1-.5.1-.7-1.5-.3-2.9-.7-4.4-.9zM162.9 24.6c2.3.6 3.8.7 4.6.4-.9-.2-1.8-.5-2.6-.8-.7.1-1.4.3-2 .4zM180.9 25.7v-.3c-.6.1-1.3.2-1.9.3h1.9z"/><path fill="#019B8D" d="M186.5 31.6l-4.4-2.2c.2-1.5.3-3.2-.3-4.2-.3.1-.7.1-1 .2v.3h-1.9c-4.5.5-8.4.1-11.6-.7-.8.4-2.2.2-4.6-.4.7-.1 1.3-.3 2-.4-.4-.2-.8-.3-1.2-.5-.2.1-.4.2-.5.3-.8.5-1 2.1-1.5 3.2.9.3 1.8.6 2.7.8.6.1 1.3 0 2-.1 1-.1 1.9-.2 3-.4 1.1.3 2.3.6 4 1.1-3.5.9-6.8 1.6-10 2.6-.8.2-1.8 1-1.9 1.7-.1.6.7 1.6 1.3 2.1.8.5 1.8.7 2.4.9.6 2 1.1 3.8 1.7 5.7.4-.1.8-.3 1.2-.4-.4-1-.7-2.1-1.1-3.1 1.8-2 4-2.3 6.2-.9-1 .3-2 .6-3.6 1 4.4.6 1.5 3.6 2.6 4.9-1.7.3-3.4.5-5 .8 0 .3.1.6.1.9h4.7c-2.4.8-1.5 1.9-.4 3.1-1.5.1-2.7.3-3.9.4 0 .1.1.2.1.3 1.8.3 3.5.7 5.3 1 0 .2-.1.4-.1.5-1.7.2-3.4.5-4.9.7 1.5.6 3.5.7 3.9 1.6.7 1.4.5 3.4.3 5.1-.1.9-.9 1.7-1.4 2.6.3.4 1.3 1 1.2 1.5-.1 1.9-.6 3.7-.9 5.5.3 0 .5-.1.8-.1.1 1.1.6 2.3.3 3.3-2 7.2-2.8 14.4-.2 21.6 1 2.9 1.8 5.7 1.7 8.8-.1 1.3.4 2.8 1.1 3.9.5.8 1.7 1.3 2.5 1.9.5-.8 1.2-1.5 1.5-2.4 2.3-9.1 2.2-18.2.4-27.4-1.5-7.5-2.3-15.1-.6-22.8.6-2.8.1-6.3-1-9.1-.8-2.2-2.7-3.9-.5-6.3.3-.3-.2-1.2-.3-1.9.2.2.3.4.5.6 3-1.7 5.9-3.5 9.3-5.6z"/><path fill="#FEC300" d="M168.3 23.5c0 .7-.3 1.2-.9 1.5 3.2.8 7.1 1.2 11.6.7h-3c.2-.8.5-1.9.6-1.9 1.5.2 2.9.6 4.4.9 0 .2-.1.5-.1.7.3-.1.7-.1 1-.2-.1-.2-.2-.3-.3-.5-1.2-1.2-3.2-1.6-4.9-2.3.6-1.3 1.4-2.5 1.9-3.9.3-1.1.4-2.3.2-3.4-.5-2.2-1.3-4.3-1.9-6.5-.7-2.5-1.4-5-2.1-7.7-1.8 5.1-3.4 9.8-5.1 14.5 1 .1 2 .1 3 .2-.7 3.2-1.3 3.6-3.5 2.3-2.8 1.1-1.5 3-.9 4.6-1.6.4-3.2.5-4.6 1.1.4.2.8.3 1.2.5 1.1-.1 2.2-.4 3.4-.6z"/></svg>