<svg xmlns="http://www.w3.org/2000/svg" viewBox="0 0 400 400" enable-background="new 0 0 400 400"><path fill="#E97400" d="M204.2 321.1l-3.7-99.2 14.5 6 4.3 93.2z"/><path fill="#19539C" d="M214.6 221.9l1 97.8 22.3 6.1-2.2-88.2z"/><path fill="#D6210E" d="M166.5 321.1h24.6V215.4l-24.6-11.2z"/><path fill="#069B3F" d="M156 265.9c.1.7 0 1.5 0 2.2-.1 3.2-.2 6.3-.4 9.5-.1 3.1-.3 6.2-.4 9.3-.1 2.7-.2 5.5-.4 8.2-.1 2.7-.3 5.5-.4 8.2-.1 2.5-.2 5-.4 7.5-.2 2.1-.1 4.3-.5 6.4-.3 1.2-.6 2.4-1.9 3 .2-1.1.3-2.3.4-3.4.2-1.9.2-3.8.5-5.8.1-.8.1-1.7.2-2.6.1-1.2.2-2.5.3-3.7.1-1.3.1-2.5.3-3.8v-.4c-.1-1.3.2-2.7.2-4 .1-1.8.3-3.5.4-5.3.1-1.7.3-3.5.4-5.2.1-1.9.3-3.8.4-5.7.1-1.8.3-3.6.4-5.4.1-2 .3-3.9.4-5.9.1-.9.1-1.8.2-2.7 0-.1-.1-.4.3-.4z"/><path fill="#E6E7E8" d="M156 262.8c.1.1.1.3 0 .4-.2-.2-.2-.3 0-.4z"/><path fill="#FEC300" d="M187.6 63.3c-.4-1.3-1.1-2.5-1.7-3.7-1.1-2.2-2.1-4.5-3.2-6.7-1-2.1-.7-3.1 1.4-4 2.5-1.1 3.6-3 3.8-5.6.2-1.6.1-3.2.3-4.7 0-.2-.1-.5.1-.7.1 0 .2.1.2.1.8 2 2.1 3.7 3.4 5.4.8 1 1.5 2.1 2 3.4.2.4.3.8.6 1.1.6.9 1.6 1.4 2.7 1.2.6-.1 1-.5 1.3-1.1.5-1 .9-2 1.4-3 .5-1.2 1.1-2.4 1.8-3.4.3-.4.7-.8 1.1-1.2.3-.3.5-.2.6.1.2.6.5 1.2.4 1.8-.1 1.5.1 2.9.2 4.4.1.8.3 1.4 1 1.8 1.8 1.2 3 2.9 3.2 5.1.1 1.2-.2 2.3-.4 3.5-.4 1.6-.9 3.2-1.1 4.9 0 .3-.1.5-.1.8 0 .9-.1 1.8-.2 2.8 1.2-.7 1.8-1.6 2.1-2.8.4-1.3.4-2.6.4-4 0-2 .5-3.8 1-5.7.3-1.2 1.4-1.7 2.5-1.3.6.2.9.6.9 1.2 0 .7-.2 1.4-.3 2.1-.1.6-.1 1.1 0 1.7.6 4 1.4 7.9 1.8 11.9.3 2.7.4 5.4.1 8.2-.1 1.5-.1 3.1-.1 4.7 0 .8-.1 1.5-.4 2.2-.2.6-.5 1.2-1.1 1.7-.7.6-1.4.7-2.3.3-.4-.2-.8-.6-1.1-.9-1.8-1.6-3.8-2.6-6.3-2.6-1.5 0-3 .1-4.4.5-.2 0-.4.1-.6 0 .3-.7.8-1.1 1.2-1.7 1.3-1.5 2.9-2.7 4.6-3.9 1.3-.9 2.6-1.8 3.8-2.9.2-.1.4-.2.4-.6-.4-.1-.7 0-1.1.1-2.6.6-5 1.8-7.2 3.2-1.1.7-2.2 1.5-3.3 2.2-1.6 1-3.4 1.4-5.3.8-2.4-.7-4.7-.4-7.1.1-1.6.3-3.1.9-4.6 1.1-3.3.5-6.4.1-9.4-1.1-4-1.7-8-3.7-11.8-5.8-4.8-2.6-9.3-5.8-13.8-8.9-6-4.1-12.5-7.3-19.5-9.3-.2-.1-.3-.1-.5-.2 0-.3.3-.4.4-.5 3.4-1.6 7-2.5 10.8-2.1 2.6.2 5 1 7.4 2.2 3.4 1.7 6.8 3.6 10.2 5.3 4.7 2.3 9.5 4.4 14.5 6 1 .3 2.1.7 3.1.9 1.6.3 2.8 1.2 4 2.1 2.9 2.3 6 4.1 9.6 5.1 2 .5 4 .5 5.9.2.1 0 .2-.1.3-.2-.5-.4-1.1-.3-1.6-.3-4.9-.8-9.1-2.8-13.1-5.7-3.2-2.3-6-5.1-8.8-7.9-1.8-1.8-3.6-3.7-5.3-5.6-.2-.2-.3-.4-.6-.5-.1.4.1.6.2.9.6 1.5 1.6 2.7 2.6 4 1.2 1.5 2.6 2.9 3.6 4.5.1.2.2.3.3.5-2.6 0-21.1-8.4-25.3-11.4 0-.3.3-.3.5-.3 3.5-1.1 7.1-1.9 10.8-2.3 2.5-.3 4.9-.3 7.4-.4 2.5-.1 4.9-.2 7.4-.5 2.2-.2 4.4-.7 6.6-.7 1.9 0 3.1.8 4 2.4.4.7.6 1.5.9 2.2 1 2.7 2.2 5.2 4 7.4 1.1.8 1.7 1.6 2.8 2.1 0 .1 0 .2.1.1l-.1-.1z"/><path fill="#D6210E" d="M105.5 86.5c-2.1-.1-4.4-.2-6.6-.9-3-.9-5.4-2.7-7.3-5.1-2.8-3.6-5.8-7-8.4-10.7-2.6-3.6-4.9-7.3-6.9-11.2-.4-.8-.7-1.6-.9-2.4-.1-.5 0-.6.5-.5 1.3.3 2.7.6 4 .8 1.4.2 2.8.4 4.3.5 4.8.4 9.6.1 14.4.2 1.2 0 2.4.1 3.6.1.7 0 1.3.4 1.7.9 1.2 1.2 2.3 2.4 3.5 3.5 4.6 4.6 9.7 8.8 15.2 12.5 4.7 3.2 9.5 6 14.5 8.6 2.8 1.5 5.7 2.9 8.6 4.2 1 .5 2.1.8 3.2 1.2.2.1.5.2.7.3 1.5.8 1.9 1.9 1.4 3.5-.2.8-.6 1.5-1.1 2.1-.7.9-1.6 1.3-2.8 1-.7-.2-1.3-.4-2-.7-6.5-3.1-12.9-6.1-19.4-9.2-6-2.9-11.9-6-17.6-9.3-4.3-2.5-8.5-5-12.5-7.8-2.7-1.9-5.4-3.8-8-5.8-.5-.4-1-.6-1.5-.9-.5-.2-.7-.1-1 .3-.3.4 0 .6.3.7 8.2 6.6 16.5 13.1 25.2 19.1 1.4 1 2.7 2 4.1 2.9.4.3.4.6.3 1-.1.4-.2.7-.7.7-3 .2-5.8.3-8.8.4z"/><path fill="#F29D02" d="M189.2 318.9c-1.4-.3-2.6-.7-3.8-.8-2.5-.3-4.9-.4-7.4-.2-1.6.1-3.2.3-4.8.4-1.4.1-2.8.4-4.3.4-2 0-2.4-.4-2.4-2.4 0-2.6.2-5.3.4-7.9.1-1.7 0-3.5.1-5.2.3-9.7.1-19.5.2-29.2 0-3.4.1-6.9.2-10.3.2-3.8.2-7.6.4-11.3.2-4.2 0-8.3.2-12.5.2-7 .1-13.9.2-20.9 0-3.1.1-6.3.2-9.4 0-.8.2-1.4.6-2.1.2-.4.5-.4.8-.2.5.3.7.8.7 1.4 0 1.1-.2 2.1-.2 3.2 0 1.8 0 3.6-.1 5.4-.2 3 0 6-.2 9.1-.1 2.5 0 5-.2 7.4-.2 3-.1 6.1-.2 9.2-.1 2.7 0 5.4-.2 8.1-.2 2.8 0 5.7-.2 8.5-.1 2.7 0 5.3-.2 8-.2 2.9 0 5.7-.2 8.6-.1 2.7 0 5.5-.2 8.2-.2 2.9 0 5.7-.2 8.6-.2 2.8 0 5.7-.2 8.5-.2 3-.1 5.9-.2 8.9 0 1.1-.2 2.2-.3 3.2-.1.8-.1 1.5.2 2.3.3 1 1.1 1.5 2.2 1.5 1 0 1.5-.5 1.8-1.5.2-.6.2-1.1.2-1.7-.1-2.7.1-5.5.3-8.2.1-1.2.1-2.4.2-3.6.1-1.9.2-3.9.3-5.8.2-3.8.3-7.6.4-11.3.1-2.4 0-4.8.2-7.2.1-2.8.1-5.6.2-8.4.1-2.3 0-4.6.2-6.9.2-2.4 0-4.8.2-7.2.2-2.4 0-4.7.2-7.1.2-3.2 0-6.4.2-9.5.1-2.6.1-5.2.1-7.8v-19c0-.9 0-1.7.5-2.6.6.4.9 1.1.9 1.7 0 2 0 3.9-.1 5.9-.1 1.3-.1 2.6-.1 3.9-.1 3.5-.1 6.9-.2 10.4-.1 2.5 0 5-.2 7.5-.2 2.4 0 4.9-.2 7.3-.2 2.5 0 5-.2 7.5-.2 2.4 0 4.9-.2 7.3-.2 2.6 0 5.3-.2 7.9-.2 2.6 0 5.2-.2 7.8-.2 3.1 0 6.1-.2 9.2-.2 4 0 8-.2 11.9-.2 4.1-.1 8.2-.2 12.3 0 .9-.1 1.8-.1 2.8 0 .5.1.9.1 1.4.1 1.6 2 2.2 3.2 1.6.6-.3.9-.8 1-1.4.1-.5.2-.9.2-1.4.1-1.8.1-3.6.2-5.4.3-4.3.3-8.6.4-12.9.1-3.9 0-7.8.2-11.6.2-5.2.1-10.4.2-15.5.1-4.6 0-9.2.2-13.7.2-5 0-10.1.2-15.1.2-4.7 0-9.4.2-14.1.1-3.2 0-6.4.2-9.6 0-1.2.1-2.4.4-3.7.7.8 1 1.7 1.1 2.7.1 1 0 2 0 3V310.4c0 .8-.2 1.6-.2 2.5v.7c0 1.5.7 2.3 2 2.4 1.4.1 2.4-.8 2.6-2.2.1-.8.1-1.6.1-2.5-.1-1.3-.1-2.5 0-3.8.2-7.1.1-14.2.2-21.3.1-7.2.1-14.4.1-21.7v-44.9c0-1-.1-1.9.1-2.9.1-.5.3-1 .6-1.6 1.1.8 1.5 1.8 1.6 2.9.1.7 0 1.4 0 2.1v82.4c0 4 .2 8 .5 12 0 1.4 0 2.8.1 4.4z"/><path fill="#E35E03" d="M162.9 88.5c-.1 2.3-.3 4.5-.5 6.7-.2 1.8-.3 3.5-.4 5.3-.2 2.7-.5 5.4-.7 8.2-.1 1.7-.3 3.4-.4 5-.2 2.4-.5 4.9-.7 7.3-.2 2-.4 3.9-.6 5.9-.3 2.4-.6 4.7-.9 7.1-.3 2.3-.7 4.6-1 7-.1.7 0 1.5 0 2.3 0 .9-.1 1.8-.3 2.7-.3 1.3-1.2 2-2.5 2.2-.9.1-1.7.1-2.5-.2-1.2-.4-1.8-1.4-1.6-2.7.1-.7.2-1.4.3-2.2.1-.7 0-1.3-.1-2-.1-1 0-2 .1-3l.3-3.6c.2-2.7.3-5.4.5-8.1.2-2.6.3-5.2.4-7.8.2-3.5.3-7 .4-10.5.3-6.6.1-13.2.2-19.8v-4.9c0-.5 0-1.1.2-1.6.3-1 .9-1.3 1.9-1.1 1 .2 2 .8 2.9 1.2.9.4 1.9 1 2.8 1.4 1.8.9 2.8 2.4 2.6 4.5-.4.3-.4.5-.4.7zM169.6 111.5v18.9c0 1.8.2 3.7.3 5.5.1 1.9.3 3.8.3 5.7 0 .7.1 1.4.1 2.1 0 3.2-.1 6.4-.5 9.5-.1.5-.2 1.1-.4 1.6-.3.9-.8 1.2-1.8 1.1-.2 0-.5 0-.7-.1-2-.9-4.1-1.1-6.2-1.6-.5-.1-1-.3-1.5-.5-1-.4-1.6-1.2-1.6-2.4 0-1.1.2-2.1.4-3.2.7-4 1.4-7.9 1.9-11.9.5-3.8 1-7.6 1.3-11.3.3-3.3.7-6.6 1-9.9.3-3.6.6-7.1 1-10.7.3-3.3.6-6.5.8-9.8.1-2.3.4-4.5.4-6.8 0-1.4 1.1-2 2.3-1.3 1.5.9 2.7 2.1 2.7 4.1v1.1c.2 6.7.2 13.3.2 19.9z"/><path fill="#E97400" d="M198.4 253.6v31c0 1.2.1 2.3.2 3.5.3 3.4.5 6.9.6 10.4.1 3.7.2 7.3.4 11 .1 2.4.4 4.7.7 7.1.3 2.6-.9 3.7-3.6 3.4-1.4-.1-2-.8-2.2-2.2-.1-.4-.1-.8 0-1.1.2-2.6.3-5.2.5-7.8v-1.5c.1-2.6.1-5.1.3-7.7.1-3 .1-5.9.2-8.9.3-7.3.1-14.6.1-21.9v-6.7c-.3-11.8-.1-23.6-.2-35.4 0-1.7.1-3.5-.3-5.2-.1-.2 0-.5 0-.8.1-1.1.6-1.6 1.5-1.6 1.1 0 1.7.4 1.9 1.5.1.4 0 .8 0 1.2V249c-.1 1.6-.1 3.1-.1 4.6z"/><path fill="#D6210E" d="M149.5 86.4c-.4 0-.7-.2-1.1-.4-9.2-4.7-18.2-9.9-26.7-15.8-5.1-3.5-10.1-7.3-14.9-11.3-.5-.4-.6-1-.3-1.5.1-.2.3-.2.5-.2h12.1c1.6 0 2.8.6 3.7 1.9 1.4 1.9 2.7 3.7 4.2 5.5 2.6 3.1 5.4 6 8.3 8.8 4 3.9 8.3 7.5 12.7 11 .6.5 1.3 1.1 1.5 2z"/><path fill="#FFBF07" d="M47.8 53.5c.5-.2.9-.3 1.4-.2 1.3.2 2.5.4 3.8.4 1.7.1 3.2-.3 4.3-1.6.4-.5.9-.7 1.6-.6.9.2 1.8.2 2.7.5 1.2.3 2.3 1 3.4 1.7 1.2.7 2.3 1.5 3.5 2.2.8.5 1.7.9 2.7 1.1.9.2 1.4.7 1.8 1.4.3.5.5 1.1.6 1.7.1 1.3-.4 2.4-1.9 2.2-2.3-.3-4.5-.1-6.7-.3-1.7-.1-3.4 0-5.1-.1-3.7-.2-7.5-.4-11.1-1.3-1.6-.4-3.2-1.2-4.7-1.8-.5-.2-1-.4-1.6-.7.8-.2 1.5-.2 2.2-.2.8 0 1.6-.2 2.4-.4.9-.2 1.5-1 1.2-2-.1-.6-.4-1.3-.5-2z"/><path fill="#FFC700" d="M340.4 61.7c-.5.3-1 .6-1.5.8-.7.4-1 1-.8 1.8.2.8.5 1.5 1.4 1.8.4.1.8.2 1.3.1s1.1-.1 1.6-.1c.3 0 .6 0 .9.3-.7.4-1.5.6-2.2.9-3.8 1.3-7.7 2.2-11.7 2.7-3.1.4-6.3.6-9.4.5-1.5 0-3-.1-4.5-.1-1.3 0-1.9-.6-1.9-1.9 0-1.9.8-3.8 3.3-4.2.8-.1 1.6-.3 2.3-.6 1-.4 1.9-.9 2.6-1.8 1.1-1.5 2.7-2.2 4.6-2 .6 0 1.1.2 1.6.5 1.9 1 3.9 1.3 6 1.4 1.9.1 3.9-.2 5.8-.2h.5c.1 0 .1.1.1.1z"/><path fill="#FEC300" d="M191.9 11c1.1-1.3 2.3-2.3 3.6-3.2 1-.7 2.1-1.2 3.2-1.6 1.7-.5 3.2-.1 4.7.7 1.6.9 2.9 2.1 4.1 3.5.1.1.2.3.3.5.3.5.3 1 0 1.5s-.7.6-1.2.5c-.5-.1-.9-.1-1.4-.3-.6-.2-1.2-.2-1.8-.2-1.6 0-2.6.9-2.8 2.5-.4 2.5 1.1 4.1 3.6 4.2.7 0 1.4 0 2.1.1 2.9.4 3.1 1.7 2.8 3.8 0 .3-.1.6-.2.9-1.2 3.7-2.3 7.4-3.7 11-.3.7-.6 1.4-1 2-.9 1.2-2.1 1.3-3.2.3-1-1-1.3-2.2-1.1-3.6.1-.6.4-1 .8-1.3.6-.5 1.2-1.1 1.6-1.9.5-1.1.6-2.3.3-3.5-.5-2.2-1.3-4.2-2.1-6.3-.9-2.3-1.7-4.5-2-6.9-.1-.9-.6-1.4-1.4-1.7-.9-.4-1.9-.5-2.9-.5-.8-.2-1.5-.2-2.3-.5z"/><path fill="#D6210E" d="M159.5 201.5c.4.5.4.9.4 1.4.3 2.1.4 4.2.2 6.4-.1 1-.1 2.1-.2 3.1-.2 2.5-.2 5-.3 7.5-.1 3.4-.1 6.8-.2 10.2-.1 2.9 0 5.8-.2 8.7-.2 3.2 0 6.4-.2 9.5-.1 2.7 0 5.3-.2 8-.2 3.3-.1 6.6-.2 9.9-.1 2.9 0 5.7-.2 8.6-.2 3.1 0 6.2-.2 9.3-.1 2.8 0 5.7-.2 8.5-.2 3.1 0 6.2-.2 9.2-.1 2.9 0 5.9-.2 8.8-.1 2.4 0 4.8-.2 7.1 0 .3-.1.6-.1.9-.2.7-.6 1-1.3 1-.7-.1-1-.4-1-1.2.1-.9.2-1.9.3-2.8.1-2.1.2-4.2.3-6.4.1-3 .4-6 .5-8.9.1-2 .2-3.9.2-5.9.2-3.3.3-6.6.4-9.9.1-3 .3-6.1.4-9.1.1-3.8.3-7.6.4-11.4.1-2 0-4.1.2-6.1.2-2.5 0-5.1.2-7.6.2-2.6.1-5.1.2-7.7.2-4.3.1-8.6.2-13 .1-3.2.1-6.4.2-9.5.1-3.4.2-6.7.4-10.1.2-2.9.4-5.6.6-8.5z"/><path fill="#E35E03" d="M205.1 85.3c-2 .5-4 .9-6 1.2-3.2.5-6.3 1.1-9.4 1.8-2.4.6-4.7.2-6.9-.8-2.2-.9-4.2-2.2-6.2-3.3-.1 0-.1-.1-.2-.2.5-.3 1.2-.4 1.7-.6 2-.6 4.1-1.3 6.2-1.7 2.1-.4 4.1-.4 6.1.2 3 .8 6 1.8 9.1 2.5 1.8.4 3.7.6 5.6.9z"/><path fill="#F18A01" d="M156.8 178c0-1.5-.1-2.9 0-4.2.1-1.7.2-3.5.5-5.2.4-2.8 1.1-5.5 2.2-8.1.1-.3.2-.5.4-.8.8-1.5 1.8-1.9 3.5-1.6 1.2.3 2.4.5 3.5 1.1 1.3.7 2 1.7 2.4 3 .4 1.4-.4 3.2-2.4 3.1-1.4-.1-2.8.1-4.1.6-2.5.9-3.9 2.8-4.6 5.3-.5 1.6-.7 3.3-.8 5-.1.6-.2 1.2-.6 1.8z"/><path fill="#19539C" d="M239.1 243.4c-.9-1.3-1.6-2.8-2.1-4.2-1.3-3.3-1.9-6.7-1.9-10.2 0-2.7 0-5.3.2-8 .1-1.2.5-1.8 1.4-2.1 1-.3 1.7.2 1.8 1.2v.4c0 5.5-.1 10.9.1 16.4.1 2.1.3 4.1.6 6.2 0 0 0 .1-.1.3z"/><path fill="#D6210E" d="M162.7 257.3v34c0 2.3 0 4.6-.1 7-.1 2.6 0 5.3-.1 7.9-.2 3.1-.1 6.3-.2 9.4 0 1-.1 1.9.1 2.8.1.7-.2 1-.8 1.1-.6.1-1.1-.2-1.3-.8-.1-.3-.2-.6-.2-.9.2-2.6.5-5.2.7-7.8.1-1.2.1-2.3.2-3.5.1-2.1.2-4.3.3-6.4.2-3.4.3-6.8.4-10.2.1-2.8.2-5.5.4-8.3.2-3.9.3-7.8.4-11.7.1-4 0-8.3.2-12.6z"/><path fill="#E6E7E8" d="M141.1 51.2c0-.1.1-.3.2-.3 1-.4 1.9-.9 3-1 1.8-.1 3.6-.2 5.4-.4 1.2-.1 2.4 0 3.6-.3.2-.1.6-.1.8.2-.9.4-1.8.4-2.8.5-3.2.5-6.4.9-9.6 1.3h-.6zM172.2 93.1s-.1-.1 0 0c0-.1 0-.1 0 0zM149.5 86.4l.1.1c0 .1-.1 0-.1-.1z"/><path fill="#818386" d="M194.4 111l.1.1c-.1.1-.1 0-.1-.1zM298.1 74.4c0-.1 0-.2.1-.1.1 0-.1 0-.1.1zM279.2 69.8s0-.1.1-.1c.1.1-.1 0-.1.1zM187.6 63.3l.1.1c-.1.1-.2 0-.1-.1-.1 0 0 0 0 0z"/><path fill="none" d="M186.9 214.9c-.1.2-.1.3-.2.5l1.1.5c-.2-.4-.5-.7-.9-1zM180.3 211.5c-.1.3-.1.7-.2 1l1 .5c-.1-.6-.3-1.1-.8-1.5zM279.2 69.8c0 .1-.1.1-.1.2 0-.1 0-.2.1-.2zM298.1 74.4c0 .1-.1.2-.2.3.1-.2.1-.2.2-.3zM169.6 207.3c-.4-.2-.6-.2-.8.2l1.5.7c-.1-.4-.3-.7-.7-.9zM298.1 74.2l-.1.1c.1 0 .3 0 .1-.1zM175 209.4c-.1.2-.2.5-.3.7l1 .5c0-.5-.3-.9-.7-1.2zM194.5 111.1l-.1-.1c0 .1 0 .2.1.1zM279.2 69.6v.1c.1 0 .2.1 0-.1zM196.7 320c2.7.2 3.9-.8 3.6-3.4-.3-2.4-.5-4.7-.7-7.1-.2-3.6-.3-7.3-.4-11-.1-3.5-.2-6.9-.6-10.4-.1-1.2-.2-2.3-.2-3.5V220.7c-.2-1.1-.8-1.5-1.9-1.5-1 0-1.4.5-1.5 1.6v.8c.4 1.7.3 3.5.3 5.2 0 11.8-.1 23.6.2 35.4.1 2.2 0 4.5 0 6.7-.1 7.3.1 14.6-.1 21.9-.1 3 0 5.9-.2 8.9-.1 2.6-.2 5.1-.3 7.7v1.5c-.2 2.6-.3 5.2-.5 7.8v1.1c.3 1.4.9 2.1 2.3 2.2zM237 239.1c.6 1.5 1.2 2.9 2.1 4.2.1-.2.1-.3 0-.4-.4-2-.6-4.1-.6-6.2-.1-5.5-.1-10.9-.1-16.4v-.4c-.1-1-.9-1.5-1.8-1.2-.9.2-1.3.8-1.4 2.1-.2 2.7-.2 5.3-.2 8 .1 3.6.7 7 2 10.3zM172.2 93c-.1 0 0 .1 0 0zM72.9 58.3c-.4-.7-.9-1.2-1.8-1.4-1-.2-1.9-.6-2.7-1.1-1.2-.7-2.3-1.5-3.5-2.2-1.1-.7-2.2-1.3-3.4-1.7-.9-.3-1.8-.3-2.7-.5-.6-.1-1.1 0-1.6.6-1.1 1.3-2.6 1.8-4.3 1.6-1.3-.1-2.5-.3-3.8-.4-.5-.1-.9 0-1.4.2.1.7.4 1.4.6 2.1.3 1-.3 1.8-1.2 2-.8.2-1.6.3-2.4.4-.7 0-1.4.1-2.2.2.6.2 1.1.5 1.6.7 1.6.6 3.1 1.4 4.7 1.8 3.7.9 7.4 1.1 11.1 1.3 1.7.1 3.4-.1 5.1.1 2.2.2 4.4 0 6.6.3 1.5.2 2-.9 1.9-2.2-.1-.7-.3-1.2-.6-1.8zM190.4 81.9c-2-.5-4.1-.5-6.1-.2-2.1.4-4.1 1-6.2 1.7-.6.2-1.2.2-1.7.6l.2.2c2.1 1.1 4 2.4 6.2 3.3 2.2 1 4.5 1.3 6.9.8 3.1-.7 6.3-1.2 9.4-1.8 2-.3 4-.7 6-1.2-1.9-.3-3.8-.5-5.6-1-3.1-.7-6.1-1.6-9.1-2.4zM166.9 159.2c-1.1-.6-2.3-.8-3.5-1.1-1.7-.4-2.6.1-3.5 1.6-.1.3-.3.5-.4.8-1.1 2.6-1.7 5.3-2.2 8.1-.3 1.7-.4 3.5-.5 5.2-.1 1.3 0 2.7 0 4.2.4-.6.5-1.1.5-1.7.1-1.7.3-3.3.8-5 .7-2.5 2.1-4.4 4.6-5.3 1.3-.5 2.7-.7 4.1-.6 2 .1 2.8-1.8 2.4-3.1-.3-1.4-1.1-2.4-2.3-3.1z"/><path fill="#D6210E" d="M168.9 318.8c1.4 0 2.8-.3 4.3-.4 1.6-.2 3.2-.3 4.8-.4 2.5-.2 5-.2 7.4.2 1.2.2 2.4.5 3.8.8-.2-1.6-.1-3-.2-4.5-.3-4-.4-8-.5-12-.1-10.2 0-20.5 0-30.7V218c-.1-.7-.3-1.4-.6-2l-1.1-.5c-.2.4-.3.8-.4 1.2-.2 1-.1 1.9-.1 2.9v44.9c0 7.2 0 14.4-.1 21.7-.1 7.1 0 14.2-.2 21.3 0 1.3-.1 2.6 0 3.8.1.8 0 1.6-.1 2.5-.2 1.5-1.2 2.3-2.6 2.2-1.3-.1-2-.9-2-2.4v-.7c-.1-.8.2-1.6.2-2.5V217.3c0-1 .1-2 0-3 0-.4-.1-.8-.2-1.2l-1-.5c-.1.9-.2 1.8-.2 2.7-.1 3.2 0 6.4-.2 9.6-.2 4.7 0 9.4-.2 14.1-.2 5 0 10-.2 15.1-.2 4.6 0 9.2-.2 13.7-.2 5.2 0 10.4-.2 15.5-.1 3.9-.1 7.8-.2 11.6-.1 4.3-.2 8.6-.4 12.9-.1 1.8-.2 3.6-.2 5.4 0 .5-.1.9-.2 1.4-.1.6-.4 1.2-1 1.4-1.2.5-3.1 0-3.2-1.6 0-.5-.1-.9-.1-1.4 0-.9.1-1.8.1-2.8.1-4.1 0-8.2.2-12.3.2-4 0-7.9.2-11.9.1-3 0-6.1.2-9.2.1-2.6 0-5.2.2-7.8.2-2.6 0-5.3.2-7.9.1-2.4 0-4.9.2-7.3.2-2.5 0-5 .2-7.5.2-2.4 0-4.9.2-7.3.2-2.5.1-5 .2-7.5.2-3.5.2-6.9.2-10.4 0-1.3 0-2.6.1-3.9.1-2 .1-3.9.1-5.9 0-.2 0-.4-.1-.6l-1-.5c-.2.6-.2 1.2-.2 1.9v19c0 2.6 0 5.2-.1 7.8-.2 3.2 0 6.4-.2 9.5-.1 2.3 0 4.7-.2 7.1-.2 2.4 0 4.8-.2 7.2-.1 2.3-.1 4.6-.2 6.9-.1 2.8-.1 5.6-.2 8.4-.1 2.4-.1 4.8-.2 7.2-.1 3.8-.2 7.6-.4 11.3-.1 1.9-.1 3.9-.3 5.8-.1 1.2-.1 2.4-.2 3.6-.2 2.7-.4 5.4-.3 8.2 0 .6 0 1.1-.2 1.7-.3 1-.9 1.5-1.8 1.5-1.1 0-1.9-.5-2.2-1.5-.2-.7-.2-1.5-.2-2.3.1-1.1.2-2.1.3-3.2.1-3 0-5.9.2-8.9.2-2.8 0-5.7.2-8.5.2-2.9 0-5.7.2-8.6.2-2.7 0-5.5.2-8.2.2-2.9 0-5.7.2-8.6.1-2.7 0-5.3.2-8 .2-2.8 0-5.7.2-8.5.1-2.7.1-5.4.2-8.1.1-3 .1-6.1.2-9.2.1-2.5 0-5 .2-7.4.2-3 0-6 .2-9.1.1-1.8.1-3.6.1-5.4 0-1.1.1-2.2.2-3.2v-.5l-1.5-.7c-.3.7-.5 1.3-.6 2.1 0 3.1-.1 6.3-.2 9.4-.1 7 .1 13.9-.2 20.9-.1 4.2 0 8.3-.2 12.5-.1 3.8-.2 7.6-.4 11.3-.1 3.4-.2 6.9-.2 10.3-.1 9.7.1 19.5-.2 29.2 0 1.7 0 3.5-.1 5.2-.1 2.6-.3 5.3-.4 7.9-.2 2.2.2 2.6 2.2 2.6z"/><path fill="none" d="M213 56.7c-.1-.6-.1-1.1 0-1.7.1-.7.3-1.4.3-2.1 0-.6-.3-1-.9-1.2-1.1-.4-2.2.1-2.5 1.3-.4 1.9-1 3.8-1 5.7 0 1.3-.1 2.7-.4 4-.3 1.1-.9 2-2.1 2.8.1-1 .2-1.9.2-2.8 0-.3.1-.5.1-.8.2-1.7.8-3.3 1.1-4.9.3-1.1.5-2.3.4-3.5-.2-2.2-1.3-3.9-3.2-5.1-.7-.5-.9-1-1-1.8-.1-1.5-.2-2.9-.2-4.4 0-.7-.2-1.3-.4-1.8-.1-.3-.3-.5-.6-.1-.4.4-.8.8-1.1 1.2-.8 1.1-1.3 2.2-1.8 3.4-.5 1-.9 2-1.4 3-.3.5-.7.9-1.3 1.1-1.1.2-2.1-.2-2.7-1.2-.2-.3-.4-.7-.6-1.1-.5-1.2-1.2-2.3-2-3.4-1.3-1.7-2.6-3.4-3.4-5.4 0-.1-.1-.2-.2-.1-.2.2-.1.5-.1.7-.2 1.6-.2 3.2-.3 4.7-.3 2.6-1.4 4.5-3.8 5.6-2.1.9-2.4 1.9-1.4 4 1 2.2 2.1 4.5 3.2 6.7.6 1.2 1.3 2.4 1.7 3.7l-.1.1c-.9-.5-1.6-1.4-2.2-2.2-1.8-2.2-3.1-4.8-4-7.4-.3-.7-.5-1.5-.9-2.2-.9-1.6-2.2-2.4-4-2.4-2.2 0-4.4.5-6.6.7-2.5.2-4.9.4-7.4.5-2.5.1-5 .1-7.4.4-3.7.4-7.3 1.2-10.8 2.3-.2.1-.5 0-.5.3 4.2 3 22.7 11.4 25.3 11.4-.1-.2-.2-.3-.3-.5-1.1-1.6-2.4-3-3.6-4.5-1-1.2-2-2.5-2.6-4-.1-.3-.4-.5-.2-.9.3.1.4.3.6.5 1.8 1.9 3.6 3.7 5.3 5.6 2.8 2.8 5.5 5.6 8.8 7.9 3.9 2.9 8.2 4.9 13.1 5.7.5.1 1.1 0 1.6.3-.2.1-.3.1-.3.2-2 .4-4 .4-5.9-.2-3.6-1-6.7-2.8-9.6-5.1-1.2-1-2.4-1.8-4-2.1-1.1-.2-2.1-.6-3.1-.9-5-1.6-9.8-3.7-14.5-6-3.5-1.7-6.8-3.6-10.2-5.3-2.3-1.2-4.8-1.9-7.4-2.2-3.8-.4-7.4.5-10.8 2.1-.2.1-.4.1-.4.5.2.1.3.2.5.2 7 2.1 13.5 5.3 19.5 9.3 4.5 3.1 9 6.3 13.8 8.9 3.9 2.1 7.8 4 11.8 5.8 3 1.3 6.2 1.6 9.4 1.1 1.6-.2 3.1-.8 4.6-1.1 2.4-.5 4.7-.7 7.1-.1 1.9.5 3.6.2 5.3-.8 1.1-.7 2.2-1.5 3.3-2.2 2.2-1.4 4.6-2.6 7.2-3.2.4-.1.7-.2 1.1-.1 0 .3-.2.4-.4.6-1.2 1.1-2.5 2-3.8 2.9-1.6 1.2-3.2 2.4-4.6 3.9-.5.5-1 1-1.2 1.7.2.1.4 0 .6 0 1.5-.4 2.9-.5 4.4-.5 2.5 0 4.5.9 6.3 2.6.4.3.7.7 1.1.9.8.4 1.6.3 2.3-.3.5-.5.9-1 1.1-1.7.2-.7.4-1.5.4-2.2 0-1.6-.1-3.1.1-4.7.3-2.7.2-5.5-.1-8.2-.9-4.1-1.7-8-2.3-11.9zM342.5 66.1c-.5 0-1.1 0-1.6.1s-.9 0-1.3-.1c-.9-.3-1.2-1-1.4-1.8-.2-.8.1-1.4.8-1.8.5-.3 1-.6 1.5-.8v-.2h-.5c-1.9 0-3.9.3-5.8.2-2.1-.1-4.1-.4-6-1.4-.5-.3-1-.5-1.6-.5-1.9-.1-3.4.5-4.6 2-.7.9-1.6 1.5-2.6 1.8-.7.3-1.5.4-2.3.6-2.5.5-3.3 2.3-3.3 4.2 0 1.3.6 1.9 1.9 1.9 1.5 0 3 .1 4.5.1 3.1.1 6.3-.1 9.4-.5 4-.5 7.9-1.4 11.7-2.7.7-.3 1.5-.5 2.2-.9-.4-.2-.7-.2-1-.2zM170.2 141.6c0-1.9-.2-3.8-.3-5.7-.1-1.8-.3-3.7-.3-5.5V90.5c0-1.9-1.2-3.2-2.7-4.1-1.2-.7-2.3-.1-2.3 1.3 0 2.3-.2 4.5-.4 6.8-.2 3.3-.4 6.5-.8 9.8-.3 3.6-.7 7.1-1 10.7-.3 3.3-.6 6.6-1 9.9-.4 3.8-.8 7.6-1.3 11.3-.5 4-1.2 8-1.9 11.9-.2 1.1-.4 2.1-.4 3.2 0 1.2.6 1.9 1.6 2.4.5.2 1 .3 1.5.5 2.1.5 4.2.7 6.2 1.6.2.1.4.1.7.1.9.1 1.4-.2 1.8-1.1.2-.5.3-1 .4-1.6.4-3.2.5-6.3.5-9.5-.2-.7-.3-1.4-.3-2.1zM106.8 59c4.8 4 9.8 7.8 14.9 11.3 8.6 5.9 17.5 11.1 26.7 15.8.3.2.6.4 1.1.4 0 .1.1.1.2 0l-.1-.1c-.3-.9-.9-1.4-1.6-2-4.4-3.5-8.7-7.1-12.7-11-2.9-2.8-5.7-5.7-8.3-8.8-1.5-1.8-2.9-3.7-4.2-5.5-.9-1.2-2.1-1.9-3.7-1.9H107c-.2 0-.4 0-.5.2-.3.6-.2 1.2.3 1.6zM159 209.9c-.2 3.4-.3 6.7-.4 10.1-.1 3.2-.1 6.4-.2 9.5-.2 4.3 0 8.6-.2 13-.1 2.6 0 5.1-.2 7.7-.2 2.5 0 5.1-.2 7.6-.1 2-.1 4.1-.2 6.1-.1 3.8-.3 7.6-.4 11.4-.1 3-.2 6.1-.4 9.1-.1 3.3-.3 6.6-.4 9.9-.1 2-.1 3.9-.2 5.9-.2 3-.4 6-.5 8.9-.1 2.1-.2 4.2-.3 6.4-.1 1-.2 1.9-.3 2.8 0 .8.3 1.2 1 1.2.7.1 1.1-.2 1.3-1 .1-.3.1-.6.1-.9.1-2.4 0-4.8.2-7.1.2-2.9 0-5.8.2-8.8.2-3.1 0-6.2.2-9.2.1-2.8 0-5.7.2-8.5.2-3.1 0-6.2.2-9.3.1-2.9.1-5.7.2-8.6.1-3.3.1-6.6.2-9.9.1-2.7 0-5.3.2-8 .2-3.2 0-6.4.2-9.5.1-2.9.1-5.8.2-8.7.1-3.4.1-6.8.2-10.2.1-2.5 0-5 .3-7.5.1-1 .1-2.1.2-3.1.2-2.1.2-4.3-.2-6.4-.1-.4 0-.9-.4-1.4-.3 3-.5 5.7-.6 8.5zM197 11.9c.8.3 1.4.9 1.4 1.7.3 2.4 1.1 4.7 2 6.9.8 2.1 1.6 4.1 2.1 6.3.3 1.2.3 2.4-.3 3.5-.4.8-.9 1.4-1.6 1.9-.4.4-.8.8-.8 1.3-.2 1.4.1 2.6 1.1 3.6 1.1 1 2.3.9 3.2-.3.5-.6.8-1.3 1-2 1.4-3.6 2.5-7.3 3.7-11 .1-.3.2-.6.2-.9.3-2.2.1-3.4-2.8-3.8-.7-.1-1.4 0-2.1-.1-2.5 0-3.9-1.7-3.6-4.2.2-1.6 1.2-2.5 2.8-2.5.6 0 1.2 0 1.8.2.5.1.9.2 1.4.3.5.1 1 0 1.2-.5.3-.5.3-1 0-1.5-.1-.2-.2-.3-.3-.5-1.2-1.4-2.5-2.6-4.1-3.5-1.5-.8-3-1.1-4.7-.7-1.2.3-2.3.8-3.2 1.6-1.3.9-2.4 1.9-3.6 3.2.8.3 1.5.3 2.2.3 1 .2 2 .3 3 .7zM149.4 88.6c-.2-.1-.5-.2-.7-.3-1.1-.4-2.2-.7-3.2-1.2-2.9-1.3-5.8-2.7-8.6-4.2-5-2.6-9.8-5.5-14.5-8.6-5.4-3.7-10.5-7.8-15.2-12.5-1.2-1.2-2.3-2.4-3.5-3.5-.5-.5-1-.9-1.7-.9-1.2-.1-2.4-.1-3.6-.1-4.8-.1-9.6.1-14.4-.2-1.4-.1-2.8-.3-4.3-.5-1.4-.2-2.7-.5-4-.8-.5-.1-.6 0-.5.5.2.8.5 1.6.9 2.4 2 3.9 4.4 7.6 6.9 11.2 2.7 3.7 5.6 7.2 8.4 10.7 1.9 2.4 4.3 4.2 7.3 5.1 2.2.7 4.6.8 6.6.9 3-.1 5.8-.2 8.5-.3.5 0 .6-.3.7-.7.2-.4.1-.7-.3-1-1.4-1-2.7-2-4.1-2.9-8.7-6-17-12.5-25.2-19.1-.2-.2-.6-.3-.3-.7.3-.5.5-.6 1-.3.5.2 1 .5 1.5.9 2.6 2 5.3 4 8 5.8 4.1 2.8 8.3 5.4 12.5 7.8 5.8 3.3 11.6 6.4 17.6 9.3 6.4 3.1 12.9 6.2 19.4 9.2.6.3 1.3.5 2 .7 1.2.3 2.1-.1 2.8-1 .5-.6.9-1.3 1.1-2.1.8-1.8.4-2.8-1.1-3.6zM160.2 318.9c.2.6.7.8 1.3.8.6-.1.9-.4.8-1.1-.1-.9-.1-1.9-.1-2.8.1-3.1 0-6.3.2-9.4.1-2.6 0-5.3.1-7.9.1-2.3.1-4.6.1-7v-34c-.2 4.3-.1 8.5-.3 12.8-.1 3.9-.2 7.8-.4 11.7-.2 2.8-.3 5.5-.4 8.3-.1 3.4-.2 6.8-.4 10.2-.1 2.1-.1 4.3-.3 6.4-.1 1.2-.1 2.3-.2 3.5-.2 2.6-.4 5.2-.7 7.8.2.1.2.4.3.7zM157.5 143.3c0-.8-.1-1.5 0-2.3.3-2.3.7-4.6 1-7 .3-2.4.6-4.7.9-7.1.2-2 .4-3.9.6-5.9.2-2.4.5-4.9.7-7.3.2-1.7.3-3.4.4-5 .2-2.7.5-5.4.7-8.2.2-1.8.3-3.5.4-5.3.2-2.2.5-4.5.5-6.7v-.7c.2-2.1-.8-3.5-2.6-4.5-.9-.5-1.8-1-2.8-1.4-.9-.4-1.9-1-2.9-1.2-1-.2-1.6.1-1.9 1.1-.2.5-.2 1.1-.2 1.6 0 1.6.1 3.2 0 4.9 0 6.6.1 13.2-.2 19.8-.1 3.5-.2 7-.4 10.5-.1 2.6-.2 5.2-.4 7.8-.2 2.7-.3 5.4-.5 8.1l-.3 3.6c-.1 1-.2 2-.1 3 0 .7.1 1.3.1 2-.1.7-.2 1.4-.3 2.2-.2 1.3.4 2.3 1.6 2.7.8.3 1.7.3 2.5.2 1.3-.2 2.2-.9 2.5-2.2.7-.9.7-1.8.7-2.7z"/><path fill="#D6210E" d="M175.8 217.1c-.1 1.3-.1 2.6-.1 3.9-.1 3.5-.1 6.9-.2 10.4-.1 2.5 0 5-.2 7.5-.2 2.4 0 4.9-.2 7.3-.2 2.5 0 5-.2 7.5-.2 2.4 0 4.9-.2 7.3-.2 2.6 0 5.3-.2 7.9-.2 2.6 0 5.2-.2 7.8-.2 3.1 0 6.1-.2 9.2-.2 4 0 8-.2 11.9-.2 4.1-.1 8.2-.2 12.3 0 .9-.1 1.8-.1 2.8 0 .5.1.9.1 1.4.1 1.6 2 2.2 3.2 1.6.6-.3.9-.8 1-1.4.1-.5.2-.9.2-1.4.1-1.8.1-3.6.2-5.4.3-4.3.3-8.6.4-12.9.1-3.9 0-7.8.2-11.6.2-5.2.1-10.4.2-15.5.1-4.6 0-9.2.2-13.7.2-5 0-10.1.2-15.1.2-4.7 0-9.4.2-14.1.1-3.2 0-6.4.2-9.6 0-.9.1-1.7.2-2.7l-4.4-1.9c0 .2.1.4.1.6.1 1.9.1 3.9 0 5.9z"/><path fill="#069B3F" d="M175.3 213.8v103.3c0 .9-.2 1.8-.2 2.7v.7c0 1.7.7 2.6 2 2.7 1.4.1 2.4-.9 2.6-2.5.1-.9.1-1.8.1-2.7-.1-1.4-.1-2.8 0-4.2.2-7.9.1-15.7.2-23.6.1-8 .1-16 .1-24v-49.8c0-1.1-.1-2.1.1-3.2.1-.4.2-.8.4-1.3l-5.5-2.7c.1.4.2.9.2 1.3.1 1.1 0 2.2 0 3.3z"/><path fill="#19539C" d="M241.7 205.6c.3-1.4.5-2.9.5-4.3-.1-3.9 0-7.8-.1-11.6-.1-3.7-.2-7.5-.4-11.2-.2-3.8-.3-7.6-.6-11.3-.2-2.6-.3-5.3-.5-7.9-.1-1.1-.1-2.2-.2-3.3-.2-3.2-.5-6.3-.7-9.5-.2-2.3-.3-4.6-.4-6.8-.2-3.2-.5-6.3-.7-9.5-.2-2.9-.4-5.7-.5-8.6-.2-3.6-.4-7.3-.6-10.9-.1-2.8-.2-5.6-.4-8.4-.1-2.2-.1-4.4-.2-6.7-.1-5.9-.1-11.8 0-17.7 0-1.1-.1-2.3.3-3.5.2.5.3.9.5 1.4.3.8.5 1.6 1 2.3.5.8 1.1 1 2 .7.8-.3 1.6-.7 2.3-1.1 1.8-1 3.5-2.3 5.3-3.4.7-.4 1.3-.9 1.9-1.4 1.2-1 2.2-2 3.5-2.9.8-.6 1.7-1.1 2.7-1.4.2 1.1-.1 1.9-.7 2.6-1.7 1.8-3.4 3.7-5.4 5.3-2.7 2.3-5.7 4.2-8.7 6.2-2.8 1.8-3.9 4.5-3.6 7.7.1 1.8 1.7 3.1 3.5 2.9.5-.1 1-.3 1.5-.5 1.2-.7 2.4-1.3 3.6-1.9 1.9-.9 3.7-2 5.5-3.2 3.4-2.2 6.5-4.8 9.6-7.4 1.8-1.5 3.7-3 5.6-4.2 3.6-2.3 7.4-4.2 11.3-5.9.2-.1.4-.2.7-.2v-.1c.1.1 0 .1 0 .1 0 .1-.1.1-.1.2s-.1.1-.2.2c-4 3.1-7.6 6.6-11.3 10.1-2.7 2.5-5.3 4.9-8.1 7.3-4.5 3.8-9.3 7.2-14.6 9.7-.2.1-.4.1-.5.4h.4c2.6-.6 5.2-1.3 7.8-2.1 7.1-2.2 13.9-5.2 20.6-8.4 4.5-2.2 9-4.5 13.4-6.9 3.1-1.6 6.1-3.3 9.2-4.8.7-.4 1.4-.9 2.2-1 0-.1 0-.1.1-.1.1.1 0 .1-.1.1 0 .1-.1.2-.2.3l-.3.3c-.2.2-.4.3-.5.5-1.7 1.4-3.4 2.8-5.1 4.1-4.9 3.6-10.1 6.8-15.2 10-1.1.7-2.2 1.4-3.5 2.2.5.1.8.2 1.1.2 2.5.2 5 .4 7.5.4 4.7 0 9.5-.1 14.2-.4.8 0 1.5-.4 1.9-1.1 2.8-4.1 5.7-8.1 8.3-12.3 2.2-3.5 4.1-7.2 5.7-11.1.3-.7.5-1.3.6-2 .1-1.3-.7-1.7-1.7-1.7-.2 0-.3.1-.5.1-2.2.5-4.5 1-6.7 1.3-1.7.2-3.3.5-5 .6-3.3.2-6.6-.2-9.9-.6-2.2-.3-4.4-.5-6.5-.6-2.7-.2-5.4.3-8.1.6-1.8.3-3.5.4-5.3.1-4.1-.8-8.2-1.5-12.3-2.4-4.4-1-8.8-2.2-13-4.1-3.6-1.6-7.3-3-11.1-4-2.8-.7-5.5-1.5-8.4-1.7-1.6-.1-2.6.3-3.1 1.6-.3.7-.4 1.5-.3 2.3.1 1.5.3 3 .3 4.6.1 2 .2 3.9.3 5.9v1.9c-.4-.2-.5-.5-.6-.8-1.3-2.2-1.7-4.8-2-7.3-.2-2-.3-3.9-.8-5.8-.2-.8-.4-1.6-.9-2.3-.6.6-.7 1.3-.6 2.1.2 2.4.5 4.7.9 7.1.4 2.9.7 5.7.8 8.6.2 3.2.3 6.5.4 9.7.1 3.5.2 6.9.4 10.4.1 3.6.2 7.2.4 10.8.1 3.7.2 7.3.4 11 .1 3.6.2 7.2.4 10.9.1 3.3.2 6.7.4 10 .1 3.4.3 6.8.4 10.2.1 2.8.2 5.5.4 8.3.2 3 .3 6.1.4 9.1.1 1.7.1 3.3.2 5 .1 2.8.1 5.7.1 8.5 0 .7 0 .7-.7.8-1.1.2-2.3.3-3.4.4-.9.1-1 .1-1-.8 0-6.5.1-13-.2-19.5-.1-2.3 0-4.7-.2-7.1-.1-2.2-.1-4.3-.2-6.5-.1-3.8-.3-7.6-.4-11.3-.1-4-.2-7.9-.4-11.9-.1-2.9-.1-5.7-.2-8.6-.1-2.2-1.1-3.8-3-4.9-4.2-2.2-8.3-4.7-12.4-7.1-.2-.1-.5-.3-.7-.5-.2-.3-.5-.5-.3-.9s.6-.4.9-.3c.2 0 .5.1.7.1.3 0 .5 0 .7-.3.1-.2 0-.4-.1-.6-.3-.5-.6-1-1-1.4-1.2-1.6-2.6-3-4.5-3.9-2.2-1.1-4.5-1.1-6.9-.5-1.1.3-2.2.5-3.4.4-1.7-.1-3.5-.1-5.2-.1h-5.9c-.3 0-.6-.1-.8.1 0 .4.3.5.5.8 2.7 3.1 5.6 6.1 8.6 8.9 3.4 3.2 7 6.3 10.4 9.5.5.5 1.1.9 1.5 1.6l.1.1c-.1.1-.1 0-.1-.1-.3 0-.5-.1-.7-.2-.1-.1-.2-.2-.3-.2-4.4-2.7-8.4-6-12.2-9.4-2.8-2.5-5.5-5-8.2-7.6l-.2-.2-.1-.1c-.1-.1-.3-.2-.5-.3v3.9c0 3.6-.2 7.2.2 10.8.2 2.5.7 5 1.6 7.4 1.4 3.6 3 7.2 4.5 10.7 3.8 8.6 7.7 17.2 11.4 25.8 2.3 5.4 4.5 10.8 6.6 16.3 1.2 3.1 2.3 6.3 4 9.1.1.1.2.3 0 .4-1.2.2-1.2.2-1.7-.8-2.7-5.2-5.4-10.4-8-15.7-4-8.3-7.6-16.7-10.9-25.3-2-5.4-4-10.9-5.6-16.4-.3-1.1-.7-2.1-1.4-3-.3-.4-.6-.9-1.3-1.2V157.9c0 1.7-.1 3.3-.4 4.9-.5 2.6-1.7 4.7-4.1 6-1.2.7-2.5 1-3.9 1.2-1 .2-1.6.7-2 1.6-.2.5-.4 1.1-.4 1.7 0 .6-.1 1.1-.3 1.6-1.2 3.4-1.4 6.9-.7 10.4.7 3.7 2.4 6.9 4.6 10 .3.5.6 1 .8 1.5.8 2.3 2.3 4 4.5 5.1 1 .6 2.2.9 3.3 1.2.6.1 1.1.3 1.7.6 1.7 1 3.3 1.9 5 2.8.2.1.6.3.7.5.2.6.7.8 1.2 1 4.7 2.6 9.5 5.1 14.3 7.5 6.1 3 12.2 5.8 18.4 8.6.5.2 1 .5 1.5.6 1.8.3 3.6.2 5.4-.1 2.5-.5 4.6-1.7 6.6-3.1 1.9-1.3 3.5-3 4.7-5 .3-.4.6-.7 1.1-.9 2-.7 3.8-1.9 5.2-3.6.9-1.1 1.7-2.4 2.2-3.8.2-.5.4-.8 1-.8.4 0 .9-.2 1.3-.3.1-.3.1-.6.2-.9-.4.1-.9.2-1.3.2-.6-.2-.6-.3-.5-.8z"/><path fill="#1A1F83" d="M297.6 74.9l.3-.3-.3.3zM297.1 75.4c.2-.2.4-.3.5-.5-.1.2-.3.3-.5.5zM279.2 69.8zM298.1 74.3v.1zM279.2 69.8zM172.7 93.3c-.1-.1-.3-.2-.5-.3.2.1.4.2.5.3zM194.4 111c-.3 0-.5-.1-.7-.2.2.2.4.3.7.2zM298.1 74.4v-.1.1z"/><path fill="none" d="M168.9 318.8c1.4 0 2.8-.3 4.3-.4 1.6-.2 3.2-.3 4.8-.4 2.5-.2 5-.2 7.4.2 1.2.2 2.4.5 3.8.8-.2-1.6-.1-3-.2-4.5-.3-4-.4-8-.5-12-.1-10.2 0-20.5 0-30.7V218c-.1-.7-.3-1.4-.6-2-.2-.3-.5-.7-.9-.9-.1.2-.1.3-.2.5l-5.5-2.4c-.2-.5-.4-1-.9-1.5-.1.3-.1.7-.2 1l-4.4-1.9c-.1-.4-.4-.8-.8-1.2-.1.2-.2.5-.3.7l-4.4-1.9c-.1-.4-.3-.7-.7-.9-.4-.2-.6-.2-.8.2-.3.7-.5 1.3-.6 2.1 0 3.1-.1 6.3-.2 9.4-.1 7 .1 13.9-.2 20.9-.1 4.2 0 8.3-.2 12.5-.1 3.8-.2 7.6-.4 11.3-.1 3.4-.2 6.9-.2 10.3-.1 9.7.1 19.5-.2 29.2 0 1.7 0 3.5-.1 5.2-.1 2.6-.3 5.3-.4 7.9.2 1.9.6 2.3 2.6 2.3zM106.8 59c4.8 4 9.8 7.8 14.9 11.3 8.6 5.9 17.5 11.1 26.7 15.8.3.2.6.4 1.1.4 0 .1.1.1.2 0l-.1-.1c-.3-.9-.9-1.4-1.6-2-4.4-3.5-8.7-7.1-12.7-11-2.9-2.8-5.7-5.7-8.3-8.8-1.5-1.8-2.9-3.7-4.2-5.5-.9-1.2-2.1-1.9-3.7-1.9H107c-.2 0-.4 0-.5.2-.3.6-.2 1.2.3 1.6zM197 11.9c.8.3 1.4.9 1.4 1.7.3 2.4 1.1 4.7 2 6.9.8 2.1 1.6 4.1 2.1 6.3.3 1.2.3 2.4-.3 3.5-.4.8-.9 1.4-1.6 1.9-.4.4-.8.8-.8 1.3-.2 1.4.1 2.6 1.1 3.6 1.1 1 2.3.9 3.2-.3.5-.6.8-1.3 1-2 1.4-3.6 2.5-7.3 3.7-11 .1-.3.2-.6.2-.9.3-2.2.1-3.4-2.8-3.8-.7-.1-1.4 0-2.1-.1-2.5 0-3.9-1.7-3.6-4.2.2-1.6 1.2-2.5 2.8-2.5.6 0 1.2 0 1.8.2.5.1.9.2 1.4.3.5.1 1 0 1.2-.5.3-.5.3-1 0-1.5-.1-.2-.2-.3-.3-.5-1.2-1.4-2.5-2.6-4.1-3.5-1.5-.8-3-1.1-4.7-.7-1.2.3-2.3.8-3.2 1.6-1.3.9-2.4 1.9-3.6 3.2.8.3 1.5.3 2.2.3 1 .2 2 .3 3 .7zM149.4 88.6c-.2-.1-.5-.2-.7-.3-1.1-.4-2.2-.7-3.2-1.2-2.9-1.3-5.8-2.7-8.6-4.2-5-2.6-9.8-5.5-14.5-8.6-5.4-3.7-10.5-7.8-15.2-12.5-1.2-1.2-2.3-2.4-3.5-3.5-.5-.5-1-.9-1.7-.9-1.2-.1-2.4-.1-3.6-.1-4.8-.1-9.6.1-14.4-.2-1.4-.1-2.8-.3-4.3-.5-1.4-.2-2.7-.5-4-.8-.5-.1-.6 0-.5.5.2.8.5 1.6.9 2.4 2 3.9 4.4 7.6 6.9 11.2 2.7 3.7 5.6 7.2 8.4 10.7 1.9 2.4 4.3 4.2 7.3 5.1 2.2.7 4.6.8 6.6.9 3-.1 5.8-.2 8.5-.3.5 0 .6-.3.7-.7.2-.4.1-.7-.3-1-1.4-1-2.7-2-4.1-2.9-8.7-6-17-12.5-25.2-19.1-.2-.2-.6-.3-.3-.7.3-.5.5-.6 1-.3.5.2 1 .5 1.5.9 2.6 2 5.3 4 8 5.8 4.1 2.8 8.3 5.4 12.5 7.8 5.8 3.3 11.6 6.4 17.6 9.3 6.4 3.1 12.9 6.2 19.4 9.2.6.3 1.3.5 2 .7 1.2.3 2.1-.1 2.8-1 .5-.6.9-1.3 1.1-2.1.8-1.8.4-2.8-1.1-3.6zM196.7 320c2.7.2 3.9-.8 3.6-3.4-.3-2.4-.5-4.7-.7-7.1-.2-3.6-.3-7.3-.4-11-.1-3.5-.2-6.9-.6-10.4-.1-1.2-.2-2.3-.2-3.5V220.7c-.2-1.1-.8-1.5-1.9-1.5-1 0-1.4.5-1.5 1.6v.8c.4 1.7.3 3.5.3 5.2 0 11.8-.1 23.6.2 35.4.1 2.2 0 4.5 0 6.7-.1 7.3.1 14.6-.1 21.9-.1 3 0 5.9-.2 8.9-.1 2.6-.2 5.1-.3 7.7v1.5c-.2 2.6-.3 5.2-.5 7.8v1.1c.3 1.4.9 2.1 2.3 2.2zM72.9 58.3c-.4-.7-.9-1.2-1.8-1.4-1-.2-1.9-.6-2.7-1.1-1.2-.7-2.3-1.5-3.5-2.2-1.1-.7-2.2-1.3-3.4-1.7-.9-.3-1.8-.3-2.7-.5-.6-.1-1.1 0-1.6.6-1.1 1.3-2.6 1.8-4.3 1.6-1.3-.1-2.5-.3-3.8-.4-.5-.1-.9 0-1.4.2.1.7.4 1.4.6 2.1.3 1-.3 1.8-1.2 2-.8.2-1.6.3-2.4.4-.7 0-1.4.1-2.2.2.6.2 1.1.5 1.6.7 1.6.6 3.1 1.4 4.7 1.8 3.7.9 7.4 1.1 11.1 1.3 1.7.1 3.4-.1 5.1.1 2.2.2 4.4 0 6.6.3 1.5.2 2-.9 1.9-2.2-.1-.7-.3-1.2-.6-1.8zM157.5 143.3c0-.8-.1-1.5 0-2.3.3-2.3.7-4.6 1-7 .3-2.4.6-4.7.9-7.1.2-2 .4-3.9.6-5.9.2-2.4.5-4.9.7-7.3.2-1.7.3-3.4.4-5 .2-2.7.5-5.4.7-8.2.2-1.8.3-3.5.4-5.3.2-2.2.5-4.5.5-6.7v-.7c.2-2.1-.8-3.5-2.6-4.5-.9-.5-1.8-1-2.8-1.4-.9-.4-1.9-1-2.9-1.2-1-.2-1.6.1-1.9 1.1-.2.5-.2 1.1-.2 1.6 0 1.6.1 3.2 0 4.9 0 6.6.1 13.2-.2 19.8-.1 3.5-.2 7-.4 10.5-.1 2.6-.2 5.2-.4 7.8-.2 2.7-.3 5.4-.5 8.1l-.3 3.6c-.1 1-.2 2-.1 3 0 .7.1 1.3.1 2-.1.7-.2 1.4-.3 2.2-.2 1.3.4 2.3 1.6 2.7.8.3 1.7.3 2.5.2 1.3-.2 2.2-.9 2.5-2.2.7-.9.7-1.8.7-2.7zM237 239.1c.6 1.5 1.2 2.9 2.1 4.2.1-.2.1-.3 0-.4-.4-2-.6-4.1-.6-6.2-.1-5.5-.1-10.9-.1-16.4v-.4c-.1-1-.9-1.5-1.8-1.2-.9.2-1.3.8-1.4 2.1-.2 2.7-.2 5.3-.2 8 .1 3.6.7 7 2 10.3zM213 56.7c-.1-.6-.1-1.1 0-1.7.1-.7.3-1.4.3-2.1 0-.6-.3-1-.9-1.2-1.1-.4-2.2.1-2.5 1.3-.4 1.9-1 3.8-1 5.7 0 1.3-.1 2.7-.4 4-.3 1.1-.9 2-2.1 2.8.1-1 .2-1.9.2-2.8 0-.3.1-.5.1-.8.2-1.7.8-3.3 1.1-4.9.3-1.1.5-2.3.4-3.5-.2-2.2-1.3-3.9-3.2-5.1-.7-.5-.9-1-1-1.8-.1-1.5-.2-2.9-.2-4.4 0-.7-.2-1.3-.4-1.8-.1-.3-.3-.5-.6-.1-.4.4-.8.8-1.1 1.2-.8 1.1-1.3 2.2-1.8 3.4-.5 1-.9 2-1.4 3-.3.5-.7.9-1.3 1.1-1.1.2-2.1-.2-2.7-1.2-.2-.3-.4-.7-.6-1.1-.5-1.2-1.2-2.3-2-3.4-1.3-1.7-2.6-3.4-3.4-5.4 0-.1-.1-.2-.2-.1-.2.2-.1.5-.1.7-.2 1.6-.2 3.2-.3 4.7-.3 2.6-1.4 4.5-3.8 5.6-2.1.9-2.4 1.9-1.4 4 1 2.2 2.1 4.5 3.2 6.7.6 1.2 1.3 2.4 1.7 3.7l-.1.1c-.9-.5-1.6-1.4-2.2-2.2-1.8-2.2-3.1-4.8-4-7.4-.3-.7-.5-1.5-.9-2.2-.9-1.6-2.2-2.4-4-2.4-2.2 0-4.4.5-6.6.7-2.5.2-4.9.4-7.4.5-2.5.1-5 .1-7.4.4-3.7.4-7.3 1.2-10.8 2.3-.2.1-.5 0-.5.3 4.2 3 22.7 11.4 25.3 11.4-.1-.2-.2-.3-.3-.5-1.1-1.6-2.4-3-3.6-4.5-1-1.2-2-2.5-2.6-4-.1-.3-.4-.5-.2-.9.3.1.4.3.6.5 1.8 1.9 3.6 3.7 5.3 5.6 2.8 2.8 5.5 5.6 8.8 7.9 3.9 2.9 8.2 4.9 13.1 5.7.5.1 1.1 0 1.6.3-.2.1-.3.1-.3.2-2 .4-4 .4-5.9-.2-3.6-1-6.7-2.8-9.6-5.1-1.2-1-2.4-1.8-4-2.1-1.1-.2-2.1-.6-3.1-.9-5-1.6-9.8-3.7-14.5-6-3.5-1.7-6.8-3.6-10.2-5.3-2.3-1.2-4.8-1.9-7.4-2.2-3.8-.4-7.4.5-10.8 2.1-.2.1-.4.1-.4.5.2.1.3.2.5.2 7 2.1 13.5 5.3 19.5 9.3 4.5 3.1 9 6.3 13.8 8.9 3.9 2.1 7.8 4 11.8 5.8 3 1.3 6.2 1.6 9.4 1.1 1.6-.2 3.1-.8 4.6-1.1 2.4-.5 4.7-.7 7.1-.1 1.9.5 3.6.2 5.3-.8 1.1-.7 2.2-1.5 3.3-2.2 2.2-1.4 4.6-2.6 7.2-3.2.4-.1.7-.2 1.1-.1 0 .3-.2.4-.4.6-1.2 1.1-2.5 2-3.8 2.9-1.6 1.2-3.2 2.4-4.6 3.9-.5.5-1 1-1.2 1.7.2.1.4 0 .6 0 1.5-.4 2.9-.5 4.4-.5 2.5 0 4.5.9 6.3 2.6.4.3.7.7 1.1.9.8.4 1.6.3 2.3-.3.5-.5.9-1 1.1-1.7.2-.7.4-1.5.4-2.2 0-1.6-.1-3.1.1-4.7.3-2.7.2-5.5-.1-8.2-.9-4.1-1.7-8-2.3-11.9zM190.4 81.9c-2-.5-4.1-.5-6.1-.2-2.1.4-4.1 1-6.2 1.7-.6.2-1.2.2-1.7.6l.2.2c2.1 1.1 4 2.4 6.2 3.3 2.2 1 4.5 1.3 6.9.8 3.1-.7 6.3-1.2 9.4-1.8 2-.3 4-.7 6-1.2-1.9-.3-3.8-.5-5.6-1-3.1-.7-6.1-1.6-9.1-2.4zM342.5 66.1c-.5 0-1.1 0-1.6.1s-.9 0-1.3-.1c-.9-.3-1.2-1-1.4-1.8-.2-.8.1-1.4.8-1.8.5-.3 1-.6 1.5-.8v-.2h-.5c-1.9 0-3.9.3-5.8.2-2.1-.1-4.1-.4-6-1.4-.5-.3-1-.5-1.6-.5-1.9-.1-3.4.5-4.6 2-.7.9-1.6 1.5-2.6 1.8-.7.3-1.5.4-2.3.6-2.5.5-3.3 2.3-3.3 4.2 0 1.3.6 1.9 1.9 1.9 1.5 0 3 .1 4.5.1 3.1.1 6.3-.1 9.4-.5 4-.5 7.9-1.4 11.7-2.7.7-.3 1.5-.5 2.2-.9-.4-.2-.7-.2-1-.2zM160.2 318.9c.2.6.7.8 1.3.8.6-.1.9-.4.8-1.1-.1-.9-.1-1.9-.1-2.8.1-3.1 0-6.3.2-9.4.1-2.6 0-5.3.1-7.9.1-2.3.1-4.6.1-7v-34c-.2 4.3-.1 8.5-.3 12.8-.1 3.9-.2 7.8-.4 11.7-.2 2.8-.3 5.5-.4 8.3-.1 3.4-.2 6.8-.4 10.2-.1 2.1-.1 4.3-.3 6.4-.1 1.2-.1 2.3-.2 3.5-.2 2.6-.4 5.2-.7 7.8.2.1.2.4.3.7zM159 209.9c-.2 3.4-.3 6.7-.4 10.1-.1 3.2-.1 6.4-.2 9.5-.2 4.3 0 8.6-.2 13-.1 2.6 0 5.1-.2 7.7-.2 2.5 0 5.1-.2 7.6-.1 2-.1 4.1-.2 6.1-.1 3.8-.3 7.6-.4 11.4-.1 3-.2 6.1-.4 9.1-.1 3.3-.3 6.6-.4 9.9-.1 2-.1 3.9-.2 5.9-.2 3-.4 6-.5 8.9-.1 2.1-.2 4.2-.3 6.4-.1 1-.2 1.9-.3 2.8 0 .8.3 1.2 1 1.2.7.1 1.1-.2 1.3-1 .1-.3.1-.6.1-.9.1-2.4 0-4.8.2-7.1.2-2.9 0-5.8.2-8.8.2-3.1 0-6.2.2-9.2.1-2.8 0-5.7.2-8.5.2-3.1 0-6.2.2-9.3.1-2.9.1-5.7.2-8.6.1-3.3.1-6.6.2-9.9.1-2.7 0-5.3.2-8 .2-3.2 0-6.4.2-9.5.1-2.9.1-5.8.2-8.7.1-3.4.1-6.8.2-10.2.1-2.5 0-5 .3-7.5.1-1 .1-2.1.2-3.1.2-2.1.2-4.3-.2-6.4-.1-.4 0-.9-.4-1.4-.3 3-.5 5.7-.6 8.5zM166.9 159.2c-1.1-.6-2.3-.8-3.5-1.1-1.7-.4-2.6.1-3.5 1.6-.1.3-.3.5-.4.8-1.1 2.6-1.7 5.3-2.2 8.1-.3 1.7-.4 3.5-.5 5.2-.1 1.3 0 2.7 0 4.2.4-.6.5-1.1.5-1.7.1-1.7.3-3.3.8-5 .7-2.5 2.1-4.4 4.6-5.3 1.3-.5 2.7-.7 4.1-.6 2 .1 2.8-1.8 2.4-3.1-.3-1.4-1.1-2.4-2.3-3.1zM170.2 141.6c0-1.9-.2-3.8-.3-5.7-.1-1.8-.3-3.7-.3-5.5V90.5c0-1.9-1.2-3.2-2.7-4.1-1.2-.7-2.3-.1-2.3 1.3 0 2.3-.2 4.5-.4 6.8-.2 3.3-.4 6.5-.8 9.8-.3 3.6-.7 7.1-1 10.7-.3 3.3-.6 6.6-1 9.9-.4 3.8-.8 7.6-1.3 11.3-.5 4-1.2 8-1.9 11.9-.2 1.1-.4 2.1-.4 3.2 0 1.2.6 1.9 1.6 2.4.5.2 1 .3 1.5.5 2.1.5 4.2.7 6.2 1.6.2.1.4.1.7.1.9.1 1.4-.2 1.8-1.1.2-.5.3-1 .4-1.6.4-3.2.5-6.3.5-9.5-.2-.7-.3-1.4-.3-2.1zM168.9 318.8c1.4 0 2.8-.3 4.3-.4 1.6-.2 3.2-.3 4.8-.4 2.5-.2 5-.2 7.4.2 1.2.2 2.4.5 3.8.8-.2-1.6-.1-3-.2-4.5-.3-4-.4-8-.5-12-.1-10.2 0-20.5 0-30.7V218c-.1-.7-.3-1.4-.6-2-.2-.3-.5-.7-.9-.9-.1.2-.1.3-.2.5l-5.5-2.4c-.2-.5-.4-1-.9-1.5-.1.3-.1.7-.2 1l-4.4-1.9c-.1-.4-.4-.8-.8-1.2-.1.2-.2.5-.3.7l-4.4-1.9c-.1-.4-.3-.7-.7-.9-.4-.2-.6-.2-.8.2-.3.7-.5 1.3-.6 2.1 0 3.1-.1 6.3-.2 9.4-.1 7 .1 13.9-.2 20.9-.1 4.2 0 8.3-.2 12.5-.1 3.8-.2 7.6-.4 11.3-.1 3.4-.2 6.9-.2 10.3-.1 9.7.1 19.5-.2 29.2 0 1.7 0 3.5-.1 5.2-.1 2.6-.3 5.3-.4 7.9.2 1.9.6 2.3 2.6 2.3zM196.7 320c2.7.2 3.9-.8 3.6-3.4-.3-2.4-.5-4.7-.7-7.1-.2-3.6-.3-7.3-.4-11-.1-3.5-.2-6.9-.6-10.4-.1-1.2-.2-2.3-.2-3.5V220.7c-.2-1.1-.8-1.5-1.9-1.5-1 0-1.4.5-1.5 1.6v.8c.4 1.7.3 3.5.3 5.2 0 11.8-.1 23.6.2 35.4.1 2.2 0 4.5 0 6.7-.1 7.3.1 14.6-.1 21.9-.1 3 0 5.9-.2 8.9-.1 2.6-.2 5.1-.3 7.7v1.5c-.2 2.6-.3 5.2-.5 7.8v1.1c.3 1.4.9 2.1 2.3 2.2zM197 11.9c.8.3 1.4.9 1.4 1.7.3 2.4 1.1 4.7 2 6.9.8 2.1 1.6 4.1 2.1 6.3.3 1.2.3 2.4-.3 3.5-.4.8-.9 1.4-1.6 1.9-.4.4-.8.8-.8 1.3-.2 1.4.1 2.6 1.1 3.6 1.1 1 2.3.9 3.2-.3.5-.6.8-1.3 1-2 1.4-3.6 2.5-7.3 3.7-11 .1-.3.2-.6.2-.9.3-2.2.1-3.4-2.8-3.8-.7-.1-1.4 0-2.1-.1-2.5 0-3.9-1.7-3.6-4.2.2-1.6 1.2-2.5 2.8-2.5.6 0 1.2 0 1.8.2.5.1.9.2 1.4.3.5.1 1 0 1.2-.5.3-.5.3-1 0-1.5-.1-.2-.2-.3-.3-.5-1.2-1.4-2.5-2.6-4.1-3.5-1.5-.8-3-1.1-4.7-.7-1.2.3-2.3.8-3.2 1.6-1.3.9-2.4 1.9-3.6 3.2.8.3 1.5.3 2.2.3 1 .2 2 .3 3 .7zM106.8 59c4.8 4 9.8 7.8 14.9 11.3 8.6 5.9 17.5 11.1 26.7 15.8.3.2.6.4 1.1.4 0 .1.1.1.2 0l-.1-.1c-.3-.9-.9-1.4-1.6-2-4.4-3.5-8.7-7.1-12.7-11-2.9-2.8-5.7-5.7-8.3-8.8-1.5-1.8-2.9-3.7-4.2-5.5-.9-1.2-2.1-1.9-3.7-1.9H107c-.2 0-.4 0-.5.2-.3.6-.2 1.2.3 1.6zM149.4 88.6c-.2-.1-.5-.2-.7-.3-1.1-.4-2.2-.7-3.2-1.2-2.9-1.3-5.8-2.7-8.6-4.2-5-2.6-9.8-5.5-14.5-8.6-5.4-3.7-10.5-7.8-15.2-12.5-1.2-1.2-2.3-2.4-3.5-3.5-.5-.5-1-.9-1.7-.9-1.2-.1-2.4-.1-3.6-.1-4.8-.1-9.6.1-14.4-.2-1.4-.1-2.8-.3-4.3-.5-1.4-.2-2.7-.5-4-.8-.5-.1-.6 0-.5.5.2.8.5 1.6.9 2.4 2 3.9 4.4 7.6 6.9 11.2 2.7 3.7 5.6 7.2 8.4 10.7 1.9 2.4 4.3 4.2 7.3 5.1 2.2.7 4.6.8 6.6.9 3-.1 5.8-.2 8.5-.3.5 0 .6-.3.7-.7.2-.4.1-.7-.3-1-1.4-1-2.7-2-4.1-2.9-8.7-6-17-12.5-25.2-19.1-.2-.2-.6-.3-.3-.7.3-.5.5-.6 1-.3.5.2 1 .5 1.5.9 2.6 2 5.3 4 8 5.8 4.1 2.8 8.3 5.4 12.5 7.8 5.8 3.3 11.6 6.4 17.6 9.3 6.4 3.1 12.9 6.2 19.4 9.2.6.3 1.3.5 2 .7 1.2.3 2.1-.1 2.8-1 .5-.6.9-1.3 1.1-2.1.8-1.8.4-2.8-1.1-3.6zM237 239.1c.6 1.5 1.2 2.9 2.1 4.2.1-.2.1-.3 0-.4-.4-2-.6-4.1-.6-6.2-.1-5.5-.1-10.9-.1-16.4v-.4c-.1-1-.9-1.5-1.8-1.2-.9.2-1.3.8-1.4 2.1-.2 2.7-.2 5.3-.2 8 .1 3.6.7 7 2 10.3zM72.9 58.3c-.4-.7-.9-1.2-1.8-1.4-1-.2-1.9-.6-2.7-1.1-1.2-.7-2.3-1.5-3.5-2.2-1.1-.7-2.2-1.3-3.4-1.7-.9-.3-1.8-.3-2.7-.5-.6-.1-1.1 0-1.6.6-1.1 1.3-2.6 1.8-4.3 1.6-1.3-.1-2.5-.3-3.8-.4-.5-.1-.9 0-1.4.2.1.7.4 1.4.6 2.1.3 1-.3 1.8-1.2 2-.8.2-1.6.3-2.4.4-.7 0-1.4.1-2.2.2.6.2 1.1.5 1.6.7 1.6.6 3.1 1.4 4.7 1.8 3.7.9 7.4 1.1 11.1 1.3 1.7.1 3.4-.1 5.1.1 2.2.2 4.4 0 6.6.3 1.5.2 2-.9 1.9-2.2-.1-.7-.3-1.2-.6-1.8zM225.5 232.5c0-.2 0-.3-.2-.4-.5-.3-1.3 0-1.5.6-.2.8-.4 1.5-.4 2.3l2.5 1.2c-.1-1.2-.3-2.4-.4-3.7zM231.8 237.9c-.1-.2-.3-.4-.6-.3-.3.1-.3.3-.3.5v.4l1.1.5c0-.3 0-.7-.2-1.1zM204.5 248.6c.2 5.1 0 10.1.2 15.2.2 4.8.1 9.6.2 14.4.1 5.5.1 11 .2 16.5.1 5.6.1 11.1.2 16.7v4c0 .6.1 1.2.3 1.8.4 1 .9 1.3 1.9 1.3.9 0 1.6-.3 2.4-.7.7-.3 1.3-.4 2-.3 3.2.6 6.5.8 9.8 1.2 3.2.4 6.3.9 9.4 2 .7.3 1.5.4 2.3.3.9 0 1.5-.5 1.8-1.4.2-.5.2-1 .2-1.5-.1-2-.3-4.1-.4-6.1-.2-3.1-.5-6.2-.7-9.3-.2-2.9-.4-5.9-.6-8.8-.2-3.6-.4-7.3-.6-10.9-.1-2.6-.3-5.2-.4-7.8-.1-3.5-.2-6.9-.4-10.4-.1-2.1-.1-4.2-.2-6.3-.1-3.2-.1-6.5-.2-9.7-.1-3.2 0-6.5-.1-9.7l-1.1-.5c-.1 1.1-.1 2.1-.2 3.2-.1 2.2.1 4.4.2 6.6 0 1.3.1 2.7.2 4 .4 3.9.6 7.7.7 11.6.1 4.1.2 8.2.4 12.3.1 2.9.2 5.7.4 8.6.1 2.7.2 5.5.4 8.2.2 3.4.3 6.8.4 10.2.1 4.5.1 9.1.2 13.6 0 .5-.1 1.1-.2 1.6-.2.8-.8 1.3-1.6 1.4-1.2.1-1.9-.4-2.2-1.6-.4-1.9-.8-3.8-.8-5.7-.1-3 0-6-.1-9.1-.2-3.5 0-7-.2-10.5-.1-2.2-.1-4.4-.2-6.6-.1-3.7-.2-7.4-.4-11-.1-3.1-.2-6.2-.4-9.2-.1-3-.3-6-.4-9-.1-2.9-.3-5.8-.4-8.7-.1-3.5-.2-6.9-.6-10.4-.1-.6-.1-1.1-.2-1.7l-2.5-1.2v.3c0 2 .2 4.1.4 6.1.2 3.3.4 6.5.6 9.8.1 2.6.3 5.2.4 7.8.1 3.5.3 6.9.4 10.4.1 2 .1 4.1.2 6.1.1 2.5.1 5 .2 7.5.1 2.7.1 5.3.2 8 .1 3.2.1 6.5.2 9.7.1 3.4.1 6.7.3 10.1 0 .3.1.7.1 1 .1 1 .1 2 0 3s-.4 1.9-1.5 2.1c-1.8.4-3.3 0-3.6-2.3V311.4c0-1.3.2-2.5.1-3.8-.1-1.1-.1-2.2-.1-3.2-.1-4.4 0-8.7-.2-13.1-.1-2.5 0-5-.2-7.5-.1-2-.1-3.9-.2-5.9-.1-3.8-.3-7.6-.4-11.4-.1-3-.2-6-.4-9-.1-3.5-.3-7-.4-10.5-.1-3.2-.2-6.4-.4-9.5-.1-1.6-.3-3.1-.5-4.7l-3.5-1.7 3.5 1.7c-.1-1.1-.3-2.2-.4-3.3-.1-.5 0-1.1-.2-1.6-1.1.4-1.3.5-1.2 1.5l-12.1-5.8c-.2 2.2-.4 4.4-.4 6.5 0 1.3.1 2.5.1 3.8.2 4.9.1 9.8.3 14.7zM170.2 141.6c0-1.9-.2-3.8-.3-5.7-.1-1.8-.3-3.7-.3-5.5V90.5c0-1.9-1.2-3.2-2.7-4.1-1.2-.7-2.3-.1-2.3 1.3 0 2.3-.2 4.5-.4 6.8-.2 3.3-.4 6.5-.8 9.8-.3 3.6-.7 7.1-1 10.7-.3 3.3-.6 6.6-1 9.9-.4 3.8-.8 7.6-1.3 11.3-.5 4-1.2 8-1.9 11.9-.2 1.1-.4 2.1-.4 3.2 0 1.2.6 1.9 1.6 2.4.5.2 1 .3 1.5.5 2.1.5 4.2.7 6.2 1.6.2.1.4.1.7.1.9.1 1.4-.2 1.8-1.1.2-.5.3-1 .4-1.6.4-3.2.5-6.3.5-9.5-.2-.7-.3-1.4-.3-2.1zM190.4 81.9c-2-.5-4.1-.5-6.1-.2-2.1.4-4.1 1-6.2 1.7-.6.2-1.2.2-1.7.6l.2.2c2.1 1.1 4 2.4 6.2 3.3 2.2 1 4.5 1.3 6.9.8 3.1-.7 6.3-1.2 9.4-1.8 2-.3 4-.7 6-1.2-1.9-.3-3.8-.5-5.6-1-3.1-.7-6.1-1.6-9.1-2.4zM213 56.7c-.1-.6-.1-1.1 0-1.7.1-.7.3-1.4.3-2.1 0-.6-.3-1-.9-1.2-1.1-.4-2.2.1-2.5 1.3-.4 1.9-1 3.8-1 5.7 0 1.3-.1 2.7-.4 4-.3 1.1-.9 2-2.1 2.8.1-1 .2-1.9.2-2.8 0-.3.1-.5.1-.8.2-1.7.8-3.3 1.1-4.9.3-1.1.5-2.3.4-3.5-.2-2.2-1.3-3.9-3.2-5.1-.7-.5-.9-1-1-1.8-.1-1.5-.2-2.9-.2-4.4 0-.7-.2-1.3-.4-1.8-.1-.3-.3-.5-.6-.1-.4.4-.8.8-1.1 1.2-.8 1.1-1.3 2.2-1.8 3.4-.5 1-.9 2-1.4 3-.3.5-.7.9-1.3 1.1-1.1.2-2.1-.2-2.7-1.2-.2-.3-.4-.7-.6-1.1-.5-1.2-1.2-2.3-2-3.4-1.3-1.7-2.6-3.4-3.4-5.4 0-.1-.1-.2-.2-.1-.2.2-.1.5-.1.7-.2 1.6-.2 3.2-.3 4.7-.3 2.6-1.4 4.5-3.8 5.6-2.1.9-2.4 1.9-1.4 4 1 2.2 2.1 4.5 3.2 6.7.6 1.2 1.3 2.4 1.7 3.7l-.1.1c-.9-.5-1.6-1.4-2.2-2.2-1.8-2.2-3.1-4.8-4-7.4-.3-.7-.5-1.5-.9-2.2-.9-1.6-2.2-2.4-4-2.4-2.2 0-4.4.5-6.6.7-2.5.2-4.9.4-7.4.5-2.5.1-5 .1-7.4.4-3.7.4-7.3 1.2-10.8 2.3-.2.1-.5 0-.5.3 4.2 3 22.7 11.4 25.3 11.4-.1-.2-.2-.3-.3-.5-1.1-1.6-2.4-3-3.6-4.5-1-1.2-2-2.5-2.6-4-.1-.3-.4-.5-.2-.9.3.1.4.3.6.5 1.8 1.9 3.6 3.7 5.3 5.6 2.8 2.8 5.5 5.6 8.8 7.9 3.9 2.9 8.2 4.9 13.1 5.7.5.1 1.1 0 1.6.3-.2.1-.3.1-.3.2-2 .4-4 .4-5.9-.2-3.6-1-6.7-2.8-9.6-5.1-1.2-1-2.4-1.8-4-2.1-1.1-.2-2.1-.6-3.1-.9-5-1.6-9.8-3.7-14.5-6-3.5-1.7-6.8-3.6-10.2-5.3-2.3-1.2-4.8-1.9-7.4-2.2-3.8-.4-7.4.5-10.8 2.1-.2.1-.4.1-.4.5.2.1.3.2.5.2 7 2.1 13.5 5.3 19.5 9.3 4.5 3.1 9 6.3 13.8 8.9 3.9 2.1 7.8 4 11.8 5.8 3 1.3 6.2 1.6 9.4 1.1 1.6-.2 3.1-.8 4.6-1.1 2.4-.5 4.7-.7 7.1-.1 1.9.5 3.6.2 5.3-.8 1.1-.7 2.2-1.5 3.3-2.2 2.2-1.4 4.6-2.6 7.2-3.2.4-.1.7-.2 1.1-.1 0 .3-.2.4-.4.6-1.2 1.1-2.5 2-3.8 2.9-1.6 1.2-3.2 2.4-4.6 3.9-.5.5-1 1-1.2 1.7.2.1.4 0 .6 0 1.5-.4 2.9-.5 4.4-.5 2.5 0 4.5.9 6.3 2.6.4.3.7.7 1.1.9.8.4 1.6.3 2.3-.3.5-.5.9-1 1.1-1.7.2-.7.4-1.5.4-2.2 0-1.6-.1-3.1.1-4.7.3-2.7.2-5.5-.1-8.2-.9-4.1-1.7-8-2.3-11.9zM342.5 66.1c-.5 0-1.1 0-1.6.1s-.9 0-1.3-.1c-.9-.3-1.2-1-1.4-1.8-.2-.8.1-1.4.8-1.8.5-.3 1-.6 1.5-.8v-.2h-.5c-1.9 0-3.9.3-5.8.2-2.1-.1-4.1-.4-6-1.4-.5-.3-1-.5-1.6-.5-1.9-.1-3.4.5-4.6 2-.7.9-1.6 1.5-2.6 1.8-.7.3-1.5.4-2.3.6-2.5.5-3.3 2.3-3.3 4.2 0 1.3.6 1.9 1.9 1.9 1.5 0 3 .1 4.5.1 3.1.1 6.3-.1 9.4-.5 4-.5 7.9-1.4 11.7-2.7.7-.3 1.5-.5 2.2-.9-.4-.2-.7-.2-1-.2zM157.5 143.3c0-.8-.1-1.5 0-2.3.3-2.3.7-4.6 1-7 .3-2.4.6-4.7.9-7.1.2-2 .4-3.9.6-5.9.2-2.4.5-4.9.7-7.3.2-1.7.3-3.4.4-5 .2-2.7.5-5.4.7-8.2.2-1.8.3-3.5.4-5.3.2-2.2.5-4.5.5-6.7v-.7c.2-2.1-.8-3.5-2.6-4.5-.9-.5-1.8-1-2.8-1.4-.9-.4-1.9-1-2.9-1.2-1-.2-1.6.1-1.9 1.1-.2.5-.2 1.1-.2 1.6 0 1.6.1 3.2 0 4.9 0 6.6.1 13.2-.2 19.8-.1 3.5-.2 7-.4 10.5-.1 2.6-.2 5.2-.4 7.8-.2 2.7-.3 5.4-.5 8.1l-.3 3.6c-.1 1-.2 2-.1 3 0 .7.1 1.3.1 2-.1.7-.2 1.4-.3 2.2-.2 1.3.4 2.3 1.6 2.7.8.3 1.7.3 2.5.2 1.3-.2 2.2-.9 2.5-2.2.7-.9.7-1.8.7-2.7zM159 209.9c-.2 3.4-.3 6.7-.4 10.1-.1 3.2-.1 6.4-.2 9.5-.2 4.3 0 8.6-.2 13-.1 2.6 0 5.1-.2 7.7-.2 2.5 0 5.1-.2 7.6-.1 2-.1 4.1-.2 6.1-.1 3.8-.3 7.6-.4 11.4-.1 3-.2 6.1-.4 9.1-.1 3.3-.3 6.6-.4 9.9-.1 2-.1 3.9-.2 5.9-.2 3-.4 6-.5 8.9-.1 2.1-.2 4.2-.3 6.4-.1 1-.2 1.9-.3 2.8 0 .8.3 1.2 1 1.2.7.1 1.1-.2 1.3-1 .1-.3.1-.6.1-.9.1-2.4 0-4.8.2-7.1.2-2.9 0-5.8.2-8.8.2-3.1 0-6.2.2-9.2.1-2.8 0-5.7.2-8.5.2-3.1 0-6.2.2-9.3.1-2.9.1-5.7.2-8.6.1-3.3.1-6.6.2-9.9.1-2.7 0-5.3.2-8 .2-3.2 0-6.4.2-9.5.1-2.9.1-5.8.2-8.7.1-3.4.1-6.8.2-10.2.1-2.5 0-5 .3-7.5.1-1 .1-2.1.2-3.1.2-2.1.2-4.3-.2-6.4-.1-.4 0-.9-.4-1.4-.3 3-.5 5.7-.6 8.5zM166.9 159.2c-1.1-.6-2.3-.8-3.5-1.1-1.7-.4-2.6.1-3.5 1.6-.1.3-.3.5-.4.8-1.1 2.6-1.7 5.3-2.2 8.1-.3 1.7-.4 3.5-.5 5.2-.1 1.3 0 2.7 0 4.2.4-.6.5-1.1.5-1.7.1-1.7.3-3.3.8-5 .7-2.5 2.1-4.4 4.6-5.3 1.3-.5 2.7-.7 4.1-.6 2 .1 2.8-1.8 2.4-3.1-.3-1.4-1.1-2.4-2.3-3.1zM160.2 318.9c.2.6.7.8 1.3.8.6-.1.9-.4.8-1.1-.1-.9-.1-1.9-.1-2.8.1-3.1 0-6.3.2-9.4.1-2.6 0-5.3.1-7.9.1-2.3.1-4.6.1-7v-34c-.2 4.3-.1 8.5-.3 12.8-.1 3.9-.2 7.8-.4 11.7-.2 2.8-.3 5.5-.4 8.3-.1 3.4-.2 6.8-.4 10.2-.1 2.1-.1 4.3-.3 6.4-.1 1.2-.1 2.3-.2 3.5-.2 2.6-.4 5.2-.7 7.8.2.1.2.4.3.7z"/><path fill="#069B3F" d="M353.1 59.8c-3.1-.1-6.2-.5-9.1-1.7-1-.4-2.1-.9-3-1.5-.7-.5-1.5-.6-2.3-.6-2.4 0-4.8.5-7.2.9-3.4.6-6.6 2-9.7 3.4-.9.4-1.8.7-2.7 1-.7.2-1.3.4-2 .4-3.7.1-7.3.7-11 1.4-2.9.5-5.8.8-8.7.9-3.2.2-6.3-.2-9.4-.7-1.1-.2-2.1-.3-3.2-.4-2.9-.2-5.9-.4-8.8 0-3.5.5-6.9.3-10.3-.3-4.2-.7-8.3-1.5-12.4-2.8-3.9-1.2-7.7-2.6-11.6-3.9-5-1.8-10.1-3.5-15.3-4.7-3.5-.8-7.1-1.3-10.8-1.3-2 0-2.9-1-3-2.9 0-.9.1-1.8.2-2.7.7-6.2.4-12.3.3-18.5-.1-3.2-.1-6.4-.2-9.6-.1-2.5-.3-4.9-1.3-7.2-.9-2.2-2.5-3.9-4.6-5-1.9-1-4-1.7-6.1-2-.2 0-.4 0-.5-.2H197c-.3.3-.7.2-1.1.3-4.2.9-7.3 3.3-9.5 6.9-1.8 2.9-2.9 6-3.7 9.3-.6 2.5-.8 5-1.2 7.5-.4 2.9-.7 5.8-1.1 8.7-.3 2.4-.6 4.8-.8 7.2-.1.9-.2 1.7-.4 2.5-.5 1.9-1.8 3-3.8 3.3-1.7.2-3.5.1-5.2.2-4.1.2-8.2.4-12.3.9-1.3.2-2.6.4-3.9.5-.9.4-1.8.4-2.8.5-3.2.5-6.4.9-9.6 1.3h-.7c-2 .4-4.1.5-6.1.8-3.6.5-7.3 1-10.9 1.6-3.6.6-7.2 1.5-10.9 2-1.5.2-3 .3-4.5.4-3 .2-6 .4-9 .3-4.1-.1-8.2-.2-12.3-.6-2.4-.2-4.7-.4-7.1-.7-2.6-.3-5.1-.6-7.7-.8-.4.2-1.1.1-1.9.1-.9 0-1.6-.4-2.3-.8-2.3-1.4-4.7-2.4-7.2-3.3-2.6-.9-5.3-1.4-8-1.7-1.9-.2-3.9-.4-5.8-.4-1.3 0-2.4.3-3.4 1.3-1.3 1.3-2.9 1.9-4.7 2-1.1.1-2.2 0-3.3-.1-1.1-.1-2.2 0-3.2.4-1.2.5-2.2 1.3-2.7 2.5-.1.3-.2.5-.4.7v1.5c.2.1.3.3.4.5.3.7.8 1.3 1.5 1.7.6.4 1.1.8 1.7 1.2 3.7 2.1 7.6 3.7 11.7 4.8 3.7 1 7.5 1.5 11.4 1.8 3.2.2 6.3.1 9.4-.2 1.7-.1 3.3 0 4.9.6 2.2.9 3.5 2.5 4.5 4.6 1.6 3.5 3.4 6.9 5.5 10.1 2 3.1 4.2 6.1 6.8 8.7 2.9 2.9 6.2 4.8 10.3 5.4 2 .3 4.1.3 6.1.4 2.4.1 4.9.3 7.3.3 3 0 6 0 8.9-.4 1.8-.3 3.5 0 5.2.9.5.3 1 .5 1.6.7 5.3 2.5 10.8 4.7 16.4 6.5 1.4.4 2.8.7 4.1 1.3 1.9.8 3 2.3 3.4 4.3.1.6.1 1.2.1 1.8 0 2.6 0 5.2-.2 7.8l-.3 6c-.1 1.2-.1 2.4-.2 3.6-.2 3.2-.5 6.3-.7 9.5-.2 2.6-.2 5.1-.4 7.7-.1 1.7-.1 3.4-.3 5-.2 1.1-.4 2.3-.5 3.4-.2 2.2.6 3.5 2.4 4.1 1.2.4 1.7 1.1 2.2 2.2 2.3 5.2 3.3 10.6 2.6 16.3-.2 1.3-.2 2.7-.6 4-.1.3 0 .6.1.8.5 1.2.8 2.4 1.1 3.6 1 3.7 1.4 7.4.8 11.2-.1.5-.1.9 0 1.3.5 2 .8 3.9 1 5.9.3 2.3.3 4.6 0 6.9-.3 2-.7 4-.7 6.1 0 2.9 0 5.8-.1 8.8-.1 4.9-.1 9.7-.2 14.6-.1 5.3-.2 10.6-.4 15.9-.1 2.3 0 4.5-.2 6.8.1.1.1.3 0 .4 0 .9 0 1.8-.1 2.7.1.7 0 1.5 0 2.2-.1 3.2-.2 6.3-.4 9.5-.1 3.1-.3 6.2-.4 9.3-.1 2.7-.2 5.5-.4 8.2s-.3 5.5-.4 8.2c-.1 2.5-.2 5-.4 7.5-.2 2.1-.1 4.3-.5 6.4-.3 1.2-.6 2.4-1.9 3-.4.4-1 .6-1.5.7-1.1.4-2.3.6-3.4.8-1.3.2-2.7.4-4 .8-1.8.5-3 1.6-3.4 3.5-.1.6-.2 1.2-.2 1.8v2.7c-.1 1.9-.9 2.8-2.7 3.1-.2 0-.5.1-.7.2-1.6.5-2.7 1.5-3.1 3.2-.2.8-.3 1.6-.3 2.4l-.3 4.8c-.2 3.9-.5 7.8-.7 11.7-.1 2.4-.3 4.8-.4 7.1-.2 3.6-.5 7.3-.7 10.9-.1 2.2-.3 4.3-.4 6.5-.2 3.5-.5 7-.7 10.6v2c.1 1.3.7 1.9 2 2.2.2 0 .5 0 .7.2h136c.1-.1.2-.2.3-.2 1.3-.2 2-.9 2-2.5 0-1.1 0-2.2-.1-3.2-.2-3.2-.5-6.3-.7-9.5-.2-2.2-.3-4.4-.4-6.6-.2-3.3-.5-6.6-.7-9.9-.1-1.9-.3-3.9-.4-5.8-.2-3-.5-6-.7-8.9l-.6-9c-.2-2.6-1.3-3.8-3.9-4.3-.4-.1-.9-.2-1.3-.3-1.7-.6-2.2-1.5-2.1-3.3.1-.8.2-1.5.2-2.3-.1-2.7-1.3-4.4-3.8-5.4-.5-.2-1-.3-1.5-.4-1.2-.3-2.5-.3-3.6-.7-1.1-.4-2.2-.5-3.4-.6-2.9-.3-4.7-1.7-5.5-4.4-.3-1-.4-2.1-.5-3.2-.3-4.2-.5-8.3-.8-12.5-.2-3.2-.4-6.5-.6-9.7-.2-4.2-.4-8.3-.6-12.5-.2-4.2-.4-8.4-.5-12.6-.1-3.2-.2-6.5-.3-9.7 0-1.7-.1-3.5-.1-5.2 0-1.1.3-2.1 1.1-2.8 1.3-1.1 1.7-2.6 1.8-4.3 0-1.9-.1-3.9-.2-5.8-.1-2.1-.2-4.3-.4-6.4-.3-3.4-.4-6.8-.4-10.2 0-2.2 0-4.3.3-6.5.2-1.8.8-3.5 1.9-4.9.7-.8 1.2-1.7 1.6-2.7.2-.6.2-1.2.1-1.9 0-.2-.2-.2-.4-.2-.4.1-.9.3-1.3.3-.6 0-.8.3-1 .8-.5 1.4-1.2 2.7-2.2 3.8-1.4 1.7-3.2 2.8-5.2 3.6-.5.2-.8.4-1.1.9-1.2 2-2.8 3.6-4.7 5-2 1.4-4.1 2.7-6.6 3.1-1.8.3-3.6.4-5.4.1-.5-.1-1-.3-1.5-.6-6.2-2.8-12.3-5.7-18.4-8.6-4.8-2.4-9.6-4.8-14.3-7.5-.5-.3-1-.4-1.2-1-.1-.2-.4-.3-.7-.5-1.7-.9-3.3-1.9-5-2.8-.5-.3-1.1-.5-1.7-.6-1.2-.2-2.3-.6-3.3-1.2-2.1-1.1-3.7-2.8-4.5-5.1-.2-.5-.5-1-.8-1.5-2.2-3-3.9-6.3-4.6-10-.7-3.5-.5-7 .7-10.4.2-.5.3-1 .3-1.6 0-.6.2-1.1.4-1.7.4-.9 1-1.4 2-1.6 1.4-.2 2.7-.6 3.9-1.2 2.4-1.3 3.6-3.4 4.1-6 .3-1.6.4-3.3.4-4.9V115.3c.7.3 1 .8 1.3 1.2.7.9 1.1 1.9 1.4 3 1.7 5.5 3.6 11 5.6 16.4 3.2 8.6 6.9 17 10.9 25.3 2.5 5.3 5.2 10.5 8 15.7.5 1 .5 1 1.7.8.1-.2 0-.3 0-.4-1.7-2.9-2.9-6-4-9.1-2.1-5.5-4.3-10.9-6.6-16.3-3.7-8.7-7.6-17.2-11.4-25.8-1.6-3.6-3.1-7.1-4.5-10.7-.9-2.4-1.4-4.9-1.6-7.4-.3-3.6-.1-7.2-.2-10.8v-3.9c-.1 0-.1 0-.1-.1l.1.1c.2.1.3.2.5.3l.1.1.2.2c2.7 2.5 5.4 5.1 8.2 7.6 3.8 3.5 7.8 6.7 12.2 9.4.1.1.2.2.3.2.2.1.4.2.7.2-.4-.6-1-1.1-1.5-1.6-3.5-3.2-7-6.3-10.4-9.5-3-2.8-5.9-5.8-8.6-8.9-.2-.2-.5-.4-.5-.8.2-.3.5-.1.8-.1h5.9c1.7 0 3.5 0 5.2.1 1.2 0 2.3-.1 3.4-.4 2.3-.6 4.7-.6 6.9.5 1.8.9 3.3 2.3 4.5 3.9.3.5.6.9 1 1.4.1.2.3.4.1.6-.1.3-.4.3-.7.3-.3 0-.5-.1-.7-.1-.4-.1-.7-.1-.9.3-.2.3.1.6.3.9.2.2.4.4.7.5 4.1 2.4 8.2 4.8 12.4 7.1 1.9 1 2.9 2.7 3 4.9.1 2.9.1 5.7.2 8.6.1 4 .2 7.9.4 11.9.1 3.8.2 7.6.4 11.3.1 2.2 0 4.3.2 6.5.2 2.4.1 4.7.2 7.1.3 6.5.2 13 .2 19.5 0 .9.1 1 1 .8 1.1-.2 2.3-.3 3.4-.4.7-.1.7-.1.7-.8 0-2.8 0-5.7-.1-8.5-.1-1.7-.1-3.3-.2-5-.1-3-.2-6.1-.4-9.1-.1-2.8-.2-5.5-.4-8.3-.1-3.4-.3-6.8-.4-10.2-.1-3.3-.3-6.7-.4-10-.1-3.6-.3-7.2-.4-10.9-.1-3.7-.2-7.3-.4-11-.1-3.6-.2-7.2-.4-10.8-.1-3.5-.3-6.9-.4-10.4-.1-3.2-.2-6.5-.4-9.7-.2-2.9-.5-5.8-.8-8.6-.3-2.4-.7-4.7-.9-7.1 0-.7 0-1.4.6-2.1.5.7.7 1.5.9 2.3.5 1.9.6 3.9.8 5.8.2 2.5.6 5 2 7.3.2.3.3.6.6.8v-1.9c-.1-2-.2-3.9-.3-5.9-.1-1.5-.2-3-.3-4.6-.1-.8 0-1.6.3-2.3.5-1.3 1.5-1.7 3.1-1.6 2.9.2 5.6 1 8.4 1.7 3.8 1 7.5 2.4 11.1 4 4.2 1.8 8.6 3 13 4.1 4.1.9 8.2 1.7 12.3 2.4 1.8.3 3.5.2 5.3-.1 2.7-.4 5.3-.8 8.1-.6 2.2.1 4.4.4 6.5.6 3.3.4 6.6.8 9.9.6 1.7-.1 3.3-.4 5-.6 2.3-.3 4.5-.8 6.7-1.3.2 0 .3-.1.5-.1 1.1 0 1.8.5 1.7 1.7-.1.7-.3 1.4-.6 2-1.5 3.9-3.5 7.6-5.7 11.1-2.6 4.2-5.5 8.2-8.3 12.3-.5.7-1.1 1-1.9 1.1-4.7.3-9.5.4-14.2.4-2.5 0-5-.3-7.5-.4-.3 0-.6-.1-1.1-.2 1.2-.8 2.3-1.5 3.5-2.2 5.1-3.2 10.3-6.4 15.2-10 1.8-1.3 3.5-2.7 5.1-4.1.2-.2.4-.3.5-.5l.3-.3c.1-.1.1-.2.2-.3-.9.1-1.5.6-2.2 1-3.1 1.6-6.1 3.2-9.2 4.8-4.4 2.3-8.9 4.7-13.4 6.9-6.7 3.2-13.5 6.2-20.6 8.4-2.6.8-5.2 1.5-7.8 2.1h-.4c.1-.3.3-.3.5-.4 5.4-2.5 10.1-5.9 14.6-9.7 2.8-2.3 5.4-4.8 8.1-7.3 3.7-3.4 7.3-6.9 11.3-10.1.1 0 .1-.1.2-.2 0-.1.1-.1.1-.2-.3-.1-.5.1-.7.2-3.9 1.7-7.7 3.6-11.3 5.9-2 1.3-3.8 2.8-5.6 4.2-3.1 2.6-6.3 5.1-9.6 7.4-1.8 1.2-3.6 2.3-5.5 3.2-1.2.6-2.4 1.3-3.6 1.9-.5.3-1 .5-1.5.5-1.7.2-3.3-1.1-3.5-2.9-.2-3.2.9-5.9 3.6-7.7 3-1.9 6-3.9 8.7-6.2 1.9-1.6 3.7-3.4 5.4-5.3.7-.7 1-1.6.7-2.6-1 .3-1.9.8-2.7 1.4-1.2.9-2.3 1.9-3.5 2.9-.6.5-1.2 1-1.9 1.4-1.8 1.1-3.5 2.3-5.3 3.4-.8.4-1.5.9-2.3 1.1-.9.3-1.4.1-2-.7-.5-.7-.7-1.5-1-2.3-.1-.4-.3-.8-.5-1.4-.3 1.2-.3 2.4-.3 3.5-.1 5.9-.1 11.8 0 17.7.1 2.2.1 4.4.2 6.7.1 2.8.2 5.6.4 8.4.2 3.6.4 7.3.6 10.9.2 2.9.3 5.7.5 8.6.2 3.2.5 6.3.7 9.5.2 2.3.3 4.6.4 6.8.2 3.2.5 6.3.7 9.5.1 1.1.1 2.2.2 3.3.2 2.6.3 5.3.5 7.9.2 3.8.4 7.5.6 11.3.2 3.7.3 7.5.4 11.2.1 3.9.1 7.8.1 11.6 0 1.5-.2 2.9-.5 4.3-.1.5 0 .6.5.5.4-.1.9-.2 1.3-.2.3-.3.2-.6.2-1 0-3.3 0-6.6-.1-9.9-.2-4.8 0-9.5-.2-14.3-.1-4.2-.3-8.4-.6-12.6-.2-4-.5-7.9-.8-11.9-.3-3.6-.5-7.2-.8-10.8-.3-3.7-.5-7.4-.8-11.1-.3-4.3-.5-8.7-.8-13-.1-1.2-.2-2.5-.3-3.7-.1-2.2-.3-4.4-.4-6.6 0-.4 0-.8.1-1.1.2-.9.6-1.3 1.5-1.4.4-.1.8-.1 1.2-.1 3.1-.4 6-1.2 9-2.1 3.2-1 6.4-2 9.8-2.6 3.6-.7 7.2-.7 10.8-.9 3.4-.2 6.7-.1 10.1-.2 2.7-.1 5.4-.1 8.1-.3 2.2-.2 4.5-.3 6.7-.7 4-.7 7.2-2.7 9.4-6.1 1-1.5 1.9-2.9 2.8-4.4 2.2-3.7 3.9-7.5 4.8-11.7.1-.6.4-1.3.7-1.9.7-1.6 1.9-2.6 3.6-3 1.1-.2 2.2-.3 3.3-.1 1 .1 2 .2 2.9.2 5 .3 10-.2 15-1.1 5-1 9.7-2.6 14.1-5.1.6-.3 1.1-.6 1.6-1 1.4-.9 2.4-2 2.8-3.7v-1c-1-1.7-2.1-2.5-4.4-2.6zM71.6 62.3c-2.2-.3-4.4-.1-6.6-.3-1.7-.1-3.4 0-5.1-.1-3.7-.2-7.5-.4-11.1-1.3-1.6-.4-3.2-1.2-4.7-1.8-.5-.2-1-.4-1.6-.7.8-.2 1.5-.2 2.2-.2.8 0 1.6-.2 2.4-.4.9-.2 1.5-1 1.2-2-.2-.7-.5-1.4-.6-2.1.5-.2.9-.3 1.4-.2 1.3.2 2.5.4 3.8.4 1.7.1 3.2-.3 4.3-1.6.4-.5.9-.7 1.6-.6.9.2 1.8.2 2.7.5 1.2.3 2.3 1 3.4 1.7 1.2.7 2.3 1.5 3.5 2.2.8.5 1.7.9 2.7 1.1.9.2 1.4.7 1.8 1.4.3.5.5 1.1.6 1.7.1 1.3-.4 2.4-1.9 2.3zm163.7 158.6c.1-1.2.5-1.8 1.4-2.1 1-.3 1.7.2 1.8 1.2v.4c0 5.5-.1 10.9.1 16.4.1 2.1.3 4.1.6 6.2 0 .1.1.2 0 .4-.9-1.3-1.6-2.8-2.1-4.2-1.3-3.3-1.9-6.7-1.9-10.2-.2-2.8-.2-5.4.1-8.1zm-30.7 2.8l12.1 5.8c0-1.1.1-1.2 1.2-1.5.2.5.2 1.1.2 1.6.1 1.1.3 2.2.4 3.3l4.9 2.3c0-.8.2-1.5.4-2.3.2-.5 1-.8 1.5-.6.2.1.2.2.2.4.1 1.2.3 2.4.4 3.6l5 2.4v-.4c0-.2 0-.5.3-.5.2-.1.4.1.6.3.3.3.2.7.2 1.1 0 3.2 0 6.5.1 9.7.1 3.2.1 6.5.2 9.7.1 2.1.1 4.2.2 6.3.2 3.5.3 6.9.4 10.4.1 2.6.2 5.2.4 7.8.2 3.6.4 7.3.6 10.9.2 2.9.4 5.9.6 8.8.2 3.1.5 6.2.7 9.3.1 2 .3 4.1.4 6.1 0 .5 0 1-.2 1.5-.3.9-.9 1.3-1.8 1.4-.8 0-1.5-.1-2.3-.3-3-1.1-6.2-1.6-9.4-2-3.3-.4-6.6-.6-9.8-1.2-.7-.1-1.4 0-2 .3-.8.3-1.5.7-2.4.7-1 0-1.5-.3-1.9-1.3-.2-.6-.3-1.2-.3-1.8v-4c-.1-5.6-.1-11.1-.2-16.7-.1-5.5-.1-11-.2-16.5-.1-4.8 0-9.6-.2-14.4-.2-5.1 0-10.1-.2-15.2-.2-4.9-.1-9.7-.2-14.6 0-1.3-.1-2.5-.1-3.8-.2-2.3 0-4.4.2-6.6zm-10.1 93c.2-2.6.3-5.2.5-7.8v-1.5c.1-2.6.1-5.1.3-7.7.1-3 .1-5.9.2-8.9.3-7.3.1-14.6.1-21.9v-6.7c-.3-11.8-.1-23.6-.2-35.4 0-1.7.1-3.5-.3-5.2-.1-.2 0-.5 0-.8.1-1.1.6-1.6 1.5-1.6 1.1 0 1.7.4 1.9 1.5.1.4 0 .8 0 1.2v62.7c0 1.2.1 2.3.2 3.5.3 3.4.5 6.9.6 10.4.1 3.7.2 7.3.4 11 .1 2.4.4 4.7.7 7.1.3 2.6-.9 3.7-3.6 3.4-1.4-.1-2-.8-2.2-2.2-.2-.3-.2-.7-.1-1.1zm-28-.3c0-2.6.2-5.3.4-7.9.1-1.7 0-3.5.1-5.2.3-9.7.1-19.5.2-29.2 0-3.4.1-6.9.2-10.3.2-3.8.2-7.6.4-11.3.2-4.2 0-8.3.2-12.5.2-7 .1-13.9.2-20.9 0-3.1.1-6.3.2-9.4 0-.8.2-1.4.6-2.1.2-.4.5-.4.8-.2.4.2.6.5.7.9l4.4 1.9c.1-.2.1-.5.3-.7.4.3.7.7.8 1.2l4.4 1.9c.1-.3.1-.7.2-1 .4.5.7 1 .9 1.5l5.5 2.4c.1-.1.1-.3.2-.5.4.3.7.6.9.9l6.6 2.9-6.6-2.9c.4.6.6 1.3.6 2 .1.7 0 1.4 0 2.1v82.4c0 4 .2 8 .5 12 .1 1.5.1 2.9.2 4.5-1.4-.3-2.6-.7-3.8-.8-2.5-.3-4.9-.4-7.4-.2-1.6.1-3.2.3-4.8.4-1.4.1-2.8.4-4.3.4-2.2.1-2.6-.3-2.6-2.3zM195.4 7.8c1-.7 2.1-1.2 3.2-1.6 1.7-.5 3.2-.1 4.7.7 1.6.9 2.9 2.1 4.1 3.5.1.1.2.3.3.5.3.5.3 1 0 1.5s-.7.6-1.2.5c-.5-.1-.9-.1-1.4-.3-.6-.2-1.2-.2-1.8-.2-1.6 0-2.6.9-2.8 2.5-.4 2.5 1.1 4.1 3.6 4.2.7 0 1.4 0 2.1.1 2.9.4 3.1 1.7 2.8 3.8 0 .3-.1.6-.2.9-1.2 3.7-2.3 7.4-3.7 11-.3.7-.6 1.4-1 2-.9 1.2-2.1 1.3-3.2.3-1-1-1.3-2.2-1.1-3.6.1-.6.4-1 .8-1.3.6-.5 1.2-1.1 1.6-1.9.5-1.1.6-2.3.3-3.5-.5-2.2-1.3-4.2-2.1-6.3-.9-2.3-1.7-4.5-2-6.9-.1-.9-.6-1.4-1.4-1.7-.9-.4-1.9-.5-2.9-.5-.7 0-1.4 0-2.2-.3 1.1-1.5 2.3-2.4 3.5-3.4zm-88.9 49.6c.1-.2.3-.2.5-.2h12.1c1.6 0 2.8.6 3.7 1.9 1.4 1.9 2.7 3.7 4.2 5.5 2.6 3.1 5.4 6 8.3 8.8 4 3.9 8.3 7.5 12.7 11 .7.5 1.3 1.1 1.6 2l.1.1c-.1.1-.1 0-.2 0-.4 0-.7-.2-1.1-.4-9.2-4.7-18.2-9.9-26.7-15.8-5.1-3.5-10.1-7.3-14.9-11.3-.5-.4-.6-1-.3-1.6zm43.3 36.8c-.7.9-1.6 1.3-2.8 1-.7-.2-1.3-.4-2-.7-6.5-3.1-12.9-6.1-19.4-9.2-6-2.9-11.9-6-17.6-9.3-4.3-2.5-8.5-5-12.5-7.8-2.7-1.9-5.4-3.8-8-5.8-.5-.4-1-.6-1.5-.9-.5-.2-.7-.1-1 .3-.3.4 0 .6.3.7 8.2 6.6 16.5 13.1 25.2 19.1 1.4 1 2.7 2 4.1 2.9.4.3.4.6.3 1-.1.4-.2.7-.7.7-2.8.1-5.5.2-8.5.3-2.1-.1-4.4-.2-6.6-.9-3-.9-5.4-2.7-7.3-5.1-2.8-3.6-5.8-7-8.4-10.7-2.6-3.6-4.9-7.3-6.9-11.2-.4-.8-.7-1.6-.9-2.4-.1-.5 0-.6.5-.5 1.3.3 2.7.6 4 .8 1.4.2 2.8.4 4.3.5 4.8.4 9.6.1 14.4.2 1.2 0 2.4.1 3.6.1.7 0 1.3.4 1.7.9 1.2 1.2 2.3 2.4 3.5 3.5 4.6 4.6 9.7 8.8 15.2 12.5 4.7 3.2 9.5 6 14.5 8.6 2.8 1.5 5.7 2.9 8.6 4.2 1 .5 2.1.8 3.2 1.2.2.1.5.2.7.3 1.5.8 1.9 1.9 1.4 3.5-.5.9-.9 1.6-1.4 2.2zm4.9 54c-.9.1-1.7.1-2.5-.2-1.2-.4-1.8-1.4-1.6-2.7.1-.7.2-1.4.3-2.2.1-.7 0-1.3-.1-2-.1-1 0-2 .1-3l.3-3.6c.2-2.7.3-5.4.5-8.1.2-2.6.3-5.2.4-7.8.2-3.5.3-7 .4-10.5.3-6.6.1-13.2.2-19.8v-4.9c0-.5 0-1.1.2-1.6.3-1 .9-1.3 1.9-1.1 1 .2 2 .8 2.9 1.2.9.4 1.9 1 2.8 1.4 1.8.9 2.8 2.4 2.6 4.5v.7c-.1 2.3-.3 4.5-.5 6.7-.2 1.8-.3 3.5-.4 5.3-.2 2.7-.5 5.4-.7 8.2-.1 1.7-.3 3.4-.4 5-.2 2.4-.5 4.9-.7 7.3-.2 2-.4 3.9-.6 5.9-.3 2.4-.6 4.7-.9 7.1-.3 2.3-.7 4.6-1 7-.1.7 0 1.5 0 2.3 0 .9-.1 1.8-.3 2.7-.7 1.3-1.6 2-2.9 2.2zm6.3 158.5c.1-2.1.2-4.3.3-6.4.2-3.4.3-6.8.4-10.2.1-2.8.2-5.5.4-8.3.2-3.9.3-7.8.4-11.7.1-4.3 0-8.5.3-12.8v34c0 2.3 0 4.6-.1 7-.1 2.6 0 5.3-.1 7.9-.2 3.1-.1 6.3-.2 9.4 0 1-.1 1.9.1 2.8.1.7-.2 1-.8 1.1-.6.1-1.1-.2-1.3-.8-.1-.3-.2-.6-.2-.9.2-2.6.5-5.2.7-7.8-.1-1 0-2.1.1-3.3zm-1.1-103.8c.3 2.1.4 4.2.2 6.4-.1 1-.1 2.1-.2 3.1-.2 2.5-.2 5-.3 7.5-.1 3.4-.1 6.8-.2 10.2-.1 2.9 0 5.8-.2 8.7-.2 3.2 0 6.4-.2 9.5-.1 2.7 0 5.3-.2 8-.2 3.3-.1 6.6-.2 9.9-.1 2.9 0 5.7-.2 8.6-.2 3.1 0 6.2-.2 9.3-.1 2.8 0 5.7-.2 8.5-.2 3.1 0 6.2-.2 9.2-.1 2.9 0 5.9-.2 8.8-.1 2.4 0 4.8-.2 7.1 0 .3-.1.6-.1.9-.2.7-.6 1-1.3 1-.7-.1-1-.4-1-1.2.1-.9.2-1.9.3-2.8.1-2.1.2-4.2.3-6.4.1-3 .4-6 .5-8.9.1-2 .2-3.9.2-5.9.2-3.3.3-6.6.4-9.9.1-3 .3-6.1.4-9.1.1-3.8.3-7.6.4-11.4.1-2 0-4.1.2-6.1.2-2.5 0-5.1.2-7.6.2-2.6.1-5.1.2-7.7.2-4.3.1-8.6.2-13 .1-3.2.1-6.4.2-9.5.1-3.4.2-6.7.4-10.1.1-2.8.4-5.5.6-8.4.4.4.4.8.4 1.3zm7-37.5c-1.4-.1-2.8.1-4.1.6-2.5.9-3.9 2.8-4.6 5.3-.5 1.6-.7 3.3-.8 5 0 .6-.1 1.1-.5 1.7 0-1.5-.1-2.9 0-4.2.1-1.7.2-3.5.5-5.2.4-2.8 1.1-5.5 2.2-8.1.1-.3.2-.5.4-.8.8-1.5 1.8-1.9 3.5-1.6 1.2.3 2.4.5 3.5 1.1 1.3.7 2 1.7 2.4 3 .3 1.4-.5 3.3-2.5 3.2zm2.9-12.2c-.1.5-.2 1.1-.4 1.6-.3.9-.8 1.2-1.8 1.1-.2 0-.5 0-.7-.1-2-.9-4.1-1.1-6.2-1.6-.5-.1-1-.3-1.5-.5-1-.4-1.6-1.2-1.6-2.4 0-1.1.2-2.1.4-3.2.7-4 1.4-7.9 1.9-11.9.5-3.8 1-7.6 1.3-11.3.3-3.3.7-6.6 1-9.9.3-3.6.6-7.1 1-10.7.3-3.3.6-6.5.8-9.8.1-2.3.4-4.5.4-6.8 0-1.4 1.1-2 2.3-1.3 1.5.9 2.7 2.1 2.7 4.1v39.9c0 1.8.2 3.7.3 5.5.1 1.9.3 3.8.3 5.7 0 .7.1 1.4.1 2.1.2 3.2.1 6.4-.3 9.5zm29.3-66.7c-3.2.5-6.3 1.1-9.4 1.8-2.4.6-4.7.2-6.9-.8-2.2-.9-4.2-2.2-6.2-3.3-.1 0-.1-.1-.2-.2.5-.3 1.2-.4 1.7-.6 2-.6 4.1-1.3 6.2-1.7 2.1-.4 4.1-.4 6.1.2 3 .8 6 1.8 9.1 2.5 1.9.4 3.7.7 5.6 1-2 .5-4 .8-6 1.1zm15.8-9.8c-.1 1.5-.1 3.1-.1 4.7 0 .8-.1 1.5-.4 2.2-.2.6-.5 1.2-1.1 1.7-.7.6-1.4.7-2.3.3-.4-.2-.8-.6-1.1-.9-1.8-1.6-3.8-2.6-6.3-2.6-1.5 0-3 .1-4.4.5-.2 0-.4.1-.6 0 .3-.7.8-1.1 1.2-1.7 1.3-1.5 2.9-2.7 4.6-3.9 1.3-.9 2.6-1.8 3.8-2.9.2-.1.4-.2.4-.6-.4-.1-.7 0-1.1.1-2.6.6-5 1.8-7.2 3.2-1.1.7-2.2 1.5-3.3 2.2-1.6 1-3.4 1.4-5.3.8-2.4-.7-4.7-.4-7.1.1-1.6.3-3.1.9-4.6 1.1-3.3.5-6.4.1-9.4-1.1-4-1.7-8-3.7-11.8-5.8-4.8-2.6-9.3-5.8-13.8-8.9-6-4.1-12.5-7.3-19.5-9.3-.2-.1-.3-.1-.5-.2 0-.3.3-.4.4-.5 3.4-1.6 7-2.5 10.8-2.1 2.6.2 5 1 7.4 2.2 3.4 1.7 6.8 3.6 10.2 5.3 4.7 2.3 9.5 4.4 14.5 6 1 .3 2.1.7 3.1.9 1.6.3 2.8 1.2 4 2.1 2.9 2.3 6 4.1 9.6 5.1 2 .5 4 .5 5.9.2.1 0 .2-.1.3-.2-.5-.4-1.1-.3-1.6-.3-4.9-.8-9.1-2.8-13.1-5.7-3.2-2.3-6-5.1-8.8-7.9-1.8-1.8-3.6-3.7-5.3-5.6-.2-.2-.3-.4-.6-.5-.1.4.1.6.2.9.6 1.5 1.6 2.7 2.6 4 1.2 1.5 2.6 2.9 3.6 4.5.1.2.2.3.3.5-2.6 0-21.1-8.4-25.3-11.4 0-.3.3-.3.5-.3 3.5-1.1 7.1-1.9 10.8-2.3 2.5-.3 4.9-.3 7.4-.4 2.5-.1 4.9-.2 7.4-.5 2.2-.2 4.4-.7 6.6-.7 1.9 0 3.1.8 4 2.4.4.7.6 1.5.9 2.2 1 2.7 2.2 5.2 4 7.4.7.8 1.3 1.6 2.2 2.2l.1-.1c-.4-1.3-1.1-2.5-1.7-3.7-1.1-2.2-2.1-4.5-3.2-6.7-1-2.1-.7-3.1 1.4-4 2.5-1.1 3.6-3 3.8-5.6.2-1.6.1-3.2.3-4.7 0-.2-.1-.5.1-.7.1 0 .2.1.2.1.8 2 2.1 3.7 3.4 5.4.8 1 1.5 2.1 2 3.4.2.4.3.8.6 1.1.6.9 1.6 1.4 2.7 1.2.6-.1 1-.5 1.3-1.1.5-1 .9-2 1.4-3 .5-1.2 1.1-2.4 1.8-3.4.3-.4.7-.8 1.1-1.2.3-.3.5-.2.6.1.2.6.5 1.2.4 1.8-.1 1.5.1 2.9.2 4.4.1.8.3 1.4 1 1.8 1.8 1.2 3 2.9 3.2 5.1.1 1.2-.2 2.3-.4 3.5-.4 1.6-.9 3.2-1.1 4.9 0 .3-.1.5-.1.8 0 .9-.1 1.8-.2 2.8 1.2-.7 1.8-1.6 2.1-2.8.4-1.3.4-2.6.4-4 0-2 .5-3.8 1-5.7.3-1.2 1.4-1.7 2.5-1.3.6.2.9.6.9 1.2 0 .7-.2 1.4-.3 2.1-.1.6-.1 1.1 0 1.7.6 4 1.4 7.9 1.8 11.9.7 2.7.8 5.5.6 8.2zm126.3-9.4c-3.8 1.3-7.7 2.2-11.7 2.7-3.1.4-6.3.6-9.4.5-1.5 0-3-.1-4.5-.1-1.3 0-1.9-.6-1.9-1.9 0-1.9.8-3.8 3.3-4.2.8-.1 1.6-.3 2.3-.6 1-.4 1.9-.9 2.6-1.8 1.1-1.5 2.7-2.2 4.6-2 .6 0 1.1.2 1.6.5 1.9 1 3.9 1.3 6 1.4 1.9.1 3.9-.2 5.8-.2h.5v.2c-.5.3-1 .6-1.5.8-.7.4-1 1-.8 1.8.2.8.5 1.5 1.4 1.8.4.1.8.2 1.3.1s1.1-.1 1.6-.1c.3 0 .6 0 .9.3-.6.3-1.3.5-2.1.8zM222.9 242.6c.1 3 .2 6.1.4 9.1.1 3.2.3 6.3.4 9.5.1 3.2.3 6.5.4 9.7.2 3.9.3 7.7.4 11.6.1 2.3 0 4.6.2 6.9.2 3.7.1 7.3.2 11 .1 3.2.1 6.3.1 9.5 0 2 .4 4 .8 6 .3 1.3 1 1.8 2.2 1.7.8-.1 1.4-.6 1.6-1.4.1-.5.2-1.1.2-1.7-.1-4.8-.1-9.5-.2-14.3-.1-3.6-.2-7.1-.4-10.7-.1-2.9-.3-5.7-.4-8.6-.1-3-.3-6-.4-9-.2-4.3-.3-8.6-.4-12.9-.1-4.1-.3-8.1-.7-12.2-.1-1.4-.2-2.8-.2-4.2-.1-2.3-.3-4.6-.2-6.9 0-1.1.1-2.2.2-3.3l-5-2.5c.1.6.1 1.2.2 1.8.4 3.7.5 7.3.6 10.9zM212.4 241.6c.1 3.7.3 7.3.4 11 .1 3.1.2 6.3.4 9.4.1 4 .3 8 .4 12 .1 2.1 0 4.1.2 6.2.2 2.6.1 5.3.2 7.9.2 4.6.1 9.1.2 13.7 0 1.1 0 2.3.1 3.4.1 1.3-.1 2.7-.1 4v3.5c.4 2.4 1.8 2.8 3.6 2.4 1.1-.2 1.4-1.2 1.5-2.2.1-1 .1-2.1 0-3.1 0-.4-.1-.7-.1-1.1l-.3-10.6c-.1-3.4-.1-6.8-.2-10.2-.1-2.8 0-5.6-.2-8.4-.1-2.6-.1-5.3-.2-7.9-.1-2.1-.1-4.3-.2-6.4-.1-3.6-.2-7.3-.4-10.9-.1-2.7-.2-5.5-.4-8.2-.2-3.4-.4-6.9-.6-10.3-.1-2.1-.4-4.2-.4-6.4v-.3l-4.9-2.4c.2 1.6.4 3.3.5 4.9.3 3.3.4 6.7.5 10zM232 240.5l-30.5-14.8 1.8-5.4 28.7 13.8z"/><path fill="#FEC300" d="M130.8 347.6s54.8-7 78.2 2.5c23.4 9.5-40.9 8.2-49.8 8.2-9 0 23.1 11.4 44 12 20.9.6 64.6 1.9 24.8 8.2s-69.3 5.1-43 7.6 47.5-3 51.4 3.2l3.9 6.2-110.6-.2s-1.4-6.8-1-12.1c.1-5.3 2.1-35.6 2.1-35.6z"/></svg>