<svg xmlns="http://www.w3.org/2000/svg" viewBox="0 0 400 400" enable-background="new 0 0 400 400"><path fill="#FFDB89" d="M119.7 325.5v-12.9h9.4V75.2h2.7v-61h2.6V6.9h2.4v6.7h4.3v117.2l3.3 2v182L119.7 329z"/><path fill="none" stroke="#AF1F33" stroke-miterlimit="10" d="M364 192.8v30.7"/><path fill="#EF4555" d="M3.6 288.8h5.5v106.9H3.6z"/><g fill="#CC3839"><path d="M25.8 395.7h.7v-.9c0 .5-.3.9-.7.9zM9.1 295.2v100.5h2.3c-.4 0-.7-.4-.7-.9v-13.1c0-.5.3-.9.7-.9h14.4c.4 0 .7.4.7.9v-86.5H9.1zm16.7 76c0 .7-.3 1.2-.7 1.2H10.6c-.4 0-.7-.5-.7-1.2v-17c0-.7.3-1.2.7-1.2H25c.4 0 .7.5.7 1.2v17zm0-29.8c0 .5-.3.9-.7.9H10.6c-.4 0-.7-.4-.7-.9v-13.1c0-.5.3-.9.7-.9H25c.4 0 .7.4.7.9v13.1zm0-24.9c0 .5-.3.9-.7.9H10.6c-.4 0-.7-.4-.7-.9v-13.1c0-.5.3-.9.7-.9H25c.4 0 .7.4.7.9v13.1z"/></g><path fill="#FFDB89" d="M297.9 212.1h12.3v183.6h-12.3z"/><path fill="none" stroke="#AF1F33" stroke-width="2" stroke-miterlimit="10" d="M134 15.7S73.1 375.1 49.4 369.9"/><path fill="none" stroke="#AF1F33" stroke-miterlimit="10" d="M32.1 309.9s11.9 51.3 19.8 56.5"/><path fill="none" stroke="#AF1F33" stroke-width="2" stroke-miterlimit="10" d="M130 253.2s-24.1 85.4-31.9 87M202.9 115.4s77.9 95.8 101.1 96.7M198.3 22.8s110.4 148.6 171.8 172.8"/><path fill="none" stroke="#AF1F33" stroke-miterlimit="10" d="M209 33.3v255.3M220.4 51.3v229.2M233.3 67.3v202.8M242.9 78.8v191.3M253.5 91.3v169.5M263.9 103.2v152M274.9 115.4v135.8M287.3 128.7V243M297.9 139.6V243M310.2 151.7v71.8M320.2 161v73.3"/><path fill="none" stroke="#AF1F33" stroke-width="2" stroke-miterlimit="10" d="M329.1 168.7v54.8"/><path fill="none" stroke="#AF1F33" stroke-miterlimit="10" d="M338.2 176v47.5M346 181.8v48M354.7 187.6v35.9"/><path fill="#F05349" d="M320.2 260.8l80-35v-46.6l-80 44.3z"/><path fill="#EE3D26" d="M310.2 192.8h10.1v202.9h-10.1z"/><path fill="#D73127" d="M354.7 392.5V245.7l-34.4 15.1v134.9c-.1 0 22.9 1.8 34.4-3.2z"/><path fill="#7D1B17" d="M400.2 270.1v-44.3l-79.9 35v134.9c-.1 0-3-138.3 79.9-125.6z"/><path fill="#A22B22" d="M329.1 395.7s14.1-139.1 71-95.4v-30.2s-73.3-33.4-79.9 125.6h8.9z"/><path fill="none" stroke="#AF1F33" stroke-miterlimit="10" d="M128.7 46.2v263.7M121.9 84v225.9M114.8 122.2v209.3M105.8 168.7v164.2M97.8 208.2v130M87.7 255.2v90.3M77.4 298.6v53M82.5 286.1v62.8M91.7 245.7v99.5M70.3 325.1V353M65.3 348.9v13.2M35.8 324.6v56.2M40.6 341.6V377"/><path fill="#EF4249" d="M123.2 322.1v-12.9h9.5V71.8h2.7v-61h2.6V3.6h2.3v6.6h4.3V127.4l3.4 178.2v5.8l-24.8 14.3z"/><path fill="none" stroke="#AF1F33" stroke-miterlimit="10" d="M46.3 357.4v15"/><path fill="#F05349" d="M32.1 380.8s143.3-92.1 265.8-146.5v35.8S41.4 378.2 32.1 395.7v-14.9z"/><path fill="#EF4555" d="M26.5 288.8H32v106.9h-5.5z"/><path fill="#FFDB89" d="M206.4 281.8V77.2h-4.6v-51h2.3V14.9h-4.9V7.6h-4V292z"/><path fill="#EF4249" d="M202.9 278.4V73.8h-4.6v-51h2.3V11.5h-5V4.2h-3.9V288.6z"/><path fill="#AF1F33" d="M167.9 16.4v-6.1h-4.4v6.1h-17.1l-7.4-.9 4.3 293.9 3.3-1.8v-1.4s-2-53.6 6.6-55.6 23.8-2.6 29.8 0c4.8 2.1 6 25.1 6.3 34.2l8-4.3V16.4h-29.4zm-20.2 28c0-3.1 3.7-5.7 8.3-5.7h24.3c4.6 0 8.3 2.5 8.3 5.7v27.8c0 3.1-3.7 5.7-8.3 5.7H156c-4.6 0-8.3-2.5-8.3-5.7V44.4zm0 61.3c0-3.5 3.7-6.3 8.3-6.3h24.3c4.6 0 8.3 2.8 8.3 6.3v31c0 3.5-3.7 6.3-8.3 6.3H156c-4.6 0-8.3-2.8-8.3-6.3v-31zm41.1 109.7c0 4.5-3.7 8.1-8.3 8.1h-24.3c-4.6 0-8.3-3.6-8.3-8.1v-39.7c0-4.5 3.7-8.1 8.3-8.1h24.3c4.6 0 8.3 3.6 8.3 8.1v39.7z"/><path fill="#822621" d="M297.9 270.1v32.4S89.2 366.1 63.8 395.7H32.1s7.3-12.4 121.8-62.8c0 0 137.1-62.5 144-62.8z"/><path fill="#FFDB89" d="M135.4 395v-52.6s-4.7 1.9-9.5 4.1l1.4 48.8 8.1-.3zM.6 289.5h3v106.2h-3z"/><path fill="none" stroke="#AF1F33" stroke-width="2" stroke-miterlimit="10" d="M138.3 352.3l58.3 43M196.5 337.5L148 395"/><path fill="#EF4249" d="M195.2 338.2s-4.2-4.7 13.8-6.7l7.1 64.2-18.8.3-2.1-57.8z"/><path fill="#FFDB89" d="M205.4 334.3l3.6 61.4h7.1l-7.1-64.2z"/><path fill="#EF4249" d="M131.4 395.7v-52.5l15.2-7.1v59.6z"/></svg>