<svg xmlns="http://www.w3.org/2000/svg" viewBox="0 0 400 400" enable-background="new 0 0 400 400"><path fill="#B7A69C" d="M141 105s8.8-14.8-8.2-25h-13.3v23.3L141 105zM96.2 106.2s-8.8-14.8 8.2-25h13.3v23.3l-21.5 1.7z"/><path fill="#BDBEC0" d="M104.8 93.6V74.1h7V41.9l4-5.1 1.8-26.8 1.1-8.4h1.2v92zM135 93.6V74.1h-7V41.9l-4-5.1-1.8-26.8-1.1-8.4h-1.2v92z"/><path fill="#939598" d="M95.8 104.9s-3.8-17 23.7-19.6c0 0 24.9 2.2 23.7 24-1.3 21.7-47.4-4.4-47.4-4.4z"/><path fill="#997167" d="M89.4 119.9s-2.3-21.3 28.2-21.3 28.2 21.3 28.2 21.3H89.4z"/><path fill="#B7A69C" d="M86 133.9S83.7 107 117.6 107s31.6 26.9 31.6 26.9l-.2 4.3H86v-4.3z"/><ellipse fill="#939598" cx="117.6" cy="140.4" rx="31.6" ry="20.5"/><path fill="#A8AAAC" stroke="#A8AAAC" stroke-miterlimit="10" d="M116.6 143.4l1-23.5M116.6 143.4l19.1-19.1M116.6 143.4h30.9"/><path fill="#A8AAAC" stroke="#A8AAAC" stroke-width="3" stroke-miterlimit="10" d="M116.6 143.4v17.5"/><path fill="#A8AAAC" stroke="#A8AAAC" stroke-miterlimit="10" d="M116.6 143.4l-14.9 14.9M118.4 143.4H87M117.5 144.7L97.8 125M116.6 143.4l-8.4-22.6M116.6 143.4l10.9-20.8M115.3 143.4l32.5-9.5M116.6 143.4l26.6 8.9"/><path fill="#A8AAAC" stroke="#A8AAAC" stroke-width="3" stroke-miterlimit="10" d="M116.6 143.4l12.1 17.7"/><path fill="#A8AAAC" stroke="#A8AAAC" stroke-miterlimit="10" d="M116.6 143.4L93 150.8M116.6 143.4L89.3 133"/><path fill="#D2D3D4" d="M99.1 360.3l7-201.2s-2.6-20.8 10.5-20.8 12.2 24.3 12.2 24.3v216.9l-29.7 13h-8.3l8.3-32.2z"/><path fill="#371A13" d="M49.8 302.7s7.4-32.9-1.8-41.7c0 0 72.3 0 116.9-35.5 0 0 68.8 32.8 133.1 16.2 0 0 4.8 29.8 21.5 41.6l-12.3 11L179 253.1 49.8 302.7z"/><path fill="#D0E8CF" d="M63 306.1l-13.1-3.4s13.6-10.4 6.6-36.8c0 0 62.6 4.3 110.8-33 0 0 52.6 28.9 129.2 15.8 0 0-.9 29.8 20.1 39.4L290 304.6l-116.7-25.7-28-7.4L63 306.1z"/><path fill="none" stroke="#90C5B0" stroke-miterlimit="10" d="M295.9 249.3l-39.1 39.5M167.7 233.6l6.1 41.3M57.3 265.9l42.3 31.9M49.8 302.7l41 3.4M314.2 287l-39 13.7M223.6 249.3v38.8M239.9 251.6l-8.3 38.7M256.8 251.6L239.9 291M273.1 251.6l-26.6 38.7M181.3 239.1l2.6 34.9M192.8 243v31M204 246v35.9M213.6 248.1v33.8M298.4 263.9L265.8 291M303.8 274.9l-34.2 20.3M56.4 292.5l28.9 8.3M58.4 281.9l30.9 14.8M77.6 265.9l27.8 25.1M158.6 239.1l4.5 34.9M145.8 246.9l3.4 31.5M93 264.3l23.6 26.4M108.2 261.1l19 27.6M119.9 256.9l15.1 28.8M131.3 252.9l12.2 35.9"/><path fill="#478270" d="M90.8 323.2L63 306.1s14-7.9 7-29.8c0 0 43.8 7.9 97.2-23.2 0 0 72.7 17.1 112.1 8.3 0 0 3.9 25.9 28 32.9L275 313.5l-184.2 9.7z"/><path fill="#371A13" d="M15.4 397H400v3.9H15.4zM26.9 393.1h362.4v6H26.9z"/><path fill="#752819" d="M54 387.6h292.2v6H54z"/><path fill="#371A13" d="M85.3 382.4h237.4v6H85.3z"/><path fill="#C3482E" d="M275 313.5l17.9 68.9h-11.8l-15.3-62.6z"/><path fill="#644F23" d="M105.4 334.2l23.9 4.1 47.3 4.2 58.9-4.2 26.5-11.7 13-10.3v-2.8l-13 8.4-21 11.3-59.2 5.1-47.4-2-29-5.6z"/><path fill="#C3482E" d="M126.5 334.6s3.9-.9 7.9 0v47.8h-10.1l2.2-47.8zM231.6 334.2s.9-5.3 8.3-2.7l10.5 50.9H241l-9.4-48.2z"/><path fill="#C76E43" d="M90.8 323.2l18.9-15.8 54.9-13.1 82.7 6 27.7 14.1-34 19.8-59.2 4.1-47.4-2-28.8-5.5z"/><path fill="#F4C78D" d="M90.8 382l6.4-78.5s7.4-1.8 9.2 0c1.8 1.8-4.4 78.9-4.4 78.9l-11.2-.4z"/><path fill="#C3482E" d="M126.5 337.3l22.7-31.2h6.9l-21.7 31.2zM231 337.8l10.3-3.8-27-36.2-5.6 4.3z"/><ellipse fill="#C3482E" cx="181.3" cy="300.8" rx="37.8" ry="9.7"/><path fill="#C3482E" d="M91.5 316.3l-5.2 66.1h5.2l5.7-66.1z"/><path fill="#74A295" d="M85.3 319.8l-2.5-34.7s70.6-11.4 84.9-23.9c0 0 80.3 13.1 105.5 7.9l6.2 41.9-23.6-11.3-88.5-11.5-60.9 15.3h-9.2l.1 12.9h-5.8l-.7 5.3-5.5-1.9z"/><path fill="#478270" d="M106.6 310l60.8-15.5 79.1 6.7 28.5 12.3 4.3-2.6-32.8-14.4-79.3-8.4-60.9 15.4z"/><path fill="#F4C78D" d="M264.9 382.4l-18.4-89.7s4.4-5 9.2 0l21.9 89.7h-12.7zM172.5 382.4l-5.3-97.2s3.9-3.3 10.1 0l8.8 97.2h-13.6z"/><path fill="#E6E7E7" d="M121.6 115.2c0 1.9-1.6 3.5-3.5 3.5s-3.5-1.6-3.5-3.5v-3.5c0-1.9 1.6-3.5 3.5-3.5s3.5 1.6 3.5 3.5v3.5zM130.5 116.7c0 1.5-1.2 2.7-2.7 2.7-1.5 0-2.7-1.2-2.7-2.7v-5.2c0-1.5 1.2-2.7 2.7-2.7 1.5 0 2.7 1.2 2.7 2.7v5.2zM111.1 116.4c0 1.5-1.2 2.7-2.7 2.7-1.5 0-2.7-1.2-2.7-2.7v-5.2c0-1.5 1.2-2.7 2.7-2.7 1.5 0 2.7 1.2 2.7 2.7v5.2zM103 117.9c0 1.1-.9 2-2 2s-2-.9-2-2v-2.4c0-1.1.9-2 2-2s2 .9 2 2v2.4zM96.6 121.2c0 .8-.6 1.4-1.4 1.4-.8 0-1.4-.6-1.4-1.4v-1.9c0-.8.6-1.4 1.4-1.4.8 0 1.4.6 1.4 1.4v1.9zM92.7 125.3c0 .5-.4 1-1 1-.5 0-1-.4-1-1v-2.4c0-.5.4-1 1-1 .5 0 1 .4 1 1v2.4zM137.8 118.7c0 1.1-.9 2.1-2.1 2.1-1.1 0-2.1-.9-2.1-2.1v-3.3c0-1.1.9-2.1 2.1-2.1 1.1 0 2.1.9 2.1 2.1v3.3zM143.2 121.8c0 .8-.6 1.4-1.4 1.4-.8 0-1.4-.6-1.4-1.4v-1.9c0-.8.6-1.4 1.4-1.4.8 0 1.4.6 1.4 1.4v1.9zM146.8 126.2c0 .5-.4 1-1 1-.5 0-1-.4-1-1v-2.4c0-.5.4-1 1-1 .5 0 1 .4 1 1v2.4z"/><path fill="#BDBEC0" d="M116.6 87.4h4.9v9.4h-4.9zM111.1 88.6h3.4v8.1h-3.4zM105.8 91h3.4v6.8h-3.4zM101.8 93.7h2v5h-2zM97.8 96.7h2.3v3.3h-2.3zM123.9 88.6h3.4v8.1h-3.4zM128.8 91h3.4v6.8h-3.4zM134.7 95.3h2v5h-2zM137.8 98.7h2.3v3.3h-2.3z"/><path fill="#F2F2F2" d="M113.3 69.6h5.2v4h-5.2zM121.7 69.6h5.2v4h-5.2zM113.3 50.8h5.2v4h-5.2zM121.7 57.2h5.2v4h-5.2zM113.3 57.2h5.2v4h-5.2zM121.2 63.4h5.2v4h-5.2zM113.3 63.4h5.2v4h-5.2zM121.2 44.4h5.2v4h-5.2zM113.3 44.4h5.2v4h-5.2zM121.7 50.8h5.2v4h-5.2z"/></svg>