<?xml version="1.0" encoding="utf-8"?>
<!-- Generator: Adobe Illustrator 18.1.1, SVG Export Plug-In . SVG Version: 6.00 Build 0)  -->
<!DOCTYPE svg PUBLIC "-//W3C//DTD SVG 1.1//EN" "http://www.w3.org/Graphics/SVG/1.1/DTD/svg11.dtd">
<svg version="1.1" id="Layer_1" xmlns="http://www.w3.org/2000/svg" xmlns:xlink="http://www.w3.org/1999/xlink" x="0px" y="0px"
	 viewBox="0 0 400 400" enable-background="new 0 0 400 400" xml:space="preserve">
<g>
	<rect x="92.6" y="49.3" fill="#FFEBD3" width="223.9" height="314.4"/>
	<g>
		<path fill="none" d="M186.9,165.1c10.8,6.6,21.5,13.2,32.2,19.7l0.4-0.6c-10.8-6.6-21.7-13.3-32.6-20
			C186.9,164.6,186.9,164.8,186.9,165.1z"/>
		<path fill="none" d="M239.7,197.4c-16.8,10.3-33.4,20.5-50.3,30.8l-1,1.5c17.7-10.9,35.1-21.5,52.7-32.3
			c-7.2-4.4-14.4-8.8-21.5-13.2l-0.4,0.6C226,189,232.8,193.2,239.7,197.4z"/>
		<path fill="none" d="M186.9,229.7c0,0.3,0,0.6,0,0.9c0.5-0.3,1-0.6,1.4-0.9l1-1.5C188.6,228.7,187.8,229.2,186.9,229.7z"/>
		<path fill="#F59222" d="M186.9,230.6c0-0.3,0-0.6,0-0.9c-0.5,0.3-0.9,0.6-1.4,0.9c0-22.3,0-44.1,0-66.3c0.5,0.3,0.9,0.6,1.4,0.9
			c0-0.3,0-0.6,0-0.9c10.9,6.7,21.8,13.3,32.6,20l25.4-37.1c-10.6-8.4-23.8-13.5-37.7-14.1c-38.2-1.6-67.7,29.1-67.1,60.8
			c-0.2,18.4,5,32.4,15.5,44.4c5.1,5.9,10.9,10.5,17.2,14.1l15.5-22.6C187.9,230,187.4,230.3,186.9,230.6z"/>
		<path fill="#F8AE42" d="M245,147.2l-25.4,37.1c7.2,4.4,14.3,8.8,21.5,13.2c-17.6,10.8-35,21.4-52.7,32.3l-15.5,22.6
			c9.4,5.2,19.9,7.9,31.4,8c17,0.1,32.4-5.8,44.8-17.7c12.7-12.1,19.6-27.3,19.7-44.9C269,176.5,259.4,158.7,245,147.2z"/>
		<path fill="#FFFFFF" d="M239.7,197.4c-6.9-4.2-13.7-8.4-20.5-12.6l-29.7,43.4C206.3,217.9,222.9,207.7,239.7,197.4z"/>
		<path fill="#FFFFFF" d="M219.1,184.9c-10.7-6.6-21.4-13.1-32.2-19.7c0,21.6,0,42.9,0,64.6c0.8-0.5,1.6-1,2.5-1.5L219.1,184.9z"/>
		<path fill="#FFFFFF" d="M185.5,164.3c0,22.2,0,44.1,0,66.3c0.5-0.3,0.9-0.6,1.4-0.9c0-21.7,0-43,0-64.6
			C186.5,164.8,186,164.6,185.5,164.3z"/>
	</g>
	<g>
		<path fill="#424242" d="M65,195.7c0-50.7,0-101.4,0-152.1c0-17,12.3-29.4,29.3-29.5c73.5,0,147.1,0,220.6,0
			c17,0,29.3,12.4,29.3,29.4c0,101.5,0,203.1,0,304.6c0,17.1-12.3,29.4-29.3,29.5c-73.5,0-147.1,0-220.6,0
			c-17,0-29.3-12.4-29.3-29.4C65,297.4,65,246.6,65,195.7z M101.4,195.7c0,45,0,89.9,0,134.9c0,6.2,0,6.2,5.9,6.2
			c64.9,0,129.8,0,194.7,0c5.8,0,5.8,0,5.8-5.9c0-89.9,0-179.9,0-269.8c0-6,0-6-6.1-6c-64.7,0-129.5,0-194.2,0c-6,0-6,0-6,6.1
			C101.4,106.1,101.4,150.9,101.4,195.7z M211,357.6c0.1-3.8-2.7-6.8-6.3-6.9c-3.6-0.1-6.6,2.9-6.6,6.6c-0.1,4,2.5,6.7,6.3,6.8
			C208.3,364.1,211,361.5,211,357.6z"/>
	</g>
	<polygon fill="none" points="115.5,55.1 301.6,55.1 301.6,225.9 	"/>
	<path opacity="0.33" fill="#FFFFFF" d="M73.8,23.2l268.6,196.2l0-173c0,0-2.9-36.1-29.3-29.4H86"/>
</g>
<g>
	<path fill="#3290CF" d="M481.6,851.2c-0.2-0.3-0.8,0-0.8,0c-1.4,2.4-3.6,4-5.4,4.1c-1,0.1-1.3,0-1.3-1.2c3.6-1,4.7-3.4,4.6-5.6
		c-0.1-1.8-1.2-2.6-3-2.5c-2.5,0.1-5.4,4.2-5.3,8c-0.7,1.1-1.4,1.9-1.9,1.9c-0.6,0-0.6-0.7-0.6-1c0,0,0,0,0-1.6
		c0-1.6,0.9-11.1,0.9-11.1c-0.1-1.3-0.5-1.8-1.8-1.5c-0.4,0.1-1.3,1-1.6,2.5c-0.3,1.9-0.4,4.8-0.4,7.4c-0.5,0.9-1,1.7-1.4,2
		c-0.2,0.2-0.3,0.3-0.5,0.5c0-0.5,0.1-0.9,0.1-1.1c0.1-0.3,0.1-0.6,0.1-0.8c0-0.6-0.1-1.1-0.3-1.5s-0.4-0.8-0.7-1.1
		c-0.3-0.3-0.7-0.5-1.2-0.7c-0.5-0.2-1-0.2-1.6-0.2c-0.4,0-0.8,0.1-1.2,0.2c-0.4,0.1-0.8,0.3-1.2,0.5s-0.7,0.4-1.1,0.7
		c-0.3,0.3-0.7,0.6-1,0.9c-0.3,0.3-0.6,0.7-0.8,1.1s-0.4,0.8-0.6,1.2c-0.2,0.4-0.3,0.9-0.4,1.3c-0.1,0.5-0.1,0.9-0.1,1.4
		c0,0,0,0,0,0c-0.8,1.2-1.5,2-1.9,2c-0.2,0-0.4,0-0.4-0.3c-0.1-0.6,0.4-2.6,0.6-3.9c0.3-1.3,0.4-2.3,0.2-3c-0.2-1-0.9-1.7-2.1-1.5
		c-1.1,0.2-2.8,1.7-4.1,5.3c0.5-1.4,0.6-3.3,0.5-3.9c-0.1-0.8-0.5-1-1.4-0.9c-0.9,0.2-1.9,1.3-2.5,2.4l0,0c-1.4,2.5-2.7,6.5-3.3,6.5
		c-0.2,0-0.4,0-0.4-0.4c-0.1-0.5,0.8-3.1,1.2-4.6c0.3-1.1,0.3-1.6,0.3-2.1c-0.1-1.1-0.7-1.4-2.2-1.3c-0.4,0-0.8,0.3-1,0.6
		c-0.8,1.1-0.9,2.8-1.2,5.3c0,0-0.7,3.2-1.8,2.8c0,0-1.3-0.6,0.1-4.2c0,0,0.9-2.3,0.8-3.2c-0.1-0.7-0.4-1.2-1.3-1.1
		c-1.8,0.2-2.8,1.4-3.3,4.4c-0.5,3.3,0.1,5.7,0.1,5.7c0.3,1.3,1.2,2.4,2.1,2.4c1.5,0,2.7-1.3,3.4-3.6c-0.1,0.5,0,0.8,0,1.2
		c0.2,1.4,0.8,2.1,1.9,2c1.1-0.1,2.4-1.9,3.5-3.4c0.4-0.6,0.8-1.3,1.2-2c-0.1,0.8,0,1.6,0.1,2.3c0.3,1.6,1.3,2.7,2.8,2.5
		c0.6-0.1,1-0.2,1-0.6c0.3-2-0.2-4.2,0-4.9c0.6-1.7,1.5-2.1,1.7-2.2c0.2,0,0.3,0,0.4,0.3c0.1,0.6-0.7,3.4-0.4,5.1
		c0.3,1.4,0.9,2,2.4,1.7c1.2-0.2,2.7-1.6,3.8-3.1c0.1,0.2,0.3,0.5,0.4,0.7c0.2,0.3,0.5,0.5,0.7,0.7c0.3,0.2,0.6,0.3,0.9,0.4
		c0.3,0.1,0.7,0.1,1.1,0.1c0.3,0,0.6,0,0.8-0.1c0.3-0.1,0.5-0.2,0.8-0.3c0.1-0.1,0.4-0.2,0.7-0.4l-0.1,0.9c-0.1,1-0.1,1.4-0.1,1.5
		c0,0,0,0,0,0c-0.1,0.8-0.4,4.4-2.1,5l0,0c-2,0.7-6.2,0.3-12.7,0.1c-6.5-0.2-10,0.4-12.1,0.6c-1.7,0.2-5.7,0.8-5.7,3
		c0,0.7,0.9,0.8,0.9,0.8s1,0,1-0.7c0-1.2,10.9-1.4,14.1-1.4s12.1,0.6,12.1,0.6s0.9,0,3.6,0.1c0,0,0.5,0,1.1-0.1c0.7-0.1,1-0.3,1-0.3
		c1.5-0.8,1.9-5.2,2.1-8.3c0-0.5,0.1-1.1,0.1-1.1l0.2-2l0.2-1.1c0.7-0.4,1.5-1.1,2.3-2c0,0.4,0,0.7,0,0.8l0.1,2.2
		c0.1,1.4,0.7,1.7,2.2,1.6c1.2-0.1,2.5-1.2,3.7-2.6c0.6,1.4,1.7,2.1,3.5,2c3.4-0.2,7.5-4.7,7.4-6.6
		C481.8,852,481.8,851.5,481.6,851.2z M475.3,848.8c0.3,0,0.5,0.3,0.6,0.8c0,0.8-0.2,1.6-1.7,2C474.2,849.8,474.9,848.9,475.3,848.8
		z M459.7,854.4L459.7,854.4c0.1,0-0.4,1.4-1.8,1c-0.9-0.3-1-1.5-0.8-2.2c0.2-0.6,0.4-1,0.9-1.3c0.7-0.4,1.2-0.1,1.2-0.1
		c0.2,0.1,0.5,0.5,0.5,0.9C459.8,853.1,459.7,853.8,459.7,854.4z"/>
	<path fill="#3290CF" d="M416.2,845.6c0.1-0.1,0.4-0.3,0.5-0.4c0.2-0.1,0.6-0.2,0.8-0.2c0.4,0,0.6,0,0.9,0.2
		c0.3,0.2,0.6,0.5,0.8,0.9c0.3,0.4,0.5,0.9,0.7,1.6c0.2,0.6,0.4,1.4,0.6,2.3c0.2,0.7,0.3,1.4,0.5,2.1c0.2,0.7,0.4,1.5,0.5,2.2
		c0.2,0.8,0.4,1.5,0.6,2.3l0.5,1.7c0,0-0.2,0.3,0.4-1.2c0.6-1.5,2.2-10.1,2.6-11.5c0.3-0.8,1.7-1.6,2.8-0.9c0.7,0.4,0.8,1.6,0.5,3.1
		c-1.2,5.9-3.2,11.2-3.7,12.5l-0.5,1.1c0,0-0.7,1.4-1.3,1.8c-0.5,0.4-1,0.4-1.2,0.4c-0.2,0-0.3,0-0.5,0c-0.1,0-0.3-0.1-0.4-0.2
		c-0.1-0.1-0.3-0.3-0.4-0.5c-0.1-0.2-0.3-0.5-0.5-0.9c-0.2-0.4-0.3-0.8-0.5-1.4c-0.2-0.5-0.4-1.2-0.6-1.9c-0.2-0.7-0.5-1.6-0.8-2.6
		c-0.3-1-0.6-2.1-1-3.3c-0.2-0.8-0.5-1.5-0.7-2.2c-0.2-0.6-0.3-0.9-0.5-1.4c-0.2-0.5-0.2-0.6-0.4-1.2c-0.1-0.2-0.2-1-0.2-1.3
		C416,845.9,416.2,845.6,416.2,845.6z"/>
</g>
<g>
	<path fill="#3290CF" d="M732.6,852.2c-0.2-0.3-0.8,0-0.8,0c-1.4,2.4-3.6,4-5.4,4.1c-1,0.1-1.3,0-1.3-1.2c3.6-1,4.7-3.4,4.6-5.6
		c-0.1-1.8-1.2-2.6-3-2.5c-2.5,0.1-5.4,4.2-5.3,8c-0.7,1.1-1.4,1.9-1.9,1.9c-0.6,0-0.6-0.7-0.6-1c0,0,0,0,0-1.6
		c0-1.6,0.9-11.1,0.9-11.1c-0.1-1.3-0.5-1.8-1.8-1.5c-0.4,0.1-1.3,1-1.6,2.5c-0.3,1.9-0.4,4.8-0.4,7.4c-0.5,0.9-1,1.7-1.4,2
		c-0.2,0.2-0.3,0.3-0.5,0.5c0-0.5,0.1-0.9,0.1-1.1c0.1-0.3,0.1-0.6,0.1-0.8c0-0.6-0.1-1.1-0.3-1.5s-0.4-0.8-0.7-1.1
		c-0.3-0.3-0.7-0.5-1.2-0.7c-0.5-0.2-1-0.2-1.6-0.2c-0.4,0-0.8,0.1-1.2,0.2c-0.4,0.1-0.8,0.3-1.2,0.5s-0.7,0.4-1.1,0.7
		c-0.3,0.3-0.7,0.6-1,0.9c-0.3,0.3-0.6,0.7-0.8,1.1s-0.4,0.8-0.6,1.2c-0.2,0.4-0.3,0.9-0.4,1.3c-0.1,0.5-0.1,0.9-0.1,1.4
		c0,0,0,0,0,0c-0.8,1.2-1.5,2-1.9,2c-0.2,0-0.4,0-0.4-0.3c-0.1-0.6,0.4-2.6,0.6-3.9c0.3-1.3,0.4-2.3,0.2-3c-0.2-1-0.9-1.7-2.1-1.5
		c-1.1,0.2-2.8,1.7-4.1,5.3c0.5-1.4,0.6-3.3,0.5-3.9c-0.1-0.8-0.5-1-1.4-0.9c-0.9,0.2-1.9,1.3-2.5,2.4l0,0c-1.4,2.5-2.7,6.5-3.3,6.5
		c-0.2,0-0.4,0-0.4-0.4c-0.1-0.5,0.8-3.1,1.2-4.6c0.3-1.1,0.3-1.6,0.3-2.1c-0.1-1.1-0.7-1.4-2.2-1.3c-0.4,0-0.8,0.3-1,0.6
		c-0.8,1.1-0.9,2.8-1.2,5.3c0,0-0.7,3.2-1.8,2.8c0,0-1.3-0.6,0.1-4.2c0,0,0.9-2.3,0.8-3.2c-0.1-0.7-0.4-1.2-1.3-1.1
		c-1.8,0.2-2.8,1.4-3.3,4.4c-0.5,3.3,0.1,5.7,0.1,5.7c0.3,1.3,1.2,2.4,2.1,2.4c1.5,0,2.7-1.3,3.4-3.6c-0.1,0.5,0,0.8,0,1.2
		c0.2,1.4,0.8,2.1,1.9,2c1.1-0.1,2.4-1.9,3.5-3.4c0.4-0.6,0.8-1.3,1.2-2c-0.1,0.8,0,1.6,0.1,2.3c0.3,1.6,1.3,2.7,2.8,2.5
		c0.6-0.1,1-0.2,1-0.6c0.3-2-0.2-4.2,0-4.9c0.6-1.7,1.5-2.1,1.7-2.2c0.2,0,0.3,0,0.4,0.3c0.1,0.6-0.7,3.4-0.4,5.1
		c0.3,1.4,0.9,2,2.4,1.7c1.2-0.2,2.7-1.6,3.8-3.1c0.1,0.2,0.3,0.5,0.4,0.7c0.2,0.3,0.5,0.5,0.7,0.7c0.3,0.2,0.6,0.3,0.9,0.4
		c0.3,0.1,0.7,0.1,1.1,0.1c0.3,0,0.6,0,0.8-0.1c0.3-0.1,0.5-0.2,0.8-0.3c0.1-0.1,0.4-0.2,0.7-0.4l-0.1,0.9c-0.1,1-0.1,1.4-0.1,1.5
		c0,0,0,0,0,0c-0.1,0.8-0.4,4.4-2.1,5l0,0c-2,0.7-6.2,0.3-12.7,0.1c-6.5-0.2-10,0.4-12.1,0.6c-1.7,0.2-5.7,0.8-5.7,3
		c0,0.7,0.9,0.8,0.9,0.8s1,0,1-0.7c0-1.2,10.9-1.4,14.1-1.4s12.1,0.6,12.1,0.6s0.9,0,3.6,0.1c0,0,0.5,0,1.1-0.1c0.7-0.1,1-0.3,1-0.3
		c1.5-0.8,1.9-5.2,2.1-8.3c0-0.5,0.1-1.1,0.1-1.1l0.2-2l0.2-1.1c0.7-0.4,1.5-1.1,2.3-2c0,0.4,0,0.7,0,0.8l0.1,2.2
		c0.1,1.4,0.7,1.7,2.2,1.6c1.2-0.1,2.5-1.2,3.7-2.6c0.6,1.4,1.7,2.1,3.5,2c3.4-0.2,7.5-4.7,7.4-6.6
		C732.9,853,732.9,852.5,732.6,852.2z M726.3,849.8c0.3,0,0.5,0.3,0.6,0.8c0,0.8-0.2,1.6-1.7,2C725.3,850.8,725.9,849.9,726.3,849.8
		z M710.7,855.4L710.7,855.4c0.1,0-0.4,1.4-1.8,1c-0.9-0.3-1-1.5-0.8-2.2c0.2-0.6,0.4-1,0.9-1.3c0.7-0.4,1.2-0.1,1.2-0.1
		c0.2,0.1,0.5,0.5,0.5,0.9C710.8,854.1,710.8,854.8,710.7,855.4z"/>
	<path fill="#3290CF" d="M667.3,846.6c0.1-0.1,0.4-0.3,0.5-0.4c0.2-0.1,0.6-0.2,0.8-0.2c0.4,0,0.6,0,0.9,0.2
		c0.3,0.2,0.6,0.5,0.8,0.9c0.3,0.4,0.5,0.9,0.7,1.6c0.2,0.6,0.4,1.4,0.6,2.3c0.2,0.7,0.3,1.4,0.5,2.1c0.2,0.7,0.4,1.5,0.5,2.2
		c0.2,0.8,0.4,1.5,0.6,2.3l0.5,1.7c0,0-0.2,0.3,0.4-1.2c0.6-1.5,2.2-10.1,2.6-11.5c0.3-0.8,1.7-1.6,2.8-0.9c0.7,0.4,0.8,1.6,0.5,3.1
		c-1.2,5.9-3.2,11.2-3.7,12.5l-0.5,1.1c0,0-0.7,1.4-1.3,1.8c-0.5,0.4-1,0.4-1.2,0.4c-0.2,0-0.3,0-0.5,0c-0.1,0-0.3-0.1-0.4-0.2
		c-0.1-0.1-0.3-0.3-0.4-0.5c-0.1-0.2-0.3-0.5-0.5-0.9c-0.2-0.4-0.3-0.8-0.5-1.4c-0.2-0.5-0.4-1.2-0.6-1.9c-0.2-0.7-0.5-1.6-0.8-2.6
		c-0.3-1-0.6-2.1-1-3.3c-0.2-0.8-0.5-1.5-0.7-2.2c-0.2-0.6-0.3-0.9-0.5-1.4c-0.2-0.5-0.2-0.6-0.4-1.2c-0.1-0.2-0.2-1-0.2-1.3
		C667,846.9,667.3,846.6,667.3,846.6z"/>
</g>
</svg>
