<?xml version="1.0" encoding="utf-8"?>
<!-- Generator: Adobe Illustrator 18.1.1, SVG Export Plug-In . SVG Version: 6.00 Build 0)  -->
<!DOCTYPE svg PUBLIC "-//W3C//DTD SVG 1.1//EN" "http://www.w3.org/Graphics/SVG/1.1/DTD/svg11.dtd">
<svg version="1.1" id="Layer_1" xmlns="http://www.w3.org/2000/svg" xmlns:xlink="http://www.w3.org/1999/xlink" x="0px" y="0px"
	 viewBox="0 0 249.4 354.3" enable-background="new 0 0 249.4 354.3" xml:space="preserve">
<g>
	<polygon fill="#C1986B" points="176.5,513.5 172.9,507.9 179.7,504.9 179.7,512.5 	"/>
	<polygon fill="#C1986B" points="198,511.9 203.1,507.7 194.3,504.8 194.3,511.1 	"/>
	<path fill="#47C2CD" d="M180.1,503.9c-0.2,0.3-0.3,0.7-0.3,1.2v11.5c0,1.1,0.8,2,1.7,2h11.1c0.9,0,1.7-0.9,1.7-2v-2.9L180.1,503.9z
		"/>
	<polyline fill="#C1986B" points="187.1,526.6 175.9,520.9 175.9,515.4 179.8,517 187.1,517 198.6,511.9 204.2,511.9 198.6,515.1 	
		"/>
	<polyline fill="#C1986B" points="192.8,517.6 187.1,517 186.8,516.9 175.9,511.9 168.8,512.3 175.9,515.4 179.8,517 187.1,517 	"/>
	<polygon fill="#A77D4F" points="187.1,517 187.1,526.6 198.6,521.1 198.6,515.1 192.8,517.6 	"/>
	<polygon fill="#613A15" points="179.7,513.6 175.9,511.9 179.7,510.9 	"/>
	<polygon fill="#613A15" points="194.3,511.1 198.6,511.9 194.3,513.7 	"/>
	<path fill="#47C2CD" d="M194.3,505.1c0-1.1-0.8-2-1.7-2h-11.1c-0.6,0-1.1,0.3-1.4,0.8l14.2,9.8L194.3,505.1L194.3,505.1z"/>
	
		<image overflow="visible" enable-background="new    " width="6" height="5" xlink:href="C4D4A55916260E21.png"  transform="matrix(1 0 0 1 184 510.33)">
	</image>
	<g>
		<path fill="#FFFFFF" d="M183.3,511.1C183.3,511.1,183.3,511.1,183.3,511.1c-0.1-0.1-0.1-0.2-0.1-0.2c0-0.1,0-0.1,0.1-0.2
			c0.1-0.1,0.1-0.1,0.2-0.2c0.1-0.1,0.3-0.1,0.4-0.2c0.1,0,0.2-0.1,0.3-0.1c0.1,0,0.2,0,0.2,0s0.2,0,0.2,0c0.1,0,0.1,0,0.1,0
			c0.1,0,0.1,0,0.2,0h0.1c0.1,0,0.2,0,0.2,0c0.1,0,0.2,0,0.3,0c0.1,0,0.1,0,0.2,0c0.1,0,0.2,0,0.3,0c0.1,0,0.2,0,0.4,0
			c0.1,0,0.1,0,0.2,0c0.1,0,0.1,0,0.2,0c0.1,0,0.2,0,0.3,0c0.1,0,0.2,0,0.3,0c0.1,0,0.2,0,0.3,0s0.2,0,0.2,0s0.1,0,0.2,0
			c0.1,0,0.1,0,0.2,0c0.1,0,0.2,0,0.4-0.1c0.1,0,0.2-0.1,0.3-0.2c0.1-0.1,0.1-0.3,0.1-0.4s0.1-0.2,0.1-0.3c0-0.1,0-0.1,0-0.2
			c0-0.1,0-0.2,0-0.2l0,0c0,0-0.1,0-0.1,0.1c-0.1,0.1-0.2,0.1-0.3,0.1c-0.1,0-0.1,0-0.2,0c-0.1,0-0.1,0-0.2-0.1
			c-0.1-0.1-0.2-0.1-0.3-0.2c0,0,0-0.1-0.1-0.1l0,0c-0.1,0.1-0.2,0.2-0.3,0.3c-0.1,0.1-0.2,0.1-0.2,0.2c-0.1,0-0.1,0.1-0.2,0.1
			c-0.1,0-0.1,0-0.2,0c-0.1,0-0.1-0.1-0.2-0.2c-0.1-0.1-0.1-0.2-0.1-0.3s0-0.2,0-0.4c0-0.1,0.1-0.2,0.1-0.4c0-0.1,0-0.1,0-0.1
			c0-0.1-0.1-0.1-0.1-0.1c-0.1,0-0.1,0.1-0.1,0.1c-0.1,0.1-0.1,0.1-0.1,0.2c-0.1,0.1-0.1,0.2-0.1,0.3c0,0.1,0,0.1,0,0.1
			c0,0.2,0,0.3,0,0.5c0,0.1,0,0.1,0,0.1c0,0.1-0.1,0.1-0.1,0.1c-0.1,0.1-0.2,0.1-0.4,0c-0.1-0.1-0.1-0.1-0.2-0.2
			c-0.1-0.1-0.1-0.2-0.1-0.3c0-0.1,0-0.1,0-0.2s0-0.1,0-0.2l0,0c-0.1,0.2-0.2,0.3-0.3,0.4c-0.1,0.1-0.2,0.2-0.3,0.4
			c-0.1,0.1-0.1,0.1-0.2,0.1c-0.1,0-0.2,0-0.3-0.1c-0.1-0.1-0.1-0.2-0.1-0.2c0-0.1,0-0.1,0-0.2c0,0.1-0.1,0.1-0.1,0.1
			c-0.1,0.1-0.1,0.2-0.1,0.2c-0.1,0.1-0.1,0.1-0.2,0.2c-0.1,0-0.1,0.1-0.2,0.1c-0.1,0-0.2-0.1-0.2-0.1c-0.1-0.1-0.1-0.2-0.2-0.3
			c0-0.1,0-0.1-0.1-0.2c0-0.2,0-0.3,0-0.5c0-0.1,0-0.2,0-0.2c0-0.1,0.1-0.2,0.1-0.4c0.1-0.1,0.1-0.2,0.2-0.4
			c0.1-0.1,0.2-0.2,0.3-0.2c0.1,0,0.1,0,0.2,0c0.1,0,0.2,0.1,0.2,0.2c0,0.1,0,0.2,0,0.3c-0.1,0.1-0.1,0.2-0.1,0.4
			c-0.1,0.1-0.1,0.2-0.1,0.3c0,0.1,0,0.1,0,0.2s0,0.1,0.1,0.2c0.1,0.1,0.1,0.1,0.2,0c0.1,0,0.1-0.1,0.1-0.1c0.1-0.1,0.1-0.2,0.1-0.4
			c0-0.1,0-0.1,0-0.1c0-0.1,0-0.1,0-0.2s0-0.1,0-0.2c0-0.1,0.1-0.2,0.1-0.4c0.1-0.1,0.1-0.1,0.2-0.2c0.1,0,0.1,0,0.1,0
			c0.1,0,0.1,0,0.1,0s0.1,0,0.1,0c0.1,0.1,0.1,0.1,0.1,0.2c0,0.1,0,0.2,0,0.3c-0.1,0.2-0.1,0.4-0.2,0.7c0,0.1-0.1,0.2-0.1,0.2v0.1
			c0,0,0,0.1,0.1,0.1h0.1c0-0.1,0.1-0.1,0.1-0.1c0.1-0.1,0.1-0.3,0.2-0.4c0.1-0.1,0.1-0.2,0.1-0.2c0.1-0.1,0.1-0.2,0.2-0.3
			c0.1-0.1,0.1-0.2,0.2-0.3c0.1-0.1,0.1-0.2,0.2-0.2c0.1-0.1,0.1-0.1,0.2,0c0.1,0,0.1,0.1,0.1,0.1c0,0.1,0,0.1,0,0.1
			c0,0.1,0,0.1,0,0.1c0,0.1,0,0.1,0,0.2c0,0.1,0,0.1-0.1,0.2c0-0.1,0.1-0.1,0.1-0.1c0.1-0.1,0.1-0.2,0.1-0.2
			c0.1-0.1,0.1-0.1,0.1-0.2c0.1-0.1,0.2-0.2,0.3-0.3c0.1-0.1,0.2-0.1,0.3,0c0.1,0,0.1,0.1,0.1,0.1c0.1,0.1,0.1,0.1,0.1,0.2
			c0,0.1,0,0.1,0,0.2s0,0.2-0.1,0.2c-0.1,0.2-0.1,0.3-0.1,0.5c0,0.1-0.1,0.2-0.1,0.3c0,0,0,0.1,0.1,0.1h0.1c0.1-0.1,0.1-0.1,0.2-0.2
			c0.1-0.1,0.1-0.1,0.1-0.1c0,0,0,0,0-0.1c0-0.1,0-0.2,0.1-0.4c0.1-0.1,0.1-0.2,0.1-0.4c0.1-0.1,0.2-0.2,0.3-0.4
			c0.1-0.1,0.1-0.1,0.2-0.2c0.1-0.1,0.2-0.1,0.2-0.1c0.1,0,0.2-0.1,0.2,0c0.1,0,0.2,0,0.3,0.1c0.1,0.1,0.2,0.2,0.3,0.3
			c0.1,0.1,0.1,0.2,0.1,0.4c0,0.1,0,0.2,0,0.2l0,0c0.1-0.1,0.1-0.1,0.1-0.1c0.1-0.1,0.1-0.2,0.2-0.2c0.1-0.1,0.1-0.1,0.1-0.2
			s0-0.1,0-0.2s0-0.1,0-0.2c0-0.1,0-0.2,0-0.2c0-0.1,0-0.2,0-0.2c0-0.1,0-0.2,0-0.2c0-0.1,0-0.2,0.1-0.3c0.1-0.1,0.1-0.2,0.2-0.2
			c0.1-0.1,0.1-0.1,0.1-0.1l0,0c0.1,0,0.1,0,0.1,0l0,0c0.1,0,0.1,0.1,0.1,0.1c0.1,0.1,0.1,0.1,0.1,0.2s0,0.1,0,0.2s0,0.1,0,0.2
			s0,0.1,0,0.2s0,0.2,0,0.2c0,0.1,0,0.1,0,0.2s0,0.2,0,0.2c0,0.1,0,0.2,0,0.2c0,0.1,0,0.1,0,0.2s0,0.2,0,0.3c0,0.1,0,0.2,0,0.3
			s0,0.1,0,0.1c0,0.1,0.1,0.1,0.1,0.1s0.1-0.1,0.1-0.1c0.1-0.1,0.1-0.1,0.1-0.2c0.1-0.1,0.1-0.1,0.1-0.2v-0.1c0-0.1,0-0.2,0.1-0.2
			c0.1-0.2,0.1-0.3,0.2-0.5c0.1-0.2,0.2-0.3,0.4-0.5c0.1-0.1,0.2-0.1,0.2-0.2c0.1,0,0.1-0.1,0.2-0.1c0.1,0,0.1,0,0.2,0
			c0.1,0,0.2,0.1,0.3,0.2c0.1,0.1,0.1,0.2,0.1,0.3c0,0.1,0,0.1,0,0.2s-0.1,0.2-0.1,0.2c-0.1,0.2-0.2,0.3-0.4,0.4
			c-0.1,0.1-0.2,0.2-0.4,0.2l0,0c0,0.1,0,0.1,0,0.1c0,0.1,0.1,0.1,0.1,0.1c0.1,0,0.2,0,0.3-0.1c0.2-0.1,0.3-0.2,0.4-0.3
			c0.1-0.1,0.1-0.1,0.2-0.2c0.1-0.1,0.1-0.1,0.2-0.2c0-0.1,0.1-0.1,0.1-0.1c0.1,0,0.1,0,0.1,0.1v0.1c0,0.1,0,0.1,0,0.1l0,0
			c0,0.1,0,0.1-0.1,0.2c-0.1,0.2-0.2,0.3-0.3,0.4c-0.1,0.1-0.1,0.1-0.1,0.1c-0.1,0.1-0.1,0.1-0.1,0.1c-0.1,0.1-0.2,0.2-0.4,0.2
			c-0.1,0.1-0.2,0.1-0.4,0.1c-0.1,0-0.2,0-0.2,0c-0.2-0.1-0.4-0.2-0.4-0.3l0,0l-0.1,0.1c-0.1,0.1-0.2,0.2-0.3,0.2
			c-0.1,0.1-0.2,0.1-0.4,0.1c-0.1,0-0.1,0-0.1,0s-0.1-0.1-0.2-0.1c-0.1-0.1-0.1-0.1-0.1-0.2c0-0.1,0-0.2,0-0.4c0-0.1,0-0.1,0-0.2
			l0,0c-0.1,0.1-0.1,0.1-0.1,0.1c-0.1,0.1-0.2,0.1-0.2,0.2c0,0,0,0,0,0.1v0.1c0,0.1,0,0.2-0.1,0.4c0,0.1,0,0.2,0,0.2
			c0,0.1,0,0.2,0,0.3c0,0.1,0,0.1,0,0.2c0,0.1,0,0.2-0.1,0.3c0,0.1,0,0.2-0.1,0.2c-0.1,0.1-0.1,0.3-0.1,0.4s-0.1,0.2-0.2,0.2
			s-0.2,0.1-0.3,0c-0.1,0-0.1,0-0.2,0c-0.1,0-0.1,0-0.2,0c-0.1,0-0.1,0-0.2,0c-0.1,0-0.1,0-0.2,0c-0.1,0-0.2,0-0.2,0
			c-0.1,0-0.2,0-0.2,0c-0.1,0-0.2,0-0.2,0c-0.1,0-0.2,0-0.3,0c-0.1,0-0.1,0-0.2,0c-0.1,0-0.1,0-0.2,0c-0.1,0-0.2,0-0.2,0
			s-0.2,0-0.2,0c-0.2,0-0.4,0-0.6,0c-0.1,0-0.1,0-0.2,0c-0.1,0-0.2,0-0.4,0c-0.1,0-0.1,0-0.2,0c-0.1,0-0.1,0-0.1,0
			c-0.1,0-0.2,0-0.3,0c-0.1,0-0.1,0-0.2,0c-0.1,0-0.2,0-0.2,0.1c-0.1,0-0.2,0-0.2,0.1c-0.1,0-0.1,0-0.2,0.1c0,0-0.1,0-0.1,0.1
			s-0.1,0.1-0.1,0.1C183.5,511.1,183.4,511.1,183.3,511.1C183.4,511.1,183.3,511.1,183.3,511.1z M189.3,508.2c0.1,0,0.2-0.1,0.2-0.2
			c0-0.1,0-0.1,0-0.1c0-0.1,0-0.1,0-0.2s0-0.1-0.1-0.1c0,0,0-0.1-0.1-0.1c-0.1-0.1-0.1-0.1-0.1-0.1c-0.1,0-0.2,0.1-0.2,0.1
			c-0.1,0.1-0.1,0.2-0.1,0.4S189.1,508.2,189.3,508.2z M192.6,507.1c0-0.1,0-0.1,0-0.1c0-0.1-0.1-0.1-0.1,0
			c-0.1,0.1-0.1,0.1-0.1,0.2c0,0.1-0.1,0.2-0.1,0.2l0,0c0.1,0,0.1,0,0.1-0.1C192.6,507.4,192.6,507.3,192.6,507.1z"/>
		<path fill="#FFFFFF" d="M181.2,506.5c0-0.1,0-0.1,0.1-0.1c0.1-0.1,0.1-0.1,0.1-0.1s0.1-0.1,0.1-0.1c0.1,0,0.1,0,0.2,0.1
			c0.1,0.1,0.1,0.1,0.2,0.2c0.1,0.1,0.1,0.3,0.2,0.5c0.1,0.1,0.1,0.2,0.1,0.4c0.1,0.2,0.1,0.5,0.2,0.7c0,0.1,0.1,0.2,0.1,0.3
			c0,0.1,0.1,0.2,0.1,0.3l0,0c0,0,0,0,0-0.1s0.1-0.1,0.1-0.2c0.1-0.1,0.1-0.2,0.1-0.4c0-0.1,0.1-0.2,0.1-0.3c0-0.1,0.1-0.2,0.1-0.4
			c0-0.1,0.1-0.2,0.1-0.4c0-0.1,0.1-0.2,0.1-0.4c0-0.1,0.1-0.2,0.1-0.2c0-0.1,0.1-0.1,0.1-0.2s0.1-0.1,0.2-0.1c0.1,0,0.2,0,0.2,0.1
			c0.1,0.1,0.1,0.1,0.1,0.2s0,0.1,0,0.2s0,0.2-0.1,0.2c-0.1,0.2-0.1,0.4-0.1,0.6c-0.1,0.1-0.1,0.2-0.1,0.4c-0.1,0.2-0.1,0.4-0.2,0.6
			c-0.1,0.2-0.1,0.4-0.2,0.7c-0.1,0.1-0.1,0.2-0.1,0.3c-0.1,0.1-0.1,0.2-0.2,0.2c-0.1,0.1-0.1,0.1-0.2,0.1c-0.1,0-0.1,0-0.2,0
			c-0.1,0-0.1-0.1-0.1-0.1c-0.1-0.1-0.1-0.2-0.2-0.3c-0.1-0.1-0.1-0.2-0.1-0.4c-0.1-0.2-0.1-0.4-0.2-0.6c-0.1-0.1-0.1-0.3-0.1-0.4
			c-0.1-0.2-0.1-0.4-0.2-0.7c0-0.1-0.1-0.2-0.1-0.2c-0.1-0.1-0.1-0.2-0.1-0.3c0,0,0,0,0-0.1C181.2,506.6,181.2,506.6,181.2,506.5z"
			/>
	</g>
</g>
<g>
	
		<line fill="none" stroke="#929496" stroke-width="1.6507" stroke-linecap="square" stroke-miterlimit="10" x1="185.3" y1="616.4" x2="185.3" y2="630.2"/>
	
		<line fill="none" stroke="#929496" stroke-width="1.8459" stroke-linecap="square" stroke-miterlimit="10" x1="191.5" y1="632.3" x2="191.5" y2="639.6"/>
	
		<line fill="none" stroke="#929496" stroke-width="1.8459" stroke-linecap="square" stroke-miterlimit="10" x1="191.5" y1="616.4" x2="191.5" y2="629.9"/>
	
		<line fill="none" stroke="#929496" stroke-width="1.8459" stroke-linecap="square" stroke-miterlimit="10" x1="185.3" y1="639.6" x2="185.3" y2="632.1"/>
	<g>
		
			<line fill="none" stroke="#929496" stroke-width="1.6334" stroke-linecap="square" stroke-miterlimit="10" x1="179.2" y1="626.1" x2="179.2" y2="639.6"/>
		
			<line fill="none" stroke="#929496" stroke-width="1.8459" stroke-linecap="square" stroke-miterlimit="10" x1="179.2" y1="616.4" x2="179.2" y2="623.6"/>
		
			<line fill="none" stroke="#D91F5D" stroke-width="3.6918" stroke-linecap="square" stroke-miterlimit="10" x1="177.7" y1="623.6" x2="180.5" y2="623.6"/>
	</g>
	
		<line fill="none" stroke="#D91F5D" stroke-width="3.6918" stroke-linecap="square" stroke-miterlimit="10" x1="183.9" y1="632.7" x2="186.8" y2="632.7"/>
	
		<line fill="none" stroke="#D91F5D" stroke-width="3.6918" stroke-linecap="square" stroke-miterlimit="10" x1="190.1" y1="629.3" x2="192.9" y2="629.3"/>
	
		<line fill="none" stroke="#929496" stroke-width="1.8459" stroke-linecap="square" stroke-miterlimit="10" x1="197.3" y1="616.4" x2="197.3" y2="624.1"/>
	
		<line fill="none" stroke="#929496" stroke-width="1.6507" stroke-linecap="square" stroke-miterlimit="10" x1="197.3" y1="639.6" x2="197.3" y2="626.4"/>
	
		<line fill="none" stroke="#D91F5D" stroke-width="3.6918" stroke-linecap="square" stroke-miterlimit="10" x1="195.7" y1="623.9" x2="198.6" y2="623.9"/>
</g>
<g>
	<rect x="183.5" y="817" fill="#FFEBD3" width="19.7" height="27.7"/>
	<g>
		<path fill="none" d="M191.9,827.2c0.9,0.6,1.9,1.2,2.8,1.7l0.1-0.1C193.8,828.3,192.8,827.7,191.9,827.2
			C191.9,827.1,191.9,827.2,191.9,827.2z"/>
		<path fill="none" d="M196.5,830c-1.5,0.9-2.9,1.8-4.4,2.7l-0.1,0.1c1.6-0.9,3.1-1.9,4.6-2.9c-0.6-0.4-1.2-0.7-1.9-1.2l-0.1,0.1
			C195.3,829.3,195.9,829.7,196.5,830z"/>
		<path fill="none" d="M191.9,832.8L191.9,832.8c0.1,0.1,0.1,0,0.1,0l0.1-0.1C192,832.8,192,832.8,191.9,832.8z"/>
		<path fill="#F59222" d="M191.9,833L191.9,833c-0.1-0.1-0.1,0-0.1,0c0-1.9,0-3.9,0-5.9c0.1,0,0.1,0.1,0.1,0.1v-0.1
			c0.9,0.6,1.9,1.2,2.9,1.7l2.2-3.2c-0.9-0.7-2.1-1.2-3.3-1.2c-3.4-0.1-6,2.6-5.9,5.4c0,1.6,0.4,2.9,1.4,3.9
			c0.4,0.5,0.9,0.9,1.5,1.2l1.4-2C192,832.9,191.9,832.9,191.9,833z"/>
		<path fill="#F8AE42" d="M197,825.6l-2.2,3.2c0.6,0.4,1.2,0.7,1.9,1.2c-1.6,0.9-3.1,1.9-4.6,2.9l-1.4,2c0.8,0.4,1.7,0.7,2.7,0.7
			c1.5,0,2.9-0.5,3.9-1.6c1.1-1.1,1.7-2.4,1.7-3.9C199.1,828.2,198.3,826.6,197,825.6z"/>
		<path fill="#FFFFFF" d="M196.5,830c-0.6-0.4-1.2-0.7-1.8-1.1l-2.6,3.8C193.6,831.8,195,830.9,196.5,830z"/>
		<path fill="#FFFFFF" d="M194.7,828.9c-0.9-0.6-1.9-1.2-2.8-1.7c0,1.9,0,3.8,0,5.7c0.1-0.1,0.1-0.1,0.2-0.1L194.7,828.9z"/>
		<path fill="#FFFFFF" d="M191.8,827.1c0,1.9,0,3.9,0,5.9c0.1,0,0.1-0.1,0.1-0.1c0-1.9,0-3.8,0-5.7
			C191.8,827.2,191.8,827.1,191.8,827.1z"/>
	</g>
	<g>
		<path fill="#424242" d="M181.1,829.9c0-4.5,0-8.9,0-13.4c0-1.5,1.1-2.6,2.6-2.6c6.5,0,13,0,19.5,0c1.5,0,2.6,1.1,2.6,2.6
			c0,8.9,0,17.9,0,26.8c0,1.5-1.1,2.6-2.6,2.6c-6.5,0-13,0-19.5,0c-1.5,0-2.6-1.1-2.6-2.6C181.1,838.8,181.1,834.3,181.1,829.9z
			 M184.3,829.9c0,4,0,7.9,0,11.9c0,0.6,0,0.6,0.5,0.6c5.7,0,11.4,0,17.1,0c0.5,0,0.5,0,0.5-0.5c0-7.9,0-15.8,0-23.8
			c0-0.5,0-0.5-0.6-0.5c-5.7,0-11.4,0-17.1,0c-0.5,0-0.5,0-0.5,0.6C184.3,822,184.3,825.9,184.3,829.9z M194,844.1
			c0-0.3-0.2-0.6-0.6-0.6s-0.6,0.2-0.6,0.6c0,0.4,0.2,0.6,0.6,0.6C193.8,844.7,194,844.4,194,844.1z"/>
	</g>
	<polygon fill="none" points="185.6,817.5 202,817.5 202,832.5 	"/>
	<path opacity="0.33" fill="#FFFFFF" enable-background="new    " d="M181.9,814.7l23.6,17.3v-15.2c0,0-0.2-3.2-2.6-2.6h-20"/>
</g>
<g>
	<path fill="#3290CF" d="M300.3,583.3c-0.1-0.2-0.5,0-0.5,0c-0.9,1.5-2.2,2.5-3.4,2.6c-0.6,0.1-0.8,0-0.8-0.7
		c2.2-0.6,2.9-2.1,2.9-3.5c-0.1-1.1-0.7-1.6-1.9-1.6c-1.6,0.1-3.4,2.6-3.3,5c-0.4,0.7-0.9,1.2-1.2,1.2c-0.4,0-0.4-0.4-0.4-0.6
		c0,0,0,0,0-1s0.6-6.9,0.6-6.9c-0.1-0.8-0.3-1.1-1.1-0.9c-0.2,0.1-0.8,0.6-1,1.6c-0.2,1.2-0.2,3-0.2,4.6c-0.3,0.6-0.6,1.1-0.9,1.2
		c-0.1,0.1-0.2,0.2-0.3,0.3c0-0.3,0.1-0.6,0.1-0.7c0.1-0.2,0.1-0.4,0.1-0.5c0-0.4-0.1-0.7-0.2-0.9c-0.1-0.2-0.2-0.5-0.4-0.7
		c-0.2-0.2-0.4-0.3-0.7-0.4c-0.3-0.1-0.6-0.1-1-0.1c-0.2,0-0.5,0.1-0.7,0.1c-0.2,0.1-0.5,0.2-0.7,0.3c-0.2,0.1-0.4,0.2-0.7,0.4
		c-0.2,0.2-0.4,0.4-0.6,0.6c-0.2,0.2-0.4,0.4-0.5,0.7c-0.1,0.2-0.2,0.5-0.4,0.7s-0.2,0.6-0.2,0.8c-0.1,0.3-0.1,0.6-0.1,0.9l0,0
		c-0.5,0.7-0.9,1.2-1.2,1.2c-0.1,0-0.2,0-0.2-0.2c-0.1-0.4,0.2-1.6,0.4-2.4c0.2-0.8,0.2-1.4,0.1-1.9c-0.1-0.6-0.6-1.1-1.3-0.9
		c-0.7,0.1-1.7,1.1-2.6,3.3c0.3-0.9,0.4-2.1,0.3-2.4c-0.1-0.5-0.3-0.6-0.9-0.6c-0.6,0.1-1.2,0.8-1.6,1.5l0,0
		c-0.9,1.6-1.7,4.1-2.1,4.1c-0.1,0-0.2,0-0.2-0.2c-0.1-0.3,0.5-1.9,0.7-2.9c0.2-0.7,0.2-1,0.2-1.3c-0.1-0.7-0.4-0.9-1.4-0.8
		c-0.2,0-0.5,0.2-0.6,0.4c-0.5,0.7-0.6,1.7-0.7,3.3c0,0-0.4,2-1.1,1.7c0,0-0.8-0.4,0.1-2.6c0,0,0.6-1.4,0.5-2
		c-0.1-0.4-0.2-0.7-0.8-0.7c-1.1,0.1-1.7,0.9-2.1,2.7c-0.3,2.1,0.1,3.6,0.1,3.6c0.2,0.8,0.7,1.5,1.3,1.5c0.9,0,1.7-0.8,2.1-2.2
		c-0.1,0.3,0,0.5,0,0.7c0.1,0.9,0.5,1.3,1.2,1.2c0.7-0.1,1.5-1.2,2.2-2.1c0.2-0.4,0.5-0.8,0.7-1.2c-0.1,0.5,0,1,0.1,1.4
		c0.2,1,0.8,1.7,1.7,1.6c0.4-0.1,0.6-0.1,0.6-0.4c0.2-1.2-0.1-2.6,0-3.1c0.4-1.1,0.9-1.3,1.1-1.4c0.1,0,0.2,0,0.2,0.2
		c0.1,0.4-0.4,2.1-0.2,3.2c0.2,0.9,0.6,1.2,1.5,1.1c0.7-0.1,1.7-1,2.4-1.9c0.1,0.1,0.2,0.3,0.2,0.4c0.1,0.2,0.3,0.3,0.4,0.4
		c0.2,0.1,0.4,0.2,0.6,0.2c0.2,0.1,0.4,0.1,0.7,0.1c0.2,0,0.4,0,0.5-0.1c0.2-0.1,0.3-0.1,0.5-0.2c0.1-0.1,0.2-0.1,0.4-0.2l-0.1,0.6
		c-0.1,0.6-0.1,0.9-0.1,0.9l0,0c-0.1,0.5-0.2,2.7-1.3,3.1l0,0c-1.2,0.4-3.9,0.2-7.9,0.1s-6.2,0.2-7.5,0.4c-1.1,0.1-3.6,0.5-3.6,1.9
		c0,0.4,0.6,0.5,0.6,0.5s0.6,0,0.6-0.4c0-0.7,6.8-0.9,8.8-0.9s7.5,0.4,7.5,0.4s0.6,0,2.2,0.1c0,0,0.3,0,0.7-0.1
		c0.4-0.1,0.6-0.2,0.6-0.2c0.9-0.5,1.2-3.2,1.3-5.2c0-0.3,0.1-0.7,0.1-0.7l0.1-1.2l0.1-0.7c0.4-0.2,0.9-0.7,1.4-1.2
		c0,0.2,0,0.4,0,0.5l0.1,1.4c0.1,0.9,0.4,1.1,1.4,1c0.7-0.1,1.6-0.7,2.3-1.6c0.4,0.9,1.1,1.3,2.2,1.2c2.1-0.1,4.7-2.9,4.6-4.1
		C300.5,583.8,300.5,583.5,300.3,583.3z M296.4,581.8c0.2,0,0.3,0.2,0.4,0.5c0,0.5-0.1,1-1.1,1.2
		C295.7,582.4,296.2,581.8,296.4,581.8z M286.7,585.3L286.7,585.3c0.1,0-0.2,0.9-1.1,0.6c-0.6-0.2-0.6-0.9-0.5-1.4
		c0.1-0.4,0.2-0.6,0.6-0.8c0.4-0.2,0.7-0.1,0.7-0.1c0.1,0.1,0.3,0.3,0.3,0.6C286.7,584.5,286.7,584.9,286.7,585.3z"/>
	<path fill="#3290CF" d="M259.6,579.8c0.1-0.1,0.2-0.2,0.3-0.2c0.1-0.1,0.4-0.1,0.5-0.1c0.2,0,0.4,0,0.6,0.1
		c0.2,0.1,0.4,0.3,0.5,0.6c0.2,0.2,0.3,0.6,0.4,1c0.1,0.4,0.2,0.9,0.4,1.4c0.1,0.4,0.2,0.9,0.3,1.3s0.2,0.9,0.3,1.4
		c0.1,0.5,0.2,0.9,0.4,1.4l0.3,1.1c0,0-0.1,0.2,0.2-0.7s1.4-6.3,1.6-7.2c0.2-0.5,1.1-1,1.7-0.6c0.4,0.2,0.5,1,0.3,1.9
		c-0.7,3.7-2,7-2.3,7.8l-0.3,0.7c0,0-0.4,0.9-0.8,1.1c-0.3,0.2-0.6,0.2-0.7,0.2c-0.1,0-0.2,0-0.3,0c-0.1,0-0.2-0.1-0.2-0.1
		c-0.1-0.1-0.2-0.2-0.2-0.3c-0.1-0.1-0.2-0.3-0.3-0.6s-0.2-0.5-0.3-0.9c-0.1-0.3-0.2-0.7-0.4-1.2c-0.1-0.4-0.3-1-0.5-1.6
		c-0.2-0.6-0.4-1.3-0.6-2.1c-0.1-0.5-0.3-0.9-0.4-1.4c-0.1-0.4-0.2-0.6-0.3-0.9c-0.1-0.3-0.1-0.4-0.2-0.7c-0.1-0.1-0.1-0.6-0.1-0.8
		C259.4,580,259.6,579.8,259.6,579.8z"/>
</g>
<g>
	<path fill="#3290CF" d="M6.5,162.8c0.3-0.3,1.1-1,1.6-1.2c0.5-0.2,1.7-0.6,2.2-0.7c1.1-0.1,1.8,0.1,2.7,0.6
		c0.9,0.5,1.7,1.4,2.4,2.6c0.7,1.2,1.4,2.7,2.1,4.6c0.6,1.9,1.2,4.1,1.9,6.8c0.4,1.9,0.9,4,1.4,6.2c0.5,2.1,1.1,4.3,1.6,6.5
		c0.6,2.2,1.3,4.4,1.9,6.7l1.3,4.9c0,0-0.7,0.9,1.1-3.6s6.4-29.7,7.8-33.7c0.9-2.5,4.9-4.7,8.4-2.7c2,1.2,2.4,4.8,1.5,9.1
		c-3.6,17.3-9.4,32.9-10.9,36.6l-1.4,3.2c0,0-2.2,4.2-3.7,5.3c-1.6,1.1-3,1.2-3.6,1.2c-0.5,0.1-1,0.1-1.4-0.1
		c-0.4-0.1-0.9-0.2-1.2-0.6c-0.4-0.3-0.8-0.8-1.2-1.4c-0.4-0.6-0.9-1.5-1.3-2.6c-0.4-1.1-1-2.4-1.6-4c-0.6-1.6-1.2-3.4-1.9-5.7
		c-0.7-2.2-1.5-4.7-2.4-7.6c-0.9-2.9-1.9-6.2-2.9-9.9c-0.7-2.4-1.4-4.5-2.1-6.4s-0.8-2.6-1.4-4.1s-0.5-1.7-1.1-3.6
		c-0.3-0.6-0.7-3-0.6-3.9C5.8,163.7,6.5,162.8,6.5,162.8z"/>
	<path fill="#3290CF" d="M198.5,179.2c-0.7-0.9-2.2,0.1-2.2,0.1c-4,7-10.5,11.8-15.8,12.2c-3,0.2-3.7,0-3.9-3.5
		c10.4-3,13.8-10,13.5-16.5c-0.3-5.4-3.4-7.8-8.7-7.5c-7.3,0.4-15.8,12.2-15.7,23.6c-2.1,3.2-4.1,5.6-5.5,5.7c-1.7,0.1-1.7-2-1.8-3
		c0,0,0,0-0.1-4.8s2.6-32.7,2.6-32.7c-0.2-3.9-1.6-5.2-5.4-4.4c-1.1,0.2-3.9,2.9-4.6,7.2c-0.9,5.5-1.2,14.1-1.3,21.6
		c-1.4,2.7-3.1,4.9-4,5.9c-0.5,0.6-0.9,0.9-1.4,1.3c0.1-1.4,0.2-2.6,0.3-3.2c0.1-0.9,0.2-1.7,0.2-2.4c0-1.7-0.2-3.1-0.7-4.4
		s-1.2-2.4-2.2-3.3c-0.9-0.9-2.1-1.6-3.5-2.1c-1.4-0.5-2.9-0.7-4.7-0.7c-1.2,0-2.4,0.2-3.6,0.5s-2.3,0.7-3.4,1.4
		c-1.1,0.6-2.1,1.3-3.2,2.1c-1,0.8-1.9,1.7-2.8,2.7s-1.6,2.1-2.3,3.2c-0.7,1.2-1.3,2.4-1.8,3.6c-0.5,1.2-0.9,2.6-1.1,3.9
		c-0.2,1.3-0.4,2.7-0.4,4.1v0.1c-2.3,3.6-4.4,5.7-5.4,5.9c-0.7,0.1-1.1-0.1-1.2-0.9c-0.3-1.9,1.1-7.7,1.9-11.3
		c0.9-3.9,1.1-6.7,0.7-8.8c-0.6-3-2.7-4.9-6.2-4.3c-3.4,0.6-8.2,5.1-12.1,15.7c1.4-4.1,1.7-9.7,1.3-11.6c-0.4-2.3-1.4-3.1-4-2.6
		c-2.7,0.5-5.6,3.7-7.4,7.2l0,0c-4.2,7.5-8,19-9.8,19.2c-0.6,0.1-1.1-0.1-1.2-1.1c-0.2-1.4,2.2-9,3.4-13.5c0.8-3.2,0.9-4.8,0.8-6.2
		c-0.4-3.2-2.1-4.2-6.4-3.7c-1.1,0.1-2.3,0.8-3.1,1.8c-2.5,3.1-2.6,8.2-3.6,15.6c0,0-2.1,9.4-5.4,8.4c0,0-3.7-1.9,0.2-12.4
		c0,0,2.7-6.8,2.4-9.4c-0.2-2.2-1.1-3.5-3.7-3.2c-5.4,0.6-8.2,4.2-9.7,13.1c-1.6,9.7,0.2,16.7,0.2,16.7c0.7,3.7,3.6,7.2,6,7.1
		c4.4-0.1,8-3.8,9.9-10.6c-0.4,1.6-0.1,2.4,0,3.4c0.4,4,2.5,6.2,5.6,5.8c3.2-0.4,7.1-5.6,10.4-9.9c1.2-1.7,2.5-3.7,3.6-5.9
		c-0.2,2.4-0.1,4.7,0.2,6.7c0.9,4.6,3.9,8,8.2,7.2c1.7-0.3,2.8-0.7,2.9-1.8c0.8-5.8-0.7-12.3,0.1-14.5c1.7-4.9,4.4-6.2,5.1-6.4
		c0.6-0.1,1,0.1,1.1,0.7c0.3,1.7-2.2,10-1.3,15.1c0.7,4.2,2.6,5.9,7.1,5.1c3.5-0.6,7.9-4.7,11.3-9.2c0.4,0.7,0.7,1.4,1.2,2
		c0.6,0.7,1.4,1.4,2.2,1.9c0.8,0.5,1.7,0.9,2.7,1.2c1,0.2,2.1,0.4,3.3,0.4c0.8,0,1.6-0.1,2.4-0.3c0.8-0.2,1.6-0.5,2.2-0.8
		c0.4-0.2,1.2-0.6,2-1.1l-0.2,2.7c-0.2,2.9-0.3,4.1-0.3,4.5c0,0.1,0,0.1,0,0.1c-0.2,2.2-1.2,13-6.2,14.8l0,0
		c-6,2.1-18.1,0.9-37.2,0.4c-19-0.4-29.4,1.1-35.7,1.7c-4.9,0.5-16.8,2.4-16.8,8.9c0,2.1,2.6,2.5,2.6,2.5s2.9-0.1,2.9-2.1
		c0-3.6,32.1-4.1,41.5-4.1s35.4,1.8,35.4,1.8s2.5,0.1,10.5,0.2c0,0,1.3,0.1,3.3-0.2c1.9-0.3,3-0.9,3-0.9c4.3-2.4,5.4-15.4,6.1-24.4
		c0.1-1.5,0.2-3.1,0.2-3.1l0.5-5.9l0.5-3.2c2.1-1.3,4.4-3.2,6.7-5.8c0,1.1,0.1,1.9,0.1,2.4l0.2,6.6c0.2,4,1.9,5.1,6.4,4.8
		c3.4-0.2,7.4-3.5,10.8-7.6c1.7,4.1,5.1,6.1,10.4,5.8c10-0.6,22-13.7,21.7-19.4C199.2,181.6,199.2,180.1,198.5,179.2z M179.9,172.3
		c0.9-0.1,1.6,0.8,1.7,2.4c0.1,2.3-0.6,4.7-4.9,5.8C176.9,175.1,178.8,172.4,179.9,172.3z M134.1,188.7L134.1,188.7
		c0.2,0.1-1.3,4.1-5.3,2.9c-2.6-0.7-3-4.3-2.4-6.5c0.5-1.7,1.1-3,2.6-3.8c2.1-1.2,3.6-0.4,3.6-0.4c0.7,0.4,1.4,1.4,1.6,2.6
		C134.4,184.8,134.3,186.8,134.1,188.7z"/>
</g>
<g>
	<path fill="none" stroke="#010101" stroke-width="5.0929" stroke-miterlimit="10" d="M220.1,145.6"/>
	<path fill="none" stroke="#4E4E4E" stroke-width="5.0929" stroke-miterlimit="10" d="M202.1,147.7c0,0,0.5,17,17,9.5
		c16.5-7.5,10.6,10.6,10.6,10.6"/>
	<path fill="#959494" d="M212,138.1c0.4-1.1,0.6-2.2,0.6-3.4c0-2,0-3.9,0-5.9c0-0.4-0.1-0.4-0.4-0.4c-1.2,0-2.4,0-3.5,0
		c-0.3,0-0.4-0.1-0.4-0.4c0-2.9,0-5.7,0-8.5c0-0.1,0-0.2,0-0.4c-1.1,0-2.1,0-3.2,0c0,3,0,6,0,8.9c0,0.3-0.1,0.4-0.4,0.4
		c-1.4,0-2.7,0-4.1,0c-0.3,0-0.4-0.1-0.4-0.4c0-2.9,0-5.7,0-8.6c0-0.1,0-0.2,0-0.4c-1.1,0-2.1,0-3.1,0c0,0.2,0,0.3,0,0.5
		c0,2.8,0,5.6,0,8.4c0,0.5,0,0.5-0.5,0.5c-1.1,0-2.2,0-3.2,0l16.8,12.9C210.9,140.4,211.6,139.3,212,138.1z"/>
	<path fill="#4E4E4E" d="M193.2,128.4c-0.1,0-0.1,0-0.1,0c-0.5,0-0.5,0-0.5,0.4c0,1.8,0,3.6,0,5.4c0,0.9,0,1.7,0.2,2.6
		c0.7,2.9,2.4,5.1,5.1,6.6c0.2,0.1,0.3,0.3,0.3,0.6c0,1.1,0,2.3,0,3.4c0,0.1,0,0.2,0.1,0.3h9.4c0.1-0.1,0.1-0.1,0.1-0.2
		c0-1.2,0-2.5,0-3.8c0-0.2,0.1-0.4,0.3-0.5c0.8-0.5,1.5-1.1,2.1-1.8L193.2,128.4z"/>
</g>
<g>
	<path fill="#3290CF" d="M456.9,583.9c-0.1-0.2-0.5,0-0.5,0c-0.9,1.5-2.2,2.5-3.4,2.6c-0.6,0.1-0.8,0-0.8-0.7
		c2.2-0.6,2.9-2.1,2.9-3.5c-0.1-1.1-0.7-1.6-1.9-1.6c-1.6,0.1-3.4,2.6-3.3,5c-0.4,0.7-0.9,1.2-1.2,1.2c-0.4,0-0.4-0.4-0.4-0.6
		c0,0,0,0,0-1c0-1,0.6-6.9,0.6-6.9c-0.1-0.8-0.3-1.1-1.1-0.9c-0.2,0.1-0.8,0.6-1,1.6c-0.2,1.2-0.2,3-0.2,4.6
		c-0.3,0.6-0.6,1.1-0.9,1.2c-0.1,0.1-0.2,0.2-0.3,0.3c0-0.3,0.1-0.6,0.1-0.7c0.1-0.2,0.1-0.4,0.1-0.5c0-0.4-0.1-0.7-0.2-0.9
		c-0.1-0.2-0.2-0.5-0.4-0.7c-0.2-0.2-0.4-0.3-0.7-0.4c-0.3-0.1-0.6-0.1-1-0.1c-0.2,0-0.5,0.1-0.7,0.1c-0.2,0.1-0.5,0.2-0.7,0.3
		c-0.2,0.1-0.4,0.2-0.7,0.4c-0.2,0.2-0.4,0.4-0.6,0.6s-0.4,0.4-0.5,0.7c-0.1,0.2-0.2,0.5-0.4,0.7c-0.1,0.2-0.2,0.6-0.2,0.8
		c-0.1,0.3-0.1,0.6-0.1,0.9l0,0c-0.5,0.7-0.9,1.2-1.2,1.2c-0.1,0-0.2,0-0.2-0.2c-0.1-0.4,0.2-1.6,0.4-2.4c0.2-0.8,0.2-1.4,0.1-1.9
		c-0.1-0.6-0.6-1.1-1.3-0.9c-0.7,0.1-1.7,1.1-2.6,3.3c0.3-0.9,0.4-2.1,0.3-2.4c-0.1-0.5-0.3-0.6-0.9-0.6c-0.6,0.1-1.2,0.8-1.6,1.5
		l0,0c-0.9,1.6-1.7,4.1-2.1,4.1c-0.1,0-0.2,0-0.2-0.2c-0.1-0.3,0.5-1.9,0.7-2.9c0.2-0.7,0.2-1,0.2-1.3c-0.1-0.7-0.4-0.9-1.4-0.8
		c-0.2,0-0.5,0.2-0.6,0.4c-0.5,0.7-0.6,1.7-0.7,3.3c0,0-0.4,2-1.1,1.7c0,0-0.8-0.4,0.1-2.6c0,0,0.6-1.4,0.5-2
		c-0.1-0.4-0.2-0.7-0.8-0.7c-1.1,0.1-1.7,0.9-2.1,2.7c-0.3,2.1,0.1,3.6,0.1,3.6c0.2,0.8,0.7,1.5,1.3,1.5c0.9,0,1.7-0.8,2.1-2.2
		c-0.1,0.3,0,0.5,0,0.7c0.1,0.9,0.5,1.3,1.2,1.2c0.7-0.1,1.5-1.2,2.2-2.1c0.2-0.4,0.5-0.8,0.7-1.2c-0.1,0.5,0,1,0.1,1.4
		c0.2,1,0.8,1.7,1.7,1.6c0.4-0.1,0.6-0.1,0.6-0.4c0.2-1.2-0.1-2.6,0-3.1c0.4-1.1,0.9-1.3,1.1-1.4c0.1,0,0.2,0,0.2,0.2
		c0.1,0.4-0.4,2.1-0.2,3.2c0.2,0.9,0.6,1.2,1.5,1.1c0.7-0.1,1.7-1,2.4-1.9c0.1,0.1,0.2,0.3,0.2,0.4c0.1,0.2,0.3,0.3,0.4,0.4
		c0.2,0.1,0.4,0.2,0.6,0.2c0.2,0.1,0.4,0.1,0.7,0.1c0.2,0,0.4,0,0.5-0.1c0.2-0.1,0.3-0.1,0.5-0.2c0.1-0.1,0.2-0.1,0.4-0.2l-0.1,0.6
		c-0.1,0.6-0.1,0.9-0.1,0.9l0,0c-0.1,0.5-0.2,2.7-1.3,3.1l0,0c-1.2,0.4-3.9,0.2-7.9,0.1c-4.1-0.1-6.2,0.2-7.5,0.4
		c-1.1,0.1-3.6,0.5-3.6,1.9c0,0.4,0.6,0.5,0.6,0.5s0.6,0,0.6-0.4c0-0.7,6.8-0.9,8.8-0.9s7.5,0.4,7.5,0.4s0.6,0,2.2,0.1
		c0,0,0.3,0,0.7-0.1c0.4-0.1,0.6-0.2,0.6-0.2c0.9-0.5,1.2-3.2,1.3-5.2c0-0.3,0.1-0.7,0.1-0.7l0.1-1.2l0.1-0.7
		c0.4-0.2,0.9-0.7,1.4-1.2c0,0.2,0,0.4,0,0.5l0.1,1.4c0.1,0.9,0.4,1.1,1.4,1c0.7-0.1,1.6-0.7,2.3-1.6c0.4,0.9,1.1,1.3,2.2,1.2
		c2.1-0.1,4.7-2.9,4.6-4.1C457.1,584.4,457.1,584.1,456.9,583.9z M452.9,582.4c0.2,0,0.3,0.2,0.4,0.5c0,0.5-0.1,1-1.1,1.2
		C452.3,583,452.7,582.5,452.9,582.4z M443.2,585.9L443.2,585.9c0.1,0-0.2,0.9-1.1,0.6c-0.6-0.2-0.6-0.9-0.5-1.4
		c0.1-0.4,0.2-0.6,0.6-0.8c0.4-0.2,0.7-0.1,0.7-0.1c0.1,0.1,0.3,0.3,0.3,0.6C443.3,585.1,443.3,585.5,443.2,585.9z"/>
	<path fill="#3290CF" d="M416.1,580.4c0.1-0.1,0.2-0.2,0.3-0.2c0.1-0.1,0.4-0.1,0.5-0.1c0.2,0,0.4,0,0.6,0.1
		c0.2,0.1,0.4,0.3,0.5,0.6c0.2,0.2,0.3,0.6,0.4,1c0.1,0.4,0.2,0.9,0.4,1.4c0.1,0.4,0.2,0.9,0.3,1.3c0.1,0.4,0.2,0.9,0.3,1.4
		c0.1,0.5,0.2,0.9,0.4,1.4l0.3,1.1c0,0-0.1,0.2,0.2-0.7c0.4-0.9,1.4-6.3,1.6-7.2c0.2-0.5,1.1-1,1.7-0.6c0.4,0.2,0.5,1,0.3,1.9
		c-0.7,3.7-2,7-2.3,7.8l-0.3,0.7c0,0-0.4,0.9-0.8,1.1c-0.3,0.2-0.6,0.2-0.7,0.2s-0.2,0-0.3,0c-0.1,0-0.2-0.1-0.2-0.1
		c-0.1-0.1-0.2-0.2-0.2-0.3c-0.1-0.1-0.2-0.3-0.3-0.6c-0.1-0.2-0.2-0.5-0.3-0.9c-0.1-0.3-0.2-0.7-0.4-1.2c-0.1-0.4-0.3-1-0.5-1.6
		c-0.2-0.6-0.4-1.3-0.6-2.1c-0.1-0.5-0.3-0.9-0.4-1.4c-0.1-0.4-0.2-0.6-0.3-0.9s-0.1-0.4-0.2-0.7c-0.1-0.1-0.1-0.6-0.1-0.8
		C416,580.6,416.1,580.4,416.1,580.4z"/>
</g>
</svg>
