<?xml version="1.0" encoding="utf-8"?>
<!-- Generator: Adobe Illustrator 18.1.1, SVG Export Plug-In . SVG Version: 6.00 Build 0)  -->
<!DOCTYPE svg PUBLIC "-//W3C//DTD SVG 1.1//EN" "http://www.w3.org/Graphics/SVG/1.1/DTD/svg11.dtd">
<svg version="1.1" id="Layer_1" xmlns="http://www.w3.org/2000/svg" xmlns:xlink="http://www.w3.org/1999/xlink" x="0px" y="0px"
	 viewBox="0 0 400 400" enable-background="new 0 0 400 400" xml:space="preserve">
<g>
	<polygon fill="#C1986B" points="88,208.4 47.7,145.4 123.6,112.4 123.6,196.6 	"/>
	<polygon fill="#C1986B" points="326.2,189.5 382.5,143.6 285.1,111.8 285.1,181.2 	"/>
	<path fill="#47C2CD" d="M127.3,101.5c-2.3,3.6-3.7,8-3.7,12.8v127.8c0,12.1,8.7,21.9,19.4,21.9h122.7c10.7,0,19.4-9.8,19.4-21.9
		v-32.3L127.3,101.5z"/>
	<polyline fill="#C1986B" points="204.7,353.4 81.3,289.4 81.3,229.2 123.9,246.7 204.7,246.7 332,189.5 394.5,189.5 332,225.3 	"/>
	<polyline fill="#C1986B" points="268.4,252.8 204.7,246.7 201.3,245.1 81.3,189.5 2,194.1 81.3,229.2 123.9,246.7 204.7,246.7 	"/>
	<polygon fill="#A77D4F" points="204.7,246.7 204.7,353.4 332,291.7 332,225.3 268.4,252.8 	"/>
	<polygon fill="#613A15" points="123.6,209.1 81.3,189.5 123.6,178.2 	"/>
	<polygon fill="#613A15" points="285.1,181.2 332,189.5 285.1,210.6 	"/>
	<path fill="#47C2CD" d="M285.1,114.3c0-12.1-8.7-21.9-19.4-21.9H143c-6.4,0-12.1,3.6-15.7,9l157.7,108.3V114.3z"/>
	<text transform="matrix(1 0 0 1 173.0198 206.9492)" fill="#FFFFFF" font-family="'ArialMT'" font-size="30.5935">SDK</text>
	<g>
		<path fill="#FFFFFF" d="M163.5,181.4c-0.3-0.2-0.7-0.3-1-0.5c-0.5-0.3-0.8-1.1-0.7-1.7c0.1-0.7,0.3-1.3,0.7-1.8
			c0.5-0.8,1.2-1.3,2-1.8c1.5-0.9,3.2-1.4,5-1.8c1.2-0.3,2.4-0.5,3.6-0.6c1-0.1,1.9-0.2,2.9-0.3c0.9-0.1,1.7-0.2,2.6-0.3
			c0.5-0.1,1.1-0.1,1.6-0.1c0.9-0.1,1.7-0.2,2.6-0.2c0.3,0,0.6,0,0.9-0.1c0.9,0,1.8-0.1,2.8-0.1c1.1,0,2.2-0.1,3.3-0.1
			c0.8,0,1.6,0,2.4,0c1.1,0,2.3-0.1,3.4-0.1c1.4,0.1,2.9,0,4.3,0.1c0.7,0,1.4,0,2.2,0.1c0.7,0.1,1.3,0,2,0.1
			c1.1,0.1,2.3,0.1,3.4,0.1c1.1,0,2.2,0.1,3.3,0.1c1.2,0,2.4,0.1,3.7,0.1c1,0.1,1.9,0,2.9,0.1c0.6,0.1,1.3,0.1,1.9,0
			c0.8,0,1.6,0,2.4-0.1c1.4-0.1,2.9-0.2,4.3-0.5c1.4-0.3,2.4-1.2,3.1-2.4c0.9-1.6,1.3-3.2,1.7-5c0.2-1.1,0.4-2.2,0.5-3.3
			c0.1-0.8,0.1-1.7,0.2-2.5c0.1-0.9,0.2-1.8,0.2-2.7c0,0,0-0.1,0-0.1c-0.3,0.1-0.5,0.2-0.7,0.4c-1,0.5-2,0.9-3.1,1.1
			c-0.7,0.1-1.4,0.1-2.2,0c-0.7-0.1-1.3-0.2-2-0.5c-1.3-0.5-2.3-1.3-3.1-2.4c-0.1-0.2-0.3-0.4-0.4-0.7c-0.1-0.2-0.2-0.2-0.3,0
			c-1,1.4-2.2,2.6-3.4,3.7c-0.9,0.8-1.9,1.6-3.1,2.1c-0.7,0.3-1.4,0.5-2.1,0.6c-0.7,0.1-1.3,0.1-2-0.1c-1-0.3-1.6-1-1.9-1.9
			c-0.5-1.1-0.6-2.3-0.6-3.5c0-1.3,0.1-2.5,0.3-3.8c0.2-1.4,0.5-2.8,0.7-4.1c0.1-0.4,0.1-0.7,0.1-1.1c0-0.5-0.4-0.8-0.9-0.6
			c-0.7,0.2-1.2,0.7-1.7,1.2c-0.6,0.7-1,1.4-1.4,2.2c-0.6,1.1-0.7,2.3-0.5,3.5c0.1,0.4,0,0.8,0.1,1.1c0.2,1.8,0.2,3.7,0.1,5.5
			c0,0.4-0.1,0.9-0.1,1.3c-0.1,0.5-0.4,0.8-0.9,1c-1.3,0.5-2.6,0.6-3.8,0.1c-0.9-0.4-1.6-1.1-2.1-1.9c-0.7-1-1.1-2.1-1.3-3.3
			c-0.1-0.6-0.1-1.3-0.2-1.9c-0.1-0.8,0.1-1.6,0-2.4c-0.1,0-0.1,0.1-0.2,0.2c-0.9,1.8-2,3.5-3.3,5.1c-1.2,1.5-2.4,3-3.8,4.3
			c-0.7,0.7-1.5,1.2-2.5,1.5c-1.2,0.3-2.6-0.3-3.3-1.2c-0.6-0.8-0.9-1.7-1-2.7c-0.1-0.6-0.2-1.2-0.2-1.9c-0.2,0.6-0.5,1.2-0.7,1.7
			c-0.4,1-1,1.9-1.7,2.8c-0.7,0.8-1.4,1.4-2.3,1.8c-0.6,0.3-1.2,0.4-1.9,0.5c-1.2,0.1-2-0.5-2.7-1.2c-1-1-1.6-2.2-1.9-3.5
			c-0.2-0.8-0.3-1.6-0.4-2.3c-0.3-1.8-0.2-3.7-0.2-5.5c0-1,0.1-2,0.2-3c0.2-1.4,0.4-2.8,0.8-4.2c0.4-1.5,0.9-3,1.8-4.3
			c0.8-1.1,1.9-1.9,3.2-2.3c0.6-0.2,1.3-0.3,1.9-0.3c1.2,0,1.9,0.6,2.1,1.8c0.2,1.1,0,2.2-0.3,3.2c-0.4,1.6-1,3.1-1.5,4.6
			c-0.4,1.1-0.7,2.2-0.9,3.4c-0.1,0.7-0.2,1.4-0.2,2.1c0,0.8,0.1,1.5,0.5,2.2c0.6,1,1.1,1.1,2,0.3c0.4-0.3,0.7-0.8,0.9-1.2
			c0.7-1.4,1.2-2.9,1.6-4.4c0.1-0.5,0.1-1.1,0.2-1.7c0.1-0.8,0.2-1.6,0.3-2.4c0.1-0.6,0.2-1.3,0.3-1.9c0.2-1.5,0.5-2.9,1.2-4.2
			c0.4-0.9,1-1.6,2-2.1c0.4-0.2,0.8-0.2,1.2-0.3c0.5-0.1,1-0.1,1.5,0c0.5,0,0.9,0.1,1.4,0.3c0.9,0.4,1.3,1.1,1.4,1.9
			c0.2,1.2,0.1,2.3-0.2,3.5c-0.5,2.5-1.3,5-2,7.5c-0.3,1-0.5,2-0.7,3c-0.1,0.3-0.2,0.6,0,1c0.1,0.2,0.2,0.5,0.4,0.5
			c0.3,0.1,0.5,0,0.8-0.3c0.3-0.4,0.6-0.8,0.8-1.2c0.8-1.6,1.5-3.2,2.2-4.8c0.4-1,0.9-1.9,1.3-2.9c0.6-1.2,1.1-2.4,1.7-3.6
			c0.7-1.3,1.3-2.5,2.3-3.7c0.8-1,1.7-1.8,2.8-2.3c0.8-0.4,1.7-0.5,2.6-0.2c0.5,0.1,0.8,0.5,0.9,1c0.2,0.4,0.3,0.9,0.3,1.4
			c0,0.5,0.1,1,0,1.5c-0.1,0.9-0.1,1.7-0.2,2.6c-0.1,0.8-0.3,1.7-0.4,2.5c0.2-0.5,0.5-1,0.7-1.5c0.4-0.9,0.8-1.7,1.3-2.6
			c0.5-0.8,1-1.6,1.5-2.3c1-1.3,2.1-2.5,3.6-3.2c1.2-0.6,2.5-0.7,3.7-0.1c0.6,0.3,1.1,0.7,1.4,1.3c0.5,0.8,0.6,1.6,0.7,2.5
			c0.1,0.6,0,1.2,0,1.9c0,0.9-0.2,1.8-0.4,2.6c-0.4,1.8-0.8,3.6-1.2,5.5c-0.2,1.1-0.4,2.2-0.4,3.4c0,0.3,0.1,0.6,0.4,0.8
			c0.3,0.2,0.6,0.1,0.9-0.1c0.9-0.6,1.6-1.4,2.2-2.2c0.4-0.5,0.8-1.1,1.2-1.7c0.1-0.1,0.1-0.2,0.1-0.4c0-1.3,0.2-2.6,0.5-3.8
			c0.4-1.4,1-2.8,1.7-4.1c0.9-1.6,2-2.9,3.3-4.1c0.8-0.7,1.7-1.4,2.6-1.9c0.9-0.5,1.9-0.9,2.9-1.2c1-0.3,2.1-0.4,3.1-0.3
			c1.3,0.1,2.5,0.3,3.7,0.9c1.6,0.8,2.6,2,3.2,3.7c0.5,1.3,0.5,2.6,0.4,4c-0.1,0.9-0.3,1.8-0.3,2.8c0,0.1,0,0.2,0,0.3
			c0.5-0.4,0.9-0.9,1.3-1.4c0.7-0.9,1.3-1.8,1.9-2.8c0.4-0.6,0.6-1.2,0.6-1.9c-0.1-0.6-0.1-1.3,0-1.9c0.1-0.8,0-1.6,0.1-2.4
			c0.1-0.9,0.1-1.9,0.1-2.8c0-1,0.1-1.9,0.2-2.8c0.1-1,0.2-2,0.3-3c0.2-1.1,0.3-2.3,0.7-3.4c0.5-1.1,1.1-2.2,2-3
			c0.4-0.4,0.9-0.5,1.4-0.6c0.1,0,0.1,0,0.2-0.1c0.4,0,0.8,0,1.2,0c0,0,0,0.1,0.1,0.1c0.7,0.1,1.1,0.5,1.4,1
			c0.4,0.7,0.5,1.5,0.5,2.2c0,0.6-0.1,1.3-0.2,1.9c-0.1,0.8-0.2,1.5-0.2,2.3c-0.1,0.8-0.1,1.6-0.2,2.4c-0.1,1-0.2,2-0.3,3
			c-0.1,0.7-0.1,1.4-0.2,2c-0.1,1-0.2,2-0.3,3c-0.1,1-0.2,2.1-0.2,3.1c-0.1,0.8-0.1,1.7-0.2,2.5c-0.1,1-0.1,2.1-0.1,3.1
			c0,1.3,0.1,2.5,0.1,3.8c0,0.4,0.1,0.9,0.3,1.3c0.2,0.6,0.8,0.8,1.3,0.6c0.5-0.2,0.9-0.6,1.3-0.9c0.6-0.6,1.1-1.3,1.6-2
			c0.5-0.6,0.9-1.3,0.7-2.2c0-0.2,0-0.4,0.1-0.5c0-0.9,0.2-1.8,0.4-2.7c0.4-1.8,1.1-3.6,2-5.2c1.1-2,2.3-3.7,4-5.2
			c0.9-0.8,1.8-1.4,2.8-1.8c0.6-0.2,1.2-0.4,1.8-0.5c0.8,0,1.6-0.1,2.5,0.1c1.3,0.3,2.5,0.9,3.2,2.1c0.7,1.1,0.9,2.3,0.9,3.5
			c0,0.6,0,1.2-0.1,1.9c-0.1,1-0.4,2-0.8,3c-0.8,1.9-2.1,3.3-3.8,4.5c-1.5,1-3.1,1.7-4.8,2.2c-0.1,0-0.2,0.1-0.2,0.3
			c0,0.5,0.1,0.9,0.2,1.4c0.2,0.6,0.6,0.9,1.2,0.9c1.3,0.1,2.5-0.1,3.7-0.5c1.9-0.7,3.5-1.8,5-3.2c0.7-0.7,1.4-1.3,2-2.1
			c0.6-0.8,1.3-1.6,1.8-2.5c0.2-0.4,0.5-0.6,0.9-0.7c0.7-0.1,0.9-0.1,1.3,0.6c0.1,0.3,0.1,0.5,0.2,0.8c0,0.4,0,0.8,0,1.2
			c0,0-0.1,0-0.1,0.1c-0.1,0.6-0.3,1.2-0.6,1.8c-0.8,1.7-2,3.2-3.2,4.6c-0.5,0.6-1.1,1.1-1.6,1.6c-0.5,0.5-1,0.9-1.5,1.3
			c-1.5,1.1-3,2.1-4.7,2.9c-1.3,0.5-2.5,0.9-3.9,1c-0.9,0.1-1.8,0-2.7-0.2c-2.3-0.4-3.8-1.8-4.8-3.8c-0.1-0.2-0.1-0.1-0.2,0
			c-0.2,0.3-0.5,0.6-0.7,0.8c-1,1-2,2-3.2,2.9c-1.4,1-2.8,1.6-4.5,1.6c-0.5,0-1,0-1.4-0.1c-0.8-0.1-1.5-0.5-2-1.2
			c-0.4-0.7-0.5-1.4-0.5-2.2c0-1.3-0.1-2.7-0.1-4c0-0.8,0.1-1.5-0.1-2.3c0,0-0.1,0.1-0.1,0.1c-0.5,0.6-1.1,1.1-1.6,1.6
			c-0.9,0.8-1.8,1.5-2.7,2.1c-0.2,0.1-0.3,0.2-0.3,0.4c0,0.3-0.1,0.5-0.1,0.8c-0.3,1.5-0.3,3-0.5,4.4c-0.1,0.9-0.2,1.8-0.2,2.7
			c-0.1,1.1-0.1,2.2-0.3,3.3c-0.1,0.8-0.1,1.6-0.2,2.3c-0.1,1.1-0.2,2.2-0.4,3.3c-0.2,1-0.3,2-0.5,2.9c-0.4,1.6-0.8,3.2-1.6,4.7
			c-0.6,1.1-1.4,1.8-2.7,2.1c-1.1,0.2-2.3,0.4-3.4,0.3c-0.7-0.1-1.4,0-2.1-0.1c-0.8-0.1-1.7,0-2.5-0.1c-0.8-0.1-1.7,0-2.5-0.1
			c-0.7-0.1-1.5-0.1-2.2-0.1c-0.9-0.1-1.9-0.1-2.8-0.2c-1-0.1-1.9-0.1-2.9-0.2c-1-0.1-2.1-0.1-3.1-0.2c-1.1-0.1-2.2-0.1-3.2-0.2
			c-0.8,0-1.5-0.1-2.3-0.1c-0.9,0-1.7-0.1-2.6-0.1c-1,0-1.9-0.1-2.9-0.1c-0.9,0-1.9-0.1-2.8-0.1c-2.3,0-4.6,0-6.8,0.1
			c-0.8,0-1.6,0-2.4,0c-1.4,0.1-2.9,0.1-4.3,0.1c-0.8,0-1.7,0.1-2.5,0.1c-0.4,0-0.9,0-1.3,0c-1.1,0.1-2.2,0.2-3.4,0.2
			c-0.6,0-1.3,0.1-1.9,0.1c-1,0.1-2.1,0.2-3.1,0.4c-1,0.1-2,0.3-3,0.5c-0.7,0.2-1.4,0.3-2,0.7c-0.2,0.1-0.4,0.3-0.4,0.6
			c0,0.5-0.3,0.9-0.8,1.1c-0.3,0.1-0.6,0.2-0.9,0.3C163.9,181.4,163.7,181.4,163.5,181.4z M229.4,149.3c1.3,0.1,2.4-1,2.8-2
			c0.1-0.4,0.2-0.9,0.2-1.4c0-0.7,0.1-1.3,0-2c-0.1-0.5-0.2-1.1-0.4-1.5c-0.1-0.2-0.3-0.5-0.5-0.7c-0.5-0.4-1-0.5-1.6-0.4
			c-1,0.2-1.8,0.6-2.3,1.5c-0.8,1.2-1.1,2.6-0.8,4.1C226.9,148.3,227.9,149.3,229.4,149.3z M266.5,137.2c0-0.4-0.1-0.9-0.3-1.4
			c-0.3-0.5-1-0.7-1.4-0.2c-0.7,0.7-1,1.5-1.3,2.4c-0.3,1-0.4,2-0.5,3c0,0.1,0.1,0.1,0.2,0.1c0.4-0.1,0.7-0.2,1.1-0.4
			C265.7,140.1,266.5,138.9,266.5,137.2z"/>
		<path fill="#FFFFFF" d="M139.6,130.1c0.2-0.4,0.2-0.9,0.4-1.3c0.4-0.7,0.9-1.1,1.6-1.3c0.5-0.2,1.1-0.4,1.6-0.5
			c0.6,0,1.2,0.1,1.8,0.5c1,0.6,1.6,1.5,2.1,2.4c0.9,1.7,1.4,3.5,1.9,5.3c0.4,1.3,0.7,2.6,1,3.9c0.7,2.8,1.3,5.6,2,8.3
			c0.3,1.1,0.6,2.2,1,3.4c0.3,1.2,0.6,2.3,1,3.5c0,0.1,0.1,0.2,0.1,0.3c0.1-0.1,0.1-0.3,0.2-0.5c0.3-0.9,0.7-1.7,0.9-2.6
			c0.4-1.3,0.7-2.6,1-3.9c0.2-1,0.5-2.1,0.7-3.1c0.3-1.4,0.6-2.9,0.9-4.3c0.3-1.4,0.6-2.7,0.9-4.1c0.3-1.5,0.6-3.1,1-4.6
			c0.2-1,0.5-2.1,0.8-3.1c0.2-0.8,0.7-1.5,1.5-2c0.8-0.6,1.7-0.9,2.7-0.9c1,0,1.9,0.3,2.5,1c0.5,0.5,0.6,1.1,0.8,1.8
			c0.1,0.6,0.2,1.3,0.1,2c-0.1,0.9-0.2,1.8-0.4,2.7c-0.5,2.2-1,4.5-1.6,6.7c-0.4,1.5-0.8,3-1.2,4.5c-0.6,2.2-1.3,4.4-2,6.5
			c-0.8,2.4-1.6,4.9-2.6,7.3c-0.5,1.2-1,2.5-1.6,3.7c-0.5,1.1-1.2,2.1-2,3c-0.6,0.7-1.4,1.1-2.3,1.3c-0.6,0.1-1.3,0.2-1.9,0.1
			c-0.6-0.1-1-0.4-1.3-0.8c-0.9-1.1-1.4-2.4-1.9-3.7c-0.6-1.5-1.1-3-1.6-4.5c-0.7-2.2-1.4-4.4-2-6.6c-0.5-1.6-1-3.1-1.4-4.7
			c-0.7-2.6-1.6-5.1-2.4-7.6c-0.3-0.9-0.6-1.7-0.9-2.6c-0.4-1.2-0.8-2.4-1-3.7c0-0.1,0.1-0.3-0.1-0.4
			C139.6,131,139.6,130.5,139.6,130.1z"/>
	</g>
</g>
<g>
	
		<line fill="none" stroke="#929496" stroke-width="1.6507" stroke-linecap="square" stroke-miterlimit="10" x1="297.2" y1="904.3" x2="297.2" y2="926.4"/>
	
		<line fill="none" stroke="#929496" stroke-width="1.8459" stroke-linecap="square" stroke-miterlimit="10" x1="307.1" y1="929.8" x2="307.1" y2="941.5"/>
	
		<line fill="none" stroke="#929496" stroke-width="1.8459" stroke-linecap="square" stroke-miterlimit="10" x1="307.1" y1="904.3" x2="307.1" y2="925.9"/>
	
		<line fill="none" stroke="#929496" stroke-width="1.8459" stroke-linecap="square" stroke-miterlimit="10" x1="297.2" y1="941.5" x2="297.2" y2="929.5"/>
	<g>
		
			<line fill="none" stroke="#929496" stroke-width="1.6334" stroke-linecap="square" stroke-miterlimit="10" x1="287.3" y1="919.9" x2="287.3" y2="941.5"/>
		
			<line fill="none" stroke="#929496" stroke-width="1.8459" stroke-linecap="square" stroke-miterlimit="10" x1="287.3" y1="904.3" x2="287.3" y2="915.8"/>
		
			<line fill="none" stroke="#D91F5D" stroke-width="3.6918" stroke-linecap="square" stroke-miterlimit="10" x1="284.9" y1="915.8" x2="289.5" y2="915.8"/>
	</g>
	
		<line fill="none" stroke="#D91F5D" stroke-width="3.6918" stroke-linecap="square" stroke-miterlimit="10" x1="294.9" y1="930.5" x2="299.5" y2="930.5"/>
	
		<line fill="none" stroke="#D91F5D" stroke-width="3.6918" stroke-linecap="square" stroke-miterlimit="10" x1="304.8" y1="925" x2="309.4" y2="925"/>
	
		<line fill="none" stroke="#929496" stroke-width="1.8459" stroke-linecap="square" stroke-miterlimit="10" x1="316.3" y1="904.3" x2="316.3" y2="916.6"/>
	
		<line fill="none" stroke="#929496" stroke-width="1.6507" stroke-linecap="square" stroke-miterlimit="10" x1="316.4" y1="941.5" x2="316.4" y2="920.3"/>
	
		<line fill="none" stroke="#D91F5D" stroke-width="3.6918" stroke-linecap="square" stroke-miterlimit="10" x1="313.8" y1="916.3" x2="318.4" y2="916.3"/>
</g>
<g>
	<rect x="294.3" y="1226" fill="#FFEBD3" width="31.6" height="44.4"/>
	<g>
		<path fill="none" d="M307.7,1242.3c1.5,0.9,3,1.9,4.5,2.8l0.1-0.1c-1.5-0.9-3.1-1.9-4.6-2.8
			C307.7,1242.2,307.7,1242.3,307.7,1242.3z"/>
		<path fill="none" d="M315.1,1246.9c-2.4,1.5-4.7,2.9-7.1,4.3l-0.1,0.2c2.5-1.5,5-3,7.4-4.6c-1-0.6-2-1.2-3-1.9l-0.1,0.1
			C313.2,1245.7,314.1,1246.3,315.1,1246.9z"/>
		<path fill="none" d="M307.7,1251.4c0,0,0,0.1,0,0.1c0.1,0,0.1-0.1,0.2-0.1l0.1-0.2C307.9,1251.3,307.8,1251.4,307.7,1251.4z"/>
		<path fill="#F59222" d="M307.7,1251.6c0,0,0-0.1,0-0.1c-0.1,0-0.1,0.1-0.2,0.1c0-3.1,0-6.2,0-9.4c0.1,0,0.1,0.1,0.2,0.1
			c0,0,0-0.1,0-0.1c1.5,0.9,3.1,1.9,4.6,2.8l3.6-5.2c-1.5-1.2-3.4-1.9-5.3-2c-5.4-0.2-9.6,4.1-9.5,8.6c0,2.6,0.7,4.6,2.2,6.3
			c0.7,0.8,1.5,1.5,2.4,2l2.2-3.2C307.8,1251.5,307.7,1251.5,307.7,1251.6z"/>
		<path fill="#F8AE42" d="M315.9,1239.8l-3.6,5.2c1,0.6,2,1.2,3,1.9c-2.5,1.5-4.9,3-7.4,4.6l-2.2,3.2c1.3,0.7,2.8,1.1,4.4,1.1
			c2.4,0,4.6-0.8,6.3-2.5c1.8-1.7,2.8-3.9,2.8-6.3C319.3,1243.9,317.9,1241.4,315.9,1239.8z"/>
		<path fill="#FFFFFF" d="M315.1,1246.9c-1-0.6-1.9-1.2-2.9-1.8l-4.2,6.1C310.4,1249.8,312.7,1248.3,315.1,1246.9z"/>
		<path fill="#FFFFFF" d="M312.2,1245.1c-1.5-0.9-3-1.9-4.5-2.8c0,3.1,0,6.1,0,9.1c0.1-0.1,0.2-0.1,0.3-0.2L312.2,1245.1z"/>
		<path fill="#FFFFFF" d="M307.5,1242.2c0,3.1,0,6.2,0,9.4c0.1,0,0.1-0.1,0.2-0.1c0-3.1,0-6.1,0-9.1
			C307.6,1242.3,307.5,1242.2,307.5,1242.2z"/>
	</g>
	<g>
		<path fill="#424242" d="M290.4,1246.6c0-7.2,0-14.3,0-21.5c0-2.4,1.7-4.2,4.1-4.2c10.4,0,20.8,0,31.2,0c2.4,0,4.1,1.8,4.1,4.2
			c0,14.3,0,28.7,0,43c0,2.4-1.7,4.2-4.1,4.2c-10.4,0-20.8,0-31.2,0c-2.4,0-4.1-1.7-4.1-4.2C290.4,1261,290.4,1253.8,290.4,1246.6z
			 M295.6,1246.6c0,6.4,0,12.7,0,19.1c0,0.9,0,0.9,0.8,0.9c9.2,0,18.3,0,27.5,0c0.8,0,0.8,0,0.8-0.8c0-12.7,0-25.4,0-38.1
			c0-0.8,0-0.8-0.9-0.8c-9.1,0-18.3,0-27.4,0c-0.8,0-0.8,0-0.8,0.9C295.6,1234,295.6,1240.3,295.6,1246.6z M311.1,1269.5
			c0-0.5-0.4-1-0.9-1c-0.5,0-0.9,0.4-0.9,0.9c0,0.6,0.3,0.9,0.9,1C310.7,1270.4,311.1,1270,311.1,1269.5z"/>
	</g>
	<polygon fill="none" points="297.6,1226.8 323.9,1226.8 323.9,1250.9 	"/>
	<path opacity="0.33" fill="#FFFFFF" d="M291.7,1222.3l37.9,27.7l0-24.4c0,0-0.4-5.1-4.1-4.2h-32.1"/>
</g>
<g>
	<path fill="#3290CF" d="M481.6,851.2c-0.2-0.3-0.8,0-0.8,0c-1.4,2.4-3.6,4-5.4,4.1c-1,0.1-1.3,0-1.3-1.2c3.6-1,4.7-3.4,4.6-5.6
		c-0.1-1.8-1.2-2.6-3-2.5c-2.5,0.1-5.4,4.2-5.3,8c-0.7,1.1-1.4,1.9-1.9,1.9c-0.6,0-0.6-0.7-0.6-1c0,0,0,0,0-1.6
		c0-1.6,0.9-11.1,0.9-11.1c-0.1-1.3-0.5-1.8-1.8-1.5c-0.4,0.1-1.3,1-1.6,2.5c-0.3,1.9-0.4,4.8-0.4,7.4c-0.5,0.9-1,1.7-1.4,2
		c-0.2,0.2-0.3,0.3-0.5,0.5c0-0.5,0.1-0.9,0.1-1.1c0.1-0.3,0.1-0.6,0.1-0.8c0-0.6-0.1-1.1-0.3-1.5s-0.4-0.8-0.7-1.1
		c-0.3-0.3-0.7-0.5-1.2-0.7c-0.5-0.2-1-0.2-1.6-0.2c-0.4,0-0.8,0.1-1.2,0.2c-0.4,0.1-0.8,0.3-1.2,0.5s-0.7,0.4-1.1,0.7
		c-0.3,0.3-0.7,0.6-1,0.9c-0.3,0.3-0.6,0.7-0.8,1.1s-0.4,0.8-0.6,1.2c-0.2,0.4-0.3,0.9-0.4,1.3c-0.1,0.5-0.1,0.9-0.1,1.4
		c0,0,0,0,0,0c-0.8,1.2-1.5,2-1.9,2c-0.2,0-0.4,0-0.4-0.3c-0.1-0.6,0.4-2.6,0.6-3.9c0.3-1.3,0.4-2.3,0.2-3c-0.2-1-0.9-1.7-2.1-1.5
		c-1.1,0.2-2.8,1.7-4.1,5.3c0.5-1.4,0.6-3.3,0.5-3.9c-0.1-0.8-0.5-1-1.4-0.9c-0.9,0.2-1.9,1.3-2.5,2.4l0,0c-1.4,2.5-2.7,6.5-3.3,6.5
		c-0.2,0-0.4,0-0.4-0.4c-0.1-0.5,0.8-3.1,1.2-4.6c0.3-1.1,0.3-1.6,0.3-2.1c-0.1-1.1-0.7-1.4-2.2-1.3c-0.4,0-0.8,0.3-1,0.6
		c-0.8,1.1-0.9,2.8-1.2,5.3c0,0-0.7,3.2-1.8,2.8c0,0-1.3-0.6,0.1-4.2c0,0,0.9-2.3,0.8-3.2c-0.1-0.7-0.4-1.2-1.3-1.1
		c-1.8,0.2-2.8,1.4-3.3,4.4c-0.5,3.3,0.1,5.7,0.1,5.7c0.3,1.3,1.2,2.4,2.1,2.4c1.5,0,2.7-1.3,3.4-3.6c-0.1,0.5,0,0.8,0,1.2
		c0.2,1.4,0.8,2.1,1.9,2c1.1-0.1,2.4-1.9,3.5-3.4c0.4-0.6,0.8-1.3,1.2-2c-0.1,0.8,0,1.6,0.1,2.3c0.3,1.6,1.3,2.7,2.8,2.5
		c0.6-0.1,1-0.2,1-0.6c0.3-2-0.2-4.2,0-4.9c0.6-1.7,1.5-2.1,1.7-2.2c0.2,0,0.3,0,0.4,0.3c0.1,0.6-0.7,3.4-0.4,5.1
		c0.3,1.4,0.9,2,2.4,1.7c1.2-0.2,2.7-1.6,3.8-3.1c0.1,0.2,0.3,0.5,0.4,0.7c0.2,0.3,0.5,0.5,0.7,0.7c0.3,0.2,0.6,0.3,0.9,0.4
		c0.3,0.1,0.7,0.1,1.1,0.1c0.3,0,0.6,0,0.8-0.1c0.3-0.1,0.5-0.2,0.8-0.3c0.1-0.1,0.4-0.2,0.7-0.4l-0.1,0.9c-0.1,1-0.1,1.4-0.1,1.5
		c0,0,0,0,0,0c-0.1,0.8-0.4,4.4-2.1,5l0,0c-2,0.7-6.2,0.3-12.7,0.1c-6.5-0.2-10,0.4-12.1,0.6c-1.7,0.2-5.7,0.8-5.7,3
		c0,0.7,0.9,0.8,0.9,0.8s1,0,1-0.7c0-1.2,10.9-1.4,14.1-1.4s12.1,0.6,12.1,0.6s0.9,0,3.6,0.1c0,0,0.5,0,1.1-0.1c0.7-0.1,1-0.3,1-0.3
		c1.5-0.8,1.9-5.2,2.1-8.3c0-0.5,0.1-1.1,0.1-1.1l0.2-2l0.2-1.1c0.7-0.4,1.5-1.1,2.3-2c0,0.4,0,0.7,0,0.8l0.1,2.2
		c0.1,1.4,0.7,1.7,2.2,1.6c1.2-0.1,2.5-1.2,3.7-2.6c0.6,1.4,1.7,2.1,3.5,2c3.4-0.2,7.5-4.7,7.4-6.6
		C481.8,852,481.8,851.5,481.6,851.2z M475.3,848.8c0.3,0,0.5,0.3,0.6,0.8c0,0.8-0.2,1.6-1.7,2C474.2,849.8,474.9,848.9,475.3,848.8
		z M459.7,854.4L459.7,854.4c0.1,0-0.4,1.4-1.8,1c-0.9-0.3-1-1.5-0.8-2.2c0.2-0.6,0.4-1,0.9-1.3c0.7-0.4,1.2-0.1,1.2-0.1
		c0.2,0.1,0.5,0.5,0.5,0.9C459.8,853.1,459.7,853.8,459.7,854.4z"/>
	<path fill="#3290CF" d="M416.2,845.6c0.1-0.1,0.4-0.3,0.5-0.4c0.2-0.1,0.6-0.2,0.8-0.2c0.4,0,0.6,0,0.9,0.2
		c0.3,0.2,0.6,0.5,0.8,0.9c0.3,0.4,0.5,0.9,0.7,1.6c0.2,0.6,0.4,1.4,0.6,2.3c0.2,0.7,0.3,1.4,0.5,2.1c0.2,0.7,0.4,1.5,0.5,2.2
		c0.2,0.8,0.4,1.5,0.6,2.3l0.5,1.7c0,0-0.2,0.3,0.4-1.2c0.6-1.5,2.2-10.1,2.6-11.5c0.3-0.8,1.7-1.6,2.8-0.9c0.7,0.4,0.8,1.6,0.5,3.1
		c-1.2,5.9-3.2,11.2-3.7,12.5l-0.5,1.1c0,0-0.7,1.4-1.3,1.8c-0.5,0.4-1,0.4-1.2,0.4c-0.2,0-0.3,0-0.5,0c-0.1,0-0.3-0.1-0.4-0.2
		c-0.1-0.1-0.3-0.3-0.4-0.5c-0.1-0.2-0.3-0.5-0.5-0.9c-0.2-0.4-0.3-0.8-0.5-1.4c-0.2-0.5-0.4-1.2-0.6-1.9c-0.2-0.7-0.5-1.6-0.8-2.6
		c-0.3-1-0.6-2.1-1-3.3c-0.2-0.8-0.5-1.5-0.7-2.2c-0.2-0.6-0.3-0.9-0.5-1.4c-0.2-0.5-0.2-0.6-0.4-1.2c-0.1-0.2-0.2-1-0.2-1.3
		C416,845.9,416.2,845.6,416.2,845.6z"/>
</g>
<g>
	<path fill="#3290CF" d="M732.6,852.2c-0.2-0.3-0.8,0-0.8,0c-1.4,2.4-3.6,4-5.4,4.1c-1,0.1-1.3,0-1.3-1.2c3.6-1,4.7-3.4,4.6-5.6
		c-0.1-1.8-1.2-2.6-3-2.5c-2.5,0.1-5.4,4.2-5.3,8c-0.7,1.1-1.4,1.9-1.9,1.9c-0.6,0-0.6-0.7-0.6-1c0,0,0,0,0-1.6
		c0-1.6,0.9-11.1,0.9-11.1c-0.1-1.3-0.5-1.8-1.8-1.5c-0.4,0.1-1.3,1-1.6,2.5c-0.3,1.9-0.4,4.8-0.4,7.4c-0.5,0.9-1,1.7-1.4,2
		c-0.2,0.2-0.3,0.3-0.5,0.5c0-0.5,0.1-0.9,0.1-1.1c0.1-0.3,0.1-0.6,0.1-0.8c0-0.6-0.1-1.1-0.3-1.5s-0.4-0.8-0.7-1.1
		c-0.3-0.3-0.7-0.5-1.2-0.7c-0.5-0.2-1-0.2-1.6-0.2c-0.4,0-0.8,0.1-1.2,0.2c-0.4,0.1-0.8,0.3-1.2,0.5s-0.7,0.4-1.1,0.7
		c-0.3,0.3-0.7,0.6-1,0.9c-0.3,0.3-0.6,0.7-0.8,1.1s-0.4,0.8-0.6,1.2c-0.2,0.4-0.3,0.9-0.4,1.3c-0.1,0.5-0.1,0.9-0.1,1.4
		c0,0,0,0,0,0c-0.8,1.2-1.5,2-1.9,2c-0.2,0-0.4,0-0.4-0.3c-0.1-0.6,0.4-2.6,0.6-3.9c0.3-1.3,0.4-2.3,0.2-3c-0.2-1-0.9-1.7-2.1-1.5
		c-1.1,0.2-2.8,1.7-4.1,5.3c0.5-1.4,0.6-3.3,0.5-3.9c-0.1-0.8-0.5-1-1.4-0.9c-0.9,0.2-1.9,1.3-2.5,2.4l0,0c-1.4,2.5-2.7,6.5-3.3,6.5
		c-0.2,0-0.4,0-0.4-0.4c-0.1-0.5,0.8-3.1,1.2-4.6c0.3-1.1,0.3-1.6,0.3-2.1c-0.1-1.1-0.7-1.4-2.2-1.3c-0.4,0-0.8,0.3-1,0.6
		c-0.8,1.1-0.9,2.8-1.2,5.3c0,0-0.7,3.2-1.8,2.8c0,0-1.3-0.6,0.1-4.2c0,0,0.9-2.3,0.8-3.2c-0.1-0.7-0.4-1.2-1.3-1.1
		c-1.8,0.2-2.8,1.4-3.3,4.4c-0.5,3.3,0.1,5.7,0.1,5.7c0.3,1.3,1.2,2.4,2.1,2.4c1.5,0,2.7-1.3,3.4-3.6c-0.1,0.5,0,0.8,0,1.2
		c0.2,1.4,0.8,2.1,1.9,2c1.1-0.1,2.4-1.9,3.5-3.4c0.4-0.6,0.8-1.3,1.2-2c-0.1,0.8,0,1.6,0.1,2.3c0.3,1.6,1.3,2.7,2.8,2.5
		c0.6-0.1,1-0.2,1-0.6c0.3-2-0.2-4.2,0-4.9c0.6-1.7,1.5-2.1,1.7-2.2c0.2,0,0.3,0,0.4,0.3c0.1,0.6-0.7,3.4-0.4,5.1
		c0.3,1.4,0.9,2,2.4,1.7c1.2-0.2,2.7-1.6,3.8-3.1c0.1,0.2,0.3,0.5,0.4,0.7c0.2,0.3,0.5,0.5,0.7,0.7c0.3,0.2,0.6,0.3,0.9,0.4
		c0.3,0.1,0.7,0.1,1.1,0.1c0.3,0,0.6,0,0.8-0.1c0.3-0.1,0.5-0.2,0.8-0.3c0.1-0.1,0.4-0.2,0.7-0.4l-0.1,0.9c-0.1,1-0.1,1.4-0.1,1.5
		c0,0,0,0,0,0c-0.1,0.8-0.4,4.4-2.1,5l0,0c-2,0.7-6.2,0.3-12.7,0.1c-6.5-0.2-10,0.4-12.1,0.6c-1.7,0.2-5.7,0.8-5.7,3
		c0,0.7,0.9,0.8,0.9,0.8s1,0,1-0.7c0-1.2,10.9-1.4,14.1-1.4s12.1,0.6,12.1,0.6s0.9,0,3.6,0.1c0,0,0.5,0,1.1-0.1c0.7-0.1,1-0.3,1-0.3
		c1.5-0.8,1.9-5.2,2.1-8.3c0-0.5,0.1-1.1,0.1-1.1l0.2-2l0.2-1.1c0.7-0.4,1.5-1.1,2.3-2c0,0.4,0,0.7,0,0.8l0.1,2.2
		c0.1,1.4,0.7,1.7,2.2,1.6c1.2-0.1,2.5-1.2,3.7-2.6c0.6,1.4,1.7,2.1,3.5,2c3.4-0.2,7.5-4.7,7.4-6.6
		C732.9,853,732.9,852.5,732.6,852.2z M726.3,849.8c0.3,0,0.5,0.3,0.6,0.8c0,0.8-0.2,1.6-1.7,2C725.3,850.8,725.9,849.9,726.3,849.8
		z M710.7,855.4L710.7,855.4c0.1,0-0.4,1.4-1.8,1c-0.9-0.3-1-1.5-0.8-2.2c0.2-0.6,0.4-1,0.9-1.3c0.7-0.4,1.2-0.1,1.2-0.1
		c0.2,0.1,0.5,0.5,0.5,0.9C710.8,854.1,710.8,854.8,710.7,855.4z"/>
	<path fill="#3290CF" d="M667.3,846.6c0.1-0.1,0.4-0.3,0.5-0.4c0.2-0.1,0.6-0.2,0.8-0.2c0.4,0,0.6,0,0.9,0.2
		c0.3,0.2,0.6,0.5,0.8,0.9c0.3,0.4,0.5,0.9,0.7,1.6c0.2,0.6,0.4,1.4,0.6,2.3c0.2,0.7,0.3,1.4,0.5,2.1c0.2,0.7,0.4,1.5,0.5,2.2
		c0.2,0.8,0.4,1.5,0.6,2.3l0.5,1.7c0,0-0.2,0.3,0.4-1.2c0.6-1.5,2.2-10.1,2.6-11.5c0.3-0.8,1.7-1.6,2.8-0.9c0.7,0.4,0.8,1.6,0.5,3.1
		c-1.2,5.9-3.2,11.2-3.7,12.5l-0.5,1.1c0,0-0.7,1.4-1.3,1.8c-0.5,0.4-1,0.4-1.2,0.4c-0.2,0-0.3,0-0.5,0c-0.1,0-0.3-0.1-0.4-0.2
		c-0.1-0.1-0.3-0.3-0.4-0.5c-0.1-0.2-0.3-0.5-0.5-0.9c-0.2-0.4-0.3-0.8-0.5-1.4c-0.2-0.5-0.4-1.2-0.6-1.9c-0.2-0.7-0.5-1.6-0.8-2.6
		c-0.3-1-0.6-2.1-1-3.3c-0.2-0.8-0.5-1.5-0.7-2.2c-0.2-0.6-0.3-0.9-0.5-1.4c-0.2-0.5-0.2-0.6-0.4-1.2c-0.1-0.2-0.2-1-0.2-1.3
		C667,846.9,667.3,846.6,667.3,846.6z"/>
</g>
</svg>
