<svg xmlns="http://www.w3.org/2000/svg" viewBox="0 0 2253.4 1025.5" enable-background="new 0 0 2253.4 1025.5"><g><g fill="#fff"><path d="M603.2 453.5c-45.6 123.1-1.8 144.7-1.8 144.7 37.2 11.5 62.3-97.1 62.3-97.1 11.6-86.3 13.4-145 42.3-181.4 9.2-11.6 22.3-19.7 35.7-21.2 50.1-5.5 70.7 6.2 74.8 42.8 1.8 16.1.2 34.4-9.3 71.7-13.1 53.1-41.5 140.4-39.6 157.4 1.3 11.6 7 13.7 14.1 12.9 20.6-2.3 65.4-136.4 113.7-223.2 18.8-2.1 32.1 41.1 33.9 57.2 3.6 32.2-39.1 132-80.6 187.8-37.9 50.9-83 111-120.6 115.2-36.7 4.1-60.3-21.1-65.5-67.6-1.4-12.5-4.9-21.6.2-40.1-21.7 79.3-64 122.5-114.6 123.2-29 .4-61.8-39.1-70.6-82.9 0 0-20.5-80.9-2-194.1 16.8-102.8 49.6-145.2 112.3-152.1 30.7-3.4 40.7 11.4 43.9 37 3.6 30.4-28.6 109.8-28.6 109.8zM1677.1 501.5c-1-46-6.5-295.4 14.2-414.1 8.8-50.7 40-81.6 53.5-84.5 45-9.9 60.5 5 63.1 50.8 0 0-31.6 324.6-30.6 380.1l1 55.6c.7 11.9 1.7 36.3 21.1 35.1 27.8-1.7 79.2-86 121.7-161.5 17.1-1 43.7-9.9 44.7 8 3.9 68.3-120.6 258.1-211.4 263.3-52.1 3-72.3-9.4-75-56.1l-2.3-76.7z"/></g><path fill="#fff" d="M874.1 445.8c-9.4-52.3 52.7-159.5 107.6-169.3 30.1-5.4 42 3.8 46.8 30.3 4 22.1.6 87.2-15.5 134.9 44.6-123.2 101.5-175.1 140.5-182.1 40.7-7.3 65.9 15.6 72.1 50.1 4.3 23.9 2.8 56.2-8.2 102.1-8.9 41.8-26 109.8-22 132 1.8 9.7 6.8 12.5 14.8 11.1 17.7-3.2 65.4-58.4 106.1-147.1 16.8-3 36.6 5.3 39.8 23 10 55.8-112.7 232.4-194.2 247.1-52.3 9.4-74.1-10.4-82.9-59.2-10.5-58.5 18.5-156.1 15-175.5-1.3-7.1-5.5-10-12.5-8.7-8 1.4-39.1 17.4-58.7 74-8.9 25.6 8.4 101.6-1.1 169-1.8 12.6-14 17.2-34.4 20.9-49.6 8.9-84.4-31.5-94.8-84.5-6.1-33.7-5.5-71.3 2.2-114.7-10-15.6-17.4-35.7-20.6-53.4z"/><path fill="#fff" stroke="#E82525" stroke-miterlimit="10" d="M2043.1 190.2"/><path fill="#fff" d="M1863.3 469.6c-7.8-135.7 94.7-280.4 181.9-285.4 62-3.6 97.8 24.1 101.5 87 4.4 75.5-35.2 156.4-156.6 191.3 2.3 40.4 10.6 42.5 45.6 40.4 61.1-3.5 137.2-60.2 183.9-141.3 0 0 17.5-10.6 25.9-.6s7.9 27.4 7.9 27.4c3.3 66.5-135.9 218.9-252.7 225.6-88.2 5.1-131.8-47.3-137.4-144.4zm164.9-189.8c-12.6.7-35.1 32.7-37.7 95.9 49.8-11.9 59-40.4 57.4-67.3-1.1-18.8-8.9-29.2-19.7-28.6z"/><path fill="#fff" stroke="#DA1F26" stroke-miterlimit="10" d="M1466.3 773.3"/><path fill="#fff" d="M1663.7 495.9"/><path fill="#fff" d="M1513 966.3c50.2-27.3 63.3-179 70.8-284 1.2-17.3 3.2-36.4 3.2-36.4l5.8-67.9 13.9-91.7c4 17.7 6-75.3 10.6-100.9 1.8-9.9 2.2-19.3 2.2-28.5 0-19.3-2.9-36.5-8.6-51.7-5.7-15.2-14.1-28-25.1-38.6-11-10.5-24.5-18.6-40.4-24.1-16-5.6-34.2-8.3-54.7-8.3-14.2 0-28.2 1.9-41.9 5.6-13.8 3.7-27.1 9-39.9 15.8-12.8 6.8-25 15-36.7 24.6-11.7 9.6-22.5 20.2-32.5 31.9s-19.1 24.4-27.2 37.9c-8.1 13.5-15 27.6-20.8 42.4-5.7 14.7-10.2 29.9-13.3 45.5-3.1 15.6-4.7 31.3-4.7 47.1 0 15 1.3 29.1 3.9 42.3 2.6 13.2 6.4 25.4 11.4 36.5 5 11.1 11.3 21 18.7 29.9 7.4 8.8 15.9 16.3 25.6 22.4 9.6 6.1 20.3 10.8 32.2 14 11.8 3.2 24.6 4.9 38.4 4.9 9.6 0 19-1.2 28.2-3.6 9.2-2.4 18-5.6 26.2-9.5 8.2-4 35.8-18.5 42.8-23.6l41.1-26.4c34.6-18.9 181.9-77.8 227.4-291.3 9.9-46.6-5.2-68.2-32.3-68.2-12.1 0-19.9-10.4-29.2-4.8 17.9 61.2-51.5 172.1-78.6 200.6-36.7 38.5-46.8 36.2-46.8 36.2l-87.9 26.8c2.6.9-14.8 47.8-61.3 34.1-30.3-8.9-35.1-50.4-27.7-75.4 6-20.5 13-34.6 29.6-44.3 25-14.6 42-4.4 42.4-4.2 8.3 4.6 15.7 16 18.5 30.1 7.5 37.8-13.6 130.3-8.2 110.7l-9.3 120c-7.3 93.5-1.8 35-4 54-3.1 26.3-14.6 151-72.2 172.1v.1c-69.4 24.2-210.4 10.1-433 4.5-221.5-5.4-341.6 12.5-415.2 19.8-56.5 5.6-195.7 28.1-195.7 104.1 0 24.6 29.8 29 29.8 29s33.5-1.5 33.5-24.2c0-42.3 374-47.1 483.4-47.1 109.4 0 412.6 21.3 412.6 21.3s29.4.6 122.3 3c0 0 15.6 1.6 38.3-1.9 22.6-3.9 34.4-10.6 34.4-10.6z"/><path fill="#fff" stroke="#fff" stroke-width="12" stroke-miterlimit="10" d="M1471.7 647M1479.7 528"/><path fill="#fff" d="M10.7 170.1c4-3.9 12.7-11.9 18.1-14.1 5.5-2.1 19.5-7.5 26.2-8.2 12.2-1.2 21.3 1.2 31.4 7.1 10.1 5.9 19.5 15.8 28.1 29.6 8.6 13.8 16.7 31.6 24.3 53.6 7.5 21.9 14.8 48.2 21.9 78.9 5.3 22.9 11 46.8 16.9 71.8 6 25 12.1 50.4 18.5 76.3 6.4 25.8 15 51.7 21.7 77.5l15.5 57.1s-8 10 12.4-41.7 74-345.3 90.5-391.7c10.3-28.9 57.4-55.2 96.9-31.5 23 13.8 28 55.6 17.5 105.9-42.4 201.5-109.8 383-126.8 425.8l-16.2 37.1s-25.4 49-43.7 61.4c-18.6 12.5-34.7 13.4-42 14.2-6.1.6-11.7.4-16.7-.5-5.1-.9-10-3.3-14.8-7.1-4.8-3.8-9.6-9.4-14.5-16.9-4.9-7.5-10-17.5-15.4-30s-11.4-27.9-17.9-46.2c-6.5-18.3-13.8-40.2-21.9-65.8-8.1-25.5-17.2-55-27.3-88.4-10-33.5-21.4-71.7-34.1-114.5-8.3-27.7-17-52.3-24-73.8s-9.7-30.5-16.1-46.9c-6.4-16.4-5.5-20-12.4-41.7-3.6-6.8-7.7-35-6.7-45.9 2.2-21.7 10.6-31.4 10.6-31.4z"/><path fill="#fff" stroke="#DA1F26" stroke-miterlimit="10" d="M1466.3 779.5"/></g></svg>