<svg xmlns="http://www.w3.org/2000/svg" viewBox="0 0 800 800" enable-background="new 0 0 800 800"><path fill="#7A5296" d="M203.9 258.6c-18.5-4.5-18.5-12.1-.1-16.7l100.4-33.5c18.4-4.7 30.7-11.6 67.6-2.3l224.8 73.8c14.7 5.4 19.7 12.3 2.2 19.7l-92.5 38.3c-34.3 14-42.4 12.8-65.4 5.3l-237-84.6z"/><ellipse fill="#818181" cx="584.7" cy="209.3" rx="14.5" ry="6.6"/><path fill="#818181" stroke="#818181" stroke-miterlimit="10" d="M604.5 203v-10.5h-30V203"/><ellipse fill="#676868" cx="584.7" cy="192.5" rx="14.5" ry="6.6"/><path fill="#676868" d="M278.9 174.7l43.8 13.2c7 1.9 14.9 2.2 28.5-6l34.4-20.3c7.6-5.6.9-9.5-10.4-13.6l-29.1-8.5c-6-2.1-12.2-1.6-16.1.3L277.4 166c-4.7 3.6-2.3 7.6 1.5 8.7zM510.9 174.8l-49.6-10.5-65.5 37 65.4 17.3 13.7-12.7 65.4 16.3 8.3-16.7-60.9-14.1 6.1-5.5 22.5 5.1 10.8-12.7z"/><path fill="#4E4F4F" d="M158.8 650c-27.1-17.9-7.3-27 12.9-32.1l84.7-28.3c20.1-5.1 33.5-12.7 73.7-2.5l297.8 99.4c21.2 10 29 19.7 10.8 34.1l-105.2 62.7c-32.5 18-51.2 10.7-71.4 5.8L158.8 650z"/><path fill="#676868" d="M158.8 642.5c-27.1-17.9-7.3-27 12.9-32.1l84.7-28.3c20.1-5.1 33.5-12.7 73.7-2.5L627.9 679c21.2 10 29 19.7 10.8 34.1l-105.2 62.7c-32.5 18-51.2 10.7-71.4 5.8L158.8 642.5z"/><ellipse fill="#E8E8E8" stroke="#E8E8E8" stroke-miterlimit="10" cx="303.1" cy="627.4" rx="47.6" ry="20.3"/><path fill="#AAA9AA" d="M218.4 565.6c-32.2-12.6-6.6-26.6 10.8-31.3l75.1-31c17.4-4.8 17.9-12.4 52.8-1.9l66.3 23.8c8.5 3.1 6.8 9 0 12 0 0-119.9 53.1-111.4 49.3 0 0-12.2 7-24 3.1l-69.6-24z"/><path fill="#DBDBDA" d="M400.4 473.3l-71.3-26.5c-9.4-2.8-16.1-5.2-31.5-.8l-54.1 21.3c-8 6.8-4.2 10.7 5.7 14.4l67.3 30.3 83.9-38.7z"/><path fill="#AAA9AA" d="M429.1 653l33 16.4c28.8 13.6 38.9 12.2 71.4-5.8l84.6-49.9c23.2-14.3 16.6-22.7-7-32.2l-33.3-11.6c-2.1-.9-4.9-1.7-7.9-.7l-9.6 4.6c-4.8 2.5-4.1 4.1.5 6.2l26 9.3c8.9 3.7 3.4 9.6-3.6 13.3l-83.1 46.8c-9 3.8-15.5 3.5-19.4 1.6l-31-13.8c-5-2.5-6.4-1.6-9.8.8l-11.9 7.7c-3.5 2-4.2 4.6 1.1 7.3zM387.5 597.1l42.7 19.5c7.2 3 16.3 3.7 36.2-7.3l54.1-29.4c13.4-8.6 6.4-14.8-6.6-20.9l-33.4-12.4c-6.4-3.1-14.4-2.1-20.1.9l-71.3 37.9c-6.1 4.6-5.2 10-1.6 11.7z"/><path fill="#DBDBDA" d="M380 542.9l42.7 19.5c10.5 3.5 16.3 3.7 36.2-7.3l54.1-29.4c12.9-9.3 6.4-14.8-6.6-20.9L473 492.4c-6.4-3.1-14.4-2.1-20.1.9l-71.3 37.9c-6.1 4.6-5.1 10.1-1.6 11.7zM448.5 145"/><path fill="#3AB1B4" d="M212.6 404.2c-20.2-4.9-20.2-13.1-.1-18.2l109.6-36.6c20.1-5.1 33.5-12.7 73.7-2.5l245.3 80.5c20.4 3.7 21.5 13.4 2.4 21.5l-101 41.8c-36.1 14.7-51.2 10.7-71.4 5.8l-258.5-92.3z"/><path fill="#8DCBD3" stroke="#8DCBD3" stroke-width="1.125" stroke-miterlimit="10" d="M212.6 394.8c-20.2-4.9-20.2-13.2-.1-18.2L322.1 340c20.1-5.1 33.5-12.7 73.7-2.5L641.2 418c16.1 5.9 21.5 13.4 2.4 21.5l-101 41.8c-37.4 15.3-46.2 14-71.4 5.8l-258.6-92.3z"/><g fill-rule="evenodd" clip-rule="evenodd" fill="#fff"><path d="M567.1 451.4c-.6.1-.9.4-1.4.7-2.7 1.1-5.8 1.7-9.1 2.2-2.9.4-5.9.8-8.9.9-5 .3-10.1.3-15.3-.2-3.3-.3-6.5-.7-9.6-1.4-2.5-.6-4.7-1.3-6.8-2.3-2.1-.9-3.9-2-5.2-3.2-1.5-1.4-2.1-2.9-2.2-4.4 0-.3-.1-.7.1-1-.8-.1-1.4.1-2 .2-2.2.2-4.5.4-6.8.5-2.3.1-4.7.1-7.1-.2-1.9-.2-3.6-.6-5.3-1.2-1.5-.5-2.9-1.1-4.1-1.8-1.9-1.1-2.3-2.2-1.5-3.6.5-.8 1.2-1.5 1.9-2.2.8-.8 1.7-1.6 2.4-2.4.7-.8 1.6-1.5 2.3-2.3.2-.2.4-.5.6-.7-.5-.1-.8.1-1.2.1-3.7.4-7.5.5-11.3.4-.5 0-.8.1-1 .3-1.1.8-2.3 1.5-3.3 2.3-.9.8-2 1.4-3 2.2-.7.5-1.3 1-2 1.5-1.1.8-2.2 1.6-3.2 2.4-.4.3-.7.6-1.1.9-1.2.9-2.4 1.8-3.7 2.7-1.7 1.2-3.5 2.5-5.3 3.6-2 1.3-4.2 2.5-6.7 3.6-1.2.5-2.5 1-3.9 1.3-2.1.5-4.3.4-6.5-.2-1.2-.3-2.3-.7-3.5-1.1-1.8-.6-3.4-1.4-5-2.1-1.3-.6-2.7-1.1-3.9-1.7-1.4-.7-3-1.3-4.5-1.9-1.2-.6-2.4-1.1-3.6-1.6-1.5-.7-2.9-1.4-4.4-2.1-1-.5-2.1-1-3.1-1.4-1.5-.7-3.1-1.4-4.6-2.2-1.6-.8-3.2-1.5-4.9-2.3-1.2-.5-2.3-1.1-3.4-1.6-1.2-.6-2.4-1.1-3.6-1.7-1.4-.6-2.7-1.2-4.1-1.8-1.8-.8-3.6-1.6-5.3-2.4-3.3-1.5-6.7-2.9-10.1-4.2l-5.1-2.1c-1.2-.4-2.3-.9-3.5-1.4-1.8-.7-3.5-1.4-5.3-2-1.3-.5-2.6-1-3.8-1.5-1.5-.6-3-1.1-4.5-1.7-1.1-.4-2.3-.8-3.4-1.2-1.6-.5-3.1-1-4.7-1.5-2-.6-4-1.2-6.1-1.7-.7-.1-1.3-.2-2-.2-.4 0-.7.1-.9.3-.5.5-1.3.6-2.2.5-1.6-.2-2.7-.7-3.2-1.7-.3-.6-.1-1.2.5-1.7.7-.6 1.6-1 2.6-1.2 1.3-.3 2.6-.3 4-.3 2.9.1 5.7.6 8.4 1.3 1.9.4 3.8 1 5.6 1.6 1.5.5 2.9 1 4.4 1.4 1.6.5 3.3 1.1 5 1.6.8.3 1.7.6 2.5.9 1.4.5 2.8.9 4.1 1.4l1.5.6c.9.3 1.8.7 2.8 1 1.7.6 3.4 1.3 5.1 1.9 1.1.4 2.2.9 3.3 1.3 1.9.8 3.9 1.4 5.8 2.3 2 .9 4.3 1.7 6.3 2.7 1.1.5 2.3.9 3.3 1.4 1 .5 2.1.9 3.1 1.3 1.7.8 3.5 1.6 5.3 2.3 1.7.7 3.4 1.5 5.1 2.2 1.9.9 3.9 1.7 5.8 2.6 1.5.7 3.1 1.3 4.7 2l2.7 1.2c1.5.6 2.9 1.2 4.4 1.7 2.5.9 5.1 1.8 7.8 2.5s5.2.6 7.6-.1c3.2-.9 5.8-2.2 8.3-3.7 1.3-.8 2.6-1.7 3.8-2.6 1-.7 1.9-1.5 2.8-2.2 1-.8 2.1-1.6 3.2-2.4.1 0 .1-.1.2-.2-.8-.1-1.6-.1-2.3-.2-2.1-.2-4.1-.5-6-1.1-1.8-.5-3.3-1.2-4.7-2-1.7-1-3-2-3.9-3.3-.8-1-1-2.1-1.1-3.2 0-.4 0-.4-.6-.3-1.3.2-2.7.5-4 .6l-5.1.6c-3.1.2-6.1.3-9.2-.3-2.1-.4-4-1-5.5-2-1.3-.9-1.7-1.9-1.4-2.9.3-1.3 1.1-2.5 2.3-3.7 1.2-1.2 2.6-2.2 4.1-3.3 1.6-1.2 3.4-2.3 5.1-3.4.5-.3.9-.7 1.2-1.1.4-.5.1-.9-.8-1.1-1.3-.2-2.6-.1-3.9.1-1.6.2-2.9.7-4.3 1.1-2.1.7-3.5 1.8-4.5 3.1-.3.4-.6.7-.9 1.1-1.5 1.8-3.2 3.5-4.9 5.2-.4.4-.9.7-1.4 1.1-.5.4-1.2.5-2.1.4-2.6-.4-4.9-1-6.5-2.4-1-.9-1.5-1.9-1.6-2.9-.1-1.3.2-2.6 1-3.8.4-.6 1-1.2 1.4-1.9.6-.8 1.5-1.4 2.2-2.2-.8.3-1.4.5-2.1.7-2.3.8-4.6 1.3-7 1.9-2 .4-4.1.9-6.1 1.2-2.4.4-4.8.8-7.3.7-2.3 0-5-1-5.8-2.3-.5-.8-.6-1.6-.4-2.4.3-.9.8-1.7 1.4-2.5.2-.3.5-.6.7-.9-1.2.6-2.4 1.1-3.7 1.6-1.7.6-3.4 1-5.3 1.2-2 .2-4 .1-5.9-.5-1.7-.5-2.7-1.3-3.3-2.4-.8-1.6-.7-3.2 0-4.7.4-.8.9-1.5 1.3-2.3 1.2-1.9 2.9-3.6 4.7-5.3.8-.8 1.6-1.5 2.5-2.2 1.1-.9 2.3-1.8 3.5-2.6 2.2-1.5 4.7-2.9 7.8-3.7 2.2-.6 4.5-.7 6.8-.3 1.1.2 2.2.4 3.2.8 1.8.6 2.3 1.6 1.6 2.8-.6 1.1-2 2-3.3 2.8-2.1 1.3-4.6 2.4-6.9 3.6-1.6.8-3 1.6-4.3 2.6-1.3.9-2.4 2-2.8 3.2-.1.4-.1.8 0 1.2.2.7 1.1.8 1.9.8 1.1 0 2.1-.3 3-.6 2.4-.8 4.4-1.9 6.4-3.1.7-.4 1.2-.9 1.8-1.4.7-.5 1.4-1 2.1-1.6.7-.6 1.5-1.2 2.2-1.7 1.8-1.3 3.6-2.6 6-3.5 1.5-.6 3.1-.9 5-.8.7.1 1.4.2 2.1.4.9.2 1.7.5 2.5.8.7.3 1.4.6 1.9 1.1 1 .8 1 1.7.5 2.6-.7 1.2-2 2.2-3.4 3.1-3 1.9-6.2 3.6-9.3 5.4-1.5.9-3.1 1.7-4.5 2.7-.4.2-.8.5-.9.9-.1.3-.2.5.2.8.4.2.8.3 1.4.2.8-.1 1.6-.3 2.3-.6 1.8-.7 3.7-1.3 5.4-2.1 1.5-.6 3-1.2 4.4-1.8 3-1.2 6.1-2.4 9.3-3.6 2.1-.8 4.3-1.5 6.7-1.9 2.2-.4 4.5-.7 6.9-.5 1.7.2 3.2.6 4.5 1.3.7.4.8 1 .7 1.5-.1.5-.4 1-.8 1.5s-.8 1-1.3 1.4c-.9.8-1.8 1.5-2.8 2.3-1 .7-2 1.4-3.1 2.1.9-.3 1.8-.7 2.7-1 1.5-.6 3-1.1 4.6-1.6 1.5-.5 3.1-.9 4.7-1.2 3-.6 6-1.1 9.2-.8 2.6.2 4.9.9 6.5 2.2.8.6 1.2 1.3 1.1 2.1 0 1.1-.6 2-1.4 2.9-.6.7-1.3 1.3-2 1.9-.9.8-2 1.5-3.1 2.1-2.5 1.5-5 2.9-7.4 4.4-1.4.9-2.9 1.8-3.9 2.9-.3.3-.5.6-.2 1 .4.4 1 .5 1.7.5 2.1.1 4.1-.3 6-.7 1.2-.2 2.4-.5 3.7-.8.2-.1.4-.1.6-.3.4-.4.9-.8 1.4-1.2 1-.8 2.2-1.5 3.5-2.2 1.9-1 4.1-1.9 6.4-2.6 1.8-.6 3.7-1 5.7-1.4 1.6-.3 3.2-.5 4.9-.6 2.2-.2 4.4-.2 6.6-.1 2.2.1 4.4.4 6.6.8 2.2.4 4.2 1 6 1.8 1.8.7 3.5 1.5 4.8 2.5 1.7 1.2 2.8 2.5 3.2 4 .4 1.5 0 2.9-1 4.3-.6.9-1.6 1.7-2.5 2.6-.6.5-1.5 1-2.2 1.5-.6.4-1.3.8-1.7 1.4.9-.1 1.7-.1 2.5-.2 1.9-.3 3.7-.6 5.5-1 1.3-.3 2.6-.7 3.8-1 .7-.2 1.1-.4 1.5-.7.8-.8 1.6-1.5 2.5-2.2 1-.8 1.9-1.6 2.9-2.4l3.3-2.7c1.1-1 2.3-1.9 3.6-2.8 1.2-.9 2.5-1.9 3.9-2.8 2-1.4 4.1-2.7 7-3.6 2-.6 4.2-1.1 6.7-1.1.9 0 1.7.2 2.5.4.1 0 .2.1.4 0 .8.3 1.7.6 2.5.9 0 .1 0 .1.1.1 1.2.5 1.7 1.2 1.6 1.9-.1 1.1-.8 2.1-2 3-1.1.8-2.3 1.7-3.5 2.5-1.5 1.1-2.9 2.1-4.4 3.2-1.2.9-2.4 1.7-3.6 2.6-1.2.9-2.4 1.8-3.7 2.7-1.2.9-2.5 1.8-3.7 2.7-1.3 1-2.7 2-4 3-1.1.8-2.1 1.6-3.1 2.4-1.2.9-2.3 1.8-3.4 2.8-1.1.9-2 1.8-2.9 2.7-.4.4-.8.7-1.2 1.1-.5.5-1 1-1.1 1.6-.2.8.4 1.3 1.8 1.6 1.2.2 2.4.1 3.6 0 2.2-.2 4.3-.6 6.4-1 .6-.1 1.3-.1 1.7-.5.6-.5 1.1-1 1.8-1.5 1.1-.8 2.4-1.6 3.8-2.3 3.3-1.7 7-3.1 11.3-4.2 4-1 8.2-1.7 12.8-2 2.7-.1 5.3-.1 8.1.2 1.5.2 3 .4 4.4.9 1.8.6 3.5 1.2 5.1 2 2.4 1.2 4.1 2.7 4.3 4.4.2 1.7-.9 3.1-2.2 4.5-.7.7-1.6 1.3-2.5 1.8-1.5 1-3.2 1.8-5.3 2.4-4 1.2-8.4 1.7-13.2 1.6-4.2-.1-8.4-.6-12.4-1.4-.3-.1-.6-.1-.7.1-.3.4-.7.8-1 1.2-.5.9-.1 1.7 1.3 2.2 2.5 1 5.2 1.8 8.2 2.3 4.6.7 9.2.9 13.9.7 1.8-.1 3.5-.2 5.3-.4 2.3-.2 4.5-.6 6.7-1 1-.2 1.9-.5 3-.6 2.1-.2 4 1 3.6 2-.1.3-.4.5-.4.8-.7.5-1.2 1-1.7 1.4zm-105.5-30.2c2.2 1 5.4.7 7.1-.1.7-.3 1.2-.8 1.7-1.2.7-.6 1.6-1.2 2.1-1.9.4-.6.8-1.1.8-1.8 0-.3 0-.7-.2-1-.5-.7-1.3-1.2-2.6-1.5-2-.5-3.9-.6-5.7-.1-2.7.7-4.6 1.8-5.6 3.4-1 1.6-.4 3.2 2.4 4.2zm84.9 14.7c.4-.5 1-1.1 1-1.8s-1.4-1.4-2.6-1.3c-3.1.3-5.3 1.3-7.3 2.4-1 .5-1.8 1.2-2.7 1.8-.2.1-.1.2.2.3.9.2 1.7.3 2.6.4 3.9.5 6.8-.2 8.8-1.8zM337.9 351.6c.5-.3.9-.6 1.5-.9 1.1-.5 2.3-.6 3.6-.5.8.1 1.7.1 2.4.4 1 .3 1.7.7 2.2 1.3.9 1 1 2.1.9 3.2-.1 2-.9 3.8-1.6 5.7-.6 1.3-1.2 2.6-1.9 4-.9 1.9-1.8 3.7-2.7 5.5-.8 1.7-1.6 3.4-2.3 5.2-.6 1.6-1.3 3.2-2 4.8 0 .1-.1.2-.1.4.6-.3 1.2-.6 1.7-.9 2.1-1 3.9-2.2 5.7-3.4 2-1.3 4-2.7 6-4l4.8-3.3c1.7-1.2 3.5-2.4 5.2-3.6 1.3-.9 2.7-1.8 4-2.7 1-.7 2.1-1.4 3.2-2 1.1-.7 2.4-1.1 3.9-1.2 1.7-.1 3.4.1 4.9.6 1.4.5 2.5 1.2 2.9 2.3.2.7 0 1.4-.4 2-.4.7-.9 1.3-1.5 1.9-.9.8-1.9 1.6-3 2.3-2.7 1.8-5.4 3.5-8.1 5.2-1.9 1.2-3.8 2.3-5.7 3.4-2.7 1.6-5.4 3.1-8.1 4.6-3.1 1.7-6.3 3.3-9.5 4.9-1.4.7-2.9 1.4-4.4 2.1-1.7.8-3.6 1.4-5.6 1.9-1.9.5-3.9.4-5.8-.2-.7-.2-1.3-.4-1.9-.8-.7-.4-1-.9-1.2-1.5-.3-1.5 0-2.9.4-4.3.4-1.5.9-3.1 1.4-4.6.8-2.3 1.6-4.6 2.5-6.9.5-1.2.9-2.4 1.3-3.6.7-1.9 1.5-3.7 2.1-5.6.5-1.6 1.1-3.1 1.6-4.7.4-1.5 1-2.9 1.5-4.3.2-.4.4-.9.7-1.3 0-.1.2-.1.1-.2.6-.5 1-.9 1.3-1.2z"/></g><path fill="#DBDBDA" d="M634.4 116.4L399.6 73.6c-20.4-3.7-53.6-2.6-73.7 2.5l-120 30.3c-20.1 5.1-20.1 13.3.1 18.2l256.5 62.9c20.2 4.9 35.9 10.9 71.4-5.8L637 137.8c18.9-8 17.9-17.7-2.6-21.4zm-35.7 20.3l-80.3 34.2c-26.1 8.8-42.1 7.3-58.7 3.2l-210-50.1c-16.6-4.1-16.6-10.8-.1-15l93.1-23.1c16.6-4.2 43.9-5.1 60.7-2L596.7 119c16.8 3.1 17.7 11 2 17.7z"/><path fill="#4E4F4F" d="M213.3 66.7c-20.2-4.9-20.2-13.1-.1-18.2l120-30.3c20.1-5.1 53.3-6.2 73.7-2.5l234.8 42.7c20.4 3.7 21.5 13.4 2.4 21.5L541 123.8c-19.1 8.1-51.2 10.7-71.4 5.8L213.3 66.7z"/><path fill="#676868" d="M213.3 60c-20.2-4.9-20.2-13.1-.1-18.2l120-30.3c20.1-5.1 53.3-6.2 73.7-2.5l234.8 42.7c20.4 3.7 21.5 13.4 2.4 21.5L541 117.1c-19.1 8.1-51.2 10.7-71.4 5.8L213.3 60z"/><ellipse fill="#E8E8E8" stroke="#E8E8E8" stroke-miterlimit="10" cx="569.8" cy="84.4" rx="14.5" ry="6.6"/><path fill="#F0A642" d="M600.2 50.8l-53.3-9.6-322 3.7c-8.8 3.7-10.3 8.4 14.6 13.6L449.3 109c16 3.8 19 2.9 34.2-4.2l100.8-42c14.3-6.8 31.5-9.2 15.9-12z"/><linearGradient id="a" gradientUnits="userSpaceOnUse" x1="224.488" y1="28.66" x2="542.418" y2="28.66"><stop offset="0" stop-color="#fff"/><stop offset="1" stop-color="#F0A642"/></linearGradient><path fill="url(#a)" d="M395.6 14.3C379.9 11.6 354 12.8 338 17l-99.8 23.4c-4.9 1.1-10 2.5-13.7 4.1l317.9-3.7-146.8-26.5z"/><path fill="#4E4F4F" d="M238 71.6v16.8l17 .7V75.3zM287 80.9V107h5v-9.3l5-.3v9.6h20V90.2zM374 107v15h16l.3-6h8.7v6h17v-6"/><path fill="#C2C1C1" d="M320.5 189.7"/><ellipse fill="none" stroke="#8E8D8D" stroke-width="3" stroke-miterlimit="10" cx="579.1" cy="144.1" rx="14.5" ry="6.6"/><path fill="#D4274A" d="M369.2 53.3L399 41.8c2.9-1.1 8.4-1.4 12.2-.7l43.1 8.6c4.2.8 5.3 2.5 2.5 3.8l-28.9 12.8c-3.2 1.4-9.3 1.8-13.6.8l-44.1-9.9c-3.8-.9-4.3-2.7-1-3.9z"/><path fill="#fff" d="M432.1 52.6l-28.2-5.8-6.2 11.2z"/><path fill="#7A5296" d="M212 246.9l137.7-42.1 245 77.1-102.3 55.3z"/><path fill="#3281B9" d="M564.5 280.7c-.5-.4-1.3-.7-2.3-1l-26.7-8.4c-2.5-.8-5.5-1-6.7-.4l-13.9 6.6c-1.2.6-.2 1.7 2.4 2.5l6.9 2.2 40.3-1.5z"/><path fill="#5B8EC3" d="M544.7 288.6c2.6.8 5.6 1 6.8.4l13.2-6.8c.7-.4.5-.9-.2-1.4l-40.2 1.4 20.4 6.4z"/><path fill="#F0A642" d="M533.8 296.3c-.5-.4-1.3-.8-2.4-1.1l-27.8-8.8c-2.6-.8-5.8-1-7.1-.4l-15.1 7.2c-1.3.6-.3 1.9 2.4 2.7l7.2 2.3 42.8-1.9z"/><path fill="#F0B567" d="M512.3 305c2.7.9 5.9 1 7.2.4l14.4-7.5c.7-.4.6-1-.2-1.6l-42.8 1.9 21.4 6.8z"/><path fill="#E45C30" d="M499.9 313.3c-.5-.4-1.4-.8-2.5-1.2l-29-9.3c-2.7-.9-6.1-1-7.5-.4l-16.6 7.9c-1.5.7-.4 2 2.4 2.9l7.5 2.4 45.7-2.3z"/><path fill="#E87C54" d="M476.5 322.9c2.8.9 6.3 1 7.7.3L500 315c.8-.4.7-1.1-.1-1.7l-45.7 2.4 22.3 7.2z"/><path fill="#009C92" d="M505.4 262.1c-.5-.4-1.2-.7-2.2-1l-26.4-8.3c-2.5-.8-5.5-1-6.8-.5l-14.9 6.2c-1.3.6-.3 1.7 2.2 2.5l6.8 2.2 41.3-1.1z"/><path fill="#30AEA6" d="M484.3 269.4c2.6.8 5.7 1 6.9.4l14.3-6.4c.7-.3.6-.9-.1-1.4l-41.3 1 20.2 6.4z"/><path fill="#54AFDB" d="M472.4 276.8c-.5-.4-1.3-.8-2.3-1.1l-27.5-8.7c-2.6-.8-5.8-1-7.2-.4l-16.3 6.8c-1.5.6-.5 1.8 2.2 2.6l7.1 2.3 44-1.5z"/><path fill="#7FC1E1" d="M449.5 284.9c2.7.9 6 1 7.4.4l15.6-7c.8-.4.7-.9 0-1.5l-44 1.4 21 6.7z"/><path fill="#E32E7C" d="M436.3 293c-.5-.4-1.3-.8-2.4-1.2l-28.7-9.2c-2.7-.9-6.1-1.1-7.6-.4l-17.9 7.4c-1.6.7-.6 1.9 2.1 2.8l7.4 2.4 47.1-1.8z"/><path fill="#E4568B" d="M411.3 301.9c2.8.9 6.3 1.1 7.8.4l17.1-7.7c.9-.4.9-1 .1-1.6l-47.1 1.9 22.1 7z"/><path fill="#E44238" d="M449.2 244.3c-.5-.3-1.2-.7-2.2-1l-26.2-8.2c-2.5-.8-5.6-1-6.9-.5l-15.9 5.8c-1.4.5-.5 1.6 2 2.4l6.8 2.1 42.4-.6z"/><path fill="#E7675F" d="M426.8 251.3c2.5.8 5.7 1 7.1.5l15.3-6.1c.8-.3.7-.8.1-1.3l-42.4.6 19.9 6.3z"/><path fill="#293D85" d="M413.3 258.1c-.5-.4-1.2-.7-2.2-1.1l-27.2-8.6c-2.6-.8-5.8-1-7.3-.5l-17.4 6.4c-1.6.6-.7 1.7 1.9 2.5l7 2.2 45.2-.9z"/><path fill="#56639D" d="M389 265.6c2.6.8 6 1 7.5.5l16.7-6.6c.9-.3.9-.9.2-1.4l-45.2.9 20.8 6.6z"/><path fill="#088A49" d="M374.7 273.3c-.5-.4-1.2-.8-2.3-1.1l-28.4-9.1c-2.7-.9-6.2-1.1-7.8-.5l-19.1 7c-1.7.6-.9 1.8 1.9 2.7l7.3 2.4 48.4-1.4z"/><path fill="#319E6A" d="M348.1 281.6c2.8.9 6.3 1.1 8 .4l18.3-7.2c.9-.4 1-1 .3-1.5l-48.4 1.4 21.8 6.9z"/><path fill="#B3222F" d="M394 226.9c-.4-.3-1.2-.7-2.1-1l-25.9-8.2c-2.4-.8-5.6-1-7-.6l-16.9 5.5c-1.5.5-.7 1.5 1.8 2.3l6.7 2.1 43.4-.1z"/><path fill="#C14C58" d="M370.3 233.4c2.5.8 5.7 1 7.2.5l16.3-5.7c.8-.3.9-.8.2-1.3l-43.5.2 19.8 6.3z"/><path fill="#EB8B32" d="M356.2 240.1c-.4-.4-1.2-.7-2.2-1l-27-8.6c-2.5-.8-5.9-1-7.4-.5l-18.5 6c-1.6.5-.9 1.6 1.7 2.5l7 2.2 46.4-.6z"/><path fill="#EE9E4B" d="M330.5 247.2c2.6.8 6 1.1 7.6.5l17.8-6.2c.9-.3 1-.8.3-1.4l-46.4.5 20.7 6.6z"/><path fill="#2B9ED6" d="M315.3 254.3c-.4-.4-1.2-.8-2.3-1.1l-28.1-9c-2.6-.8-6.2-1.1-7.9-.5l-20.2 6.5c-1.8.6-1.1 1.8 1.6 2.6l7.3 2.3 49.6-.8z"/><path fill="#54AFDB" d="M287.3 262.1c2.7.9 6.4 1.1 8.1.5l19.5-6.8c1-.3 1.1-.9.4-1.5l-49.6.9 21.6 6.9z"/></svg>