<svg xmlns="http://www.w3.org/2000/svg" viewBox="0 0 800 800" enable-background="new 0 0 800 800"><path fill="none" stroke="#E8E7E8" stroke-width="23" stroke-linecap="round" stroke-linejoin="round" stroke-miterlimit="10" d="M551.7 250.3"/><path fill="none" stroke="#E8E7E8" stroke-width="11" stroke-linecap="round" stroke-linejoin="round" stroke-miterlimit="10" d="M660.6 717.2"/><ellipse fill="#B9B9B9" cx="391.4" cy="767.5" rx="266.2" ry="20"/><path fill="#4E5381" d="M283.1 242.1l-29.3-108.9c-4.9-18.2-20.8-30.5-38.5-32-3.6 1.6-145.4 67.6-106.4 218.1 9.9 6.3 22.4 8.7 34.6 5.4l108.9-29.3c23.2-6.2 37-30.2 30.7-53.3z"/><path fill="#737092" d="M215.3 101.2c-4.8-.4-9.8 0-14.7 1.3l-109 29.3C68.5 138 54.7 162 60.9 185l29.3 109c2.9 10.9 9.8 19.7 18.7 25.3-39-150.5 102.8-216.5 106.4-218.1z"/><path fill="#E5CECD" d="M207.5 244.2c-5.1 3.4-6.7 9.3-10 14-2.6 3.7-5 7.7-7.2 11.7-2.2 4-3.8 4.1-7.3.8-32.4-30.7-65-61.2-97.5-91.8-1.1-1-1.9-2.2-3.5-2.4-.8-2.4 1.5-1.1 2.1-1.8 16.3 1.6 32.6.8 48.9 1 35.6.6 71.3.8 106.9 1.2 6.6.1 7 .6 3.7 5.9-5.4 8.6-10.1 17.7-16.3 25.8-2.4-.4-4.9-.8-7.3-1.3l-114.3-26.4c-2.5-.6-5.1-2.1-8.1.3 39.5 15.8 78.6 31.4 117.8 47.1-1.8 5.7-7.6 9.4-7.9 15.9z"/><path fill="#63A1A4" d="M215.3 228.2c-39.2-15.6-78.3-31.3-117.8-47.1 3-2.4 5.6-.9 8.1-.3l114.3 26.4c2.4.6 4.9.9 7.3 1.3 3.3 13.5 6.6 27 9.8 40.5.2.7 1.2 2-.5 2.4-6.2-8.5-12.8-16.7-21.2-23.2z"/><path fill="#807B7B" d="M215.3 228.2c8.4 6.5 15 14.7 21.3 23.2l-29.1-7.2c.3-6.5 6.1-10.2 7.8-16z"/><path fill="#FDD2A4" d="M478.3 379.8L475.2 267c-.5-18.8-13.1-34.5-30-40.1-3.8.8-157.1 31.8-154.4 187.3 8.2 8.5 19.7 13.7 32.4 13.3l112.8-3.1c23.9-.6 42.9-20.7 42.3-44.6z"/><path fill="#FEE1C8" d="M445.2 227c-4.6-1.5-9.5-2.3-14.6-2.2l-112.8 3.1c-23.9.6-42.9 20.7-42.3 44.6l3.1 112.8c.3 11.3 5 21.4 12.3 29C288 258.8 441.3 227.7 445.2 227z"/><path fill="#6A68AC" d="M342 289.5h75.6V370H342c-.1-26.9 0-53.7 0-80.5zm24.4 41.1v20.2c10-7.1 19.1-13.5 28.3-20 3-2-.2-2.4-1-2.9-7.4-5.3-14.8-10.4-22.3-15.5-1.5-1-2.8-2.7-5-2.8v21z"/><path fill="#5857A2" d="M342 289.5V370c-3 0-6-.1-9 .2-3.1.2-5.3-.9-6.9-3.4 0-24.7.1-49.3-.1-74 0-3 .8-3.5 3.5-3.3 4.1.2 8.3 0 12.5 0z"/><path fill="#5856A2" d="M417.6 369.9v-80.5h12.6c1.8 1.4 3.4 2.8 3.4 5.4v69.6c0 3.8-2.1 5.6-5.8 5.6-3.5 0-6.9 0-10.2-.1z"/><path fill="#FBFAFD" d="M417.6 369.9c3.4 0 6.7.1 10.1.1 3.7 0 5.8-1.8 5.8-5.6v-69.6c0-2.6-1.6-4-3.4-5.4 3.5-.7 4.3.6 4.3 4.2-.2 24.7-.2 49.4 0 74.2 0 2.7-.7 3.2-3.2 3.2-33.7-.1-67.3-.1-101 0-3.6 0-4.9-.8-4.2-4.3 1.6 2.5 3.8 3.6 6.9 3.4 3-.2 6-.1 9-.2h75.7z"/><path fill="#FCFBFD" d="M366.4 330.6v-21c2.2.1 3.5 1.7 5 2.8 7.5 5.1 14.9 10.3 22.3 15.5.7.5 4 .9 1 2.9-9.4-.1-18.8-.2-28.3-.2z"/><path fill="#C7C7C8" d="M366.4 330.6c9.4.1 18.9.1 28.3.2-9.2 6.5-18.3 13-28.3 20v-20.2z"/><path fill="#C5DBA4" d="M621.7 256.1l33.1-107.9c5.5-18-1.4-36.9-15.6-47.6-3.9-.5-159.1-20.1-206.1 128.2 5.1 10.6 14.3 19.3 26.4 23l107.9 33.1c22.9 7 47.3-6 54.3-28.8z"/><path fill="#DBE6C9" d="M639.2 100.6c-3.9-2.9-8.3-5.2-13.2-6.7L518.2 60.8c-22.9-7-47.3 5.9-54.3 28.8l-33.1 107.9c-3.3 10.8-2.1 21.9 2.4 31.4 46.9-148.3 202.1-128.8 206-128.3z"/><path fill="#E65959" d="M553.3 114.2c5 1.7 10.1 3.4 15.1 5.1 1.1 2.2 3.5 2.8 5.3 4.2 18.5 13.9 24.8 44.5 6 64.3-13.9 14.6-30.2 26.1-47 37-9.8 6.4-10 6.3-13.9-4.6-6.6-17.9-12.4-36.1-14.8-55.1-.6-4.4.4-9-1-13.3 1.6-4.7 3.2-9.5 4.8-14.2 1.6-.1 1.8-1.6 2.4-2.5 9.7-13.9 23-20.8 40.1-20.3 1 0 2.2.6 3-.6zm22 55.3c5.4-15.6-3.1-33-18.6-38.3-15.4-5.3-32.7 3-38.1 18.3-5.5 15.6 2.8 33 18.3 38.4 15.6 5.5 33-2.9 38.4-18.4z"/><path fill="#AE2F2F" d="M575.3 169.5c-5.4 15.5-22.8 23.9-38.4 18.5-15.5-5.4-23.8-22.9-18.3-38.4 5.4-15.3 22.7-23.6 38.1-18.3 15.5 5.2 24 22.6 18.6 38.2zm-33.4 5.3c8.5 2.8 17.4-1.7 20.2-10.3 2.7-8.3-1.7-17.1-10-20-8.5-2.9-17.5 1.5-20.4 10-2.8 8.5 1.7 17.5 10.2 20.3z"/><path fill="#FEF0F0" d="M541.9 174.8c-8.5-2.8-13-11.8-10.1-20.3 2.9-8.4 11.9-12.9 20.4-10 8.2 2.8 12.7 11.7 10 20-2.9 8.6-11.9 13.1-20.3 10.3z"/><path fill="#EFB38C" d="M337.3 500.7l-17.4-111.5c-2.9-18.6-17.4-32.6-34.9-35.9-3.7 1.2-151.8 51.5-129.3 205.4 9.2 7.4 21.3 11 33.8 9.1L301 550.4c23.7-3.7 40-26.1 36.3-49.7z"/><path fill="#F2D2BB" d="M285.1 353.3c-4.8-.9-9.7-1.1-14.8-.3l-111.5 17.4c-23.6 3.7-39.9 26-36.3 49.7L140 531.5c1.7 11.1 7.6 20.6 15.9 27.2-22.6-153.9 125.5-204.2 129.2-205.4z"/><path fill="#9FA240" d="M284.7 430.7c2.8 21.4 5.5 42.9 8.3 64.3.3 2.2-.2 2.8-2.4 3-35.8 4.5-71.6 9.1-107.4 13.8-2.2.3-2.8-.1-3-2.4-2.7-21.4-5.4-42.9-8.2-64.3 1.3-2.9 3.5-4.3 6.8-4.5 2.6-.1 5.2-.7 7.7-1 27.6-3.5 55.2-7.1 82.7-10.6 2.2-.2 4.3-.3 6.5-.8 3.5-.7 6.7-.6 9 2.5zm-25.8 35.5c-1.8-14.5-15.1-24.9-29.5-23.1-14.7 1.8-25.2 15.2-23.3 29.8 1.8 14.5 15.1 24.9 29.6 23.1 14.6-1.8 25-15.1 23.2-29.8zm20.2-23.7c-.5-3.4-3.8-6.1-7.3-5.7-3.6.4-6.4 3.9-5.9 7.5s4.1 6.3 7.7 5.7c3.4-.6 6-4.1 5.5-7.5z"/><path fill="#D6D872" d="M269.3 429c-27.6 3.5-55.2 7.1-82.7 10.6 1.2-4.4.5-9.6 5.6-12.3 22.9-2.9 45.8-5.9 68.7-8.8 5.5 1.3 6.1 6.5 8.4 10.5z"/><path fill="#565829" d="M258.9 466.2c1.8 14.7-8.6 28-23.3 29.8-14.4 1.8-27.7-8.6-29.6-23.1-1.9-14.6 8.6-28 23.3-29.8 14.5-1.7 27.7 8.7 29.6 23.1zm-39.6-9.2c-1.1.8-1.9 1.8-2.3 3-5.5 8.3-3.4 18.9 4.9 24.8 8.1 5.7 19.1 4 25.3-3.9 6.1-8 5-19-2.6-25.4-7.9-6.6-18.7-6-25.3 1.5z"/><path fill="#F2F3ED" d="M279.1 442.5c.5 3.4-2.1 6.9-5.5 7.5-3.6.6-7.2-2.1-7.7-5.7s2.3-7.2 5.9-7.5c3.4-.3 6.8 2.3 7.3 5.7z"/><path fill="#BDBCBB" d="M219.3 457c6.6-7.5 17.4-8.1 25.2-1.5 7.6 6.4 8.8 17.4 2.6 25.4-6.1 7.9-17.2 9.6-25.3 3.9-8.4-5.9-10.5-16.5-4.9-24.8-.1 1.3-.2 2.6-.3 4-.2 4.4 2.3 8.1 6.6 9.5 4.2 1.3 7.6.1 10.2-3.4 2.5-3.3 2.7-6.8.5-10.3-2.3-3.7-6.6-5.2-10.8-4-1.3.3-2.6.8-3.8 1.2z"/><path fill="#FFFEF3" d="M219.3 457c1.3-.4 2.5-.9 3.8-1.3 4.2-1.3 8.5.2 10.8 4 2.2 3.5 2 7-.5 10.3-2.6 3.5-6 4.7-10.2 3.4-4.2-1.3-6.7-5.1-6.6-9.5 0-1.3.2-2.6.3-4 .5-1.1 1.3-2.1 2.4-2.9z"/><path fill="#7BC2BF" d="M460 147.3L429 38.8c-5.2-18.1-21.2-30.2-39-31.4-3.5 1.7-144.3 69.8-103 219.7 10 6.2 22.5 8.3 34.7 4.9l108.5-31c22.9-6.5 36.3-30.7 29.8-53.7z"/><path fill="#92CDCB" d="M389.9 7.4c-4.8-.3-9.8.1-14.7 1.5l-108.5 31c-23 6.6-36.4 30.8-29.9 53.7l31 108.5c3.1 10.8 10.1 19.5 19.1 25-41.3-149.8 99.5-218 103-219.7z"/><path fill="#AE2F2E" d="M358 67.4c3.3-.7 6.6-1.3 9.9-2 12.5 1.4 22 7.4 28.2 18.4 7.8 13.8 8.6 27.8 1.4 42.1-10.5 20.9-24.3 39.6-38.6 58.1-2.9-9.5-4.1-19.4-6.2-29.1 6.2-1.6 6.1-1.5 5.1-7.7-.7-4.2-3.8-9.4-1.5-12.1 2.2-2.6 7.9-2.2 12.1-3.1 5.9-1.2 5.9-1.2 4.7-7-1.3-6.8-1.3-6.7-8.1-5.4-3.9.7-8.8 3.1-11.4 1.6-3.1-1.8-2.2-7.4-3.1-11.4-1.4-6.6-1.3-6.6-7.7-5.7-1-5-2-9.9-2.9-14.9 3.1-9.7 9.1-17 18.1-21.8z"/><path fill="#E65959" d="M339.8 89.1c1 5 2 9.9 2.9 14.9-6.3 1.6-6.3 1.6-5 8.2.2.9.4 1.8.5 2.7 1.9 9.4 1.9 9.4-7.7 11.3-10.2 2-10.1 2-7.4 12 .5 2 1.3 2.4 3.2 2 4-.9 8.1-1.4 12.1-2.5 3.2-.9 4.7-.4 5.1 3.3.5 4.1 1.6 8.1 2.3 12.2.3 2.1 1.2 2.9 3.3 2.3 1.2-.4 2.4-.4 3.6-.6 2.1 9.7 3.3 19.6 6.2 29.1-.6.6-1.2.1-1.6-.2-25-16-52.8-28.4-69.7-54.6-1.1-5.4-2.1-10.8-3.2-16.2.2-.4.6-.7.6-1.1.3-14.9 6.4-26.5 19.7-33.8 3.3-.7 6.6-1.3 9.9-2 10.2.9 18.5 5.5 25.2 13z"/><path fill="#BB95BF" d="M607.8 522.4l20.9-110.9c3.5-18.5-5.5-36.5-20.8-45.5-3.9-.1-160.3-2.2-190.5 150.3 6.2 10 16.4 17.5 28.8 19.9L557 557.1c23.5 4.4 46.4-11.2 50.8-34.7z"/><path fill="#D4C1D8" d="M607.9 366c-4.2-2.5-8.8-4.3-13.8-5.2l-110.9-20.9c-23.5-4.4-46.3 11.2-50.8 34.7l-20.9 110.9c-2.1 11.1.3 22 5.9 30.9C447.5 363.8 603.9 365.9 607.9 366z"/><path fill="#BDDFF0" d="M557 431.4c.4 3.3-.1 6.7-1.4 9.4-1.8 3.6-1.5 4.1 2.5 4.5 13.6 1.4 22.8 13.9 20.2 27.7-2 10.6-14.4 20.3-27.4 16.8-22.7-6-45.4-11.7-67.9-18.1-11.9-3.4-18.1-12.7-20-24.6-1.6-10.7 2.2-19.6 10.5-26.5 8.7-7.2 18.3-9.1 29-5.5 2.2.7 3.9.6 5.8-1.6 10-11.7 25.8-13.5 38.4-3.9 6.9 5.2 10.8 12.7 10.3 21.8zm-24-.9c-1.4-1.9-.8-5.3-4.3-5.7-3.1-.3-5.9.3-6.9 4-.9 3.5-2.7 6.9-2.9 10.4-.3 5.1-2.5 6.3-6.8 4.6-4.4-1.8-4.8.1-3.4 3.6 2.3 5.6 4.7 11.1 7.1 16.6 1 2.4 2.1 3.2 4.6 1.1 4-3.3 8.3-6.4 12.6-9.3 1.9-1.3 3.7-2.7 3.4-4.8-.3-2.1-2.8-1.5-4.4-1.9-2.9-.6-4.2-1.7-2.8-5.2 1.7-4.2 2.5-8.6 3.8-13.4z"/><path fill="#1E2E59" d="M533 430.5c-1.3 4.8-2.1 9.3-3.7 13.4-1.4 3.4 0 4.6 2.8 5.2 1.6.4 4.1-.2 4.4 1.9.3 2.1-1.6 3.6-3.4 4.8-4.3 2.9-8.6 5.9-12.6 9.3-2.5 2.1-3.6 1.3-4.6-1.1-2.4-5.5-4.8-11-7.1-16.6-1.4-3.4-1.1-5.3 3.4-3.6 4.3 1.7 6.5.5 6.8-4.6.2-3.5 2-6.9 2.9-10.4 1-3.7 3.8-4.4 6.9-4 3.5.4 2.8 3.8 4.2 5.7z"/><g fill="none" stroke="#E8E7E8" stroke-width="5" stroke-linecap="round" stroke-linejoin="round" stroke-miterlimit="10"><path d="M747.7 88.6l-99.4 38.3v82.9L78.8 280l109.1 409.6h401.6M413.3 238.8v322.7M508.7 561.5l34.1-338.7M185.9 270.2l48.2 294.5M160.1 574.4L612.9 563l35.7-350.5M312.8 251.1l20.7 310.4"/></g></svg>