<svg xmlns="http://www.w3.org/2000/svg" viewBox="0 0 400 400" enable-background="new 0 0 400 400"><path fill="#fff" d="M6.1 184.5c0-33.9.1-67.7-.1-101.6 0-3.4.7-4 4-4 40.2.2 80.5.1 120.7.1 3 3.8 3.9 8.1 3.9 12.9-.2 9 .1 17.9-.1 26.9-.1 4.8 1.6 6.8 6.6 6.8 37.9-.1 75.7-.1 113.6 0 5 0 6.7-2.1 6.6-6.8-.2-9 .1-17.9-.1-26.9-.1-4.8.8-9.1 3.9-12.9 40.1 0 80.3.1 120.4-.1 3.6 0 4.3.7 4.3 4.3-.2 33.8-.1 67.5-.1 101.3-3.3 2.2-7 2.7-10.9 2.7-9.4-.1-18.8.2-28.1-.1-4.9-.2-8.1 1.7-11.1 5.4-24.1 30.3-48.4 60.5-72.7 90.6-2.9 3.6-4.3 7.4-4.2 12 .1 16.2 0 32.3.1 48.5 0 4.1-.5 8-3.6 11H137c-3.4-3.2-3.6-7.4-3.6-11.6 0-17.4-.1-34.7 0-52.1 0-4.2-1.2-7.7-3.9-11-23.7-29.4-47.3-58.8-70.9-88.3-2.6-3.3-5.6-4.6-9.7-4.6-10.6.2-21.2 0-31.7.1-4.2.1-7.8-.5-11.1-2.6zm257.6 78.3c.6-.4 1.1-.5 1.3-.8l56.7-70.5c.7-.9 1.9-1.9 1.3-3.1-.8-1.9-2.8-1.2-4.3-1.2-15.4-.1-30.8 0-46.1-.1-9.4 0-11.4-2-11.4-11.1-.1-9.6-.1-19.2 0-28.8.1-4.7-1.4-7-6.5-7-37.9.1-75.9.1-113.8 0-4.6 0-6.5 1.8-6.4 6.4.2 9.8.1 19.6 0 29.4-.1 8.9-2.1 11-10.9 11.1-14.2.1-28.4 0-42.5.1-1.9 0-4.6-1-5.6.9-1 2 1.4 3.5 2.6 4.9 16.6 20.7 33.2 41.4 49.9 62.1 1.2 1.5 1.9 3.6 4.2 3.9 3.9-12.5 3.9-12.5 17.6-12.5h94.6c15.9 0 15.9 0 18.5 15.5.1.2.3.3.8.8zM52 131.2c0 8.8-.1 17.6.1 26.3.1 6 2.3 7.2 7.5 4.1 13.8-8.3 27.5-16.9 41.4-25.3 3.7-2.3 4.5-4.1.2-6.7-14.7-8.8-29.4-17.8-43.9-26.9-4.6-2.9-5.3-1-5.3 3.3.1 8.4 0 16.8 0 25.2zm128.1 169.7c0 9 .1 17.9 0 26.9-.1 4.6 1 5.9 5.4 3.2 14.5-9.1 29.2-18 43.8-26.8 3.8-2.3 3.8-4 0-6.2-14.6-8.9-29.3-17.8-43.8-26.8-3.8-2.3-5.4-1.6-5.4 2.9.1 8.9 0 17.8 0 26.8zm128.1-168.4v26.9c0 3.9.9 6 5.2 3.4 14.8-9.1 29.6-18.2 44.4-27.2 3.4-2.1 3-3.6-.2-5.5-14.7-8.9-29.3-17.8-43.9-26.9-4.5-2.8-5.6-.8-5.6 3.4.1 8.7.1 17.3.1 25.9z"/></svg>