<svg xmlns="http://www.w3.org/2000/svg" viewBox="0 0 400 400" enable-background="new 0 0 400 400"><g fill="#fff"><path d="M197.6 191.9c-51.9 0-103.9.2-155.8-.2-10.2-.1-13.4 3.2-13.2 13.3.5 31.8.1 63.6.3 95.4.1 7.8-1.2 12.6-10.9 12.6-9.3 0-11.2-4.1-11.2-12.3.3-37.4 0-74.9.1-112.3 0-14.2 4.2-18.3 18.4-18.3 115.2-.1 230.3-.1 345.5 0 14.2 0 18.4 4.1 18.4 18.3.1 37.4-.1 74.9.1 112.3.1 8.2-1.9 12.2-11.2 12.3-9.6 0-10.9-4.8-10.8-12.6.2-32.1-.2-64.3.2-96.4.1-9.2-2.9-12.3-12.2-12.2-52.4.2-105.1.1-157.7.1zM158.3 137.9v16.3c.1 9.6-6.9 7.9-12.7 8.1-5.9.2-11.7.3-11.5-8.3.2-10.6-.4-21.2.3-31.8 1-16.1 14.9-29.9 31.4-30.5 20.8-.7 41.7-.8 62.5 0 17.5.6 31.1 15 31.9 32.3.4 9.5-.3 19.1.2 28.6s-5.3 9.8-12.3 9.8c-7.1 0-12.9-.6-12.1-10 .4-4.8.1-9.7.1-14.5-1.2 0-2.3-.1-3.5-.1 0 4.9-.2 9.8 0 14.7.4 7.3-3 10-10.1 9.9-15.9-.3-31.8-.6-47.7.1-10 .4-13.4-3.7-12.6-13 .3-3.8.1-7.6.1-11.4-1.5-.1-2.8-.1-4-.2zM197.9 25.6c17.1.1 30.7 13.7 30.3 30.1-.5 16.5-14.4 30.1-30.9 30.2-16.9.1-31.4-14.1-31.4-30.9.1-17 13.7-29.5 32-29.4z"/></g></svg>