<svg xmlns="http://www.w3.org/2000/svg" viewBox="0 0 400 400" enable-background="new 0 0 400 400"><g fill="#fff"><path d="M199.6 386h-84.5c-8.6 0-12.2-3.5-12.2-12.2 0-39-.1-77.9 0-116.9 0-9.3 3.6-12.7 13-12.7h167.5c9.3 0 13 3.5 13 12.7.1 39 0 77.9 0 116.9 0 8.7-3.7 12.2-12.3 12.2h-84.5zm-.4-19.5c24.3 0 48.6 0 72.9.1 3.4 0 4.8-.8 4.8-4.5-.1-31.3-.1-62.5 0-93.8 0-3.7-1.3-4.6-4.8-4.6-48.4.1-96.7.1-145.1 0-3.8 0-4.8 1.2-4.8 4.9.1 31 .1 62 .1 93 0 4.9.1 4.9 5 4.9h71.9zM115 190.1H43.2c-9.1 0-12.6-3.6-12.6-12.6v-23.1c.1-6.7 4.1-11.3 9.8-11.2 5.6.1 9.5 4.6 9.6 11.1.1 4 .2 7.9 0 11.9-.2 3.4 1 4.5 4.4 4.5 15.4-.1 30.8 0 46.2 0h87.1c5 0 5 0 5-4.9 0-4.8-.1-9.7 0-14.5.1-5.4 4.2-9.5 9.3-9.6 5.2-.1 9.5 4.2 9.6 9.7.1 4.8.2 9.7 0 14.5-.2 3.7 1 4.9 4.8 4.9 29.5-.2 59.1-.1 88.6-.1 14.9 0 29.8-.1 44.7 0 3.5 0 4.9-1 4.7-4.6-.3-4.1-.1-8.2 0-12.3.2-6.2 4.3-10.6 9.7-10.6 5.5 0 9.6 4.4 9.7 10.6.1 8.2.1 16.4 0 24.6 0 8-3.9 11.8-12 11.8-47.9 0-95.8.1-143.7.1-7.2 0-6.5-.6-6.6 6.7v19.7c-.1 6.2-3.9 10.1-9.5 10.1-5.7 0-9.4-4-9.4-10.2-.1-7.3-.2-14.6 0-22 .1-3.5-1.1-4.4-4.5-4.4-24.2 0-48.6 0-73.1-.1 0 .1 0 0 0 0zM199.8 35h43.5c7.7 0 11.4 3.7 11.4 11.4.1 21.2 0 42.4 0 63.6 0 7.9-3.8 11.6-11.7 11.6h-86.7c-8.1 0-11.8-3.7-11.8-11.9V46.8c0-8.4 3.6-11.9 12.1-11.9 14.4.1 28.8.1 43.2.1zm.1 19c-10.7 0-21.3.1-32 0-2.9 0-3.9 1-3.9 3.9.1 13.4.1 26.8 0 40.2 0 3 .9 4.2 4 4.2 21.1-.1 42.2-.1 63.2 0 3.1 0 4.1-1.1 4.1-4.1-.1-13.3-.1-26.5 0-39.8 0-3.2-.9-4.4-4.2-4.3-10.4 0-20.8-.1-31.2-.1zM337.3 35h43.5c7.6 0 11.1 3.5 11.1 11.2v64.4c0 7.5-3.6 11.1-11.2 11.1h-87.4c-7.5 0-11.1-3.7-11.1-11.3V46c0-7.4 3.5-11 10.9-11h44.2zm-.3 19c-10.3 0-20.6.1-30.9-.1-3.3-.1-4.6.8-4.6 4.4.2 13.1.2 26.3 0 39.4 0 3.5 1.2 4.5 4.6 4.4 20.8-.1 41.6-.1 62.5 0 3.1 0 4.4-.8 4.4-4.2-.2-13.3-.1-26.5 0-39.8 0-3.3-1.2-4.3-4.3-4.3-10.6.3-21.2.2-31.7.2zM62.5 35h43.9c7.1 0 10.8 3.6 10.8 10.8v64.7c0 7.5-3.7 11.2-11.2 11.2H18.6c-7.6 0-11.1-3.6-11.1-11.3V46c0-7.6 3.5-11.1 11.2-11.1 14.5.1 29.1.1 43.8.1zm-.6 19c-10.4 0-20.8.1-31.2-.1-3.2 0-4.3 1-4.3 4.3.1 13.3.1 26.5 0 39.8 0 3.4 1.3 4.2 4.4 4.2 20.8-.1 41.6-.1 62.5 0 3.4 0 4.6-1.1 4.5-4.5-.1-13.1-.2-26.3 0-39.4 0-3.6-1.4-4.4-4.6-4.3-10.5.1-20.9 0-31.3 0z"/></g></svg>