<svg xmlns="http://www.w3.org/2000/svg" viewBox="0 0 400 400" enable-background="new 0 0 400 400"><circle fill="#F3F3F3" cx="246.3" cy="176.9" r="26.5"/><path fill="#fff" d="M329.4 178c-21.8-17.1-45.2-31.4-71.2-41.2-5.4-2-10.9-3.9-16.6-4.9.7.6 1.4 1.1 2 1.7 6.2 5 11.3 11 15.4 17.8.3.5 1 1.1.5 1.7-.4.5-1-.2-1.5-.4-4.4-1.8-8.8-2.7-13.6-2.2-15.3 1.7-25.9 15.4-23.4 30.6 1.6 9.9 7.3 16.9 16.6 20.5 9.4 3.6 18.2 2.1 26.2-4.1 1.5-1.2 2.8-2.7 4.3-4.2-.4 17.6-13.1 44.1-40.3 56.2-28.4 12.7-62.7 4.1-81.8-20.8-11.6-15.1-16.3-32.3-13.8-51.2 2.5-18.9 11.8-34 27.1-46.1-1.2.3-1.8.4-2.4.6-12.5 3.5-24.4 8.3-36 14.1-27.8 14-52.5 32.3-75 53.8-2.5 2.4-2.4 2.4 0 4.8C61.5 219.9 78.6 233.4 97 245c19.2 12.1 39.4 21.9 61.3 28 21.6 6 43.5 7.6 65.7 4 18.1-3 35.3-8.7 51.7-16.6 29.9-14.3 56.1-33.8 79.9-56.7 1.2-1.2 1-1.8-.1-2.8-8.3-8.1-17-15.8-26.1-22.9zM46 204.6c15.6 15.2 32.7 28.7 51.1 40.3 19.2 12.1 39.4 21.9 61.3 28 21.6 6 43.5 7.6 65.7 4 18.1-3 35.3-8.7 51.7-16.6 29.9-14.3 56.1-33.8 79.9-56.7 1.2-1.1 1-1.8 0-2.7l-310.6-.1c-1.6 1.5-1.2 1.8.9 3.8zM355.6 200.8c-8.4-8-17-15.6-26.1-22.8-21.8-17.1-45.2-31.4-71.2-41.2-5.4-2-10.9-3.9-16.6-4.9-36.6-13.5-82.3-.5-82.3-.5-1.2.3-1.8.4-2.4.6-12.5 3.5-24.4 8.3-36 14.1-27.8 14-52.5 32.3-75 53.8l-.9.9c-1.5 1.6-1.2 1.9.9 3.9 15.6 15.2 32.7 28.7 51.1 40.3 19.2 12.1 39.4 21.9 61.3 28 21.6 6 43.5 7.6 65.7 4 18.1-3 35.3-8.7 51.7-16.6 29.9-14.3 56.1-33.8 79.9-56.7 1.1-1.2 1-1.9-.1-2.9z"/><path fill="#BBBDBF" d="M391.8 200.9c-7.7-9-15.8-17.6-24.5-25.6-20.3-18.7-42.2-35.1-66.5-48.2-22.7-12.3-46.5-21.4-72.1-25.6-18.1-3-36.2-3.1-54.3-.5-22 3.3-42.9 10.2-62.8 19.8C89.5 131.5 69.1 145 50 160.6 35.1 172.8 21.2 186 8.8 200.7c-1 1.1-1.1 1.9 0 3.1 3.9 4.4 7.6 8.9 11.7 13.1 12.9 13.3 26.8 25.5 41.7 36.5 23.8 17.7 49.2 32.2 77.4 41.7 19.7 6.6 39.9 10.4 60.8 10.4 3.7-.1 7.4-.1 11.1-.4 12.2-.8 24.2-2.8 36-5.9 26.2-7 50.4-18.5 73.1-33.3 26.7-17.4 50.8-37.9 71.5-62.2.8-1.2.6-1.9-.3-2.8zm-36.1 2.7c-23.8 22.9-50 42.4-79.9 56.7-16.5 7.9-33.7 13.7-51.7 16.6-22.2 3.6-44.1 2-65.7-4-21.9-6.1-42.2-15.9-61.3-28-18.4-11.7-35.4-25.1-51.1-40.3-2.1-2-2.4-2.3-.9-3.9.2-.3.5-.5.9-.9 22.5-21.5 47.2-39.9 75-53.8 11.6-5.8 23.5-10.6 36-14.1.6-.2 1.2-.3 2.4-.6 0 0 45.7-13 82.3.5 5.7 1.1 11.2 2.9 16.6 4.9 26 9.8 49.4 24.1 71.2 41.2 9.1 7.1 17.7 14.8 26.1 22.8 0 0 0 .1.1.1 1 1 1.1 1.7 0 2.8z"/><path fill="#3892CC" d="M263.8 197.4c-8 6.2-16.8 7.8-26.2 4.1-9.3-3.6-15-10.6-16.6-20.5-2.5-15.3 8.1-29 23.4-30.6 4.8-.5 9.2.4 13.6 2.2.5.2 1.1.8 1.5.4.5-.6-.2-1.2-.5-1.7-4.1-6.8-9.2-12.8-15.4-17.8-.7-.6-1.4-1.1-2-1.7-36.6-13.5-82.3-.5-82.3-.5-15.4 12.1-24.6 27.2-27.1 46.1-2.5 19 2.2 36.1 13.8 51.2 19.1 24.9 53.4 33.4 81.8 20.8 27.2-12.1 39.9-38.7 40.3-56.2-1.5 1.6-2.7 3.1-4.3 4.2z"/></svg>