<svg xmlns="http://www.w3.org/2000/svg" viewBox="0 0 400 400" enable-background="new 0 0 400 400"><path fill="#394C5F" d="M311.5 199.1v195.5h-24.4c-13.5 0-24.4-11.4-24.4-24.4V223.6c0-14.7 10.9-24.4 24.4-24.4h24.4z"/><path fill="#5B305B" d="M327.8 215.4c9 0 16.3 6.5 16.3 16.3v130.4c0 8.1-7.3 16.3-16.3 16.3h-16.3v-163h16.3z"/><path fill="#A768A8" d="M295.2 199.1h32.6v195.5h-32.6z"/><path fill="#5B305B" d="M67.1 215.4c-9 0-16.3 7.3-16.3 16.3v130.4c0 9 7.3 16.3 16.3 16.3h16.3v-163H67.1z"/><path fill="#394C5F" d="M83.4 199.1v195.5h24.4c13.5 0 24.4-11.4 24.4-24.4V223.6c0-14.7-10.9-24.4-24.4-24.4H83.4zM197 2C98 2 17.8 81.8 17.8 181.2v16.3h16.3c.7-74.9 51-136.9 119.1-156.4 3.6-1.6 7.5-1.6 11.2-3.3h3.1c4.1-1.6 8.5-1.6 12.7-1.6 5.6-1.6 11-1.6 16.8-1.6 5.8 0 11.2 0 16.8 1.6 4.4 0 8.4 0 12.7 1.6 4.8 0 9.7 1.6 14.3 3.3 68.1 19.6 118.5 81.5 119.1 156.4h16.3v-16.3C376.2 81.8 296 2 197 2z"/><path fill="#2F4152" d="M197 18.3c-99 0-179.2 79.8-179.2 179.2h16.3c.7-74.9 51-136.9 119.1-156.4 3.6-1.6 7.5-1.6 11.2-3.3h3.1c4.1-1.6 8.5-1.6 12.7-1.6 5.6-1.6 11-1.6 16.8-1.6 5.8 0 11.2 0 16.8 1.6 4.4 0 8.4 0 12.7 1.6 4.8 0 9.7 1.6 14.3 3.3 68.1 19.6 118.5 81.5 119.1 156.4h16.3C376.2 98.1 296 18.3 197 18.3zM59 207.3c0 13.5-10.9 24.4-24.4 24.4s-24.4-10.9-24.4-24.4 10.9-24.4 24.4-24.4S59 193.8 59 207.3z"/><path fill="#394C5F" d="M25.6 202.4l25.3 94.5c1.2 3.3 5.6 6.5 10 4.9 4.3-1.6 6.9-4.9 5.8-9.8l-25.3-94.5-15.8 4.9z"/><path fill="#2F4152" d="M336 207.3c0 13.5 10.9 24.4 24.4 24.4s24.4-10.9 24.4-24.4-10.9-24.4-24.4-24.4-24.4 10.9-24.4 24.4z"/><g fill="#394C5F"><path d="M369.4 202.4l-25.3 94.5c-1.2 3.3-5.6 6.5-10 4.9-4.4-1.6-6.9-4.9-5.8-9.8l25.3-94.5 15.8 4.9zM50.9 205.7c0 9-7.3 16.3-16.3 16.3s-16.3-7.3-16.3-16.3 7.3-16.3 16.3-16.3 16.3 7.3 16.3 16.3zM376.7 205.7c0 9-7.3 16.3-16.3 16.3s-16.3-7.3-16.3-16.3 7.3-16.3 16.3-16.3 16.3 7.3 16.3 16.3z"/></g><path fill="#A768A8" d="M67.1 199.1h32.6v195.5H67.1z"/></svg>