<svg xmlns="http://www.w3.org/2000/svg" viewBox="0 0 400 400" enable-background="new 0 0 400 400"><path fill="#F7E8D4" d="M126.2 43.6h187.7v295H126.2z"/><path fill="#DCE0DF" d="M135.5 340.5h187.7v31H135.5zM126.7 7.7h187.7v31H126.7z"/><path fill="#434344" d="M329.4 192.4v155.7c0 21.8-11.7 33.6-33.4 33.6H145.4c-20.8 0-32.8-12-32.8-32.9V36c0-21 12-33 32.8-33h151.2c20.8 0 32.7 12 32.7 33 .1 52.2.1 104.3.1 156.4zM313.9 43.6H126.2v295h187.7v-295zm-94.1 327.8c4.1 0 8.2.2 12.3 0 6.7-.3 11.5-4.8 12.3-11.1.8-6.9-2.7-13-9.7-13.7-9.6-.9-19.3-.9-28.9-.1-6.5.5-10.5 6.8-10 13 .5 6.4 5.7 11.4 12.4 11.8 3.8.3 7.7.2 11.6.1zm-.3-350.5c-6.9 0-13.7-.3-20.6.2-2.1.1-4 2.1-6 3.3 1.9 1.4 3.7 3.9 5.6 3.9 14.1.3 28.3.3 42.4 0 1.8 0 3.5-2.3 5.3-3.5-1.9-1.3-3.7-3.5-5.6-3.6-6.9-.5-14-.3-21.1-.3z"/><path fill="#81AA61" d="M294.3 101.5c3.3 13.8-2.6 28.2-13.8 36.1-12.8 9-29.1 8.8-41.4-.5-8.2-6.1-12.8-14.6-13.8-24.9-.4-4.3 0-8.6 1.3-12.7 6.1 0 12.3 0 18.4.1-3.2 3.1-6.4 6.2-9.2 8.9 3.7 3.9 7.1 7.5 10.6 11.2 4 4.1 8 8.2 12.1 12.3.8.9 1.5 1.6 2.7.3 7.4-7.5 14.9-14.9 22.3-22.3.8-.8.8-1.2 0-2l-5.7-5.7c.5-1 1.5-.6 2.3-.6 4.7-.1 9.4-.2 14.2-.2z"/><path fill="#D3B665" d="M226.2 270.9c-.2-8.2 2.4-15.5 7.6-21.7 9.8-11.7 22.4-15.9 37.2-11.6 13.8 4 21.9 13.7 24.7 27.8.3 1.5.7 3 .4 4.6h-9.3c-.8 0-1.5-.1-2.1-.7-1.2-1.2-2.7-2.3-3.8-3.6-5.2-5.7-11-11-16.4-16.5-.5-.5-1-1.3-1.9-1.2h.1c-.1-.2-.3-.3-.4-.5-.1-.3-.3-.5-.4-.8-.3 0-.5-.7-.9-.2-2.9 3.6-4.3 8-6.9 11.8-2.7 4-5 8.3-7.4 12.5-6.9-.1-13.7-.8-20.5.1z"/><path fill="#E47F42" d="M226.2 270.9c6.8-.9 13.5-.1 20.3 0-2.5 4.5-5.1 8.9-7.6 13.4-1.3 2.3-1.3 2.3 1.2 2.3H282c.6 0 1.1.1 1.7 0 .7-.1.5-.5.2-.9-.4-.9-.9-1.8-1.3-2.6-3-5.3-6-10.6-9.1-15.9 2.3.3 3.9 1.8 5.6 3.1 1.7 1.3 3.3 2.5 5.5 2.9 1.2.2 2.8-.2 3.7.5 2.2 1.9 4.7 1.9 7.4 1.9-.4 5.9-2.7 11.1-6 15.8-2.9 4.2-6.7 7.5-11.1 10-12.6 7.2-27.5 6.5-39.2-2.8-8.7-6.9-13.4-16.3-13.2-27.7z"/><path fill="#775193" d="M212.4 115.3c-1.3 7.3-4.7 13.3-9.9 18.6-6 6-13.2 9.2-21.4 10.1-7.4.8-14.4-.9-20.8-4.7-8.6-5.1-14-12.6-16.3-22.3 1 .2 1.9-.2 2.9-.1 5.5.2 11 .3 16.5-.3 4.3 4.3 9 8.2 13 12.8 1.1 1.3 1.9 1.2 3 0 1.6-1.7 3.4-3.2 5-4.9 6-6 12.3-11.6 18.1-17.7.9 0 1.4.7 1.8 1.3 1.9 2.3 4.2 4.2 6.3 6.3.5.4 1 .9 1.8.9z"/><path fill="#D3B665" d="M143.3 194.6c-1.2-8.1.6-15.6 4.9-22.4 11.3-18.3 35.7-22.2 52.2-8.5 7.1 5.9 11.3 13.3 12.3 22.6.3 2.7.5 5.3.2 8-.8-.2-1.3-.9-1.8-1.4l-15.4-15.4c-.5-.5-1-1.2-1.8-1.5-.3-.3-.5-.6-.8-.9-4.8-2.1-9.6-4.1-14.5-5.9-.2-.3-.5-.3-.8-.2-5 1.8-9.9 4-14.8 6.1-2.7 4.9-4.5 10.1-6.4 15.3-.3 1.7 1.1 2.8 1.3 4.3-1 .4-2 .5-3.1.5-3.9-.3-7.7-.1-11.5-.6z"/><path fill="#C4944F" d="M193.9 175.9c.8.2 1.2.9 1.8 1.5l15.4 15.4c.5.5 1 1.2 1.8 1.4-1.4 17.3-17.1 31.4-34.7 31.4-18.3 0-33.3-14.2-34.9-31 3.8.5 7.6.4 11.4.4 1.1 0 2.1-.1 3.1-.5 1.6 3.7 3.2 7.3 4.8 11 .1.2.2.4.3.5 4.8 2 9.7 4 14.5 6 .5.2.9.2 1.4 0 4.8-2.2 9.8-3.9 14.6-6.3 2.1-5.1 4.2-10.1 6.3-15.2.1-.2-.2-.5-.3-.7-1.8-4.7-3.7-9.3-5.5-13.9z"/><path fill="#E5749D" d="M144.3 279.4c-2.8-9.5-1.3-18.5 3.7-26.8 5.4-8.9 13.4-14.7 23.8-16.7 9.5-1.8 18.2.2 26 5.7 8.8 6.3 14.1 14.8 15.2 25.7.1.9 0 1.8 0 2.7-.7-.6-1.4-1.2-2-1.9-4.4-4.3-8.8-8.6-13.2-13l-.3-.3c-1.2-1.3-2.5-2.5-3.7-3.8-.5-.5-1-.6-1.7-.6-9.7 0-19.4.1-29 .1-1.2.1-1.9.9-2.3 2-.5 1-2.8.9-1.6 2.9-.6 1.9-2.4 1.2-3.8 1.5.9 1.1 2 .4 3 .7 0 7.2-.1 14.3-.1 21.5-4.7.8-9.4 1-14 .3z"/><path fill="#A16FAB" d="M163.4 116.4c-5.5.6-11 .5-16.5.3-1 0-1.9.3-2.9.1-1.9-6.8-1.2-13.4 1.2-19.9 2-5.6 5.5-10.2 10-14.1 1.1.4 2.3.5 3.5.5h31.6c3.4 0 6.8 0 10.1-.9 9.8 8.5 14.1 19.1 12.3 32 0 .3-.2.5-.2.8-.8 0-1.3-.5-1.8-1-2.1-2.1-4.4-4-6.3-6.3-.5-.6-.9-1.3-1.8-1.3-.1-.2 0-.5-.2-.6-3.8-4-7.7-8-11.5-12-.4-.4-.8-.5-1.3-.5-3.3 0-6.6.1-9.9.1-3 0-5.9-.1-8.9-.1-3.6 0-4.6.9-4.8-4.5 0-.1-.1-.1-.2-.3-.2.8-.4 1.6-.4 2.3 0 1.8-.8 2.6-2.6 2.4-.6 0-1.3 0-1.7.6 1.1.7 2.7-.6 3.3 1.1l-.4.4-.4.4-.4.4c-2.6 3.3-6.3 5.4-8.8 8.9-.8 1.1-.7 1.4.1 2.2 2.8 3.2 6.1 5.8 8.9 9z"/><path fill="#5D91C9" d="M294.8 194.2c-.4 6.5-2.8 12.4-6.8 17.5-7.5 9.6-17.5 14.4-29.7 13.8-7.4-.3-14.1-2.9-20-7.6-4.3-3.5-7.6-7.6-9.8-12.7h12c1.6 0 3.2.2 4.8-.4 4.7 2.8 9.3 5.7 14 8.5.6.3 1 1 1.9.7 4.5-2.7 9-5.5 13.5-8.1 1.4-.8 1.9-1.7 1.9-3.3-.1-8.6-.1-17.2-.1-25.8.8.1 1.3.8 1.8 1.3 2.3 2 4 4.6 6.6 6.4 2 2.1 3.9 4.3 5.9 6.4 1 1.2 2.4 2.4 4 3.3z"/><path fill="#E05268" d="M144.3 279.4c4.7.7 9.3.5 14-.1.4 2.1-.3 4.2.4 6.3 1.3 1.3 2.6 2.7 3.9 4 .4.7 1.1.4 1.7.4h27.3c.5 0 1.1.1 1.6-.3l4.2-4.2c.5-.7.3-1.5.3-2.2v-28c4.4 4.3 8.8 8.7 13.2 13 .6.6 1.3 1.2 2 1.9.1 7.4-2 14.1-6.3 20-7.3 10.1-17.2 15.5-29.7 15.1-12.5-.4-22.1-6.2-28.8-16.7-1.7-2.9-3-6-3.8-9.2z"/><path fill="#B8C86F" d="M294.3 101.5c-4.7 0-9.4.1-14.1.2-.8 0-1.7-.4-2.3.6-5.5-5.5-11.1-10.9-16.5-16.4-1-1.1-1.6-1.1-2.6 0-4.5 4.6-9.2 9.2-13.8 13.7-6.1 0-12.3 0-18.4-.1 1.1-5.3 3.8-9.7 7.3-13.6 12.9-14.2 33-16 48.1-4.3 6.4 5.1 10.7 11.7 12.3 19.9z"/><path fill="#74CDDD" d="M284.7 184.4c-2.5-1.8-4.2-4.4-6.6-6.4-.6-.5-1-1.2-1.8-1.3l-.1.1c-.1-.2-.2-.6-.4-.7-4.9-3-9.9-6-14.8-9-2.3.8-4.4 2.1-6.4 3.5-1 .1-1.6 1-2.4 1.4-1.1.8-2.2 1.8-3.5 2.2-3.3 1.1-4.2 3.3-3.6 6.5.1.3.1.6.1.8-.1 2.4-.1 4.8-.2 7.1-.1-.6-.3-1.3-.2-1.9.3-2-.6-2.5-2.5-2.4-5.5.1-11.1 0-16.6 0 .7-5.6 3-10.6 6.4-15 13.6-17.9 39.8-18.8 54.5-1.8 4 4.6 6.8 9.8 7.7 15.9-2.6.5-5.2.4-7.8.4-.6.1-1.4-.1-1.8.6z"/><path fill="#69B8D8" d="M225.7 184.3c5.5 0 11.1.1 16.6 0 1.9 0 2.8.4 2.5 2.4-.1.6.1 1.2.2 1.9.1.6.1 1.2.2 1.7-.3 4.8-.1 9.6-.1 14.4-1.5.7-3.2.4-4.8.4h-12c-3.2-6.6-4.1-13.5-2.6-20.8z"/><path fill="#B288BA" d="M200.4 82.5c-3.3.9-6.7 1-10.1.9h-31.6c-1.2 0-2.4-.1-3.5-.5 4.2-4.1 9.4-6.5 15-7.9 10.9-2.6 20.6.1 29.5 6.7.3.2.4.5.7.8z"/><path fill="#C4944F" d="M295.7 275.6c-2.6 0-5.2 0-7.4-1.9-.9-.8-2.4-.3-3.7-.5-2.2-.4-3.8-1.6-5.5-2.9-1.7-1.3-3.3-2.8-5.6-3.1-3.8-6.3-7.6-12.6-11-19.1.9 0 1.4.7 1.9 1.2 5.4 5.5 11.1 10.8 16.4 16.5 1.2 1.3 2.6 2.4 3.8 3.6.6.6 1.3.7 2.1.7h9.3c.1 1.8.3 3.6-.3 5.5z"/><path fill="#69B8D8" d="M284.7 184.4c.5-.7 1.3-.5 1.9-.5 2.6 0 5.2.1 7.8-.4.8 3.5 1.3 7.1.5 10.6-1.6-.9-3-2-4.3-3.4-2.1-2-4-4.1-5.9-6.3z"/><path fill="#E05268" d="M244.9 99.6c4.6-4.6 9.3-9.1 13.8-13.7 1-1.1 1.6-1 2.6 0 5.5 5.5 11 11 16.5 16.4 1.9 1.9 3.7 3.9 5.7 5.7.8.8.8 1.2 0 2-7.5 7.4-14.9 14.8-22.3 22.3-1.2 1.3-1.9.5-2.7-.3-4-4.1-8.1-8.2-12.1-12.3-3.5-3.6-7-7.3-10.6-11.2 2.7-2.7 5.9-5.8 9.1-8.9zm-7 9.2h8c.7 0 1.1-.4 1.6-.9 3.5-3.7 7.3-7 10.7-10.9.4-.5.9-1.4 1.8-.5 2.9 3 5.8 6.2 8.8 9 1.2 1.1 2.2 3 3.9 3.1 3.2.3 6.4.1 9.9.1-.4-.5-.5-.8-.7-.9l-20.7-20.7c-1.2-1.2-1.8-.4-2.5.4l-19.8 19.8c-.3.4-.9.7-1 1.5zm18.1 17.1c.6-4 .6-4 4.7-4.7-3 0-5-1.1-4.7-3.2.5 2.5-2.2 3-5 3.3 4.3.2 4.6.9 5 4.6zm6 2.3c-.5-.3-1.1 0-1.7-.7-.8-.9-1.2.9-2 .6-.2-.1-.2.2-.1.2.9-.3 1.3 1.5 2.1.6.5-.7 1.1-.5 1.7-.7z"/><path fill="#B288BA" d="M262.6 248c3.4 6.5 7.2 12.8 11 19.1 3 5.3 6 10.6 9.1 15.9.5.9.9 1.7 1.3 2.6-.1.1-.2.1-.2.2-4.1-2.6-8.1-5.2-12.2-7.8-.8-3.1-1.6-3.8-4.6-3.8-4.1 0-8.2-.1-12.3 0-1.8 0-1.9-.6-1.1-1.9 1.6-2.7 3.3-5.4 4.8-8.2.9-1.8 2.5-3.3 2.5-5.5.1-4 0-8.1 0-12.1.4-.6.6.1.9.2.1.3.3.5.4.8 0 .3.1.5.4.5z"/><path fill="#A16FAB" d="M260.9 246.6c0 4 .1 8.1 0 12.1 0 2.1-1.6 3.7-2.5 5.5-1.5 2.8-3.2 5.5-4.8 8.2-.8 1.3-.7 2 1.1 1.9 4.1-.1 8.2 0 12.3 0 2.9 0 3.8.7 4.6 3.8-6.6 0-13.2.1-19.8.1-1.1 0-2.1 0-2.7 1.2-1 0-1.8-.5-2.1-1.3-.5-1.2-.6-.8-.9.1-.2.6-.5 0-.8 0l-.4-.4-.1-.1.1.1.4.4c.2 1.6-1.5.9-2 1.6.7.5 2.4-.5 2 1.5-.4.1-.7.2-.8.6-1.9 1.4-3.8 2.8-6 4.4h43.7c.5 0 1.1.2 1.6-.3l.2-.2c.3.4.5.8-.2.9-.6.1-1.1 0-1.7 0h-41.9c-2.6 0-2.5 0-1.2-2.3 2.5-4.5 5.1-8.9 7.6-13.4 2.5-4.2 4.7-8.5 7.4-12.5 2.6-3.9 4-8.3 6.9-11.9zm-12.5 31c-.1 0-.1 0-.2.1-.2.1-.2.2 0 .2l.1-.1c.1 0 .1-.1.1-.2z"/><path fill="#C4944F" d="M262.2 247.5c-.1-.3-.3-.5-.4-.8.1.3.3.6.4.8zM262.6 248c-.3 0-.4-.2-.4-.5.1.2.3.4.4.5z"/><path fill="#D2E8F1" d="M163.4 116.4c-2.7-3.2-6-5.9-9-8.8-.8-.8-.9-1.1-.1-2.2 2.5-3.4 6.2-5.6 8.8-8.9l.4-.4.4-.4.4-.4c1.7 1 .6 3 1.7 4.5v-2.3c0-.7 0-1.4.5-1.7.7-.4 1 .6 1.4.9.5.4 1 .7 1.5 1.1 1 .8 1.6 1.6.3 2.7-.3.3-.5.8-.7 1.2 1 .3 1.6 2.5 3 .6.8-1 1.5-.5 2.1.2.8.9 1.6 1.8 2.3 2.7 1 1.2 1.9 1.5 3.1.1.9-1.1 1.9-2.3 2.9-3.3 2.2-2 2.2-2.5.2-4.7-1.1-1.2-2.6-2-3.1-3.6 3.3 0 6.6-.1 9.9-.1.5 0 1 .1 1.3.5 3.8 4 7.7 8 11.5 12 .1.1.1.4.2.6-5.8 6.2-12.1 11.7-18.1 17.7-1.6 1.6-3.4 3.1-5 4.9-1.1 1.2-1.8 1.3-3 0-3.9-4.6-8.6-8.6-12.9-12.9z"/><path fill="#69B8D8" d="M162.6 205.5c-1.6-3.7-3.2-7.3-4.8-11-.2-1.5-1.6-2.7-1.3-4.3h6.9c.8.4 1.6.9 2.5 1.3.3 2 1.5 3.8 2.2 5.7.4 1.1 1 1.3 2.1.7 6-3.1 12-6.1 18.1-9 1.3-.6 1.3-1.4.9-2.5l-2.1-5.1c2-2.1 4-4.2 6-6.4.3.3.5.6.8.9 1.9 4.6 3.8 9.2 5.6 13.9-.5.7-1.2.5-1.9.5h-5.5c-.6 0-1.3-.2-1.6.7-.8 2.2-2 4.2-2.1 6.5 0 .1-.1.3-.1.4-.1.1-.2.1-.3.3-.7-.1-.2-1.1-1-1.3-.3 1.8-1.4 2.7-3.4 2.4.9.9 2.4-.3 2.7 1.3-.2.3-.5.4-.8.4l-.2-.1c0-.1 0-.3.1-.4 0-.1.1-.1.1-.2 0 .1-.1.1-.1.2-.4.1-.9 0-1.2.2-4.4 3.1-8.7 1.9-13-.3-.2-.1-.5-.2-.8-.4-1.1-.6-1.9-.4-2.8.5-1.6 1.8-3.3 3.4-5 5.1z"/><path fill="#74CDDD" d="M163.5 190.2h-6.9c1.9-5.2 3.8-10.4 6.4-15.3 1.3 1.8 2.9 3.3 4.5 4.8.2 1.1-.7.8-1.2.9-.9.1-1.8-.1-2.6.7 1.3.4 2.9-.2 4 1-.1 0-.1 0-.2.1v.1c0-.1.1-.1.1-.2 1.4.2.6 1.3.8 2.1-1.4.7-1.2 2.3-1.8 3.4-.2.4-.4.8 0 1.1.4.3.8 0 1.1-.2.4-.3.7-.6 1.1-1 .1-.1.3-.2.4-.4.5-.1 1-.1 1.4-.3 3.9-1.9 7.9-3.9 11.8-5.9.5-.2.8-.5.8-1.1 1.4 0 2.5 1.1 3.8 1.3l2.1 5.1c.5 1.1.5 1.9-.9 2.5-6.1 2.9-12.1 6-18.1 9-1.1.5-1.7.4-2.1-.7-.6-1.9-1.9-3.6-2.2-5.7.5-.4.6-1.2 1.4-1.5-1.1-.1-2-.5-2-1.8-.2 1.1-1.1 1.4-1.7 2zm2.8-6.7c.1 0 .3-.1.4-.1 0-.1-.1-.1-.1-.2l-.3.3-.1.1.1-.1z"/><path fill="#D2E8F1" d="M183.3 180c0 .6-.3.9-.8 1.1-3.9 2-7.8 3.9-11.8 5.9-.4.2-.9.2-1.4.3 0-5.7 0-5.3 6.5-6.2-1.8-.2-3.1-.4-4.4-.6-.6-.1-1.1-.1-1.2-.9 0-.1.1-.1.1-.2 0 .1-.1.1-.1.2-1.5-1.3-.5-3.1-1-4.7-.7.9-.7 2-.7 3 0 .7.2 1.6-1 1.7-1.6-1.5-3.2-3-4.5-4.8 4.9-2.1 9.8-4.3 14.8-6.1.2 2.9-.4 5.9.4 8.8 1.4 1.4 3.5 1.4 5.1 2.5zm-12.1-1.3c0 .1-.1.1-.1.2 0 0 .1 0 .1.1 0-.1.1-.1.1-.2s-.1-.1-.1-.1z"/><path fill="#5D91C9" d="M183.3 180c-1.5-1.2-3.7-1.1-5.1-2.4.3-2.9-.4-5.8.4-8.6 4.9 1.8 9.7 3.8 14.5 5.9-2 2.1-4 4.2-6 6.4-1.4-.1-2.4-1.3-3.8-1.3z"/><path fill="#74CDDD" d="M178.6 169c-.8 2.8-.1 5.7-.4 8.6-.8-2.9-.2-5.9-.4-8.8.3-.1.6-.1.8.2z"/><path fill="#5D91C9" d="M162.6 205.5c1.7-1.7 3.5-3.3 5.1-5 .9-.9 1.7-1.2 2.8-.5.2.1.5.2.8.4 4.3 2.3 8.5 3.4 13 .3.3-.2.8-.2 1.2-.2 0 .1 0 .2-.1.4s-.2.3-.3.5l.1.1c.1-.2.2-.3.3-.5.3 0 .6-.1.8-.4.5 1.2 1.1.9 1.6 0 1.8 1.7 3.7 3.4 5.5 5.1-4.7 2.4-9.7 4.2-14.6 6.3-.5.2-.9.2-1.4 0-4.8-2-9.7-4-14.5-6-.1-.1-.2-.3-.3-.5z"/><path fill="#74CDDD" d="M193.4 205.6c-1.8-1.7-3.7-3.4-5.5-5.1.6-1 1.8-.7 2.6-1.1-.8-.7-2.3.4-2.6-1.3l.3-.3c.3 0 .8 0 .8-.4s-.4 0-.7 0c.2-2.3 1.4-4.4 2.1-6.5.3-.8 1-.7 1.6-.7h5.5c.7 0 1.4.2 1.9-.5.1.2.3.5.3.7-2.1 5.1-4.2 10.2-6.3 15.2z"/><path fill="#81AA61" d="M197.4 285.4l-4.2 4.2c-1.1 0-2.2-.1-3.4-.1-8.9 0-17.7 0-26.6-.1 1.6-2.2 3.1-4.6 5-6.6 1.3-1.5.5-2-.4-3-1-1.1-1.8-.9-2.8.1-1.9 1.9-4.2 3.5-6.4 5.1v-23.8c0-1.4.5-2.3 2-2.3.2.6-.2 1.4.4 1.9.8-.3.5-1 .6-1.4.3-1.4.8-.3 1.2-.1.3.6.8.6 1.3.8 1.7.7 3 1.5 2.9 3.8-.2 2.3.1 4.7 0 7 0 1.3.3 1.9 1.8 1.9 6.1-.1 12.1-.1 18.2 0 1.3 0 1.7-.5 1.7-1.7 0-2.5.1-5.1 0-7.6 0-1.1.3-1.8 1.2-2.5 1.7-1.2 3.3-2.6 5-3.9.4-.3 1-.5.7-1.3-.6-1.4-3.8-3.4-5.4-3.4-8.1 0-16.2-.1-24.3 0-1.3 0-2.3-.3-3-1.5 9.7 0 19.4-.1 29-.1.7 0 1.2.1 1.7.6 1.2 1.3 2.4 2.5 3.7 3.8-.1 9.9 0 20.1.1 30.2zm-10.9-2c.3-2.1 1.8-2.6 3.7-2.7-1.5-.5-3.2-.2-3.4-1.9-2.9 1.4-.3 3-.3 4.6z"/><path fill="#B8C86F" d="M163.1 250.6c.6 1.2 1.6 1.5 3 1.5h24.3c1.7 0 4.8 2 5.4 3.4.3.8-.2 1-.7 1.3-1.7 1.3-3.3 2.7-5 3.9-.9.6-1.3 1.4-1.2 2.5 0 2.5-.1 5.1 0 7.6 0 1.2-.3 1.8-1.7 1.7-6.1-.1-12.1-.1-18.2 0-1.4 0-1.8-.5-1.8-1.9.1-2.3-.2-4.7 0-7 .2-2.2-1.2-3.1-2.9-3.8-.5-.2-1.1-.2-1.3-.8-.2-.9-.1-1.5 1.1-1.4.9.1 1.7-.1 2.7-.8-.6-.1-.9-.1-1.2-.2-3.1-.2-3.2-.3-3.8-3.3-.1-.5-.1-1-.9-.8.3-1 .9-1.8 2.2-1.9zm8.5 9.2c-1.5-2.7-3 .4-4.6-.2 1.4.3 2.9.5 2.9 2.6.3-1.2 1.2-1.8 1.7-2.4z"/><path fill="#DCE0DF" d="M160.8 252.6c.7-.2.8.3.9.8.6 3.1.7 3.1 3.8 3.3.3 0 .7.1 1.2.2-.9.7-1.8.9-2.7.8-1.2-.1-1.3.5-1.1 1.4-.4-.2-.9-1.3-1.2.1-.1.5.2 1.1-.6 1.4-.6-.5-.2-1.3-.4-1.9-.3-1.4-1.4-1.2-2.4-1.1-1-.3-2.1.4-3-.7 1.4-.3 3.2.4 3.8-1.5 1.1.3 1.8.2 1.7-1.2v-1.6z"/><path fill="#D3B665" d="M158.3 257.7c1-.1 2-.3 2.4 1.1-1.5 0-2 .9-2 2.3V285.5c-.8-2.1 0-4.2-.4-6.3v-21.5z"/><path fill="#91743B" d="M197.4 285.4c-.1-10.2-.2-20.3.1-30.5.1.1.2.1.3.3v28c-.1.8.2 1.6-.4 2.2z"/><path fill="#B8C86F" d="M160.8 252.6v1.6c.2 1.4-.6 1.6-1.7 1.2-1.1-1.8 1.3-1.8 1.7-2.8z"/><path fill="#DCE0DF" d="M179.5 93.7c.6 1.6 2.1 2.4 3.1 3.6 2 2.2 2 2.6-.2 4.7-1.1 1-2 2.2-2.9 3.3-1.1 1.4-2.1 1.1-3.1-.1-.7-.9-1.5-1.8-2.3-2.7-.6-.7-1.3-1.2-2.1-.2-1.5 1.8-2-.4-3-.6.2-.4.4-.9.7-1.2 1.3-1.1.7-1.9-.3-2.7-.5-.4-1-.8-1.5-1.1-.5-.3-.7-1.3-1.4-.9-.5.3-.5 1.1-.5 1.7v2.3c-1.1-1.5 0-3.5-1.7-4.5-.7-1.7-2.3-.4-3.3-1.1.4-.6 1.1-.6 1.7-.6 1.8.1 2.6-.6 2.6-2.4 0-.7.3-1.5.4-2.3.1.2.2.2.2.3.1 5.4 1.2 4.4 4.8 4.5 2.9-.1 5.8 0 8.8 0zM164.2 95.3l-.4.4c.1-.2.3-.3.4-.4zM163.8 95.7l-.4.4.4-.4zM163.4 96.1l-.4.4.4-.4z"/><path fill="#D3B665" d="M245.2 190.3c-.1-.6-.1-1.2-.2-1.7.1-2.4.1-4.8.2-7.1 3.2-.1 5.2 1.1 5.2 4.7 0 0 .1.1.5.3-.8-3.6.8-5.1 4.4-4.8-1.4-1.1-2.7-.2-3.8-1.3-1.1-1.1-.2-2.5-1.5-4.2 1.1 4.9-2 4.9-4.8 5.3 0-.3 0-.6-.1-.8-.6-3.2.3-5.4 3.6-6.5 1.3-.4 2.3-1.5 3.5-2.2.6.2 1.4.3 1.7 1.1.5 1.4.7-.5 1.2-.1h-.1c-.1-1 .6-.9 1.2-1-.7-.3-1.7-.2-1.6-1.4 2-1.4 4.1-2.6 6.4-3.5 0 2.4.2 4.8-.1 7.2-.3 2.9.7 4.7 3.2 5.8 1.3.6 2.4 1.4 3.6 2.1 1.1.7 1.9.6 2.8-.4 1.7-1.9 3.7-3.5 5.6-5.1l.1-.1c0 8.6 0 17.2.1 25.8 0 1.6-.4 2.5-1.9 3.3-4.6 2.6-9 5.4-13.5 8.1V205c.3-.9 1.3-1.2 2-2-2 0-1.6-1.6-2.1-2.6-.5.7 0 1.6-.8 2.1-1.8-1.1-3.6-2.2-5.5-3.1-1.8-.9-2.6-2.1-2.3-4.2.2-1.1 0-2.2 0-3.4.1-1.2-.4-1.7-1.6-1.6-1.6.2-3.5.1-5.4.1z"/><path fill="#C4944F" d="M261 205.1v8.8c-.8.3-1.3-.4-1.9-.7-4.7-2.8-9.3-5.7-14-8.5-.1-4.8-.2-9.6.1-14.4h5.7c1.2 0 1.6.4 1.6 1.6-.1 1.1.1 2.3 0 3.4-.3 2 .5 3.3 2.3 4.2 1.9.9 3.7 2.1 5.5 3.1-.2.8-1 .3-1.6.8.9.3 1.8.8 2.3 1.7z"/><path fill="#B8C86F" d="M158.7 285.6v-.6c2.2-1.6 4.5-3.1 6.4-5.1 1-1 1.7-1.2 2.8-.1.9 1 1.7 1.6.4 3-1.9 2-3.3 4.4-5 6.6-.2 0-.5.1-.7.1l-3.9-3.9z"/><path fill="#91743B" d="M162.6 289.6c.2 0 .5-.1.7-.1 8.8 0 17.7 0 26.6.1 1.1 0 2.2.1 3.4.1-.5.5-1.1.3-1.6.3h-27.3c-.7 0-1.4.3-1.8-.4z"/><path fill="#C4944F" d="M276.1 176.8c-2 1.6-3.9 3.2-5.6 5.1-.9.9-1.7 1.1-2.8.4-1.2-.7-2.3-1.5-3.6-2.1-2.6-1.2-3.6-3-3.2-5.8.3-2.4.1-4.8.1-7.2 4.9 3 9.9 6 14.8 9 .1 0 .2.3.3.6z"/><path fill="#DCE0DF" d="M245.2 181.5c2.8-.4 5.8-.5 4.8-5.3 1.3 1.7.3 3.1 1.5 4.2 1.1 1.1 2.5.2 3.8 1.3-3.6-.3-5.3 1.2-4.4 4.8-.4-.2-.5-.3-.5-.3 0-3.6-2-4.9-5.2-4.7zM255 172.9c-.4-.3-.6 1.5-1.2.1-.3-.8-1-.8-1.7-1.1.8-.5 1.4-1.3 2.4-1.4-.1 1.1.9 1.1 1.6 1.4-.5.1-1.3 0-1.1 1z"/><path fill="#E5749D" d="M237.9 108.8c0-.8.6-1.1 1-1.5l19.8-19.8c.8-.8 1.3-1.6 2.5-.4 6.8 6.9 13.8 13.8 20.7 20.7.2.2.3.4.7.9-3.5 0-6.7.2-9.9-.1-1.7-.2-2.7-2-3.9-3.1-3.1-2.9-5.9-6-8.8-9-.9-1-1.4 0-1.8.5-3.3 3.8-7.2 7.2-10.7 10.9-.5.5-.8.9-1.6.9h-8zm17.3-11.5c.4-1.3 1.7-2.6-.1-4.1 0 1.2-1.1 1.1-1.7 2 1.4.1 1.8.9 1.8 2.1z"/><path fill="#DCE0DF" d="M256 125.9c-.4-3.7-.7-4.5-5-4.6 2.8-.3 5.5-.8 5-3.3-.3 2.1 1.7 3.2 4.7 3.2-4.1.8-4.1.8-4.7 4.7zM262 128.2c-.6.2-1.2.1-1.7.6-.8.9-1.2-.9-2.1-.6-.1.1-.1-.2.1-.2.9.4 1.3-1.5 2-.6.5.7 1.2.4 1.7.8z"/><path fill="#775193" d="M249.1 279.3c.5-1.2 1.6-1.2 2.7-1.2 6.6 0 13.2 0 19.8-.1 4.1 2.6 8.1 5.2 12.2 7.8-.5.5-1.1.3-1.6.3h-43.7c2.3-1.7 4.2-3 6-4.4.3-.2.5-.4.8-.6 1.4-.3.7 1.4 1.6 1.7-.1-2 .6-3.1 2.7-3 .5 0 .3-.3 0-.4-.2-.1-.3-.1-.5-.1zm5.5 3c1.2-1.1 0-1.4-.6-1.9-.3-.3-.3-.7-.5-1.2-.3.8-.6 1.5-1.4 1.9-.1 0-.6.3-.2.3 1.2-.3 1.2 2.2 2.7.9z"/><path fill="#D2E8F1" d="M249.1 279.3c.1 0 .3 0 .4.1.3.1.5.4 0 .4-2.1-.1-2.8 1-2.7 3-1-.2-.2-2-1.6-1.7.4-2-1.3-1-2-1.5.6-.7 2.2.1 2-1.6.3 0 .6.6.8 0 .3-.9.4-1.3.9-.1.4.9 1.3 1.4 2.2 1.4zM245.3 281.1c-.3.2-.5.4-.8.6.1-.4.4-.6.8-.6zM248.4 277.6v.2l-.1.1c-.2 0-.2-.1 0-.2 0 0 0-.1.1-.1zM245.3 278.1l-.4-.4c0 .1.2.3.4.4zM244.8 277.7l-.1-.1.1.1zM188 198.2c.3 1.7 1.8.6 2.6 1.3-.9.4-2.1.1-2.6 1.1-.5.9-1.1 1.2-1.6 0-.3-1.6-1.8-.4-2.7-1.3 2 .3 3.1-.6 3.4-2.4.7.2.2 1.1.9 1.3zM163.5 190.2c.6-.6 1.6-.9 1.8-2.1 0 1.4.9 1.7 2 1.8-.8.3-.9 1.1-1.4 1.5-.8-.3-1.6-.8-2.4-1.2zM188.4 197.5c.2 0 .6-.4.7 0 0 .4-.5.4-.8.4 0-.1 0-.3.1-.4z"/><path fill="#5D91C9" d="M185.4 200.5c0-.1.1-.1.1-.2 0 0-.1.1-.1.2z"/><path fill="#DCE0DF" d="M167.5 179.7c1.2-.1.9-1 1-1.7 0-1 0-2.1.7-3 .5 1.6-.5 3.4 1 4.7.1.7.6.8 1.2.9 1.3.1 2.6.3 4.4.6-6.6.9-6.5.5-6.5 6.2-.1.1-.3.2-.4.4-.2-1.1-.3-2.2-.5-3.4-.2-.7.6-1.8-.8-2.1-1.1-1.2-2.6-.6-4-1 .8-.8 1.7-.5 2.6-.7.6-.1 1.5.2 1.3-.9z"/><path fill="#D2E8F1" d="M168.4 184.3c.2 1.1.3 2.2.5 3.4-.4.3-.7.6-1.1 1-.3.3-.7.5-1.1.2-.4-.3-.2-.8 0-1.1.5-1.3.3-2.8 1.7-3.5z"/><path fill="#DCE0DF" d="M166.3 183.5l.3-.3c0 .1.1.1.1.2-.1 0-.2.1-.4.1zM166.3 183.5l-.1.1.1-.1zM167.6 182.2c0 .1-.1.1-.1.2v-.1s.1 0 .1-.1zM171.2 178.7c.1 0 .1 0 .1.1s0 .1-.1.2c-.1 0-.1 0-.1-.1s0-.1.1-.2zM170.2 179.7c0-.1.1-.1.1-.2-.1.1-.1.1-.1.2z"/><path fill="#69B8D8" d="M185.5 201c-.1.2-.2.3-.3.5-.1 0-.2-.1-.1-.1.1-.2.2-.3.3-.5l.1.1z"/><path fill="#D2E8F1" d="M186.5 283.4c0-1.7-2.6-3.3.2-4.6.3 1.7 2 1.4 3.4 1.9-1.8.1-3.3.7-3.6 2.7z"/><path fill="#DCE0DF" d="M171.6 259.8c-.6.7-1.5 1.2-1.7 2.4 0-2.1-1.4-2.3-2.9-2.6 1.6.6 3.2-2.5 4.6.2zM261 205.1c-.5-.9-1.4-1.5-2.4-1.8.5-.4 1.4.1 1.6-.8.7-.4.3-1.3.8-2.1.5 1.1.1 2.7 2.1 2.6-.9.9-1.9 1.2-2.1 2.1zM255 172.9zM255.2 97.3c0-1.2-.4-2-1.7-2.2.5-.9 1.7-.8 1.7-2 1.7 1.6.4 2.8 0 4.2z"/><path fill="#D2E8F1" d="M254.6 282.3c-1.4 1.3-1.5-1.3-2.7-1-.3.1.1-.2.2-.3.8-.3 1.1-1.1 1.4-1.9.2.4.2.9.5 1.2.6.7 1.8 1 .6 2zM254.6 282.3v.1-.1z"/></svg>