<svg xmlns="http://www.w3.org/2000/svg" viewBox="0 169 800 489.2" enable-background="new 0 169 800 489.2"><path fill="none" stroke="#818181" stroke-width="2" d="M68.2 191c-31.6 1.8-57 26.8-59.6 58.2h-.2L7.6 570c0 33.8 26.2 61.4 59.6 63.6v.2l655.2 1.4c35 0 63.6-28.2 63.6-63.4l.8-320.6h-.2c-2.4-32.8-29.8-58.6-63.2-58.6L68.2 191z"/><circle fill="none" stroke="#818181" stroke-width="2" cx="36.6" cy="278.4" r="7"/><path fill="none" stroke="#818181" stroke-width="2" d="M35.2 366.2c2 0 3.8 1.6 3.8 3.8v86c0 2-1.6 3.8-3.8 3.8-2 0-3.8-1.6-3.8-3.8v-86c0-2.2 1.8-3.8 3.8-3.8z"/><path fill="#3892CC" d="M85.6 217.4h620.8v389.8H85.6z"/><path fill="none" stroke="#818181" stroke-width="2" d="M724.6 380.2V442c0 5.8 4.8 10.6 10.6 10.6h14.4c5.8 0 10.6-4.8 10.6-10.6v-61.8c0-5.8-4.8-10.6-10.6-10.6h-14.4c-5.8 0-10.6 4.8-10.6 10.6zM735.2 517.4h12.6v26.4h-12.6zM735.2 278.4h12.6v26.4h-12.6z"/><g fill="#fff"><path d="M436 417.8c-9-5.6-18.2-11.2-27.2-16.6l-39.4 57.4c22.2-13.8 44.2-27.2 66.6-40.8zM408.8 401.2c-14.2-8.6-28.4-17.4-42.6-26.2v85.6c1-.6 2.2-1.4 3.2-2l39.4-57.4z"/></g><path fill="#fff" d="M662.4 562.4l-2.6 2.6c1.4 1.4 2.2 3.2 2.2 5.4 0 2-.8 4-2.2 5.4l2.6 2.6c2-2 3.4-4.8 3.4-8 0-3-1.4-5.8-3.4-8zM673.2 570.6c0-5.2-2.2-10-5.6-13.4l-2.6 2.6c2.8 2.8 4.4 6.6 4.4 10.8s-1.6 8-4.4 10.8l2.6 2.6c3.6-3.6 5.6-8.2 5.6-13.4zM680.8 570.6c0-7.4-3-14-7.8-18.6l-2.6 2.6c4.2 4 6.6 9.8 6.6 16s-2.6 12-6.6 16l2.6 2.6c4.8-4.8 7.8-11.4 7.8-18.6zM633.8 578h10l10.8 10v-35L644 563h-10.2z"/></svg>