<svg xmlns="http://www.w3.org/2000/svg" viewBox="0 0 400 400" enable-background="new 0 0 400 400"><path fill="#595A5C" d="M47.4 39.2h270.1v197.9H47.4z"/><path fill="#231F20" d="M182.3 271.9H36.5c-16.3 0-28.2-11.8-28.2-28.1V32.3C8.2 16 20.1 4.2 36.5 4.2h292c16.3 0 28.2 11.8 28.2 28.1v211.5c0 16.3-11.9 28.1-28.2 28.1-48.7.1-97.5 0-146.2 0zm-.1-34.9h129.4c5.9 0 6 0 6-5.7V44.6c0-5.5 0-5.5-5.7-5.5H53.2c-5.7 0-5.7 0-5.7 5.9v186.2c0 5.7 0 5.7 5.9 5.7 42.9.1 85.9.1 128.8.1zm155.2-105.1c-3.7-.1-6.5 2.5-6.7 6-.1 3.4 2.8 6.3 6.3 6.3 3.8.1 6.4-2.4 6.5-6 .2-3.6-2.3-6.2-6.1-6.3z"/><path fill="#EF5D2F" d="M181.6 104.3l-28.5 28.5 28.5 28.5 28.4 28.5V75.9z"/><path fill="#DF2649" d="M238.5 106.9L210 78.5v113.9l28.5-28.5 28.5-28.5z"/><path fill="#E9C29C" d="M249.1 393.9h-45.3c-1.8 0-1.8 0-1.7-1.8.2-6.7-2.1-12.6-5.3-18.3-2.8-4.9-6.2-9.4-9.9-13.6-1.6-1.8-2.8-3.9-4.2-5.9-2.7-3.7-4.8-7.8-7.6-11.5-5-6.5-10.3-12.9-15.6-19.2-3.5-4.2-5.7-9-7.5-14.1-2.6-7.8-4.5-15.8-5-23.9-.6-9.4-3.5-18.1-6.4-26.9-1.1-3.2-2.2-6.4-3.3-9.7-.4-1-.4-2-.3-3.1.3-4.4.8-8.8.9-13.2.1-3.1-.7-6-1.7-8.9-1.1-3.2-2.5-6.2-4.4-9-.6-.9-.7-1.7-.6-2.7.2-1.2.5-2.2 1.1-3.1 1.6-2.7 4.7-4.1 8.6-3.9 7.3.4 12.6 3.9 16.1 10.2 1.6 2.9 3 6 3.6 9.3 1.5 7.9 4 15.6 6.9 23.2 2.3 6.1 9.5 10.7 15.9 10.3 2.4-.1 4.2-1.5 6-2.9.6-.5 1.2-1.1 1.8-1.6 2.6-2 3.6-4.6 3.6-7.9.1-10.4.3-20.8.6-31.1.2-7.7.4-15.3.5-23 .3-11.7.6-23.3.8-35 .1-7.6.4-15.2.6-22.8.1-3.9.2-7.9.2-11.8 0-.6.1-1.2.4-1.7 1.7-2.5 3.6-4.9 6.1-6.7 3.8-2.7 7.9-2.5 11.4.7 2.3 2.1 4 4.6 5.4 7.4.6 1.2.5 2.4.6 3.6.5 7.1 1 14.3 1.5 21.4.5 7.3 1 14.6 1.5 21.8.4 5.7.8 11.4 1.1 17.1.5 7.6 1.1 15.1 1.6 22.7.1.9.1 1.9.2 2.8.1.7.4 1 1.2 1 3.7-.2 7.3.3 10.9.9 5.4 1 9.3 4.3 12.7 8.4 3.3 3.8 5.7 8.2 7.7 12.8.6 1.3 1.3 1.9 2.6 2.2 6.4 1.5 12.2 4.4 17.2 8.8 6 5.2 10.5 11.5 12.5 19.2 1 4.1 2.4 7.8 4.4 11.5.5.9 1.2 1.7 2.1 2.3 3.5 2.3 6.4 5.1 9.3 8.1 2.4 2.5 2.6 5.6 2.9 8.7.7 8.4-.7 16.7-3.3 24.6-1.7 5.1-2.7 10.2-4 15.4-2.5 10-5.5 19.9-10.6 28.9-2.5 4.4-2.3 8.5-1.1 12.9 1.3 5.1 2.9 10.2 4.3 15.3.5 1.6.4 1.8-1.4 1.8h-45.6z"/><path fill="#D7935C" stroke="#D7935C" stroke-miterlimit="10" d="M248.8 264.5l2.4-1.1 21.5-21.8s.2-1.4-11.6-4.5l-2.8-4.1-9.5 31.5z"/><path fill="#D7935C" d="M293.6 268.5l-3.2 75.3-.9 22.6 1.6 3.6s26.8-55.6 19.1-80c-7.6-24.4-.2-.7-.2-.7s-4.1-7.4-12-11.9c0 .1-4-7.5-4.4-8.9zM296.4 392.9l-5.3-22.9-1.6-3.6.7-17-23 44.5h29.2zM235.1 212.4l-7.9 22.6.3-23.8zM156.4 319.3s-11.6-18.6-11.1-44.7c0 0-5.8-23.6-8-25.5-2.3-1.8.8-16.5.5-18.4 0 0-1.9-9.6-6-15.8 0 0-1.6-2.6 1-6.5s5.4 14.7 6 15.9c.6 1.2 4.9 9.9 6.1 19.8 1.2 9.9 2.8 10.5 5.8 29.5l30 77.8"/><path opacity=".38" fill="#fff" d="M49 37.6l268.5 113.2V39.2z"/></svg>