<svg xmlns="http://www.w3.org/2000/svg" viewBox="0 0 400 400" enable-background="new 0 0 400 400"><path fill="#B9B9B9" d="M167.8 196.5c-52.9 0-96-43-96-95.7-.1-53.1 43.7-97 96.7-96.9 52.1.1 95.6 44.1 95.6 96.5 0 53.3-43 96.2-96.3 96.1zm-77.5-95.3c.1 43.3 34.5 77.7 77.7 77.6 43.1-.1 77.5-34.7 77.5-78 0-43.1-34.7-78.1-77.5-78.1-43.4-.1-77.8 34.7-77.7 78.5z"/><path fill="#AC947D" d="M217.3 185.7c2.6-.3 3.5 1.6 4.3 3.4 3.2 6.7 6.3 13.5 9.5 20.2 1.6 3.3.9 5.4-2.8 6.4-1.9.5-3.8 1.1-5.6 2-9 4.1-9 4.2-13.3-5.1-2.2-4.8-4.5-9.5-6.8-14.2-1.7-3.5-.9-5.7 2.8-7.1 4.1-1.8 8-3.8 11.9-5.6z"/><path fill="#C4C4C4" d="M138.2 49.1S194.1 6.4 227 116l-19.7 9.9c0-.1 4.4-68.1-69.1-76.8z"/><path fill="#927151" d="M237.5 282.2c15.1 34.3 30.1 68.7 45.2 103 3.4 7.7 7.7 9.5 15.8 7.3 3.3-.9 6.3-2.3 9.1-4.2l-87.8-146.1c6 13.2 11.8 26.6 17.7 40z"/><path fill="#764E24" d="M315.1 376.7c-.5-1.3-1.2-3.4-2.1-5.4-24.2-49.4-48.6-98.8-72.6-148.2-3-6.1-7-7.4-12.8-5.3-2.9 1-5.6 2.5-8.2 4.1-4.5 2.8-5.9 6.3-3.4 11.6l3.9 8.7 87.8 146.1c1.4-1 2.7-2 3.9-3.2 1.9-2.2 3.3-4.6 3.5-8.4z"/></svg>