<svg xmlns="http://www.w3.org/2000/svg" viewBox="0 0 400 400" enable-background="new 0 0 400 400"><g fill="#434344" stroke="#434344" stroke-miterlimit="10"><path stroke-width=".488" d="M357.2 104.5H44c-11.7 0-23.8 14.7-23.8 26.4v228.2c0 11.7 12.1 24.6 23.8 24.6h313.2c11.7 0 22.5-12.9 22.5-24.6V130.9c0-11.7-10.8-26.4-22.5-26.4zM59.9 357.3c-8.8 0-15.9-7.1-15.9-15.9s7.1-15.9 15.9-15.9 15.9 7.1 15.9 15.9c.1 8.8-7.1 15.9-15.9 15.9zm289.3-11.9h-13.3c-4.4 0-8-1.3-8-5.7s3.6-5.7 8-5.7h13.3c4.4 0 8 1.3 8 5.7s-3.6 5.7-8 5.7zM46.9 307.2V127.4h310.2v179.7H46.9z"/><path stroke-width="1.463" stroke-linecap="round" stroke-linejoin="round" d="M265.3 117.6L157.4 9.7M265.3 117.6l74-74"/></g><path fill="none" d="M46.9 307.2v-2.7 2.7z"/><linearGradient id="a" gradientUnits="userSpaceOnUse" x1="46.943" y1="215.974" x2="357.177" y2="215.974"><stop offset="0" stop-color="#B9A4CB"/><stop offset=".986" stop-color="#A768A8"/></linearGradient><path fill="url(#a)" d="M357.2 127.4H46.9v177.1c.6-21.7 15-170.2 310.3-177.1z"/><path fill="#A768A8" d="M46.9 304.5v2.7h310.2V127.4C61.9 134.3 47.5 282.8 46.9 304.5z"/><circle fill="#DCE0DF" cx="59.7" cy="340.8" r="15.6"/><ellipse fill="#DCE0DF" cx="343" cy="339.6" rx="17" ry="6.9"/></svg>