<svg xmlns="http://www.w3.org/2000/svg" viewBox="0 149.8 800 492.2" enable-background="new 0 149.8 800 492.2"><path fill="none" stroke="#818181" stroke-width="2" d="M68.8 172C37 173.8 11.6 199 9 230.6h-.2v321.6c0 33.8 26.4 61.6 59.8 63.6v.2H726c35.2 0 63.8-28.6 63.8-63.8V230.6h-.2c-2.6-32.8-30-58.8-63.4-58.8l-657.4.2z"/><circle fill="none" stroke="#818181" stroke-width="2" cx="37.4" cy="258.8" r="7"/><path fill="none" stroke="#818181" stroke-width="2" d="M36.2 346.8c2 0 3.8 1.6 3.8 3.8V437c0 2-1.6 3.8-3.8 3.8-2 0-3.8-1.6-3.8-3.8v-86.4c0-2 1.6-3.8 3.8-3.8z"/><path fill="none" stroke="#676767" stroke-width="2" stroke-miterlimit="10" d="M83.4 197.6h622.8v391H83.4z"/><path fill="none" stroke="#818181" stroke-width="2" d="M727.8 360.8v62c0 5.8 4.8 10.6 10.6 10.6h14.4c5.8 0 10.6-4.8 10.6-10.6v-62c0-5.8-4.8-10.6-10.6-10.6h-14.4c-5.8 0-10.6 4.8-10.6 10.6zM738.4 498.6h12.8V525h-12.8zM738.4 258.8h12.8v26.4h-12.8z"/><path fill="none" d="M94 295.4h621.6v73.2H94z"/><text transform="translate(126.67 327.971)" fill="#595A5C" font-family="'OpenSans-Semibold'" font-size="38.117">Watch a video for another life!</text><g fill="#3892CC"><path d="M513.8 459.8c-9.2-5.6-18.2-11.2-27.2-16.8L447 500.6c22.4-13.6 44.4-27.2 66.8-40.8zM486.4 443c-14.2-8.8-28.4-17.4-42.8-26.2v85.8c1-.6 2.2-1.4 3.2-2l39.6-57.6z"/></g><path fill="#3892CC" d="M356.2 445.4v-22.8h-13.4v9L325.6 414l-48 49h11.6v31.6h29.6v-26h13.4v26H362V463h11.4z"/></svg>