<svg xmlns="http://www.w3.org/2000/svg" viewBox="0 0 400 400" enable-background="new 0 0 400 400"><path fill="none" stroke="#E8E7E8" stroke-width="23" stroke-linecap="round" stroke-linejoin="round" stroke-miterlimit="10" d="M325.2 243.3"/><path fill="#4E5381" d="M149.6 237.9l-19.2-71.2c-3.2-11.9-13.6-20-25.2-20.9-2.3 1.1-95 44.2-69.5 142.6 6.5 4.1 14.6 5.7 22.6 3.5l71.2-19.2c15.2-4 24.2-19.7 20.1-34.8zM105.3 145.8c-3.2-.3-6.4 0-9.6.8l-71.2 19.2C9.4 169.9.4 185.5 4.4 200.6l19.2 71.2c1.9 7.1 6.4 12.9 12.2 16.5C10.2 190 103 146.9 105.3 145.8z"/><path fill="#E5CECD" d="M100.2 239.3c-3.3 2.2-4.4 6.1-6.5 9.2-1.7 2.4-3.3 5-4.7 7.7-1.4 2.6-2.5 2.7-4.8.5-21.2-20.1-42.5-40-63.7-60-.7-.7-1.3-1.4-2.3-1.6-.5-1.5 1-.7 1.4-1.2 10.6 1 21.3.5 32 .7 23.3.4 46.6.5 69.9.8 4.3 0 4.6.4 2.4 3.9-3.6 5.6-6.6 11.6-10.7 16.9-1.6-.3-3.2-.5-4.8-.9-24.9-5.8-49.8-11.5-74.8-17.3-1.6-.4-3.3-1.4-5.3.2 25.8 10.3 51.4 20.5 77 30.8-1.1 3.6-4.9 6.1-5.1 10.3z"/><path fill="#C5DBA4" d="M371 247.1l21.6-70.5c3.6-11.8-.9-24.1-10.2-31.1-2.5-.3-104-13.1-134.7 83.8 3.3 7 9.4 12.6 17.3 15l70.5 21.6c14.9 4.6 30.9-3.9 35.5-18.8zM382.4 145.5c-2.5-1.9-5.4-3.4-8.6-4.4l-70.5-21.6c-14.9-4.6-30.9 3.9-35.5 18.8l-21.6 70.5c-2.2 7-1.4 14.3 1.6 20.5 30.6-96.9 132.1-84.2 134.6-83.8z"/><path fill="#E65959" d="M326.3 154.3l9.9 3.3c.7 1.5 2.3 1.8 3.5 2.7 12.1 9.1 16.2 29.1 3.9 42-9.1 9.6-19.8 17.1-30.8 24.2-6.4 4.2-6.5 4.1-9.1-3-4.3-11.7-8.1-23.6-9.7-36-.4-2.9.3-5.9-.7-8.7 1-3.1 2.1-6.2 3.1-9.3 1-.1 1.2-1.1 1.6-1.7 6.4-9.1 15-13.6 26.2-13.2.7.1 1.5.5 2.1-.3zm14.3 36.2c3.5-10.2-2-21.6-12.2-25-10.1-3.4-21.4 2-24.9 12-3.6 10.2 1.8 21.6 12 25.1 10.3 3.5 21.6-2 25.1-12.1z"/><path fill="#FEF0F0" d="M318.8 193.9c-5.5-1.8-8.5-7.7-6.6-13.3 1.9-5.5 7.8-8.4 13.3-6.5 5.4 1.9 8.3 7.7 6.5 13.1-1.8 5.6-7.7 8.6-13.2 6.7z"/><path fill="#7BC2BF" d="M265.2 176L245 105c-3.4-11.8-13.9-19.7-25.5-20.5-2.3 1.1-94.4 45.7-67.3 143.7 6.6 4 14.7 5.4 22.7 3.2l70.9-20.3c15-4.3 23.7-20.1 19.4-35.1zM219.5 84.5c-3.2-.2-6.4.1-9.6 1L139 105.8c-15 4.3-23.8 20.1-19.5 35.1l20.3 70.9c2 7.1 6.6 12.8 12.5 16.3-27.2-97.9 64.8-142.5 67.2-143.6z"/><path fill="#E65959" d="M198.6 123.7c2.2-.4 4.3-.9 6.5-1.3 8.2.9 14.4 4.8 18.5 12 5.1 9 5.6 18.2.9 27.5-6.9 13.7-15.9 25.9-25.2 38-1.9-6.2-2.7-12.7-4-19 4.1-1 4-1 3.3-5-.5-2.7-2.5-6.2-1-7.9 1.4-1.7 5.2-1.4 7.9-2 3.8-.8 3.9-.8 3.1-4.6-.9-4.4-.9-4.4-5.3-3.6-2.5.5-5.7 2-7.5 1.1-2-1.2-1.5-4.9-2-7.5-.9-4.3-.9-4.3-5-3.7-.6-3.2-1.3-6.5-1.9-9.7 1.9-6.3 5.8-11.1 11.7-14.3zM186.7 137.9c.6 3.2 1.3 6.5 1.9 9.7-4.1 1-4.1 1-3.2 5.4l.3 1.8c1.2 6.2 1.2 6.2-5.1 7.4-6.7 1.3-6.6 1.3-4.8 7.8.4 1.3.8 1.6 2.1 1.3 2.6-.6 5.3-.9 7.9-1.6 2.1-.6 3.1-.2 3.3 2.1.3 2.7 1.1 5.3 1.5 7.9.2 1.4.8 1.9 2.2 1.5.8-.2 1.6-.3 2.4-.4 1.4 6.3 2.2 12.8 4.1 19-.4.4-.8.1-1.1-.1-16.3-10.5-34.5-18.6-45.6-35.7-.7-3.5-1.4-7.1-2.1-10.6.1-.2.4-.5.4-.7.2-9.8 4.2-17.3 12.9-22.1 2.2-.4 4.3-.9 6.5-1.3 6.6.7 12 3.7 16.4 8.6z"/></svg>