<svg xmlns="http://www.w3.org/2000/svg" viewBox="0 0 400 400" enable-background="new 0 0 400 400"><path fill="#EF5B34" d="M366.5 217c29.9 8.8 24.7 30.4 24.7 45h-74.5c-2.7-8.8-9.3-17-25.1-21.6l-5-1.5c-20.9-6.1-32.1-9.4-35-16-.7-2.4-.5-5 6.5-7.5 22.4-6.5 33.8-9.9 36.4-18.3h1.4c-.4-.3-.8-.7-1.1-1.1-11.1-10.7-19.5-31.5-19.5-48.3 0-23.8 18.2-39.4 35.4-39.4s34.6 16.9 34.6 40.7c0 16.8-9.4 37-21 47.3 2.3 9.6 15.3 12.8 42.2 20.7z"/><path fill="#00AFEC" d="M315.1 316.6H83.6c-.1-2.3-.3-4.6-.6-7.4-.7-9.1-1.4-18.6 1.1-27.2 3.1-10.1 11.2-19 30-24.4l7.3-2.3c33-9.4 50.6-14.7 56.4-27.2l1.9-3.1-.1-4c-.4-.3-.7-.5-1.3-1.2-2-2-4-4.1-5.8-6.5-12.8-16.3-21.9-41.4-21.9-62.1 0-26.5 19.6-54.6 48.9-54.6 22.9 0 47.5 22.7 47.5 56.5 0 21.6-11.2 48.3-26.6 64-1 1.1-2.1 2-3.1 3l-1.8 1.6.6 2.5c4 15.5 21.9 20.9 57.9 31.1l7.4 2.3c18.6 5.5 27.4 14.5 31.3 24.4h.1c3.6 9.7 3.1 20.2 2.7 30-.3 1.6-.3 3.2-.4 4.6z"/><path fill="#FAAF4C" d="M31.5 217c-29.9 8.8-24.7 30.4-24.7 45h74.5c2.7-8.8 9.3-17 25.1-21.6l5-1.5c20.9-6.1 32.1-9.4 35-16-.8-2.6.6-6.5-6.5-7.5-22.4-6.5-33.8-9.9-36.4-18.3h-1.4c.4-.3.8-.7 1.1-1.1 11.1-10.7 19.5-31.5 19.5-48.3 0-23.8-18.2-39.4-35.4-39.4S52.7 125.2 52.7 149c0 16.8 9.4 37 20.9 47.3-2.2 9.6-15.2 12.8-42.1 20.7z"/></svg>