<?xml version="1.0" encoding="utf-8"?>
<!-- Generator: Adobe Illustrator 18.1.1, SVG Export Plug-In . SVG Version: 6.00 Build 0)  -->
<!DOCTYPE svg PUBLIC "-//W3C//DTD SVG 1.1//EN" "http://www.w3.org/Graphics/SVG/1.1/DTD/svg11.dtd">
<svg version="1.1" id="Layer_1" xmlns="http://www.w3.org/2000/svg" xmlns:xlink="http://www.w3.org/1999/xlink" x="0px" y="0px"
	 viewBox="0 0 400 400" enable-background="new 0 0 400 400" xml:space="preserve">
<g>
	<path fill="none" stroke="#E8E7E8" stroke-width="23" stroke-linecap="round" stroke-linejoin="round" stroke-miterlimit="10" d="
		M325.2,243.3"/>
	<path fill="#4E5381" d="M149.6,237.9l-19.2-71.2c-3.2-11.9-13.6-20-25.2-20.9c-2.3,1.1-95,44.2-69.5,142.6
		c6.5,4.1,14.6,5.7,22.6,3.5l71.2-19.2C144.7,268.7,153.7,253,149.6,237.9z"/>
	<path fill="#4E5381" d="M105.3,145.8c-3.2-0.3-6.4,0-9.6,0.8l-71.2,19.2c-15.1,4.1-24.1,19.7-20.1,34.8l19.2,71.2
		c1.9,7.1,6.4,12.9,12.2,16.5C10.2,190,103,146.9,105.3,145.8z"/>
	<path fill="#E5CECD" d="M100.2,239.3c-3.3,2.2-4.4,6.1-6.5,9.2c-1.7,2.4-3.3,5-4.7,7.7c-1.4,2.6-2.5,2.7-4.8,0.5
		c-21.2-20.1-42.5-40-63.7-60c-0.7-0.7-1.3-1.4-2.3-1.6c-0.5-1.5,1-0.7,1.4-1.2c10.6,1,21.3,0.5,32,0.7c23.3,0.4,46.6,0.5,69.9,0.8
		c4.3,0,4.6,0.4,2.4,3.9c-3.6,5.6-6.6,11.6-10.7,16.9c-1.6-0.3-3.2-0.5-4.8-0.9c-24.9-5.8-49.8-11.5-74.8-17.3
		c-1.6-0.4-3.3-1.4-5.3,0.2c25.8,10.3,51.4,20.5,77,30.8C104.2,232.6,100.4,235.1,100.2,239.3z"/>
	<path fill="#C5DBA4" d="M371,247.1l21.6-70.5c3.6-11.8-0.9-24.1-10.2-31.1c-2.5-0.3-104-13.1-134.7,83.8c3.3,7,9.4,12.6,17.3,15
		l70.5,21.6C350.4,270.5,366.4,262,371,247.1z"/>
	<path fill="#C5DBA4" d="M382.4,145.5c-2.5-1.9-5.4-3.4-8.6-4.4l-70.5-21.6c-14.9-4.6-30.9,3.9-35.5,18.8l-21.6,70.5
		c-2.2,7-1.4,14.3,1.6,20.5C278.4,132.4,379.9,145.1,382.4,145.5z"/>
	<path fill="#E65959" d="M326.3,154.3c3.3,1.1,6.6,2.2,9.9,3.3c0.7,1.5,2.3,1.8,3.5,2.7c12.1,9.1,16.2,29.1,3.9,42
		c-9.1,9.6-19.8,17.1-30.8,24.2c-6.4,4.2-6.5,4.1-9.1-3c-4.3-11.7-8.1-23.6-9.7-36c-0.4-2.9,0.3-5.9-0.7-8.7c1-3.1,2.1-6.2,3.1-9.3
		c1-0.1,1.2-1.1,1.6-1.7c6.4-9.1,15-13.6,26.2-13.2C324.9,154.7,325.7,155.1,326.3,154.3z M340.6,190.5c3.5-10.2-2-21.6-12.2-25
		c-10.1-3.4-21.4,2-24.9,12c-3.6,10.2,1.8,21.6,12,25.1C325.8,206.1,337.1,200.6,340.6,190.5z"/>
	<path fill="#FEF0F0" d="M318.8,193.9c-5.5-1.8-8.5-7.7-6.6-13.3c1.9-5.5,7.8-8.4,13.3-6.5c5.4,1.9,8.3,7.7,6.5,13.1
		C330.2,192.8,324.3,195.8,318.8,193.9z"/>
	<path fill="#7BC2BF" d="M265.2,176L245,105c-3.4-11.8-13.9-19.7-25.5-20.5c-2.3,1.1-94.4,45.7-67.3,143.7c6.6,4,14.7,5.4,22.7,3.2
		l70.9-20.3C260.8,206.8,269.5,191,265.2,176z"/>
	<path fill="#7BC2BF" d="M219.5,84.5c-3.2-0.2-6.4,0.1-9.6,1l-70.9,20.3c-15,4.3-23.8,20.1-19.5,35.1l20.3,70.9
		c2,7.1,6.6,12.8,12.5,16.3C125.1,130.2,217.1,85.6,219.5,84.5z"/>
	<path fill="#E65959" d="M198.6,123.7c2.2-0.4,4.3-0.9,6.5-1.3c8.2,0.9,14.4,4.8,18.5,12c5.1,9,5.6,18.2,0.9,27.5
		c-6.9,13.7-15.9,25.9-25.2,38c-1.9-6.2-2.7-12.7-4-19c4.1-1,4-1,3.3-5c-0.5-2.7-2.5-6.2-1-7.9c1.4-1.7,5.2-1.4,7.9-2
		c3.8-0.8,3.9-0.8,3.1-4.6c-0.9-4.4-0.9-4.4-5.3-3.6c-2.5,0.5-5.7,2-7.5,1.1c-2-1.2-1.5-4.9-2-7.5c-0.9-4.3-0.9-4.3-5-3.7
		c-0.6-3.2-1.3-6.5-1.9-9.7C188.8,131.7,192.7,126.9,198.6,123.7z"/>
	<path fill="#E65959" d="M186.7,137.9c0.6,3.2,1.3,6.5,1.9,9.7c-4.1,1-4.1,1-3.2,5.4c0.1,0.6,0.2,1.2,0.3,1.8
		c1.2,6.2,1.2,6.2-5.1,7.4c-6.7,1.3-6.6,1.3-4.8,7.8c0.4,1.3,0.8,1.6,2.1,1.3c2.6-0.6,5.3-0.9,7.9-1.6c2.1-0.6,3.1-0.2,3.3,2.1
		c0.3,2.7,1.1,5.3,1.5,7.9c0.2,1.4,0.8,1.9,2.2,1.5c0.8-0.2,1.6-0.3,2.4-0.4c1.4,6.3,2.2,12.8,4.1,19c-0.4,0.4-0.8,0.1-1.1-0.1
		c-16.3-10.5-34.5-18.6-45.6-35.7c-0.7-3.5-1.4-7.1-2.1-10.6c0.1-0.2,0.4-0.5,0.4-0.7c0.2-9.8,4.2-17.3,12.9-22.1
		c2.2-0.4,4.3-0.9,6.5-1.3C176.9,130,182.3,133,186.7,137.9z"/>
</g>
</svg>
