<?xml version="1.0" encoding="utf-8"?>
<!-- Generator: Adobe Illustrator 18.1.1, SVG Export Plug-In . SVG Version: 6.00 Build 0)  -->
<!DOCTYPE svg PUBLIC "-//W3C//DTD SVG 1.1//EN" "http://www.w3.org/Graphics/SVG/1.1/DTD/svg11.dtd">
<svg version="1.1" id="Layer_1" xmlns="http://www.w3.org/2000/svg" xmlns:xlink="http://www.w3.org/1999/xlink" x="0px" y="0px"
	 viewBox="0 0 400 400" enable-background="new 0 0 400 400" xml:space="preserve">
<g>
	<g>
		<path fill="#EF5B34" d="M366.5,217c29.9,8.8,24.7,30.4,24.7,45h-74.5c-2.7-8.8-9.3-17-25.1-21.6l-5-1.5c-20.9-6.1-32.1-9.4-35-16
			c-0.7-2.4-0.5-5,6.5-7.5c22.4-6.5,33.8-9.9,36.4-18.3h1.4c-0.4-0.3-0.8-0.7-1.1-1.1c-11.1-10.7-19.5-31.5-19.5-48.3
			c0-23.8,18.2-39.4,35.4-39.4c17.2,0,34.6,16.9,34.6,40.7c0,16.8-9.4,37-21,47.3C326.6,205.9,339.6,209.1,366.5,217z"/>
	</g>
	<g id="XMLID_1_">
		<g>
			<path fill="#00AFEC" d="M315.1,316.6H83.6c-0.1-2.3-0.3-4.6-0.6-7.4c-0.7-9.1-1.4-18.6,1.1-27.2c3.1-10.1,11.2-19,30-24.4
				l7.3-2.3c33-9.4,50.6-14.7,56.4-27.2l1.9-3.1l-0.1-4c-0.4-0.3-0.7-0.5-1.3-1.2c-2-2-4-4.1-5.8-6.5
				c-12.8-16.3-21.9-41.4-21.9-62.1c0-26.5,19.6-54.6,48.9-54.6c22.9,0,47.5,22.7,47.5,56.5c0,21.6-11.2,48.3-26.6,64
				c-1,1.1-2.1,2-3.1,3l-1.8,1.6l0.6,2.5c4,15.5,21.9,20.9,57.9,31.1l7.4,2.3c18.6,5.5,27.4,14.5,31.3,24.4h0.1
				c3.6,9.7,3.1,20.2,2.7,30C315.2,313.6,315.2,315.2,315.1,316.6z"/>
		</g>
	</g>
	<g>
		<path fill="#FAAF4C" d="M31.5,217c-29.9,8.8-24.7,30.4-24.7,45h74.5c2.7-8.8,9.3-17,25.1-21.6l5-1.5c20.9-6.1,32.1-9.4,35-16
			c-0.8-2.6,0.6-6.5-6.5-7.5c-22.4-6.5-33.8-9.9-36.4-18.3h-1.4c0.4-0.3,0.8-0.7,1.1-1.1c11.1-10.7,19.5-31.5,19.5-48.3
			c0-23.8-18.2-39.4-35.4-39.4c-17.2,0-34.6,16.9-34.6,40.7c0,16.8,9.4,37,20.9,47.3C71.4,205.9,58.4,209.1,31.5,217z"/>
	</g>
</g>
</svg>
