<?xml version="1.0" encoding="iso-8859-1"?>
<!-- Generator: Adobe Illustrator 18.0.0, SVG Export Plug-In . SVG Version: 6.00 Build 0)  -->
<!DOCTYPE svg PUBLIC "-//W3C//DTD SVG 1.1//EN" "http://www.w3.org/Graphics/SVG/1.1/DTD/svg11.dtd">
<svg version="1.1" id="Layer_1" xmlns="http://www.w3.org/2000/svg" xmlns:xlink="http://www.w3.org/1999/xlink" x="0px" y="0px"
	 viewBox="0 0 400 400" style="enable-background:new 0 0 400 400;" xml:space="preserve">
<g>
	<polygon style="fill:#786459;" points="50.172,390.004 50.172,158.336 197.62,50.41 348.108,158.336 348.108,390.004 	"/>
	<path style="fill:#E1D5DA;" d="M142.562,141.775c0,0-12.458-15.78,0-22.424c12.458-6.644,24.085,11.212,24.085,11.212l61.457-0.741
		c0,0,11.627-15.095,25.746-11.953c14.119,3.143,3.322,23.905,3.322,23.905"/>
	<path style="fill:#FEEEE1;" d="M143.372,137.923c0,0-12.458,15.78,0,22.424c12.458,6.644,24.085-11.212,24.085-11.212l61.457,0.741
		c0,0,11.627,15.095,25.746,11.953s3.322-23.905,3.322-23.905"/>
	<polygon style="fill:#E26767;" points="5.529,153.943 199.882,20.522 389.222,158.385 348.108,158.336 197.62,50.41 
		50.172,158.336 5.529,158.385 	"/>
	<path style="fill:#A99E80;" d="M237.099,202.419c-10.751-5.707-23.296-9.136-37.959-9.381
		c-106.406-1.78-100.326,170.51-100.326,170.51S130.729,196.37,237.099,202.419z"/>
	<path style="fill:#D3BF82;" d="M237.099,202.419C130.729,196.37,98.814,363.548,98.814,363.548h202.171
		C300.985,363.548,304.365,238.13,237.099,202.419z"/>
</g>
</svg>
