<?xml version="1.0" encoding="iso-8859-1"?>
<!-- Generator: Adobe Illustrator 18.0.0, SVG Export Plug-In . SVG Version: 6.00 Build 0)  -->
<!DOCTYPE svg PUBLIC "-//W3C//DTD SVG 1.1//EN" "http://www.w3.org/Graphics/SVG/1.1/DTD/svg11.dtd">
<svg version="1.1" id="Layer_1" xmlns="http://www.w3.org/2000/svg" xmlns:xlink="http://www.w3.org/1999/xlink" x="0px" y="0px"
	 viewBox="0 0 400 400" style="enable-background:new 0 0 400 400;" xml:space="preserve">
<g>
	<path style="fill:#EACA95;" d="M337.069,244.618c0.001-0.004,0.002-0.007,0.003-0.011l0.001-0.002
		c-28.765-27.236-66.027-89.306-76.021-106.373l-105.435,49.815C155.617,188.047,283.089,247.545,337.069,244.618z"/>
	<path style="fill:none;" d="M234.088,90.633c-0.898,1.768-1.392,3.249-1.392,3.249S233.315,92.435,234.088,90.633z"/>
	<path style="fill:none;" d="M234.088,90.633c-0.898,1.768-1.392,3.249-1.392,3.249S233.315,92.435,234.088,90.633z"/>
	<path style="fill:none;" d="M236.892,84.088C237.141,83.509,237.109,83.583,236.892,84.088L236.892,84.088z"/>
	<path style="fill:#2E85C4;" d="M156.063,188.047L90.895,94.522C62.256,128.302,61.6,154.335,61.6,154.335
		c-6.707,3.194-11.759,7.197-15.622,11.299c0.525,0.515,53.467,52.354,89.329,60.168c0,0,26.018,14.204,57.1,30.587
		C158.169,238.571,156.063,188.047,156.063,188.047z"/>
	<path style="fill:#3C4681;" d="M90.895,94.522c0,0,39.037-57.422,64.723-30.209c0,0,21.2,61.629,49.455,54.426
		c0,0,24.179-23.68,31.82-34.651c0,0,11.643-0.566,14.044,18.643l10.116,35.5l-105.435,49.815L90.895,94.522z"/>
	<path style="fill:#43372B;" d="M155.617,64.313c0,0-10.967,48.24,16.917,55.116s32.539-0.69,32.539-0.69s16.354-7.714-7.71-8.478
		C173.298,109.497,155.617,64.313,155.617,64.313z"/>
	<path style="fill:#3A4D89;" d="M132.56,248.074c-32.557-16.889-66.371-37.033-98.336-60.661c0,0-4.182-7.404,11.753-21.779
		L61.6,154.335c0,0-31.269-2.416-31.269,33.711c0,0-8.492,12.669-10.605,23.83l96.425,58.335L132.56,248.074z"/>
	<path style="fill:#2E85C4;" d="M132.56,248.074l-16.41,22.138l-96.425-58.335c-0.301,1.586-0.473,3.143-0.473,4.627
		c0,11.93-13.635,73.286-3.409,84.364s18.748,11.078,18.748,11.078l273.545,5.965C308.136,317.912,225.481,296.278,132.56,248.074z"
		/>
	<path style="fill:#F0C154;" d="M116.15,270.212c0,0,27.034,44.102,47.802,44.555c20.769,0.453,44.017,1.218,44.017,1.218
		s19.136-15.703,15.684-25.466c0,0-88.257-36.121-92.783-40.167L116.15,270.212z"/>
	<path style="fill:#009BB9;" d="M207.97,315.986c0,0,17.73-13.594,15.684-25.466l68.211,21.369v1.778L207.97,315.986z"/>
	
		<ellipse style="fill:none;stroke:#414142;stroke-width:2;stroke-miterlimit:10;" cx="255.046" cy="159.493" rx="7.016" ry="6.563"/>
	
		<ellipse style="fill:none;stroke:#414142;stroke-width:2;stroke-miterlimit:10;" cx="293.871" cy="214.892" rx="7.016" ry="6.563"/>
	
		<ellipse style="fill:none;stroke:#414142;stroke-width:2;stroke-miterlimit:10;" cx="279.838" cy="197.145" rx="7.016" ry="6.563"/>
	
		<ellipse style="fill:none;stroke:#414142;stroke-width:2;stroke-miterlimit:10;" cx="268.069" cy="179.137" rx="7.016" ry="6.563"/>
	
		<ellipse style="fill:none;stroke:#414142;stroke-width:2;stroke-miterlimit:10;" cx="307.501" cy="230.255" rx="6.381" ry="5.969"/>
	<path style="fill:#EBECEE;" d="M249.917,160.926c0,0,1.925-10.744,17.014-12.806l2.918,4.81c0,0-13.419,8.953-13.53,10.726
		S250.389,163.406,249.917,160.926z"/>
	<path style="fill:#EBECEE;" d="M262.855,180.42c0,0,1.925-9.917,17.021-11.819l2.919,4.439c0,0-13.424,8.263-13.535,9.9
		C269.149,184.577,263.327,182.709,262.855,180.42z"/>
	<path style="fill:#EBECEE;" d="M275.085,197.665c0,0,1.921-9.718,16.981-11.583l2.912,4.35c0,0-13.392,8.098-13.503,9.702
		C281.364,201.74,275.555,199.909,275.085,197.665z"/>
	<path style="fill:#EBECEE;" d="M289.245,215.869c0,0,1.671-10.058,14.768-11.987l2.532,4.502c0,0-11.647,8.38-11.743,10.041
		C294.706,220.086,289.654,218.191,289.245,215.869z"/>
	<path style="fill:#EBECEE;" d="M302.979,231.202c0,0,1.563-8.951,13.817-10.668l2.369,4.007c0,0-10.897,7.458-10.987,8.936
		C308.088,234.955,303.362,233.268,302.979,231.202z"/>
	<path style="fill:#D6E2CD;" d="M306.391,320.972c0.874-0.932,1.488-1.946,1.745-3.06l-19.6-5.113c0,0-240.31,9.374-272.693-11.93
		c0,0-10.255,8.925-7.207,16.764C48.402,320.422,227.081,332.008,306.391,320.972z"/>
	<path style="fill:#E7ECE2;" d="M8.637,317.633c1.164,2.993,4.258,5.829,10.616,7.949c23.008,7.669,249.684,5.113,249.684,5.113
		s29.635-1.383,37.455-9.723C227.081,332.008,48.402,320.422,8.637,317.633z"/>
	<path style="fill:#E7ECE2;" d="M34.224,187.414c40.339,37.857,118.493,77.059,189.09,102.979
		C162.35,261.8,69.461,202.282,36.307,180.658C34.672,184.683,34.224,187.414,34.224,187.414z"/>
	<path style="fill:#D6E2CD;" d="M391.267,284.671c-4.337,15.112-26.517,23.035-26.517,23.035
		c-9.537,4.488-70.684-2.643-70.684-2.643c-17.39-2.082-158.758-79.26-158.758-79.26c-35.862-7.815-88.804-59.654-89.329-60.168
		c-4.596,4.881-7.441,9.894-9.187,13.887l232.006,126.031c40.001,11.87,73.325,17.483,89.368,13.405
		C392.205,310.304,393.416,293.614,391.267,284.671z"/>
	<path style="fill:#D6E2CD;" d="M269.849,306.124l-1.052-0.572c-14.456-4.29-29.778-9.393-45.482-15.159
		C243.369,299.799,259.978,305.869,269.849,306.124z"/>
	<path style="fill:#D6E2CD;" d="M36.307,180.658C69.461,202.282,162.35,261.8,223.315,290.393
		c15.704,5.766,31.026,10.869,45.482,15.159L36.791,179.522C36.622,179.908,36.455,180.292,36.307,180.658z"/>
	<path style="fill:#EFBA4F;" d="M155.617,188.047c0,0,2.106,50.524,36.343,68.343c5.81,3.063,11.799,6.201,17.826,9.338
		c11.915-6.077,41.571-20.137,57.466-18.228c20.192,2.425,63.332,22.638,69.816-2.881
		C283.089,247.545,155.617,188.047,155.617,188.047z"/>
	<path style="fill:#81B8CD;" d="M388.962,278.665c-1.466-4.692-4.375-8.39-7.872-11.316c-0.365,2.136-0.751,4.328-1.174,6.616
		c-5.158,27.91-88.642,22.734-111.853,20.745c12.674,5.935,22.241,9.903,26.003,10.353c0,0,61.147,7.131,70.684,2.643
		c0,0,22.181-7.923,26.517-23.035C390.392,281.029,388.962,278.665,388.962,278.665z"/>
	<path style="fill:#009BB9;" d="M379.916,273.965c0.423-2.288,0.808-4.48,1.174-6.616c-10.107-8.454-25.206-10.357-25.206-10.357
		c-5.347-1.528-11.624-6.007-18.364-12.389l-0.001,0.003c-6.474,25.537-49.624,5.317-69.82,2.892
		c-15.895-1.909-45.551,12.151-57.466,18.228c20.639,10.74,41.74,21.448,57.83,28.982
		C291.274,296.698,374.759,301.875,379.916,273.965z"/>
	<path style="fill:#EACA95;" d="M74.376,190.581"/>
</g>
</svg>
