<?xml version="1.0" encoding="iso-8859-1"?>
<!-- Generator: Adobe Illustrator 18.0.0, SVG Export Plug-In . SVG Version: 6.00 Build 0)  -->
<!DOCTYPE svg PUBLIC "-//W3C//DTD SVG 1.1//EN" "http://www.w3.org/Graphics/SVG/1.1/DTD/svg11.dtd">
<svg version="1.1" id="Layer_1" xmlns="http://www.w3.org/2000/svg" xmlns:xlink="http://www.w3.org/1999/xlink" x="0px" y="0px"
	 viewBox="0 0 400 400" style="enable-background:new 0 0 400 400;" xml:space="preserve">
<g>
	<polygon style="fill:#E76433;" points="25.316,357.383 378.396,357.383 25.316,86.603 	"/>
	<polygon style="fill:#EA8055;" points="25.316,86.603 378.396,357.383 378.396,86.603 	"/>
	<rect x="11.842" y="86.603" style="fill:#EC8863;" width="13.474" height="270.78"/>
	<rect x="378.395" y="86.603" style="fill:#BD402D;" width="9.916" height="270.78"/>
	<rect x="11.731" y="82.44" style="fill:#ECB09D;" width="376.581" height="4.163"/>
	<path style="fill:#6E6E70;" d="M298.18,82.44c0,0-1.119-5.216,5.596-5.216h38.428c0,0,3.731,0,4.664,2.608v2.608H298.18z"/>
	<g>
		<path style="fill:#595A5C;" d="M139.47,82.44V43.675c0,0,2.617-17.226,20.932-20.278h38.631v7.414h-37.977
			c0,0-11.338,0.654-14.173,14.391V82.44H139.47z"/>
		<path style="fill:#595A5C;" d="M258.597,82.44V43.675c0,0-2.617-17.226-20.932-20.278h-38.631v7.414h37.977
			c0,0,11.338,0.654,14.173,14.391V82.44H258.597z"/>
	</g>
	<path style="fill:#6E6E70;" d="M54.659,82.44c0,0-1.119-5.216,5.596-5.216h38.428c0,0,3.731,0,4.664,2.608v2.608H54.659z"/>
	<circle style="fill:#FFFFFF;" cx="199.033" cy="221.993" r="57.818"/>
	<rect x="189.331" y="185.363" style="fill:#E76433;" width="21.074" height="69.165"/>
	<rect x="165.285" y="209.409" style="fill:#E76433;" width="69.165" height="21.074"/>
</g>
</svg>
