<?xml version="1.0" encoding="iso-8859-1"?>
<!-- Generator: Adobe Illustrator 18.0.0, SVG Export Plug-In . SVG Version: 6.00 Build 0)  -->
<!DOCTYPE svg PUBLIC "-//W3C//DTD SVG 1.1//EN" "http://www.w3.org/Graphics/SVG/1.1/DTD/svg11.dtd">
<svg version="1.1" id="Layer_1" xmlns="http://www.w3.org/2000/svg" xmlns:xlink="http://www.w3.org/1999/xlink" x="0px" y="0px"
	 viewBox="0 0 400 400" style="enable-background:new 0 0 400 400;" xml:space="preserve">
<path style="fill:#649FBC;" d="M399.428,278.928c1.33-0.777,2.659-1.554,3.989-2.334c0.583,1.421,1.165,2.844,1.748,4.268
	l-1.522-0.067C402.238,280.173,400.833,279.55,399.428,278.928z"/>
<path style="fill:#EDEFEF;" d="M101.101,280.517c1.28,0.111,2.56,0.222,3.84,0.333c0.044,1.132,0.119,2.262,0.226,3.39l-0.574,0.565
	c-1.363-0.136-2.725-0.271-4.092-0.408C100.699,283.103,100.9,281.81,101.101,280.517z"/>
<path style="fill:#EA8055;" d="M193.912,336.493c-45.181,0-90.361,0.002-135.542-0.002c-6.509,0-6.718-0.13-6.249-6.772
	c0.582-8.236,1.392-16.45,3.353-24.509c4.878-20.047,16.091-34.752,35.133-43.583c15.436-7.159,31.46-12.584,47.535-17.956
	c5.135-1.716,10.243-3.485,15.187-5.723c7.048-3.191,9.153-9.279,9.817-16.28c0.177-1.867-0.852-3.238-1.815-4.662
	c-14.624-21.631-22.036-45.746-24.844-71.505c-1.136-10.42-1.059-20.753,0.971-31.037c4.059-20.567,16.003-33.616,36.785-37.838
	c13.281-2.698,26.662-2.65,39.832,0.648c19.76,4.948,30.561,18.309,34.145,37.888c4.059,22.18,0.124,43.666-6.306,64.829
	c-3.785,12.456-9.097,24.256-16.395,35.121c-3.828,5.7,0.129,18.19,6.862,21.992c4.985,2.815,10.385,4.67,15.791,6.487
	c16.742,5.626,33.362,11.443,49.415,19c22.268,10.482,32.753,28.59,36.147,51.879c0.758,5.204,1.228,10.461,1.579,15.71
	c0.411,6.162,0.18,6.308-5.859,6.309C284.273,336.496,239.093,336.493,193.912,336.493z"/>
<path style="fill:#009BB9;" d="M352.144,263.493c-10.556,2.435-21.644-1.737-32.741-9.602
	c-14.599-10.348-31.983-15.417-48.845-21.181c-6.871-2.349-13.766-4.648-20.535-7.267c-5.018-1.942-5.726-4.674-3.012-9.359
	c17.085-29.491,25.281-61.251,23.233-95.303c-1.055-17.554-6.859-33.464-20.644-45.449c-2.516-2.188-1.974-3.435,0.812-4.359
	c15.444-5.125,30.858-5.559,45.704,1.702c10.922,5.342,16.017,15.248,17.42,26.829c3.132,25.858-3.222,49.724-16.363,71.933
	c-3.591,6.069-1.568,14.528,4.671,17.916c4.148,2.252,8.6,3.775,13.061,5.265c12.158,4.061,24.259,8.191,35.84,13.835
	c14.312,6.975,22.636,18.189,25.68,33.598c1.076,5.449,1.809,10.94,2.179,16.491c0.241,3.603-0.944,5.182-4.817,5.022
	C367.528,263.304,361.25,263.493,352.144,263.493z"/>
<path style="fill:#2C81BA;" d="M29.656,265.495c-6.126-0.002-12.255-0.122-18.376,0.046c-3.248,0.089-4.733-0.959-4.538-4.383
	c0.577-10.153,1.939-20.139,6.178-29.496c3.622-7.994,9.139-14.265,16.823-18.762c13.409-7.848,28.16-12.246,42.714-17.184
	c3.507-1.19,7.02-2.338,10.324-4.055c7.101-3.689,8.832-10.611,4.551-17.332c-10.309-16.183-15.581-34.027-17.437-53.036
	c-0.726-7.44-0.571-14.779,0.894-22.075c3.271-16.299,12.495-25.44,28.822-28.617c10.955-2.132,21.811-1.757,32.445,1.806
	c4.595,1.539,4.752,2.252,1.308,5.343c-13.093,11.749-18.878,27.021-20.008,43.978c-2.361,35.424,6.242,68.297,24.608,98.641
	c2.325,3.841,2.117,4.816-2.248,6.686c-9.569,4.099-19.638,6.788-29.447,10.213c-16.305,5.694-32.698,11.507-46.523,22.042
	c-6.663,5.077-13.192,7.001-21.117,6.232C35.662,265.257,32.647,265.497,29.656,265.495z"/>
</svg>
