<?xml version="1.0" encoding="utf-8"?>
<!-- Generator: Adobe Illustrator 18.1.1, SVG Export Plug-In . SVG Version: 6.00 Build 0)  -->
<svg version="1.1" id="Layer_1" xmlns="http://www.w3.org/2000/svg" xmlns:xlink="http://www.w3.org/1999/xlink" x="0px" y="0px"
	 viewBox="0 0 400 400" enable-background="new 0 0 400 400" xml:space="preserve">
<g>
	<polygon fill="#B29A80" points="210.6,150.4 242.8,116.6 275.5,92.3 280,78.5 305.9,69.3 307.7,61.4 320.1,57.3 334.2,61.5 
		333.8,79.6 287.8,123.2 261.6,146.1 214.6,177.5 	"/>
	<polygon fill="#AE9770" points="36.9,69.4 76.6,47.8 84.5,42.8 87.3,50.7 56.7,70.9 36.9,70.9 	"/>
	<path fill="#CAB094" d="M63.4,129.5l-1.1-47.1l-5.6-11.6c0,0,45.9-23.7,50-27.1c0,0,46.4,27.5,53.9,27.5l-5.3,7l-4.1,6.8v44.4H63.4
		z"/>
	<polygon fill="#CCB485" points="24.7,199.1 26.4,135.5 192.9,137.4 195.6,197.1 93.3,203.9 	"/>
	<path fill="#A38C79" d="M233.9,374.9c0,0,17-59.9,0.7-70.8c0,0-85-49.2-91-55.3s-36.5-34-55.3-37.2l-49.6-10.3v20.2l51.4,13.1
		c0,0,38.6,30.8,44.3,33.6l21.3,13.5c0,0,75.1,45.3,75.8,49.6c0,0,5.3-1.4,7.1,15.2L233.9,374.9z"/>
	<path fill="#B8926D" d="M158.1,214.2h-47.8c0,0-6.8-3.8-23.2-7.2s-34.4-7.7-34.4-7.7h104.9h1.2V214L158.1,214.2z"/>
	<path fill="#4D3A44" d="M253.7,375.6l3.9-27.7c0,0-0.5-19.7-5.3-25c0,0-5.5,51.1-7.7,53.2h9L253.7,375.6z"/>
	<path fill="#D7B27B" d="M38.8,221.6v80.2c0,0,68.8-4.4,109.6,32.3s41.5,42.7,41.5,42.7l45-0.5l3.6-29.7l1.3-8.5
		c0,0-5.9-13.3-73-52.7c0,0-58.6-34.4-73-50L38.8,221.6z"/>
	<path fill="#F1EBAF" d="M122.4,316.6c0,0,3.1-34.7,8-36.7c0,0,8.8-3.7,10,8.8c1.2,12.4-0.4,38.8-0.4,38.8L122.4,316.6z"/>
	<path fill="#472C1B" d="M124.8,318c0,0,2.2-31.6,8-34.3c0,0,2.2,0,3.9,4.9c1.6,4.9-0.6,36.1-0.6,36.1L124.8,318z"/>
	<polygon fill="#C38155" points="38.5,208.4 25.4,208.6 25.4,278.9 39.2,278.9 39.2,208.3 	"/>
	<polygon fill="#C6A274" points="25.4,208.6 1,197.9 1,254.4 25.4,278.9 	"/>
	<polygon fill="#6C4E54" points="1,197.9 1.5,193.3 24.3,204.2 38.8,204.1 38.5,208.4 25.4,208.6 	"/>
	<polygon fill="#E7D19A" points="1.2,190.2 23.9,200.9 38.8,201.4 38.8,204.1 24.3,204.2 1.5,193.3 	"/>
	<path fill="#B29A80" d="M385.5,375.2c0,0,1.6-80.9-35.7-94.6c0,0-97-37.7-115.8-56.9c0,0-35.3-40.8-75.8-42.4v33
		c0,0,40.1,9,52.2,23.2l29.1,30.9l11.1,4.3l47.9,31.7l6.9,0.7l47.3,18.9c0,0,20,15.3,23.7,51.3L385.5,375.2z"/>
	<path fill="#816D5F" d="M109.5,214l48.7,0.2c0,0,42.4,8.7,54.5,25.4c12.1,16.7,62.9,49.4,66,52c3.1,2.6,68.3,28.5,74.2,32.5
		c0,0,20.9,14.6,25.2,50.6l0.1,1.6l-125-0.3c0,0,5.2-47.3-0.8-53c0,0,3.6-17.7-22.9-30.6L138.8,240L109.5,214z"/>
	<path fill="#675844" d="M142.2,239.4l38.3-2.1l-0.3,26.5C180.2,263.7,146.2,243,142.2,239.4z"/>
	<polygon fill="#8E8162" points="220.7,265.5 180.6,237.3 180.2,263.7 220,287.2 	"/>
	<polygon fill="#675844" points="220,287.2 220.7,265.5 224.6,262.9 229.1,264.4 229.4,292.3 	"/>
	<path fill="#D9D1B1" d="M136.6,234.8l44.6-2.1c0,0,34.7,19.4,47.9,31.7l-4.4-1.5l-3.9,2.6l-40.8-27l-37.7,0.8l-6.6-4.8L136.6,234.8
		z"/>
	<path fill="#ECE6BB" d="M234.9,376.3h10.3c0,0,13.6-63.4,3.6-71.9c0,0-1.5-2-7.7-5.2c0,0-103.2-57.7-112.2-71c0,0-18-15.2-27-18
		l-57.5-12.5l-5.6,3.7c0,0,45.3,9.3,53,13.2s11.5,2.5,50.6,36.6c0,0,55.7,34.4,65,39.5c9.2,5.1,41.4,13.1,32.5,50.3L234.9,376.3z"/>
	<path fill="#DFD2AB" d="M70.8,198.3l-1.3-35.7c0,0,2.9-24.3,25.4-22.9c0,0,20,1.6,20.9,22.7v36.9h-45V198.3z"/>
	<path fill="#DFD2AB" d="M139,181.8v-21.6c0,0,3.8-14.4,16.5-13.4c0,0,13.4,0.9,14.4,13.6v17.4l-4.5-0.3l-7.1,3.7v1.9l-19.4-0.2
		L139,181.8z"/>
	<path fill="#141318" d="M144.8,182.7l0.8-22.8c0,0,2.7-6.8,9.1-6.5c6.5,0.4,8.5,5.7,8.5,5.7v19.3l-5,2.7v1.9L144.8,182.7z"/>
	<path fill="#0A0A0B" d="M80.6,198.6l1.1-36c0,0,2.8-11.2,13.1-9.7s10.2,10,10.2,10v36H80.3L80.6,198.6z"/>
	<polygon fill="#A98A6D" points="26.4,135.5 4.1,131.1 2.4,188.4 23.9,199 24.7,199.1 	"/>
	<path fill="#544023" d="M20.7,197.8l1.6-43.6c0,0-2.2-7.6-3.4,4.2L18.3,197L20.7,197.8z"/>
	<path fill="#544023" d="M9.8,192.2l1.6-41.9c0,0-2.2-7.3-3.4,4l-0.7,37.1L9.8,192.2z"/>
	<path fill="#544023" d="M15.2,195.2l1.6-43.6c0,0-2.2-7.6-3.4,4.2l-0.7,38.6L15.2,195.2z"/>
	<polygon fill="#F3F0DA" points="0.2,189.6 23.9,200.9 38.8,201.4 40.5,200.1 39.2,198.9 23.9,199 3.1,188.8 -0.4,188.9 	"/>
	<polygon fill="#DDD1AA" points="117.7,98.9 117.7,92.3 122.6,92.3 122.6,99.9 124.4,99.9 124.4,92.3 134.6,92.3 134.6,100.1 
		136.1,100.1 136.1,92.3 143.3,92.3 143.3,99.4 145.6,99.4 145.6,92.3 152.1,92.3 152.1,100.1 117.7,100.1 	"/>
	<polygon fill="#978069" points="152.1,114.1 152.1,94.2 156.7,94.2 156.7,98 157.8,98 157.8,94.2 160.6,94.2 160.6,95.4 
		158.9,95.4 158.9,114.1 	"/>
	<polygon fill="#B6A288" points="4.1,124.5 4.1,96.2 8.5,91.2 12.7,91.8 10.5,96.7 11.3,96.8 13.9,91.7 20,91.8 17.5,98 18.3,98 
		21.2,91.8 26.4,91.7 26.4,129.5 25.8,129.5 	"/>
	<rect x="103.7" y="65.3" fill="#271311" width="2.1" height="6.1"/>
	<rect x="108" y="65.3" fill="#271311" width="2.1" height="6.1"/>
	<path fill="#66575D" d="M36.9,69.4l19.9,1.4l5.6,11.6l1.4,48.3l-23,0.3c0,0,5.3-44.1,3.3-50c-2.1-5.8-7-8.9-7-8.9V69.4z"/>
	<polygon fill="#453134" points="4.1,131.1 4.1,124.5 25.8,129.5 192.8,129.5 192.8,137.4 26.4,135.5 	"/>
	<path fill="#DDD1AA" d="M25.8,129.5l0.6-36.9c0,0,12.5-0.7,12.4,0c-0.1,0.7,0,6.7,0,6.7h1.7v-7.1h10.4v6.8h1.8v-6.8h10.1v22.3h8.2
		V93.9H86v5.7h1.5v-6h7.7V98h1.2v-4.6h6.2V98h2.3v-4.3h4.4v19.9h6.3h1.9V95.4h5v4.5h1.7v-6h10v6.2h1.7v-6.5h7.2v5.7h2.3v-7.1h6.4
		v21.8h6.8V95.4h4.3h5.3v5.2h1.3v-5.5h8.2v5h2v-5.2h4.5l6.7,0.7l1.6,33.9H160v-5H154v5h-38.2v-6.2h-5.6v6.2H68.6v-6.2h-5.2v6.2H25.8
		z"/>
	<polygon fill="#9C807A" points="87.3,110.9 87.3,106.6 89.8,104.8 92.6,106.3 92.6,110.9 	"/>
	<polygon fill="#B7A08E" points="131.9,110.9 131.9,106.8 134.4,104.8 137.4,106.8 137.4,111.8 131.9,111.8 	"/>
	<rect x="131.9" y="119.5" fill="#271311" width="6" height="5.9"/>
	<polygon fill="#271311" points="87.3,125.4 87.3,119 92.7,119 92.6,125.4 	"/>
	<rect x="153.3" y="124.5" fill="#271311" width="6.7" height="5"/>
	<path fill="#816B5E" d="M63.7,49.7l21.9-12.1c0,0,6.5,0.2,9.5,0c3-0.2-13,8.4-13,8.4l1.5,3.7l-5.2,3.2l-1.7-5l-12.1,6.6L63.7,49.7z
		"/>
	<path fill="#918067" d="M55.9,65.3c0,0-2.1-3.8,1.6-5.1c3.7-1.3,4.6,1.6,4.6,1.6l21.5-12.1L82,46c0,0,22.5-13.1,24.5-15.3
		c0,0-0.1-1.8,1.5-2.4s2.1,1.3,2.1,1.3l0.4,3.2c0,0,20.6,15.2,22.8,15.2v3c0,0,2.7,0.8,3.7,0.4c0,0,0.1,1.9,0.8,2.3
		c0.7,0.4,17.8,10.7,21.9,7.5c0,0,3.7,4.6-0.8,6.8l-52.3-27.5l-46,25L56,66L55.9,65.3z"/>
	<path fill="#DDD1AA" d="M56.7,70.9c0,0,39-17.3,50-27.1c0,0,42,28.5,53.9,27.5c0,0-0.9-3.6-4.3-4.9c-3.4-1.3-41.6-21.6-47.1-25.5
		l-2.3-2c0,0-46.2,29.4-54.5,26.4C52.4,65.3,52.7,69.3,56.7,70.9z"/>
	<path fill="#918067" d="M37.4,69.1c0,0-3.1-5.4,0-8.9c0,0,5-0.1,6.7,1.1c0,0,13.3-5.8,14.5-7.7c0,0,0.8-1.8,0-2.8
		c-0.8-1-2.9-1.1-2.9-1.1S68.6,47.3,85,34.3c0,0,0.7-4,2.3-4.3c1.6-0.3,1.6,4.2,1.6,4.2l14.6-1.2l-7.7,4.8l-10.2-0.2L63.7,49.7
		l0.9,4.7L37.4,69.1z"/>
	<polygon fill="#91807A" points="333.5,146.2 330.6,61.4 308.7,61.4 308.7,26.7 333.5,26.7 333.5,40 342.1,40 342.1,26.7 
		365.2,26.7 365.2,41.7 370.4,41.7 370.4,26.7 383.7,26.7 383.7,60.1 383.7,146.2 	"/>
	<path fill="#534E56" d="M192.8,146.7c0,0,29-14.1,30.1-15.8c1.1-1.7,16.3-16.9,16.3-16.9s9.5-15,17.2-16.1
		c7.7-1.1,19.5-14.6,19.5-14.6s0.4-12.9,4.7-12.7s28.1-9.2,28.1-9.2v8.2c0,0-25.1,11.2-28.1,10.3l-0.6,3.2l-1.9,3.4
		c0,0,1.1,8.9-4.1,9.3c0,0-16.3,10.9-21,15.1c0,0-8.4,6.6-10.1,9.6c0,0-23.6,27.3-29.9,28.4c0,0-11.2,7.5-19.1,9.7L192.8,146.7z"/>
	<path fill="#EBE6D4" d="M192.8,148c0,0,30.4-13.8,30.9-16.3l19-20.6c0,0,8.2-10.7,21.8-15.9c0,0,11.4-9.3,12-10.7
		c0.5-1.4,0-11.3,3-13.5c0,0,12.2-1.5,29.3-9.5v-2.7l-34.2,11.8c0,0-3.7,5.8-3.2,12.2c0,0-14.1,13.8-19.7,13.6s-31.8,30.4-31.8,30.4
		l-27,16.1V148z"/>
	<path fill="#D9DCAC" d="M386.3,375.9l13.7,0.2c0,0-8.5-79.3-24.3-89.4c-15.8-10.1-75.7-28.3-96.7-42.9s-33.7-16.8-56.4-42.7
		c0,0-18.4-18.9-57.3-23.6l-7.1,3.7c0,0,32.3,2.9,58.8,27.4s32.3,26.7,32.3,26.7l53.3,28.1c0,0,60.4,21.5,68.2,41.3
		C378.5,324.4,386.3,375.9,386.3,375.9z"/>
	<polygon fill="#A38C79" points="194,161.3 215.4,153.5 215.4,195.1 195.6,184.9 195,184.9 	"/>
	<polygon fill="#A38C79" points="218.5,151.8 229.1,147.1 229.1,184.3 222.2,191.2 220.2,193.1 218.8,194.6 	"/>
	<polygon fill="#A38C79" points="232.7,145.1 242.8,140.3 242.8,170.8 232.6,181 	"/>
	<polygon fill="#A38C79" points="247.3,138.4 255.8,133.4 255.8,156.1 247.2,164.8 	"/>
	<polygon fill="#A38C79" points="260.4,130.8 269,123.6 269.8,135.5 273.5,133.4 273.5,121.7 280,115.6 280,128.6 283.3,126.3 
		283.3,113.3 290.5,107.3 290.5,118.1 292.6,116.5 292.6,103.3 297,98 297,112.7 300.2,109.5 300.2,96.4 304.8,91.2 304.8,106 
		305.9,104.3 305.9,91.2 310.2,85.7 310.2,98 311.6,97 311.6,84.5 315.8,81.1 315.8,92.8 318.7,90.7 318.7,80.3 321.7,77.4 
		321.7,88.2 324.8,85.9 324.8,75.9 330.9,72.1 331.4,86.5 270.9,150.1 219.5,198.3 195.6,179 260.4,142.8 	"/>
	<path fill="#D7B27B" d="M331.4,86.5c0,0-7.7,7.4-17.2,14.7c-9.6,7.3-39.1,44.9-50.2,47.3c-11.1,2.4-47.5,54.9-51.2,45.1l31.8,32.2
		c0,0,40.2-19.8,46.7-28.1c6.5-8.3,14.8-28.9,26-32.8c11.2-3.9,16.8-13.1,16.8-13.9S331.4,86.5,331.4,86.5z"/>
	<polygon fill="#ECDECE" points="214.6,153.8 210.6,150.4 193.6,156.1 194,161.9 	"/>
	<polygon fill="#A38C79" points="218.5,151.8 213.7,151 225,145.4 229.1,147.1 	"/>
	<polygon fill="#ECDECE" points="232.7,145.1 229.1,143.3 237.7,138.6 242.8,140.3 	"/>
	<polygon fill="#ECDECE" points="247.3,138.4 242.8,137.4 250.7,132.1 255.8,133.4 	"/>
	<polygon fill="#ECDECE" points="260.4,130.8 255.8,130.1 264.5,123.2 269,123.6 	"/>
	<polygon fill="#ECDECE" points="272.8,121.8 269,121.8 276.4,114.4 280,115.6 273.5,121.7 	"/>
	<polygon fill="#ECDECE" points="283.3,113.3 279,113.3 285,106.7 290.5,107.3 	"/>
	<polygon fill="#ECDECE" points="292.6,103.3 287.8,103.3 293.1,97.2 297,98 	"/>
	<polygon fill="#ECDECE" points="300.2,96.4 295.1,96.4 300.2,91.2 304.8,91.2 	"/>
	<polygon fill="#ECDECE" points="311.6,84.5 307.7,83.5 312.6,79.7 315.8,81.1 	"/>
	<polygon fill="#ECDECE" points="318.7,80.3 315,79 319.7,75.3 321.7,77.4 	"/>
	<polygon fill="#ECDECE" points="324.8,75.9 321.7,75.9 323.3,72.7 323.3,61.4 330.6,61.4 330.9,72.1 	"/>
	<polygon fill="#878079" points="229.1,143.3 232.7,145.1 232.6,158.4 229.1,155.6 	"/>
	<polygon fill="#878079" points="242.8,137.4 247.3,138.4 247.2,150.2 242.8,148 	"/>
	<polygon fill="#878079" points="255.8,130.1 260.4,130.8 260.4,142.8 255.8,141.4 	"/>
	<polygon fill="#878079" points="269,121.8 273.5,121.7 273.5,133.4 269.6,132.1 	"/>
	<polygon fill="#878079" points="279,113.3 283.3,113.3 283.3,125.4 280,123.2 	"/>
	<polygon fill="#878079" points="287.8,103.3 292.6,103.3 292.6,115.1 290.5,114.4 290.5,107.3 288.5,107.1 287.8,107 	"/>
	<polygon fill="#878079" points="295.1,96.4 300.2,96.4 300.7,109.2 297,108.1 297,98 295.1,97.6 	"/>
	<polygon fill="#878079" points="318.7,90.7 318.7,80.3 315,79 315,80.7 315.8,81.1 315.8,89 	"/>
	<polygon fill="#878079" points="321.7,75.9 324.8,75.9 324.8,85.9 321.7,85.5 	"/>
	<polygon fill="#878079" points="218.6,166.2 215.4,163.8 215.4,153.5 214.6,153.8 213.7,153 213.7,151 218.5,151.8 	"/>
	<path fill="#E7E3BD" d="M280,83.1l27.8,0.6h2.7l-5.2,10.9l-28-0.7C277.4,93.9,277,86.4,280,83.1z"/>
	<polygon fill="#211311" points="215.4,168 215.4,163.8 218.6,166.2 	"/>
	<polygon fill="#211311" points="229.1,155.6 232.6,158.4 229.1,160.3 	"/>
	<polygon fill="#564637" points="242.8,148 247.2,150.2 242.8,152.7 	"/>
	<polygon fill="#A38C79" points="255.8,141.4 260.4,142.8 255.8,145.4 	"/>
	<polygon fill="#564637" points="269.6,132.1 273.5,133.4 269.8,135.5 	"/>
	<polygon fill="#4B443F" points="280,123.2 283.3,125.4 283.7,125.4 283.3,126.3 280,128.6 	"/>
	<polygon fill="#4B443F" points="290.5,114.4 293.3,115.1 293.3,115.5 290.5,118.1 	"/>
	<polygon fill="#4B443F" points="297,108.1 300.7,109.2 297,112.7 	"/>
	<polygon fill="#4B443F" points="304.8,102 305.9,104.3 304.8,106 	"/>
	<polygon fill="#4B443F" points="310.2,94.4 312.3,94.4 312.3,96.4 310.2,98 	"/>
	<polygon fill="#4B443F" points="315.8,89 318.7,90.7 315.8,92.8 	"/>
	<polygon fill="#4B443F" points="321.7,85.5 324.8,85.9 321.7,88.2 	"/>
	<polygon fill="#ECDECE" points="305.9,90.5 302.5,89.8 306.6,84.7 310.2,85.7 306.5,90.5 	"/>
	<polygon fill="#878079" points="306.5,90.5 302.5,89.8 302.5,91.2 304.8,91.2 304.8,102 305.9,104.3 	"/>
	<polygon fill="#878079" points="311.6,84.5 311.6,94.4 310.2,94.4 310.2,85.7 307.7,85 307.7,83.5 	"/>
	<polygon fill="#D8BD8A" points="330.6,61.4 383.7,61.4 383.7,146.2 333.5,146.2 	"/>
	<polygon fill="#685F71" points="383.7,26.7 383.7,61.4 395.5,64.9 395.5,32.9 	"/>
	<polygon fill="#756969" points="383.7,146.2 395.5,140.3 395.5,64.9 383.7,61.4 	"/>
	<polygon fill="#574941" points="308.7,58.7 383.7,57.3 395.5,61.4 395.5,64.9 383.7,61.4 308.7,61.4 	"/>
	<rect x="318.4" y="32.5" fill="#574941" width="4.9" height="5.1"/>
	<rect x="318.4" y="44" fill="#574941" width="4.9" height="5.1"/>
	<rect x="349.7" y="32.5" fill="#574941" width="4.9" height="5.1"/>
	<rect x="349.7" y="44" fill="#574941" width="4.9" height="5.1"/>
	<rect x="374.6" y="32.5" fill="#574941" width="3.2" height="5.1"/>
	<rect x="374.6" y="44" fill="#574941" width="3.2" height="5.1"/>
	<rect x="335.3" y="53.6" fill="#381C25" width="4.9" height="5.1"/>
	<rect x="365" y="53.1" fill="#381C25" width="4.9" height="5.1"/>
</g>
</svg>
