<?xml version="1.0" encoding="utf-8"?>
<!-- Generator: Adobe Illustrator 18.1.1, SVG Export Plug-In . SVG Version: 6.00 Build 0)  -->
<!DOCTYPE svg PUBLIC "-//W3C//DTD SVG 1.1//EN" "http://www.w3.org/Graphics/SVG/1.1/DTD/svg11.dtd">
<svg version="1.1" id="Layer_1" xmlns="http://www.w3.org/2000/svg" xmlns:xlink="http://www.w3.org/1999/xlink" x="0px" y="0px"
	 viewBox="0 0 800 800" enable-background="new 0 0 800 800" xml:space="preserve">
<g>
	<path fill="none" stroke="#E8E7E8" stroke-width="23" stroke-linecap="round" stroke-linejoin="round" stroke-miterlimit="10" d="
		M551.7,250.3"/>
	<path fill="none" stroke="#E8E7E8" stroke-width="11" stroke-linecap="round" stroke-linejoin="round" stroke-miterlimit="10" d="
		M660.6,717.2"/>
	<ellipse fill="#B9B9B9" cx="391.4" cy="767.5" rx="266.2" ry="20"/>
	<g>
		<path fill="#4E5381" d="M283.1,242.1l-29.3-108.9c-4.9-18.2-20.8-30.5-38.5-32c-3.6,1.6-145.4,67.6-106.4,218.1
			c9.9,6.3,22.4,8.7,34.6,5.4l108.9-29.3C275.6,289.2,289.4,265.2,283.1,242.1z"/>
		<path fill="#737092" d="M215.3,101.2c-4.8-0.4-9.8,0-14.7,1.3L91.6,131.8C68.5,138,54.7,162,60.9,185L90.2,294
			c2.9,10.9,9.8,19.7,18.7,25.3C69.9,168.8,211.7,102.8,215.3,101.2z"/>
		<path fill="#E5CECD" d="M207.5,244.2c-5.1,3.4-6.7,9.3-10,14c-2.6,3.7-5,7.7-7.2,11.7c-2.2,4-3.8,4.1-7.3,0.8
			c-32.4-30.7-65-61.2-97.5-91.8c-1.1-1-1.9-2.2-3.5-2.4c-0.8-2.4,1.5-1.1,2.1-1.8c16.3,1.6,32.6,0.8,48.9,1
			c35.6,0.6,71.3,0.8,106.9,1.2c6.6,0.1,7,0.6,3.7,5.9c-5.4,8.6-10.1,17.7-16.3,25.8c-2.4-0.4-4.9-0.8-7.3-1.3
			c-38.1-8.8-76.2-17.6-114.3-26.4c-2.5-0.6-5.1-2.1-8.1,0.3c39.5,15.8,78.6,31.4,117.8,47.1C213.6,234,207.8,237.7,207.5,244.2z"/>
		<path fill="#63A1A4" d="M215.3,228.2c-39.2-15.6-78.3-31.3-117.8-47.1c3-2.4,5.6-0.9,8.1-0.3c38.1,8.8,76.2,17.6,114.3,26.4
			c2.4,0.6,4.9,0.9,7.3,1.3c3.3,13.5,6.6,27,9.8,40.5c0.2,0.7,1.2,2-0.5,2.4C230.3,242.9,223.7,234.7,215.3,228.2z"/>
		<path fill="#807B7B" d="M215.3,228.2c8.4,6.5,15,14.7,21.3,23.2c-9.7-2.4-19.4-4.8-29.1-7.2C207.8,237.7,213.6,234,215.3,228.2z"
			/>
	</g>
	<g>
		<path fill="#FDD2A4" d="M478.3,379.8l-3.1-112.8c-0.5-18.8-13.1-34.5-30-40.1c-3.8,0.8-157.1,31.8-154.4,187.3
			c8.2,8.5,19.7,13.7,32.4,13.3l112.8-3.1C459.9,423.8,478.9,403.7,478.3,379.8z"/>
		<path fill="#FEE1C8" d="M445.2,227c-4.6-1.5-9.5-2.3-14.6-2.2l-112.8,3.1c-23.9,0.6-42.9,20.7-42.3,44.6l3.1,112.8
			c0.3,11.3,5,21.4,12.3,29C288,258.8,441.3,227.7,445.2,227z"/>
		<g>
			<g>
				<path fill="#6A68AC" d="M342,289.5c25.2,0,50.4,0,75.6,0c0,26.8,0,53.6,0,80.5c-25.2,0-50.4,0-75.6,0
					C341.9,343.1,342,316.3,342,289.5z M366.4,330.6c0,6.4,0,12.9,0,20.2c10-7.1,19.1-13.5,28.3-20c3-2-0.2-2.4-1-2.9
					c-7.4-5.3-14.8-10.4-22.3-15.5c-1.5-1-2.8-2.7-5-2.8C366.4,316.6,366.4,323.6,366.4,330.6z"/>
				<path fill="#5857A2" d="M342,289.5c0,26.8,0,53.6,0,80.5c-3,0-6-0.1-9,0.2c-3.1,0.2-5.3-0.9-6.9-3.4c0-24.7,0.1-49.3-0.1-74
					c0-3,0.8-3.5,3.5-3.3C333.6,289.7,337.8,289.5,342,289.5z"/>
				<path fill="#5856A2" d="M417.6,369.9c0-26.8,0-53.6,0-80.5c4.2,0,8.4,0,12.6,0c1.8,1.4,3.4,2.8,3.4,5.4c0,23.2,0,46.4,0,69.6
					c0,3.8-2.1,5.6-5.8,5.6C424.3,370,420.9,370,417.6,369.9z"/>
				<path fill="#FBFAFD" d="M417.6,369.9c3.4,0,6.7,0.1,10.1,0.1c3.7,0,5.8-1.8,5.8-5.6c0-23.2,0-46.4,0-69.6c0-2.6-1.6-4-3.4-5.4
					c3.5-0.7,4.3,0.6,4.3,4.2c-0.2,24.7-0.2,49.4,0,74.2c0,2.7-0.7,3.2-3.2,3.2c-33.7-0.1-67.3-0.1-101,0c-3.6,0-4.9-0.8-4.2-4.3
					c1.6,2.5,3.8,3.6,6.9,3.4c3-0.2,6-0.1,9-0.2C367.1,369.9,392.4,369.9,417.6,369.9z"/>
				<path fill="#FCFBFD" d="M366.4,330.6c0-7,0-13.9,0-21c2.2,0.1,3.5,1.7,5,2.8c7.5,5.1,14.9,10.3,22.3,15.5c0.7,0.5,4,0.9,1,2.9
					C385.3,330.7,375.9,330.6,366.4,330.6z"/>
				<path fill="#C7C7C8" d="M366.4,330.6c9.4,0.1,18.9,0.1,28.3,0.2c-9.2,6.5-18.3,13-28.3,20C366.4,343.5,366.4,337,366.4,330.6z"
					/>
			</g>
		</g>
	</g>
	<g>
		<path fill="#C5DBA4" d="M621.7,256.1l33.1-107.9c5.5-18-1.4-36.9-15.6-47.6c-3.9-0.5-159.1-20.1-206.1,128.2
			c5.1,10.6,14.3,19.3,26.4,23l107.9,33.1C590.3,291.9,614.7,278.9,621.7,256.1z"/>
		<path fill="#DBE6C9" d="M639.2,100.6c-3.9-2.9-8.3-5.2-13.2-6.7L518.2,60.8c-22.9-7-47.3,5.9-54.3,28.8l-33.1,107.9
			c-3.3,10.8-2.1,21.9,2.4,31.4C480.1,80.6,635.3,100.1,639.2,100.6z"/>
		<path fill="#E65959" d="M553.3,114.2c5,1.7,10.1,3.4,15.1,5.1c1.1,2.2,3.5,2.8,5.3,4.2c18.5,13.9,24.8,44.5,6,64.3
			c-13.9,14.6-30.2,26.1-47,37c-9.8,6.4-10,6.3-13.9-4.6c-6.6-17.9-12.4-36.1-14.8-55.1c-0.6-4.4,0.4-9-1-13.3
			c1.6-4.7,3.2-9.5,4.8-14.2c1.6-0.1,1.8-1.6,2.4-2.5c9.7-13.9,23-20.8,40.1-20.3C551.3,114.8,552.5,115.4,553.3,114.2z
			 M575.3,169.5c5.4-15.6-3.1-33-18.6-38.3c-15.4-5.3-32.7,3-38.1,18.3c-5.5,15.6,2.8,33,18.3,38.4
			C552.5,193.4,569.9,185,575.3,169.5z"/>
		<path fill="#AE2F2F" d="M575.3,169.5c-5.4,15.5-22.8,23.9-38.4,18.5c-15.5-5.4-23.8-22.9-18.3-38.4c5.4-15.3,22.7-23.6,38.1-18.3
			C572.2,136.5,580.7,153.9,575.3,169.5z M541.9,174.8c8.5,2.8,17.4-1.7,20.2-10.3c2.7-8.3-1.7-17.1-10-20
			c-8.5-2.9-17.5,1.5-20.4,10C528.9,163,533.4,172,541.9,174.8z"/>
		<path fill="#FEF0F0" d="M541.9,174.8c-8.5-2.8-13-11.8-10.1-20.3c2.9-8.4,11.9-12.9,20.4-10c8.2,2.8,12.7,11.7,10,20
			C559.3,173.1,550.3,177.6,541.9,174.8z"/>
	</g>
	<g>
		<path fill="#EFB38C" d="M337.3,500.7l-17.4-111.5c-2.9-18.6-17.4-32.6-34.9-35.9c-3.7,1.2-151.8,51.5-129.3,205.4
			c9.2,7.4,21.3,11,33.8,9.1l111.5-17.4C324.7,546.7,341,524.3,337.3,500.7z"/>
		<path fill="#F2D2BB" d="M285.1,353.3c-4.8-0.9-9.7-1.1-14.8-0.3l-111.5,17.4c-23.6,3.7-39.9,26-36.3,49.7L140,531.5
			c1.7,11.1,7.6,20.6,15.9,27.2C133.3,404.8,281.4,354.5,285.1,353.3z"/>
		<path fill="#9FA240" d="M284.7,430.7c2.8,21.4,5.5,42.9,8.3,64.3c0.3,2.2-0.2,2.8-2.4,3c-35.8,4.5-71.6,9.1-107.4,13.8
			c-2.2,0.3-2.8-0.1-3-2.4c-2.7-21.4-5.4-42.9-8.2-64.3c1.3-2.9,3.5-4.3,6.8-4.5c2.6-0.1,5.2-0.7,7.7-1c27.6-3.5,55.2-7.1,82.7-10.6
			c2.2-0.2,4.3-0.3,6.5-0.8C279.2,427.5,282.4,427.6,284.7,430.7z M258.9,466.2c-1.8-14.5-15.1-24.9-29.5-23.1
			c-14.7,1.8-25.2,15.2-23.3,29.8c1.8,14.5,15.1,24.9,29.6,23.1C250.3,494.2,260.7,480.9,258.9,466.2z M279.1,442.5
			c-0.5-3.4-3.8-6.1-7.3-5.7c-3.6,0.4-6.4,3.9-5.9,7.5c0.5,3.6,4.1,6.3,7.7,5.7C277,449.4,279.6,445.9,279.1,442.5z"/>
		<path fill="#D6D872" d="M269.3,429c-27.6,3.5-55.2,7.1-82.7,10.6c1.2-4.4,0.5-9.6,5.6-12.3c22.9-2.9,45.8-5.9,68.7-8.8
			C266.4,419.8,267,425,269.3,429z"/>
		<path fill="#565829" d="M258.9,466.2c1.8,14.7-8.6,28-23.3,29.8c-14.4,1.8-27.7-8.6-29.6-23.1c-1.9-14.6,8.6-28,23.3-29.8
			C243.8,441.4,257,451.8,258.9,466.2z M219.3,457c-1.1,0.8-1.9,1.8-2.3,3c-5.5,8.3-3.4,18.9,4.9,24.8c8.1,5.7,19.1,4,25.3-3.9
			c6.1-8,5-19-2.6-25.4C236.7,448.9,225.9,449.5,219.3,457z"/>
		<path fill="#F2F3ED" d="M279.1,442.5c0.5,3.4-2.1,6.9-5.5,7.5c-3.6,0.6-7.2-2.1-7.7-5.7c-0.5-3.6,2.3-7.2,5.9-7.5
			C275.2,436.5,278.6,439.1,279.1,442.5z"/>
		<path fill="#BDBCBB" d="M219.3,457c6.6-7.5,17.4-8.1,25.2-1.5c7.6,6.4,8.8,17.4,2.6,25.4c-6.1,7.9-17.2,9.6-25.3,3.9
			c-8.4-5.9-10.5-16.5-4.9-24.8c-0.1,1.3-0.2,2.6-0.3,4c-0.2,4.4,2.3,8.1,6.6,9.5c4.2,1.3,7.6,0.1,10.2-3.4
			c2.5-3.3,2.7-6.8,0.5-10.3c-2.3-3.7-6.6-5.2-10.8-4C221.8,456.1,220.5,456.6,219.3,457z"/>
		<path fill="#FFFEF3" d="M219.3,457c1.3-0.4,2.5-0.9,3.8-1.3c4.2-1.3,8.5,0.2,10.8,4c2.2,3.5,2,7-0.5,10.3c-2.6,3.5-6,4.7-10.2,3.4
			c-4.2-1.3-6.7-5.1-6.6-9.5c0-1.3,0.2-2.6,0.3-4C217.4,458.8,218.2,457.8,219.3,457z"/>
	</g>
	<g>
		<path fill="#7BC2BF" d="M460,147.3L429,38.8c-5.2-18.1-21.2-30.2-39-31.4c-3.5,1.7-144.3,69.8-103,219.7c10,6.2,22.5,8.3,34.7,4.9
			l108.5-31C453.1,194.5,466.5,170.3,460,147.3z"/>
		<path fill="#92CDCB" d="M389.9,7.4c-4.8-0.3-9.8,0.1-14.7,1.5l-108.5,31c-23,6.6-36.4,30.8-29.9,53.7l31,108.5
			c3.1,10.8,10.1,19.5,19.1,25C245.6,77.3,386.4,9.1,389.9,7.4z"/>
		<path fill="#AE2F2E" d="M358,67.4c3.3-0.7,6.6-1.3,9.9-2c12.5,1.4,22,7.4,28.2,18.4c7.8,13.8,8.6,27.8,1.4,42.1
			c-10.5,20.9-24.3,39.6-38.6,58.1c-2.9-9.5-4.1-19.4-6.2-29.1c6.2-1.6,6.1-1.5,5.1-7.7c-0.7-4.2-3.8-9.4-1.5-12.1
			c2.2-2.6,7.9-2.2,12.1-3.1c5.9-1.2,5.9-1.2,4.7-7c-1.3-6.8-1.3-6.7-8.1-5.4c-3.9,0.7-8.8,3.1-11.4,1.6c-3.1-1.8-2.2-7.4-3.1-11.4
			c-1.4-6.6-1.3-6.6-7.7-5.7c-1-5-2-9.9-2.9-14.9C343,79.5,349,72.2,358,67.4z"/>
		<path fill="#E65959" d="M339.8,89.1c1,5,2,9.9,2.9,14.9c-6.3,1.6-6.3,1.6-5,8.2c0.2,0.9,0.4,1.8,0.5,2.7c1.9,9.4,1.9,9.4-7.7,11.3
			c-10.2,2-10.1,2-7.4,12c0.5,2,1.3,2.4,3.2,2c4-0.9,8.1-1.4,12.1-2.5c3.2-0.9,4.7-0.4,5.1,3.3c0.5,4.1,1.6,8.1,2.3,12.2
			c0.3,2.1,1.2,2.9,3.3,2.3c1.2-0.4,2.4-0.4,3.6-0.6c2.1,9.7,3.3,19.6,6.2,29.1c-0.6,0.6-1.2,0.1-1.6-0.2
			c-25-16-52.8-28.4-69.7-54.6c-1.1-5.4-2.1-10.8-3.2-16.2c0.2-0.4,0.6-0.7,0.6-1.1c0.3-14.9,6.4-26.5,19.7-33.8
			c3.3-0.7,6.6-1.3,9.9-2C324.8,77,333.1,81.6,339.8,89.1z"/>
	</g>
	<g>
		<path fill="#BB95BF" d="M607.8,522.4l20.9-110.9c3.5-18.5-5.5-36.5-20.8-45.5c-3.9-0.1-160.3-2.2-190.5,150.3
			c6.2,10,16.4,17.5,28.8,19.9L557,557.1C580.5,561.5,603.4,545.9,607.8,522.4z"/>
		<path fill="#D4C1D8" d="M607.9,366c-4.2-2.5-8.8-4.3-13.8-5.2l-110.9-20.9c-23.5-4.4-46.3,11.2-50.8,34.7l-20.9,110.9
			c-2.1,11.1,0.3,22,5.9,30.9C447.5,363.8,603.9,365.9,607.9,366z"/>
		<g>
			<path fill="#BDDFF0" d="M557,431.4c0.4,3.3-0.1,6.7-1.4,9.4c-1.8,3.6-1.5,4.1,2.5,4.5c13.6,1.4,22.8,13.9,20.2,27.7
				c-2,10.6-14.4,20.3-27.4,16.8c-22.7-6-45.4-11.7-67.9-18.1c-11.9-3.4-18.1-12.7-20-24.6c-1.6-10.7,2.2-19.6,10.5-26.5
				c8.7-7.2,18.3-9.1,29-5.5c2.2,0.7,3.9,0.6,5.8-1.6c10-11.7,25.8-13.5,38.4-3.9C553.6,414.8,557.5,422.3,557,431.4z M533,430.5
				c-1.4-1.9-0.8-5.3-4.3-5.7c-3.1-0.3-5.9,0.3-6.9,4c-0.9,3.5-2.7,6.9-2.9,10.4c-0.3,5.1-2.5,6.3-6.8,4.6c-4.4-1.8-4.8,0.1-3.4,3.6
				c2.3,5.6,4.7,11.1,7.1,16.6c1,2.4,2.1,3.2,4.6,1.1c4-3.3,8.3-6.4,12.6-9.3c1.9-1.3,3.7-2.7,3.4-4.8c-0.3-2.1-2.8-1.5-4.4-1.9
				c-2.9-0.6-4.2-1.7-2.8-5.2C530.9,439.7,531.7,435.3,533,430.5z"/>
			<path fill="#1E2E59" d="M533,430.5c-1.3,4.8-2.1,9.3-3.7,13.4c-1.4,3.4,0,4.6,2.8,5.2c1.6,0.4,4.1-0.2,4.4,1.9
				c0.3,2.1-1.6,3.6-3.4,4.8c-4.3,2.9-8.6,5.9-12.6,9.3c-2.5,2.1-3.6,1.3-4.6-1.1c-2.4-5.5-4.8-11-7.1-16.6
				c-1.4-3.4-1.1-5.3,3.4-3.6c4.3,1.7,6.5,0.5,6.8-4.6c0.2-3.5,2-6.9,2.9-10.4c1-3.7,3.8-4.4,6.9-4
				C532.3,425.2,531.6,428.6,533,430.5z"/>
		</g>
	</g>
	<g>
		
			<polyline fill="none" stroke="#E8E7E8" stroke-width="5" stroke-linecap="round" stroke-linejoin="round" stroke-miterlimit="10" points="
			747.7,88.6 648.3,126.9 648.3,209.8 78.8,280 187.9,689.6 589.5,689.6 		"/>
		
			<line fill="none" stroke="#E8E7E8" stroke-width="5" stroke-linecap="round" stroke-linejoin="round" stroke-miterlimit="10" x1="413.3" y1="238.8" x2="413.3" y2="561.5"/>
		
			<line fill="none" stroke="#E8E7E8" stroke-width="5" stroke-linecap="round" stroke-linejoin="round" stroke-miterlimit="10" x1="508.7" y1="561.5" x2="542.8" y2="222.8"/>
		
			<line fill="none" stroke="#E8E7E8" stroke-width="5" stroke-linecap="round" stroke-linejoin="round" stroke-miterlimit="10" x1="185.9" y1="270.2" x2="234.1" y2="564.7"/>
		
			<polyline fill="none" stroke="#E8E7E8" stroke-width="5" stroke-linecap="round" stroke-linejoin="round" stroke-miterlimit="10" points="
			160.1,574.4 612.9,563 648.6,212.5 		"/>
		
			<line fill="none" stroke="#E8E7E8" stroke-width="5" stroke-linecap="round" stroke-linejoin="round" stroke-miterlimit="10" x1="312.8" y1="251.1" x2="333.5" y2="561.5"/>
	</g>
</g>
</svg>
