<?xml version="1.0" encoding="utf-8"?>
<!-- Generator: Adobe Illustrator 18.1.1, SVG Export Plug-In . SVG Version: 6.00 Build 0)  -->
<!DOCTYPE svg PUBLIC "-//W3C//DTD SVG 1.1//EN" "http://www.w3.org/Graphics/SVG/1.1/DTD/svg11.dtd">
<svg version="1.1" id="Layer_1" xmlns="http://www.w3.org/2000/svg" xmlns:xlink="http://www.w3.org/1999/xlink" x="0px" y="0px"
	 viewBox="0 0 800 800" enable-background="new 0 0 800 800" xml:space="preserve">
<rect x="193.4" y="562.8" fill="#78549F" width="102.2" height="190.2"/>
<polygon fill="#B6589F" points="323.8,537 295.6,562.8 193.4,562.8 221.6,537 "/>
<polyline fill="#2C3B8E" points="295.6,753 295.6,562.8 323.8,537 323.8,729.8 295.6,755.6 "/>
<rect x="377" y="486.4" fill="#78549F" width="108.8" height="273.2"/>
<polygon fill="#B6589F" points="516,449.4 486,486.4 377,486.4 407,449.4 "/>
<polyline fill="#2C3B8E" points="486,759.6 486,486.4 516,449.4 516,726.2 486,763.2 "/>
<rect x="8.2" y="648.4" transform="matrix(-1 -9.384407e-03 9.384407e-03 -1 112.0182 1403.9851)" fill="#78549F" width="102.2" height="106.6"/>
<polygon fill="#B6589F" points="139.2,634.8 110.8,648.8 8.6,648 37,633.8 "/>
<polyline fill="#2C3B8E" points="109.8,755.6 110.8,648.8 139.2,634.8 138.2,742.8 109.8,757 "/>
<rect x="567.6" y="384" fill="#78549F" width="108.8" height="374.2"/>
<polygon fill="#B6589F" points="706.6,333.4 676.6,384 567.6,384 597.8,333.4 "/>
<polyline fill="#2C3B8E" points="676.6,758.2 676.6,384 706.6,333.4 706.6,712.6 676.6,763.2 "/>
<polyline fill="none" stroke="#DD294C" stroke-width="11" stroke-miterlimit="10" points="723.2,180.6 637.2,358.8 540.8,271.2 
	460.2,463.8 323.8,379.2 258.6,548.4 102,500.4 50.4,633.8 "/>
<polygon fill="#DD294C" stroke="#DD294C" stroke-width="2" stroke-linecap="round" stroke-linejoin="round" stroke-miterlimit="10" points="
	722.8,259.8 667.6,197.6 794.2,146 "/>
</svg>
