<?xml version="1.0" encoding="utf-8"?>
<!-- Generator: Adobe Illustrator 18.1.1, SVG Export Plug-In . SVG Version: 6.00 Build 0)  -->
<!DOCTYPE svg PUBLIC "-//W3C//DTD SVG 1.1//EN" "http://www.w3.org/Graphics/SVG/1.1/DTD/svg11.dtd">
<svg version="1.1" id="Layer_1" xmlns="http://www.w3.org/2000/svg" xmlns:xlink="http://www.w3.org/1999/xlink" x="0px" y="0px"
	 viewBox="0 0 800 800" enable-background="new 0 0 800 800" xml:space="preserve">
<g>
	<path fill="#7A5296" d="M203.9,258.6c-18.5-4.5-18.5-12.1-0.1-16.7l100.4-33.5c18.4-4.7,30.7-11.6,67.6-2.3l224.8,73.8
		c14.7,5.4,19.7,12.3,2.2,19.7l-92.5,38.3c-34.3,14-42.4,12.8-65.4,5.3L203.9,258.6z"/>
	<g>
		<ellipse fill="#818181" cx="584.7" cy="209.3" rx="14.5" ry="6.6"/>
		<polyline fill="#818181" stroke="#818181" stroke-miterlimit="10" points="604.5,203 604.5,192.5 574.5,192.5 574.5,203 		"/>
		<ellipse fill="#676868" cx="584.7" cy="192.5" rx="14.5" ry="6.6"/>
	</g>
	<path fill="#676868" d="M278.9,174.7l43.8,13.2c7,1.9,14.9,2.2,28.5-6l34.4-20.3c7.6-5.6,0.9-9.5-10.4-13.6l-29.1-8.5
		c-6-2.1-12.2-1.6-16.1,0.3l-52.6,26.2C272.7,169.6,275.1,173.6,278.9,174.7z"/>
	<polygon fill="#676868" points="510.9,174.8 461.3,164.3 395.8,201.3 461.2,218.6 474.9,205.9 540.3,222.2 548.6,205.5 
		487.7,191.4 493.8,185.9 516.3,191 527.1,178.3 	"/>
	<path fill="#4E4F4F" d="M158.8,650c-27.1-17.9-7.3-27,12.9-32.1l84.7-28.3c20.1-5.1,33.5-12.7,73.7-2.5l297.8,99.4
		c21.2,10,29,19.7,10.8,34.1l-105.2,62.7c-32.5,18-51.2,10.7-71.4,5.8L158.8,650z"/>
	<path fill="#676868" d="M158.8,642.5c-27.1-17.9-7.3-27,12.9-32.1l84.7-28.3c20.1-5.1,33.5-12.7,73.7-2.5L627.9,679
		c21.2,10,29,19.7,10.8,34.1l-105.2,62.7c-32.5,18-51.2,10.7-71.4,5.8L158.8,642.5z"/>
	<ellipse fill="#E8E8E8" stroke="#E8E8E8" stroke-miterlimit="10" cx="303.1" cy="627.4" rx="47.6" ry="20.3"/>
	<path fill="#AAA9AA" d="M218.4,565.6c-32.2-12.6-6.6-26.6,10.8-31.3l75.1-31c17.4-4.8,17.9-12.4,52.8-1.9l66.3,23.8
		c8.5,3.1,6.8,9,0,12c0,0-119.9,53.1-111.4,49.3c0,0-12.2,7-24,3.1L218.4,565.6z"/>
	<path fill="#DBDBDA" d="M400.4,473.3l-71.3-26.5c-9.4-2.8-16.1-5.2-31.5-0.8l-54.1,21.3c-8,6.8-4.2,10.7,5.7,14.4l67.3,30.3
		L400.4,473.3z"/>
	<path fill="#AAA9AA" d="M429.1,653l33,16.4c28.8,13.6,38.9,12.2,71.4-5.8l84.6-49.9c23.2-14.3,16.6-22.7-7-32.2l-33.3-11.6
		c-2.1-0.9-4.9-1.7-7.9-0.7l-9.6,4.6c-4.8,2.5-4.1,4.1,0.5,6.2l26,9.3c8.9,3.7,3.4,9.6-3.6,13.3l-83.1,46.8
		c-9,3.8-15.5,3.5-19.4,1.6l-31-13.8c-5-2.5-6.4-1.6-9.8,0.8l-11.9,7.7C424.5,647.7,423.8,650.3,429.1,653z"/>
	<path fill="#AAA9AA" d="M387.5,597.1l42.7,19.5c7.2,3,16.3,3.7,36.2-7.3l54.1-29.4c13.4-8.6,6.4-14.8-6.6-20.9l-33.4-12.4
		c-6.4-3.1-14.4-2.1-20.1,0.9l-71.3,37.9C383,590,383.9,595.4,387.5,597.1z"/>
	<path fill="#DBDBDA" d="M380,542.9l42.7,19.5c10.5,3.5,16.3,3.7,36.2-7.3l54.1-29.4c12.9-9.3,6.4-14.8-6.6-20.9l-33.4-12.4
		c-6.4-3.1-14.4-2.1-20.1,0.9l-71.3,37.9C375.5,535.8,376.5,541.3,380,542.9z"/>
	<path fill="#DBDBDA" d="M448.5,145"/>
	<path fill="#3AB1B4" d="M212.6,404.2c-20.2-4.9-20.2-13.1-0.1-18.2l109.6-36.6c20.1-5.1,33.5-12.7,73.7-2.5l245.3,80.5
		c20.4,3.7,21.5,13.4,2.4,21.5l-101,41.8c-36.1,14.7-51.2,10.7-71.4,5.8L212.6,404.2z"/>
	<g>
		<path fill="#8DCBD3" stroke="#8DCBD3" stroke-width="1.1248" stroke-miterlimit="10" d="M212.6,394.8
			c-20.2-4.9-20.2-13.2-0.1-18.2L322.1,340c20.1-5.1,33.5-12.7,73.7-2.5L641.2,418c16.1,5.9,21.5,13.4,2.4,21.5l-101,41.8
			c-37.4,15.3-46.2,14-71.4,5.8L212.6,394.8z"/>
		<g>
			<path fill-rule="evenodd" clip-rule="evenodd" fill="#FFFFFF" d="M567.1,451.4c-0.6,0.1-0.9,0.4-1.4,0.7
				c-2.7,1.1-5.8,1.7-9.1,2.2c-2.9,0.4-5.9,0.8-8.9,0.9c-5,0.3-10.1,0.3-15.3-0.2c-3.3-0.3-6.5-0.7-9.6-1.4
				c-2.5-0.6-4.7-1.3-6.8-2.3c-2.1-0.9-3.9-2-5.2-3.2c-1.5-1.4-2.1-2.9-2.2-4.4c0-0.3-0.1-0.7,0.1-1c-0.8-0.1-1.4,0.1-2,0.2
				c-2.2,0.2-4.5,0.4-6.8,0.5c-2.3,0.1-4.7,0.1-7.1-0.2c-1.9-0.2-3.6-0.6-5.3-1.2c-1.5-0.5-2.9-1.1-4.1-1.8
				c-1.9-1.1-2.3-2.2-1.5-3.6c0.5-0.8,1.2-1.5,1.9-2.2c0.8-0.8,1.7-1.6,2.4-2.4c0.7-0.8,1.6-1.5,2.3-2.3c0.2-0.2,0.4-0.5,0.6-0.7
				c-0.5-0.1-0.8,0.1-1.2,0.1c-3.7,0.4-7.5,0.5-11.3,0.4c-0.5,0-0.8,0.1-1,0.3c-1.1,0.8-2.3,1.5-3.3,2.3c-0.9,0.8-2,1.4-3,2.2
				c-0.7,0.5-1.3,1-2,1.5c-1.1,0.8-2.2,1.6-3.2,2.4c-0.4,0.3-0.7,0.6-1.1,0.9c-1.2,0.9-2.4,1.8-3.7,2.7c-1.7,1.2-3.5,2.5-5.3,3.6
				c-2,1.3-4.2,2.5-6.7,3.6c-1.2,0.5-2.5,1-3.9,1.3c-2.1,0.5-4.3,0.4-6.5-0.2c-1.2-0.3-2.3-0.7-3.5-1.1c-1.8-0.6-3.4-1.4-5-2.1
				c-1.3-0.6-2.7-1.1-3.9-1.7c-1.4-0.7-3-1.3-4.5-1.9c-1.2-0.6-2.4-1.1-3.6-1.6c-1.5-0.7-2.9-1.4-4.4-2.1c-1-0.5-2.1-1-3.1-1.4
				c-1.5-0.7-3.1-1.4-4.6-2.2c-1.6-0.8-3.2-1.5-4.9-2.3c-1.2-0.5-2.3-1.1-3.4-1.6c-1.2-0.6-2.4-1.1-3.6-1.7
				c-1.4-0.6-2.7-1.2-4.1-1.8c-1.8-0.8-3.6-1.6-5.3-2.4c-3.3-1.5-6.7-2.9-10.1-4.2c-1.7-0.7-3.4-1.4-5.1-2.1
				c-1.2-0.4-2.3-0.9-3.5-1.4c-1.8-0.7-3.5-1.4-5.3-2c-1.3-0.5-2.6-1-3.8-1.5c-1.5-0.6-3-1.1-4.5-1.7c-1.1-0.4-2.3-0.8-3.4-1.2
				c-1.6-0.5-3.1-1-4.7-1.5c-2-0.6-4-1.2-6.1-1.7c-0.7-0.1-1.3-0.2-2-0.2c-0.4,0-0.7,0.1-0.9,0.3c-0.5,0.5-1.3,0.6-2.2,0.5
				c-1.6-0.2-2.7-0.7-3.2-1.7c-0.3-0.6-0.1-1.2,0.5-1.7c0.7-0.6,1.6-1,2.6-1.2c1.3-0.3,2.6-0.3,4-0.3c2.9,0.1,5.7,0.6,8.4,1.3
				c1.9,0.4,3.8,1,5.6,1.6c1.5,0.5,2.9,1,4.4,1.4c1.6,0.5,3.3,1.1,5,1.6c0.8,0.3,1.7,0.6,2.5,0.9c1.4,0.5,2.8,0.9,4.1,1.4
				c0.5,0.2,1,0.4,1.5,0.6c0.9,0.3,1.8,0.7,2.8,1c1.7,0.6,3.4,1.3,5.1,1.9c1.1,0.4,2.2,0.9,3.3,1.3c1.9,0.8,3.9,1.4,5.8,2.3
				c2,0.9,4.3,1.7,6.3,2.7c1.1,0.5,2.3,0.9,3.3,1.4c1,0.5,2.1,0.9,3.1,1.3c1.7,0.8,3.5,1.6,5.3,2.3c1.7,0.7,3.4,1.5,5.1,2.2
				c1.9,0.9,3.9,1.7,5.8,2.6c1.5,0.7,3.1,1.3,4.7,2c0.9,0.4,1.8,0.8,2.7,1.2c1.5,0.6,2.9,1.2,4.4,1.7c2.5,0.9,5.1,1.8,7.8,2.5
				c2.7,0.7,5.2,0.6,7.6-0.1c3.2-0.9,5.8-2.2,8.3-3.7c1.3-0.8,2.6-1.7,3.8-2.6c1-0.7,1.9-1.5,2.8-2.2c1-0.8,2.1-1.6,3.2-2.4
				c0.1,0,0.1-0.1,0.2-0.2c-0.8-0.1-1.6-0.1-2.3-0.2c-2.1-0.2-4.1-0.5-6-1.1c-1.8-0.5-3.3-1.2-4.7-2c-1.7-1-3-2-3.9-3.3
				c-0.8-1-1-2.1-1.1-3.2c0-0.4,0-0.4-0.6-0.3c-1.3,0.2-2.7,0.5-4,0.6c-1.7,0.2-3.4,0.4-5.1,0.6c-3.1,0.2-6.1,0.3-9.2-0.3
				c-2.1-0.4-4-1-5.5-2c-1.3-0.9-1.7-1.9-1.4-2.9c0.3-1.3,1.1-2.5,2.3-3.7c1.2-1.2,2.6-2.2,4.1-3.3c1.6-1.2,3.4-2.3,5.1-3.4
				c0.5-0.3,0.9-0.7,1.2-1.1c0.4-0.5,0.1-0.9-0.8-1.1c-1.3-0.2-2.6-0.1-3.9,0.1c-1.6,0.2-2.9,0.7-4.3,1.1c-2.1,0.7-3.5,1.8-4.5,3.1
				c-0.3,0.4-0.6,0.7-0.9,1.1c-1.5,1.8-3.2,3.5-4.9,5.2c-0.4,0.4-0.9,0.7-1.4,1.1c-0.5,0.4-1.2,0.5-2.1,0.4c-2.6-0.4-4.9-1-6.5-2.4
				c-1-0.9-1.5-1.9-1.6-2.9c-0.1-1.3,0.2-2.6,1-3.8c0.4-0.6,1-1.2,1.4-1.9c0.6-0.8,1.5-1.4,2.2-2.2c-0.8,0.3-1.4,0.5-2.1,0.7
				c-2.3,0.8-4.6,1.3-7,1.9c-2,0.4-4.1,0.9-6.1,1.2c-2.4,0.4-4.8,0.8-7.3,0.7c-2.3,0-5-1-5.8-2.3c-0.5-0.8-0.6-1.6-0.4-2.4
				c0.3-0.9,0.8-1.7,1.4-2.5c0.2-0.3,0.5-0.6,0.7-0.9c-1.2,0.6-2.4,1.1-3.7,1.6c-1.7,0.6-3.4,1-5.3,1.2c-2,0.2-4,0.1-5.9-0.5
				c-1.7-0.5-2.7-1.3-3.3-2.4c-0.8-1.6-0.7-3.2,0-4.7c0.4-0.8,0.9-1.5,1.3-2.3c1.2-1.9,2.9-3.6,4.7-5.3c0.8-0.8,1.6-1.5,2.5-2.2
				c1.1-0.9,2.3-1.8,3.5-2.6c2.2-1.5,4.7-2.9,7.8-3.7c2.2-0.6,4.5-0.7,6.8-0.3c1.1,0.2,2.2,0.4,3.2,0.8c1.8,0.6,2.3,1.6,1.6,2.8
				c-0.6,1.1-2,2-3.3,2.8c-2.1,1.3-4.6,2.4-6.9,3.6c-1.6,0.8-3,1.6-4.3,2.6c-1.3,0.9-2.4,2-2.8,3.2c-0.1,0.4-0.1,0.8,0,1.2
				c0.2,0.7,1.1,0.8,1.9,0.8c1.1,0,2.1-0.3,3-0.6c2.4-0.8,4.4-1.9,6.4-3.1c0.7-0.4,1.2-0.9,1.8-1.4c0.7-0.5,1.4-1,2.1-1.6
				c0.7-0.6,1.5-1.2,2.2-1.7c1.8-1.3,3.6-2.6,6-3.5c1.5-0.6,3.1-0.9,5-0.8c0.7,0.1,1.4,0.2,2.1,0.4c0.9,0.2,1.7,0.5,2.5,0.8
				c0.7,0.3,1.4,0.6,1.9,1.1c1,0.8,1,1.7,0.5,2.6c-0.7,1.2-2,2.2-3.4,3.1c-3,1.9-6.2,3.6-9.3,5.4c-1.5,0.9-3.1,1.7-4.5,2.7
				c-0.4,0.2-0.8,0.5-0.9,0.9c-0.1,0.3-0.2,0.5,0.2,0.8c0.4,0.2,0.8,0.3,1.4,0.2c0.8-0.1,1.6-0.3,2.3-0.6c1.8-0.7,3.7-1.3,5.4-2.1
				c1.5-0.6,3-1.2,4.4-1.8c3-1.2,6.1-2.4,9.3-3.6c2.1-0.8,4.3-1.5,6.7-1.9c2.2-0.4,4.5-0.7,6.9-0.5c1.7,0.2,3.2,0.6,4.5,1.3
				c0.7,0.4,0.8,1,0.7,1.5c-0.1,0.5-0.4,1-0.8,1.5c-0.4,0.5-0.8,1-1.3,1.4c-0.9,0.8-1.8,1.5-2.8,2.3c-1,0.7-2,1.4-3.1,2.1
				c0.9-0.3,1.8-0.7,2.7-1c1.5-0.6,3-1.1,4.6-1.6c1.5-0.5,3.1-0.9,4.7-1.2c3-0.6,6-1.1,9.2-0.8c2.6,0.2,4.9,0.9,6.5,2.2
				c0.8,0.6,1.2,1.3,1.1,2.1c0,1.1-0.6,2-1.4,2.9c-0.6,0.7-1.3,1.3-2,1.9c-0.9,0.8-2,1.5-3.1,2.1c-2.5,1.5-5,2.9-7.4,4.4
				c-1.4,0.9-2.9,1.8-3.9,2.9c-0.3,0.3-0.5,0.6-0.2,1c0.4,0.4,1,0.5,1.7,0.5c2.1,0.1,4.1-0.3,6-0.7c1.2-0.2,2.4-0.5,3.7-0.8
				c0.2-0.1,0.4-0.1,0.6-0.3c0.4-0.4,0.9-0.8,1.4-1.2c1-0.8,2.2-1.5,3.5-2.2c1.9-1,4.1-1.9,6.4-2.6c1.8-0.6,3.7-1,5.7-1.4
				c1.6-0.3,3.2-0.5,4.9-0.6c2.2-0.2,4.4-0.2,6.6-0.1c2.2,0.1,4.4,0.4,6.6,0.8c2.2,0.4,4.2,1,6,1.8c1.8,0.7,3.5,1.5,4.8,2.5
				c1.7,1.2,2.8,2.5,3.2,4c0.4,1.5,0,2.9-1,4.3c-0.6,0.9-1.6,1.7-2.5,2.6c-0.6,0.5-1.5,1-2.2,1.5c-0.6,0.4-1.3,0.8-1.7,1.4
				c0.9-0.1,1.7-0.1,2.5-0.2c1.9-0.3,3.7-0.6,5.5-1c1.3-0.3,2.6-0.7,3.8-1c0.7-0.2,1.1-0.4,1.5-0.7c0.8-0.8,1.6-1.5,2.5-2.2
				c1-0.8,1.9-1.6,2.9-2.4c1.1-0.9,2.2-1.8,3.3-2.7c1.1-1,2.3-1.9,3.6-2.8c1.2-0.9,2.5-1.9,3.9-2.8c2-1.4,4.1-2.7,7-3.6
				c2-0.6,4.2-1.1,6.7-1.1c0.9,0,1.7,0.2,2.5,0.4c0.1,0,0.2,0.1,0.4,0c0.8,0.3,1.7,0.6,2.5,0.9c0,0.1,0,0.1,0.1,0.1
				c1.2,0.5,1.7,1.2,1.6,1.9c-0.1,1.1-0.8,2.1-2,3c-1.1,0.8-2.3,1.7-3.5,2.5c-1.5,1.1-2.9,2.1-4.4,3.2c-1.2,0.9-2.4,1.7-3.6,2.6
				c-1.2,0.9-2.4,1.8-3.7,2.7c-1.2,0.9-2.5,1.8-3.7,2.7c-1.3,1-2.7,2-4,3c-1.1,0.8-2.1,1.6-3.1,2.4c-1.2,0.9-2.3,1.8-3.4,2.8
				c-1.1,0.9-2,1.8-2.9,2.7c-0.4,0.4-0.8,0.7-1.2,1.1c-0.5,0.5-1,1-1.1,1.6c-0.2,0.8,0.4,1.3,1.8,1.6c1.2,0.2,2.4,0.1,3.6,0
				c2.2-0.2,4.3-0.6,6.4-1c0.6-0.1,1.3-0.1,1.7-0.5c0.6-0.5,1.1-1,1.8-1.5c1.1-0.8,2.4-1.6,3.8-2.3c3.3-1.7,7-3.1,11.3-4.2
				c4-1,8.2-1.7,12.8-2c2.7-0.1,5.3-0.1,8.1,0.2c1.5,0.2,3,0.4,4.4,0.9c1.8,0.6,3.5,1.2,5.1,2c2.4,1.2,4.1,2.7,4.3,4.4
				c0.2,1.7-0.9,3.1-2.2,4.5c-0.7,0.7-1.6,1.3-2.5,1.8c-1.5,1-3.2,1.8-5.3,2.4c-4,1.2-8.4,1.7-13.2,1.6c-4.2-0.1-8.4-0.6-12.4-1.4
				c-0.3-0.1-0.6-0.1-0.7,0.1c-0.3,0.4-0.7,0.8-1,1.2c-0.5,0.9-0.1,1.7,1.3,2.2c2.5,1,5.2,1.8,8.2,2.3c4.6,0.7,9.2,0.9,13.9,0.7
				c1.8-0.1,3.5-0.2,5.3-0.4c2.3-0.2,4.5-0.6,6.7-1c1-0.2,1.9-0.5,3-0.6c2.1-0.2,4,1,3.6,2c-0.1,0.3-0.4,0.5-0.4,0.8
				C568.1,450.5,567.6,451,567.1,451.4z M461.6,421.2c2.2,1,5.4,0.7,7.1-0.1c0.7-0.3,1.2-0.8,1.7-1.2c0.7-0.6,1.6-1.2,2.1-1.9
				c0.4-0.6,0.8-1.1,0.8-1.8c0-0.3,0-0.7-0.2-1c-0.5-0.7-1.3-1.2-2.6-1.5c-2-0.5-3.9-0.6-5.7-0.1c-2.7,0.7-4.6,1.8-5.6,3.4
				C458.2,418.6,458.8,420.2,461.6,421.2z M546.5,435.9c0.4-0.5,1-1.1,1-1.8c0-0.7-1.4-1.4-2.6-1.3c-3.1,0.3-5.3,1.3-7.3,2.4
				c-1,0.5-1.8,1.2-2.7,1.8c-0.2,0.1-0.1,0.2,0.2,0.3c0.9,0.2,1.7,0.3,2.6,0.4C541.6,438.2,544.5,437.5,546.5,435.9z"/>
			<path fill-rule="evenodd" clip-rule="evenodd" fill="#FFFFFF" d="M337.9,351.6c0.5-0.3,0.9-0.6,1.5-0.9c1.1-0.5,2.3-0.6,3.6-0.5
				c0.8,0.1,1.7,0.1,2.4,0.4c1,0.3,1.7,0.7,2.2,1.3c0.9,1,1,2.1,0.9,3.2c-0.1,2-0.9,3.8-1.6,5.7c-0.6,1.3-1.2,2.6-1.9,4
				c-0.9,1.9-1.8,3.7-2.7,5.5c-0.8,1.7-1.6,3.4-2.3,5.2c-0.6,1.6-1.3,3.2-2,4.8c0,0.1-0.1,0.2-0.1,0.4c0.6-0.3,1.2-0.6,1.7-0.9
				c2.1-1,3.9-2.2,5.7-3.4c2-1.3,4-2.7,6-4c1.6-1.1,3.2-2.2,4.8-3.3c1.7-1.2,3.5-2.4,5.2-3.6c1.3-0.9,2.7-1.8,4-2.7
				c1-0.7,2.1-1.4,3.2-2c1.1-0.7,2.4-1.1,3.9-1.2c1.7-0.1,3.4,0.1,4.9,0.6c1.4,0.5,2.5,1.2,2.9,2.3c0.2,0.7,0,1.4-0.4,2
				c-0.4,0.7-0.9,1.3-1.5,1.9c-0.9,0.8-1.9,1.6-3,2.3c-2.7,1.8-5.4,3.5-8.1,5.2c-1.9,1.2-3.8,2.3-5.7,3.4c-2.7,1.6-5.4,3.1-8.1,4.6
				c-3.1,1.7-6.3,3.3-9.5,4.9c-1.4,0.7-2.9,1.4-4.4,2.1c-1.7,0.8-3.6,1.4-5.6,1.9c-1.9,0.5-3.9,0.4-5.8-0.2
				c-0.7-0.2-1.3-0.4-1.9-0.8c-0.7-0.4-1-0.9-1.2-1.5c-0.3-1.5,0-2.9,0.4-4.3c0.4-1.5,0.9-3.1,1.4-4.6c0.8-2.3,1.6-4.6,2.5-6.9
				c0.5-1.2,0.9-2.4,1.3-3.6c0.7-1.9,1.5-3.7,2.1-5.6c0.5-1.6,1.1-3.1,1.6-4.7c0.4-1.5,1-2.9,1.5-4.3c0.2-0.4,0.4-0.9,0.7-1.3
				c0-0.1,0.2-0.1,0.1-0.2C337.2,352.3,337.6,351.9,337.9,351.6z"/>
		</g>
	</g>
	<path fill="#DBDBDA" d="M634.4,116.4L399.6,73.6c-20.4-3.7-53.6-2.6-73.7,2.5l-120,30.3c-20.1,5.1-20.1,13.3,0.1,18.2l256.5,62.9
		c20.2,4.9,35.9,10.9,71.4-5.8l103.1-43.9C655.9,129.8,654.9,120.1,634.4,116.4z M598.7,136.7l-80.3,34.2
		c-26.1,8.8-42.1,7.3-58.7,3.2l-210-50.1c-16.6-4.1-16.6-10.8-0.1-15l93.1-23.1c16.6-4.2,43.9-5.1,60.7-2L596.7,119
		C613.5,122.1,614.4,130,598.7,136.7z"/>
	<path fill="#4E4F4F" d="M213.3,66.7c-20.2-4.9-20.2-13.1-0.1-18.2l120-30.3c20.1-5.1,53.3-6.2,73.7-2.5l234.8,42.7
		c20.4,3.7,21.5,13.4,2.4,21.5l-103.1,43.9c-19.1,8.1-51.2,10.7-71.4,5.8L213.3,66.7z"/>
	<path fill="#676868" d="M213.3,60c-20.2-4.9-20.2-13.1-0.1-18.2l120-30.3c20.1-5.1,53.3-6.2,73.7-2.5l234.8,42.7
		c20.4,3.7,21.5,13.4,2.4,21.5l-103.1,43.9c-19.1,8.1-51.2,10.7-71.4,5.8L213.3,60z"/>
	<ellipse fill="#E8E8E8" stroke="#E8E8E8" stroke-miterlimit="10" cx="569.8" cy="84.4" rx="14.5" ry="6.6"/>
	<path fill="#F0A642" d="M600.2,50.8l-53.3-9.6l-322,3.7c-8.8,3.7-10.3,8.4,14.6,13.6L449.3,109c16,3.8,19,2.9,34.2-4.2l100.8-42
		C598.6,56,615.8,53.6,600.2,50.8z"/>
	<linearGradient id="SVGID_1_" gradientUnits="userSpaceOnUse" x1="224.4875" y1="28.6605" x2="542.4176" y2="28.6605">
		<stop  offset="0" style="stop-color:#FFFFFF"/>
		<stop  offset="1" style="stop-color:#F0A642"/>
	</linearGradient>
	<path fill="url(#SVGID_1_)" d="M395.6,14.3C379.9,11.6,354,12.8,338,17l-99.8,23.4c-4.9,1.1-10,2.5-13.7,4.1l317.9-3.7L395.6,14.3z
		"/>
	<polygon fill="#4E4F4F" points="238,71.6 238,88.4 255,89.1 255,75.3 	"/>
	<polygon fill="#4E4F4F" points="287,80.9 287,92.1 287,107 292,107 292,97.7 297,97.4 297,107 317,107 317,90.2 	"/>
	<polyline fill="#4E4F4F" points="374,107 374,122 390,122 390.3,116 399,116 399,122 416,122 416,116 	"/>
	<path fill="#C2C1C1" d="M320.5,189.7"/>
	<ellipse fill="none" stroke="#8E8D8D" stroke-width="3" stroke-miterlimit="10" cx="579.1" cy="144.1" rx="14.5" ry="6.6"/>
	<path fill="#D4274A" d="M369.2,53.3l29.8-11.5c2.9-1.1,8.4-1.4,12.2-0.7l43.1,8.6c4.2,0.8,5.3,2.5,2.5,3.8l-28.9,12.8
		c-3.2,1.4-9.3,1.8-13.6,0.8l-44.1-9.9C366.4,56.3,365.9,54.5,369.2,53.3z"/>
	<polygon fill="#FFFFFF" points="432.1,52.6 403.9,46.8 397.7,58 	"/>
	<g>
		<polygon fill="#7A5296" points="212,246.9 349.7,204.8 594.7,281.9 492.4,337.2 		"/>
		<path fill="#3281B9" d="M564.5,280.7c-0.5-0.4-1.3-0.7-2.3-1l-26.7-8.4c-2.5-0.8-5.5-1-6.7-0.4l-13.9,6.6
			c-1.2,0.6-0.2,1.7,2.4,2.5l6.9,2.2L564.5,280.7z"/>
		<path fill="#5B8EC3" d="M544.7,288.6c2.6,0.8,5.6,1,6.8,0.4l13.2-6.8c0.7-0.4,0.5-0.9-0.2-1.4l-40.2,1.4L544.7,288.6z"/>
		<path fill="#F0A642" d="M533.8,296.3c-0.5-0.4-1.3-0.8-2.4-1.1l-27.8-8.8c-2.6-0.8-5.8-1-7.1-0.4l-15.1,7.2
			c-1.3,0.6-0.3,1.9,2.4,2.7l7.2,2.3L533.8,296.3z"/>
		<path fill="#F0B567" d="M512.3,305c2.7,0.9,5.9,1,7.2,0.4l14.4-7.5c0.7-0.4,0.6-1-0.2-1.6l-42.8,1.9L512.3,305z"/>
		<path fill="#E45C30" d="M499.9,313.3c-0.5-0.4-1.4-0.8-2.5-1.2l-29-9.3c-2.7-0.9-6.1-1-7.5-0.4l-16.6,7.9c-1.5,0.7-0.4,2,2.4,2.9
			l7.5,2.4L499.9,313.3z"/>
		<path fill="#E87C54" d="M476.5,322.9c2.8,0.9,6.3,1,7.7,0.3L500,315c0.8-0.4,0.7-1.1-0.1-1.7l-45.7,2.4L476.5,322.9z"/>
		<path fill="#009C92" d="M505.4,262.1c-0.5-0.4-1.2-0.7-2.2-1l-26.4-8.3c-2.5-0.8-5.5-1-6.8-0.5l-14.9,6.2
			c-1.3,0.6-0.3,1.7,2.2,2.5l6.8,2.2L505.4,262.1z"/>
		<path fill="#30AEA6" d="M484.3,269.4c2.6,0.8,5.7,1,6.9,0.4l14.3-6.4c0.7-0.3,0.6-0.9-0.1-1.4l-41.3,1L484.3,269.4z"/>
		<path fill="#54AFDB" d="M472.4,276.8c-0.5-0.4-1.3-0.8-2.3-1.1l-27.5-8.7c-2.6-0.8-5.8-1-7.2-0.4l-16.3,6.8
			c-1.5,0.6-0.5,1.8,2.2,2.6l7.1,2.3L472.4,276.8z"/>
		<path fill="#7FC1E1" d="M449.5,284.9c2.7,0.9,6,1,7.4,0.4l15.6-7c0.8-0.4,0.7-0.9,0-1.5l-44,1.4L449.5,284.9z"/>
		<path fill="#E32E7C" d="M436.3,293c-0.5-0.4-1.3-0.8-2.4-1.2l-28.7-9.2c-2.7-0.9-6.1-1.1-7.6-0.4l-17.9,7.4
			c-1.6,0.7-0.6,1.9,2.1,2.8l7.4,2.4L436.3,293z"/>
		<path fill="#E4568B" d="M411.3,301.9c2.8,0.9,6.3,1.1,7.8,0.4l17.1-7.7c0.9-0.4,0.9-1,0.1-1.6l-47.1,1.9L411.3,301.9z"/>
		<path fill="#E44238" d="M449.2,244.3c-0.5-0.3-1.2-0.7-2.2-1l-26.2-8.2c-2.5-0.8-5.6-1-6.9-0.5l-15.9,5.8c-1.4,0.5-0.5,1.6,2,2.4
			l6.8,2.1L449.2,244.3z"/>
		<path fill="#E7675F" d="M426.8,251.3c2.5,0.8,5.7,1,7.1,0.5l15.3-6.1c0.8-0.3,0.7-0.8,0.1-1.3l-42.4,0.6L426.8,251.3z"/>
		<path fill="#293D85" d="M413.3,258.1c-0.5-0.4-1.2-0.7-2.2-1.1l-27.2-8.6c-2.6-0.8-5.8-1-7.3-0.5l-17.4,6.4
			c-1.6,0.6-0.7,1.7,1.9,2.5l7,2.2L413.3,258.1z"/>
		<path fill="#56639D" d="M389,265.6c2.6,0.8,6,1,7.5,0.5l16.7-6.6c0.9-0.3,0.9-0.9,0.2-1.4l-45.2,0.9L389,265.6z"/>
		<path fill="#088A49" d="M374.7,273.3c-0.5-0.4-1.2-0.8-2.3-1.1l-28.4-9.1c-2.7-0.9-6.2-1.1-7.8-0.5l-19.1,7
			c-1.7,0.6-0.9,1.8,1.9,2.7l7.3,2.4L374.7,273.3z"/>
		<path fill="#319E6A" d="M348.1,281.6c2.8,0.9,6.3,1.1,8,0.4l18.3-7.2c0.9-0.4,1-1,0.3-1.5l-48.4,1.4L348.1,281.6z"/>
		<path fill="#B3222F" d="M394,226.9c-0.4-0.3-1.2-0.7-2.1-1l-25.9-8.2c-2.4-0.8-5.6-1-7-0.6l-16.9,5.5c-1.5,0.5-0.7,1.5,1.8,2.3
			l6.7,2.1L394,226.9z"/>
		<path fill="#C14C58" d="M370.3,233.4c2.5,0.8,5.7,1,7.2,0.5l16.3-5.7c0.8-0.3,0.9-0.8,0.2-1.3l-43.5,0.2L370.3,233.4z"/>
		<path fill="#EB8B32" d="M356.2,240.1c-0.4-0.4-1.2-0.7-2.2-1l-27-8.6c-2.5-0.8-5.9-1-7.4-0.5l-18.5,6c-1.6,0.5-0.9,1.6,1.7,2.5
			l7,2.2L356.2,240.1z"/>
		<path fill="#EE9E4B" d="M330.5,247.2c2.6,0.8,6,1.1,7.6,0.5l17.8-6.2c0.9-0.3,1-0.8,0.3-1.4l-46.4,0.5L330.5,247.2z"/>
		<path fill="#2B9ED6" d="M315.3,254.3c-0.4-0.4-1.2-0.8-2.3-1.1l-28.1-9c-2.6-0.8-6.2-1.1-7.9-0.5l-20.2,6.5
			c-1.8,0.6-1.1,1.8,1.6,2.6l7.3,2.3L315.3,254.3z"/>
		<path fill="#54AFDB" d="M287.3,262.1c2.7,0.9,6.4,1.1,8.1,0.5l19.5-6.8c1-0.3,1.1-0.9,0.4-1.5l-49.6,0.9L287.3,262.1z"/>
	</g>
</g>
</svg>
