<?xml version="1.0" encoding="iso-8859-1"?>
<!-- Generator: Adobe Illustrator 18.0.0, SVG Export Plug-In . SVG Version: 6.00 Build 0)  -->
<!DOCTYPE svg PUBLIC "-//W3C//DTD SVG 1.1//EN" "http://www.w3.org/Graphics/SVG/1.1/DTD/svg11.dtd">
<svg version="1.1" id="Layer_1" xmlns="http://www.w3.org/2000/svg" xmlns:xlink="http://www.w3.org/1999/xlink" x="0px" y="0px"
	 viewBox="0 0 400 400" style="enable-background:new 0 0 400 400;" xml:space="preserve">
<g>
	<circle style="fill:#E99E34;" cx="199.391" cy="202.845" r="127.025"/>
	<circle style="fill:#E8E7D2;" cx="199.391" cy="202.845" r="102.435"/>
	<circle style="fill:#E99E34;" cx="199.391" cy="202.845" r="96.348"/>
	<circle style="fill:#D7D4C5;" cx="199.391" cy="202.845" r="87.845"/>
	<path style="fill:#FEEEDE;" d="M346.536,194.853"/>
	<path style="fill:#C7C8C9;" d="M367.443,146.685c0-10.174,8.435-10.437,12.999-23.564c4.076-11.721-1.677-74.843-3.531-74.843
		c-2.116,0-1.08,54.663-5.09,54.663c-4.046,0-2-53.922-4.559-54.663c-2.559-0.742-0.682,54.663-5.416,54.663
		c-4.781,0-1.674-54.663-4.233-54.663s-1.839,54.663-5.742,54.663c-4.297,0-1.987-54.663-3.907-54.663
		c-3.261,0-7.081,59.365-5.053,71.904c2.028,12.539,14.014,14.916,14.014,27.18c0,12.529-0.365,23.462-0.909,33.323h12.326
		C367.803,170.552,367.443,159.363,367.443,146.685z"/>
	<circle style="fill:#E8E7D2;" cx="202.911" cy="206.366" r="84.677"/>
	<path style="fill:#DCDDDE;" d="M53.116,69.174c-7.754-29.466-26.364-20.161-26.364-20.161v3.826l26.703,157.111
		C54.861,186.653,59.869,94.834,53.116,69.174z"/>
	<path style="fill:#CCCCCC;" d="M26.752,52.838v176.071h14.905V218.54l11.459-3.159c0,0,0.131-1.977,0.339-5.432L26.752,52.838z"/>
	<path style="fill:#F0A54E;" d="M29.182,325.11l-2.43-96.201L21.313,329.87c0,0,2.331,16.801,13.442,16.801
		c6.571,0,9.535-6.606,10.872-12.013C45.627,334.658,29.676,350.326,29.182,325.11z"/>
	<path style="fill:#ED9533;" d="M46.704,228.909H26.752l2.43,96.201c0.494,25.216,16.444,9.549,16.444,9.549
		c0.925-3.738,1.078-6.907,1.078-6.907V228.909z"/>
	<path style="fill:#DCDDDE;" d="M346.536,106.497h29.496c0,0,2.901,23.92-8.29,23.92c-11.191,0-8.747,0-8.747,0
		S343.946,131.881,346.536,106.497z"/>
	<path style="fill:#F0A54E;" d="M359.793,343.454c11.862,0,12.756-26.149,12.756-26.149v-88.396
		c-0.367,69.798-14.587,95.9-23.383,105.384C351.348,339.174,354.703,343.454,359.793,343.454z"/>
	<path style="fill:#ED9533;" d="M351.249,180.685l-5.806,139.548c0,0,0.82,7.564,3.724,14.06
		c8.796-9.484,23.016-35.586,23.383-105.384v-48.224H351.249z"/>
</g>
</svg>
