<?xml version="1.0" encoding="iso-8859-1"?>
<!-- Generator: Adobe Illustrator 18.0.0, SVG Export Plug-In . SVG Version: 6.00 Build 0)  -->
<!DOCTYPE svg PUBLIC "-//W3C//DTD SVG 1.1//EN" "http://www.w3.org/Graphics/SVG/1.1/DTD/svg11.dtd">
<svg version="1.1" id="Layer_1" xmlns="http://www.w3.org/2000/svg" xmlns:xlink="http://www.w3.org/1999/xlink" x="0px" y="0px"
	 viewBox="0 0 400 400" style="enable-background:new 0 0 400 400;" xml:space="preserve">
<path style="fill:#EACA95;" d="M31.095,372.34c-1.214-0.299-2.428-0.598-3.641-0.896c-0.109-69.786-0.219-139.572-0.331-209.353
	c0.978-0.778,1.879-1.694,2.949-2.326c54.059-31.959,108.161-63.846,162.145-95.931c3.998-2.376,6.836-1.587,10.304,0.502
	c10.489,6.318,21.108,12.42,31.645,18.659c42.42,25.113,84.828,50.245,127.24,75.371c-0.015,71.034-0.031,142.067-0.046,213.101
	c-26.379,0.189-52.758,0.393-79.137,0.562c-30.48,0.196-60.961,0.362-91.433,0.539c-0.945-0.833-1.888-0.725-2.826,0.025
	c-1.156-0.102-2.312-0.204-3.467-0.3c-0.091-4.08-0.262-8.166-0.264-12.251c-0.018-51.891-0.031-103.783,0.018-155.674
	c0.005-4.967,0.447-8.985-7.033-8.879c-28.927,0.413-57.865,0.291-86.797,0.066c-5.523-0.043-6.844,2.008-6.826,7.15
	c0.204,56.291,0.218,112.583,0.283,168.875c-2.104,0.321-4.208,0.642-6.304,0.96c-1.425-0.793-2.834-0.796-4.215,0.126
	C59.28,371.537,45.188,371.884,31.095,372.34z M310.517,233.388c0-10.034-0.233-20.075,0.093-30.099
	c0.176-5.403-1.061-7.86-7.178-7.759c-20.376,0.339-40.763,0.305-61.141,0.014c-5.716-0.082-7.573,1.601-7.48,7.437
	c0.327,20.376,0.241,40.762,0.048,61.142c-0.047,4.937,0.896,7.346,6.641,7.261c20.691-0.304,41.39-0.259,62.082-0.01
	c5.291,0.064,7.201-1.588,7.033-6.946C310.291,254.09,310.521,243.735,310.517,233.388z"/>
<path style="fill:#7F5529;" d="M361.406,158.364c-42.412-25.125-84.82-50.258-127.24-75.371
	c-10.537-6.238-21.156-12.34-31.645-18.659c-3.469-2.089-6.306-2.878-10.304-0.502C138.232,95.919,84.13,127.805,30.072,159.765
	c-1.069,0.632-1.971,1.548-2.949,2.326c-2.241,1.114-4.651,1.993-6.691,3.406c-3.781,2.619-6.361,1.885-8.161-2.231
	c-0.126-0.288-0.253-0.579-0.416-0.846c-12.301-20.191-12.33-20.239,7.983-32.224C76.38,96.836,132.991,63.594,189.439,30.077
	c5.574-3.31,9.826-3.37,15.37-0.014c25.529,15.457,51.375,30.391,76.924,45.815c6.219,3.754,8.754,3.679,8.456-4.476
	c-0.378-10.363,0.069-20.754-0.17-31.126c-0.111-4.828,1.561-6.403,6.5-6.648c24.663-1.224,24.656-1.374,24.659,23.327
	c0.001,11.32,0.553,22.678-0.202,33.947c-0.473,7.057,3.07,10.098,8.261,13.104c19.569,11.331,39.011,22.879,58.54,34.28
	c2.727,1.592,5.802,2.691,6.023,6.523c-3.542,5.472-7.482,10.735-10.517,16.476c-2.932,5.546-5.77,7.704-11.415,3.166
	C368.759,161.952,364.917,160.364,361.406,158.364z"/>
<path style="fill:#987655;" d="M184.252,204.367c0.005-4.967,0.448-8.985-7.034-8.879c-28.926,0.413-57.865,0.291-86.796,0.066
	c-1.795-0.014-3.108,0.22-4.114,0.682l97.934,76.896C184.247,250.211,184.229,227.289,184.252,204.367z"/>
<path style="fill:#7F5529;" d="M184.243,273.132l-97.934-76.896c-2.091,0.961-2.726,2.997-2.712,6.468
	c0.203,56.292,0.217,112.583,0.283,168.875c33.539,0.236,67.078,0.472,100.617,0.713c-0.09-4.081-0.26-8.166-0.262-12.251
	C184.222,331.072,184.241,302.102,184.243,273.132z"/>
<path style="fill:#7F5529;" d="M310.605,227.225l-65.473-31.542c-1.704-0.007-3.406-0.006-5.108-0.014
	c-4.156-0.018-5.149,0.863-5.135,3.072c0.154,24.177,0.163,48.356,0.212,72.534c25.23,0.101,50.461,0.202,75.694,0.306
	c-0.068-1.752-0.197-3.507-0.199-5.262C310.59,253.287,310.603,240.256,310.605,227.225z"/>
<path style="fill:#987655;" d="M310.612,199.455c0.002-2.134,0.335-3.859-5.291-3.814c-20.061,0.164-40.127,0.124-60.189,0.042
	l65.473,31.542C310.608,217.968,310.596,208.711,310.612,199.455z"/>
</svg>
