<?xml version="1.0" encoding="iso-8859-1"?>
<!-- Generator: Adobe Illustrator 18.0.0, SVG Export Plug-In . SVG Version: 6.00 Build 0)  -->
<!DOCTYPE svg PUBLIC "-//W3C//DTD SVG 1.1//EN" "http://www.w3.org/Graphics/SVG/1.1/DTD/svg11.dtd">
<svg version="1.1" id="Layer_1" xmlns="http://www.w3.org/2000/svg" xmlns:xlink="http://www.w3.org/1999/xlink" x="0px" y="0px"
	 viewBox="0 0 400 400" style="enable-background:new 0 0 400 400;" xml:space="preserve">
<g>
	<polygon style="fill:#C7C8C9;" points="45.009,369.763 45.009,5 255.781,5 255.781,55.757 309.979,55.757 309.979,374.925 
		45.009,374.925 	"/>
	<rect x="83.156" y="134.925" style="fill:#2D2934;" width="174.293" height="6.599"/>
	<rect x="86.262" y="129.49" style="fill:#6E6E70;" width="168.47" height="5.435"/>
	<rect x="83.156" y="160.739" style="fill:#2D2934;" width="183.997" height="6.599"/>
	<rect x="86.434" y="155.304" style="fill:#6E6E70;" width="177.85" height="5.435"/>
	<rect x="83.35" y="189.38" style="fill:#2D2934;" width="119.754" height="6.599"/>
	<rect x="85.484" y="183.946" style="fill:#6E6E70;" width="115.753" height="5.435"/>
	<rect x="83.35" y="214.114" style="fill:#2D2934;" width="160.901" height="6.599"/>
	<rect x="86.217" y="208.679" style="fill:#6E6E70;" width="155.525" height="5.435"/>
	<polygon style="fill:#DCDDDE;" points="255.781,5 309.979,55.757 255.781,55.757 	"/>
	<path style="fill:none;stroke:#414142;stroke-width:0.5;stroke-miterlimit:10;" d="M203.871,318.319
		c-1.514,0.837-3.074,1.712-4.122,3.088c-1.049,1.376-1.452,3.401-0.484,4.835c0.618,0.916,1.67,1.438,2.716,1.793
		c3.606,1.224,7.613,0.892,11.209-0.359c3.597-1.251,6.83-3.369,9.838-5.704c5.609-4.352,10.823-10.005,11.938-17.016
		c0.285-1.791,0.102-3.984-1.468-4.892c-0.703-0.407-1.556-0.462-2.365-0.393c-2.154,0.181-4.159,1.149-6.043,2.209
		c-2.58,1.451-5.152,3.227-6.484,5.87c-0.736,1.46-1.045,3.099-1.183,4.728c-0.151,1.781-0.095,3.634,0.636,5.264
		c1.02,2.274,3.282,3.842,5.706,4.421c2.424,0.579,4.99,0.264,7.375-0.458c1.366-0.413,2.721-0.975,3.782-1.929
		c1.062-0.954,1.764-2.238,2.369-3.531c0.804-1.717,1.473-3.497,2.001-5.318c0.236-0.817,0.391-1.835-0.246-2.398
		c-0.623-0.551-1.598-0.297-2.349,0.06c-2.536,1.208-4.642,3.297-5.872,5.822c-0.621,1.275-1.011,2.828-0.347,4.082
		c0.695,1.313,2.295,1.844,3.766,2.049c4.755,0.664,9.777-0.941,13.267-4.24c0.573-0.541,1.121-1.15,1.366-1.899
		c0.245-0.749,0.117-1.669-0.491-2.171c-0.4-0.33-0.939-0.436-1.457-0.469c-2.501-0.158-5.034,1.248-6.223,3.454
		c-0.269,0.499-0.477,1.058-0.418,1.622c0.125,1.201,1.361,1.95,2.513,2.309c2.846,0.886,6.057,0.52,8.631-0.983
		c0.706-0.413,1.42-0.993,1.538-1.803c0.118-0.81-0.774-1.706-1.484-1.298c-0.534,1.349,0.135,2.966,1.295,3.839
		c1.159,0.873,2.691,1.109,4.139,1.015c1.523-0.098,3.389-1.048,3.144-2.555c3.077,0.871,6.374,0.953,9.49,0.235"/>
	
		<line style="fill:none;stroke:#414142;stroke-width:0.5;stroke-miterlimit:10;" x1="201.382" y1="333.666" x2="269.557" y2="333.666"/>
	<path style="fill:#2D2934;" d="M109.941,373.935c0.296,0.066,0.587,0.17,0.875,0.302l-0.121-0.421
		C110.44,373.819,110.191,373.88,109.941,373.935z"/>
	<path style="fill:#4B454E;" d="M112.949,348.643l-1.165,25.337c-0.367-0.116-0.73-0.167-1.089-0.163l0.121,0.421
		c4.588,2.113,8.15,12.059,8.15,12.059v-37.653H112.949z"/>
	<path style="fill:#2D2934;" d="M108.097,373.98l-0.506-11.018l-4.096-14.319h-2.579v37.653c0,0,4.022-11.241,9.025-12.361
		C109.338,373.801,108.723,373.782,108.097,373.98z"/>
	<polygon style="fill:#4B454E;" points="106.932,348.643 103.495,348.643 107.59,362.962 	"/>
	<path style="fill:#4B454E;" d="M110.695,373.817c0.359-0.004,0.723,0.047,1.089,0.163l1.165-25.337h-6.017l0.658,14.319
		L110.695,373.817z"/>
	<path style="fill:#2D2934;" d="M107.59,362.962l0.506,11.018c0.626-0.198,1.241-0.179,1.844-0.044
		c0.25-0.056,0.5-0.116,0.754-0.119L107.59,362.962z"/>
	<path style="fill:none;" d="M122.848,313.594c0,0,0.278-0.319,0.754-0.81l-5.579-3.144c0,0,0.068-0.167,0.19-0.445l-6.228-1.925
		l0.005-0.027h-4.897l-3.629,1.122l22.417,27.928l1.867-5.071c-0.343-0.084-0.548-0.141-0.548-0.141l1.139-6.743l-1.176-5.874
		L122.848,313.594z"/>
	<path style="fill:none;" d="M101.711,308.908c0.122,0.277,0.19,0.445,0.19,0.445l-5.579,3.143c0.476,0.491,0.754,0.81,0.754,0.81
		l-4.314,4.871l-1.176,5.874l1.139,6.743c0,0-0.204,0.057-0.548,0.141l2.169,5.891l4.873,5.667c0,0-0.035,0.037-0.072,0.075
		l4.01,2.485c0.298-0.854,0.531-1.41,0.531-1.41l6.792,1.894l5.757-1.605c0,0,0.232,0.557,0.531,1.41l4.01-2.485
		c-0.037-0.039-0.072-0.075-0.072-0.075l4.873-5.667l0.302-0.82l-22.417-27.928L101.711,308.908z"/>
	<path style="fill:#DF3745;" d="M114.067,300.691c-0.096-0.607-0.223-1.202-0.392-1.766c0.152,0.611,0.257,1.254,0.329,1.902
		C114.025,300.782,114.045,300.736,114.067,300.691z"/>
	<path style="fill:#DF3745;" d="M112.045,306.956h-4.111l0.005,0.027l-0.847,0.262h4.897
		C111.994,307.221,112.014,307.116,112.045,306.956z"/>
	<path style="fill:#E4665E;" d="M114.211,307.244h-2.221l-0.005,0.027l6.228,1.925c0.459-1.042,1.731-3.728,3.433-5.786
		c0.399-2.767,0.124-5.564-2.342-6.326c-2.359-0.729-4.066,1.224-5.238,3.607C114.568,303.853,114.211,307.244,114.211,307.244z"/>
	<path style="fill:#DF3745;" d="M113.946,306.956h-1.901c-0.031,0.16-0.051,0.265-0.055,0.288h2.221c0,0,0.357-3.391-0.144-6.553
		c-0.022,0.045-0.041,0.091-0.063,0.136C114.344,303.86,113.946,306.956,113.946,306.956z"/>
	<path style="fill:#E4665E;" d="M118.213,309.196c-0.122,0.277-0.19,0.445-0.19,0.445l5.579,3.144
		c0.872-0.9,2.412-2.367,4.119-3.513c1.352-2.948,2.257-6.547-0.388-8.037c-2.066-1.164-4.069,0.22-5.687,2.176
		c-0.456,3.165-1.796,6.292-1.796,6.292L118.213,309.196z"/>
	<path style="fill:#E4665E;" d="M119.85,309.702c0,0,1.34-3.127,1.796-6.292c-1.703,2.059-2.974,4.744-3.433,5.786L119.85,309.702z"
		/>
	<path style="fill:#E4665E;" d="M123.602,312.784c-0.476,0.491-0.754,0.81-0.754,0.81l4.314,4.871l-0.172-0.856
		c0,0,2.41-0.81,5.114-1.163c2.253-2.348,4.312-5.472,2.29-7.755c-1.717-1.939-4.351-0.98-6.673,0.579
		c-1.112,2.425-2.526,4.411-2.526,4.411L123.602,312.784z"/>
	<path style="fill:#E4665E;" d="M123.602,312.784l1.593,0.898c0,0,1.414-1.986,2.526-4.411
		C126.014,310.418,124.474,311.885,123.602,312.784z"/>
	<path style="fill:#E4665E;" d="M128.306,319.758l-1.144-1.292l1.176,5.874l0.232-1.374c0,0,3.627,0.143,6.738,1.176
		c2.49-0.979,4.613-2.532,4.127-4.961c-0.586-2.928-4.161-3.146-7.331-2.734C130.27,318.358,128.306,319.758,128.306,319.758z"/>
	<path style="fill:#E4665E;" d="M127.162,318.466l1.144,1.292c0,0,1.964-1.399,3.798-3.311c-2.703,0.352-5.114,1.163-5.114,1.163
		L127.162,318.466z"/>
	<path style="fill:#E4665E;" d="M139.636,328.875c0.414-2.453-1.784-3.89-4.327-4.734c-3.071,1.207-6.702,1.54-6.702,1.54
		l-0.269-1.341l-1.139,6.743c0,0,0.204,0.057,0.548,0.141l0.387-1.052c0,0,2.737,0.628,5.346,1.858
		C136.343,332.091,139.196,331.478,139.636,328.875z"/>
	<path style="fill:#E4665E;" d="M128.339,324.34l0.269,1.341c0,0,3.631-0.333,6.702-1.54c-3.111-1.033-6.738-1.176-6.738-1.176
		L128.339,324.34z"/>
	<path style="fill:#E4665E;" d="M125.881,336.295l0.202,0.252c0.047,0.031,1.972,1.304,3.824,3.079
		c3.159,0.898,6.946,1.293,8.013-1.605c0.987-2.68-1.654-4.679-4.439-5.991c-2.352-0.051-4.702-0.553-5.733-0.806L125.881,336.295z"
		/>
	<polygon style="fill:#DF3745;" points="126.073,336.54 126.083,336.547 125.881,336.295 125.578,337.115 	"/>
	<path style="fill:#E4665E;" d="M127.748,331.224c1.031,0.253,3.382,0.755,5.733,0.806c-2.61-1.23-5.346-1.858-5.346-1.858
		L127.748,331.224z"/>
	<path style="fill:#DF3745;" d="M125.29,337.897l0.288-0.782l-4.873,5.667c0,0,0.035,0.037,0.072,0.075l1.218-0.755
		c0,0,1.516,1.865,2.773,4.183c2.589,1.828,5.803,3.266,7.725,1.031c0.495-0.576,0.714-1.198,0.757-1.84l-5.157-6.425
		C126.485,338.468,125.29,337.897,125.29,337.897z"/>
	<path style="fill:#DF3745;" d="M133.25,345.476c0.131-1.969-1.559-4.14-3.344-5.851c-0.651-0.185-1.248-0.37-1.814-0.574
		L133.25,345.476z"/>
	<path style="fill:#DF3745;" d="M126.083,336.547l2.01,2.505c0.565,0.205,1.163,0.39,1.814,0.574
		C128.055,337.85,126.13,336.578,126.083,336.547z"/>
	<path style="fill:#DF3745;" d="M125.578,337.115l-0.288,0.782c0,0,1.195,0.571,2.802,1.154l-2.01-2.505l-0.01-0.007
		L125.578,337.115z"/>
	<path style="fill:#DF3745;" d="M120.777,342.857l-4.01,2.485c0.511,1.464,1.214,3.834,1.342,6.043
		c1.89,2.368,4.387,4.4,6.765,2.926c2.598-1.61,1.444-5.164-0.107-8.026C122.733,344.85,121.097,343.191,120.777,342.857z"/>
	<path style="fill:#DF3745;" d="M120.777,342.857c0.32,0.334,1.956,1.992,3.99,3.428c-1.257-2.318-2.773-4.183-2.773-4.183
		L120.777,342.857z"/>
	<path style="fill:#DF3745;" d="M116.767,345.343c-0.298-0.854-0.531-1.41-0.531-1.41l-5.757,1.605l1.138,0.317
		c0,0-0.512,3.063-1.716,5.873c1.152,2.813,2.986,5.487,5.692,4.732c2.137-0.596,2.652-2.733,2.516-5.075
		c-1.846-2.313-3.112-4.946-3.112-4.946L116.767,345.343z"/>
	<path style="fill:#DF3745;" d="M114.998,346.439c0,0,1.266,2.633,3.112,4.946c-0.128-2.208-0.831-4.579-1.342-6.043
		L114.998,346.439z"/>
	<path style="fill:#DF3745;" d="M109.963,295.35c2.01,0,3.112,1.576,3.711,3.575c-0.53-2.136-1.606-3.863-3.713-3.863
		c-2.577,0-3.666,2.583-4.104,5.34c0.043,0.087,0.081,0.177,0.123,0.266C106.36,297.919,107.393,295.35,109.963,295.35z"/>
	<path style="fill:#E4665E;" d="M109.963,295.35c-2.57,0-3.604,2.569-3.983,5.318c1.332,2.837,1.927,6.134,1.954,6.288h4.111
		c0.176-0.897,0.791-3.698,1.959-6.129c-0.073-0.648-0.178-1.291-0.329-1.902C113.075,296.926,111.973,295.35,109.963,295.35z"/>
	<path style="fill:#E4665E;" d="M114.004,300.827c-1.167,2.431-1.783,5.232-1.959,6.129h1.901
		C113.946,306.956,114.344,303.86,114.004,300.827z"/>
	<path style="fill:#DF3745;" d="M103.463,308.366l-5.322-6.631c0.021,0.458,0.07,0.921,0.137,1.387
		c1.702,2.059,2.974,4.744,3.433,5.786L103.463,308.366z"/>
	<path style="fill:#E4665E;" d="M107.093,307.244h-1.114c0,0-0.014-0.12-0.032-0.288h-0.233c0,0-0.358-3.392,0.144-6.554
		c-1.172-2.383-2.879-4.336-5.238-3.607c-2.051,0.634-2.585,2.678-2.479,4.94l5.322,6.631L107.093,307.244z"/>
	<path style="fill:#DF3745;" d="M107.935,306.956h-1.988c0.018,0.169,0.032,0.288,0.032,0.288h1.114l0.847-0.262L107.935,306.956z"
		/>
	<path style="fill:#DF3745;" d="M105.714,306.956h0.233c-0.092-0.855-0.331-3.641,0.034-6.288c-0.041-0.088-0.08-0.178-0.123-0.266
		C105.356,303.564,105.714,306.956,105.714,306.956z"/>
	<path style="fill:#E4665E;" d="M105.981,300.668c-0.365,2.647-0.126,5.433-0.034,6.288h1.988
		C107.907,306.802,107.312,303.505,105.981,300.668z"/>
	<path style="fill:#DF3745;" d="M96.322,312.496l5.579-3.143c0,0-0.068-0.167-0.19-0.445l-1.637,0.506c0,0-1.34-3.127-1.796-6.292
		c-1.618-1.956-3.62-3.34-5.687-2.176c-2.645,1.49-1.74,5.089-0.388,8.037C93.911,310.129,95.451,311.596,96.322,312.496z"/>
	<path style="fill:#DF3745;" d="M101.711,308.908c-0.459-1.042-1.731-3.727-3.433-5.786c0.456,3.165,1.796,6.292,1.796,6.292
		L101.711,308.908z"/>
	<path style="fill:#DF3745;" d="M92.763,318.177l4.314-4.871c0,0-0.278-0.319-0.754-0.81l-1.593,0.898c0,0-1.414-1.986-2.526-4.411
		c-2.322-1.559-4.957-2.517-6.673-0.579c-2.022,2.283,0.037,5.407,2.29,7.755c2.704,0.352,5.114,1.163,5.114,1.163L92.763,318.177z"
		/>
	<path style="fill:#DF3745;" d="M96.322,312.496c-0.872-0.9-2.412-2.367-4.119-3.514c1.112,2.425,2.526,4.411,2.526,4.411
		L96.322,312.496z"/>
	<path style="fill:#DF3745;" d="M91.586,324.052l1.176-5.874l-1.144,1.292c0,0-1.964-1.399-3.798-3.311
		c-3.17-0.413-6.745-0.194-7.331,2.734c-0.487,2.429,1.636,3.982,4.126,4.961c3.111-1.033,6.739-1.176,6.739-1.176L91.586,324.052z"
		/>
	<path style="fill:#DF3745;" d="M91.619,319.469l1.144-1.292l0.172-0.856c0,0-2.41-0.81-5.114-1.163
		C89.655,318.07,91.619,319.469,91.619,319.469z"/>
	<path style="fill:#DF3745;" d="M92.177,330.935c0.344-0.084,0.548-0.141,0.548-0.141l-1.139-6.743l-0.269,1.341
		c0,0-3.631-0.333-6.702-1.54c-2.542,0.844-4.74,2.28-4.326,4.733c0.44,2.603,3.293,3.217,6.155,3.155
		c2.61-1.23,5.346-1.857,5.346-1.857L92.177,330.935z"/>
	<path style="fill:#DF3745;" d="M91.586,324.052l-0.232-1.375c0,0-3.627,0.143-6.739,1.176c3.071,1.207,6.702,1.54,6.702,1.54
		L91.586,324.052z"/>
	<path style="fill:#DF3745;" d="M93.852,336.252l0.494,0.575l-2.169-5.891c-1.031,0.253-3.381,0.755-5.733,0.806
		c-2.785,1.312-5.425,3.311-4.439,5.991c1.067,2.898,4.854,2.503,8.013,1.605C91.893,337.54,93.852,336.252,93.852,336.252z"/>
	<path style="fill:#DF3745;" d="M91.79,329.884c0,0-2.737,0.628-5.346,1.857c2.352-0.051,4.702-0.553,5.733-0.806L91.79,329.884z"/>
	<path style="fill:#DF3745;" d="M99.148,342.569c0.037-0.039,0.072-0.075,0.072-0.075l-4.873-5.667l0.288,0.782
		c0,0-2.116,1.018-4.616,1.728c-2.366,2.269-4.599,5.351-2.587,7.691c1.922,2.235,5.136,0.797,7.726-1.031
		c1.256-2.318,2.772-4.183,2.772-4.183L99.148,342.569z"/>
	<path style="fill:#DF3745;" d="M94.346,336.827l-0.494-0.575c0,0-1.959,1.288-3.834,3.086c2.5-0.71,4.616-1.728,4.616-1.728
		L94.346,336.827z"/>
	<path style="fill:#DF3745;" d="M99.148,342.569c-0.32,0.334-1.956,1.992-3.99,3.428c-1.551,2.861-2.705,6.416-0.107,8.026
		c2.379,1.474,4.876-0.558,6.765-2.926c0.128-2.208,0.831-4.579,1.342-6.043L99.148,342.569z"/>
	<path style="fill:#DF3745;" d="M99.148,342.569l-1.218-0.755c0,0-1.516,1.865-2.772,4.183
		C97.192,344.561,98.828,342.902,99.148,342.569z"/>
	<path style="fill:#DF3745;" d="M110.48,345.538l-6.792-1.894c0,0-0.232,0.556-0.531,1.41l1.77,1.097c0,0-1.266,2.633-3.112,4.946
		c-0.136,2.342,0.379,4.478,2.516,5.075c2.613,0.729,4.412-1.74,5.57-4.444c-1.117-2.726-1.594-5.584-1.594-5.584L110.48,345.538z"
		/>
	<path style="fill:#DF3745;" d="M110.48,345.538l-2.172,0.606c0,0,0.477,2.858,1.594,5.584c1.204-2.81,1.716-5.873,1.716-5.873
		L110.48,345.538z"/>
	<path style="fill:#DF3745;" d="M103.157,345.054c-0.511,1.464-1.214,3.835-1.342,6.043c1.846-2.313,3.112-4.946,3.112-4.946
		L103.157,345.054z"/>
	<path style="fill:#F4EDDC;" d="M131.187,326.84c0-11.668-9.459-21.126-21.127-21.126c-2.648,0-5.156,0.544-7.492,1.433
		l24.849,31.701C129.782,335.435,131.187,331.307,131.187,326.84z"/>
	<path style="fill:#F1E5BD;" d="M102.568,307.147c-7.956,3.03-13.635,10.673-13.635,19.693c0,11.668,9.459,21.127,21.127,21.127
		c7.201,0,13.543-3.617,17.357-9.119L102.568,307.147z"/>
</g>
</svg>
