<?xml version="1.0" encoding="iso-8859-1"?>
<!-- Generator: Adobe Illustrator 18.0.0, SVG Export Plug-In . SVG Version: 6.00 Build 0)  -->
<!DOCTYPE svg PUBLIC "-//W3C//DTD SVG 1.1//EN" "http://www.w3.org/Graphics/SVG/1.1/DTD/svg11.dtd">
<svg version="1.1" id="Layer_1" xmlns="http://www.w3.org/2000/svg" xmlns:xlink="http://www.w3.org/1999/xlink" x="0px" y="0px"
	 viewBox="0 0 400 400" style="enable-background:new 0 0 400 400;" xml:space="preserve">
<g>
	<path style="fill:#B9B9B9;" d="M142.994,195.635c-52.389-0.048-95.024-42.558-95.075-94.798
		c-0.051-52.594,43.314-96.027,95.762-95.91c51.589,0.114,94.709,43.661,94.651,95.588
		C238.275,153.244,195.738,195.683,142.994,195.635z M66.195,101.253c0.07,42.859,34.166,76.925,76.907,76.84
		c42.686-0.085,76.713-34.331,76.714-77.209c0.001-42.657-34.361-77.287-76.743-77.343C100.161,23.484,66.124,57.891,66.195,101.253
		z"/>
	<path style="fill:#AC947D;" d="M191.991,184.9c2.566-0.274,3.44,1.605,4.27,3.349c3.163,6.647,6.201,13.353,9.382,19.991
		c1.566,3.268,0.925,5.332-2.731,6.308c-1.875,0.5-3.743,1.124-5.505,1.932c-8.932,4.096-8.906,4.117-13.214-5.078
		c-2.205-4.705-4.423-9.406-6.719-14.067c-1.698-3.447-0.913-5.615,2.78-7.065C184.269,188.693,188.119,186.692,191.991,184.9z"/>
	<path style="fill:#C4C4C4;" d="M113.682,49.635c0,0,55.35-42.327,87.909,66.203l-19.535,9.768
		C182.056,125.606,186.397,58.317,113.682,49.635z"/>
	<path style="fill:#927151;" d="M211.949,280.502c14.922,33.988,29.804,67.994,44.8,101.949c3.371,7.634,7.63,9.434,15.684,7.23
		c3.282-0.898,6.285-2.285,8.991-4.187l-86.942-144.678C200.403,254,206.139,267.268,211.949,280.502z"/>
	<path style="fill:#764E24;" d="M288.834,374.012c-0.527-1.335-1.184-3.401-2.128-5.326c-23.988-48.922-48.079-97.793-71.93-146.782
		c-2.926-6.013-6.958-7.291-12.631-5.206c-2.826,1.038-5.575,2.429-8.137,4.019c-4.455,2.764-5.802,6.216-3.356,11.531
		c1.309,2.841,2.546,5.717,3.829,8.57l86.942,144.678c1.347-0.945,2.639-1.978,3.813-3.217
		C287.225,380.174,288.647,377.793,288.834,374.012z"/>
</g>
</svg>
