<?xml version="1.0" encoding="iso-8859-1"?>
<!-- Generator: Adobe Illustrator 18.0.0, SVG Export Plug-In . SVG Version: 6.00 Build 0)  -->
<!DOCTYPE svg PUBLIC "-//W3C//DTD SVG 1.1//EN" "http://www.w3.org/Graphics/SVG/1.1/DTD/svg11.dtd">
<svg version="1.1" id="Layer_1" xmlns="http://www.w3.org/2000/svg" xmlns:xlink="http://www.w3.org/1999/xlink" x="0px" y="0px"
	 viewBox="0 0 400 400" style="enable-background:new 0 0 400 400;" xml:space="preserve">
<g>
	<path style="fill:#4E4F4F;" d="M58.589,148.744l47.422-79.037h93.298v243.037H94.156C94.156,312.744-42.182,308.792,58.589,148.744
		z"/>
	<path style="fill:#4E4F4F;" d="M339.053,148.744l-47.422-79.037h-93.298v243.037h105.153
		C303.486,312.744,439.824,308.792,339.053,148.744z"/>
	<rect x="137.893" y="258.013" style="fill:#FFFFFF;" width="131.51" height="19.34"/>
	<rect x="146.948" y="277.353" style="fill:#B2B4B6;" width="113.181" height="8.495"/>
	<path style="fill:#97C6C4;" d="M323.947,169.181c0.007,0.08,0.013,0.161,0.02,0.241c-83.256,0-166.512,0-249.767-0.014
		c-0.343,0-0.794,0.27-1.054-0.22c83.054,0,166.108,0,249.163,0C322.854,169.187,323.401,169.183,323.947,169.181z"/>
	<rect x="78.297" y="167.275" style="fill:#C2DBDA;" width="235.64" height="4.476"/>
	<rect x="173.331" y="60.709" style="fill:#D6DEE2;" width="60.288" height="8.998"/>
	<rect x="182.329" y="51.711" style="fill:#F3D6C3;" width="43.641" height="8.998"/>
	<path style="fill:#4E4F4F;" d="M346.581,155.535l6.588-6.832c0,0,0.405-17.647,37.817-10.588c0,0,14.823,18.807-26.823,26.697
		l-10.993-4.639l-6.588,4.639l-7.352-4.639L346.581,155.535z"/>
	<path style="fill:#4E4F4F;" d="M55.736,146.257l-6.588-6.832c0,0-0.405-17.647-37.817-10.588c0,0-14.823,18.807,26.823,26.697
		l10.993-4.639l6.588,4.639l7.352-4.639L55.736,146.257z"/>
	<path style="fill:#4E4F4F;" d="M70.898,314.88c0,0-6.048,31.869,28.226,27.66s36.679-13.638,36.679-13.638L70.898,314.88z"/>
	<path style="fill:#4E4F4F;" d="M346.183,312.744c0,0,6.048,31.869-28.226,27.66c-34.274-4.209-36.679-13.638-36.679-13.638
		L346.183,312.744z"/>
	<path style="fill:#91C4C2;" d="M322.953,163.329c-0.972-4.727-2.075-9.424-3.437-14.057c-3.611-12.289-8.25-24.126-15.498-34.788
		c-4.95-7.282-10.898-13.539-18.787-17.719c-2.21-1.171-4.509-2.128-6.921-2.811c-0.328-0.093-0.701-0.117-0.948-0.41
		c-52.459,0-104.919,0-157.378,0l203.963,75.637C323.619,167.229,323.351,165.266,322.953,163.329z"/>
	<path style="fill:#81BCB9;" d="M119.984,93.543c-3.773,1.161-7.407,2.63-10.759,4.75c-7.167,4.534-12.6,10.74-17.163,17.781
		c-6.049,9.334-10.193,19.526-13.521,30.087c-2.015,6.393-3.476,12.924-4.873,19.47c-0.201,0.942-0.179,1.933-0.523,2.854
		c0,0.234,0,0.468,0,0.703c83.054,0,166.108,0,249.163,0c0.546,0,1.093-0.004,1.639-0.007L119.984,93.543z"/>
	<g>
		<path style="fill:#FEE850;" d="M56.982,238.908c0,0-7.868,25.673,0,33.728c7.868,8.054,46.126,2.794,46.126,2.794
			C55.03,268.887,56.982,238.908,56.982,238.908z"/>
		<path style="fill:#FFEEA3;" d="M56.982,238.908c0,0-1.952,29.978,46.126,36.522v-11.855L56.982,238.908z"/>
	</g>
	<g>
		<path style="fill:#FEE850;" d="M345.262,238.908c0,0,7.868,25.673,0,33.728c-7.868,8.054-46.126,2.794-46.126,2.794
			C347.214,268.887,345.262,238.908,345.262,238.908z"/>
		<path style="fill:#FFEEA3;" d="M345.262,238.908c0,0,1.952,29.978-46.126,36.522v-11.855L345.262,238.908z"/>
	</g>
</g>
</svg>
