<?xml version="1.0" encoding="iso-8859-1"?>
<!-- Generator: Adobe Illustrator 18.0.0, SVG Export Plug-In . SVG Version: 6.00 Build 0)  -->
<!DOCTYPE svg PUBLIC "-//W3C//DTD SVG 1.1//EN" "http://www.w3.org/Graphics/SVG/1.1/DTD/svg11.dtd">
<svg version="1.1" id="Layer_1" xmlns="http://www.w3.org/2000/svg" xmlns:xlink="http://www.w3.org/1999/xlink" x="0px" y="0px"
	 viewBox="0 0 400 400" style="enable-background:new 0 0 400 400;" xml:space="preserve">
<g>
	<path style="fill:#60BBE0;" d="M380.702,194.614c0-90.286-73.191-163.477-163.477-163.477c-37.867,0-72.722,12.879-100.436,34.489
		l209.245,250.981C359.577,286.668,380.702,243.111,380.702,194.614z"/>
	<path style="fill:#70CEF3;" d="M144.777,99.195c-4.911,1.522-9.843,4.679-11.675,11.132c-4.116,14.5-9.602,3.587-9.602,3.587
		c0.343-12.781-6.671-13.88-6.671-13.88c-10.787-5.396-20.077,14.105-20.077,14.105c12.739,3.626,1.563,8.476,1.563,8.476
		c7.387,10.324-5.316,29.12-8.403,27.138c-3.087-1.982-6.489-20.653-6.183-25.799c0.215-3.617,4.407-11.459,6.642-14.807
		c-3.203,1.477-11.196,1.828-13.66,1.901c-14.577,24.455-22.964,53.027-22.964,83.565c0,90.286,73.191,163.477,163.478,163.477
		c41.788,0,79.907-15.688,108.809-41.484L144.777,99.195z"/>
	<path style="fill:#BBE0CF;" d="M93,167.939V156.69l13.784-1.558c0,0,5.904-5.434,12.425-3.26
		c6.521,2.174,11.239,1.359,13.141,2.174c1.902,0.815,4.94,7.608,4.94,8.966c0,1.359,4.1,6.249,4.1,6.249l10.945-1.359
		c0,0-6.468,10.053-4.758,13.857c1.71,3.804,5.517,4.891,7.419,6.793c1.902,1.902,4.077,5.706,5.436,7.336
		c1.359,1.63,4.348,10.597,1.903,16.846c-2.445,6.249-3.803,12.724-6.521,14.377c-2.717,1.653-10.053,3.827-10.325,6.544
		c-0.272,2.717-0.815,4.076-4.347,8.695c-3.532,4.619-13.814,23.095-12.613,29.344c1.201,6.249,0.701,22.008,0,23.367
		c-0.701,1.359,0.114,8.966,1.201,10.325c1.087,1.359-1.902,7.879-6.521,2.989c-4.619-4.891-14.4-17.389-14.4-19.563
		s-2.989-28.801-7.608-33.963s-20.65-21.465-23.638-30.703s-3.929-37.224-3.929-37.224L93,167.939z"/>
	<path style="fill:#BBE0CF;" d="M116.79,65.626l27.987,33.569c6.123-1.897,13.747-1.249,13.747-1.249L174,95.187v-5.989
		c0,0,8.313,2.566,12.429,0.825c4.116-1.742,4.034-3.775,4.034-3.775l6.132-1.397c0,0,7.011-19.372-19.399-22.033l0.591-8.516
		c0,0,38.046-18.487,41.452-21.585c3.408-3.097-91.995-5.877-143.245,78.349c0,0,0.268-0.005,0.731-0.018
		C87.169,93.526,100.775,78.114,116.79,65.626z"/>
	<path style="fill:#96D1B3;" d="M91.71,107.969c0.204-0.854-0.394-0.237-1.339,1.178C91.096,108.814,91.601,108.429,91.71,107.969z"
		/>
	<path style="fill:#BBE0CF;" d="M178.032,101.759c0,0,0.686-2.517,7.203-4.964c6.517-2.447,5.488,2.482,5.488,2.482
		s-0.627,4.674-6.316,5.017C178.718,104.637,178.032,101.759,178.032,101.759z"/>
	<path style="fill:#BBE0CF;" d="M206.5,67.608c-4.458-2.092,3.839-9.453,3.839-9.453s2.058-3.281-1.919-4.467
		s4.325-7.359,6.348-6.33c2.022,1.029,3.023,2.447,3.023,2.447l-0.564,16.663C217.225,66.468,211.645,70.023,206.5,67.608z"/>
	<path style="fill:#BBE0CF;" d="M208.923,76.009c0,0,11.43-12.102,13.432-11.51c2.002,0.591-0.005-3.852-0.005-3.852
		s6.003-1.267,7.433-0.636c1.43,0.631,8.864,2.902,12.296,4.637c3.432,1.735,7.161,2.241,7.733,4.711S240,78.879,240,78.879V82
		h0.026c0,0,6.757-3.023,7.408-5.954c0.651-2.931,2.939,8.586,1.366,10.588c-1.573,2.002-16.96,1.612-18.132,1.326
		c-1.172-0.286-1.535-6.63-1.535-6.63s-10.219,4.264-18.512-0.026C210.62,81.303,207.508,77.48,208.923,76.009z"/>
	<path style="fill:#BBE0CF;" d="M135.864,337.758l-9.781-9.35l3.384-10.191l16.009,14.212l27.837-3.196L190.643,346H195v1.917
		c0,0,25.543,6.342,28.17,9.495l5.035,1.865C228.205,359.276,170.924,359.872,135.864,337.758z"/>
	<path style="fill:#BBE0CF;" d="M360.97,113.908l-7.396,5.824l-1.371-7.019c0,0-6.437-3.398-10.497,0.997
		c-4.06,4.395-4.065,7.074-7.448-1.039s-8.799,4.286-8.799,4.286l-5.753,2.666l-6.429,1.684l-3.045,4.251l-9.474,2.67
		c0,0-2.03,4.737-3.045,4.737c-1.015,0-8.459,0.338-10.489,0c-2.03-0.338-12.804,11.032-8.432,18.542
		c4.372,7.51,16.214-2.64,16.214-2.64l8.797-4.398c0,0-0.677,2.234,1.015,5.346c1.692,3.112,3.045,8.186,3.045,8.186h2.868
		c0,0-1.55-5.815-1.55-10.551c0-4.737,6.818-1.289,6.818-1.289v16.959c0,0,2.322,2.41,3.337,0c1.015-2.41,2.045-13.576,2.045-13.576
		s2.037,3.045,6.436,4.06c4.398,1.015,2.541,12.857,2.541,12.857s5.838,5.075,10.575,3.045c4.737-2.03-1.648,7.105-1.648,7.105
		s-12.835-2.03-25.692-5.752c0,0-5.741,1.353-5.403,5.752c0.338,4.398-17.966-2.354-7.776-12.18c0,0-10.147-9.135-46.688-2.03
		c0,0-13.533,11.504-13.702,19.285c-0.169,7.782,9.306,23.345,9.306,23.345s4.06,0.677,10.489-1.692
		c6.428-2.368,7.782,10.15,7.782,15.902c0,5.752-6.767,17.594-6.767,18.947s1.692,8.797,1.692,10.489
		c0,1.692-2.707,10.15-3.722,12.519s2.368,13.534,4.398,16.24c2.03,2.707-2.03,8.12,0,16.579c2.03,8.458,3.722,7.782,3.722,7.782
		l13.195,0.013c0,0,11.165-18.258,17.932-19.133s9.135-7.675,9.135-7.675h6.758c0,0,15.234-19.732,13.88-27.853
		c0,0,21.315-12.732,23.007-16.134l-10.489-7.587c0,0-4.06-34.235-5.413-38.295c-1.353-4.06,3.722-0.708,3.722-0.708
		s5.075,25.698,6.767,26.375c1.692,0.677,19.962,5.067,24.36,1.684c4.398-3.383-1.015-11.846-7.782-12.861
		c-6.767-1.015,0.677-10.829,0.677-10.829s14.442,12.644,19.401,14.611C382.076,203.403,380.92,138.837,360.97,113.908z"/>
	<path style="fill:#BBE0CF;" d="M324.585,290.345l-6.783-3.101l1.854-10.333c0,0,6.952-9.558,11.344-10.29
		c4.391-0.732,5.001-0.043,5.001-0.043v12.24c0,0-11.052,5.813-11.54,9.961S324.585,290.345,324.585,290.345z"/>
	<path style="fill:#95D0B3;" d="M248.077,215.347c0,0,4.635-3.903,5.367,0c0.732,3.903,0,14.73,0,15.416s-3.903,1.905-3.903,1.905
		S246.369,223.397,248.077,215.347z"/>
	<path style="fill:#BBE0CF;" d="M298.089,112.657c0,0,5.123-7.336,8.783-7.336c3.659,0,3.659,3.668,3.659,3.668
		s-5.123,5.961-8.051,6.757s-5.367,0-5.367,0S296.832,114.305,298.089,112.657z"/>
	<path style="fill:#BBE0CF;" d="M303.809,119.62c0,0,8.186-9.608,11.114-10.002c2.928-0.394,3.415,2.316,3.415,2.316l-11.954,9.371
		C306.384,121.305,305.137,123.493,303.809,119.62z"/>
	<path style="fill:#BBE0CF;" d="M91.71,107.969c-0.109,0.459-0.614,0.845-1.339,1.178c-2.235,3.347-6.427,11.189-6.642,14.807
		c-0.306,5.147,3.096,23.817,6.183,25.799c3.087,1.982,15.789-16.814,8.403-27.138c0,0,11.176-4.849-1.563-8.476
		c0,0,9.289-19.501,20.077-14.105c0,0,7.014,1.099,6.671,13.88c0,0,5.486,10.912,9.602-3.587c1.831-6.453,6.764-9.611,11.675-11.132
		L116.79,65.626c-16.015,12.488-29.633,27.9-40.078,45.423c2.464-0.073,10.457-0.424,13.66-1.901
		C91.317,107.733,91.914,107.116,91.71,107.969z"/>
	<path style="fill:#E78585;" d="M22.547,102.167C-10.174,169.186,184.29,229.311,184.29,229.311l-12.273,17.391l94.429-12.914
		C77.443,183.651,30.745,133.244,22.547,102.167z"/>
	<path style="fill:#E26767;" d="M192.515,193.945C72.304,164.031,46.821,117.498,46.821,117.498
		c3.736-7.911,17.235-9.543,32.163-8.636c2.585-4.876,6.433-11.422,11.05-17.078c-28.982-6.074-47.655-3.058-56.151-0.737
		c-4.038,1.42-6.524,3.599-7.959,5.338c-1.323,1.933-2.437,3.861-3.376,5.783c8.197,31.077,54.896,81.484,243.899,131.622
		l-70.608-58.678L192.515,193.945z"/>
</g>
</svg>
