<?xml version="1.0" encoding="utf-8"?>
<!-- Generator: Adobe Illustrator 18.1.1, SVG Export Plug-In . SVG Version: 6.00 Build 0)  -->
<!DOCTYPE svg PUBLIC "-//W3C//DTD SVG 1.1//EN" "http://www.w3.org/Graphics/SVG/1.1/DTD/svg11.dtd">
<svg version="1.1" id="Layer_1" xmlns="http://www.w3.org/2000/svg" xmlns:xlink="http://www.w3.org/1999/xlink" x="0px" y="0px"
	 viewBox="0 0 400 400" enable-background="new 0 0 400 400" xml:space="preserve">
<g>
	<path fill="#FFFFFF" d="M6.1,184.5c0-33.9,0.1-67.7-0.1-101.6c0-3.4,0.7-4,4-4C50.2,79.1,90.5,79,130.7,79c3,3.8,3.9,8.1,3.9,12.9
		c-0.2,9,0.1,17.9-0.1,26.9c-0.1,4.8,1.6,6.8,6.6,6.8c37.9-0.1,75.7-0.1,113.6,0c5,0,6.7-2.1,6.6-6.8c-0.2-9,0.1-17.9-0.1-26.9
		c-0.1-4.8,0.8-9.1,3.9-12.9c40.1,0,80.3,0.1,120.4-0.1c3.6,0,4.3,0.7,4.3,4.3c-0.2,33.8-0.1,67.5-0.1,101.3
		c-3.3,2.2-7,2.7-10.9,2.7c-9.4-0.1-18.8,0.2-28.1-0.1c-4.9-0.2-8.1,1.7-11.1,5.4c-24.1,30.3-48.4,60.5-72.7,90.6
		c-2.9,3.6-4.3,7.4-4.2,12c0.1,16.2,0,32.3,0.1,48.5c0,4.1-0.5,8-3.6,11c-40.7,0-81.5,0-122.2,0c-3.4-3.2-3.6-7.4-3.6-11.6
		c0-17.4-0.1-34.7,0-52.1c0-4.2-1.2-7.7-3.9-11c-23.7-29.4-47.3-58.8-70.9-88.3c-2.6-3.3-5.6-4.6-9.7-4.6c-10.6,0.2-21.2,0-31.7,0.1
		C13,187.2,9.4,186.6,6.1,184.5z M263.7,262.8c0.6-0.4,1.1-0.5,1.3-0.8c18.9-23.5,37.8-47,56.7-70.5c0.7-0.9,1.9-1.9,1.3-3.1
		c-0.8-1.9-2.8-1.2-4.3-1.2c-15.4-0.1-30.8,0-46.1-0.1c-9.4,0-11.4-2-11.4-11.1c-0.1-9.6-0.1-19.2,0-28.8c0.1-4.7-1.4-7-6.5-7
		c-37.9,0.1-75.9,0.1-113.8,0c-4.6,0-6.5,1.8-6.4,6.4c0.2,9.8,0.1,19.6,0,29.4c-0.1,8.9-2.1,11-10.9,11.1c-14.2,0.1-28.4,0-42.5,0.1
		c-1.9,0-4.6-1-5.6,0.9c-1,2,1.4,3.5,2.6,4.9c16.6,20.7,33.2,41.4,49.9,62.1c1.2,1.5,1.9,3.6,4.2,3.9c3.9-12.5,3.9-12.5,17.6-12.5
		c31.5,0,63.1,0,94.6,0c15.9,0,15.9,0,18.5,15.5C263,262.2,263.2,262.3,263.7,262.8z M52,131.2L52,131.2c0,8.8-0.1,17.6,0.1,26.3
		c0.1,6,2.3,7.2,7.5,4.1c13.8-8.3,27.5-16.9,41.4-25.3c3.7-2.3,4.5-4.1,0.2-6.7c-14.7-8.8-29.4-17.8-43.9-26.9
		c-4.6-2.9-5.3-1-5.3,3.3C52.1,114.4,52,122.8,52,131.2z M180.1,300.9c0,9,0.1,17.9,0,26.9c-0.1,4.6,1,5.9,5.4,3.2
		c14.5-9.1,29.2-18,43.8-26.8c3.8-2.3,3.8-4,0-6.2c-14.6-8.9-29.3-17.8-43.8-26.8c-3.8-2.3-5.4-1.6-5.4,2.9
		C180.2,283,180.1,291.9,180.1,300.9z M308.2,132.5c0,9,0,18,0,26.9c0,3.9,0.9,6,5.2,3.4c14.8-9.1,29.6-18.2,44.4-27.2
		c3.4-2.1,3-3.6-0.2-5.5c-14.7-8.9-29.3-17.8-43.9-26.9c-4.5-2.8-5.6-0.8-5.6,3.4C308.2,115.3,308.2,123.9,308.2,132.5z"/>
</g>
</svg>
