<?xml version="1.0" encoding="utf-8"?>
<!-- Generator: Adobe Illustrator 18.1.1, SVG Export Plug-In . SVG Version: 6.00 Build 0)  -->
<!DOCTYPE svg PUBLIC "-//W3C//DTD SVG 1.1//EN" "http://www.w3.org/Graphics/SVG/1.1/DTD/svg11.dtd">
<svg version="1.1" id="Layer_1" xmlns="http://www.w3.org/2000/svg" xmlns:xlink="http://www.w3.org/1999/xlink" x="0px" y="0px"
	 viewBox="0 0 400 400" enable-background="new 0 0 400 400" xml:space="preserve">
<g>
	<path fill="#FFFFFF" d="M197.6,191.9c-51.9,0-103.9,0.2-155.8-0.2c-10.2-0.1-13.4,3.2-13.2,13.3c0.5,31.8,0.1,63.6,0.3,95.4
		c0.1,7.8-1.2,12.6-10.9,12.6c-9.3,0-11.2-4.1-11.2-12.3c0.3-37.4,0-74.9,0.1-112.3c0-14.2,4.2-18.3,18.4-18.3
		c115.2-0.1,230.3-0.1,345.5,0c14.2,0,18.4,4.1,18.4,18.3c0.1,37.4-0.1,74.9,0.1,112.3c0.1,8.2-1.9,12.2-11.2,12.3
		c-9.6,0-10.9-4.8-10.8-12.6c0.2-32.1-0.2-64.3,0.2-96.4c0.1-9.2-2.9-12.3-12.2-12.2C302.9,192,250.2,191.9,197.6,191.9z"/>
	<path fill="#FFFFFF" d="M158.3,137.9c0,5.4,0,10.9,0,16.3c0.1,9.6-6.9,7.9-12.7,8.1c-5.9,0.2-11.7,0.3-11.5-8.3
		c0.2-10.6-0.4-21.2,0.3-31.8c1-16.1,14.9-29.9,31.4-30.5c20.8-0.7,41.7-0.8,62.5,0c17.5,0.6,31.1,15,31.9,32.3
		c0.4,9.5-0.3,19.1,0.2,28.6c0.5,9.5-5.3,9.8-12.3,9.8c-7.1,0-12.9-0.6-12.1-10c0.4-4.8,0.1-9.7,0.1-14.5c-1.2,0-2.3-0.1-3.5-0.1
		c0,4.9-0.2,9.8,0,14.7c0.4,7.3-3,10-10.1,9.9c-15.9-0.3-31.8-0.6-47.7,0.1c-10,0.4-13.4-3.7-12.6-13c0.3-3.8,0.1-7.6,0.1-11.4
		C160.8,138,159.5,138,158.3,137.9z"/>
	<path fill="#FFFFFF" d="M197.9,25.6c17.1,0.1,30.7,13.7,30.3,30.1c-0.5,16.5-14.4,30.1-30.9,30.2C180.4,86,165.9,71.8,165.9,55
		C166,38,179.6,25.5,197.9,25.6z"/>
</g>
</svg>
