<?xml version="1.0" encoding="utf-8"?>
<!-- Generator: Adobe Illustrator 18.1.1, SVG Export Plug-In . SVG Version: 6.00 Build 0)  -->
<!DOCTYPE svg PUBLIC "-//W3C//DTD SVG 1.1//EN" "http://www.w3.org/Graphics/SVG/1.1/DTD/svg11.dtd">
<svg version="1.1" id="Layer_1" xmlns="http://www.w3.org/2000/svg" xmlns:xlink="http://www.w3.org/1999/xlink" x="0px" y="0px"
	 viewBox="0 0 800 800" enable-background="new 0 0 800 800" xml:space="preserve">
<g>
	<path fill="none" stroke="#FFFFFF" stroke-width="39.2715" stroke-linecap="round" stroke-miterlimit="10" d="M128.4,317.5
		c0,0,17.1-286.2,274.7-286.3c226.3,0,274.1,230.9,274.1,286.3c0,72.4-40.6,159.4-60.4,191.7c-34.2,55.9-145.4,198.6-145.4,198.6
		s-132.5,141.9-272.1,0c-45.1-45.9-37.9-118.3-37.9-118.3"/>
	<path fill="none" stroke="#FFFFFF" stroke-width="39.2715" stroke-linecap="round" stroke-miterlimit="10" d="M223,419.7
		c0,0,47.3,10,61.5-39.9c14.2-50-61.5-55.7-61.5-66.5c0-10.8,29-179.8,180.1-179.8s174.9,175.1,174.9,175.1"/>
</g>
</svg>
