<?xml version="1.0" encoding="utf-8"?>
<!-- Generator: Adobe Illustrator 18.1.1, SVG Export Plug-In . SVG Version: 6.00 Build 0)  -->
<!DOCTYPE svg PUBLIC "-//W3C//DTD SVG 1.1//EN" "http://www.w3.org/Graphics/SVG/1.1/DTD/svg11.dtd">
<svg version="1.1" id="Layer_1" xmlns="http://www.w3.org/2000/svg" xmlns:xlink="http://www.w3.org/1999/xlink" x="0px" y="0px"
	 viewBox="0 0 400 400" enable-background="new 0 0 400 400" xml:space="preserve">
<g>
	<path fill="none" stroke="#FFFFFF" stroke-width="3" stroke-linecap="round" stroke-miterlimit="10" d="M53.9,154.7
		c0,0,9-150.2,144.2-150.2c118.7,0,143.9,121.2,143.9,150.2c0,38-21.3,83.6-31.7,100.6c-17.9,29.3-76.3,104.2-76.3,104.2
		s-69.5,74.5-142.8,0c-23.7-24.1-19.9-62.1-19.9-62.1"/>
	<path fill="none" stroke="#FFFFFF" stroke-width="3" stroke-linecap="round" stroke-miterlimit="10" d="M103.5,208.4
		c0,0,24.8,5.3,32.3-21s-32.3-29.2-32.3-34.9c0-5.7,15.2-94.4,94.5-94.4s91.8,91.9,91.8,91.9"/>
</g>
</svg>
