<?xml version="1.0" encoding="utf-8"?>
<!-- Generator: Adobe Illustrator 18.1.1, SVG Export Plug-In . SVG Version: 6.00 Build 0)  -->
<!DOCTYPE svg PUBLIC "-//W3C//DTD SVG 1.1//EN" "http://www.w3.org/Graphics/SVG/1.1/DTD/svg11.dtd">
<svg version="1.1" id="Layer_1" xmlns="http://www.w3.org/2000/svg" xmlns:xlink="http://www.w3.org/1999/xlink" x="0px" y="0px"
	 viewBox="0 0 400 400" enable-background="new 0 0 400 400" xml:space="preserve">
<g>
	<circle fill="#F3F3F3" cx="246.3" cy="176.9" r="26.5"/>
	<path fill="#FFFFFF" d="M329.4,178c-21.8-17.1-45.2-31.4-71.2-41.2c-5.4-2-10.9-3.9-16.6-4.9c0.7,0.6,1.4,1.1,2,1.7
		c6.2,5,11.3,11,15.4,17.8c0.3,0.5,1,1.1,0.5,1.7c-0.4,0.5-1-0.2-1.5-0.4c-4.4-1.8-8.8-2.7-13.6-2.2c-15.3,1.7-25.9,15.4-23.4,30.6
		c1.6,9.9,7.3,16.9,16.6,20.5c9.4,3.6,18.2,2.1,26.2-4.1c1.5-1.2,2.8-2.7,4.3-4.2c-0.4,17.6-13.1,44.1-40.3,56.2
		c-28.4,12.7-62.7,4.1-81.8-20.8c-11.6-15.1-16.3-32.3-13.8-51.2c2.5-18.9,11.8-34,27.1-46.1c-1.2,0.3-1.8,0.4-2.4,0.6
		c-12.5,3.5-24.4,8.3-36,14.1c-27.8,14-52.5,32.3-75,53.8c-2.5,2.4-2.4,2.4,0,4.8c15.6,15.2,32.7,28.7,51.1,40.3
		c19.2,12.1,39.4,21.9,61.3,28c21.6,6,43.5,7.6,65.7,4c18.1-3,35.3-8.7,51.7-16.6c29.9-14.3,56.1-33.8,79.9-56.7
		c1.2-1.2,1-1.8-0.1-2.8C347.2,192.8,338.5,185.1,329.4,178z"/>
	<path fill="#FFFFFF" d="M46,204.6c15.6,15.2,32.7,28.7,51.1,40.3c19.2,12.1,39.4,21.9,61.3,28c21.6,6,43.5,7.6,65.7,4
		c18.1-3,35.3-8.7,51.7-16.6c29.9-14.3,56.1-33.8,79.9-56.7c1.2-1.1,1-1.8,0-2.7l-310.6-0.1C43.5,202.3,43.9,202.6,46,204.6z"/>
	<path fill="#FFFFFF" d="M355.6,200.8c-8.4-8-17-15.6-26.1-22.8c-21.8-17.1-45.2-31.4-71.2-41.2c-5.4-2-10.9-3.9-16.6-4.9
		c-36.6-13.5-82.3-0.5-82.3-0.5c-1.2,0.3-1.8,0.4-2.4,0.6c-12.5,3.5-24.4,8.3-36,14.1c-27.8,14-52.5,32.3-75,53.8
		c-0.3,0.3-0.6,0.6-0.9,0.9c-1.5,1.6-1.2,1.9,0.9,3.9c15.6,15.2,32.7,28.7,51.1,40.3c19.2,12.1,39.4,21.9,61.3,28
		c21.6,6,43.5,7.6,65.7,4c18.1-3,35.3-8.7,51.7-16.6c29.9-14.3,56.1-33.8,79.9-56.7C356.8,202.5,356.7,201.8,355.6,200.8
		C355.6,200.8,355.6,200.8,355.6,200.8z"/>
	<path fill="#BBBDBF" d="M391.8,200.9c-7.7-9-15.8-17.6-24.5-25.6c-20.3-18.7-42.2-35.1-66.5-48.2c-22.7-12.3-46.5-21.4-72.1-25.6
		c-18.1-3-36.2-3.1-54.3-0.5c-22,3.3-42.9,10.2-62.8,19.8C89.5,131.5,69.1,145,50,160.6C35.1,172.8,21.2,186,8.8,200.7
		c-1,1.1-1.1,1.9,0,3.1c3.9,4.4,7.6,8.9,11.7,13.1c12.9,13.3,26.8,25.5,41.7,36.5c23.8,17.7,49.2,32.2,77.4,41.7
		c19.7,6.6,39.9,10.4,60.8,10.4c3.7-0.1,7.4-0.1,11.1-0.4c12.2-0.8,24.2-2.8,36-5.9c26.2-7,50.4-18.5,73.1-33.3
		c26.7-17.4,50.8-37.9,71.5-62.2C392.9,202.5,392.7,201.8,391.8,200.9z M355.7,203.6c-23.8,22.9-50,42.4-79.9,56.7
		c-16.5,7.9-33.7,13.7-51.7,16.6c-22.2,3.6-44.1,2-65.7-4c-21.9-6.1-42.2-15.9-61.3-28c-18.4-11.7-35.4-25.1-51.1-40.3
		c-2.1-2-2.4-2.3-0.9-3.9c0.2-0.3,0.5-0.5,0.9-0.9c22.5-21.5,47.2-39.9,75-53.8c11.6-5.8,23.5-10.6,36-14.1c0.6-0.2,1.2-0.3,2.4-0.6
		c0,0,45.7-13,82.3,0.5c5.7,1.1,11.2,2.9,16.6,4.9c26,9.8,49.4,24.1,71.2,41.2c9.1,7.1,17.7,14.8,26.1,22.8c0,0,0,0.1,0.1,0.1
		C356.7,201.8,356.8,202.5,355.7,203.6z"/>
	<path fill="#3892CC" d="M263.8,197.4c-8,6.2-16.8,7.8-26.2,4.1c-9.3-3.6-15-10.6-16.6-20.5c-2.5-15.3,8.1-29,23.4-30.6
		c4.8-0.5,9.2,0.4,13.6,2.2c0.5,0.2,1.1,0.8,1.5,0.4c0.5-0.6-0.2-1.2-0.5-1.7c-4.1-6.8-9.2-12.8-15.4-17.8c-0.7-0.6-1.4-1.1-2-1.7
		c-36.6-13.5-82.3-0.5-82.3-0.5c-15.4,12.1-24.6,27.2-27.1,46.1c-2.5,19,2.2,36.1,13.8,51.2c19.1,24.9,53.4,33.4,81.8,20.8
		c27.2-12.1,39.9-38.7,40.3-56.2C266.6,194.8,265.4,196.3,263.8,197.4z"/>
</g>
</svg>
