<?xml version="1.0" encoding="utf-8"?>
<!-- Generator: Adobe Illustrator 18.1.1, SVG Export Plug-In . SVG Version: 6.00 Build 0)  -->
<!DOCTYPE svg PUBLIC "-//W3C//DTD SVG 1.1//EN" "http://www.w3.org/Graphics/SVG/1.1/DTD/svg11.dtd">
<svg version="1.1" id="Layer_1" xmlns="http://www.w3.org/2000/svg" xmlns:xlink="http://www.w3.org/1999/xlink" x="0px" y="0px"
	 viewBox="0 0 400 400" enable-background="new 0 0 400 400" xml:space="preserve">
<g>
	<path fill="none" stroke="#818181" stroke-width="2" d="M34.1,95.5c-15.8,0.9-28.5,13.4-29.8,29.1l-0.1,0L3.8,285
		c0,16.9,13.1,30.7,29.8,31.8l0,0.1l327.6,0.7c17.5,0,31.8-14.1,31.8-31.7l0.4-160.3l-0.1,0c-1.2-16.4-14.9-29.3-31.6-29.3
		L34.1,95.5L34.1,95.5z"/>
	<circle fill="none" stroke="#818181" stroke-width="2" cx="18.3" cy="139.2" r="3.5"/>
	<path fill="none" stroke="#818181" stroke-width="2" d="M17.6,183.1c1,0,1.9,0.8,1.9,1.9v43c0,1-0.8,1.9-1.9,1.9l0,0
		c-1,0-1.9-0.8-1.9-1.9v-43C15.7,183.9,16.6,183.1,17.6,183.1L17.6,183.1z"/>
	<rect x="42.8" y="108.7" fill="#3892CC" width="310.4" height="194.9"/>
	<path fill="none" stroke="#818181" stroke-width="2" d="M362.3,190.1v4V217v4c0,2.9,2.4,5.3,5.3,5.3h7.2c2.9,0,5.3-2.4,5.3-5.3v-4
		v-22.9v-4c0-2.9-2.4-5.3-5.3-5.3h-7.2C364.7,184.8,362.3,187.2,362.3,190.1z"/>
	<rect x="367.6" y="258.7" fill="none" stroke="#818181" stroke-width="2" width="6.3" height="13.2"/>
	<rect x="367.6" y="139.2" fill="none" stroke="#818181" stroke-width="2" width="6.3" height="13.2"/>
	<g>
		<path fill="#FFFFFF" d="M218,208.9c-4.5-2.8-9.1-5.6-13.6-8.3l-19.7,28.7C195.8,222.4,206.8,215.7,218,208.9z"/>
		<path fill="#FFFFFF" d="M204.4,200.6c-7.1-4.3-14.2-8.7-21.3-13.1c0,14.3,0,28.4,0,42.8c0.5-0.3,1.1-0.7,1.6-1L204.4,200.6z"/>
	</g>
	<path fill="#FFFFFF" d="M331.2,281.2l-1.3,1.3c0.7,0.7,1.1,1.6,1.1,2.7c0,1-0.4,2-1.1,2.7l1.3,1.3c1-1,1.7-2.4,1.7-4
		C332.9,283.7,332.2,282.3,331.2,281.2z"/>
	<path fill="#FFFFFF" d="M336.6,285.3c0-2.6-1.1-5-2.8-6.7l-1.3,1.3c1.4,1.4,2.2,3.3,2.2,5.4c0,2.1-0.8,4-2.2,5.4l1.3,1.3
		C335.6,290.2,336.6,287.9,336.6,285.3z"/>
	<path fill="#FFFFFF" d="M340.4,285.3c0-3.7-1.5-7-3.9-9.3l-1.3,1.3c2.1,2,3.3,4.9,3.3,8c0,3.1-1.3,6-3.3,8l1.3,1.3
		C338.9,292.2,340.4,288.9,340.4,285.3z"/>
	<polygon fill="#FFFFFF" points="316.9,289 321.9,289 327.3,294 327.3,276.5 322,281.5 316.9,281.5 	"/>
</g>
</svg>
