<?xml version="1.0" encoding="utf-8"?>
<!-- Generator: Adobe Illustrator 18.1.1, SVG Export Plug-In . SVG Version: 6.00 Build 0)  -->
<!DOCTYPE svg PUBLIC "-//W3C//DTD SVG 1.1//EN" "http://www.w3.org/Graphics/SVG/1.1/DTD/svg11.dtd">
<svg version="1.1" id="Layer_1" xmlns="http://www.w3.org/2000/svg" xmlns:xlink="http://www.w3.org/1999/xlink" x="0px" y="0px"
	 viewBox="0 0 400 400" enable-background="new 0 0 400 400" xml:space="preserve">
<g>
	<rect x="47.4" y="39.2" fill="#595A5C" width="270.1" height="197.9"/>
	<g>
		<path fill="#231F20" d="M182.3,271.9c-48.6,0-97.2,0-145.8,0c-16.3,0-28.2-11.8-28.2-28.1c0-70.5,0-141,0-211.5
			C8.2,16,20.1,4.2,36.5,4.2c97.3,0,194.7,0,292,0c16.3,0,28.2,11.8,28.2,28.1c0,70.5,0,141,0,211.5c0,16.3-11.9,28.1-28.2,28.1
			C279.8,272,231,271.9,182.3,271.9z M182.2,237c43.1,0,86.2,0,129.4,0c5.9,0,6,0,6-5.7c0-62.2,0-124.4,0-186.7c0-5.5,0-5.5-5.7-5.5
			c-86.2,0-172.5,0-258.7,0c-5.7,0-5.7,0-5.7,5.9c0,62.1,0,124.2,0,186.2c0,5.7,0,5.7,5.9,5.7C96.3,237,139.3,237,182.2,237z
			 M337.4,131.9c-3.7-0.1-6.5,2.5-6.7,6c-0.1,3.4,2.8,6.3,6.3,6.3c3.8,0.1,6.4-2.4,6.5-6C343.7,134.6,341.2,132,337.4,131.9z"/>
	</g>
	<g>
		<g>
			<g>
				<g>
					<g>
						<g>
							<polygon fill="#EF5D2F" points="181.6,104.3 153.1,132.8 181.6,161.3 210,189.8 210,75.9 							"/>
						</g>
					</g>
				</g>
			</g>
		</g>
		<g>
			<g>
				<g>
					<g>
						<g>
							<polygon fill="#DF2649" points="238.5,106.9 210,78.5 210,192.4 238.5,163.9 267,135.4 							"/>
						</g>
					</g>
				</g>
			</g>
		</g>
	</g>
	<path fill="#E9C29C" d="M249.1,393.9c-15.1,0-30.2,0-45.3,0c-1.8,0-1.8,0-1.7-1.8c0.2-6.7-2.1-12.6-5.3-18.3
		c-2.8-4.9-6.2-9.4-9.9-13.6c-1.6-1.8-2.8-3.9-4.2-5.9c-2.7-3.7-4.8-7.8-7.6-11.5c-5-6.5-10.3-12.9-15.6-19.2
		c-3.5-4.2-5.7-9-7.5-14.1c-2.6-7.8-4.5-15.8-5-23.9c-0.6-9.4-3.5-18.1-6.4-26.9c-1.1-3.2-2.2-6.4-3.3-9.7c-0.4-1-0.4-2-0.3-3.1
		c0.3-4.4,0.8-8.8,0.9-13.2c0.1-3.1-0.7-6-1.7-8.9c-1.1-3.2-2.5-6.2-4.4-9c-0.6-0.9-0.7-1.7-0.6-2.7c0.2-1.2,0.5-2.2,1.1-3.1
		c1.6-2.7,4.7-4.1,8.6-3.9c7.3,0.4,12.6,3.9,16.1,10.2c1.6,2.9,3,6,3.6,9.3c1.5,7.9,4,15.6,6.9,23.2c2.3,6.1,9.5,10.7,15.9,10.3
		c2.4-0.1,4.2-1.5,6-2.9c0.6-0.5,1.2-1.1,1.8-1.6c2.6-2,3.6-4.6,3.6-7.9c0.1-10.4,0.3-20.8,0.6-31.1c0.2-7.7,0.4-15.3,0.5-23
		c0.3-11.7,0.6-23.3,0.8-35c0.1-7.6,0.4-15.2,0.6-22.8c0.1-3.9,0.2-7.9,0.2-11.8c0-0.6,0.1-1.2,0.4-1.7c1.7-2.5,3.6-4.9,6.1-6.7
		c3.8-2.7,7.9-2.5,11.4,0.7c2.3,2.1,4,4.6,5.4,7.4c0.6,1.2,0.5,2.4,0.6,3.6c0.5,7.1,1,14.3,1.5,21.4c0.5,7.3,1,14.6,1.5,21.8
		c0.4,5.7,0.8,11.4,1.1,17.1c0.5,7.6,1.1,15.1,1.6,22.7c0.1,0.9,0.1,1.9,0.2,2.8c0.1,0.7,0.4,1,1.2,1c3.7-0.2,7.3,0.3,10.9,0.9
		c5.4,1,9.3,4.3,12.7,8.4c3.3,3.8,5.7,8.2,7.7,12.8c0.6,1.3,1.3,1.9,2.6,2.2c6.4,1.5,12.2,4.4,17.2,8.8c6,5.2,10.5,11.5,12.5,19.2
		c1,4.1,2.4,7.8,4.4,11.5c0.5,0.9,1.2,1.7,2.1,2.3c3.5,2.3,6.4,5.1,9.3,8.1c2.4,2.5,2.6,5.6,2.9,8.7c0.7,8.4-0.7,16.7-3.3,24.6
		c-1.7,5.1-2.7,10.2-4,15.4c-2.5,10-5.5,19.9-10.6,28.9c-2.5,4.4-2.3,8.5-1.1,12.9c1.3,5.1,2.9,10.2,4.3,15.3
		c0.5,1.6,0.4,1.8-1.4,1.8C279.6,393.9,264.3,393.9,249.1,393.9z"/>
	<path fill="#D7935C" stroke="#D7935C" stroke-miterlimit="10" d="M248.8,264.5l2.4-1.1l21.5-21.8c0,0,0.2-1.4-11.6-4.5l-2.8-4.1
		L248.8,264.5z"/>
	<path fill="#D7935C" d="M293.6,268.5l-3.2,75.3l-0.9,22.6l1.6,3.6c0,0,26.8-55.6,19.1-80c-7.6-24.4-0.2-0.7-0.2-0.7
		s-4.1-7.4-12-11.9C298,277.5,294,269.9,293.6,268.5z"/>
	<polygon fill="#D7935C" points="296.4,392.9 291.1,370 289.5,366.4 290.2,349.4 267.2,393.9 296.4,393.9 	"/>
	<polygon fill="#D7935C" points="235.1,212.4 227.2,235 227.5,211.2 	"/>
	<path fill="#D7935C" d="M156.4,319.3c0,0-11.6-18.6-11.1-44.7c0,0-5.8-23.6-8-25.5c-2.3-1.8,0.8-16.5,0.5-18.4c0,0-1.9-9.6-6-15.8
		c0,0-1.6-2.6,1-6.5c2.6-3.9,5.4,14.7,6,15.9c0.6,1.2,4.9,9.9,6.1,19.8c1.2,9.9,2.8,10.5,5.8,29.5l30,77.8"/>
	<polygon opacity="0.38" fill="#FFFFFF" points="49,37.6 317.5,150.8 317.5,39.2 	"/>
</g>
</svg>
