<?xml version="1.0" encoding="utf-8"?>
<!-- Generator: Adobe Illustrator 18.1.1, SVG Export Plug-In . SVG Version: 6.00 Build 0)  -->
<!DOCTYPE svg PUBLIC "-//W3C//DTD SVG 1.1//EN" "http://www.w3.org/Graphics/SVG/1.1/DTD/svg11.dtd">
<svg version="1.1" id="Layer_1" xmlns="http://www.w3.org/2000/svg" xmlns:xlink="http://www.w3.org/1999/xlink" x="0px" y="0px"
	 viewBox="0 0 400 400" enable-background="new 0 0 400 400" xml:space="preserve">
<g>
	<path fill="none" stroke="#818181" stroke-width="2" d="M34.4,86C18.5,86.9,5.8,99.5,4.5,115.3H4.4v160.8
		c0,16.9,13.2,30.8,29.9,31.8v0.1h328.7c17.6,0,31.9-14.3,31.9-31.9V115.3h-0.1c-1.3-16.4-15-29.4-31.7-29.4L34.4,86L34.4,86z"/>
	<circle fill="none" stroke="#818181" stroke-width="2" cx="18.7" cy="129.4" r="3.5"/>
	<path fill="none" stroke="#818181" stroke-width="2" d="M18.1,173.4c1,0,1.9,0.8,1.9,1.9v43.2c0,1-0.8,1.9-1.9,1.9l0,0
		c-1,0-1.9-0.8-1.9-1.9v-43.2C16.2,174.3,17,173.4,18.1,173.4L18.1,173.4z"/>
	<rect x="41.7" y="98.8" fill="none" stroke="#676767" stroke-width="2" stroke-miterlimit="10" width="311.4" height="195.5"/>
	<path fill="none" stroke="#818181" stroke-width="2" d="M363.9,180.4v4v23v4c0,2.9,2.4,5.3,5.3,5.3h7.2c2.9,0,5.3-2.4,5.3-5.3v-4
		v-23v-4c0-2.9-2.4-5.3-5.3-5.3h-7.2C366.3,175.1,363.9,177.5,363.9,180.4z"/>
	<rect x="369.2" y="249.3" fill="none" stroke="#818181" stroke-width="2" width="6.4" height="13.2"/>
	<rect x="369.2" y="129.4" fill="none" stroke="#818181" stroke-width="2" width="6.4" height="13.2"/>
	<rect x="47" y="147.7" fill="none" width="310.8" height="36.6"/>
	<text transform="matrix(1 0 0 1 63.335 163.9854)" fill="#595A5C" font-family="'OpenSans-Semibold'" font-size="19.0585">Watch a video for another life!</text>
	<g>
		<path fill="#3892CC" d="M256.9,229.9c-4.6-2.8-9.1-5.6-13.6-8.4l-19.8,28.8C234.7,243.5,245.7,236.7,256.9,229.9z"/>
		<path fill="#3892CC" d="M243.2,221.5c-7.1-4.4-14.2-8.7-21.4-13.1c0,14.4,0,28.5,0,42.9c0.5-0.3,1.1-0.7,1.6-1L243.2,221.5z"/>
	</g>
	<polygon fill="#3892CC" points="178.1,222.7 178.1,211.3 171.4,211.3 171.4,215.8 162.8,207 138.8,231.5 144.6,231.5 144.6,247.3 
		159.4,247.3 159.4,234.3 166.1,234.3 166.1,247.3 181,247.3 181,231.5 186.7,231.5 	"/>
</g>
</svg>
