<?xml version="1.0" encoding="utf-8"?>
<!-- Generator: Adobe Illustrator 18.1.1, SVG Export Plug-In . SVG Version: 6.00 Build 0)  -->
<!DOCTYPE svg PUBLIC "-//W3C//DTD SVG 1.1//EN" "http://www.w3.org/Graphics/SVG/1.1/DTD/svg11.dtd">
<svg version="1.1" id="Layer_1" xmlns="http://www.w3.org/2000/svg" xmlns:xlink="http://www.w3.org/1999/xlink" x="0px" y="0px"
	 viewBox="0 149.8 800 492.2" enable-background="new 0 149.8 800 492.2" xml:space="preserve">
<g>
	<path fill="none" stroke="#818181" stroke-width="2" d="M68.8,172C37,173.8,11.6,199,9,230.6H8.8v321.6c0,33.8,26.4,61.6,59.8,63.6
		v0.2H726c35.2,0,63.8-28.6,63.8-63.8V230.6h-0.2c-2.6-32.8-30-58.8-63.4-58.8L68.8,172L68.8,172z"/>
	<circle fill="none" stroke="#818181" stroke-width="2" cx="37.4" cy="258.8" r="7"/>
	<path fill="none" stroke="#818181" stroke-width="2" d="M36.2,346.8c2,0,3.8,1.6,3.8,3.8V437c0,2-1.6,3.8-3.8,3.8l0,0
		c-2,0-3.8-1.6-3.8-3.8v-86.4C32.4,348.6,34,346.8,36.2,346.8L36.2,346.8z"/>
	<rect x="83.4" y="197.6" fill="none" stroke="#676767" stroke-width="2" stroke-miterlimit="10" width="622.8" height="391"/>
	<path fill="none" stroke="#818181" stroke-width="2" d="M727.8,360.8v8v46v8c0,5.8,4.8,10.6,10.6,10.6h14.4
		c5.8,0,10.6-4.8,10.6-10.6v-8v-46v-8c0-5.8-4.8-10.6-10.6-10.6h-14.4C732.6,350.2,727.8,355,727.8,360.8z"/>
	<rect x="738.4" y="498.6" fill="none" stroke="#818181" stroke-width="2" width="12.8" height="26.4"/>
	<rect x="738.4" y="258.8" fill="none" stroke="#818181" stroke-width="2" width="12.8" height="26.4"/>
	<rect x="94" y="295.4" fill="none" width="621.6" height="73.2"/>
	<text transform="matrix(1 0 0 1 126.6699 327.9707)" fill="#595A5C" font-family="'OpenSans-Semibold'" font-size="38.117">Watch a video for another life!</text>
	<g>
		<path fill="#3892CC" d="M513.8,459.8c-9.2-5.6-18.2-11.2-27.2-16.8L447,500.6C469.4,487,491.4,473.4,513.8,459.8z"/>
		<path fill="#3892CC" d="M486.4,443c-14.2-8.8-28.4-17.4-42.8-26.2c0,28.8,0,57,0,85.8c1-0.6,2.2-1.4,3.2-2L486.4,443z"/>
	</g>
	<polygon fill="#3892CC" points="356.2,445.4 356.2,422.6 342.8,422.6 342.8,431.6 325.6,414 277.6,463 289.2,463 289.2,494.6 
		318.8,494.6 318.8,468.6 332.2,468.6 332.2,494.6 362,494.6 362,463 373.4,463 	"/>
</g>
</svg>
