<?xml version="1.0" encoding="utf-8"?>
<!-- Generator: Adobe Illustrator 18.1.1, SVG Export Plug-In . SVG Version: 6.00 Build 0)  -->
<!DOCTYPE svg PUBLIC "-//W3C//DTD SVG 1.1//EN" "http://www.w3.org/Graphics/SVG/1.1/DTD/svg11.dtd">
<svg version="1.1" id="Layer_1" xmlns="http://www.w3.org/2000/svg" xmlns:xlink="http://www.w3.org/1999/xlink" x="0px" y="0px"
	 viewBox="0 0 400 400" enable-background="new 0 0 400 400" xml:space="preserve">
<g>
	<rect x="96.7" y="263.9" fill="#78549F" width="51.1" height="95.1"/>
	<polygon fill="#B6589F" points="161.9,251 147.8,263.9 96.7,263.9 110.8,251 	"/>
	<polyline fill="#2C3B8E" points="147.8,359 147.8,263.9 161.9,251 161.9,347.4 147.8,360.3 	"/>
	<rect x="188.5" y="225.7" fill="#78549F" width="54.4" height="136.6"/>
	<polygon fill="#B6589F" points="258,207.2 243,225.7 188.5,225.7 203.5,207.2 	"/>
	<polyline fill="#2C3B8E" points="243,362.3 243,225.7 258,207.2 258,345.6 243,364.1 	"/>
	
		<rect x="4.1" y="306.7" transform="matrix(1 9.384927e-03 -9.384927e-03 1 3.13 -0.2634)" fill="#78549F" width="51.1" height="53.3"/>
	<polygon fill="#B6589F" points="69.6,299.9 55.4,306.9 4.3,306.5 18.5,299.4 	"/>
	<polyline fill="#2C3B8E" points="54.9,360.3 55.4,306.9 69.6,299.9 69.1,353.9 54.9,361 	"/>
	<rect x="283.8" y="174.5" fill="#78549F" width="54.4" height="187.1"/>
	<polygon fill="#B6589F" points="353.3,149.2 338.3,174.5 283.8,174.5 298.9,149.2 	"/>
	<polyline fill="#2C3B8E" points="338.3,361.6 338.3,174.5 353.3,149.2 353.3,338.8 338.3,364.1 	"/>
	
		<polyline fill="none" stroke="#DD294C" stroke-width="3" stroke-linecap="round" stroke-linejoin="round" stroke-miterlimit="10" points="
		361.6,72.8 318.6,161.9 270.4,118.1 230.1,214.4 161.9,172.1 129.3,256.7 51,232.7 25.2,299.4 	"/>
	
		<polygon fill="#DD294C" stroke="#DD294C" stroke-width="2" stroke-linecap="round" stroke-linejoin="round" stroke-miterlimit="10" points="
		361.4,112.4 333.8,81.3 397.1,55.5 	"/>
</g>
</svg>
