<?xml version="1.0" encoding="utf-8"?>
<!-- Generator: Adobe Illustrator 18.1.1, SVG Export Plug-In . SVG Version: 6.00 Build 0)  -->
<!DOCTYPE svg PUBLIC "-//W3C//DTD SVG 1.1//EN" "http://www.w3.org/Graphics/SVG/1.1/DTD/svg11.dtd">
<svg version="1.1" id="Layer_1" xmlns="http://www.w3.org/2000/svg" xmlns:xlink="http://www.w3.org/1999/xlink" x="0px" y="0px"
	 viewBox="0 0 800 959.1" enable-background="new 0 0 800 959.1" xml:space="preserve">
<g>
	<polygon fill="#F27C52" points="209,221.2 595.8,504.4 595.8,221.2 	"/>
	<polygon fill="#EF5B34" points="209,221.2 209,829.2 595.8,829.2 595.8,504.4 	"/>
	<path fill="none" d="M595.8,221.2L595.8,221.2c-129.8,0-258.2,0-386.8,0l0,0H595.8z"/>
	<path fill="none" d="M209,221.2L209,221.2L209,221.2z"/>
	<path fill="none" d="M445.6,189.6c3.8,0,7.4-4.8,11-7.2c-3.8-2.6-7.6-7.2-11.6-7.6c-14.6-1-29.2-0.4-43.8-0.4
		c-14.2,0-28.4-0.6-42.4,0.4c-4.2,0.2-8.4,4.4-12.4,6.8c3.8,2.8,7.8,8,11.6,8C387.2,190.2,416.4,190.2,445.6,189.6z"/>
	<path fill="#414142" d="M595.8,504.4v324.8H209v-608l0,0c128.6,0,257,0,386.8,0l0,0V504.4l32,23.4c0-107.4,0-214.8,0-322.2
		c0-43.2-24.6-68-67.4-68c-103.8,0-207.8,0-311.6,0c-43,0-67.6,24.8-67.6,68c0,214.8,0,429.8,0,644.6c0,43,24.8,67.8,67.6,67.8
		c103.4,0,206.8,0,310.4,0c44.6,0,68.8-24.2,68.8-69.2c0-107,0-214,0-321L595.8,504.4z M358.8,174.8c14-0.8,28.2-0.4,42.4-0.4
		c14.6,0,29.2-0.6,43.8,0.4c4,0.2,7.6,4.8,11.6,7.6c-3.6,2.6-7.2,7.2-11,7.2c-29.2,0.6-58.4,0.6-87.4,0c-4,0-7.8-5.2-11.6-8
		C350.6,179.2,354.6,175,358.8,174.8z M452.4,874c-1.6,12.8-11.6,22.2-25.4,22.8c-8.4,0.4-16.8,0-25.2,0c-8,0-16,0.4-24,0
		c-13.8-0.8-24.4-11-25.6-24.2c-1-12.8,7-25.8,20.6-26.8c19.8-1.6,39.8-1.8,59.6,0.2C446.8,847,454,859.8,452.4,874z"/>
	<g>
		<circle fill="#FFDC38" cx="394.4" cy="505.8" r="129.8"/>
		<rect x="214.4" y="419.6" fill="none" width="360" height="260"/>
		<text transform="matrix(1 0 0 1 340.2261 563.7581)" fill="#FFFFFF" font-family="'OpenSans-Semibold'" font-size="189.7426">$</text>
		
			<linearGradient id="SVGID_1_" gradientUnits="userSpaceOnUse" x1="153.8" y1="546.9934" x2="261.4154" y2="546.9934" gradientTransform="matrix(2 0 0 -2 0 1600)">
			<stop  offset="0" style="stop-color:#F8EB48"/>
			<stop  offset="1" style="stop-color:#FAAF4C"/>
		</linearGradient>
		<path fill="url(#SVGID_1_)" d="M394.4,376.2c0,0,98.8,37.6,95,129.8c-3.6,92-104,117.6-181.8,96.2c0,0,137.4,106,210.8-58.4
			C518.4,543.6,559,386.8,394.4,376.2z"/>
	</g>
</g>
</svg>
