<?xml version="1.0" encoding="utf-8"?>
<!-- Generator: Adobe Illustrator 18.1.1, SVG Export Plug-In . SVG Version: 6.00 Build 0)  -->
<!DOCTYPE svg PUBLIC "-//W3C//DTD SVG 1.1//EN" "http://www.w3.org/Graphics/SVG/1.1/DTD/svg11.dtd">
<svg version="1.1" id="Layer_1" xmlns="http://www.w3.org/2000/svg" xmlns:xlink="http://www.w3.org/1999/xlink" x="0px" y="0px"
	 viewBox="0 0 400 400" enable-background="new 0 0 400 400" xml:space="preserve">
<g>
	<polygon fill="#F27C52" points="104.5,44.7 297.9,186.3 297.9,44.7 	"/>
	<polygon fill="#EF5B34" points="104.5,44.7 104.5,348.7 297.9,348.7 297.9,186.3 104.5,44.7 	"/>
	<path fill="none" d="M297.9,44.7L297.9,44.7c-64.9,0-129.1,0-193.4,0h0H297.9z"/>
	<polygon fill="none" points="104.5,44.7 104.5,44.7 104.5,44.7 	"/>
	<path fill="none" d="M222.8,28.9c1.9,0,3.7-2.4,5.5-3.6c-1.9-1.3-3.8-3.6-5.8-3.8c-7.3-0.5-14.6-0.2-21.9-0.2
		c-7.1,0-14.2-0.3-21.2,0.2c-2.1,0.1-4.2,2.2-6.2,3.4c1.9,1.4,3.9,4,5.8,4C193.6,29.2,208.2,29.2,222.8,28.9z"/>
	<path fill="#414142" d="M297.9,186.3v162.4H104.5v-304l0,0c64.3,0,128.5,0,193.4,0l0,0V186.3l16,11.7c0-53.7,0-107.4,0-161.1
		c0-21.6-12.3-34-33.7-34c-51.9,0-103.9,0-155.8,0c-21.5,0-33.8,12.4-33.8,34c0,107.4,0,214.9,0,322.3c0,21.5,12.4,33.9,33.8,33.9
		c51.7,0,103.4,0,155.2,0c22.3,0,34.4-12.1,34.4-34.6c0-53.5,0-107,0-160.5L297.9,186.3z M179.4,21.5c7-0.4,14.1-0.2,21.2-0.2
		c7.3,0,14.6-0.3,21.9,0.2c2,0.1,3.8,2.4,5.8,3.8c-1.8,1.3-3.6,3.6-5.5,3.6c-14.6,0.3-29.2,0.3-43.7,0c-2,0-3.9-2.6-5.8-4
		C175.3,23.7,177.3,21.6,179.4,21.5z M226.2,371.1c-0.8,6.4-5.8,11.1-12.7,11.4c-4.2,0.2-8.4,0-12.6,0c-4,0-8,0.2-12,0
		c-6.9-0.4-12.2-5.5-12.8-12.1c-0.5-6.4,3.5-12.9,10.3-13.4c9.9-0.8,19.9-0.9,29.8,0.1C223.4,357.6,227,364,226.2,371.1z"/>
	<g>
		<circle fill="#FFDC38" cx="197.2" cy="187" r="64.9"/>
		<rect x="107.2" y="143.9" fill="none" width="180" height="130"/>
		<text transform="matrix(1 0 0 1 170.113 215.9791)" fill="#FFFFFF" font-family="'OpenSans-Semibold'" font-size="94.8713">$</text>
		<linearGradient id="SVGID_1_" gradientUnits="userSpaceOnUse" x1="153.8087" y1="187.0573" x2="261.4455" y2="187.0573">
			<stop  offset="0" style="stop-color:#F8EB48"/>
			<stop  offset="1" style="stop-color:#FAAF4C"/>
		</linearGradient>
		<path fill="url(#SVGID_1_)" d="M197.2,122.2c0,0,49.4,18.8,47.5,64.9c-1.8,46-52,58.8-90.9,48.1c0,0,68.7,53,105.4-29.2
			C259.2,205.9,279.5,127.5,197.2,122.2z"/>
	</g>
</g>
</svg>
