<?xml version="1.0" encoding="utf-8"?>
<!-- Generator: Adobe Illustrator 18.1.1, SVG Export Plug-In . SVG Version: 6.00 Build 0)  -->
<!DOCTYPE svg PUBLIC "-//W3C//DTD SVG 1.1//EN" "http://www.w3.org/Graphics/SVG/1.1/DTD/svg11.dtd">
<svg version="1.1" id="Layer_1" xmlns="http://www.w3.org/2000/svg" xmlns:xlink="http://www.w3.org/1999/xlink" x="0px" y="0px"
	 viewBox="0 0 400 400" enable-background="new 0 0 400 400" xml:space="preserve">
<g>
	<path fill="#F7AA91" d="M194.3,72.1c81.9,0.2,148.1,66.4,148,148.2c-0.1,81.9-66.4,148.1-148.2,148c-81.8-0.1-148.1-66.4-148-148.2
		C46.2,138.3,112.6,71.9,194.3,72.1z M182.4,208.5c-1.8,0-3.1,0-4.4,0c-31.3,0-62.6,0-94,0c-1.2,0-2.4-0.1-3.6,0
		c-4.9,0.5-8.4,2.9-10.3,7.5c-1.8,4.6-0.7,8.9,2.6,12.4c2.7,2.9,6.3,3.6,10.2,3.6c36.3,0,72.5,0,108.8,0c9.8,0,14.2-4.5,14.2-14.2
		c0-36.1,0-72.3,0-108.4c0-1.1,0-2.2-0.1-3.3c-0.6-6.3-5.7-10.8-12-10.7c-6.8,0.1-11.5,5.3-11.5,12.9c0,32,0,64,0,95.9
		C182.4,205.5,182.4,206.8,182.4,208.5z"/>
	<path fill="#FAD3C2" d="M46.1,220.2C46.1,275,75.8,322.8,120,348.4l167.4-243.2c-25.4-20.6-57.8-33-93.2-33.1
		C112.6,71.9,46.2,138.3,46.1,220.2z"/>
	<path fill="#595A5C" d="M132.4,2c7.8,1.5,13,6.4,17.6,12.6c5,6.9,10.6,13.3,16.3,20.5c-23.3,3.7-44.8,11.1-64.9,22.7
		C81.3,69.3,64,84,48.9,102.4c-0.6-1.3-1-2.3-1.3-3.2c-3.3-8.4-6.4-17-9.9-25.3c-2.8-6.7-2.2-13,1.1-19.2
		c4.9-9.3,12.4-16.4,20.7-22.5c15-11.2,31-20.4,48.8-26.4c4.8-1.6,9.9-2.5,14.9-3.6C126.2,2,129.3,2,132.4,2z"/>
	<path fill="#595A5C" d="M265.2,2c6.6,1.8,13.5,2.9,19.8,5.5c21.4,8.6,41.2,19.8,57.3,36.8c4.8,5.1,9,10.9,9.9,18.2
		c0.3,2.9,0.2,6.2-0.7,9c-3.5,9.9-7.5,19.6-11.3,29.4c-0.1,0.4-0.4,0.7-0.8,1.3c-30.7-36.6-69.5-59-117-67c0.8-1.1,1.5-2.1,2.2-3
		c6-7.5,12.1-15,18.1-22.6c3.5-4.4,8.4-6,13.5-7.5C259.1,2,262.1,2,265.2,2z"/>
	<path fill="#595A5C" d="M182.4,208.5c0-1.7,0-3,0-4.3c0-32,0-64,0-95.9c0-7.6,4.7-12.8,11.5-12.9c6.2-0.1,11.4,4.5,12,10.7
		c0.1,1.1,0.1,2.2,0.1,3.3c0,36.1,0,72.3,0,108.4c0,9.7-4.5,14.2-14.2,14.2c-36.3,0-72.5,0-108.8,0c-3.9,0-7.5-0.7-10.2-3.6
		c-3.4-3.5-4.5-7.8-2.6-12.4c1.8-4.6,5.3-7.1,10.3-7.5c1.2-0.1,2.4,0,3.6,0c31.3,0,62.6,0,94,0C179.3,208.5,180.6,208.5,182.4,208.5
		z"/>
	<path fill="none" d="M194.1,368.4c81.8,0.1,148.1-66.2,148.2-148c0-46.5-21.3-88-54.8-115.1L120,348.4
		C141.8,361.1,167.1,368.3,194.1,368.4z"/>
	<path fill="#595A5C" d="M358.2,169.9c-10.5-34.3-30.9-63.2-57.4-84.2l-13.4,19.5c33.5,27.2,54.8,68.6,54.8,115.1
		c-0.1,81.9-66.4,148.1-148.2,148c-27,0-52.3-7.3-74-19.9l-13.5,19.6c21.3,12.4,46,20.2,74.3,23.2c22.9,2.4,45.5-0.7,67.3-8
		C337,353.3,385.7,259.5,358.2,169.9z"/>
	<path fill="#808184" d="M46.1,220.2c0.1-81.9,66.5-148.2,148.2-148c35.4,0.1,67.7,12.5,93.2,33.1l13.4-19.5
		c-35.7-28.4-82.5-42.3-131.3-35.4c-32.8,4.6-61.9,17.9-86.9,39.6c-32.2,27.9-51.7,62.9-58.2,105c-0.7,4.7-1.3,9.5-1.9,14.2
		c0,7.5,0,14.9,0,22.4c0.2,1,0.6,1.9,0.6,2.9c1.1,15.7,4.2,31.1,10.1,45.6c16.4,39.9,40.8,69.3,73.2,88.1l13.5-19.6
		C75.8,322.8,46.1,275,46.1,220.2z"/>
</g>
</svg>
