<?xml version="1.0" encoding="utf-8"?>
<!-- Generator: Adobe Illustrator 18.1.1, SVG Export Plug-In . SVG Version: 6.00 Build 0)  -->
<!DOCTYPE svg PUBLIC "-//W3C//DTD SVG 1.1//EN" "http://www.w3.org/Graphics/SVG/1.1/DTD/svg11.dtd">
<svg version="1.1" id="Layer_1" xmlns="http://www.w3.org/2000/svg" xmlns:xlink="http://www.w3.org/1999/xlink" x="0px" y="0px"
	 viewBox="0 0 400 400" enable-background="new 0 0 400 400" xml:space="preserve">
<g>
	<path fill="none" d="M366.1,344.3c-6.6,0-11.8,5.4-11.8,12.1c0,6.9,5.1,12,12,12c6.8,0,12.2-5.3,12.1-12
		C378.4,349.6,372.9,344.3,366.1,344.3z"/>
	<path fill="#666666" d="M362.1,10.2c-16.6,9.9-33.3,19.8-49.9,29.7c-0.9,0.5-1.7,1.1-1.9,2.3c-1.2,8.7-2.5,17.3-3.8,25.9
		c-0.1,0.6-0.1,1.1,0.3,1.7c1.4,1.8,1.4,1.8-0.2,3.4c-30.5,30.5-60.9,60.9-91.4,91.4c-31.5,31.5-63.1,63.1-94.6,94.6
		c-1.5,1.5-1.5,1.5-3,0c-3.1-3.1-6.2-6.2-9.3-9.3c-0.8-0.8-1.3-0.9-2-0.4l33.5,30.7c0.2-0.2,0.5-0.5,0.9-0.9c51-51,102-102,153-153
		c11.2-11.2,22.4-22.3,33.5-33.5c1-1,1.7-1.2,2.6,0c0.6,0.8,1.3,0.9,2.2,0.7c0.7-0.1,1.4-0.2,2.1-0.3c7.9-1.2,15.8-2.3,23.7-3.5
		c0.4-0.1,0.8-0.2,1.1-0.4l4.4-79.8C362.9,9.7,362.5,9.9,362.1,10.2z"/>
	<path fill="#A7A9AC" d="M393.4,28.5c-7.4-7.4-14.8-14.7-22.1-22.1c-0.8-0.8-1.5-0.8-2.4-0.2c-1.8,1.1-3.6,2.2-5.5,3.3l-4.4,79.8
		c0.3-0.2,0.6-0.5,0.8-0.9c11.3-19.1,22.6-38.2,34-57.2C394.4,30,394.2,29.3,393.4,28.5z"/>
	<path fill="#BC2132" d="M149.7,291.2c-3-3-6-6-9-9c-1.1-1.1-1.4-1.4-0.8-2.1l-33.5-30.7c-0.2,0.1-0.3,0.2-0.5,0.4
		c-27.5,27.6-55.1,55.1-82.6,82.7c-6,6-8.7,13.3-8.9,20.4c0,7.3,1.6,12.8,4.7,17.8c2.4,3.9,5.6,7,9.2,9.4L149.7,291.2L149.7,291.2z"
		/>
	<path fill="#C6534B" d="M28.3,380.2c6.6,4.4,14.7,6.2,22.9,4.7c6.6-1.2,12.3-4.3,17.1-9.1c21.1-21.1,42.2-42.2,63.3-63.3
		c6.1-6.1,12.1-12.1,18.2-18.2c1.5-1.5,1.5-1.5,0-3.1L28.3,380.2z"/>
	<path fill="none" d="M366.2,368.4c6.8,0,12.2-5.3,12.1-12c0-6.7-5.5-12.1-12.3-12.1c-6.6,0-11.8,5.4-11.8,12.1
		C354.2,363.3,359.4,368.4,366.2,368.4z"/>
	<path fill="none" d="M120.8,69.3C106,54.4,91.1,39.5,76.2,24.6l39.4,52.9c1.8-1.8,3.5-3.5,5.3-5.3
		C122.3,70.8,122.3,70.8,120.8,69.3z"/>
	<path fill="#58595B" d="M82.3,110.8c-1.7,1.7-1.7,1.7-3.4,0C60.5,92.4,42,73.9,23.6,55.5c-1.6-1.6-1.7-1.6-2.5,0.5
		c-4.6,12.1-6.3,24.6-4.7,37.5c2,16.8,8.7,31.5,20.2,43.9c13.6,14.6,30.4,23,50.4,24.8c12.1,1.1,23.8-0.5,35.1-4.8
		c1.7-0.6,2.6-0.4,3.8,0.8c12.4,12.4,24.8,24.8,37.2,37.3c1.1,1.1,1.7,1.2,2.8,0c7.1-7.2,14.3-14.3,21.5-21.5l-71.8-96.6
		C104.5,88.6,93.4,99.7,82.3,110.8z"/>
	<path fill="#1A1A1A" d="M65.6,14c3.6,3.6,7.1,7.1,10.7,10.7L66.1,11.1C63.6,12,63.6,12.1,65.6,14z"/>
	<path fill="#1A1A1A" d="M205.3,153.1c-12.3-12.3-24.6-24.6-36.9-36.8c-1.4-1.4-1.7-2.5-1-4.4c4.2-11,5.9-22.4,4.8-34.1
		c-1.8-19.6-9.7-36.4-23.9-50C133.2,13.3,115,6.3,98.7,6c-14.2,0-23.5,1.7-32.5,5.1l0,0l10.1,13.5c14.9,14.9,29.8,29.8,44.6,44.6
		c1.5,1.5,1.5,1.5,0,3c-1.8,1.8-3.5,3.5-5.3,5.3l71.8,96.6c6-6,11.9-12,17.9-17.9C206.8,154.6,206.8,154.6,205.3,153.1z"/>
	<path fill="#58595B" d="M204.5,233.8c-1.6,1.6-1.6,1.6,0.1,3.2c11.5,11.5,23,23,34.4,34.4c27.1,27.1,54.3,54.3,81.4,81.4
		L220.1,218.1C214.9,223.3,209.7,228.5,204.5,233.8z"/>
	<path fill="#1A1A1A" d="M367.9,385.5c15.4-1.2,27.6-14.3,27.6-29c-0.2-9.3-3.4-16.6-9.5-22.7c-46.4-46.4-92.8-92.8-139.2-139.2
		c-1.6-1.6-1.6-1.6-3.2,0c-7.8,7.8-15.7,15.7-23.5,23.5l100.2,134.7c7.8,7.8,15.7,15.7,23.5,23.5C350.5,383,358.5,386.2,367.9,385.5
		z M366.1,344.3c6.8,0,12.3,5.4,12.3,12.1c0,6.7-5.4,12-12.1,12c-6.9,0-12-5.1-12-12C354.2,349.6,359.5,344.3,366.1,344.3z"/>
</g>
</svg>
